<svg id="Laag_2" data-name="Laag 2" xmlns="http://www.w3.org/2000/svg" viewBox="0 0 2140 1250"><defs><style>.cls-1{fill:#05529d;}.cls-2{fill:#bacfe4;}.cls-3{fill:#e8eff6;}.cls-4{fill:#d2dfed;}.cls-5{fill:#c3d1dd;}.cls-6{fill:#bac7d1;}.cls-7{fill:#a3c1db;}.cls-8{fill:#8dafd2;}.cls-9{fill:#66785b;}.cls-10{fill:#405632;}.cls-11{fill:#8db573;}.cls-12{fill:#71a350;}.cls-13{fill:#cddceb;}.cls-14{fill:#6090c0;}.cls-15{fill:#7f3d03;}.cls-16{fill:#d4e5f6;}.cls-17{fill:#1a1a1a;}</style></defs><title>3illustratie</title><rect class="cls-1" y="605.98" width="2143.14" height="644.43"/><rect class="cls-2" width="2144.49" height="690.72"/><path class="cls-3" d="M1574.47,544.3h166.66a41.47,41.47,0,0,0-51.93-36.63A41.44,41.44,0,0,0,1627.08,496a41.46,41.46,0,0,0-53.83,39.53A32.12,32.12,0,0,0,1574.47,544.3Z"/><path class="cls-4" d="M1574.45,544.3h164.12c-1.71-19.62-19.26-35-40.65-35a43.55,43.55,0,0,0-10.49,1.27c-7-11.53-20.27-19.32-35.47-19.32a42.38,42.38,0,0,0-25.7,8.53A43.5,43.5,0,0,0,1614,498c-22.52,0-40.78,17.09-40.78,38.18A28.11,28.11,0,0,0,1574.45,544.3Z"/><polygon class="cls-5" points="587.95 679.47 585.84 679.47 586.66 678.88 587.95 679.47"/><polygon class="cls-5" points="587.95 679.47 585.84 679.47 586.66 678.88 587.95 679.47"/><polygon class="cls-5" points="587.95 679.47 585.84 679.47 586.66 678.88 587.95 679.47"/><polygon class="cls-5" points="587.95 679.47 585.84 679.47 586.66 678.88 587.95 679.47"/><polygon class="cls-6" points="587.95 682.75 585.84 682.75 586.66 682.17 587.95 682.75"/><polygon class="cls-6" points="587.95 682.75 585.84 682.75 586.66 682.17 587.95 682.75"/><polygon class="cls-6" points="587.95 682.75 585.84 682.75 586.66 682.17 587.95 682.75"/><polygon class="cls-6" points="587.95 682.75 585.84 682.75 586.66 682.17 587.95 682.75"/><path class="cls-7" d="M2409.38,773.78,2153.6,594l-42.13,30.84-116.68-82-45.49,33.3L1939,583.51l-68-47.8-40,29.26-29.61-20.82-27,19.75-73.08-51.38-45.49,33.3-86.44,62.62-93.42-65.68-45.48,33.3-38.18,27.65L1219.51,449.89l-98,71.26-65-45.72L1011,508.73l-81,58.69-96.42-67.79-45.48,33.3L765.89,549l-37.21-26.15-42.35,31L588.65,467l-98,71.25-65-45.71-45.48,33.3-69.11,50.06-130.38-116L-156.34,705H261.37l-9.76,7.1H1050.9L1014.08,695h252.28l-38.08,27.58h327.34L1553.7,724h420.87l-68.75,49.8ZM586.66,678.87l1.29.6h-2.11Z"/><path class="cls-8" d="M2409.38,773.78,2153.6,600.19,2111.47,630l-116.68-79.18-45.49,32.14L1939,590.11l-68-46.13-40,28.24-29.61-20.1-27,19.07-73.08-49.6-45.49,32.15-86.44,60.44-93.42-63.4-45.48,32.14-38.18,26.7L1219.51,461.14l-98,68.78-65-44.13L1011,517.94l-81,56.64-96.42-65.43L788.13,541.3l-22.24,15.55L728.68,531.6l-42.35,29.93-97.68-83.89-98,68.78-65-44.13-45.48,32.16-69.11,48.32-130.38-112-337,236.61H261.37l-9.76,6.85H1050.9l-36.82-16.51h252.28l-38.08,26.63h327.34l-1.92,1.34h420.87l-68.75,48.07ZM586.66,682.17l1.29.58h-2.11Z"/><polygon class="cls-3" points="1801.48 544.14 1790.79 552 1798.04 553.73 1801.91 558.79 1805.8 552.98 1816.21 554.56 1801.48 544.14"/><polygon class="cls-4" points="1801.77 545.19 1792.62 551.92 1798.82 553.41 1802.14 557.74 1805.47 552.76 1814.38 554.12 1801.77 545.19"/><polygon class="cls-3" points="1219.56 448.59 1187.88 472.89 1210.62 482.81 1219.56 477.31 1228.62 485.14 1247.32 474.74 1219.56 448.59"/><polygon class="cls-4" points="1219.41 449.96 1190.11 472.44 1211.14 481.62 1219.41 476.53 1227.8 483.78 1245.1 474.15 1219.41 449.96"/><polygon class="cls-3" points="588.64 466.87 549.02 496.09 572.41 498.96 582.6 508.64 596.61 512.62 608.57 512.62 612.69 507.26 630.44 504.25 588.64 466.87"/><polygon class="cls-4" points="588.71 468.2 551.4 495.72 573.42 498.42 583.01 507.54 596.21 511.29 607.47 511.29 611.35 506.24 628.06 503.41 588.71 468.2"/><path class="cls-9" d="M-2.6,615.31s18.67,5.34,40.89,13.34c14.54,5.23,35.56,3.61,48.34,1.87a43.18,43.18,0,0,0,19.73-8c5.49-4,13-9.73,20.82-16.14,15.11-12.44,43.56-6.22,68.45-5.33s48.89-27.56,64.89-23.11,16,16.89,35.55,18.67,16.09-18,28.45-19.56,34.64-12.35,92.56,3.35c3.44.93,6.84,2,10.22,3.08C436.05,586.41,461,594,481.85,594c25.78,0,48,8.89,56,14.22s24.89,12.45,40,12.45,54.23.88,68.45,11.55c11.3,8.48,50.12,7.41,65.58,6.62,3.5-.18,7-.3,10.51-.31,8.93,0,32.21-1.2,67-10.75,32.41-8.9,90.7-10.53,121.32-10.73a186.38,186.38,0,0,1,34.65,3c29.68,5.38,98.27,14.69,147.15-3A243.63,243.63,0,0,1,1162.22,603a180.27,180.27,0,0,1,59.27,7c15,4.3,41,8.46,63.93-4.47,28.86-16.27,104.52,8.72,129.08,17.55q9.81,3.52,19.92,6.18c27.41,7.19,94.59,23.51,130.11,20.72,45.34-3.56,69.34,9.78,96,14.22s152-4.44,187.56-22.22,64-28.45,113.78.89c38.65,22.77,90.7,9.64,112,2.64a131.84,131.84,0,0,0,12.89-5c5.18-2.32,15.91-6.49,26.18-6.49,14.23,0,27.56-15.11,27.56-15.11v176H-2.6Z"/><path class="cls-10" d="M-2.6,623.37s18.67,5.09,40.89,12.73c14.54,5,35.56,3.46,48.34,1.8a44.37,44.37,0,0,0,19.73-7.61c5.49-3.84,13-9.29,20.82-15.41,15.11-11.89,43.56-5.94,68.45-5.1s48.89-26.32,64.89-22.07,16,16.13,35.55,17.83,16.09-17.24,28.45-18.68,34.64-11.79,92.56,3.2c3.44.89,6.84,1.88,10.22,2.94,8.75,2.76,33.69,10,54.55,10,25.78,0,48,8.49,56,13.59s24.89,11.88,40,11.88,54.23.85,68.45,11c11.3,8.1,50.12,7.08,65.58,6.32,3.5-.17,7-.28,10.51-.29,8.93,0,32.21-1.15,67-10.28,32.41-8.49,90.7-10,121.32-10.24a195.19,195.19,0,0,1,34.65,2.88c29.68,5.14,98.27,14,147.15-2.82a253.49,253.49,0,0,1,69.69-13.48,188.41,188.41,0,0,1,59.27,6.7c15,4.11,41,8.08,63.93-4.26,28.86-15.55,104.52,8.32,129.08,16.76q9.81,3.38,19.92,5.9c27.41,6.87,94.59,22.45,130.11,19.79,45.34-3.4,69.34,9.34,96,13.58s152-4.24,187.56-21.22,64-27.17,113.78.85c38.65,21.75,90.7,9.21,112,2.52,4.39-1.38,8.68-3,12.89-4.81,5.18-2.22,15.91-6.2,26.18-6.2,14.23,0,27.56-14.44,27.56-14.44V794.87H-2.6Z"/><path class="cls-4" d="M1520.51,804.09l-.18-.36a10.63,10.63,0,0,0-8.1-5.56c-16.41-2.2-92-4.5-126.54-5.46L1010.34,468.54l9.27-9c6.75-16.39-11.64-11.23-11.64-11.23L688.45,730.42c-51.06,42.3-115.48,59.66-180.51,61.14l-56.89,1.29a13.82,13.82,0,0,0-13.15,17.2,28,28,0,0,0,1.73,4.63,7.78,7.78,0,0,0,7.41,4.5l218.75-7.42.46,45.28h58l-1.15-47.43,179.75-4.08V857h41.67V803.5l.74,0c133.55-5.25,354.55,6,478.53,11.93l.7,41.65h50.6l-1.51-39.12c16.91.93,29.45,1.67,36.23,2.11C1518.37,820.55,1524.4,811.67,1520.51,804.09ZM724.66,747.4l8.5-8.29,55.69,46.13C693.13,788.73,724.66,747.4,724.66,747.4Zm75,37.41L738.31,734l17.53-17,76,66.45C821.34,783.78,810.58,784.27,799.62,784.81Zm42.92-1.75-81.42-71.24,16.12-15.71L880.08,782C868.17,782.24,855.59,782.59,842.54,783.06Zm47.6-1.32L782,691.45l16.4-16L919,781.2C910,781.35,900.38,781.51,890.14,781.74Zm38.45-.63L803,670.9l17.07-16.62L959,780.84C950.63,780.9,940.39,781,928.59,781.11Zm54.69-.23s-5.33-.06-15-.08L824.6,649.86l17-16.68,166.79,147.67C992.57,780.85,983.28,780.88,983.28,780.88Zm34.76-.06L846.28,628.7l16.3-15.89L1048.71,780.9C1037.26,780.85,1026.9,780.85,1018,780.82Zm40.19.16L867.09,608.4,881.75,594l210.34,187.18C1080.11,781.14,1068.79,781,1058.23,781Zm43.4.39L886.2,589.69,904.43,572l235.19,209.93C1126.55,781.7,1113.85,781.51,1101.63,781.37Zm47.4.72L908.88,567.6l14.54-14.17L1183,782.76C1171.57,782.53,1160.24,782.26,1149,782.09Zm43.58.93L927.82,549.08l17.75-17.3,282.71,252.35C1216.47,783.67,1204.54,783.35,1192.61,783Zm45.39,1.43-288-257,17.05-16.69L1274.33,786C1262.52,785.38,1250.35,784.88,1238,784.45Zm46.17,2.06L971.54,506.45l16.59-16.19,337.32,298.79C1312.49,788.09,1298.63,787.2,1284.17,786.51Zm86.59,5.76c-8.21-.29-16.37-.76-24.6-1.54-3.42-.34-7-.61-10.57-.9L992.52,485.9l13.42-13,370,319.55C1373.82,792.38,1372,792.3,1370.76,792.27Z"/><path class="cls-11" d="M-2.6,942.14H805.54S756.59,849,616.15,832s-211.07-44.66-252-59.29-98.72-42.35-134-41.58S113,752.72,80.06,750.41s-82.66,0-82.66,0Z"/><path class="cls-12" d="M-2.6,942.14H790.66s-48-88.07-185.91-104.08S397.58,795.85,357.4,782s-96.89-40-131.55-39.3-115,20.38-147.31,18.2-81.14,0-81.14,0Z"/><path class="cls-11" d="M997.53,1215.76l-21.59-.54-187.42-4.67L-2.6,1215.76V905.45s119.79-8.19,190.92,23.81,113.55,88.56,152.24,110.14,86.72,40.18,112.3,40.18H618.2c35.56,0,81.73,2.23,116,7.44s69.88,41.67,99.2,46.88S997.53,1157.71,997.53,1215.76Z"/><path class="cls-12" d="M975.94,1215.22l-220.25.54H-2.6V924.19s117.2-7.69,186.8,22.37,111.1,83.21,149,103.48S418,1087.8,443,1087.8H604.8c34.79,0,80,2.1,113.54,7s68.38,39.15,97.06,44S975.09,1161.11,975.94,1215.22Z"/><polygon class="cls-8" points="2144.86 712.79 2144.86 730.72 1725.38 741.43 1725.38 750.08 1670.55 750.08 1670.55 759.3 1677.48 759.3 1677.48 767.13 1718.69 767.13 1718.69 789.83 1681.2 790.79 1672.65 791.01 1641.74 791.8 1635.82 791.95 1602.27 792.8 1594.56 793 1572.86 793.55 1565.14 793.75 1540.75 794.37 1535.19 794.51 1512.83 795.09 1506.9 795.24 1483.22 795.84 1476.07 796.03 1476.07 767.38 1512.83 767.29 1535.19 767.22 1540.75 767.21 1565.14 767.14 1569.54 767.13 1569.54 746.81 1586.6 746.81 1586.6 765.37 1597.69 765.37 1597.69 738.24 1614 738.24 1614 759.47 1631 759.47 1631 700.33 1670.55 700.33 1670.55 715.87 1677.64 715.87 1677.64 693.59 1707.14 693.59 1707.14 728.17 1725.38 728.17 1725.38 712.79 1818.84 712.54 1818.84 692.22 1835.9 692.22 1835.9 710.78 1847 710.78 1847 683.64 1863.3 683.64 1863.3 704.88 1880.3 704.88 1880.3 645.74 1919.84 645.74 1919.84 704.7 1926.78 704.7 1926.78 712.54 1969.97 712.54 1969.97 668.46 1997.03 668.46 1997.03 706.79 2003.96 706.79 2003.96 684.31 2014.71 684.31 2014.71 704.9 2019.92 704.9 2019.92 686.62 2039.17 686.62 2039.17 718.23 2068.49 718.23 2068.49 692.05 2108.89 692.05 2108.89 712.79 2144.86 712.79"/><rect class="cls-4" x="1732.53" y="719.16" width="23.68" height="36.83"/><rect class="cls-4" x="1762.12" y="690.88" width="22.36" height="65.11"/><rect class="cls-4" x="1822.16" y="695.49" width="21.7" height="55.25"/><rect class="cls-4" x="1851.57" y="650.76" width="33.54" height="99.97"/><rect class="cls-4" x="1891.04" y="683.65" width="30.91" height="64.46"/><rect class="cls-4" x="1930.5" y="631.03" width="37.49" height="106.55"/><polygon class="cls-4" points="1998.24 682.85 1998.24 737.58 1973.91 737.58 1973.91 682.85 1976.84 682.85 1976.84 672.23 1994.65 672.23 1994.65 682.85 1998.24 682.85"/><polygon class="cls-4" points="2030.62 699.1 2030.62 736.72 2006.23 736.72 2006.23 699.1 2008.24 699.1 2008.24 695.9 2010.53 695.9 2010.53 692.72 2012.72 692.72 2012.72 688.86 2023.78 688.86 2023.78 692.72 2026.23 692.72 2026.23 695.9 2028.61 695.9 2028.61 699.1 2030.62 699.1"/><polygon class="cls-4" points="1814.44 696.01 1814.44 741.43 1790.05 741.43 1790.05 696.01 1792.07 696.01 1792.07 692.14 1794.35 692.14 1794.35 688.3 1796.55 688.3 1796.55 683.65 1807.6 683.65 1807.6 688.3 1810.05 688.3 1810.05 692.14 1812.42 692.14 1812.42 696.01 1814.44 696.01"/><rect class="cls-4" x="2041.59" y="715.87" width="23.6" height="18.68"/><polygon class="cls-4" points="2070.83 693.61 2070.83 734.93 2105.45 734.93 2105.45 686.62 2082.11 686.62 2082.11 693.41 2070.83 693.61"/><rect class="cls-4" x="2113.49" y="700.67" width="25.93" height="33.88"/><rect class="cls-4" x="1483.22" y="773.75" width="23.68" height="36.83"/><rect class="cls-4" x="1512.82" y="745.47" width="22.36" height="65.11"/><rect class="cls-4" x="1572.85" y="750.08" width="21.7" height="55.25"/><rect class="cls-4" x="1602.27" y="705.35" width="33.54" height="99.97"/><rect class="cls-4" x="1641.73" y="738.24" width="30.91" height="64.46"/><rect class="cls-4" x="1681.2" y="685.62" width="37.49" height="106.55"/><polygon class="cls-4" points="1565.14 750.6 1565.14 796.02 1540.74 796.02 1540.74 750.6 1542.76 750.6 1542.76 746.73 1545.05 746.73 1545.05 742.89 1547.24 742.89 1547.24 738.24 1558.29 738.24 1558.29 742.89 1560.75 742.89 1560.75 746.73 1563.12 746.73 1563.12 750.6 1565.14 750.6"/><path class="cls-11" d="M1706.13,740.61c150-12.64,438.73-15,438.73-15V923.27H1155.52s-9.61-42.83,69-51.57,121.48-15.73,141.58-27.09,73.42-48.94,97.89-50.69,83.9-2.62,100.5-6.12S1623.1,747.6,1706.13,740.61Z"/><path class="cls-12" d="M1713.39,748.57c147.56-12.09,431.47-14.32,431.47-14.32v189h-973s-9.46-41,67.9-49.32S1359.26,858.9,1379,848s72.2-46.81,96.27-48.48,82.51-2.51,98.84-5.86S1631.73,755.25,1713.39,748.57Z"/><path class="cls-11" d="M2144.86,865.83l-.69,249.28-.05,15.63H931.91a55.34,55.34,0,0,1-.34-15.63c2-19.33,14.17-51.16,69.54-63.25,81.86-17.86,115.35-9.67,154-29s131.72-67.11,173.39-67.72c51.34-.74,178.59,8.93,239.61,2.24s162.23-59.54,195.71-59.54,141.39-15.62,186-23.07S2144.86,865.83,2144.86,865.83Z"/><path class="cls-12" d="M2144.13,1130.74H945.26s-12.51-58.11,68.44-75.11,114.07-9.21,152.34-27.64,130.27-63.91,171.48-64.48c50.78-.71,176.63,8.5,237,2.12S1734.94,909,1768.06,909s139.83-14.88,184-22,192.82-8.5,192.82-8.5Z"/><rect class="cls-7" x="923.72" y="1129.25" width="1227.09" height="2.98" rx="1.33"/><rect class="cls-7" x="900.96" y="856.67" width="44.89" height="2.34" rx="1.05"/><rect class="cls-7" x="1595.65" y="1141.5" width="155.76" height="1.95" rx="0.87"/><rect class="cls-7" x="1717.91" y="1160.54" width="101.88" height="1.95" rx="0.87"/><rect class="cls-7" x="1788.96" y="1149.97" width="103.21" height="1.95" rx="0.87"/><rect class="cls-7" x="1840.57" y="1139.39" width="77.88" height="1.95" rx="0.87"/><rect class="cls-7" x="1764.72" y="1135.4" width="43.42" height="1.95" rx="0.87"/><rect class="cls-7" x="9.49" y="1228.53" width="134.63" height="1.95" rx="0.87"/><rect class="cls-7" x="93.18" y="1241.35" width="88.06" height="1.95" rx="0.87"/><rect class="cls-7" x="165.63" y="1234.45" width="89.21" height="1.95" rx="0.87"/><rect class="cls-7" x="221.18" y="1223.66" width="67.32" height="1.95" rx="0.87"/><rect class="cls-7" x="155.62" y="1227.55" width="57.79" height="1.95" rx="0.87"/><rect class="cls-7" x="0.49" y="1235.69" width="57.79" height="1.95" rx="0.87"/><rect class="cls-7" x="742.33" y="953.87" width="44.89" height="1.95" rx="0.87"/><rect class="cls-7" x="779.38" y="959.89" width="29.37" height="1.95" rx="0.87"/><rect class="cls-7" x="797.82" y="956.39" width="29.75" height="1.95" rx="0.87"/><rect class="cls-7" x="812.92" y="951.75" width="22.45" height="1.95" rx="0.87"/><rect class="cls-7" x="1342.61" y="933.36" width="29.37" height="1.95" rx="0.87"/><rect class="cls-7" x="1378.62" y="931.4" width="32.47" height="1.95" rx="0.87"/><rect class="cls-7" x="1364.75" y="927.33" width="22.45" height="1.95" rx="0.87"/><rect class="cls-7" x="791.06" y="952.89" width="12.52" height="1.95" rx="0.87"/><rect class="cls-7" x="892.05" y="860.12" width="12.52" height="1.95" rx="0.87"/><path class="cls-7" d="M944.56,852.22h7.69a.87.87,0,0,1,.87.87v.2a.87.87,0,0,1-.87.87h-7.69a0,0,0,0,1,0,0v-2A0,0,0,0,1,944.56,852.22Z"/><path class="cls-3" d="M278,522.18v0H62a53.73,53.73,0,0,1,67.3-47.47,53.69,53.69,0,0,1,80.51-15.17,53.73,53.73,0,0,1,69.77,51.22A41.59,41.59,0,0,1,278,522.18Z"/><path class="cls-4" d="M278.05,522.18v0H65.36c2.21-25.43,25-45.41,52.68-45.41a56.2,56.2,0,0,1,13.59,1.65c9.09-14.95,26.27-25,46-25a54.94,54.94,0,0,1,33.31,11.06,56.1,56.1,0,0,1,15.84-2.25c29.2,0,52.86,22.15,52.86,49.48A36.52,36.52,0,0,1,278.05,522.18Z"/><path class="cls-3" d="M360.55,347.42v0h216a53.73,53.73,0,0,0-67.3-47.47,53.69,53.69,0,0,0-80.51-15.17A53.72,53.72,0,0,0,359,336,41.9,41.9,0,0,0,360.55,347.42Z"/><path class="cls-4" d="M360.53,347.42v0H573.21C571,322,548.25,302,520.53,302a56.76,56.76,0,0,0-13.59,1.65c-9.09-14.95-26.27-25-46-25a54.9,54.9,0,0,0-33.31,11.06,56.1,56.1,0,0,0-15.84-2.26c-29.19,0-52.85,22.15-52.85,49.48A36.13,36.13,0,0,0,360.53,347.42Z"/><path class="cls-3" d="M405.79,420.54H272.28a32,32,0,0,1,48-27.74A32.07,32.07,0,0,1,355.6,395a32,32,0,0,1,50.19,25.58Z"/><path class="cls-4" d="M405.79,420.54H274.51c0-16.39,14.1-29.68,31.49-29.68a32.89,32.89,0,0,1,15.75,4,33.09,33.09,0,0,1,34.69,2,32.64,32.64,0,0,1,17.87-5.24C391.44,391.6,405.37,404.49,405.79,420.54Z"/><path class="cls-3" d="M2179.38,515.5v0h-216a53.73,53.73,0,0,1,67.3-47.47,53.69,53.69,0,0,1,80.51-15.17A53.73,53.73,0,0,1,2181,504.07,41.52,41.52,0,0,1,2179.38,515.5Z"/><path class="cls-4" d="M2179.41,515.5v0H1966.72c2.21-25.43,25-45.41,52.68-45.41a56.7,56.7,0,0,1,13.59,1.65c9.09-15,26.27-25,46-25a54.88,54.88,0,0,1,33.31,11.06,56.1,56.1,0,0,1,15.84-2.26c29.2,0,52.86,22.15,52.86,49.48A36.47,36.47,0,0,1,2179.41,515.5Z"/><path class="cls-3" d="M2153.42,608.49H2019.9a32,32,0,0,1,48-27.74,32,32,0,0,1,35.28,2.17,32,32,0,0,1,50.2,25.57Z"/><path class="cls-4" d="M2153.42,608.49H2022.13c0-16.38,14.1-29.67,31.5-29.67a32.88,32.88,0,0,1,15.74,4,33.12,33.12,0,0,1,34.69,2,32.72,32.72,0,0,1,17.87-5.24C2139.07,579.55,2153,592.45,2153.42,608.49Z"/><path class="cls-13" d="M405.8,420.54v.79c0-.26,0-.53,0-.79Z"/><rect class="cls-4" x="2004.8" y="777.22" width="34.89" height="19.38"/><path class="cls-4" d="M2051.31,859V853h-2.88V833.71h2.88V826h-58.7v7.76h3.65l-.09,19.27h-3.56V859h-5.33v9.18h69.55V859Zm-44.89-25.33h32.44V853h-32.53Z"/><path class="cls-4" d="M2070.7,972V960.05h-5.08V929.77h5.08V918.24h-96.91v11.53h5.28v30.28h-5.27V972h-9.19v17.17h40.64V972h9v17.17h64.67V972Zm-76.78-11.93V929.77h56.27v30.28Z"/><polygon class="cls-4" points="1957.58 971.97 1957.58 989.16 1936.09 989.16 1936.09 971.97 1941.75 971.97 1941.75 918.24 1951.33 918.24 1951.33 971.97 1957.58 971.97"/><polygon class="cls-4" points="2109 971.97 2109 989.16 2086.53 989.16 2086.53 971.97 2093.95 971.97 2093.95 918.24 2102.55 918.24 2102.55 971.97 2109 971.97"/><path class="cls-8" d="M2009.74,760.25H2034s9.67,10.25,30.17,7c0,0-1.76,7-11.13,9.94h-60.42A28.28,28.28,0,0,1,1980.7,767S1999.26,769.91,2009.74,760.25Z"/><path class="cls-8" d="M2001.34,796.6h42.3s8.22,15.48,47.75,14.31c0,0-6.23,14.27-20.69,15h-99.08s-15.4-4.79-20.3-16.21C1951.32,809.74,1987.14,813.34,2001.34,796.6Z"/><path class="cls-8" d="M1907.19,891.15s60.94,1.58,80.08-22.93h69.56s10.84,21.51,80.24,22.95c0,0-6.37,19-34.52,27.07H1939.4S1912.46,908.43,1907.19,891.15Z"/><rect class="cls-8" x="836.08" y="958.15" width="3.49" height="0.94"/><rect class="cls-8" x="844.8" y="958.15" width="3.49" height="0.94"/><rect class="cls-8" x="855.26" y="958.15" width="3.49" height="0.94"/><polygon class="cls-8" points="1129.96 937.7 1127.13 939.95 1125.8 938.26 1126.51 937.7 1129.96 937.7"/><rect class="cls-8" x="1161.29" y="937.7" width="1.74" height="1.52"/><rect class="cls-8" x="1170.58" y="937.7" width="1.75" height="0.48"/><rect class="cls-8" x="1179.68" y="937.7" width="3.49" height="0.46"/><rect class="cls-8" x="855.26" y="958.15" width="3.49" height="0.94"/><rect class="cls-8" x="844.8" y="958.15" width="3.49" height="0.94"/><rect class="cls-8" x="836.08" y="958.15" width="3.49" height="0.94"/><path class="cls-8" d="M1183.17,937.7v.46h-3.49v-.46h-7.35v.47h-1.75v-.47H1163v1.52h-1.74V937.7h-8.24v-9.5h8.24v9.5H1163v-9.5h7.55v9.5h1.75v-9.5h7.35v9.5h3.49V926h-41.86l-14.8,11.75H1130l11.35-9v9H1130l-2.83,2.25-1.33-1.69.71-.56h-9.62V857.93h-3.49V937.7h-17.72l-31.12,16.06V926h-22.67V905h3.49v-5.24h-20.93V877.11h1.74a3.49,3.49,0,0,0-7,0H1021v22.67H1000V905h3.49V926H980.85v32.2h-8.73V946.87h-14v11.28h-5.23v-9.53H939v9.53h-5.23V946.87h-14v11.28h-3.49v-20H881.43V905H876.2v33.14H860.5v3.48H864v7h-27.9v9.53h3.49v-6h5.23v6h3.49v-6h7v6h3.49v-6H864v6h-5.23v.93h-3.49v-.93h-7v.93H844.8v-.93h-5.23v.93h-3.49v45.8H1139l16.13-19.72,38.14-47.46Zm-40.12,0v-9.5h8.25v9.5Z"/><rect class="cls-8" x="1179.68" y="937.7" width="3.49" height="0.46"/><rect class="cls-8" x="1170.58" y="937.7" width="1.75" height="0.48"/><rect class="cls-8" x="1161.29" y="937.7" width="1.74" height="1.52"/><polygon class="cls-8" points="1129.96 937.7 1127.13 939.95 1125.8 938.26 1126.51 937.7 1129.96 937.7"/><path class="cls-14" d="M43.13,925.78c0,14.52-3.14,27.78-8.33,37.91,5.19,10.13,8.33,23.39,8.33,37.92,0,31.79-15.06,57.57-33.64,57.57s-33.65-25.78-33.65-57.57c0-14.53,3.14-27.79,8.33-37.92-5.19-10.13-8.33-23.39-8.33-37.91A90.61,90.61,0,0,1-19.66,897a90.61,90.61,0,0,1-4.5-28.79c0-31.79,15.06-57.57,33.65-57.57s33.64,25.78,33.64,57.57A90.61,90.61,0,0,1,38.63,897,90.61,90.61,0,0,1,43.13,925.78Z"/><path class="cls-8" d="M9.27,871.19h.44a1.89,1.89,0,0,1,1.89,1.89v237.25a0,0,0,0,1,0,0H7.37a0,0,0,0,1,0,0V873.08A1.89,1.89,0,0,1,9.27,871.19Z"/><path class="cls-8" d="M14.47,876.85h.44a1.89,1.89,0,0,1,1.89,1.89v12.42a0,0,0,0,1,0,0H12.57a0,0,0,0,1,0,0V878.74A1.89,1.89,0,0,1,14.47,876.85Z" transform="translate(629.39 248.53) rotate(45)"/><path class="cls-8" d="M13.71,925.34h.44A1.89,1.89,0,0,1,16,927.24v12.42a0,0,0,0,1,0,0H11.81a0,0,0,0,1,0,0V927.24A1.89,1.89,0,0,1,13.71,925.34Z" transform="translate(663.46 263.27) rotate(45)"/><path class="cls-8" d="M14.91,981.26h.44a1.89,1.89,0,0,1,1.89,1.89v12.42a0,0,0,0,1,0,0H13a0,0,0,0,1,0,0V983.16A1.89,1.89,0,0,1,14.91,981.26Z" transform="translate(703.35 278.8) rotate(45)"/><path class="cls-8" d="M2.93,951.84H7.16a0,0,0,0,1,0,0v12.42a1.89,1.89,0,0,1-1.89,1.89H4.82a1.89,1.89,0,0,1-1.89-1.89V951.84a0,0,0,0,1,0,0Z" transform="translate(686.72 1633.54) rotate(135)"/><path class="cls-8" d="M2.05,1017.75H6.28a0,0,0,0,1,0,0v12.42a1.89,1.89,0,0,1-1.89,1.89H3.95a1.89,1.89,0,0,1-1.89-1.89v-12.42A0,0,0,0,1,2.05,1017.75Z" transform="translate(731.83 1746.68) rotate(135)"/><path class="cls-8" d="M2.49,898.85H6.72a0,0,0,0,1,0,0v12.42a1.89,1.89,0,0,1-1.89,1.89H4.38a1.89,1.89,0,0,1-1.89-1.89V898.85a0,0,0,0,1,0,0Z" transform="translate(648.5 1543.39) rotate(135)"/><path class="cls-2" d="M250.85,754.11c0,13.39-12,24.25-26.82,24.25s-26.81-10.86-26.81-24.25,26.81-85,26.81-85S250.85,740.71,250.85,754.11Z"/><path class="cls-8" d="M223.83,729.63h.41A1.77,1.77,0,0,1,226,731.4v79a0,0,0,0,1,0,0h-3.95a0,0,0,0,1,0,0v-79a1.77,1.77,0,0,1,1.77-1.77Z"/><path class="cls-8" d="M225,737.64l-1.66,2.61L215.19,736a1.44,1.44,0,0,1-.61-2.06h0a1.78,1.78,0,0,1,2.28-.55Z"/><path class="cls-8" d="M224.67,761.53,223,764.14l-8.11-4.24a1.42,1.42,0,0,1-.61-2h0a1.77,1.77,0,0,1,2.27-.56Z"/><path class="cls-8" d="M223.47,749.59l1.66,2.6,8.12-4.23a1.43,1.43,0,0,0,.61-2.06h0a1.76,1.76,0,0,0-2.27-.55Z"/><path class="cls-8" d="M223.78,774.47l1.66,2.6,8.11-4.23a1.43,1.43,0,0,0,.61-2.06h0a1.75,1.75,0,0,0-2.27-.55Z"/><path class="cls-14" d="M232.1,740.44C232.1,759,215,774,193.93,774s-38.18-15-38.18-33.58,38.18-117.63,38.18-117.63S232.1,721.9,232.1,740.44Z"/><path class="cls-8" d="M193.64,706.56h.59a2.52,2.52,0,0,1,2.52,2.52V818.41a0,0,0,0,1,0,0h-5.62a0,0,0,0,1,0,0V709.08A2.52,2.52,0,0,1,193.64,706.56Z"/><path class="cls-8" d="M195.27,717.65l-2.37,3.6-11.56-5.86a2,2,0,0,1-.86-2.85h0a2.54,2.54,0,0,1,3.23-.76Z"/><path class="cls-8" d="M194.83,750.73l-2.37,3.6-11.55-5.86a2,2,0,0,1-.87-2.85h0a2.55,2.55,0,0,1,3.24-.76Z"/><path class="cls-8" d="M193.13,734.19l2.37,3.6,11.55-5.86a2,2,0,0,0,.87-2.85h0a2.55,2.55,0,0,0-3.24-.76Z"/><path class="cls-8" d="M193.56,768.63l2.37,3.61,11.56-5.87a1.94,1.94,0,0,0,.86-2.84h0a2.54,2.54,0,0,0-3.23-.76Z"/><path class="cls-14" d="M159.14,962.21c0,18.55-17.09,33.58-38.18,33.58s-38.17-15-38.17-33.58S121,844.58,121,844.58,159.14,943.67,159.14,962.21Z"/><path class="cls-8" d="M120.67,928.33h.59a2.52,2.52,0,0,1,2.52,2.52v109.33a0,0,0,0,1,0,0h-5.62a0,0,0,0,1,0,0V930.85a2.52,2.52,0,0,1,2.52-2.52Z"/><path class="cls-8" d="M122.3,939.42,119.93,943l-11.55-5.87a2,2,0,0,1-.87-2.85h0a2.56,2.56,0,0,1,3.24-.76Z"/><path class="cls-8" d="M121.87,972.5l-2.37,3.61-11.56-5.87a2,2,0,0,1-.86-2.85h0a2.55,2.55,0,0,1,3.23-.76Z"/><path class="cls-8" d="M120.16,956l2.37,3.61,11.56-5.87a2,2,0,0,0,.86-2.85h0a2.55,2.55,0,0,0-3.23-.76Z"/><path class="cls-8" d="M120.6,990.4,123,994l11.55-5.86a2,2,0,0,0,.87-2.85h0a2.55,2.55,0,0,0-3.24-.76Z"/><path class="cls-2" d="M182.57,763.25c0,13.4-12,24.25-26.82,24.25s-26.81-10.85-26.81-24.25,26.81-85,26.81-85S182.57,749.86,182.57,763.25Z"/><path class="cls-8" d="M155.55,738.78H156a1.77,1.77,0,0,1,1.77,1.77v79a0,0,0,0,1,0,0h-3.95a0,0,0,0,1,0,0v-79A1.77,1.77,0,0,1,155.55,738.78Z"/><path class="cls-8" d="M156.69,746.79l-1.66,2.6-8.12-4.23a1.45,1.45,0,0,1-.61-2.06h0a1.77,1.77,0,0,1,2.28-.55Z"/><path class="cls-8" d="M156.39,770.68l-1.67,2.61-8.11-4.24A1.43,1.43,0,0,1,146,767h0a1.77,1.77,0,0,1,2.27-.55Z"/><path class="cls-8" d="M155.19,758.73l1.67,2.61L165,757.1a1.42,1.42,0,0,0,.61-2.05h0a1.77,1.77,0,0,0-2.27-.56Z"/><path class="cls-8" d="M155.5,783.61l1.66,2.61,8.12-4.24a1.42,1.42,0,0,0,.6-2.05h0a1.76,1.76,0,0,0-2.27-.56Z"/><path class="cls-2" d="M181,980.68c0,13.39-12,24.25-26.81,24.25s-26.82-10.86-26.82-24.25,26.82-85,26.82-85S181,967.28,181,980.68Z"/><path class="cls-8" d="M153.94,956.2h.41a1.77,1.77,0,0,1,1.77,1.77v79a0,0,0,0,1,0,0h-3.95a0,0,0,0,1,0,0V958a1.77,1.77,0,0,1,1.77-1.77Z"/><path class="cls-8" d="M155.09,964.21l-1.67,2.61-8.11-4.24a1.43,1.43,0,0,1-.61-2.06h0A1.76,1.76,0,0,1,147,960Z"/><path class="cls-8" d="M154.78,988.1l-1.66,2.61L145,986.47a1.43,1.43,0,0,1-.61-2.05h0a1.78,1.78,0,0,1,2.28-.56Z"/><path class="cls-8" d="M153.59,976.16l1.66,2.6,8.11-4.24a1.42,1.42,0,0,0,.61-2h0a1.75,1.75,0,0,0-2.27-.55Z"/><path class="cls-8" d="M153.89,1001l1.66,2.6,8.12-4.24a1.43,1.43,0,0,0,.61-2h0a1.77,1.77,0,0,0-2.28-.55Z"/><path class="cls-2" d="M116.81,979.34a37.89,37.89,0,0,1-6.29,21.38,37.85,37.85,0,0,1,6.29,21.37c0,17.93-11.39,32.46-25.44,32.46S65.94,1040,65.94,1022.09a37.85,37.85,0,0,1,6.29-21.37,37.89,37.89,0,0,1-6.29-21.38,39.28,39.28,0,0,1,3.4-16.23,39.28,39.28,0,0,1-3.4-16.23c0-17.92,11.38-32.46,25.43-32.46s25.44,14.54,25.44,32.46a39.44,39.44,0,0,1-3.4,16.23A39.44,39.44,0,0,1,116.81,979.34Z"/><path class="cls-8" d="M91.21,948.57h.33A1.43,1.43,0,0,1,93,950v133.39a0,0,0,0,1,0,0h-3.2a0,0,0,0,1,0,0V950A1.43,1.43,0,0,1,91.21,948.57Z"/><path class="cls-8" d="M92.61,959.49l-2.26-1.69,6.53-4.86a2,2,0,0,1,2.26,0h0a1,1,0,0,1,0,1.69Z"/><path class="cls-8" d="M92,986.83l-2.26-1.69,6.52-4.86a2,2,0,0,1,2.26,0h0a1,1,0,0,1,0,1.68Z"/><path class="cls-8" d="M92.94,1018.35l-2.26-1.68,6.53-4.87a2,2,0,0,1,2.26,0h0a1,1,0,0,1,0,1.69Z"/><path class="cls-8" d="M90.71,1001.77l2.26-1.69-6.52-4.87a2,2,0,0,0-2.26,0h0a1,1,0,0,0,0,1.69Z"/><path class="cls-8" d="M90.05,1038.92l2.26-1.68-6.52-4.87a2,2,0,0,0-2.26,0h0a1,1,0,0,0,0,1.69Z"/><path class="cls-8" d="M90.38,971.89l2.26-1.69-6.52-4.86a2,2,0,0,0-2.26,0h0a1,1,0,0,0,0,1.69Z"/><path class="cls-14" d="M91.8,945.92c0,10.56-2.28,20.2-6,27.56,3.77,7.36,6,17,6,27.55,0,23.12-10.94,41.85-24.45,41.85S42.9,1024.15,42.9,1001c0-10.55,2.28-20.19,6.05-27.55-3.77-7.36-6.05-17-6.05-27.56A65.81,65.81,0,0,1,46.17,925a65.83,65.83,0,0,1-3.27-20.93c0-23.11,11-41.84,24.45-41.84S91.8,881,91.8,904.07A65.83,65.83,0,0,1,88.53,925,65.81,65.81,0,0,1,91.8,945.92Z"/><path class="cls-8" d="M67.19,906.24h.32a1.38,1.38,0,0,1,1.38,1.38v172.44a0,0,0,0,1,0,0H65.81a0,0,0,0,1,0,0V907.62A1.38,1.38,0,0,1,67.19,906.24Z"/><path class="cls-8" d="M71,910.36h.32a1.38,1.38,0,0,1,1.38,1.38v9a0,0,0,0,1,0,0H69.6a0,0,0,0,1,0,0v-9A1.38,1.38,0,0,1,71,910.36Z" transform="translate(668.23 217.86) rotate(45)"/><path class="cls-8" d="M70.42,945.6h.32A1.38,1.38,0,0,1,72.12,947v9a0,0,0,0,1,0,0H69a0,0,0,0,1,0,0v-9A1.38,1.38,0,0,1,70.42,945.6Z" transform="translate(692.99 228.58) rotate(45)"/><path class="cls-8" d="M71.29,986.25h.32A1.38,1.38,0,0,1,73,987.62v9a0,0,0,0,1,0,0H69.92a0,0,0,0,1,0,0v-9A1.38,1.38,0,0,1,71.29,986.25Z" transform="translate(721.99 239.86) rotate(45)"/><path class="cls-8" d="M62.59,964.86h3.07a0,0,0,0,1,0,0v9a1.38,1.38,0,0,1-1.38,1.38H64a1.38,1.38,0,0,1-1.38-1.38v-9A0,0,0,0,1,62.59,964.86Z" transform="translate(795.4 1610.66) rotate(135)"/><path class="cls-8" d="M61.95,1012.77H65a0,0,0,0,1,0,0v9a1.38,1.38,0,0,1-1.38,1.38h-.32a1.38,1.38,0,0,1-1.38-1.38v-9a0,0,0,0,1,0,0Z" transform="translate(828.19 1692.89) rotate(135)"/><path class="cls-8" d="M62.27,926.35h3.07a0,0,0,0,1,0,0v9A1.38,1.38,0,0,1,64,936.75h-.32a1.38,1.38,0,0,1-1.38-1.38v-9A0,0,0,0,1,62.27,926.35Z" transform="translate(767.63 1545.14) rotate(135)"/><path class="cls-7" d="M100.56,1081.66v5.8l-4.53.37a15.67,15.67,0,0,1-6.34-.78l-9.34-3.16s-10.84,10.9-15.59,15-3.72,6.8-3.72,6.8l5.4,17.16,4.33,5H63.42l-11.05-29c10.18-7.16,11-15.06,11.08-17l-23.71,17.77L62.23,1077s6-6.55,7.26-15,9.83-9.83,9.83-9.83-.72,7,.79,20.5S100.56,1081.66,100.56,1081.66Z"/><path class="cls-15" d="M80.35,1083.89l-.12,0Z"/><path class="cls-7" d="M134.77,1058.29a34.81,34.81,0,0,1-8.29,20.6,35.94,35.94,0,0,0-5.08,7.49c-7.49,14.74-9.17,31.24-9.52,36.14a4.76,4.76,0,0,0,.6,2.66l.87,1.57H108c.78-12.38,6.26-36.42,7.1-40a.36.36,0,0,0-.38-.43l-6,.5c-1.57-23.39,4.64-28.34,4.64-28.34.57,7.54,7,6.83,7,6.83s.59-1.7-1.78-8.11-1.8-17.38-1.8-17.38c10.65,2.7,15.49-5.15,15.49-5.15C133.06,1037,135.7,1045.66,134.77,1058.29Z"/><path class="cls-15" d="M80.35,1083.89l-.12,0Z"/><path class="cls-16" d="M132.22,1034.64s-4.84,7.85-15.49,5.15c0,0-.58,11,1.8,17.38s1.78,8.11,1.78,8.11-6.39.71-7-6.83c0,0-6.21,5-4.64,28.34h0l-7.21.59-.94.08v-5.8s-19,4.55-20.45-9-.79-20.5-.79-20.5-8.55,1.42-9.83,9.83-7.26,15-7.26,15l-22.49,22.66-3.39,2.54a14.13,14.13,0,0,0-3.21,3.38l-10.86,16a1.76,1.76,0,0,0-.23,1.41l1.17,4.37H14.88v-1.22l17.39-29.65a9.51,9.51,0,0,1,3.35-3.29c19.31-11.28,17.33-33.32,16.84-37.11a1.29,1.29,0,0,1,.3-1c5.25-5.86,13.61-7.08,19-7.17a34.43,34.43,0,0,1,7.44.7,170.22,170.22,0,0,0,21.24,3c8.08.47,11.08-3.48,12.06-5.4a4.11,4.11,0,0,0,.44-1.68l.25-4.53a.57.57,0,0,0-.51-.61c-2.28-.27-11.1-1.35-12.56-2.12-1.89-1-1.4-2.19-1.4-2.19a3.88,3.88,0,0,1,3.9-3.74c3.07-.24,9-7,11.43-9.81a3.31,3.31,0,0,1,2.71-1.17l8.63.44a3,3,0,0,1,2.61,1.81l.82,1.88a25.27,25.27,0,0,1,1,2.79l1.74,5.64C131.82,1033.48,132,1034.06,132.22,1034.64Z"/><ellipse class="cls-17" cx="103.39" cy="1033.38" rx="4.4" ry="2.27"/><circle class="cls-17" cx="118.53" cy="1026.24" r="1.79"/><path class="cls-16" d="M108.71,1086.79l-1.18,19.47L106.09,1123l1.93,3.71h-6.59v-4.35s2.88-10.38,1.73-19.82a133.78,133.78,0,0,0-2.59-15.12Z"/><path class="cls-16" d="M102.93,1014.92s10.41-1.06,12,6.33l-4.61,5A12.3,12.3,0,0,1,102.93,1014.92Z"/><path class="cls-16" d="M138.32,1011.22s-10.25,3.34-11.14,10.24l2.38,4.78S141,1020.64,138.32,1011.22Z"/><path class="cls-7" d="M112.27,1020.55s-4.31-4.44-7.47-4.12c0,0,1.52,6,4.84,6.52Z"/><path class="cls-7" d="M129.53,1020.55s3.18-6.27,6.18-6.39c0,0-1.13,6.32-4.4,7.37Z"/><path class="cls-2" d="M56.56,1053.88c0,11.74-2.54,22.45-6.73,30.63,4.19,8.18,6.73,18.9,6.73,30.63,0,25.69-12.17,46.52-27.18,46.52S2.2,1140.83,2.2,1115.14c0-11.73,2.54-22.45,6.73-30.63-4.19-8.18-6.73-18.89-6.73-30.63a72.88,72.88,0,0,1,3.64-23.25,73,73,0,0,1-3.64-23.26c0-25.69,12.17-46.52,27.18-46.52s27.18,20.83,27.18,46.52a73,73,0,0,1-3.64,23.26A72.88,72.88,0,0,1,56.56,1053.88Z"/><path class="cls-8" d="M29.2,1009.78h.36a1.53,1.53,0,0,1,1.53,1.53V1203a0,0,0,0,1,0,0H27.67a0,0,0,0,1,0,0V1011.31A1.53,1.53,0,0,1,29.2,1009.78Z"/><path class="cls-8" d="M33.41,1014.35h.36a1.53,1.53,0,0,1,1.53,1.53v10a0,0,0,0,1,0,0H31.88a0,0,0,0,1,0,0v-10A1.53,1.53,0,0,1,33.41,1014.35Z" transform="translate(731.18 275.04) rotate(45)"/><path class="cls-8" d="M32.79,1053.53h.36a1.53,1.53,0,0,1,1.53,1.53v10a0,0,0,0,1,0,0H31.26a0,0,0,0,1,0,0v-10A1.53,1.53,0,0,1,32.79,1053.53Z" transform="translate(758.7 286.95) rotate(45)"/><path class="cls-8" d="M33.76,1098.71h.36a1.53,1.53,0,0,1,1.53,1.53v10a0,0,0,0,1,0,0H32.23a0,0,0,0,1,0,0v-10A1.53,1.53,0,0,1,33.76,1098.71Z" transform="translate(790.93 299.5) rotate(45)"/><path class="cls-8" d="M24.08,1074.93H27.5a0,0,0,0,1,0,0v10A1.53,1.53,0,0,1,26,1086.5h-.36a1.53,1.53,0,0,1-1.53-1.53v-10a0,0,0,0,1,0,0Z" transform="translate(808.21 1826.66) rotate(135)"/><path class="cls-8" d="M23.37,1128.19h3.42a0,0,0,0,1,0,0v10a1.53,1.53,0,0,1-1.53,1.53h-.36a1.53,1.53,0,0,1-1.53-1.53v-10a0,0,0,0,1,0,0Z" transform="translate(844.66 1918.07) rotate(135)"/><path class="cls-8" d="M23.73,1032.12h3.42a0,0,0,0,1,0,0v10a1.53,1.53,0,0,1-1.53,1.53h-.36a1.53,1.53,0,0,1-1.53-1.53v-10A0,0,0,0,1,23.73,1032.12Z" transform="translate(777.33 1753.83) rotate(135)"/><path class="cls-7" d="M334,1245.57H305.41a2.25,2.25,0,0,1-1.08-.27c-1.2-.65-4-2.51-3.88-5.62a1.6,1.6,0,0,0,1.59.84l2.41,0a4.05,4.05,0,0,0,2.14-.58c1.86-1.09,6.11-3.38,10-3.87a14.07,14.07,0,0,1,9.1,2.19s1.32.44-.11-1.87a9,9,0,0,1-1.07-4,12.28,12.28,0,0,1,.28-3.47,19.61,19.61,0,0,0,.64-4.15c-.18-.8-.37-1.46-.37-1.46s.77,1.24,1.18,1.24,4.86-.67,7.77.06c2.35.6,3.06,2.29,3.06,4.31v3.64h-4.7a.09.09,0,0,0-.08.15C333,1233.84,337.56,1241.16,334,1245.57Z"/><path class="cls-13" d="M342.13,1231.93a9,9,0,0,1-3.11-.54,18.49,18.49,0,0,0-2-1.07v2.26h5.71A.64.64,0,0,0,342.13,1231.93Z"/><path class="cls-13" d="M307.57,1245.57s-.1-3.31,4.76-4.67a21.79,21.79,0,0,1,7.71-.46,15.49,15.49,0,0,1,4.12,1,3.24,3.24,0,0,0,4-.77c1.45-1.91,1.34,1.27,1.23,2.73a3.12,3.12,0,0,1-.6,1.64,1,1,0,0,1-.73.49Z"/><circle class="cls-13" cx="333.33" cy="1229.37" r="1.36"/><circle class="cls-7" cx="333.33" cy="1229.37" r="0.5"/><path class="cls-7" d="M249.12,954.94h21.46a1.6,1.6,0,0,0,.81-.2c.91-.49,3-1.89,2.91-4.22a1.2,1.2,0,0,1-1.19.63H271.3a3,3,0,0,1-1.6-.43,22,22,0,0,0-7.5-2.9,10.48,10.48,0,0,0-6.83,1.64s-1,.33.08-1.4a6.73,6.73,0,0,0,.8-3,9.09,9.09,0,0,0-.21-2.6,14.26,14.26,0,0,1-.48-3.12c.14-.6.27-1.1.27-1.1s-.57.94-.88.94a20,20,0,0,0-5.83,0,3,3,0,0,0-2.3,3.24v2.73h3.53a.07.07,0,0,1,.06.11C249.86,946.14,246.45,951.63,249.12,954.94Z"/><path class="cls-13" d="M243,944.7a7,7,0,0,0,2.34-.4,14.13,14.13,0,0,1,1.46-.81v1.7h-4.29A.49.49,0,0,1,243,944.7Z"/><path class="cls-16" d="M269,954.94s.07-2.49-3.57-3.51a16.44,16.44,0,0,0-5.79-.34,11.78,11.78,0,0,0-3.09.78,2.44,2.44,0,0,1-3-.58c-1.08-1.43-1,1-.92,2.05a2.28,2.28,0,0,0,.45,1.23.78.78,0,0,0,.55.37Z"/><circle class="cls-16" cx="249.62" cy="942.78" r="1.02"/><circle class="cls-7" cx="249.62" cy="942.78" r="0.38"/><path class="cls-7" d="M1012.61,1171.66v-3.48s12,1,13.54,2.35S1012.61,1171.66,1012.61,1171.66Z"/><path class="cls-13" d="M1012.61,1168.18a13.94,13.94,0,0,0-6.28-.84c-2.93.49-3.54,2.07-3.54,4.33v6.77s.69,2.71,4,1.48a.64.64,0,0,1,.87.6v5.83a.26.26,0,0,1-.4.22c-1.12-.73-4.28-2.58-6.46-1.79-2.68,1-4.63,1.46-8,11.09-2.36,6.65-3.32,9.06-3.69,9.91a.12.12,0,0,0,.18.14l3.15-2.58a.35.35,0,0,1,.57.22l.48,3.29a.08.08,0,0,0,.15,0l2.58-4.95a1.9,1.9,0,0,1,1.46-1c3-.37,12.21-2.5,14.8-14.6.08-.4.17-.79.28-1.18.64-2.21,2.67-11-5.33-9.37,0,0,.37-4.1,5.18-4.1Z"/><circle class="cls-7" cx="1010.22" cy="1169.63" r="1.15"/><circle class="cls-13" cx="1010.22" cy="1169.63" r="0.6"/><polygon class="cls-7" points="1003.93 1198.83 1004.64 1217.24 1003.93 1217.24 1002.96 1199.34 1003.93 1198.83"/><polygon class="cls-7" points="1000.27 1200.37 998.09 1217.24 996.97 1217.24 999.51 1200.58 1000.27 1200.37"/><rect class="cls-7" x="-4.23" y="1214.27" width="1018.88" height="2.98" rx="1.33"/></svg>