<svg id="Laag_2" data-name="Laag 2" xmlns="http://www.w3.org/2000/svg" viewBox="0 0 2140 1250"><defs><style>.cls-1{fill:#05529d;}.cls-2{fill:#bacfe4;}.cls-3{fill:#e8eff6;}.cls-4{fill:#d2dfed;}.cls-5{fill:#c3d1dd;}.cls-6{fill:#bac7d1;}.cls-7{fill:#a3c1db;}.cls-8{fill:#8dafd2;}.cls-9{fill:#66785b;}.cls-10{fill:#405632;}.cls-11{fill:#8db573;}.cls-12{fill:#71a350;}.cls-13{fill:#cddceb;}.cls-14{fill:#6090c0;}.cls-15{fill:#7f3d03;}.cls-16{fill:#d4e5f6;}.cls-17{fill:#1a1a1a;}</style></defs><title>achtergrond</title><rect class="cls-1" y="605.98" width="2140.54" height="644.43"/><rect class="cls-2" width="2140.54" height="690.72"/><path class="cls-3" d="M1572.56,544.3H1739a41.41,41.41,0,0,0-51.87-36.63,41.35,41.35,0,0,0-62-11.71,41.4,41.4,0,0,0-53.77,39.53A32.5,32.5,0,0,0,1572.56,544.3Z"/><path class="cls-4" d="M1572.54,544.3h163.92c-1.71-19.62-19.24-35-40.6-35a43.53,43.53,0,0,0-10.48,1.27c-7-11.53-20.24-19.32-35.42-19.32a42.34,42.34,0,0,0-25.68,8.53,43.31,43.31,0,0,0-12.21-1.74c-22.49,0-40.73,17.09-40.73,38.18A28.11,28.11,0,0,0,1572.54,544.3Z"/><polygon class="cls-5" points="587.24 679.47 585.13 679.47 585.95 678.88 587.24 679.47"/><polygon class="cls-5" points="587.24 679.47 585.13 679.47 585.95 678.88 587.24 679.47"/><polygon class="cls-5" points="587.24 679.47 585.13 679.47 585.95 678.88 587.24 679.47"/><polygon class="cls-5" points="587.24 679.47 585.13 679.47 585.95 678.88 587.24 679.47"/><polygon class="cls-6" points="587.24 682.75 585.13 682.75 585.95 682.17 587.24 682.75"/><polygon class="cls-6" points="587.24 682.75 585.13 682.75 585.95 682.17 587.24 682.75"/><polygon class="cls-6" points="587.24 682.75 585.13 682.75 585.95 682.17 587.24 682.75"/><polygon class="cls-6" points="587.24 682.75 585.13 682.75 585.95 682.17 587.24 682.75"/><path class="cls-7" d="M2134.57,606l-3.43,2.51-22.23,16.3-23.15-16.3-3.57-2.51-37.65-26.5-2.9-2.05-49.27-34.68-45.43,33.31-10.27,7.44-67.89-47.79L1828.87,565l-27.23-19.17-1-.7-1.35-1-1.24.91-1.6,1.17-24.11,17.67L1738.45,540l-3.15-2.21h0l-35.94-25.31L1656,544.29l-2.09,1.53L1571,606l-3.39,2.46-3.5-2.46-89.81-63.23-45.43,33.31-38.13,27.65-147-130.91-.17-.15L1218,449.89l-.1.07-.07.05-31.18,22.71-.23.17-66.27,48.25-64.94-45.71-20.65,15.14-5.1,3.74-15.71,11.51-4,2.91-1.13.82-19.27,14-5.11,3.71-19.67,14.27-5.15,3.73L939.08,560,934,563.75l-5.07,3.67-12.16-8.56-19.52-13.74-64.62-45.5-45.43,33.31L765,549,727.8,522.89l-42.3,31-72.28-64.38L612,488.38l-24-21.39-11.76,8.56-.67.48-85.43,62.21-64.94-45.71-45.42,33.3-69,50.06-60.31-53.73-69.91-62.27L95,522.16,0,591.3V705H261.05l-3.28,2.39-6.47,4.71h798.33l-30.91-14.37-5.87-2.73h252l-1.74,1.27-2,1.46-17,12.33-5.09,3.69-12.17,8.83h326.94l-1.92,1.39h420.36l-.65.48-1.73,1.25-4.14,3-.05,0-9.28,6.72-2.89,2.11h0l-49.91,36.2h237V601.6ZM585.13,679.47l.82-.6,1.29.6Z"/><path class="cls-8" d="M2139.25,608.49,2108.91,630l-31.6-21.47-3.7-2.51-35.84-24.35-2.63-1.79-42.77-29.06-45.43,32.14-10.27,7.19L1868.78,544l-39.91,28.24-26.21-17.82-.33-.22-3-2.06-2.36,1.67-.66.47-23.93,16.93-39.58-26.9-33.41-22.7-32.09,22.7-13.35,9.45L1579.29,606l-11.71,8.2-12.07-8.2-81.24-55.2-45.43,32.14L1395.89,606l-5.18,3.63-4.22-3.63-147.94-127.2-1.28-1.1L1218,461.14,1196.86,476l-1.24.88-75.44,53-64.94-44.13L1040.85,496l-5.19,3.66L1019.61,511l-5.16,3.66-4.64,3.28-15,10.47-5.18,3.64-20,14-5.23,3.66-20.7,14.49-5.2,3.64-9.66,6.76-16.67-11.33-20.08-13.64L832.6,509.15,787.17,541.3,765,556.85,727.8,531.6l-42.3,29.93-64.83-55.75-1.21-1-31.52-27.1-27.43,19.28-.81.56-69.62,48.94-64.94-44.13-45.42,32.15-69,48.32-70.47-60.6-59.75-51.37-73.08,51.37L0,597.64V707.4H261.05l-6.7,4.71-3,2.14h798.33l-4.77-2.14-32-14.37h252l0,0-19.34,13.55-5.18,3.62-10.93,7.66-2.55,1.78h326.94l-1.92,1.34h420.36l-.65.46-3.53,2.48h0l-2.37,1.65-7.3,5.11-3,2.11-.06.05-51.71,36.2h237V607.58Zm-1552,74.25h-2.11l.82-.57Z"/><polygon class="cls-3" points="1799.3 544.14 1788.62 552 1795.85 553.73 1799.72 558.79 1803.61 552.98 1814.01 554.56 1799.3 544.14"/><polygon class="cls-4" points="1799.59 545.19 1790.44 551.92 1796.64 553.41 1799.95 557.74 1803.28 552.76 1812.18 554.12 1799.59 545.19"/><polygon class="cls-3" points="1218.08 448.59 1186.44 472.89 1209.15 482.81 1218.08 477.31 1227.13 485.14 1245.81 474.74 1218.08 448.59"/><polygon class="cls-4" points="1217.93 449.96 1188.66 472.44 1209.68 481.62 1217.93 476.53 1226.31 483.78 1243.59 474.15 1217.93 449.96"/><polygon class="cls-3" points="587.93 466.87 548.36 496.09 571.71 498.96 581.89 508.64 595.89 512.62 607.83 512.62 611.95 507.26 629.67 504.25 587.93 466.87"/><polygon class="cls-4" points="587.99 468.2 550.73 495.72 572.73 498.42 582.31 507.54 595.49 511.29 606.73 511.29 610.61 506.24 627.3 503.41 587.99 468.2"/><path class="cls-9" d="M2137.94,618.87v176H0V616.07c5.86,1.74,21,6.35,38.24,12.57,14.53,5.24,35.52,3.62,48.28,1.88a43.06,43.06,0,0,0,19.71-8c5.48-4,13-9.73,20.8-16.14l.55-.44c15.23-11.85,43.25-5.77,67.81-4.89,24.86.89,48.83-27.56,64.81-23.11s16,16.89,35.51,18.66,16.07-18,28.42-19.55c12.19-1.5,34.59-12.35,92.44,3.35,3.44.93,6.84,2,10.21,3.08,8.74,2.89,33.65,10.46,54.49,10.46,22.41,0,42.12,6.74,52.13,12a43,43,0,0,1,3.8,2.22c8,5.33,24.86,12.44,39.95,12.44s54.16.89,68.37,11.56c11.28,8.48,50.06,7.41,65.5,6.62,3.49-.19,7-.3,10.49-.31,8.92,0,32.17-1.2,66.94-10.75a192.23,192.23,0,0,1,20-4.19c14.4-2.31,30.89-3.83,47-4.82,4-.24,8-.45,12-.63,3-.14,6-.27,9-.38,11.19-.41,21.57-.61,30.13-.69l3.12,0c2.08,0,4.18,0,6.27.07A188.47,188.47,0,0,1,944.23,620c4.46.81,9.79,1.71,15.8,2.59,3.44.51,7.1,1,10.94,1.48,10.4,1.28,22.15,2.38,34.53,2.91,3.17.14,6.39.24,9.64.29a294.69,294.69,0,0,0,34.67-1.34c2.76-.29,5.5-.61,8.22-1a171.05,171.05,0,0,0,28.3-6.23q2.48-.78,4.87-1.65l1.8-.64a239.56,239.56,0,0,1,27.35-7.87q3.81-.87,7.51-1.57c1.94-.38,3.87-.72,5.75-1,7.75-1.31,15.11-2.15,22-2.67,1.78-.13,3.53-.24,5.24-.33,1.21-.06,2.41-.12,3.61-.15a176.4,176.4,0,0,1,38.79,3.15q8.47,1.62,16.8,4c14.81,4.25,40.35,8.35,63-4l.82-.45c15.37-8.68,44-5.63,71.16.45a506.78,506.78,0,0,1,57.76,17.1q9.81,3.52,19.9,6.18c27.38,7.19,94.47,23.5,130,20.72,45.29-3.56,69.26,9.78,95.89,14.22s151.82-4.44,187.33-22.22c29.34-14.69,53.83-24.53,89.5-11a158.52,158.52,0,0,1,24.14,11.84c2,1.18,4,2.27,6.11,3.26,37.81,18.16,85.59,6,105.79-.62a134.24,134.24,0,0,0,12.88-5c5.17-2.32,15.89-6.49,26.15-6.49C2124.63,634,2137.94,618.87,2137.94,618.87Z"/><path class="cls-10" d="M2137.94,626.76V794.87H0V624.09c5.86,1.67,21,6.07,38.24,12,14.53,5,35.52,3.46,48.28,1.79a44.12,44.12,0,0,0,19.71-7.6c5.48-3.84,13-9.29,20.8-15.41,15.09-11.89,43.5-6,68.36-5.1,6.32.22,12.57-1.37,18.64-3.8,17.88-7.12,34.25-21.44,46.17-18.27,16,4.24,16,16.13,35.51,17.83s16.07-17.24,28.42-18.68c12.19-1.43,34.59-11.79,92.44,3.2,3.44.89,6.84,1.88,10.21,2.94,8.74,2.76,33.65,10,54.49,10a127.55,127.55,0,0,1,27.08,3c13.41,2.94,23.87,7.43,28.85,10.6,8,5.09,24.86,11.88,39.95,11.88s54.16.85,68.37,11c11.28,8.1,50.06,7.08,65.5,6.32q5.24-.27,10.49-.29c8.92,0,32.17-1.15,66.94-10.28,2.87-.75,5.95-1.45,9.18-2.09,14.23-2.85,31.67-4.72,49.14-5.94,9.86-.69,19.73-1.17,29-1.51,3.08-.11,6.11-.2,9.06-.29,9.27-.25,17.74-.36,24.76-.41,2,0,3.92,0,5.88.06q4.93.1,9.87.48c6.31.47,12.61,1.25,18.85,2.34,6.82,1.18,15.7,2.56,25.92,3.79q5.08.6,10.56,1.14c10.41,1,21.81,1.78,33.6,2,3.09.06,6.22.08,9.36.05a280.85,280.85,0,0,0,33.67-2.17c2.68-.35,5.36-.75,8-1.19a161.89,161.89,0,0,0,25.86-6.43l1.58-.54c2.28-.77,4.55-1.5,6.79-2.19a251.82,251.82,0,0,1,28.48-6.93q4-.74,7.81-1.3c8.93-1.35,17.3-2.13,25-2.52,1.38-.07,2.77-.12,4.14-.16q4.71-.13,9.4,0a190.75,190.75,0,0,1,45.66,6.86c15,4.11,41,8.08,63.85-4.26,28.83-15.55,104.39,8.32,128.92,16.75q9.81,3.38,19.9,5.91c27.38,6.87,94.47,22.45,130,19.79,45.29-3.4,69.26,9.34,95.89,13.58s151.82-4.24,187.33-21.22c27.32-13.07,50.45-22.11,82.31-12.82a149,149,0,0,1,31.33,13.67c2,1.13,4,2.17,6.11,3.11,37.81,17.35,85.59,5.75,105.79-.59,4.39-1.38,8.67-3,12.88-4.81,5.17-2.22,15.89-6.2,26.15-6.2C2124.63,641.2,2137.94,626.76,2137.94,626.76Z"/><path class="cls-4" d="M1244.05,710.07l-13.9-12.33-3.08-2.73h-9.26l3.08,2.73,18.07,16,1.31,1.17,5.18-3.62Zm0,0-13.9-12.33-3.08-2.73h-9.26l3.08,2.73,18.07,16,1.31,1.17,5.18-3.62Zm0,0-13.9-12.33-3.08-2.73h-9.26l3.08,2.73,18.07,16,1.31,1.17,5.18-3.62Zm0,0-13.9-12.33-3.08-2.73h-9.26l3.08,2.73,18.07,16,1.31,1.17,5.18-3.62Zm0,0-13.9-12.33-3.08-2.73h-9.26l3.08,2.73,18.07,16,1.31,1.17,5.18-3.62Zm0,0-13.9-12.33-3.08-2.73h-9.26l3.08,2.73,18.07,16,1.31,1.17,5.18-3.62Zm0,0-13.9-12.33-3.08-2.73h-9.26l3.08,2.73,18.07,16,1.31,1.17,5.18-3.62Zm0,0-13.9-12.33-3.08-2.73h-9.26l3.08,2.73,18.07,16,1.31,1.17,5.18-3.62Zm0,0-13.9-12.33-3.08-2.73h-9.26l3.08,2.73,18.07,16,1.31,1.17,5.18-3.62Zm0,0-13.9-12.33-3.08-2.73h-9.26l3.08,2.73,18.07,16,1.31,1.17,5.18-3.62Zm0,0-13.9-12.33-3.08-2.73h-9.26l3.08,2.73,18.07,16,1.31,1.17,5.18-3.62Zm274.62,94-.18-.36a10.62,10.62,0,0,0-7.51-5.47l-.58-.09-1.75-.23h-.11l-3.47-.33c-5.72-.49-14-1-23.65-1.46l-4.24-.2h-.11l-2.79-.13c-5.88-.27-12.14-.53-18.56-.78h0l-4.35-.17c-24.5-.92-50.7-1.7-67.35-2.16l-79-68.34-2-1.78-36.86-31.87-91.71-79.29-6.29-5.45-3.64-3.15L1040.85,496l-6.26-5.41-25.48-22,9.26-9c6.74-16.39-11.62-11.23-11.62-11.23L897.22,545.12l-5.07,4.49L828.37,606l-19.89,17.59-10.85,9.59-65.11,57.56-24.19,21.39-2.43,2.14-18.29,16.17c-51,42.3-115.34,59.66-180.29,61.14l-56.82,1.29a13.92,13.92,0,0,0-10.56,5.23,13.5,13.5,0,0,0-3,9.3,13,13,0,0,0,.43,2.66,27.77,27.77,0,0,0,1.73,4.64,7.76,7.76,0,0,0,7.4,4.5L480.81,818,518,816.75l147-5,.31,30.3.09,9.2.06,5.78h58l-1.15-47.43,179.53-4.08V857h41.62V803.5l.74,0c130.18-5.12,343.52,5.47,468.81,11.49l9.14.44.1,5.88.6,35.77h50.54l-1.51-39.12c16.89.93,29.42,1.66,36.19,2.11a11.17,11.17,0,0,0,11.73-9.44A10.69,10.69,0,0,0,1518.67,804.09ZM787.89,785.23c-95.6,3.5-64.11-37.84-64.11-37.84l8.49-8.28ZM737.41,734l17.51-17,75.89,66.45c-10.47.36-21.21.85-32.16,1.39ZM849,712.11,824.6,690.72,802.05,670.9l17.05-16.62,39.95,36.44,23.45,21.39,2.35,2.14,73,66.59c-8.38.06-18.61.12-30.4.26l-76.07-66.85Zm83.14,2.14,75.13,66.6c-15.85,0-25.13,0-25.13,0s-5.33-.06-15-.08l-73-66.55-2.33-2.14-23.45-21.39L823.6,649.86l17-16.68,64.91,57.54,24.13,21.39Zm72.63-241.36,24.77,21.42,6.17,5.33,119.91,103.67,3.07,2.67,6.31,5.45,91.7,79.29,5,4.29,1.46,1.27,1.69,1.46,0,0,28.72,24.83,2.07,1.78,78.73,68.08c-2.16-.07-4-.15-5.21-.18-8.2-.29-16.35-.76-24.57-1.54-3.42-.34-7-.61-10.56-.9l-73.8-65.46-2-1.78-12.71-11.28-1.4-1.24-13.9-12.33-3.08-2.73-4.83-4.29-86.38-76.61-8-7.1-1.17-1-107.08-95-5.83-5.18L991.32,485.9Zm-17.79,17.37,21.75,19.29,5.77,5.11,103,91.32,2.93,2.6,7.7,6.83L1213,690.72l4.83,4.29,3.08,2.73,18.07,16,1.31,1.17,8.64,7.66,2,1.78L1323.84,789c-12.94-1-26.79-1.84-41.23-2.53l-99-88.77-3-2.73-4.79-4.29-76.24-68.38-6.57-5.89L1081.33,606l-86.48-77.57-5.44-4.88-19-17.08Zm-21,20.48,18.39,16.5,5.37,4.81L1072.1,606l14.23,12.76,6.45,5.79,73.81,66.19,4.79,4.29,3,2.73L1272.78,786c-11.79-.58-24-1.08-36.28-1.51l-97-86.71-3.06-2.73-4.8-4.29-66.27-59.22L1058,625l-21.25-19-67.09-60-5.06-4.52-15.75-14.08Zm-21.49,21,15.06,13.46,5,4.45,63,56.29,22.36,20,7.53,6.72,64.93,58,4.8,4.29,3.06,2.73,96.66,86.39c-11.8-.46-23.71-.79-35.63-1.11l-96.41-85.28-3.09-2.73-4.84-4.29-63.15-55.86-8.53-7.55L991,606l-47.26-41.8L939.08,560l-12.39-11Zm-27.68,27.08,5.56-5.43L934,563.75l4.59,4.07L981.72,606l23.78,21,8.81,7.79,63.21,55.91,4.86,4.29,3.08,2.73,96.12,85c-11.43-.23-22.75-.5-33.94-.67l-94.33-84.35-3.06-2.73-4.79-4.29-64.75-57.9L971,624.11,950.7,606,907.78,567.6l4.45-4.35ZM903.33,572l38.07,34L960,622.63l10.12,9,66.07,59L1041,695l3,2.73,94.17,84.15c-13.06-.19-25.74-.38-38-.52l-75.35-67.12-2.39-2.14-24-21.39-73.16-65.17-9.48-8.45L903.41,606l-18.29-16.29ZM880.68,594,894.08,606l12.43,11.07,9,8,73.68,65.65,24,21.39,2.4,2.14,75.17,67c-12-.08-23.28-.18-33.82-.24l-73.82-66.73-2.37-2.14L957.1,690.72l-72.23-65.3-8.49-7.68L866,608.4l2.47-2.42Zm-25.24,24.71,6.09-5.94,5.88,5.31,8.4,7.59,71.89,65,23.66,21.39,2.37,2.14,73.71,66.65c-11.44,0-21.79,0-30.64-.09l-75.06-66.56-2.41-2.14L915.2,690.72l-70-62,1.52-1.48Zm-58,56.69,17.4,15.28,24.35,21.39,2.44,2.14,76.23,67c-8.92.15-18.55.31-28.78.54l-80.74-67.49-2.56-2.14L781,691.45l.75-.73Zm-36.89,36.67-.33-.29,16.1-15.71,19.13,16,2.57,2.14L879,782c-11.89.27-24.46.62-37.49,1.09L763,714.25Zm483.52-2-13.9-12.33-3.08-2.73h-9.26l3.08,2.73,18.07,16,1.31,1.17,5.18-3.62Zm0,0-13.9-12.33-3.08-2.73h-9.26l3.08,2.73,18.07,16,1.31,1.17,5.18-3.62Zm0,0-13.9-12.33-3.08-2.73h-9.26l3.08,2.73,18.07,16,1.31,1.17,5.18-3.62Zm0,0-13.9-12.33-3.08-2.73h-9.26l3.08,2.73,18.07,16,1.31,1.17,5.18-3.62Zm0,0-13.9-12.33-3.08-2.73h-9.26l3.08,2.73,18.07,16,1.31,1.17,5.18-3.62Zm0,0-13.9-12.33-3.08-2.73h-9.26l3.08,2.73,18.07,16,1.31,1.17,5.18-3.62Zm0,0-13.9-12.33-3.08-2.73h-9.26l3.08,2.73,18.07,16,1.31,1.17,5.18-3.62Zm0,0-13.9-12.33-3.08-2.73h-9.26l3.08,2.73,18.07,16,1.31,1.17,5.18-3.62Zm0,0-13.9-12.33-3.08-2.73h-9.26l3.08,2.73,18.07,16,1.31,1.17,5.18-3.62Zm0,0-13.9-12.33-3.08-2.73h-9.26l3.08,2.73,18.07,16,1.31,1.17,5.18-3.62Z"/><path class="cls-11" d="M804.56,942.14H0V750.3c10.63-.43,51.58-1.89,80,.11,12.35.87,31.58-1.52,52.66-4.89,4.39-.7,8.88-1.45,13.39-2.22l2.89-.49h0l4.68-.8,2-.35,1.95-.34,18.74-3.25h0c5-.85,9.86-1.67,14.6-2.43l2.68-.42,2.93-.46,5-.75,1.64-.24h0c6.77-1,13.06-1.73,18.61-2.18,1.36-.11,2.67-.2,3.94-.27,1.43-.08,2.81-.14,4.12-.17h.58a92.7,92.7,0,0,1,15.08,1.19c35.11,5.4,82.93,27.78,118.21,40.41,16.23,5.81,37.15,13.68,65.26,22.13q5.29,1.61,11,3.21c21.73,6.22,47.42,12.63,78,18.67,28.1,5.56,60.34,10.8,97.45,15.28a316,316,0,0,1,49.89,10,277.31,277.31,0,0,1,40.27,15C777.43,890.42,804.56,942.14,804.56,942.14Z"/><path class="cls-12" d="M789.7,942.14H0V760.82c10.51-.42,50.62-1.79,78.44.1,12,.81,30.8-1.42,51.36-4.57,7.76-1.19,15.78-2.51,23.79-3.85l3.95-.66.26-.05c7.27-1.21,14.49-2.43,21.48-3.55l.88-.14c2.39-.39,4.76-.76,7.07-1.12l3.66-.56,5.61-.82,1.93-.27c8.76-1.22,16.72-2.11,23.36-2.46,1.32-.08,2.58-.12,3.79-.15h.16c1.92,0,3.92,0,6,.14a123.77,123.77,0,0,1,17.37,2.43C282.54,752.13,325,771,357,782c10.39,3.58,22.75,8,37.75,12.85,12.2,4,26.15,8.19,42.22,12.51,13.13,3.53,27.7,7.11,43.87,10.63,33.52,7.3,74,14.32,123.21,20a316,316,0,0,1,61.36,13.2q8.36,2.73,16,5.78C760.29,888.16,789.7,942.14,789.7,942.14Z"/><path class="cls-11" d="M996.32,1215.76H996l-21.23-.53-38.09-1-149.11-3.72-564.18,3.72L0,1215.74V905.3l.86,0c1.48-.08,3.39-.17,5.71-.26l.79,0c1.3-.05,2.71-.1,4.23-.14,7.44-.23,17.44-.4,29.13-.25l2.13,0c14.4.23,31.18.94,48.77,2.59q3.07.29,6.19.62a407.84,407.84,0,0,1,48.7,7.92l.15,0c5.47,1.27,10.85,2.67,16.1,4.23a201.14,201.14,0,0,1,25.33,9.27c8.78,4,17.13,8.29,25.08,12.88,56.38,32.57,93.11,78.34,127,97.25,38.63,21.58,86.61,40.19,112.16,40.19H617.45c35.52,0,81.63,2.23,115.9,7.44s69.79,41.67,99.08,46.88c25.88,4.6,133.89,19.65,158.77,63.09h0a40.82,40.82,0,0,1,3,6.49,35.93,35.93,0,0,1,2.08,10.41c0,.12,0,.24,0,.37C996.31,1214.76,996.32,1215.26,996.32,1215.76Z"/><path class="cls-12" d="M974.76,1215.22l-220,.54H0V924c1.7-.08,4.18-.2,7.36-.31,1.3-.05,2.71-.1,4.23-.14,7.93-.23,18.78-.39,31.46-.18l2.57.05c6.34.12,13.08.35,20.11.7l3.08.16,4,.23q7.75.48,15.82,1.19c1,.08,2,.18,3.09.28,6.71.63,13.53,1.4,20.36,2.33,2.15.29,4.31.6,6.46.92l4.92.77c5.72,1,11.43,2,17,3.21,4.22.89,8.4,1.87,12.5,2.94,5.84,1.5,11.54,3.18,17,5l2.62.9q5.82,2.07,11.28,4.42c69.5,30.07,111,83.21,148.77,103.48s84.74,37.76,109.74,37.76H604.07c34.74,0,79.87,2.1,113.4,7s68.3,39.15,96.94,44c28.4,4.85,158,22.07,160.32,75.43C974.75,1214.58,974.76,1214.9,974.76,1215.22Z"/><polygon class="cls-8" points="2140.54 712.79 2140.54 730.76 2137.94 730.83 2136.81 730.86 2110.93 731.52 2102.9 731.73 2068.32 732.61 2062.67 732.75 2039.11 733.36 2028.16 733.64 2003.8 734.26 1995.82 734.46 1971.52 735.08 1965.6 735.24 1958.3 735.42 1956.32 735.47 1928.16 736.19 1919.62 736.41 1888.75 737.2 1882.83 737.35 1849.32 738.21 1841.62 738.41 1819.95 738.96 1812.24 739.16 1787.88 739.78 1782.33 739.92 1759.98 740.49 1754.07 740.64 1730.43 741.25 1723.29 741.43 1723.29 750.07 1668.52 750.07 1668.52 759.3 1675.44 759.3 1675.44 767.13 1716.61 767.13 1716.61 789.83 1679.16 790.79 1670.62 791.01 1639.75 791.8 1639.74 791.8 1633.84 791.95 1633.83 791.95 1600.33 792.8 1592.63 793 1573.1 793.5 1570.95 793.55 1570.94 793.55 1563.24 793.75 1538.88 794.37 1538.87 794.37 1533.33 794.51 1533.32 794.51 1519.46 794.87 1510.99 795.09 1510.98 795.09 1505.07 795.24 1481.42 795.84 1477.18 795.95 1477.07 795.95 1474.28 796.02 1474.28 767.38 1510.98 767.29 1510.99 767.29 1533.32 767.22 1533.33 767.22 1538.87 767.2 1538.88 767.2 1563.24 767.14 1567.64 767.13 1567.64 746.81 1584.67 746.81 1584.67 765.37 1595.76 765.37 1595.76 738.24 1612.04 738.24 1612.04 759.47 1629.02 759.47 1629.02 700.33 1668.52 700.33 1668.52 715.87 1675.61 715.87 1675.61 693.59 1705.07 693.59 1705.07 728.17 1723.29 728.17 1723.29 712.79 1759.98 712.69 1782.33 712.63 1787.88 712.62 1812.24 712.55 1816.63 712.54 1816.63 692.22 1833.67 692.22 1833.67 710.78 1844.76 710.78 1844.76 683.64 1861.04 683.64 1861.04 704.88 1878.02 704.88 1878.02 645.74 1917.51 645.74 1917.51 704.7 1924.44 704.7 1924.44 712.54 1967.58 712.54 1967.58 668.46 1994.61 668.46 1994.61 706.79 2001.53 706.79 2001.53 684.31 2012.27 684.31 2012.27 704.9 2017.47 704.9 2017.47 686.62 2036.7 686.62 2036.7 718.23 2065.98 718.23 2065.98 692.05 2106.33 692.05 2106.33 712.79 2140.54 712.79"/><rect class="cls-4" x="1730.42" y="719.16" width="23.65" height="36.83"/><rect class="cls-4" x="1759.99" y="690.88" width="22.34" height="65.11"/><rect class="cls-4" x="1819.94" y="695.49" width="21.68" height="55.25"/><rect class="cls-4" x="1849.33" y="650.76" width="33.5" height="99.97"/><rect class="cls-4" x="1888.74" y="683.65" width="30.88" height="64.46"/><rect class="cls-4" x="1928.16" y="631.03" width="37.44" height="106.55"/><polygon class="cls-4" points="1995.82 682.85 1995.82 737.58 1971.52 737.58 1971.52 682.85 1974.44 682.85 1974.44 672.23 1992.23 672.23 1992.23 682.85 1995.82 682.85"/><polygon class="cls-4" points="2028.16 699.1 2028.16 736.72 2003.8 736.72 2003.8 699.1 2005.81 699.1 2005.81 695.9 2008.09 695.9 2008.09 692.72 2010.28 692.72 2010.28 688.86 2021.32 688.86 2021.32 692.72 2023.77 692.72 2023.77 695.9 2026.14 695.9 2026.14 699.1 2028.16 699.1"/><polygon class="cls-4" points="1812.24 696.01 1812.24 741.43 1787.88 741.43 1787.88 696.01 1789.89 696.01 1789.89 692.14 1792.17 692.14 1792.17 688.3 1794.37 688.3 1794.37 683.65 1805.4 683.65 1805.4 688.3 1807.86 688.3 1807.86 692.14 1810.23 692.14 1810.23 696.01 1812.24 696.01"/><rect class="cls-4" x="2039.11" y="715.87" width="23.57" height="18.68"/><polygon class="cls-4" points="2068.31 693.61 2068.31 734.93 2102.9 734.93 2102.9 686.62 2079.59 686.62 2079.59 693.41 2068.31 693.61"/><rect class="cls-4" x="2110.92" y="700.67" width="25.9" height="33.88"/><rect class="cls-4" x="1481.42" y="773.75" width="23.65" height="36.83"/><rect class="cls-4" x="1510.98" y="745.47" width="22.34" height="65.11"/><rect class="cls-4" x="1570.94" y="750.08" width="21.68" height="55.25"/><rect class="cls-4" x="1600.33" y="705.35" width="33.5" height="99.97"/><rect class="cls-4" x="1639.74" y="738.24" width="30.88" height="64.46"/><rect class="cls-4" x="1679.16" y="685.62" width="37.44" height="106.55"/><polygon class="cls-4" points="1563.24 750.6 1563.24 796.02 1538.88 796.02 1538.88 750.6 1540.89 750.6 1540.89 746.73 1543.17 746.73 1543.17 742.89 1545.36 742.89 1545.36 738.24 1556.4 738.24 1556.4 742.89 1558.85 742.89 1558.85 746.73 1561.22 746.73 1561.22 750.6 1563.24 750.6"/><path class="cls-11" d="M2140.54,725.66V923.27H1154.12s-9.6-42.83,69-51.57,121.34-15.73,141.41-27.09c10.26-5.8,29.17-18.45,48.47-29.66,15.4-8.94,31-17,42.75-19.91h0c.23-.07.47-.12.7-.17a36.79,36.79,0,0,1,5.84-1c3.4-.24,7.47-.47,12-.68,2.28-.12,4.66-.22,7.14-.33,7.32-.32,15.43-.63,23.65-1l5.91-.24c7.68-.33,15.3-.68,22.34-1.08l5.55-.34c10.31-.66,18.89-1.46,23.77-2.49l.6-.14a41.32,41.32,0,0,0,7.7-3c5.62-2.69,12.79-6.76,21.69-11.38,2.43-1.25,5-2.56,7.7-3.88,6.6-3.24,14-6.63,22.3-9.91,2.08-.82,4.2-1.64,6.39-2.44,1.57-.58,3.18-1.15,4.81-1.72q2.88-1,5.91-2a279,279,0,0,1,30.88-8c2.79-.56,5.63-1.08,8.54-1.57,7.85-1.33,16.15-2.4,24.9-3.14,4.09-.34,8.26-.68,12.54-1q6.76-.52,13.83-1c7.64-.54,15.54-1.06,23.64-1.55l5.91-.36q10.95-.64,22.35-1.24l5.55-.29q12-.61,24.36-1.18l7.71-.35q10.75-.48,21.67-.92l7.7-.31c11.13-.43,22.33-.84,33.51-1.23l5.92-.2c10.32-.34,20.64-.67,30.87-1l8.54-.25c12.67-.37,25.2-.71,37.44-1h.05l2.32-.05h0l3.53-.08,24.3-.57,8-.18,24.36-.49,10.95-.21c8.21-.16,16.08-.29,23.56-.42l5.65-.09c12.92-.21,24.56-.38,34.58-.52l8-.1c11.76-.15,20.64-.25,25.88-.3h1.13Z"/><path class="cls-12" d="M2140.54,734.27v189H1170.47s-9.45-41,67.82-49.32S1357.61,858.9,1377.36,848c9.59-5.27,26.85-16.46,44.84-26.77,19.07-10.92,38.94-20.86,51.31-21.72,2.34-.16,5-.32,7.91-.47,6.8-.35,15-.67,23.65-1l3.47-.14h.11l2.33-.09c7.43-.29,15-.59,22.34-.93,5.8-.27,11.4-.57,16.55-.9,5-.32,9.51-.67,13.37-1.07l.77-.08c2.69-.28,5-.59,6.93-.93l1.29-.24.87-.2c4.6-1.19,11-4.58,19.53-9,2.39-1.25,5-2.58,7.7-4a317.62,317.62,0,0,1,33.5-14.88q2.88-1.1,5.91-2.14a278.54,278.54,0,0,1,28.78-8.31l2.1-.48c2.79-.62,5.63-1.22,8.54-1.77q8.56-1.65,17.89-2.86c4.6-.59,9.36-1.1,14.26-1.5l5.29-.42q3.3-.27,6.69-.51l7.14-.53c7.62-.54,15.52-1.07,23.64-1.57l5.91-.36q10.92-.64,22.35-1.25c12.22-.65,24.81-1.25,37.62-1.82q10.74-.47,21.67-.91l7.7-.31c11.12-.43,22.32-.84,33.51-1.22l5.92-.2c10.32-.34,20.63-.66,30.87-1,11.36-.33,22.63-.64,33.72-.93h.09l1.85-.05,10.32-.26,5.92-.14q12.38-.3,24.3-.56l8-.17c8.35-.18,16.49-.35,24.36-.5,21.49-.41,41-.73,57.61-1l17.13-.24,11.13-.14c10.24-.12,18-.21,22.78-.25h1.13Z"/><path class="cls-11" d="M2140.54,865.84v264.9H930.78s-.11-.52-.24-1.49a59.45,59.45,0,0,1-.1-14.14c2-19.33,14.15-51.16,69.46-63.25,81.76-17.86,115.21-9.67,153.85-29s131.56-67.12,173.18-67.72c51.28-.74,178.37,8.93,239.32,2.23,31.78-3.49,74.49-19.53,112.82-34.08,35.17-13.35,66.65-25.45,82.65-25.45,33.45,0,141.22-15.62,185.81-23.07,8.4-1.4,20.55-2.59,34.73-3.6,17.21-1.23,37.42-2.18,57.57-2.93q7.29-.27,14.5-.5C2094.93,866.41,2132.24,865.93,2140.54,865.84Z"/><path class="cls-12" d="M2069.92,879.86c34.14-.93,63.39-1.29,70.62-1.37v252.25H944.11s-.11-.53-.25-1.49c-1.27-9.19-4.56-58.24,68.61-73.62,80.86-17,113.93-9.21,152.16-27.64s130.11-63.91,171.27-64.48c50.72-.71,176.41,8.5,236.69,2.12,39.28-4.15,95.42-27,138.92-42.36,23.25-8.23,42.89-14.33,54.41-14.33,24.6,0,89.88-8.23,139.86-15.37,10.59-1.51,20.51-3,29.2-4.3l.75-.11,5-.77.13,0c3.17-.49,6.13-1,8.84-1.39C1973,883.23,2025.59,881.06,2069.92,879.86Z"/><path class="cls-7" d="M2140.54,1129.25v3H923.94a1.34,1.34,0,0,1-1.34-1.34v-.31a1.34,1.34,0,0,1,1.34-1.33Z"/><rect class="cls-7" x="899.87" y="856.67" width="44.84" height="2.34" rx="1.05"/><rect class="cls-7" x="1593.71" y="1141.5" width="155.57" height="1.95" rx="0.87"/><rect class="cls-7" x="1715.83" y="1160.54" width="101.76" height="1.95" rx="0.87"/><rect class="cls-7" x="1786.79" y="1149.97" width="103.09" height="1.95" rx="0.87"/><rect class="cls-7" x="1838.33" y="1139.39" width="77.79" height="1.95" rx="0.87"/><rect class="cls-7" x="1762.58" y="1135.4" width="43.37" height="1.95" rx="0.87"/><rect class="cls-7" x="9.47" y="1228.53" width="134.47" height="1.95" rx="0.87"/><rect class="cls-7" x="93.07" y="1241.35" width="87.96" height="1.95" rx="0.87"/><rect class="cls-7" x="165.43" y="1234.45" width="89.1" height="1.95" rx="0.87"/><rect class="cls-7" x="220.91" y="1223.66" width="67.23" height="1.95" rx="0.87"/><rect class="cls-7" x="155.44" y="1227.55" width="57.72" height="1.95" rx="0.87"/><rect class="cls-7" x="0.49" y="1235.69" width="57.72" height="1.95" rx="0.87"/><rect class="cls-7" x="741.43" y="953.87" width="44.84" height="1.95" rx="0.87"/><rect class="cls-7" x="778.43" y="959.89" width="29.33" height="1.95" rx="0.87"/><rect class="cls-7" x="796.85" y="956.39" width="29.71" height="1.95" rx="0.87"/><rect class="cls-7" x="811.93" y="951.75" width="22.42" height="1.95" rx="0.87"/><rect class="cls-7" x="1340.98" y="933.36" width="29.33" height="1.95" rx="0.87"/><rect class="cls-7" x="1376.95" y="931.4" width="32.43" height="1.95" rx="0.87"/><rect class="cls-7" x="1363.1" y="927.33" width="22.42" height="1.95" rx="0.87"/><rect class="cls-7" x="790.1" y="952.89" width="12.5" height="1.95" rx="0.87"/><rect class="cls-7" x="890.97" y="860.12" width="12.5" height="1.95" rx="0.87"/><path class="cls-7" d="M943.41,852.22h7.68a.87.87,0,0,1,.87.87v.2a.87.87,0,0,1-.87.87h-7.68a0,0,0,0,1,0,0v-2A0,0,0,0,1,943.41,852.22Z"/><path class="cls-3" d="M277.68,522.18v0H62a53.66,53.66,0,0,1,67.22-47.47,53.58,53.58,0,0,1,80.41-15.17,53.65,53.65,0,0,1,69.68,51.22A41.59,41.59,0,0,1,277.68,522.18Z"/><path class="cls-4" d="M277.71,522.18v0H65.28c2.21-25.43,24.93-45.41,52.62-45.41a56,56,0,0,1,13.57,1.65c9.08-14.95,26.24-25,45.91-25a54.82,54.82,0,0,1,33.27,11.06,56.08,56.08,0,0,1,15.83-2.25c29.15,0,52.79,22.15,52.79,49.48A36.18,36.18,0,0,1,277.71,522.18Z"/><path class="cls-3" d="M360.11,347.42v0H575.84a53.66,53.66,0,0,0-67.22-47.47,53.58,53.58,0,0,0-80.41-15.17A53.65,53.65,0,0,0,358.53,336,41.9,41.9,0,0,0,360.11,347.42Z"/><path class="cls-4" d="M360.09,347.42v0H572.52C570.31,322,547.59,302,519.9,302a56.54,56.54,0,0,0-13.57,1.65c-9.08-14.95-26.24-25-45.91-25a54.81,54.81,0,0,0-33.28,11.06,56,56,0,0,0-15.82-2.26c-29.16,0-52.79,22.15-52.79,49.48A36.13,36.13,0,0,0,360.09,347.42Z"/><path class="cls-3" d="M405.3,420.54H272a32,32,0,0,1,48-27.74A32,32,0,0,1,355.17,395a32,32,0,0,1,50.13,25.58Z"/><path class="cls-4" d="M405.3,420.54H274.18c0-16.39,14.08-29.68,31.45-29.68a32.84,32.84,0,0,1,15.73,4,33,33,0,0,1,34.64,2,32.59,32.59,0,0,1,17.85-5.24C391,391.6,404.88,404.49,405.3,420.54Z"/><path class="cls-3" d="M2140.54,452.77v62.71H1961A53.66,53.66,0,0,1,2028.23,468a53.58,53.58,0,0,1,80.41-15.17,53.88,53.88,0,0,1,31.9-.07Z"/><path class="cls-4" d="M2140.54,457.51v58H1964.33c2.21-25.43,24.93-45.41,52.62-45.41a56.54,56.54,0,0,1,13.57,1.65c9.08-15,26.24-25,45.92-25a54.78,54.78,0,0,1,33.27,11.06,56.5,56.5,0,0,1,30.83-.23Z"/><path class="cls-3" d="M2140.54,585.78v22.71H2017.45c0-.85,0-1.68.09-2.51a32.08,32.08,0,0,1,17.6-26.14,31.43,31.43,0,0,1,6.5-2.41,32.06,32.06,0,0,1,23.79,3.32,32,32,0,0,1,35.24,2.17,31.94,31.94,0,0,1,39.87,2.86Z"/><path class="cls-4" d="M2140.54,587.31v21.18H2019.68c0-.85,0-1.68.11-2.51,1-10.8,8-20,18-24.35a32,32,0,0,1,6.77-2.15,33.2,33.2,0,0,1,6.6-.66,32.8,32.8,0,0,1,15.72,4,33,33,0,0,1,34.65,2,32.63,32.63,0,0,1,17.85-5.24A32.27,32.27,0,0,1,2140.54,587.31Z"/><path class="cls-13" d="M405.31,420.54v.79c0-.26,0-.53,0-.79Z"/><rect class="cls-4" x="2002.36" y="777.22" width="34.84" height="19.38"/><path class="cls-4" d="M2048.82,859V853h-2.88V833.7h2.88V826h-58.63v7.75h3.65l-.09,19.28h-3.56V859h-5.32v9.18h69.46V859ZM2036.39,853H2003.9l.09-19.28h32.4Z"/><path class="cls-4" d="M2068.19,972V960.05h-5.08V929.76h5.08V918.24H1971.4v11.52h5.27v30.29h-5.26V972h-9.18v17.17h40.59V972h9v17.17h64.59V972Zm-20.49-11.93h-56.2V929.76h56.2Z"/><polygon class="cls-4" points="1955.2 971.97 1955.2 989.16 1933.74 989.16 1933.74 971.97 1939.39 971.97 1939.39 918.24 1948.96 918.24 1948.96 971.97 1955.2 971.97"/><polygon class="cls-4" points="2106.44 971.97 2106.44 989.16 2083.99 989.16 2083.99 971.97 2091.41 971.97 2091.41 918.24 2100 918.24 2100 971.97 2106.44 971.97"/><path class="cls-8" d="M2007.31,760.25h24.21s9.66,10.25,30.13,7c0,0-1.75,7-11.11,9.94H1990.2A28.28,28.28,0,0,1,1978.29,767S1996.83,769.91,2007.31,760.25Z"/><path class="cls-8" d="M1998.91,796.6h42.25s8.21,15.48,47.69,14.31c0,0-6.22,14.27-20.66,15h-99s-15.38-4.79-20.26-16.21C1949,809.74,1984.73,813.34,1998.91,796.6Z"/><path class="cls-8" d="M1904.88,891.15s60.86,1.58,80-22.93h69.48s10.82,21.51,80.14,22.95c0,0-6.37,19-34.48,27.07h-163S1910.14,908.43,1904.88,891.15Z"/><rect class="cls-8" x="835.06" y="958.15" width="3.49" height="0.94"/><rect class="cls-8" x="843.78" y="958.15" width="3.49" height="0.94"/><rect class="cls-8" x="854.23" y="958.15" width="3.49" height="0.94"/><polygon class="cls-8" points="1128.59 937.7 1125.76 939.95 1124.43 938.26 1125.14 937.7 1128.59 937.7"/><rect class="cls-8" x="1159.88" y="937.7" width="1.74" height="1.52"/><rect class="cls-8" x="1169.16" y="937.7" width="1.75" height="0.48"/><rect class="cls-8" x="1178.25" y="937.7" width="3.49" height="0.46"/><rect class="cls-8" x="854.23" y="958.15" width="3.49" height="0.94"/><rect class="cls-8" x="843.78" y="958.15" width="3.49" height="0.94"/><rect class="cls-8" x="835.06" y="958.15" width="3.49" height="0.94"/><path class="cls-8" d="M1181.73,937.7v.46h-3.48v-.46h-7.34v.47h-1.75v-.47h-7.54v1.52h-1.74V937.7h-8.23v-9.5h8.23v9.5h1.74v-9.5h7.54v9.5h1.75v-9.5h7.34v9.5h3.48V926h-41.8l-14.79,11.75h3.45l11.34-9v9h-11.34l-2.83,2.24-1.33-1.68.71-.56h-9.61V857.92h-3.48V937.7h-17.7l-31.08,16.06V926h-22.64V905h3.48v-5.23h-20.9V877.11h1.73a3.49,3.49,0,1,0-7,0h1.75v22.67h-20.9V905h3.48V926H979.66v32.2h-8.72V946.87H957v11.28h-5.23v-9.53H937.85v9.53h-5.22V946.87h-14v11.28H915.2v-20H880.36V905h-5.22v33.15H859.46v3.48h3.47v7H835.07v9.53h3.48v-6h5.23v6h3.48v-6h7v6h3.49v-6h5.22v6h-5.22v.93h-3.49v-.93h-7v.93h-3.48v-.93h-5.23v.93h-3.48v45.8h302.5l16.11-19.72,38.09-47.46Zm-31.83,0h-8.24v-9.5h8.24Z"/><rect class="cls-8" x="1178.25" y="937.7" width="3.49" height="0.46"/><rect class="cls-8" x="1169.16" y="937.7" width="1.75" height="0.48"/><rect class="cls-8" x="1159.88" y="937.7" width="1.74" height="1.52"/><polygon class="cls-8" points="1128.59 937.7 1125.76 939.95 1124.43 938.26 1125.14 937.7 1128.59 937.7"/><path class="cls-14" d="M35.56,962.07c-.26.55-.53,1.09-.8,1.62,4.63,9.06,7.64,20.63,8.2,33.37v.06c.08,1.47.12,3,.12,4.48,0,1.34,0,2.66-.08,4,0,0,0,0,0,0-.64,16.12-5.15,30.39-11.95,40.15a42.7,42.7,0,0,1-3.41,4.3c-4.68,5.17-10.16,8.4-16,9-.7.07-1.4.11-2.11.11a18.7,18.7,0,0,1-2.12-.12,20.27,20.27,0,0,1-5.06-1.2,20.32,20.32,0,0,1-2.3-1V813a21,21,0,0,1,9.48-2.32c18.56,0,33.6,25.77,33.6,57.57A90.65,90.65,0,0,1,38.58,897q1.23,3.63,2.14,7.58a93,93,0,0,1,2.33,18.84c0,.78,0,1.58,0,2.37a94.83,94.83,0,0,1-1.39,16.36A77.22,77.22,0,0,1,35.56,962.07Z"/><path class="cls-8" d="M9.25,871.19h.44a1.89,1.89,0,0,1,1.89,1.89v237.25a0,0,0,0,1,0,0H7.36a0,0,0,0,1,0,0V873.08A1.89,1.89,0,0,1,9.25,871.19Z"/><path class="cls-8" d="M11.11,890.56l-3-3,8.78-8.78a1.88,1.88,0,0,1,2.67,0l.31.31a1.9,1.9,0,0,1,0,2.68Z"/><path class="cls-8" d="M10.35,939.06l-3-3,8.77-8.79a1.9,1.9,0,0,1,2.68,0l.31.31a1.9,1.9,0,0,1,0,2.68Z"/><path class="cls-8" d="M11.55,995l-3-3,8.77-8.78a1.9,1.9,0,0,1,2.68,0l.31.31a1.9,1.9,0,0,1,0,2.68Z"/><path class="cls-8" d="M11.59,962.56l-3,3-1.24-1.24L0,956.94v-3l.14-.14a1.9,1.9,0,0,1,2.68,0Z"/><path class="cls-8" d="M10.71,1028.47l-3,3-.36-.36-2-2L0,1023.73v-4.49a1.86,1.86,0,0,1,1.94.45l1.48,1.48,3.94,3.95Z"/><path class="cls-8" d="M11.15,909.57l-3,3L0,904.39v-3.84a1.88,1.88,0,0,1,2.38.24Z"/><path class="cls-2" d="M250.54,754.11c0,13.39-12,24.25-26.78,24.25S197,767.5,197,754.11s26.78-85,26.78-85S250.54,740.71,250.54,754.11Z"/><path class="cls-8" d="M223.56,729.63H224a1.77,1.77,0,0,1,1.77,1.77v79a0,0,0,0,1,0,0h-3.94a0,0,0,0,1,0,0v-79a1.77,1.77,0,0,1,1.77-1.77Z"/><path class="cls-8" d="M224.7,737.64,223,740.25,214.93,736a1.44,1.44,0,0,1-.61-2.06h0a1.77,1.77,0,0,1,2.27-.55Z"/><path class="cls-8" d="M224.39,761.53l-1.66,2.61-8.1-4.24a1.42,1.42,0,0,1-.61-2h0a1.77,1.77,0,0,1,2.27-.56Z"/><path class="cls-8" d="M223.2,749.59l1.66,2.6L233,748a1.44,1.44,0,0,0,.6-2.06h0a1.75,1.75,0,0,0-2.27-.55Z"/><path class="cls-8" d="M223.5,774.47l1.67,2.6,8.1-4.23a1.43,1.43,0,0,0,.61-2.06h0a1.76,1.76,0,0,0-2.27-.55Z"/><path class="cls-14" d="M231.82,740.44c0,18.55-17.07,33.58-38.13,33.58s-38.12-15-38.12-33.58,38.12-117.63,38.12-117.63S231.82,721.9,231.82,740.44Z"/><path class="cls-8" d="M193.4,706.56H194a2.52,2.52,0,0,1,2.52,2.52V818.41a0,0,0,0,1,0,0h-5.61a0,0,0,0,1,0,0V709.08A2.52,2.52,0,0,1,193.4,706.56Z"/><path class="cls-8" d="M195,717.65l-2.37,3.6-11.54-5.86a2,2,0,0,1-.86-2.85h0a2.54,2.54,0,0,1,3.23-.76Z"/><path class="cls-8" d="M194.6,750.73l-2.37,3.6-11.54-5.86a2,2,0,0,1-.87-2.85h0a2.55,2.55,0,0,1,3.24-.76Z"/><path class="cls-8" d="M192.9,734.19l2.36,3.6,11.54-5.86a2,2,0,0,0,.87-2.85h0a2.54,2.54,0,0,0-3.23-.76Z"/><path class="cls-8" d="M193.33,768.63l2.36,3.61,11.54-5.87a2,2,0,0,0,.87-2.84h0a2.54,2.54,0,0,0-3.23-.76Z"/><path class="cls-14" d="M158.94,962.21c0,18.55-17.07,33.58-38.12,33.58s-38.13-15-38.13-33.58,38.13-117.63,38.13-117.63S158.94,943.67,158.94,962.21Z"/><path class="cls-8" d="M120.53,928.33h.58a2.52,2.52,0,0,1,2.52,2.52v109.33a0,0,0,0,1,0,0H118a0,0,0,0,1,0,0V930.85A2.52,2.52,0,0,1,120.53,928.33Z"/><path class="cls-8" d="M122.15,939.42,119.78,943l-11.53-5.87a2,2,0,0,1-.87-2.85h0a2.55,2.55,0,0,1,3.23-.76Z"/><path class="cls-8" d="M121.72,972.5l-2.37,3.61-11.54-5.87a2,2,0,0,1-.86-2.85h0a2.55,2.55,0,0,1,3.23-.76Z"/><path class="cls-8" d="M120,956l2.36,3.61,11.54-5.87a2,2,0,0,0,.87-2.85h0a2.55,2.55,0,0,0-3.23-.76Z"/><path class="cls-8" d="M120.45,990.4l2.37,3.61,11.54-5.86a2,2,0,0,0,.86-2.85h0a2.54,2.54,0,0,0-3.23-.76Z"/><path class="cls-2" d="M182.35,763.25c0,13.4-12,24.25-26.78,24.25s-26.79-10.85-26.79-24.25,26.79-85,26.79-85S182.35,749.86,182.35,763.25Z"/><path class="cls-8" d="M155.36,738.78h.41a1.77,1.77,0,0,1,1.77,1.77v79a0,0,0,0,1,0,0h-3.94a0,0,0,0,1,0,0v-79A1.77,1.77,0,0,1,155.36,738.78Z"/><path class="cls-8" d="M156.5,746.79l-1.66,2.6-8.1-4.23a1.43,1.43,0,0,1-.61-2.06h0a1.75,1.75,0,0,1,2.27-.55Z"/><path class="cls-8" d="M156.2,770.68l-1.66,2.61-8.11-4.24a1.44,1.44,0,0,1-.61-2.06h0a1.77,1.77,0,0,1,2.27-.55Z"/><path class="cls-8" d="M155,758.73l1.67,2.61,8.1-4.24a1.42,1.42,0,0,0,.61-2.05h0a1.77,1.77,0,0,0-2.27-.56Z"/><path class="cls-8" d="M155.31,783.61l1.66,2.61,8.11-4.24a1.42,1.42,0,0,0,.6-2.05h0a1.77,1.77,0,0,0-2.27-.56Z"/><path class="cls-2" d="M180.74,980.68c0,13.39-12,24.25-26.78,24.25s-26.78-10.86-26.78-24.25,26.78-85,26.78-85S180.74,967.28,180.74,980.68Z"/><path class="cls-8" d="M153.76,956.2h.41a1.77,1.77,0,0,1,1.77,1.77v79a0,0,0,0,1,0,0H152a0,0,0,0,1,0,0V958a1.77,1.77,0,0,1,1.77-1.77Z"/><path class="cls-8" d="M154.9,964.21l-1.66,2.61-8.11-4.24a1.44,1.44,0,0,1-.61-2.06h0a1.77,1.77,0,0,1,2.27-.55Z"/><path class="cls-8" d="M154.59,988.1l-1.66,2.61-8.1-4.24a1.42,1.42,0,0,1-.61-2.05h0a1.77,1.77,0,0,1,2.27-.56Z"/><path class="cls-8" d="M153.4,976.16l1.66,2.6,8.11-4.24a1.42,1.42,0,0,0,.6-2h0a1.75,1.75,0,0,0-2.27-.55Z"/><path class="cls-8" d="M153.7,1001l1.66,2.6,8.11-4.24a1.43,1.43,0,0,0,.61-2h0a1.76,1.76,0,0,0-2.27-.55Z"/><path class="cls-2" d="M116.67,979.34a37.89,37.89,0,0,1-6.29,21.38,37.85,37.85,0,0,1,6.29,21.37c0,17.93-11.37,32.46-25.41,32.46s-25.4-14.53-25.4-32.46a37.93,37.93,0,0,1,6.28-21.37,38,38,0,0,1-6.28-21.38,39.28,39.28,0,0,1,3.4-16.23,39.28,39.28,0,0,1-3.4-16.23c0-17.92,11.37-32.46,25.4-32.46s25.41,14.54,25.41,32.46a39.44,39.44,0,0,1-3.4,16.23A39.44,39.44,0,0,1,116.67,979.34Z"/><path class="cls-8" d="M91.1,948.57h.33A1.43,1.43,0,0,1,92.86,950v133.39a0,0,0,0,1,0,0H89.67a0,0,0,0,1,0,0V950A1.43,1.43,0,0,1,91.1,948.57Z"/><path class="cls-8" d="M92.5,959.49l-2.26-1.69,6.52-4.86a2,2,0,0,1,2.26,0h0a1,1,0,0,1,0,1.69Z"/><path class="cls-8" d="M91.93,986.83l-2.26-1.69,6.51-4.86a2,2,0,0,1,2.26,0h0a1,1,0,0,1,0,1.68Z"/><path class="cls-8" d="M92.83,1018.35l-2.26-1.68,6.52-4.87a2,2,0,0,1,2.26,0h0a1,1,0,0,1,0,1.69Z"/><path class="cls-8" d="M90.6,1001.77l2.26-1.69-6.51-4.87a2,2,0,0,0-2.26,0h0a1,1,0,0,0,0,1.69Z"/><path class="cls-8" d="M89.94,1038.92l2.26-1.68-6.52-4.87a2,2,0,0,0-2.26,0h0a1,1,0,0,0,0,1.69Z"/><path class="cls-8" d="M90.27,971.89l2.26-1.69L86,965.34a2,2,0,0,0-2.25,0h0a1,1,0,0,0,0,1.69Z"/><path class="cls-14" d="M91.69,945.92c0,10.56-2.28,20.2-6,27.56,3.76,7.36,6,17,6,27.55,0,23.12-10.93,41.85-24.42,41.85S42.85,1024.15,42.85,1001c0-10.55,2.28-20.19,6-27.55-3.76-7.36-6-17-6-27.56A65.81,65.81,0,0,1,46.12,925a65.83,65.83,0,0,1-3.27-20.93c0-23.11,10.93-41.84,24.42-41.84S91.69,881,91.69,904.07A65.83,65.83,0,0,1,88.42,925,65.81,65.81,0,0,1,91.69,945.92Z"/><path class="cls-8" d="M67.11,906.24h.32a1.38,1.38,0,0,1,1.38,1.38v172.44a0,0,0,0,1,0,0H65.73a0,0,0,0,1,0,0V907.62a1.38,1.38,0,0,1,1.38-1.38Z"/><path class="cls-8" d="M68.46,920.33l-2.17-2.18,6.37-6.38a1.38,1.38,0,0,1,2,0l.23.23a1.38,1.38,0,0,1,0,1.94Z"/><path class="cls-8" d="M67.91,955.57l-2.18-2.17L72.11,947a1.39,1.39,0,0,1,2,0l.22.23a1.38,1.38,0,0,1,0,2Z"/><path class="cls-8" d="M68.78,996.22,66.61,994,73,987.66a1.38,1.38,0,0,1,2,0l.22.22a1.38,1.38,0,0,1,0,2Z"/><path class="cls-8" d="M66.63,974.83l2.18-2.17-6.38-6.39a1.38,1.38,0,0,0-2,0l-.22.23a1.38,1.38,0,0,0,0,2Z"/><path class="cls-8" d="M66,1022.74l2.17-2.18-6.38-6.38a1.36,1.36,0,0,0-1.94,0l-.23.23a1.36,1.36,0,0,0,0,1.94Z"/><path class="cls-8" d="M66.32,936.32l2.17-2.18-6.38-6.38a1.36,1.36,0,0,0-1.94,0l-.23.22a1.38,1.38,0,0,0,0,1.95Z"/><path class="cls-7" d="M100.44,1081.66v5.8l-4.52.37a15.67,15.67,0,0,1-6.34-.78l-9.32-3.16s-10.83,10.9-15.57,15-3.72,6.8-3.72,6.8l5.39,17.16,4.32,5H63.34l-11-29c10.17-7.16,11-15.06,11.06-17l-23.68,17.77L62.15,1077s6-6.55,7.25-15,9.82-9.83,9.82-9.83-.71,7,.79,20.5S100.44,1081.66,100.44,1081.66Z"/><path class="cls-15" d="M80.26,1083.89l-.13,0Z"/><path class="cls-7" d="M134.61,1058.29a34.81,34.81,0,0,1-8.29,20.6,36.28,36.28,0,0,0-5.07,7.49c-7.48,14.74-9.16,31.24-9.5,36.14a4.76,4.76,0,0,0,.59,2.66l.87,1.57h-5.33c.78-12.38,6.25-36.42,7.09-40a.36.36,0,0,0-.38-.43l-6,.5c-1.56-23.39,4.64-28.34,4.64-28.34.57,7.54,7,6.83,7,6.83s.59-1.7-1.79-8.11-1.79-17.38-1.79-17.38c10.64,2.7,15.47-5.15,15.47-5.15C132.9,1037,135.53,1045.66,134.61,1058.29Z"/><path class="cls-15" d="M80.26,1083.89l-.13,0Z"/><path class="cls-16" d="M132.06,1034.64s-4.83,7.85-15.47,5.15c0,0-.58,11,1.79,17.38s1.79,8.11,1.79,8.11-6.39.71-7-6.83c0,0-6.2,5-4.64,28.34h0l-7.19.59-.94.08v-5.8s-18.94,4.55-20.43-9-.79-20.5-.79-20.5-8.54,1.42-9.82,9.83-7.25,15-7.25,15l-22.46,22.66-3.38,2.54a13.93,13.93,0,0,0-3.21,3.38l-10.85,16A1.76,1.76,0,0,0,22,1123l1.17,4.37H14.87v-1.22l17.37-29.65a9.32,9.32,0,0,1,3.34-3.29c19.29-11.28,17.31-33.32,16.81-37.11a1.29,1.29,0,0,1,.31-1c5.24-5.86,13.59-7.08,19-7.17a34.28,34.28,0,0,1,7.43.7,170.17,170.17,0,0,0,21.21,3c8.08.47,11.08-3.48,12.05-5.4a4.12,4.12,0,0,0,.45-1.68l.24-4.53a.57.57,0,0,0-.51-.61c-2.28-.27-11.08-1.35-12.54-2.12-1.89-1-1.4-2.19-1.4-2.19a3.87,3.87,0,0,1,3.89-3.74c3.07-.24,9-7,11.42-9.81a3.31,3.31,0,0,1,2.71-1.17l8.61.44a3,3,0,0,1,2.61,1.81l.83,1.88a25.21,25.21,0,0,1,1,2.79l1.74,5.64C131.66,1033.48,131.85,1034.06,132.06,1034.64Z"/><ellipse class="cls-17" cx="103.27" cy="1033.38" rx="4.4" ry="2.27"/><circle class="cls-17" cx="118.38" cy="1026.24" r="1.79"/><path class="cls-16" d="M108.57,1086.79l-1.17,19.47L106,1123l1.93,3.71h-6.58v-4.35s2.88-10.38,1.72-19.82a133.78,133.78,0,0,0-2.59-15.12Z"/><path class="cls-16" d="M102.8,1014.92s10.4-1.06,12,6.33l-4.6,5A12.32,12.32,0,0,1,102.8,1014.92Z"/><path class="cls-16" d="M138.15,1011.22s-10.24,3.34-11.13,10.24l2.38,4.78S140.79,1020.64,138.15,1011.22Z"/><path class="cls-7" d="M112.13,1020.55s-4.3-4.44-7.46-4.12c0,0,1.52,6,4.84,6.52Z"/><path class="cls-7" d="M129.37,1020.55s3.18-6.27,6.18-6.39c0,0-1.13,6.32-4.4,7.37Z"/><path class="cls-2" d="M56.49,1053.88c0,11.74-2.53,22.45-6.72,30.63,4.19,8.18,6.72,18.9,6.72,30.63,0,25.69-12.15,46.52-27.15,46.52S2.2,1140.83,2.2,1115.14c0-11.73,2.53-22.45,6.72-30.63-4.19-8.18-6.72-18.89-6.72-30.63a73.16,73.16,0,0,1,3.63-23.25,73.27,73.27,0,0,1-3.63-23.26c0-25.69,12.15-46.52,27.14-46.52s27.15,20.83,27.15,46.52a73.27,73.27,0,0,1-3.63,23.26A73.16,73.16,0,0,1,56.49,1053.88Z"/><path class="cls-8" d="M29.17,1009.78h.35a1.53,1.53,0,0,1,1.53,1.53V1203a0,0,0,0,1,0,0H27.64a0,0,0,0,1,0,0V1011.31a1.53,1.53,0,0,1,1.53-1.53Z"/><path class="cls-8" d="M30.67,1025.43,28.25,1023l7.09-7.1a1.52,1.52,0,0,1,2.16,0l.25.25a1.53,1.53,0,0,1,0,2.17Z"/><path class="cls-8" d="M30.05,1064.61l-2.41-2.42,7.09-7.09a1.52,1.52,0,0,1,2.16,0l.25.25a1.52,1.52,0,0,1,0,2.16Z"/><path class="cls-8" d="M31,1109.79l-2.41-2.42,7.08-7.1a1.55,1.55,0,0,1,2.17,0l.25.26a1.54,1.54,0,0,1,0,2.16Z"/><path class="cls-8" d="M28.64,1086l2.41-2.42L24,1076.5a1.54,1.54,0,0,0-2.16,0l-.25.25a1.53,1.53,0,0,0,0,2.17Z"/><path class="cls-8" d="M27.93,1139.27l2.41-2.42-7.08-7.1a1.55,1.55,0,0,0-2.17,0l-.25.26a1.54,1.54,0,0,0,0,2.16Z"/><path class="cls-8" d="M28.28,1043.21l2.42-2.42-7.09-7.1a1.52,1.52,0,0,0-2.16,0l-.25.25a1.53,1.53,0,0,0,0,2.17Z"/><path class="cls-7" d="M333.59,1245.57H305a2.25,2.25,0,0,1-1.08-.27c-1.2-.65-4-2.51-3.87-5.62a1.59,1.59,0,0,0,1.58.84l2.41,0a4.05,4.05,0,0,0,2.14-.58c1.85-1.09,6.1-3.38,10-3.87a14,14,0,0,1,9.09,2.19s1.32.44-.11-1.87a9,9,0,0,1-1.06-4,12.28,12.28,0,0,1,.28-3.47,19.61,19.61,0,0,0,.64-4.15c-.19-.8-.37-1.46-.37-1.46s.77,1.24,1.17,1.24,4.86-.67,7.76.06c2.35.6,3.06,2.29,3.06,4.31v3.64H332a.1.1,0,0,0-.08.15C332.61,1233.84,337.15,1241.16,333.59,1245.57Z"/><path class="cls-13" d="M341.71,1231.93a9.12,9.12,0,0,1-3.11-.54,18.19,18.19,0,0,0-2-1.07v2.26h5.71A.65.65,0,0,0,341.71,1231.93Z"/><path class="cls-13" d="M307.2,1245.57s-.1-3.31,4.75-4.67a21.74,21.74,0,0,1,7.7-.46,15.32,15.32,0,0,1,4.11,1,3.24,3.24,0,0,0,4-.77c1.45-1.91,1.34,1.27,1.23,2.73a3.12,3.12,0,0,1-.6,1.64,1,1,0,0,1-.72.49Z"/><circle class="cls-13" cx="332.93" cy="1229.37" r="1.36"/><circle class="cls-7" cx="332.93" cy="1229.37" r="0.5"/><path class="cls-7" d="M248.82,954.94h21.44a1.58,1.58,0,0,0,.8-.2c.91-.49,3-1.89,2.91-4.22a1.2,1.2,0,0,1-1.19.63H271a3,3,0,0,1-1.6-.43,22,22,0,0,0-7.49-2.9,10.47,10.47,0,0,0-6.82,1.64s-1,.33.08-1.4a6.86,6.86,0,0,0,.8-3,9.09,9.09,0,0,0-.21-2.6,14.26,14.26,0,0,1-.48-3.12c.14-.6.27-1.1.27-1.1s-.57.94-.88.94a19.9,19.9,0,0,0-5.82,0,3,3,0,0,0-2.3,3.24v2.73h3.53a.07.07,0,0,1,.06.11C249.56,946.14,246.15,951.63,248.82,954.94Z"/><path class="cls-13" d="M242.72,944.7a6.93,6.93,0,0,0,2.34-.4,14.13,14.13,0,0,1,1.46-.81v1.7h-4.28A.49.49,0,0,1,242.72,944.7Z"/><path class="cls-16" d="M268.63,954.94s.08-2.49-3.56-3.51a16.43,16.43,0,0,0-5.79-.34,11.71,11.71,0,0,0-3.08.78,2.44,2.44,0,0,1-3-.58c-1.08-1.43-1,1-.92,2.05a2.37,2.37,0,0,0,.46,1.23.74.74,0,0,0,.54.37Z"/><circle class="cls-16" cx="249.32" cy="942.78" r="1.02"/><circle class="cls-7" cx="249.32" cy="942.78" r="0.38"/><path class="cls-7" d="M1011.38,1171.66v-3.48s12,1,13.52,2.35S1011.38,1171.66,1011.38,1171.66Z"/><path class="cls-13" d="M1011.38,1168.18a13.91,13.91,0,0,0-6.27-.84c-2.92.49-3.53,2.07-3.53,4.33v6.77s.68,2.71,4,1.48a.64.64,0,0,1,.87.6v5.83a.26.26,0,0,1-.41.22c-1.11-.73-4.27-2.58-6.44-1.79-2.68,1-4.63,1.46-8,11.09-2.35,6.65-3.31,9.06-3.68,9.91a.12.12,0,0,0,.18.14l3.14-2.58a.36.36,0,0,1,.58.22l.48,3.29a.07.07,0,0,0,.14,0l2.58-4.95a1.91,1.91,0,0,1,1.46-1c3-.37,12.19-2.5,14.78-14.6a11.94,11.94,0,0,1,.29-1.18c.63-2.21,2.66-11-5.34-9.37,0,0,.38-4.1,5.18-4.1Z"/><circle class="cls-7" cx="1009" cy="1169.63" r="1.15"/><circle class="cls-13" cx="1009" cy="1169.63" r="0.6"/><polygon class="cls-7" points="1002.71 1198.83 1003.42 1217.24 1002.71 1217.24 1001.74 1199.34 1002.71 1198.83"/><polygon class="cls-7" points="999.06 1200.37 996.88 1217.24 995.76 1217.24 998.3 1200.58 999.06 1200.37"/><path class="cls-7" d="M1013.42,1215.6v.31a1.34,1.34,0,0,1-1.34,1.34H0v-3H1012.08A1.34,1.34,0,0,1,1013.42,1215.6Z"/></svg>