<svg id="Laag_1" data-name="Laag 1" xmlns="http://www.w3.org/2000/svg" viewBox="0 0 1366 323"><defs><style>.cls-1{fill:#bacfe4;}.cls-2{fill:#8db573;}.cls-3{fill:#71a350;}.cls-4{fill:#05529d;}.cls-5{fill:#e8eff6;}</style></defs><title>banner-parana</title><rect class="cls-1" width="1366" height="323"/><path class="cls-2" d="M1366.24,220.17H.24s217-104.49,384-121.24,216-25.53,250-36.7l1-.33a152.9,152.9,0,0,1,96,0l1,.33c34,11.17,83,20,250,36.7S1366.24,220.17,1366.24,220.17Z"/><path class="cls-3" d="M1366.24,220.17v102H.24v-102l2.19-1C25.55,208.69,227,119,384.24,103.83c167-16.07,216-24.5,250-35.21l1-.32a159.11,159.11,0,0,1,96,0l1,.32c34,10.71,83,19.14,250,35.21,157.2,15.14,358.69,104.86,381.81,115.34Z"/><path class="cls-4" d="M0,229.55V323H1366V229.55s-338.35,19.24-675.17,0S0,229.55,0,229.55Z"/><rect class="cls-5" x="575.84" y="121.75" width="38.83" height="5.16"/><path class="cls-5" d="M575.84,113.62v8.12h38.83v-8.12Zm6.63,5.33H580v-3.82h2.44Zm3,0h-2.07v-3.82h2.07Zm9.24,0h-2.37v-3.82h2.37Zm3.13,0h-2.21v-3.82h2.21Zm9.17,0h-2.44v-3.82H607Zm3.52,0H608v-3.82h2.52Z"/><rect class="cls-5" x="575.84" y="112.07" width="38.83" height="1.55"/><rect class="cls-5" x="575.84" y="108.86" width="4.49" height="3.21"/><rect class="cls-5" x="609.94" y="108.86" width="4.73" height="3.21"/><rect class="cls-5" x="576.68" y="93.18" width="2.74" height="15.68"/><rect class="cls-5" x="575.84" y="85.38" width="38.83" height="7.8"/><rect class="cls-5" x="610.97" y="93.18" width="2.83" height="15.68"/><rect class="cls-5" x="575.84" y="82.04" width="4.49" height="3.34"/><rect class="cls-5" x="609.94" y="82.04" width="4.37" height="3.34"/><rect class="cls-5" x="610.97" y="77.84" width="2.83" height="4.2"/><rect class="cls-5" x="576.68" y="77.84" width="2.74" height="4.2"/><rect class="cls-5" x="575.84" y="74.75" width="38.83" height="3.09"/><rect class="cls-5" x="576.25" y="73.29" width="37.55" height="1.46"/><rect class="cls-5" x="575.84" y="71.24" width="38.83" height="2.06"/><rect class="cls-5" x="589.62" y="69.52" width="11.49" height="1.71"/><rect class="cls-5" x="590.4" y="67.12" width="9.86" height="2.4"/><rect class="cls-5" x="592.88" y="65.32" width="4.54" height="1.8"/><rect class="cls-5" x="751.12" y="121.69" width="38.83" height="5.16"/><path class="cls-5" d="M751.13,113.56v8.13H790v-8.13Zm6.63,5.33h-2.45v-3.82h2.45Zm3,0h-2.06v-3.82h2.06Zm9.25,0h-2.37v-3.82H770Zm3.13,0H770.9v-3.82h2.22Zm9.17,0h-2.45v-3.82h2.45Zm3.51,0h-2.52v-3.82h2.52Z"/><rect class="cls-5" x="751.12" y="112.01" width="38.83" height="1.55"/><rect class="cls-5" x="751.12" y="108.8" width="4.49" height="3.21"/><rect class="cls-5" x="785.22" y="108.8" width="4.73" height="3.21"/><rect class="cls-5" x="751.96" y="93.12" width="2.74" height="15.68"/><rect class="cls-5" x="751.12" y="85.32" width="38.83" height="7.8"/><rect class="cls-5" x="786.25" y="93.12" width="2.83" height="15.68"/><rect class="cls-5" x="751.12" y="81.98" width="4.49" height="3.34"/><rect class="cls-5" x="785.22" y="81.98" width="4.37" height="3.34"/><rect class="cls-5" x="786.25" y="77.78" width="2.83" height="4.2"/><rect class="cls-5" x="751.96" y="77.78" width="2.74" height="4.2"/><rect class="cls-5" x="751.12" y="74.69" width="38.83" height="3.09"/><rect class="cls-5" x="751.53" y="73.23" width="37.55" height="1.46"/><rect class="cls-5" x="751.12" y="71.18" width="38.83" height="2.06"/><rect class="cls-5" x="764.91" y="69.46" width="11.49" height="1.71"/><rect class="cls-5" x="765.68" y="67.06" width="9.86" height="2.4"/><rect class="cls-5" x="768.17" y="65.26" width="4.54" height="1.8"/><rect class="cls-5" x="614.67" y="115.48" width="136.45" height="11.57"/><polygon class="cls-5" points="796.21 127.05 751.13 127.05 751.13 121.41 796.21 127.05 796.21 127.05"/><polygon class="cls-5" points="569.79 127.05 614.88 127.05 614.88 121.61 569.79 127.05 569.79 127.05"/><rect class="cls-5" x="614.88" y="113.22" width="3.42" height="2.62"/><rect class="cls-5" x="615.86" y="97.9" width="1.5" height="15.32"/><rect class="cls-5" x="615.35" y="96.13" width="2.49" height="1.77"/><rect class="cls-5" x="614.67" y="94.51" width="3.87" height="1.62"/><rect class="cls-5" x="622.74" y="113.22" width="3.42" height="2.62"/><rect class="cls-5" x="623.72" y="97.9" width="1.5" height="15.32"/><rect class="cls-5" x="623.22" y="96.13" width="2.49" height="1.77"/><rect class="cls-5" x="622.54" y="94.51" width="3.87" height="1.62"/><rect class="cls-5" x="630.97" y="113.22" width="3.42" height="2.62"/><rect class="cls-5" x="631.95" y="97.9" width="1.5" height="15.32"/><rect class="cls-5" x="631.45" y="96.13" width="2.49" height="1.77"/><rect class="cls-5" x="630.77" y="94.51" width="3.87" height="1.62"/><rect class="cls-5" x="638.99" y="113.22" width="3.42" height="2.62"/><rect class="cls-5" x="639.97" y="97.9" width="1.5" height="15.32"/><rect class="cls-5" x="639.47" y="96.13" width="2.49" height="1.77"/><rect class="cls-5" x="638.79" y="94.51" width="3.87" height="1.62"/><rect class="cls-5" x="647.12" y="113.22" width="3.42" height="2.62"/><rect class="cls-5" x="648.1" y="97.9" width="1.5" height="15.32"/><rect class="cls-5" x="647.6" y="96.13" width="2.49" height="1.77"/><rect class="cls-5" x="646.92" y="94.51" width="3.87" height="1.62"/><rect class="cls-5" x="655.09" y="113.22" width="3.42" height="2.62"/><rect class="cls-5" x="656.07" y="97.9" width="1.5" height="15.32"/><rect class="cls-5" x="655.56" y="96.13" width="2.49" height="1.77"/><rect class="cls-5" x="654.89" y="94.51" width="3.87" height="1.62"/><rect class="cls-5" x="707.25" y="113.22" width="3.42" height="2.62"/><rect class="cls-5" x="708.23" y="97.9" width="1.5" height="15.32"/><rect class="cls-5" x="707.73" y="96.13" width="2.49" height="1.77"/><rect class="cls-5" x="707.05" y="94.51" width="3.87" height="1.62"/><rect class="cls-5" x="715.12" y="113.22" width="3.42" height="2.62"/><rect class="cls-5" x="716.1" y="97.9" width="1.5" height="15.32"/><rect class="cls-5" x="715.59" y="96.13" width="2.49" height="1.77"/><rect class="cls-5" x="714.92" y="94.51" width="3.87" height="1.62"/><rect class="cls-5" x="723.35" y="113.22" width="3.42" height="2.62"/><rect class="cls-5" x="724.33" y="97.9" width="1.5" height="15.32"/><rect class="cls-5" x="723.82" y="96.13" width="2.49" height="1.77"/><rect class="cls-5" x="723.15" y="94.51" width="3.87" height="1.62"/><rect class="cls-5" x="731.37" y="113.22" width="3.42" height="2.62"/><rect class="cls-5" x="732.35" y="97.9" width="1.5" height="15.32"/><rect class="cls-5" x="731.84" y="96.13" width="2.49" height="1.77"/><rect class="cls-5" x="731.17" y="94.51" width="3.87" height="1.62"/><rect class="cls-5" x="739.49" y="113.22" width="3.42" height="2.62"/><rect class="cls-5" x="740.47" y="97.9" width="1.5" height="15.32"/><rect class="cls-5" x="739.97" y="96.13" width="2.49" height="1.77"/><rect class="cls-5" x="739.29" y="94.51" width="3.87" height="1.62"/><rect class="cls-5" x="747.46" y="113.22" width="3.42" height="2.62"/><rect class="cls-5" x="748.44" y="97.9" width="1.5" height="15.32"/><rect class="cls-5" x="747.94" y="96.13" width="2.49" height="1.77"/><rect class="cls-5" x="747.26" y="94.51" width="3.87" height="1.62"/><rect class="cls-5" x="660.87" y="112.78" width="4.66" height="3.06"/><rect class="cls-5" x="662.45" y="93.12" width="1.79" height="19.66"/><rect class="cls-5" x="661.78" y="91.14" width="3.11" height="1.98"/><rect class="cls-5" x="661.17" y="89.53" width="4.36" height="1.61"/><rect class="cls-5" x="669.03" y="113.05" width="4.66" height="3.06"/><rect class="cls-5" x="670.62" y="93.39" width="1.79" height="19.66"/><rect class="cls-5" x="669.95" y="91.41" width="3.11" height="1.98"/><rect class="cls-5" x="669.34" y="89.8" width="4.36" height="1.61"/><rect class="cls-5" x="677.13" y="113.05" width="4.66" height="3.06"/><rect class="cls-5" x="678.72" y="93.39" width="1.79" height="19.66"/><rect class="cls-5" x="678.05" y="91.41" width="3.11" height="1.98"/><rect class="cls-5" x="677.43" y="89.8" width="4.36" height="1.61"/><rect class="cls-5" x="684.55" y="113.05" width="4.66" height="3.06"/><rect class="cls-5" x="686.14" y="93.39" width="1.79" height="19.66"/><rect class="cls-5" x="685.47" y="91.41" width="3.11" height="1.98"/><rect class="cls-5" x="684.85" y="89.8" width="4.36" height="1.61"/><rect class="cls-5" x="692.53" y="113.05" width="4.66" height="3.06"/><rect class="cls-5" x="694.12" y="93.39" width="1.79" height="19.66"/><rect class="cls-5" x="693.45" y="91.41" width="3.11" height="1.98"/><rect class="cls-5" x="692.84" y="89.8" width="4.36" height="1.61"/><rect class="cls-5" x="699.79" y="113.05" width="4.66" height="3.06"/><rect class="cls-5" x="701.38" y="93.39" width="1.79" height="19.66"/><rect class="cls-5" x="700.71" y="91.41" width="3.11" height="1.98"/><rect class="cls-5" x="700.09" y="89.8" width="4.36" height="1.61"/><rect class="cls-5" x="614.31" y="78.69" width="137.22" height="5.4"/><rect class="cls-5" x="661.47" y="76.29" width="43.48" height="2.4"/><rect class="cls-5" x="659.97" y="74.02" width="46.58" height="2.27"/><rect class="cls-5" x="661.47" y="71.24" width="43.48" height="2.79"/><rect class="cls-5" x="659.97" y="69.11" width="46.58" height="2.13"/><rect class="cls-5" x="661.47" y="66.11" width="43.48" height="3"/><rect class="cls-5" x="668.71" y="64.05" width="29.34" height="2.06"/><rect class="cls-5" x="672.41" y="53.13" width="22.46" height="10.91"/><rect class="cls-5" x="671.37" y="51.22" width="24.54" height="1.91"/><rect class="cls-5" x="672.41" y="46.95" width="22.46" height="4.27"/><rect class="cls-5" x="670.62" y="44.47" width="25.94" height="2.47"/><path class="cls-5" d="M681.15,27.15s-8.74,6.62-8.74,17.32H695s-.4-11.63-8.87-17.32Z"/><rect class="cls-5" x="680.92" y="24.45" width="5.21" height="2.7"/><rect class="cls-5" x="681.94" y="22.08" width="2.92" height="2.36"/><rect class="cls-5" x="680.79" y="20.28" width="5.21" height="1.8"/><rect class="cls-5" x="683.05" y="5.36" width="0.96" height="11.9"/><rect class="cls-5" x="646.92" y="116.11" width="71.86" height="1.58"/><rect class="cls-5" x="647.6" y="121.41" width="70.49" height="5.5"/><rect class="cls-5" x="646.57" y="119.84" width="72.56" height="1.57"/><rect class="cls-5" x="647.6" y="117.68" width="70.49" height="2.16"/><rect class="cls-5" x="588.81" y="93.18" width="2.03" height="15.68"/><rect class="cls-5" x="588.28" y="108.86" width="3.21" height="3.21"/><rect class="cls-5" x="599.31" y="108.86" width="2.96" height="3.33"/><rect class="cls-5" x="599.89" y="93.18" width="1.86" height="15.68"/><rect class="cls-5" x="764.29" y="93.12" width="1.97" height="15.68"/><rect class="cls-5" x="763.83" y="108.71" width="2.9" height="3.3"/><rect class="cls-5" x="774.45" y="108.8" width="3.21" height="3.21"/><rect class="cls-5" x="775.15" y="93.12" width="1.92" height="15.68"/><rect class="cls-5" x="588.5" y="82.04" width="2.72" height="3.34"/><rect class="cls-5" x="588.81" y="77.84" width="2.03" height="4.2"/><rect class="cls-5" x="599.31" y="82.04" width="2.96" height="3.34"/><rect class="cls-5" x="599.89" y="77.84" width="1.86" height="4.56"/><rect class="cls-5" x="763.83" y="82.29" width="2.68" height="3.04"/><rect class="cls-5" x="764.29" y="77.78" width="1.72" height="4.51"/><rect class="cls-5" x="774.75" y="82.29" width="3.1" height="3.1"/><rect class="cls-5" x="775.15" y="77.78" width="2.18" height="4.51"/><path class="cls-5" d="M681.81,20.28a10.76,10.76,0,0,1,1.24-3h1a8.33,8.33,0,0,1,1,3Z"/><rect class="cls-5" x="614.67" y="89.28" width="47.78" height="5.5"/><rect class="cls-5" x="702.85" y="89.8" width="49.44" height="4.98"/><rect class="cls-5" x="661.17" y="84.09" width="43.78" height="5.71"/><polygon class="cls-5" points="661.17 84.09 661.17 89.28 614.31 89.28 614.31 84.09 617.63 84.09 617.63 87.63 620.09 87.63 620.09 84.09 621.47 84.09 621.47 87.63 623.72 87.63 623.72 84.09 627.02 84.09 627.02 87.63 629.49 87.63 629.49 84.09 630.16 84.09 630.16 87.63 633.01 87.63 633.01 84.09 635.66 84.09 635.66 87.63 638.56 87.63 638.56 84.09 639.29 84.09 639.29 87.63 642.19 87.63 642.19 84.09 644.5 84.09 644.5 87.63 646.92 87.63 646.92 84.09 648.34 84.09 648.34 87.63 650.78 87.63 650.78 84.09 653.81 84.09 653.81 87.63 656.6 87.63 656.6 84.09 657.25 84.09 657.25 87.63 659.97 87.63 659.97 84.09 661.17 84.09"/><polygon class="cls-5" points="751.53 84.09 751.53 90 704.74 90 704.74 84.09 708.05 84.09 708.05 88.12 710.51 88.12 710.51 84.09 711.88 84.09 711.88 88.12 714.13 88.12 714.13 84.09 717.43 84.09 717.43 88.12 719.9 88.12 719.9 84.09 720.56 84.09 720.56 88.12 723.41 88.12 723.41 84.09 726.06 84.09 726.06 88.12 728.96 88.12 728.96 84.09 729.68 84.09 729.68 88.12 732.58 88.12 732.58 84.09 734.88 84.09 734.88 88.12 737.3 88.12 737.3 84.09 738.72 84.09 738.72 88.12 741.16 88.12 741.16 84.09 744.18 84.09 744.18 88.12 746.97 88.12 746.97 84.09 747.62 84.09 747.62 88.12 750.34 88.12 750.34 84.09 751.53 84.09"/><path d="M451.47,175.59v18.33h-12.7V141.66h20.58q9.34,0,14.26,4.62t4.9,12.45a17.13,17.13,0,0,1-2.19,8.69,15.2,15.2,0,0,1-6.5,6,23,23,0,0,1-10.47,2.18Zm14.11-16.86q0-6.87-7.65-6.87h-6.46v13.6h6.46Q465.58,165.46,465.58,158.73Z"/><path d="M508.66,154.3a12.87,12.87,0,0,1,5.05,5.84v-7.47h12.62v41.25H513.71v-7.47a12.87,12.87,0,0,1-5.05,5.84,15.06,15.06,0,0,1-8.17,2.15,16.84,16.84,0,0,1-9.17-2.56,17.47,17.47,0,0,1-6.39-7.35,28.24,28.24,0,0,1,0-22.51,17.51,17.51,0,0,1,6.39-7.32,16.83,16.83,0,0,1,9.17-2.55A15.06,15.06,0,0,1,508.66,154.3ZM498,165.9a12.23,12.23,0,0,0,0,14.79,9.36,9.36,0,0,0,13.15-.08,11.79,11.79,0,0,0,0-14.67,9.41,9.41,0,0,0-13.15,0Z"/><path d="M553.92,154.44a15.77,15.77,0,0,1,8.14-2.21v13.52h-3.64q-5.05,0-7.84,2.15t-2.78,7.24v18.78H535.1V152.67h12.7v7.76A18,18,0,0,1,553.92,154.44Z"/><path d="M591.32,154.3a12.87,12.87,0,0,1,5,5.84v-7.47H609v41.25H596.37v-7.47a12.87,12.87,0,0,1-5,5.84,15.06,15.06,0,0,1-8.17,2.15,16.82,16.82,0,0,1-9.17-2.56,17.47,17.47,0,0,1-6.39-7.35,28.24,28.24,0,0,1,0-22.51A17.51,17.51,0,0,1,574,154.7a16.81,16.81,0,0,1,9.17-2.55A15.06,15.06,0,0,1,591.32,154.3Zm-10.66,11.6a12.23,12.23,0,0,0,0,14.79,9.36,9.36,0,0,0,13.15-.08,11.79,11.79,0,0,0,0-14.67,9.41,9.41,0,0,0-13.15,0Z"/><path d="M655.37,157q4.2,4.72,4.2,13v23.95h-12.7V171.45a9.07,9.07,0,0,0-2.19-6.47,7.64,7.64,0,0,0-5.83-2.33,7.94,7.94,0,0,0-6.13,2.44c-1.51,1.63-2.26,3.94-2.26,6.95v21.88h-12.7V152.67h12.7v7.54a13.62,13.62,0,0,1,5.31-5.84,15.61,15.61,0,0,1,8.28-2.14Q651.17,152.23,655.37,157Z"/><path d="M691.88,154.3a12.93,12.93,0,0,1,5,5.84v-7.47h12.62v41.25H696.93v-7.47a12.93,12.93,0,0,1-5,5.84,15.08,15.08,0,0,1-8.17,2.15,16.87,16.87,0,0,1-9.18-2.56,17.52,17.52,0,0,1-6.38-7.35,28.24,28.24,0,0,1,0-22.51,17.56,17.56,0,0,1,6.38-7.32,16.87,16.87,0,0,1,9.18-2.55A15.08,15.08,0,0,1,691.88,154.3Zm-10.66,11.6a12.23,12.23,0,0,0,0,14.79,9.34,9.34,0,0,0,13.14-.08,11.75,11.75,0,0,0,0-14.67,9.39,9.39,0,0,0-13.14,0Zm17.19-23.8-17.9,7.61v-8.57l17.9-8.58Z"/><path d="M777.1,181.31a23.18,23.18,0,0,1-9.51,9.28A30.39,30.39,0,0,1,753,193.92H733.17V141.66H753a30.94,30.94,0,0,1,14.63,3.25,22.76,22.76,0,0,1,9.47,9.17,29.74,29.74,0,0,1,0,27.23Zm-13.67-2.62q4.13-3.91,4.12-11t-4.12-11q-4.12-3.91-11.55-3.92h-6v29.87h6Q759.31,182.61,763.43,178.69Z"/><path d="M826.6,175.59H797.85q.23,4.65,2.38,6.69a7.72,7.72,0,0,0,5.5,2,7.53,7.53,0,0,0,4.68-1.41,6.58,6.58,0,0,0,2.45-3.62H826.3a17.52,17.52,0,0,1-3.57,7.8,19,19,0,0,1-7,5.4,23.9,23.9,0,0,1-20.24-.6,18.34,18.34,0,0,1-7.39-7.35,25.18,25.18,0,0,1,0-22.51,18,18,0,0,1,7.39-7.32,24.44,24.44,0,0,1,21.68,0,17.8,17.8,0,0,1,7.25,7.06A21,21,0,0,1,827,172.19,18.05,18.05,0,0,1,826.6,175.59Zm-14.67-11.42a8.07,8.07,0,0,0-5.61-2,8.32,8.32,0,0,0-5.79,2.07,8.63,8.63,0,0,0-2.6,6.06h16.19Q814.2,166.2,811.93,164.17Z"/><path d="M846.28,139.22v54.7h-12.7v-54.7Z"/><path d="M878.51,183.05v10.87h-5.72q-7.27,0-11.33-3.59t-4-11.86V163.32h-5.57V152.67h5.57V142.54h12.69v10.13h8.32v10.65h-8.32v15.37a4.6,4.6,0,0,0,1,3.4,4.81,4.81,0,0,0,3.38,1Z"/><path d="M909.55,154.3a12.87,12.87,0,0,1,5.05,5.84v-7.47h12.63v41.25H914.6v-7.47a12.87,12.87,0,0,1-5.05,5.84,15.06,15.06,0,0,1-8.17,2.15,16.84,16.84,0,0,1-9.17-2.56,17.47,17.47,0,0,1-6.39-7.35,28.24,28.24,0,0,1,0-22.51,17.51,17.51,0,0,1,6.39-7.32,16.83,16.83,0,0,1,9.17-2.55A15.06,15.06,0,0,1,909.55,154.3Zm-10.66,11.6a10.4,10.4,0,0,0-2.48,7.39c0,3.16.82,5.62,2.48,7.4a9.36,9.36,0,0,0,13.15-.08,11.79,11.79,0,0,0,0-14.67,9.41,9.41,0,0,0-13.15,0Z"/></svg>