<svg id="Laag_1" data-name="Laag 1" xmlns="http://www.w3.org/2000/svg" viewBox="0 0 1366 323"><defs><style>.cls-1{fill:#bacfe4;}.cls-2{fill:#71a350;}.cls-3{fill:#8db573;}.cls-4{fill:#e8eff6;}.cls-5{fill:#8dafd2;}.cls-6{fill:#05529d;}</style></defs><title>banner</title><rect class="cls-1" width="1366" height="323"/><path class="cls-2" d="M0,220H2.19L0,221Z"/><path class="cls-2" d="M1366,220v1l-2.19-1Z"/><path class="cls-3" d="M1366,221H0S217,116.51,384,99.76s216-25.54,250-36.7l1-.34a153.07,153.07,0,0,1,96,0l1,.34c34,11.16,83,20,250,36.7S1366,221,1366,221Z"/><path class="cls-2" d="M1366,221V323H0V221l2.19-1C25.31,209.52,226.8,119.8,384,104.66c167-16.07,216-24.5,250-35.21l1-.32a159.11,159.11,0,0,1,96,0l1,.32c34,10.71,83,19.14,250,35.21C1139.2,119.8,1340.69,209.52,1363.81,220Z"/><rect class="cls-4" x="673.79" y="21.01" width="18.53" height="10.29"/><path class="cls-4" d="M698.49,64.46V61.25H697V51h1.53V46.89H667.32V51h1.94l0,10.24h-1.89v3.21h-2.83v4.88h36.94V64.46ZM674.66,51h17.22V61.25H674.61Z"/><path class="cls-4" d="M708.79,124.44v-6.33H706.1V102h2.69V95.9H657.33V102h2.8v16.09h-2.8v6.33h-4.88v9.12H674v-9.12h4.77v9.12h34.34v-9.12ZM668,118.11V102H697.9v16.09Z"/><polygon class="cls-4" points="648.72 124.44 648.72 133.57 637.3 133.57 637.3 124.44 640.31 124.44 640.31 95.9 645.4 95.9 645.4 124.44 648.72 124.44"/><polygon class="cls-4" points="729.13 124.44 729.13 133.57 717.2 133.57 717.2 124.44 721.14 124.44 721.14 95.9 725.71 95.9 725.71 124.44 729.13 124.44"/><path class="cls-5" d="M676.42,12H689.3s5.13,5.44,16,3.73c0,0-.94,3.72-5.91,5.28H667.32A15.09,15.09,0,0,1,661,15.58S670.85,17.13,676.42,12Z"/><path class="cls-5" d="M672,31.31h22.46s4.36,8.22,25.36,7.59c0,0-3.31,7.58-11,8H656.17S648,44.35,645.4,38.28C645.4,38.28,664.42,40.19,672,31.31Z"/><path class="cls-5" d="M622,81.52s32.36.84,42.53-12.18h36.94S707.18,80.76,744,81.53c0,0-3.39,10.1-18.33,14.37H639.07S624.76,90.69,622,81.52Z"/><path d="M467.8,145.46l-18.27,35.21V198.2H436.7V180.67l-18.28-35.21H433l10.15,21.48,10.14-21.48Z"/><path d="M496.74,158.22a13,13,0,0,1,5.08,5.89v-7.53H514.5V198.2H501.82v-7.54a13,13,0,0,1-5.08,5.9,15.06,15.06,0,0,1-8.2,2.16,16.9,16.9,0,0,1-9.21-2.57,17.68,17.68,0,0,1-6.42-7.42,28.63,28.63,0,0,1,0-22.72,17.62,17.62,0,0,1,6.42-7.38,16.82,16.82,0,0,1,9.21-2.58A15.06,15.06,0,0,1,496.74,158.22ZM486,169.93q-2.51,2.69-2.5,7.46t2.5,7.46a9.37,9.37,0,0,0,13.2-.08,11.9,11.9,0,0,0,0-14.8,9.39,9.39,0,0,0-13.2,0Z"/><path d="M561.08,160.9q4.21,4.78,4.21,13.13V198.2H552.54V175.52a9.14,9.14,0,0,0-2.2-6.52,7.64,7.64,0,0,0-5.86-2.35,8,8,0,0,0-6.15,2.46q-2.28,2.46-2.28,7V198.2H523.3V156.58h12.75v7.6a13.82,13.82,0,0,1,5.34-5.89,15.65,15.65,0,0,1,8.32-2.16Q556.87,156.13,561.08,160.9Z"/><path d="M597.74,158.22a12.93,12.93,0,0,1,5.07,5.89v-7.53H615.5V198a24,24,0,0,1-2.24,10.49,17.2,17.2,0,0,1-6.86,7.42,22.12,22.12,0,0,1-11.49,2.76q-9.4,0-15-4.44a18,18,0,0,1-6.75-12h12.6a6.36,6.36,0,0,0,2.73,4,9.86,9.86,0,0,0,5.55,1.41,9,9,0,0,0,6.38-2.27c1.62-1.52,2.42-3.94,2.42-7.28v-7.31a13,13,0,0,1-5.07,5.9,15.08,15.08,0,0,1-8.2,2.16,16.93,16.93,0,0,1-9.22-2.57,17.66,17.66,0,0,1-6.41-7.42,28.63,28.63,0,0,1,0-22.72,17.6,17.6,0,0,1,6.41-7.38,16.85,16.85,0,0,1,9.22-2.58A15.08,15.08,0,0,1,597.74,158.22ZM587,169.93q-2.5,2.69-2.5,7.46t2.5,7.46a9.37,9.37,0,0,0,13.2-.08,11.94,11.94,0,0,0,0-14.8,9.39,9.39,0,0,0-13.2,0Z"/><path d="M647.87,187.23v11h-5.75q-7.3,0-11.37-3.62t-4.07-12V167.32h-5.59V156.58h5.59V146.36h12.76v10.22h8.35v10.74h-8.35v15.51a4.63,4.63,0,0,0,1,3.43,4.79,4.79,0,0,0,3.39,1Z"/><path d="M666.29,187.53h19.25V198.2h-33.2V188.13l17.91-21H652.64V156.58h32.15v10.07Z"/><path d="M730.74,179.7H701.87q.23,4.7,2.39,6.75a7.68,7.68,0,0,0,5.52,2.05,7.53,7.53,0,0,0,4.7-1.42,6.62,6.62,0,0,0,2.46-3.65h13.5a17.68,17.68,0,0,1-3.58,7.87,19,19,0,0,1-7,5.44,22.18,22.18,0,0,1-9.47,2,22.46,22.46,0,0,1-10.86-2.57,18.4,18.4,0,0,1-7.42-7.42,23.07,23.07,0,0,1-2.68-11.34A23.31,23.31,0,0,1,692.06,166a18.13,18.13,0,0,1,7.42-7.38,24.46,24.46,0,0,1,21.79,0,18,18,0,0,1,7.27,7.12,21.28,21.28,0,0,1,2.57,10.56A17.47,17.47,0,0,1,730.74,179.7ZM716,168.17a8.15,8.15,0,0,0-5.63-2,8.36,8.36,0,0,0-5.82,2.09,8.73,8.73,0,0,0-2.61,6.12h16.26C718.26,171.59,717.52,169.54,716,168.17Z"/><path d="M796.79,185.48a23.28,23.28,0,0,1-9.55,9.36,30.41,30.41,0,0,1-14.65,3.36H752.67V145.46h19.92a31.07,31.07,0,0,1,14.69,3.28,22.93,22.93,0,0,1,9.51,9.25,30.11,30.11,0,0,1,0,27.49Zm-13.72-2.65q4.14-3.95,4.14-11.11t-4.14-11.12q-4.14-3.94-11.6-3.95h-6.05v30.14h6.05Q778.93,186.79,783.07,182.83Z"/><path d="M846.51,179.7H817.64c.15,3.13.94,5.38,2.39,6.75a7.68,7.68,0,0,0,5.52,2.05,7.5,7.5,0,0,0,4.69-1.42,6.59,6.59,0,0,0,2.47-3.65h13.5a17.68,17.68,0,0,1-3.58,7.87,19,19,0,0,1-7,5.44,24,24,0,0,1-20.33-.59,18.4,18.4,0,0,1-7.42-7.42,25.5,25.5,0,0,1,0-22.72,18.07,18.07,0,0,1,7.42-7.38,24.44,24.44,0,0,1,21.78,0,18,18,0,0,1,7.28,7.12,21.28,21.28,0,0,1,2.57,10.56A18.27,18.27,0,0,1,846.51,179.7Zm-14.74-11.53a8.11,8.11,0,0,0-5.63-2,8.36,8.36,0,0,0-5.82,2.09,8.77,8.77,0,0,0-2.61,6.12H834Q834,170.22,831.77,168.17Z"/><path d="M866.27,143v55.2H853.52V143Z"/><path d="M898.64,187.23v11H892.9c-4.87,0-8.67-1.21-11.37-3.62s-4.07-6.4-4.07-12V167.32h-5.59V156.58h5.59V146.36h12.76v10.22h8.35v10.74h-8.35v15.51a4.67,4.67,0,0,0,1,3.43,4.8,4.8,0,0,0,3.4,1Z"/><path d="M929.82,158.22a13,13,0,0,1,5.08,5.89v-7.53h12.68V198.2H934.9v-7.54a13,13,0,0,1-5.08,5.9,15.06,15.06,0,0,1-8.2,2.16,16.9,16.9,0,0,1-9.21-2.57,17.68,17.68,0,0,1-6.42-7.42A28.63,28.63,0,0,1,906,166a17.62,17.62,0,0,1,6.42-7.38,16.82,16.82,0,0,1,9.21-2.58A15.06,15.06,0,0,1,929.82,158.22Zm-10.7,11.71q-2.5,2.69-2.5,7.46t2.5,7.46a9.37,9.37,0,0,0,13.2-.08,11.9,11.9,0,0,0,0-14.8,9.39,9.39,0,0,0-13.2,0Z"/><path class="cls-6" d="M0,229.55V323H1366V229.55s-338.35,19.24-675.17,0S0,229.55,0,229.55Z"/></svg>