<svg xmlns="http://www.w3.org/2000/svg" viewBox="0 0 159.58 159.58"><defs><style>.cls-1{fill:#e8eff7;}.cls-2{fill:#4a6eb0;}.cls-3{fill:#08539d;}</style></defs><title>delta-icon</title><g id="Laag_2" data-name="Laag 2"><g id="delta"><path class="cls-1" d="M80.79,159.57H79.35A79.73,79.73,0,0,1,.43,88.14,82.18,82.18,0,0,1,0,79.79c0-.31,0-.63,0-.94A79.19,79.19,0,0,1,6.86,47.39l.76-1.66a79.44,79.44,0,0,1,5.74-10.14c.59-.9,1.21-1.78,1.84-2.65l.2-.27c.55-.75,1.11-1.5,1.69-2.22a33.88,33.88,0,0,0,2,6.69,1,1,0,0,0,.06.18A37.27,37.27,0,0,0,41.07,57.75c7.6,2.59,15.34,9.72,20.79,15.66l.13.13c2.75,3,5.1,5.69,6.34,7.3,1.9,2.75,3.06,5,3.65,5.59.37.34.81.87,1.2,1.28,1.13,1.22,2.5,2.22,2.94,3.83a5.07,5.07,0,0,1,.18,2.31,51.39,51.39,0,0,1-3,10.82,55.4,55.4,0,0,0-2.46,7.86,25.55,25.55,0,0,0,1.32,15,22.2,22.2,0,0,0,4.32,6.89,29.88,29.88,0,0,0,2.66,2.53c1.11,1,1.14,2.81.11,4.56-.08.14-.17.27-.26.4-.31.47-.7,1-1.16,1.61a6.36,6.36,0,0,0-1.22,2.78c-.74,4,2.07,8.2,2.07,8.2A13,13,0,0,1,80.79,159.57Z"/><path class="cls-1" d="M98.12,157.46l-1.55.35a79.87,79.87,0,0,1-10.35,1.51c-.12-.09-.23-.19-.34-.29-.42-2.72-1-5.16-1.73-6.31a14.2,14.2,0,0,1-1.65-3.92,5.55,5.55,0,0,1-.13-1.79v0a.06.06,0,0,1,0,0,2.78,2.78,0,0,1,.05-.39v0c0-.14,0-.29.08-.44s0-.2.07-.3a2.25,2.25,0,0,1,0-.22s0-.11.05-.16c.06-.21.13-.41.21-.62s.13-.33.2-.49l.18-.37c0-.12.12-.23.18-.35s0,0,0,0,.12-.22.19-.32.21-.34.32-.5.31-.44.48-.65l.1-.11c.14-.18.27-.36.39-.55s.21-.33.31-.51a6.27,6.27,0,0,0,.29-.58,4.77,4.77,0,0,0,.22-.52,1.67,1.67,0,0,0,.08-.2c1-2.65.65-5.14-.73-6.73A53.07,53.07,0,0,0,81,128.45l-.09-.09c-2.86-2.75-4.35-6.78-4.15-11.5l0-.63c0-.64.09-1.3.18-2l.06-.49a.09.09,0,0,0,0-.05c0-.16,0-.32.08-.49l.09-.56c0-.16.06-.32.1-.47s0-.24.07-.35,0-.23.08-.35.11-.47.18-.7a20.6,20.6,0,0,1,1-2.77c.1-.23.2-.46.31-.68s.22-.45.34-.67.24-.44.37-.66h0l.24-.4c.14-.22.28-.44.43-.65,0,0,1.38,3.81,8,2.24,5.68-1.36,5.41,9.49,5.22,12.49,0,.83-.06,1.64-.06,2.45,0,2.75.24,8,1.56,9.82a4.72,4.72,0,0,1,.75,2.78c0,.2,0,.4,0,.59a5.61,5.61,0,0,1-.06.59c0,.2-.06.41-.09.61s-.06.35-.1.52h0c-.05.24-.11.47-.16.69s-.11.43-.17.62A29.15,29.15,0,0,0,94,143.83s0,0,0,.07v0c0,.37-.06.76-.08,1.16s0,.76,0,1.15v.05c0,.32,0,.64,0,1s0,.62.06.93v0c0,.31.06.62.11.93v0c0,.22.07.43.12.65a2.74,2.74,0,0,0,0,.28c.07.35.16.7.26,1l.1.31c0,.15.1.29.16.43s.23.56.36.83.29.52.45.77Q97.12,155.85,98.12,157.46Z"/><path class="cls-1" d="M82.7,94.47c.72-4.83,3.16-8.27-3-13.59-.21-.18-.44-.36-.68-.55l-.92-.73a8.42,8.42,0,0,0,1.19.43c.27.08.59.18,1,.27a28.94,28.94,0,0,0,11.63.26,9.13,9.13,0,0,1,8.61,2.8,12.38,12.38,0,0,1,3,6.26c.38,2,1.13,5.08,2.2,6.2.1.1,0,.33-.16.4-1.37.58-5.72,2.24-8.75,1.38C94.86,97,92.21,98,90.17,99c-3.31,1.58-6.48.87-7.32-1.83A5.74,5.74,0,0,1,82.7,94.47Z"/><path class="cls-1" d="M118.56,149.54l-.81.44h0a78.3,78.3,0,0,1-13,5.61,6.83,6.83,0,0,0-2.51-1.78,5,5,0,0,1-1.54-.8,6.22,6.22,0,0,1-1.37-2.25,30.89,30.89,0,0,1-1.23-4,8.82,8.82,0,0,1-.16-2.65h0c0-.24,0-.51,0-.79,0-.13,0-.28,0-.43l0-.24c0-.14,0-.28,0-.42s0-.33.07-.5.08-.52.13-.8a.3.3,0,0,0,0-.1c.06-.3.13-.62.2-1s.1-.45.16-.68c.23-.93.51-1.95.88-3.06,0,0,4.92,5.59,8.24,5.85s5,.45,6.32,1.51,3.78,5.05,3.78,5.05S118.14,149,118.56,149.54Z"/><path class="cls-1" d="M126.52,144.47c-.72.52-1.45,1-2.19,1.52-.29.21-.59.4-.89.6l-.27-.37a.76.76,0,0,1-.08-.11q-.24-.31-.51-.63l-.08-.09c-.2-.24-.42-.48-.64-.72C123.29,143.26,124.89,144.12,126.52,144.47Z"/><path class="cls-1" d="M139.57,132.64c-.28.32-.56.63-.85.94a79.19,79.19,0,0,1-9.48,8.83c-5.09-3.6-11.28-1.11-11.28-1.11v0c-3.39-1.25-6.64-1.86-10.2-5-1.58-1.42-4.92-2.1-7-5.62a17.77,17.77,0,0,1-2.67-10.55,1,1,0,0,0,0-.17v0h0c0-.16,0-.32,0-.47s0-.2,0-.3c0-.38.11-.69.16-.94h0c.09-.36.15-.56.15-.56s.07-1.06,0-2.58c0-.16,0-.32,0-.48s0-.53,0-.81l-.06-.63a5.62,5.62,0,0,0-.06-.56c0-.13,0-.26,0-.4q-.08-.57-.18-1.14a1.59,1.59,0,0,0-.06-.3v0c-.08-.4-.17-.79-.28-1.16,0-.12-.07-.25-.11-.37s-.11-.36-.18-.53a2.08,2.08,0,0,0-.12-.32l-.06-.15a1.51,1.51,0,0,0-.12-.26,6.08,6.08,0,0,0-.64-1.15,3.79,3.79,0,0,0-.3-.4c-.06-.08-.13-.15-.19-.22a1.85,1.85,0,0,0-.14-.14,3.88,3.88,0,0,0-1.12-.78s1.25-1.24,6.68-1.14A21.2,21.2,0,0,0,106.6,103s.78,14.87,3.17,18.22,3.86,8.54,10.88,9a37.67,37.67,0,0,0,5.92-.59,4.52,4.52,0,0,1,3.36.7,4.49,4.49,0,0,0,2.57,1c.47,0,1.29-.07,2.21-.09A9.53,9.53,0,0,1,139.57,132.64Z"/><path class="cls-1" d="M141.86,125.39l1.61,2.48c-.14.19-.28.38-.43.56a2.42,2.42,0,0,0-.57-.58c-1.24-.86-4.64-.68-6.84-.43a2.67,2.67,0,0,1-2.5-.87,3.39,3.39,0,0,0-2.8-1,48.46,48.46,0,0,0-5,.32,8.84,8.84,0,0,1-7.2-2,11.23,11.23,0,0,1-3.35-6.88,17.67,17.67,0,0,0-.4-2.12c-.36-1.4-.94-4.66-.82-11.07a9.47,9.47,0,0,1,3.65,3.17,17.43,17.43,0,0,0,3.32,3.38c1.17.87,2.67,2,4.08,3.33a7.67,7.67,0,0,1,1.61,2.62,9,9,0,0,0,3.64,4.79,6.74,6.74,0,0,0,4.39,1.33A9.74,9.74,0,0,1,139,123,6.19,6.19,0,0,1,141.86,125.39Z"/><path class="cls-1" d="M155,106.55l-.05.14a78.2,78.2,0,0,1-6.92,14.5h0l-.19.32a8.3,8.3,0,0,0-.9-1.59,0,0,0,0,0,0,0,9.24,9.24,0,0,0-1-1.24,2.76,2.76,0,0,0-.3-.29,8.08,8.08,0,0,0-1.08-.85c-.14-.08-.27-.17-.41-.24s-.32-.17-.48-.24l-.26-.11a5.05,5.05,0,0,0-.55-.18l-.28-.07-.33,0a4.29,4.29,0,0,0-1.29,0,14.21,14.21,0,0,1-4.17,0l-.26-.05-.17,0-.35-.08a6.88,6.88,0,0,1-1.79-.68l-.25-.16a3.43,3.43,0,0,1-.47-.36,2.76,2.76,0,0,1-.76-1.11,1.55,1.55,0,0,1-.08-.36.07.07,0,0,1,0-.06,1.47,1.47,0,0,1,0-.36,3,3,0,0,1,.05-.58c0-.12,0-.24,0-.37a5.38,5.38,0,0,0-.31-2.19,4.14,4.14,0,0,0-.15-.41,9,9,0,0,0-.74-1.45s0,0,0,0-.18-.29-.28-.43l-.3-.42a14.85,14.85,0,0,0-5.46-4.4l-.42-.19-.42-.17a10.69,10.69,0,0,1-1.79-.87,6.15,6.15,0,0,1-1.2-1,3.69,3.69,0,0,1-.53-.63,0,0,0,0,0,0,0h0a3.59,3.59,0,0,1-.61-1.45,2.08,2.08,0,0,1-.05-.41,2.19,2.19,0,0,1,0-.59,27.55,27.55,0,0,1,12.25-5.54s5.17,1.8,9,.26a12.5,12.5,0,0,1,6.35-1.06l.2.07.14.05.17.08.19.1a4.07,4.07,0,0,1,.43.29l.24.2c.06.06.13.12.19.19a3.37,3.37,0,0,1,.33.39l.19.29a.31.31,0,0,1,0,.1c.07.12.13.24.19.37a3.27,3.27,0,0,1,.18.47c0,.13.07.26.1.39l0,.14c0,.16.06.34.08.52a.55.55,0,0,1,0,.18,5.12,5.12,0,0,1,0,.56,8.68,8.68,0,0,1-.12,1.46,10.25,10.25,0,0,0,.35,4.5,6.76,6.76,0,0,0,.33.89,5.36,5.36,0,0,0,.26.54.72.72,0,0,0,.12.21,3,3,0,0,0,.28.45c0,.07.09.14.14.21s.21.28.32.41.13.16.21.24a3.25,3.25,0,0,0,.26.27,3.08,3.08,0,0,0,.27.25,1.5,1.5,0,0,0,.24.21,4.23,4.23,0,0,0,.42.32,3.19,3.19,0,0,0,.6.38s0,0,0,0A6.36,6.36,0,0,0,155,106.55Z"/><path class="cls-1" d="M158.25,94.34c0,.19-.07.38-.11.57-.39,2.09-.88,4.14-1.44,6.16h0c-.08.3-.16.6-.25.89-1.71-1.68-2.27-4.43-1.3-7.54,0-.15.08-.29.13-.46A12.55,12.55,0,0,0,158.25,94.34Z"/><path class="cls-1" d="M33.78,14.6a79.3,79.3,0,0,1,9.9-6l.3-.15a78.75,78.75,0,0,1,20.49-7l1.31-.25a79.88,79.88,0,0,1,88.89,51c.33.88.64,1.77.92,2.66h0a79.24,79.24,0,0,1,3.05,12.75c0,.27.09.54.13.81v0c.12.82.22,1.64.31,2.47a16.48,16.48,0,0,1-6-.38A16.67,16.67,0,0,1,149,68.89c-5.66-3.25-14.45-2-14.45-2s-12.69,2.29-17.58,3.88a27,27,0,0,1-5.1,1,48.21,48.21,0,0,1-13.45-.19,42.68,42.68,0,0,0-6-.52,15.58,15.58,0,0,1-9.13-3.1l-.08-.08a42,42,0,0,0-4.55-3.45c-4.32-4.85-17.16-17.23-27.42-23a31.73,31.73,0,0,0-3.57-1.7c-.86-.33-1.68-.71-2.46-1.1C34.88,33.48,31.32,23.49,33.78,14.6Z"/><path class="cls-1" d="M159.24,87.11s0,.09,0,.14c-.09.94-.2,1.88-.31,2.8a16.5,16.5,0,0,1-2.1-.24,16.11,16.11,0,0,1-2-.5h-.06c-.28-.09-.55-.19-.82-.3s-.53-.22-.79-.34-.46-.22-.68-.33l-.82-.46-.25-.14h0a4.6,4.6,0,0,0-.7-.3,1.9,1.9,0,0,0-.36-.12,3.17,3.17,0,0,0-.44-.12,3.12,3.12,0,0,0-.44-.09l-.13,0a3.11,3.11,0,0,0-.44-.06,5.41,5.41,0,0,0-.59-.05,16.94,16.94,0,0,0-5.11.63l-.66.18c-.71.21-2.76-.84-7.67-.5-6.76.46-17.26,7.5-18.57,8.46a.34.34,0,0,1-.2,0h0l-.82-.11-.36-.07a4.17,4.17,0,0,1-2.77-1.37,2.9,2.9,0,0,1-.19-.29l-.14-.26c-.07-.15-.12-.3-.18-.46s0-.18-.08-.27-.07-.24-.11-.36a1.09,1.09,0,0,0-.05-.17c-.09-.32-.19-.67-.32-1l-.21-.62,0-.1a17.36,17.36,0,0,1-.52-2.07c0-.23-.09-.47-.12-.71s-.08-.53-.1-.8,0-.39,0-.59,0-.26,0-.39a17,17,0,0,1,.17-3.29,7.33,7.33,0,0,0-.12-3c0-.09-.06-.19-.1-.28l-.07-.18a.31.31,0,0,0,0-.1,2.21,2.21,0,0,0-.37-.55.93.93,0,0,0-.14-.14h0a1,1,0,0,0-.32-.19s6.9-1.58,13.26-3.26a36.17,36.17,0,0,1,13.23-1,12.91,12.91,0,0,0,2.34.14h.52l.62,0,.23,0h.06a4.17,4.17,0,0,1,.63.08h0a5.34,5.34,0,0,1,1.55.52,18.83,18.83,0,0,1,5.63,4.37c2.84,3.39,2.17,5.06,5.73,6.24.31.11.66.22,1,.32l.05,0,.11,0c.76.22,1.63.44,2.55.65l.88.21.88.2Z"/><path class="cls-1" d="M159.58,79.79c0,1.38,0,2.76-.11,4.12l-.26,0-.15,0h0l-.46-.1-.6-.16-.57-.16-1-.33-.63-.26a4.48,4.48,0,0,1-.44-.2l-.12,0c-.36-.18-.68-.36-1-.54l-.34-.22-.36-.25c-.18-.14-.35-.27-.5-.4a4.9,4.9,0,0,1-.47-.43,7.46,7.46,0,0,1-.69-.79,4.11,4.11,0,0,1-.7-1.27,12.36,12.36,0,0,0-2.61-3.21l.95.28.33.09.15,0,.2,0h0l.2,0c.36.09.73.16,1.1.23s.64.11,1,.15l.5.05h.3a21.71,21.71,0,0,0,4.94-.16c.42-.05.84-.12,1.27-.2,0,.13,0,.26,0,.4C159.56,77.56,159.58,78.67,159.58,79.79Z"/><path class="cls-2" d="M159,83.82c-5.63-1.7-6.52-4.92-6.52-4.92a13.78,13.78,0,0,0-2.29-3h0c-.13-.12-.25-.22-.38-.32s.72.24,1.89.54a13.57,13.57,0,0,0,1.44.28h0a21.89,21.89,0,0,0,6.32,0c0-.14,0-.27,0-.4-.07-1.7-.2-3.39-.39-5a14.56,14.56,0,0,1-1.62,0,0,0,0,0,1,0,0h-.06a15.35,15.35,0,0,1-2.92-.48,17.23,17.23,0,0,1-4.27-1.67c-5.82-3.35-14.86-2.1-14.86-2.1h-.07c-1,.18-13.2,2.4-18,4A28.44,28.44,0,0,1,112,71.79a49.39,49.39,0,0,1-13.83-.2A45.1,45.1,0,0,0,92,71.06a16,16,0,0,1-9.39-3.19l-.09-.08a13.35,13.35,0,0,0-1.16-1,75,75,0,0,1-6.87-6.1C68.69,54.85,58.72,45.84,50.27,41l0,0-.59-.33A31.82,31.82,0,0,0,46,38.85a24.41,24.41,0,0,1-2.31-1h0l-.21-.1c-9.19-4.61-13.17-13-12.36-21.13a79.51,79.51,0,0,0-14,13.86c-.58.72-1.14,1.47-1.69,2.22a34.05,34.05,0,0,0,1.24,3.52,1,1,0,0,0,.06.18,38.35,38.35,0,0,0,22.55,21c7.82,2.66,15.78,10,21.39,16.11a1.59,1.59,0,0,0,.13.13c2.83,3.1,5.24,5.85,6.52,7.51C69.24,84,70.44,86.31,71,86.89c.38.35.84.89,1.24,1.32,1.16,1.25,2.57,2.28,3,3.94a5.19,5.19,0,0,1,.19,2.37,52.79,52.79,0,0,1-3.14,11.13,56.82,56.82,0,0,0-2.53,8.09,26.26,26.26,0,0,0,1.36,15.42,22.81,22.81,0,0,0,4.44,7.08,30.32,30.32,0,0,0,2.74,2.61,2.91,2.91,0,0,1,.84,2.65,5.64,5.64,0,0,1-1,2.45c-.32.48-.72,1-1.19,1.66a5.71,5.71,0,0,0-.45.68c-2.71,4.6,1.32,10.61,1.32,10.61a13.28,13.28,0,0,1,1.47,2.67h1.44c1.4,0,2.79-.07,4.17-.16a13.91,13.91,0,0,0-1.4-4.33,14.84,14.84,0,0,1-1.7-4,7.13,7.13,0,0,1,.57-4.5v0a10.43,10.43,0,0,1,1.44-2.38L84,144a8.84,8.84,0,0,0,1.33-2.43,8.65,8.65,0,0,0,.46-1.78,6.22,6.22,0,0,0-1.21-5.14,55.93,55.93,0,0,0-4.27-4.57l-.09-.09c-2.94-2.83-4.48-7-4.27-11.83.14-3.76,1-8.46,3.62-12.25l0,.06h0c.23.52,1.93,3.72,8.19,2.23,5.84-1.39,5.56,9.77,5.37,12.85,0,.86-.07,1.69-.07,2.52,0,2.83.25,8.21,1.61,10.1a5.17,5.17,0,0,1,.76,3.33h0a14.8,14.8,0,0,1-.61,3.26,31.6,31.6,0,0,0-.86,3.52s0,0,0,.07v0c-.13.68-.23,1.35-.3,2-.28,3.08-.19,7.16,1.62,9.9l1.3,2,1.55-.35c1.45-.34,2.88-.71,4.29-1.13l-.26-.12a5.4,5.4,0,0,1-1.59-.82,6.38,6.38,0,0,1-1.41-2.32A31.88,31.88,0,0,1,97.89,149a12.64,12.64,0,0,1,0-4.84h0A36.12,36.12,0,0,1,99.4,138s5.06,5.75,8.48,6,5.13.47,6.5,1.56a23.83,23.83,0,0,1,3.36,4.38h0l.81-.44c1.39-.76,2.74-1.58,4.07-2.43-.09-.1-.18-.21-.28-.31a2.64,2.64,0,0,1,.82-.58,2.79,2.79,0,0,1,1.16-.23c.74-.49,1.47-1,2.19-1.52.49-.35,1-.72,1.47-1.09a13.92,13.92,0,0,0-9.65,0v0c-3.49-1.28-6.83-1.91-10.5-5.16-1.62-1.46-5.06-2.16-7.19-5.78A18,18,0,0,1,98.1,120v0h0a7.57,7.57,0,0,1,.22-.93s0-.29,0-.78h0c.06-2.51-.07-10.25-3.85-12a2.94,2.94,0,0,1,1.06-.53,17.07,17.07,0,0,1,5.82-.64,22,22,0,0,0,5.26-1.11s.8,15.29,3.26,18.74,4,8.78,11.19,9.26a39,39,0,0,0,6.09-.61,4.63,4.63,0,0,1,3.46.72,4.66,4.66,0,0,0,2.64,1c.48,0,1.33-.07,2.27-.09a8.87,8.87,0,0,1,3.16.54c.29-.31.57-.62.85-.94,1-1.16,2-2.34,3-3.56a20.48,20.48,0,0,0-6,0,2.72,2.72,0,0,1-2.57-.89,3.48,3.48,0,0,0-2.88-1.08,48.25,48.25,0,0,0-5.15.33,9.08,9.08,0,0,1-7.41-2.09,11.38,11.38,0,0,1-3.37-6.64s0,0,0,0h0c0-.13-.05-.25-.07-.39a16.81,16.81,0,0,0-.41-2.18v0s0,0,0-.05a0,0,0,0,0,0,0c-.08-.3-.16-.71-.26-1.19,0,0,0,0,0-.08a54.44,54.44,0,0,1-.55-10,9.82,9.82,0,0,1,3.75,3.27,18.13,18.13,0,0,0,3.42,3.47c1.2.9,2.74,2.1,4.19,3.43a8,8,0,0,1,1,1.38s0,0,0,0h0a6.78,6.78,0,0,1,.59,1.27,2.39,2.39,0,0,0,.15.37,0,0,0,0,1,0,0,8.94,8.94,0,0,0,3.58,4.53,6.9,6.9,0,0,0,4.52,1.37,9.88,9.88,0,0,1,4.84.7,6.34,6.34,0,0,1,2.66,2h0l.33.46.57.88c1.54-2,3-4.15,4.32-6.33l.19-.32h0a9.94,9.94,0,0,0-1.09-1.26,0,0,0,0,0,0,0,6,6,0,0,0-5-1.94c-3.51.53-7.82-.23-8.49-2.69a2.6,2.6,0,0,1,0-1.25c.31-1.69-.46-3.76-1.94-5.64,0,0,0,0,0,0a15.14,15.14,0,0,0-6.32-4.68c-2.62-1-3.67-2.34-4.08-3.39a0,0,0,0,0,0,0h0a3.14,3.14,0,0,1-.2-1.66,28.38,28.38,0,0,1,12.6-5.7s5.32,1.85,9.23.26a13.32,13.32,0,0,1,6.43-1.1h.1s3.54.84,2.71,6a10.38,10.38,0,0,0,.36,4.63,7.78,7.78,0,0,0,2.13,3.48s0,0,0,0a4.42,4.42,0,0,0,.53.44l.05-.14c.54-1.5,1-3,1.48-4.58.09-.29.17-.59.25-.89h0a8.31,8.31,0,0,1-.11-5.95,4.77,4.77,0,0,1,.13-.47,11.21,11.21,0,0,0,1.42.26c0-.19.08-.38.11-.57.24-1.29.45-2.58.61-3.89l-.56-.08a15.66,15.66,0,0,1-3.5-1.06h-.06a18.59,18.59,0,0,1-1.77-.93,6.23,6.23,0,0,0-1.59-.64h0a14.07,14.07,0,0,0-7.12.36l-.67.19c-.74.21-2.84-.87-7.89-.52-7,.48-17.76,7.72-19.1,8.71a.39.39,0,0,1-.21.05h0c-3.9-.45-4.31-1.62-4.78-3.29,0-.09,0-.18-.08-.27s-.07-.24-.11-.36a1.09,1.09,0,0,0-.05-.17c0-.14-.09-.28-.14-.43-.14-.38-.27-.79-.39-1.22l0-.1a17.92,17.92,0,0,1-.49-7.49,7.42,7.42,0,0,0-.12-3.06,3.17,3.17,0,0,0-.32-.73.31.31,0,0,0,0-.1,1.46,1.46,0,0,0-.72-.65l.2,0h0c1.21-.29,7.54-1.76,13.43-3.31a36.91,36.91,0,0,1,13.6-1.08,13.75,13.75,0,0,0,2.41.14,8.34,8.34,0,0,1,1.12,0h0a6,6,0,0,1,2.6.65,19.35,19.35,0,0,1,5.79,4.49c2.83,3.38,2.27,5.1,5.56,6.31l.05,0,.11,0,.17.06c1.27.43,3.11.89,5,1.34,0,0,0-.09,0-.14s0-.14,0-.21a2.45,2.45,0,0,0,0-.27c.08-.89.14-1.78.19-2.68l-.41-.12Zm-69.28,16c-3.4,1.62-6.66.89-7.53-1.88a6,6,0,0,1-.15-2.74c.74-5,3.25-8.51-3.1-14-.21-.19-.45-.37-.7-.57l-.94-.75a8.53,8.53,0,0,0,1.22.45l.66.18h0a3,3,0,0,0,.32.09,29.59,29.59,0,0,0,12,.27,9.4,9.4,0,0,1,8.86,2.88,12.75,12.75,0,0,1,3.09,6.44c.36,1.89,1,4.74,2,6.07a2,2,0,0,0,.25.31c.1.1,0,.34-.17.41-1.41.6-5.88,2.3-9,1.42C94.58,97.8,91.85,98.77,89.75,99.78Z"/><path class="cls-3" d="M159.06,83.83h0l-.46-.1-.6-.16-.57-.16c-.35-.1-.67-.22-1-.33l-.63-.26a4.48,4.48,0,0,1-.44-.2l-.12,0c-.36-.18-.68-.36-1-.54l-.34-.22-.36-.25a5.15,5.15,0,0,1-.5-.4,4.9,4.9,0,0,1-.47-.43,5.89,5.89,0,0,1-.69-.79,4.11,4.11,0,0,1-.7-1.27s-.12-.21-.33-.54l-.29-.44a11.73,11.73,0,0,0-1.11-1.41l-.14-.15a4.89,4.89,0,0,0-.72-.66l.93.27.33.09.15,0,.21.06.2,0c.36.09.73.16,1.1.23s.64.11,1,.15l.5.05.21,0h.09a22.3,22.3,0,0,0,4.94-.16c.42-.05.84-.12,1.27-.2-.07-1.7-.2-3.39-.39-5,0,0,0-.07,0-.11-.33,0-.65.06-1,.08l-.64,0a0,0,0,0,1,0,0h-.06a15.87,15.87,0,0,1-2.6-.15h-.05l-.18,0h0l-.62-.11-.82-.19A16.67,16.67,0,0,1,149,68.89a14.91,14.91,0,0,0-3.27-1.35l-.72-.19-.67-.15-.7-.14a31.4,31.4,0,0,0-6.41-.41l-.52,0-.51,0-.56,0-.28,0h0l-.33,0h0l-.2,0-.23,0s-12.69,2.29-17.58,3.88a27,27,0,0,1-5.1,1,48.21,48.21,0,0,1-13.45-.19,42.68,42.68,0,0,0-6-.52,15.58,15.58,0,0,1-9.13-3.1l-.08-.08s-.09-.09-.32-.28a1,1,0,0,0-.15-.13c-.11-.1-.26-.22-.43-.35L82,66.91A70.92,70.92,0,0,1,75.34,61c-1.11-1.12-2.38-2.36-3.76-3.66l-.85-.79c-.57-.54-1.16-1.08-1.76-1.62L67.5,53.59l-.38-.33-1-.83c-.32-.28-.64-.56-1-.83l-1-.83c-.79-.66-1.59-1.32-2.4-2l-1.38-1.09-.3-.23-1-.72-1-.76-1-.74-1-.71c-.34-.24-.67-.47-1-.69l-1-.66-.87-.55Q52.2,42,51.18,41.43L50.27,41l0,0-.87-.43c-.29-.14-.56-.27-.84-.39l-.92-.38c-.86-.33-1.68-.71-2.46-1.1-.51-.26-1-.52-1.48-.81h0L43,37.4,42.34,37l-.6-.42c-.26-.18-.51-.37-.75-.56a.27.27,0,0,1-.08-.07l-.42-.33-.11-.09c-.26-.22-.52-.44-.76-.67s-.56-.52-.82-.79-.57-.6-.84-.91l-.39-.46-.43-.54c-.26-.33-.51-.68-.74-1-.1-.15-.2-.3-.29-.45s-.18-.3-.27-.45a.1.1,0,0,1,0-.05l-.15-.26c-.13-.24-.27-.48-.39-.72s-.35-.68-.5-1-.18-.4-.26-.6-.09-.23-.14-.35-.12-.3-.17-.46-.15-.43-.22-.65-.14-.44-.2-.66-.12-.44-.17-.66-.1-.39-.13-.58-.11-.5-.15-.75l-.09-.53c0-.29-.08-.58-.1-.88s0-.41-.05-.62a20.29,20.29,0,0,1,.7-6.83c-.91.64-1.81,1.31-2.69,2a79.51,79.51,0,0,0-14,13.86,33.88,33.88,0,0,0,2,6.69,1,1,0,0,0,.06.18A37.27,37.27,0,0,0,41.07,57.75c7.6,2.59,15.34,9.72,20.79,15.66l.13.13c2.75,3,5.1,5.69,6.34,7.3,1.9,2.75,3.06,5,3.65,5.59.37.34.81.87,1.2,1.28,1.13,1.22,2.5,2.22,2.94,3.83a5.07,5.07,0,0,1,.18,2.31,51.39,51.39,0,0,1-3,10.82,55.4,55.4,0,0,0-2.46,7.86,25.55,25.55,0,0,0,1.32,15,22.2,22.2,0,0,0,4.32,6.89,29.88,29.88,0,0,0,2.66,2.53c1.11,1,1.14,2.81.11,4.56-.08.14-.17.27-.26.4-.31.47-.7,1-1.16,1.61a6.36,6.36,0,0,0-1.22,2.78c-.74,4,2.07,8.2,2.07,8.2a13,13,0,0,1,2.16,5.08c1.4,0,2.79-.07,4.17-.16l1.26-.09c-.12-.09-.23-.19-.34-.29-.42-2.72-1-5.16-1.73-6.31a14.2,14.2,0,0,1-1.65-3.92,5.55,5.55,0,0,1-.13-1.79v0a.06.06,0,0,1,0,0,2.78,2.78,0,0,1,.05-.39v0c0-.14,0-.29.08-.44s0-.2.07-.3a2.25,2.25,0,0,1,0-.22s0-.11.05-.16c.06-.21.13-.41.21-.62s.13-.33.2-.49l.18-.37c0-.12.12-.23.18-.35s0,0,0,0,.12-.22.19-.32.21-.34.32-.5.31-.44.48-.65l.1-.11c.14-.18.27-.36.39-.55s.21-.33.31-.51a6.27,6.27,0,0,0,.29-.58c.08-.17.15-.35.22-.52a1.67,1.67,0,0,0,.08-.2c1-2.65.65-5.14-.73-6.73A53.07,53.07,0,0,0,81,128.45l-.09-.09c-2.86-2.75-4.35-6.78-4.15-11.5l0-.63q.06-1,.18-2l.06-.49a.09.09,0,0,0,0-.05c0-.16,0-.32.08-.49l.09-.56c0-.16.06-.32.1-.47s0-.24.07-.35,0-.23.08-.35.11-.47.18-.7a20.6,20.6,0,0,1,1-2.77c.1-.23.2-.46.31-.68s.22-.45.34-.67.24-.44.37-.66h0l.24-.4c.14-.22.28-.44.43-.65,0,0,1.38,3.81,8,2.24,5.68-1.36,5.41,9.49,5.22,12.49,0,.83-.06,1.64-.06,2.45,0,2.75.24,8,1.56,9.82a4.72,4.72,0,0,1,.75,2.78c0,.2,0,.4,0,.59a5.61,5.61,0,0,1-.06.59c0,.2-.06.41-.09.61s-.06.35-.1.52h0c-.05.24-.11.47-.16.69s-.11.43-.17.62A29.15,29.15,0,0,0,94,143.83s0,0,0,.07v0c0,.37-.06.76-.08,1.16s0,.76,0,1.15v.05c0,.32,0,.64,0,1s0,.62.06.93v0c0,.31.06.62.11.93v0c0,.21.07.44.12.65a2.74,2.74,0,0,0,0,.28c.07.35.16.7.26,1l.1.31c0,.15.1.29.16.43s.23.56.36.83.29.52.45.77q1.59,2.39,2.59,4c1.45-.34,2.88-.71,4.29-1.13.78-.23,1.55-.47,2.32-.73a6.83,6.83,0,0,0-2.51-1.78,5,5,0,0,1-1.54-.8,6.22,6.22,0,0,1-1.37-2.25,30.89,30.89,0,0,1-1.23-4,8.82,8.82,0,0,1-.16-2.65h0c0-.24,0-.51,0-.79,0-.13,0-.28,0-.43l0-.24c0-.14,0-.28,0-.42s0-.33.07-.5.08-.52.13-.8a.3.3,0,0,0,0-.1c.06-.3.13-.62.2-1s.1-.45.16-.68c.23-.93.51-1.95.88-3.06,0,0,4.92,5.59,8.24,5.85s5,.45,6.32,1.51,3.78,5.05,3.78,5.05.25.41.67,1c1.39-.76,2.74-1.58,4.07-2.43l.81-.52-.27-.37a.76.76,0,0,1-.08-.11q-.24-.31-.51-.63l-.08-.09c-.2-.24-.42-.48-.64-.72,1.43-1.41,3-.55,4.66-.2.49-.35,1-.72,1.47-1.09s.84-.64,1.25-1c-5.09-3.6-11.28-1.11-11.28-1.11v0c-3.39-1.25-6.64-1.86-10.2-5-1.58-1.42-4.92-2.1-7-5.62a17.77,17.77,0,0,1-2.67-10.55c0-.07,0-.13,0-.19h0c0-.16,0-.32,0-.47s0-.2,0-.3c0-.38.11-.69.16-.94h0c.09-.36.15-.56.15-.56s.07-1.06,0-2.58c0-.16,0-.32,0-.48s0-.53,0-.81l-.06-.63-.06-.56c0-.13,0-.26,0-.4q-.08-.57-.18-1.14l-.06-.3v0c-.08-.4-.17-.79-.28-1.16,0-.13-.07-.25-.11-.37s-.11-.36-.18-.53l-.12-.32-.06-.15a1.51,1.51,0,0,0-.12-.26,6.08,6.08,0,0,0-.64-1.15,3.79,3.79,0,0,0-.3-.4c-.06-.08-.13-.15-.19-.22a1.85,1.85,0,0,0-.14-.14,3.88,3.88,0,0,0-1.12-.78s1.25-1.24,6.68-1.14A21.2,21.2,0,0,0,106.6,103s.78,14.87,3.17,18.22,3.86,8.54,10.88,9a37.67,37.67,0,0,0,5.92-.59,4.52,4.52,0,0,1,3.36.7,4.49,4.49,0,0,0,2.57,1c.47,0,1.29-.07,2.21-.09a9.53,9.53,0,0,1,4.86,1.35c1-1.16,2-2.34,3-3.56.19-.22.35-.43.52-.65a2.42,2.42,0,0,0-.57-.58c-1.24-.86-4.64-.68-6.84-.43a2.67,2.67,0,0,1-2.5-.87,3.39,3.39,0,0,0-2.8-1,48.46,48.46,0,0,0-5,.32,8.84,8.84,0,0,1-7.2-2l-.42-.41-.13-.14-.33-.38c-.14-.18-.29-.36-.42-.55a7.48,7.48,0,0,1-.43-.66,5.82,5.82,0,0,1-.34-.6c-.12-.22-.22-.44-.33-.68,0-.05,0-.11-.07-.17s-.09-.21-.13-.33l-.12-.34c-.1-.27-.19-.55-.27-.85,0,0,0,0,0,0h0c-.07-.27-.14-.54-.19-.82s-.12-.59-.16-.9-.08-.57-.13-.85v0s0,0,0-.05a0,0,0,0,0,0,0,.59.59,0,0,0,0-.13c0-.18-.07-.35-.11-.53a4.7,4.7,0,0,0-.12-.51s0,0,0,0,0,0,0-.08-.06-.25-.09-.39a1.74,1.74,0,0,1-.05-.22l-.06-.31c0-.2-.08-.41-.12-.65s0-.3-.07-.46,0-.33-.07-.5l-.06-.55c0-.19,0-.39-.06-.6,0-.46-.09-1-.12-1.51s-.07-1.29-.09-2c0-.23,0-.46,0-.7v-.2c0-.87,0-1.82,0-2.85a9.47,9.47,0,0,1,3.65,3.17,17.43,17.43,0,0,0,3.32,3.38c1.17.87,2.67,2,4.08,3.33a7.67,7.67,0,0,1,1.61,2.62s0,0,0,0h0c.08.24.17.47.27.7s.17.37.26.54a3,3,0,0,0,.21.4,0,0,0,0,1,0,0l.06.1.21.35c.09.15.19.29.29.43a2.43,2.43,0,0,0,.24.32c.13.18.28.35.43.52s.29.3.44.44a3.62,3.62,0,0,0,.42.36l.26.21c.17.12.34.24.52.35a6.74,6.74,0,0,0,4.39,1.33A9.74,9.74,0,0,1,139,123a6.19,6.19,0,0,1,2.91,2.37l.72,1.11h0l.88,1.36,0,0c1.54-2,3-4.15,4.32-6.33a8.3,8.3,0,0,0-.9-1.59,0,0,0,0,0,0,0,9.24,9.24,0,0,0-1-1.24,2.76,2.76,0,0,0-.3-.29,8.08,8.08,0,0,0-1.08-.85c-.14-.08-.27-.17-.41-.24s-.32-.17-.48-.24l-.26-.11a5.05,5.05,0,0,0-.55-.18l-.28-.07-.33,0a4.29,4.29,0,0,0-1.29,0,14.21,14.21,0,0,1-4.17,0l-.26-.05-.17,0-.35-.08a6.88,6.88,0,0,1-1.79-.68l-.25-.16a3.43,3.43,0,0,1-.47-.36,2.76,2.76,0,0,1-.76-1.11,1.55,1.55,0,0,1-.08-.36.07.07,0,0,1,0-.06,1.47,1.47,0,0,1,0-.36,3,3,0,0,1,.05-.58c0-.12,0-.24,0-.37a5.38,5.38,0,0,0-.31-2.19,4.14,4.14,0,0,0-.15-.41,9,9,0,0,0-.74-1.45s0,0,0,0-.18-.29-.28-.43l-.3-.42a14.85,14.85,0,0,0-5.46-4.4l-.42-.19-.42-.17a10.69,10.69,0,0,1-1.79-.87,6.22,6.22,0,0,1-1.2-1,3.69,3.69,0,0,1-.53-.63,0,0,0,0,0,0,0h0a3.59,3.59,0,0,1-.61-1.45,2.08,2.08,0,0,1-.05-.41,2.19,2.19,0,0,1,0-.59,27.55,27.55,0,0,1,12.25-5.54s5.17,1.8,9,.26a12.5,12.5,0,0,1,6.35-1.06l.2.07.14.05.17.08.19.1a4.07,4.07,0,0,1,.43.29l.24.2c.06.06.13.12.19.19a3.37,3.37,0,0,1,.33.39c.06.09.13.18.19.29a.31.31,0,0,1,0,.1,2.15,2.15,0,0,1,.19.37,3.27,3.27,0,0,1,.18.47c0,.13.07.26.1.39l0,.14a4,4,0,0,1,.08.52.55.55,0,0,1,0,.18,5.12,5.12,0,0,1,0,.56,8.68,8.68,0,0,1-.12,1.46,10.25,10.25,0,0,0,.35,4.5,6.76,6.76,0,0,0,.33.89,5.36,5.36,0,0,0,.26.54.72.72,0,0,0,.12.21,3,3,0,0,0,.28.45c0,.07.09.14.14.21s.21.28.32.41.13.16.21.24a3.25,3.25,0,0,0,.26.27,3.08,3.08,0,0,0,.27.25,1.5,1.5,0,0,0,.24.21,4.23,4.23,0,0,0,.42.32,6.1,6.1,0,0,0,.6.38s0,0,0,0a6.36,6.36,0,0,0,.58.3c.54-1.5,1-3,1.48-4.58-1.71-1.68-2.27-4.43-1.3-7.54,0-.15.08-.29.13-.46a12.55,12.55,0,0,0,3,.37c.24-1.29.45-2.58.61-3.89,0-.13,0-.27.06-.4a16.5,16.5,0,0,1-2.1-.24,16.11,16.11,0,0,1-2-.5h-.06c-.28-.09-.55-.19-.82-.3s-.53-.22-.79-.34-.46-.22-.68-.33l-.82-.46-.25-.14h0a4.6,4.6,0,0,0-.7-.3c-.12,0-.23-.08-.36-.12l-.44-.12-.44-.09-.13,0a3.11,3.11,0,0,0-.44-.06,5.41,5.41,0,0,0-.59-.05,16.94,16.94,0,0,0-5.11.63l-.66.18c-.71.21-2.76-.84-7.67-.5-6.76.46-17.26,7.5-18.57,8.46a.34.34,0,0,1-.2,0h0l-.82-.11-.36-.07a4.17,4.17,0,0,1-2.77-1.37,2.9,2.9,0,0,1-.19-.29c0-.08-.09-.17-.14-.26s-.12-.3-.18-.46,0-.18-.08-.27-.07-.24-.11-.36a1.09,1.09,0,0,0-.05-.17c-.09-.32-.19-.67-.32-1l-.21-.62,0-.1a17.36,17.36,0,0,1-.52-2.07c0-.23-.09-.47-.12-.71s-.08-.52-.1-.8,0-.39,0-.59,0-.26,0-.39a17,17,0,0,1,.17-3.29,7.33,7.33,0,0,0-.12-3c0-.09-.06-.19-.1-.28l-.12-.28a2.21,2.21,0,0,0-.37-.55,1.85,1.85,0,0,0-.14-.14h0a1,1,0,0,0-.32-.19s6.9-1.58,13.26-3.26a36.17,36.17,0,0,1,13.23-1,12.91,12.91,0,0,0,2.34.14h.52l.62,0,.23,0h.06a4.17,4.17,0,0,1,.63.08h0a5.34,5.34,0,0,1,1.55.52,18.83,18.83,0,0,1,5.63,4.37c2.84,3.39,2.17,5.06,5.73,6.24.31.11.66.22,1,.32l.05,0,.11,0c.76.22,1.63.44,2.55.65l.88.21.88.2.92.2c0-.07,0-.14,0-.21a2.45,2.45,0,0,0,0-.27c.08-.89.14-1.78.19-2.68v0l-.26,0ZM105.53,96.22l-.06,0c-.2.08-.45.19-.75.3l-.24.09-.1,0-.51.17-.27.09-.43.14c-.29.09-.6.18-.92.26l-.73.17c-.25.06-.5.11-.76.15l-.17,0-.85.11c-.35,0-.69,0-1,0a7.14,7.14,0,0,1-1.93-.24C94.86,97,92.21,98,90.17,99c-3.31,1.58-6.48.87-7.32-1.83a5.74,5.74,0,0,1-.15-2.66c.72-4.83,3.16-8.27-3-13.59l-.47-.39h0l-.2-.16-.92-.73a8.42,8.42,0,0,0,1.19.43c.27.08.59.18,1,.27a28.94,28.94,0,0,0,11.63.26,9.13,9.13,0,0,1,8.61,2.8,12.38,12.38,0,0,1,3,6.26c.38,2,1.13,5.08,2.2,6.2C105.79,95.92,105.71,96.15,105.53,96.22Z"/></g></g></svg>