<svg id="Laag_2" data-name="Laag 2" xmlns="http://www.w3.org/2000/svg" viewBox="0 0 2136 1207"><defs><style>.cls-1{fill:#05529d;}.cls-2{fill:#bacfe4;}.cls-3{fill:#e8eff6;}.cls-4{fill:#d2dfed;}.cls-5{fill:#c3d1dd;}.cls-6{fill:#bac7d1;}.cls-7{fill:#a3c1db;}.cls-8{fill:#8dafd2;}.cls-9{fill:#66785b;}.cls-10{fill:#405632;}.cls-11{fill:#8db573;}.cls-12{fill:#71a350;}.cls-13{fill:#cddceb;}.cls-14{fill:#6090c0;}.cls-15{fill:#7f3d03;}.cls-16{fill:#d4e5f6;}.cls-17{fill:#1a1a1a;}</style></defs><title>illustratie3</title><rect class="cls-1" x="-0.27" y="562.63" width="2143.14" height="644.43"/><rect class="cls-2" x="-0.64" y="-88.1" width="2143.14" height="547.67"/><path class="cls-3" d="M1572.47,313.15v0h166.66a41.47,41.47,0,0,0-51.93-36.63,41.42,41.42,0,0,0-62.12-11.7,41.46,41.46,0,0,0-53.83,39.52A32.19,32.19,0,0,0,1572.47,313.15Z"/><path class="cls-4" d="M1572.45,313.15v0h164.12c-1.71-19.62-19.26-35-40.65-35a43.55,43.55,0,0,0-10.49,1.28c-7-11.54-20.27-19.33-35.47-19.33a42.38,42.38,0,0,0-25.7,8.53,43.5,43.5,0,0,0-12.23-1.74c-22.52,0-40.78,17.1-40.78,38.18A28.17,28.17,0,0,0,1572.45,313.15Z"/><polygon class="cls-5" points="585.95 448.31 583.84 448.31 584.66 447.72 585.95 448.31"/><polygon class="cls-5" points="585.95 448.31 583.84 448.31 584.66 447.72 585.95 448.31"/><polygon class="cls-5" points="585.95 448.31 583.84 448.31 584.66 447.72 585.95 448.31"/><polygon class="cls-5" points="585.95 448.31 583.84 448.31 584.66 447.72 585.95 448.31"/><polygon class="cls-6" points="585.95 451.59 583.84 451.59 584.66 451.01 585.95 451.59"/><polygon class="cls-6" points="585.95 451.59 583.84 451.59 584.66 451.01 585.95 451.59"/><polygon class="cls-6" points="585.95 451.59 583.84 451.59 584.66 451.01 585.95 451.59"/><polygon class="cls-6" points="585.95 451.59 583.84 451.59 584.66 451.01 585.95 451.59"/><path class="cls-7" d="M2407.38,542.63,2151.6,362.79l-42.13,30.84-116.68-82-45.49,33.3L1937,352.35l-68-47.8-40,29.26L1799.48,313l-27,19.76-73.08-51.39-45.49,33.3-86.44,62.62-93.42-65.68-45.48,33.3-38.18,27.65L1217.51,218.74l-98,71.25-65-45.71L1009,277.58l-81,58.68-96.42-67.79-45.48,33.31-22.24,16.11-37.21-26.16-42.35,31-97.68-86.91-98,71.25-65-45.71-45.48,33.31-69.11,50.06-130.38-116-337,245.12H259.37l-9.76,7.1H1048.9l-36.82-17.1h252.28l-38.08,27.59h327.34l-1.92,1.39h420.87l-68.75,49.8ZM584.66,447.72l1.29.59h-2.11Z"/><path class="cls-8" d="M2407.38,542.63,2151.6,369l-42.13,29.78-116.68-79.19-45.49,32.15L1937,359l-68-46.14-40,28.24L1799.48,321l-27,19.07-73.08-49.6-45.49,32.14L1567.48,383l-93.42-63.41-45.48,32.15-38.18,26.69L1217.51,230l-98,68.77-65-44.12L1009,286.78l-81,56.65L831.61,278l-45.48,32.15-22.24,15.55-37.21-25.25-42.35,29.94-97.68-83.89-98,68.77-65-44.12-45.48,32.15-69.11,48.32-130.38-112-337,236.61H259.37l-9.76,6.85H1048.9l-36.82-16.5h252.28l-38.08,26.62h327.34l-1.92,1.35h420.87l-68.75,48.07ZM584.66,451l1.29.58h-2.11Z"/><polygon class="cls-3" points="1799.48 312.98 1788.79 320.84 1796.04 322.58 1799.91 327.63 1803.8 321.82 1814.21 323.41 1799.48 312.98"/><polygon class="cls-4" points="1799.77 314.04 1790.62 320.77 1796.82 322.25 1800.14 326.58 1803.47 321.61 1812.38 322.96 1799.77 314.04"/><polygon class="cls-3" points="1217.56 217.44 1185.88 241.74 1208.62 251.65 1217.56 246.15 1226.62 253.99 1245.32 243.59 1217.56 217.44"/><polygon class="cls-4" points="1217.41 218.8 1188.11 241.29 1209.14 250.46 1217.41 245.37 1225.8 252.62 1243.1 243 1217.41 218.8"/><polygon class="cls-3" points="586.64 235.71 547.02 264.93 570.41 267.8 580.6 277.48 594.61 281.47 606.57 281.47 610.69 276.11 628.44 273.1 586.64 235.71"/><polygon class="cls-4" points="586.71 237.05 549.4 264.56 571.42 267.26 581.01 276.38 594.21 280.13 605.47 280.13 609.35 275.08 626.06 272.25 586.71 237.05"/><path class="cls-9" d="M-.27,384.56s18.66,5.33,40.89,13.33c14.54,5.24,35.55,3.62,48.34,1.88a43.34,43.34,0,0,0,19.73-8c5.49-4,13-9.73,20.82-16.14,15.11-12.44,43.55-6.22,68.44-5.33s48.89-27.56,64.89-23.11,16,16.88,35.56,18.66,16.09-18,28.44-19.55,34.65-12.35,92.57,3.35c3.43.93,6.83,2,10.21,3.08,8.75,2.88,33.69,10.46,54.56,10.46,25.78,0,48,8.88,56,14.22s24.89,12.44,40,12.44,54.22.89,68.44,11.56c11.31,8.48,50.13,7.41,65.58,6.61,3.51-.18,7-.29,10.52-.3,8.93,0,32.21-1.2,67-10.76,32.4-8.89,90.7-10.52,121.31-10.73a188.21,188.21,0,0,1,34.66,3c29.68,5.39,98.26,14.7,147.14-3a243.35,243.35,0,0,1,69.7-14.11,180.3,180.3,0,0,1,59.27,7c15,4.31,41,8.46,63.92-4.46,28.86-16.28,104.53,8.71,129.08,17.54q9.83,3.54,19.92,6.18c27.42,7.2,94.6,23.51,130.12,20.73,45.33-3.56,69.33,9.77,96,14.22s152-4.45,187.56-22.22,64-28.45,113.78.89c38.65,22.77,90.7,9.64,112,2.63a132,132,0,0,0,12.9-5c5.17-2.32,15.91-6.49,26.18-6.49,14.22,0,27.55-15.12,27.55-15.12v176H-.27Z"/><path class="cls-10" d="M-.27,392.62s18.66,5.09,40.89,12.73c14.54,5,35.55,3.46,48.34,1.79a44.52,44.52,0,0,0,19.73-7.6c5.49-3.85,13-9.29,20.82-15.41,15.11-11.89,43.55-5.95,68.44-5.1s48.89-26.32,64.89-22.07,16,16.13,35.56,17.83,16.09-17.24,28.44-18.68,34.65-11.79,92.57,3.2c3.43.89,6.83,1.88,10.21,2.94,8.75,2.76,33.69,10,54.56,10,25.78,0,48,8.49,56,13.58s24.89,11.89,40,11.89,54.22.85,68.44,11c11.31,8.09,50.13,7.07,65.58,6.31,3.51-.17,7-.28,10.52-.29,8.93,0,32.21-1.14,67-10.27,32.4-8.49,90.7-10.05,121.31-10.25a195.31,195.31,0,0,1,34.66,2.89c29.68,5.14,98.26,14,147.14-2.83a253.5,253.5,0,0,1,69.7-13.47,188.15,188.15,0,0,1,59.27,6.7c15,4.11,41,8.08,63.92-4.26,28.86-15.55,104.53,8.32,129.08,16.75q9.83,3.38,19.92,5.9c27.42,6.87,94.6,22.46,130.12,19.8,45.33-3.4,69.33,9.34,96,13.58s152-4.24,187.56-21.22,64-27.17,113.78.84c38.65,21.76,90.7,9.22,112,2.53a135.8,135.8,0,0,0,12.9-4.82c5.17-2.21,15.91-6.2,26.18-6.2,14.22,0,27.55-14.43,27.55-14.43V564.12H-.27Z"/><path class="cls-4" d="M1518.51,572.94l-.18-.36a10.65,10.65,0,0,0-8.1-5.57c-16.41-2.2-92-4.5-126.54-5.45L1008.34,237.39l9.27-9c6.75-16.4-11.64-11.24-11.64-11.24L686.45,499.26C635.39,541.56,571,558.92,505.94,560.4l-56.89,1.29a13.82,13.82,0,0,0-13.15,17.2,27.65,27.65,0,0,0,1.73,4.63A7.79,7.79,0,0,0,445,588l218.75-7.43.46,45.28h58l-1.15-47.42,179.75-4.09v51.51h41.67V572.34l.74,0c133.55-5.24,354.55,6,478.53,11.93l.7,41.65h50.6l-1.51-39.12c16.91.93,29.45,1.67,36.23,2.11C1516.37,589.4,1522.4,580.51,1518.51,572.94Zm-795.85-56.7,8.5-8.28,55.69,46.12C691.13,557.58,722.66,516.24,722.66,516.24Zm75,37.41-61.31-50.78,17.53-17.06,76,66.45C819.34,552.63,808.58,553.11,797.62,553.65Zm42.92-1.74-81.42-71.25L775.24,465l102.84,85.86C866.17,551.08,853.59,551.43,840.54,551.91Zm47.6-1.33L780,460.29l16.4-16L917,550.05C908,550.19,898.38,550.35,888.14,550.58Zm38.45-.63L801,439.75l17.07-16.63L957,549.68C948.63,549.75,938.39,549.8,926.59,550Zm54.69-.22s-5.33-.06-15-.09L822.6,418.7l17-16.68L1006.44,549.7C990.57,549.7,981.28,549.73,981.28,549.73Zm34.76-.07L844.28,397.54l16.3-15.89,186.13,168.09C1035.26,549.7,1024.9,549.7,1016,549.66Zm40.19.16L865.09,377.24l14.66-14.35,210.34,187.18C1078.11,550,1066.79,549.88,1056.23,549.82Zm43.4.4L884.2,358.53l18.23-17.73,235.19,209.93C1124.55,550.54,1111.85,550.36,1099.63,550.22Zm47.4.71L906.88,336.45l14.54-14.17L1181,551.6C1169.57,551.38,1158.24,551.1,1147,550.93Zm43.58.93L925.82,317.92l17.75-17.3L1226.28,553C1214.47,552.52,1202.54,552.19,1190.61,551.86Zm45.39,1.43-288-257,17.05-16.68L1272.33,554.8C1260.52,554.23,1248.35,553.72,1236,553.29Zm46.17,2.06L969.54,275.29l16.59-16.19,337.32,298.79C1310.49,556.93,1296.63,556,1282.17,555.35Zm86.59,5.77c-8.21-.3-16.37-.77-24.6-1.54-3.42-.34-7-.62-10.57-.9L990.52,254.75l13.42-13L1374,561.3C1371.82,561.22,1370,561.15,1368.76,561.12Z"/><path class="cls-11" d="M-.27,703.27H807.87s-49-93.17-189.4-110.11-211.06-44.66-252-59.29-98.71-42.35-134-41.58S115.29,513.85,82.39,511.54s-82.66,0-82.66,0Z"/><path class="cls-12" d="M-.27,703.27H793S744.93,615.21,607.08,599.2,399.9,557,359.73,543.16s-96.9-40-131.56-39.3-115,20.37-147.3,18.19-81.14,0-81.14,0Z"/><path class="cls-11" d="M999.11,1001.67l-21.58-.53-187.42-4.67L-1,1001.67V691.37s119.8-8.19,190.92,23.81,113.55,88.55,152.24,110.13,86.72,40.19,112.3,40.19H619.78c35.56,0,81.73,2.23,116,7.44s69.88,41.67,99.2,46.88S999.11,943.63,999.11,1001.67Z"/><path class="cls-12" d="M977.53,1001.14l-220.26.53H-1V710.1s117.21-7.68,186.8,22.38,111.1,83.2,149,103.48,84.85,37.76,109.88,37.76H606.38c34.79,0,80,2.1,113.55,7s68.37,39.16,97.05,44S976.67,947,977.53,1001.14Z"/><path class="cls-11" d="M338.26,1139.34h1453.8A270.21,270.21,0,0,1,1971,1207.06H278.8l-.09-7.52A59.55,59.55,0,0,1,338.26,1139.34Z"/><path class="cls-12" d="M278.79,1207.06a59.55,59.55,0,0,1,59.54-60.28H1784.07c65.56,0,128.85,21.44,178,60.28H278.79Z"/><polygon class="cls-8" points="2142.86 481.64 2142.86 499.56 1723.38 510.28 1723.38 518.92 1668.55 518.92 1668.55 528.14 1675.48 528.14 1675.48 535.97 1716.69 535.97 1716.69 558.68 1679.2 559.63 1670.65 559.85 1639.74 560.64 1633.82 560.79 1600.27 561.65 1592.56 561.85 1570.86 562.4 1563.14 562.59 1538.75 563.22 1533.19 563.36 1510.83 563.93 1504.9 564.08 1481.22 564.68 1474.07 564.87 1474.07 536.23 1510.83 536.13 1533.19 536.06 1538.75 536.05 1563.14 535.99 1567.54 535.97 1567.54 515.65 1584.6 515.65 1584.6 534.21 1595.69 534.21 1595.69 507.09 1612 507.09 1612 528.32 1629 528.32 1629 469.17 1668.55 469.17 1668.55 484.72 1675.64 484.72 1675.64 462.43 1705.14 462.43 1705.14 497.01 1723.38 497.01 1723.38 481.64 1816.84 481.38 1816.84 461.06 1833.9 461.06 1833.9 479.62 1845 479.62 1845 452.49 1861.3 452.49 1861.3 473.73 1878.3 473.73 1878.3 414.58 1917.84 414.58 1917.84 473.55 1924.78 473.55 1924.78 481.38 1967.97 481.38 1967.97 437.3 1995.03 437.3 1995.03 475.63 2001.96 475.63 2001.96 453.15 2012.71 453.15 2012.71 473.74 2017.92 473.74 2017.92 455.46 2037.17 455.46 2037.17 487.08 2066.49 487.08 2066.49 460.89 2106.89 460.89 2106.89 481.64 2142.86 481.64"/><rect class="cls-4" x="1730.53" y="488.01" width="23.68" height="36.83"/><rect class="cls-4" x="1760.12" y="459.72" width="22.36" height="65.11"/><rect class="cls-4" x="1820.16" y="464.33" width="21.7" height="55.25"/><rect class="cls-4" x="1849.57" y="419.6" width="33.54" height="99.97"/><rect class="cls-4" x="1889.04" y="452.49" width="30.91" height="64.46"/><rect class="cls-4" x="1928.5" y="399.87" width="37.49" height="106.55"/><polygon class="cls-4" points="1996.24 451.69 1996.24 506.42 1971.91 506.42 1971.91 451.69 1974.84 451.69 1974.84 441.07 1992.65 441.07 1992.65 451.69 1996.24 451.69"/><polygon class="cls-4" points="2028.62 467.94 2028.62 505.56 2004.23 505.56 2004.23 467.94 2006.24 467.94 2006.24 464.74 2008.53 464.74 2008.53 461.56 2010.72 461.56 2010.72 457.7 2021.78 457.7 2021.78 461.56 2024.23 461.56 2024.23 464.74 2026.61 464.74 2026.61 467.94 2028.62 467.94"/><polygon class="cls-4" points="1812.44 464.85 1812.44 510.27 1788.05 510.27 1788.05 464.85 1790.07 464.85 1790.07 460.99 1792.35 460.99 1792.35 457.15 1794.55 457.15 1794.55 452.49 1805.6 452.49 1805.6 457.15 1808.05 457.15 1808.05 460.99 1810.42 460.99 1810.42 464.85 1812.44 464.85"/><rect class="cls-4" x="2039.59" y="484.72" width="23.6" height="18.68"/><polygon class="cls-4" points="2068.83 462.45 2068.83 503.78 2103.45 503.78 2103.45 455.46 2080.11 455.46 2080.11 462.26 2068.83 462.45"/><rect class="cls-4" x="2111.49" y="469.51" width="25.93" height="33.88"/><rect class="cls-4" x="1481.22" y="542.6" width="23.68" height="36.83"/><rect class="cls-4" x="1510.82" y="514.31" width="22.36" height="65.11"/><rect class="cls-4" x="1570.85" y="518.92" width="21.7" height="55.25"/><rect class="cls-4" x="1600.27" y="474.19" width="33.54" height="99.97"/><rect class="cls-4" x="1639.73" y="507.08" width="30.91" height="64.46"/><rect class="cls-4" x="1679.2" y="454.46" width="37.49" height="106.55"/><polygon class="cls-4" points="1563.14 519.44 1563.14 564.87 1538.74 564.87 1538.74 519.44 1540.76 519.44 1540.76 515.58 1543.05 515.58 1543.05 511.74 1545.24 511.74 1545.24 507.08 1556.29 507.08 1556.29 511.74 1558.75 511.74 1558.75 515.58 1561.12 515.58 1561.12 519.44 1563.14 519.44"/><path class="cls-11" d="M1704.13,509.45c150-12.64,438.73-15,438.73-15V692.11H1153.52s-9.61-42.82,69-51.56,121.48-15.74,141.58-27.1,73.42-48.94,97.89-50.69,83.9-2.62,100.5-6.12S1621.1,516.44,1704.13,509.45Z"/><path class="cls-12" d="M1711.39,517.41c147.56-12.09,431.47-14.31,431.47-14.31v189h-973s-9.46-41,67.9-49.32,119.47-15,139.24-25.91,72.2-46.81,96.27-48.48,82.51-2.51,98.84-5.85S1629.73,524.1,1711.39,517.41Z"/><path class="cls-11" d="M2142.86,625.88l-.69,249.29-.05,15.63H929.91a55.38,55.38,0,0,1-.34-15.63c2-19.33,14.17-51.17,69.54-63.25,81.86-17.86,115.35-9.68,154-29s131.72-67.12,173.39-67.72c51.34-.75,178.59,8.93,239.61,2.23s162.23-59.53,195.71-59.53,141.39-15.63,186-23.07S2142.86,625.88,2142.86,625.88Z"/><path class="cls-12" d="M2142.13,890.8H943.26s-12.51-58.11,68.44-75.12,114.07-9.21,152.34-27.63,130.27-63.91,171.48-64.49c50.78-.7,176.63,8.51,237,2.13S1732.94,669,1766.06,669s139.83-14.88,184-22,192.82-8.5,192.82-8.5Z"/><rect class="cls-7" x="921.72" y="889.31" width="1227.09" height="2.98" rx="1.33"/><rect class="cls-7" x="898.96" y="625.51" width="44.89" height="2.34" rx="1.05"/><rect class="cls-7" x="1593.65" y="901.56" width="155.76" height="1.95" rx="0.87"/><rect class="cls-7" x="1715.91" y="920.6" width="101.88" height="1.95" rx="0.87"/><rect class="cls-7" x="1786.96" y="910.02" width="103.21" height="1.95" rx="0.87"/><rect class="cls-7" x="1838.57" y="899.44" width="77.88" height="1.95" rx="0.87"/><rect class="cls-7" x="1762.72" y="895.46" width="43.42" height="1.95" rx="0.87"/><rect class="cls-7" x="11.07" y="1014.45" width="134.63" height="1.95" rx="0.87"/><rect class="cls-7" x="94.77" y="1027.26" width="88.06" height="1.95" rx="0.87"/><rect class="cls-7" x="167.21" y="1020.37" width="89.21" height="1.95" rx="0.87"/><rect class="cls-7" x="222.76" y="1009.58" width="67.32" height="1.95" rx="0.87"/><rect class="cls-7" x="157.21" y="1013.47" width="57.79" height="1.95" rx="0.87"/><rect class="cls-7" x="2.07" y="1021.61" width="57.79" height="1.95" rx="0.87"/><rect class="cls-7" x="740.33" y="714.6" width="44.89" height="1.95" rx="0.87"/><rect class="cls-7" x="777.38" y="720.62" width="29.37" height="1.95" rx="0.87"/><rect class="cls-7" x="795.82" y="717.12" width="29.75" height="1.95" rx="0.87"/><rect class="cls-7" x="810.92" y="712.48" width="22.45" height="1.95" rx="0.87"/><rect class="cls-7" x="1340.61" y="702.2" width="29.37" height="1.95" rx="0.87"/><rect class="cls-7" x="1376.62" y="700.25" width="32.47" height="1.95" rx="0.87"/><rect class="cls-7" x="1362.75" y="696.18" width="22.45" height="1.95" rx="0.87"/><rect class="cls-7" x="789.06" y="713.62" width="12.52" height="1.95" rx="0.87"/><rect class="cls-7" x="890.05" y="628.96" width="12.52" height="1.95" rx="0.87"/><path class="cls-7" d="M942.56,621.07h7.69a.87.87,0,0,1,.87.87v.2a.87.87,0,0,1-.87.87h-7.69a0,0,0,0,1,0,0v-2A0,0,0,0,1,942.56,621.07Z"/><path class="cls-3" d="M276,291v0H60a53.73,53.73,0,0,1,67.3-47.47,53.69,53.69,0,0,1,80.51-15.17,53.73,53.73,0,0,1,69.77,51.23A41.52,41.52,0,0,1,276,291Z"/><path class="cls-4" d="M276.05,291v0H63.36c2.21-25.43,25-45.41,52.68-45.41a56.7,56.7,0,0,1,13.59,1.65c9.09-15,26.27-25,46-25a54.88,54.88,0,0,1,33.31,11.06A56.1,56.1,0,0,1,224.75,231c29.2,0,52.86,22.15,52.86,49.48A36.47,36.47,0,0,1,276.05,291Z"/><path class="cls-3" d="M358.55,116.26v0h216a53.73,53.73,0,0,0-67.3-47.47A53.7,53.7,0,0,0,426.73,53.6,53.72,53.72,0,0,0,357,104.83,41.9,41.9,0,0,0,358.55,116.26Z"/><path class="cls-4" d="M358.53,116.26H571.21c-2.21-25.43-25-45.42-52.68-45.42a56.26,56.26,0,0,0-13.59,1.66c-9.09-15-26.27-25-46-25A54.9,54.9,0,0,0,425.66,58.5a56.1,56.1,0,0,0-15.84-2.26c-29.19,0-52.85,22.15-52.85,49.48A36.13,36.13,0,0,0,358.53,116.26Z"/><path class="cls-3" d="M403.79,189.38H270.28a32,32,0,0,1,48-27.74,32.07,32.07,0,0,1,35.28,2.16,32,32,0,0,1,50.19,25.58Z"/><path class="cls-4" d="M403.79,189.38H272.51c0-16.38,14.1-29.67,31.49-29.67a33,33,0,0,1,15.75,4,33,33,0,0,1,15.74-4,32.62,32.62,0,0,1,18.95,6,32.72,32.72,0,0,1,17.87-5.24C389.44,160.44,403.37,173.33,403.79,189.38Z"/><path class="cls-3" d="M2177.38,284.34v0h-216a53.7,53.7,0,0,1,67.3-47.46,53.7,53.7,0,0,1,80.51-15.18A53.73,53.73,0,0,1,2179,272.91,41.52,41.52,0,0,1,2177.38,284.34Z"/><path class="cls-4" d="M2177.41,284.34H1964.72c2.21-25.43,25-45.42,52.68-45.42a56.2,56.2,0,0,1,13.59,1.66c9.09-15,26.27-25,46-25a54.88,54.88,0,0,1,33.31,11.06,56.1,56.1,0,0,1,15.84-2.26c29.2,0,52.86,22.15,52.86,49.48A36.47,36.47,0,0,1,2177.41,284.34Z"/><path class="cls-3" d="M2151.42,377.34H2017.9a32,32,0,0,1,48-27.74,32.07,32.07,0,0,1,35.28,2.16,32,32,0,0,1,50.2,25.58Z"/><path class="cls-4" d="M2151.42,377.34H2020.13c0-16.39,14.1-29.68,31.5-29.68a32.88,32.88,0,0,1,15.74,4,32.89,32.89,0,0,1,15.75-4,32.53,32.53,0,0,1,18.94,6,32.64,32.64,0,0,1,17.87-5.25C2137.07,348.39,2151,361.29,2151.42,377.34Z"/><path class="cls-13" d="M403.8,189.38v.79c0-.26,0-.53,0-.79Z"/><rect class="cls-4" x="1638.02" y="854.45" width="55.51" height="30.84"/><path class="cls-4" d="M1712,984.65V975h-4.58V944.33H1712V932h-93.4v12.34h5.8l-.15,30.67h-5.65v9.65h-8.49v14.61h110.68V984.65Zm-71.43-40.32h51.62V975h-51.77Z"/><path class="cls-4" d="M1742.9,1164.37v-19h-8.08v-48.2h8.08v-18.34H1588.69v18.34h8.4v48.2h-8.39v19h-14.63v27.33h64.68v-27.33h14.3v27.33H1756v-27.33Zm-122.19-19v-48.2h89.55v48.2Z"/><polygon class="cls-4" points="1562.89 1164.35 1562.89 1191.71 1528.68 1191.71 1528.68 1164.35 1537.7 1164.35 1537.7 1078.85 1552.94 1078.85 1552.94 1164.35 1562.89 1164.35"/><polygon class="cls-4" points="1803.84 1164.35 1803.84 1191.71 1768.08 1191.71 1768.08 1164.35 1779.9 1164.35 1779.9 1078.85 1793.59 1078.85 1793.59 1164.35 1803.84 1164.35"/><path class="cls-8" d="M1645.9,827.44h38.59s15.37,16.31,48,11.18c0,0-2.79,11.15-17.7,15.83h-96.14a45.13,45.13,0,0,1-19-16.29S1629.21,842.82,1645.9,827.44Z"/><path class="cls-8" d="M1632.53,885.29h67.31s13.07,24.63,76,22.77c0,0-9.92,22.7-32.92,23.93H1585.23s-24.51-7.62-32.3-25.79C1552.93,906.2,1609.93,911.92,1632.53,885.29Z"/><path class="cls-8" d="M1482.71,1035.74s97,2.52,127.43-36.48h110.69s17.25,34.22,127.69,36.52c0,0-10.15,30.26-54.94,43.07H1534S1491.09,1063.24,1482.71,1035.74Z"/><rect class="cls-8" x="865.38" y="709.87" width="3.49" height="0.94"/><rect class="cls-8" x="874.11" y="709.87" width="3.49" height="0.94"/><rect class="cls-8" x="884.57" y="709.87" width="3.49" height="0.94"/><polygon class="cls-8" points="1159.27 689.42 1156.43 691.67 1155.1 689.99 1155.82 689.42 1159.27 689.42"/><rect class="cls-8" x="1190.59" y="689.42" width="1.74" height="1.52"/><rect class="cls-8" x="1199.88" y="689.42" width="1.75" height="0.48"/><rect class="cls-8" x="1208.99" y="689.42" width="3.49" height="0.46"/><rect class="cls-8" x="884.57" y="709.87" width="3.49" height="0.94"/><rect class="cls-8" x="874.11" y="709.87" width="3.49" height="0.94"/><rect class="cls-8" x="865.38" y="709.87" width="3.49" height="0.94"/><path class="cls-8" d="M1212.48,689.42v.46H1209v-.46h-7.36v.48h-1.75v-.48h-7.55v1.52h-1.74v-1.52h-8.24v-9.49h8.24v9.49h1.74v-9.49h7.55v9.49h1.75v-9.49H1209v9.49h3.49V677.67h-41.87l-14.79,11.75h3.45l11.34-9v9h-11.34l-2.84,2.25L1155.1,690l.72-.57h-9.63V609.65h-3.49v79.77H1125l-31.12,16.07V677.67h-22.68V656.74h3.49v-5.23h-20.92V628.84h1.74a3.49,3.49,0,0,0-7,0h1.75v22.67h-20.94v5.23h3.49v20.93h-22.67v32.2h-8.72V698.6H987.48v11.27h-5.24v-9.52h-14v9.52h-5.23V698.6H949.11v11.27h-3.49v-20H910.73V656.74H905.5v33.14H889.81v3.49h3.48v7H865.38v9.52h3.49v-6h5.24v6h3.49v-6h7v6h3.49v-6h5.23v6h-5.23v.94h-3.49v-.94h-7v.94h-3.49v-.94h-5.24v.94h-3.49V756.6h302.87l16.13-19.71,38.14-47.47Zm-40.12,0v-9.49h8.24v9.49Z"/><rect class="cls-8" x="1208.99" y="689.42" width="3.49" height="0.46"/><rect class="cls-8" x="1199.88" y="689.42" width="1.75" height="0.48"/><rect class="cls-8" x="1190.59" y="689.42" width="1.74" height="1.52"/><polygon class="cls-8" points="1159.27 689.42 1156.43 691.67 1155.1 689.99 1155.82 689.42 1159.27 689.42"/><path class="cls-14" d="M44.71,711.69c0,14.53-3.14,27.79-8.33,37.92,5.19,10.13,8.33,23.39,8.33,37.91,0,31.8-15.06,57.58-33.64,57.58s-33.65-25.78-33.65-57.58c0-14.52,3.14-27.78,8.33-37.91-5.19-10.13-8.33-23.39-8.33-37.92a90.3,90.3,0,0,1,4.51-28.78,90.41,90.41,0,0,1-4.51-28.79c0-31.8,15.07-57.58,33.65-57.58s33.64,25.78,33.64,57.58a90.7,90.7,0,0,1-4.5,28.79A90.59,90.59,0,0,1,44.71,711.69Z"/><path class="cls-8" d="M10.85,657.1h.44A1.89,1.89,0,0,1,13.18,659V896.25a0,0,0,0,1,0,0H9a0,0,0,0,1,0,0V659A1.89,1.89,0,0,1,10.85,657.1Z"/><path class="cls-8" d="M16.05,662.76h.44a1.89,1.89,0,0,1,1.89,1.89v12.42a0,0,0,0,1,0,0H14.16a0,0,0,0,1,0,0V664.66A1.89,1.89,0,0,1,16.05,662.76Z" transform="translate(478.47 184.71) rotate(45)"/><path class="cls-8" d="M15.29,711.26h.44a1.89,1.89,0,0,1,1.89,1.89v12.42a0,0,0,0,1,0,0H13.39a0,0,0,0,1,0,0V713.15A1.89,1.89,0,0,1,15.29,711.26Z" transform="translate(512.54 199.45) rotate(45)"/><path class="cls-8" d="M16.49,767.18h.44a1.89,1.89,0,0,1,1.89,1.89v12.42a0,0,0,0,1,0,0H14.59a0,0,0,0,1,0,0V769.07A1.89,1.89,0,0,1,16.49,767.18Z" transform="translate(552.43 214.98) rotate(45)"/><path class="cls-8" d="M4.51,737.75H8.74a0,0,0,0,1,0,0v12.42a1.89,1.89,0,0,1-1.89,1.89H6.4a1.89,1.89,0,0,1-1.89-1.89V737.75A0,0,0,0,1,4.51,737.75Z" transform="translate(538.04 1266.96) rotate(135)"/><path class="cls-8" d="M3.63,803.67H7.86a0,0,0,0,1,0,0v12.42A1.89,1.89,0,0,1,6,818H5.53a1.89,1.89,0,0,1-1.89-1.89V803.67A0,0,0,0,1,3.63,803.67Z" transform="translate(583.15 1380.1) rotate(135)"/><path class="cls-8" d="M4.07,684.76H8.3a0,0,0,0,1,0,0v12.42a1.89,1.89,0,0,1-1.89,1.89H6a1.89,1.89,0,0,1-1.89-1.89V684.76A0,0,0,0,1,4.07,684.76Z" transform="translate(499.82 1176.81) rotate(135)"/><path class="cls-2" d="M248.85,514.84c0,13.39-12,24.25-26.82,24.25s-26.81-10.86-26.81-24.25,26.81-85,26.81-85S248.85,501.44,248.85,514.84Z"/><path class="cls-8" d="M221.83,490.36h.41a1.77,1.77,0,0,1,1.77,1.77v79a0,0,0,0,1,0,0h-3.95a0,0,0,0,1,0,0v-79a1.77,1.77,0,0,1,1.77-1.77Z"/><path class="cls-8" d="M223,498.37,221.31,501l-8.12-4.24a1.44,1.44,0,0,1-.61-2.06h0a1.78,1.78,0,0,1,2.28-.55Z"/><path class="cls-8" d="M222.67,522.26,221,524.87l-8.11-4.24a1.42,1.42,0,0,1-.61-2h0a1.77,1.77,0,0,1,2.27-.56Z"/><path class="cls-8" d="M221.47,510.32l1.66,2.6,8.12-4.23a1.43,1.43,0,0,0,.61-2.06h0a1.76,1.76,0,0,0-2.27-.55Z"/><path class="cls-8" d="M221.78,535.2l1.66,2.6,8.11-4.23a1.43,1.43,0,0,0,.61-2.06h0a1.75,1.75,0,0,0-2.27-.55Z"/><path class="cls-14" d="M230.1,501.17c0,18.55-17.09,33.58-38.17,33.58s-38.18-15-38.18-33.58,38.18-117.63,38.18-117.63S230.1,482.63,230.1,501.17Z"/><path class="cls-8" d="M191.64,467.29h.59a2.52,2.52,0,0,1,2.52,2.52V579.14a0,0,0,0,1,0,0h-5.62a0,0,0,0,1,0,0V469.81A2.52,2.52,0,0,1,191.64,467.29Z"/><path class="cls-8" d="M193.27,478.38,190.9,482l-11.56-5.86a2,2,0,0,1-.86-2.85h0a2.54,2.54,0,0,1,3.23-.76Z"/><path class="cls-8" d="M192.83,511.46l-2.37,3.6-11.55-5.86a2,2,0,0,1-.87-2.85h0a2.55,2.55,0,0,1,3.24-.76Z"/><path class="cls-8" d="M191.13,494.92l2.37,3.6,11.55-5.86a2,2,0,0,0,.87-2.85h0a2.55,2.55,0,0,0-3.24-.76Z"/><path class="cls-8" d="M191.56,529.36l2.37,3.61,11.56-5.87a1.94,1.94,0,0,0,.86-2.84h0a2.54,2.54,0,0,0-3.23-.76Z"/><path class="cls-14" d="M160.72,748.13c0,18.55-17.09,33.58-38.18,33.58s-38.17-15-38.17-33.58S122.54,630.5,122.54,630.5,160.72,729.59,160.72,748.13Z"/><path class="cls-8" d="M122.25,714.25h.59a2.52,2.52,0,0,1,2.52,2.52V826.1a0,0,0,0,1,0,0h-5.62a0,0,0,0,1,0,0V716.77A2.52,2.52,0,0,1,122.25,714.25Z"/><path class="cls-8" d="M123.88,725.33l-2.37,3.61L110,723.08a2,2,0,0,1-.87-2.85h0a2.55,2.55,0,0,1,3.24-.76Z"/><path class="cls-8" d="M123.45,758.41,121.08,762l-11.56-5.86a2,2,0,0,1-.86-2.85h0a2.54,2.54,0,0,1,3.23-.76Z"/><path class="cls-8" d="M121.75,741.87l2.36,3.61,11.56-5.86a2,2,0,0,0,.86-2.85h0a2.54,2.54,0,0,0-3.23-.76Z"/><path class="cls-8" d="M122.18,776.32l2.37,3.61,11.55-5.87a2,2,0,0,0,.87-2.84h0a2.56,2.56,0,0,0-3.24-.77Z"/><path class="cls-2" d="M180.57,524c0,13.4-12,24.25-26.82,24.25S126.94,537.38,126.94,524s26.81-85,26.81-85S180.57,510.59,180.57,524Z"/><path class="cls-8" d="M153.55,499.51H154a1.77,1.77,0,0,1,1.77,1.77v79a0,0,0,0,1,0,0h-3.95a0,0,0,0,1,0,0v-79a1.77,1.77,0,0,1,1.77-1.77Z"/><path class="cls-8" d="M154.69,507.52l-1.66,2.6-8.12-4.23a1.45,1.45,0,0,1-.61-2.06h0a1.77,1.77,0,0,1,2.28-.55Z"/><path class="cls-8" d="M154.39,531.41,152.72,534l-8.11-4.24a1.43,1.43,0,0,1-.61-2.06h0a1.77,1.77,0,0,1,2.27-.55Z"/><path class="cls-8" d="M153.19,519.46l1.67,2.61,8.11-4.24a1.42,1.42,0,0,0,.61-2.05h0a1.77,1.77,0,0,0-2.27-.56Z"/><path class="cls-8" d="M153.5,544.34l1.66,2.61,8.12-4.24a1.42,1.42,0,0,0,.6-2.05h0a1.76,1.76,0,0,0-2.27-.56Z"/><path class="cls-2" d="M182.54,766.59c0,13.4-12,24.25-26.81,24.25S128.92,780,128.92,766.59s26.81-85,26.81-85S182.54,753.2,182.54,766.59Z"/><path class="cls-8" d="M155.52,742.12h.41a1.77,1.77,0,0,1,1.77,1.77v79a0,0,0,0,1,0,0h-3.95a0,0,0,0,1,0,0v-79A1.77,1.77,0,0,1,155.52,742.12Z"/><path class="cls-8" d="M156.67,750.13l-1.67,2.6-8.11-4.23a1.43,1.43,0,0,1-.61-2.06h0a1.76,1.76,0,0,1,2.27-.55Z"/><path class="cls-8" d="M156.36,774l-1.66,2.61-8.12-4.24a1.45,1.45,0,0,1-.61-2.06h0a1.78,1.78,0,0,1,2.28-.55Z"/><path class="cls-8" d="M155.17,762.07l1.66,2.61,8.12-4.24a1.42,1.42,0,0,0,.6-2.05h0a1.76,1.76,0,0,0-2.27-.56Z"/><path class="cls-8" d="M155.47,787l1.67,2.61,8.11-4.24a1.42,1.42,0,0,0,.61-2.05h0a1.77,1.77,0,0,0-2.27-.56Z"/><path class="cls-2" d="M118.39,765.26a37.85,37.85,0,0,1-6.29,21.37A37.89,37.89,0,0,1,118.39,808c0,17.92-11.38,32.46-25.43,32.46S67.52,825.93,67.52,808a37.89,37.89,0,0,1,6.29-21.38,37.85,37.85,0,0,1-6.29-21.37A39.44,39.44,0,0,1,70.92,749a39.44,39.44,0,0,1-3.4-16.23c0-17.93,11.39-32.46,25.44-32.46s25.43,14.53,25.43,32.46A39.28,39.28,0,0,1,115,749,39.28,39.28,0,0,1,118.39,765.26Z"/><path class="cls-8" d="M92.79,734.48h.33a1.43,1.43,0,0,1,1.43,1.43V869.31a0,0,0,0,1,0,0h-3.2a0,0,0,0,1,0,0V735.92A1.43,1.43,0,0,1,92.79,734.48Z"/><path class="cls-8" d="M94.19,745.41l-2.26-1.69,6.53-4.86a2,2,0,0,1,2.26,0h0a1,1,0,0,1,0,1.68Z"/><path class="cls-8" d="M93.62,772.74l-2.26-1.68,6.52-4.87a2,2,0,0,1,2.26,0h0a1,1,0,0,1,0,1.69Z"/><path class="cls-8" d="M94.53,804.27l-2.27-1.69,6.53-4.86a2,2,0,0,1,2.26,0h0a1,1,0,0,1,0,1.69Z"/><path class="cls-8" d="M92.29,787.68,94.56,786,88,781.13a2,2,0,0,0-2.26,0h0a1,1,0,0,0,0,1.69Z"/><path class="cls-8" d="M91.63,824.84l2.26-1.69-6.52-4.86a2,2,0,0,0-2.26,0h0a1,1,0,0,0,0,1.69Z"/><path class="cls-8" d="M92,757.81l2.26-1.69-6.52-4.86a2,2,0,0,0-2.26,0h0a1,1,0,0,0,0,1.68Z"/><path class="cls-14" d="M93.39,731.84c0,10.56-2.29,20.19-6.06,27.55,3.77,7.37,6.06,17,6.06,27.56,0,23.11-11,41.85-24.46,41.85S44.48,810.06,44.48,787c0-10.56,2.28-20.19,6.05-27.56-3.77-7.36-6.05-17-6.05-27.55a65.81,65.81,0,0,1,3.27-20.92A65.92,65.92,0,0,1,44.48,690c0-23.11,11-41.85,24.45-41.85S93.39,666.88,93.39,690a65.64,65.64,0,0,1-3.28,20.93A65.53,65.53,0,0,1,93.39,731.84Z"/><path class="cls-8" d="M68.77,692.16h.32a1.38,1.38,0,0,1,1.38,1.38V866a0,0,0,0,1,0,0H67.4a0,0,0,0,1,0,0V693.54A1.38,1.38,0,0,1,68.77,692.16Z"/><path class="cls-8" d="M72.56,696.27h.32a1.38,1.38,0,0,1,1.38,1.38v9a0,0,0,0,1,0,0H71.18a0,0,0,0,1,0,0v-9A1.38,1.38,0,0,1,72.56,696.27Z" transform="translate(517.32 154.04) rotate(45)"/><path class="cls-8" d="M72,731.52h.32a1.38,1.38,0,0,1,1.38,1.38v9a0,0,0,0,1,0,0H70.62a0,0,0,0,1,0,0v-9A1.38,1.38,0,0,1,72,731.52Z" transform="translate(542.08 164.75) rotate(45)"/><path class="cls-8" d="M72.87,772.16h.32a1.38,1.38,0,0,1,1.38,1.38v9a0,0,0,0,1,0,0H71.5a0,0,0,0,1,0,0v-9A1.38,1.38,0,0,1,72.87,772.16Z" transform="translate(571.07 176.04) rotate(45)"/><path class="cls-8" d="M64.17,750.78h3.07a0,0,0,0,1,0,0v9a1.38,1.38,0,0,1-1.38,1.38h-.32a1.38,1.38,0,0,1-1.38-1.38v-9A0,0,0,0,1,64.17,750.78Z" transform="translate(646.72 1244.08) rotate(135)"/><path class="cls-8" d="M63.53,798.68h3.07a0,0,0,0,1,0,0v9a1.38,1.38,0,0,1-1.38,1.38h-.32a1.38,1.38,0,0,1-1.38-1.38v-9A0,0,0,0,1,63.53,798.68Z" transform="translate(679.51 1326.31) rotate(135)"/><path class="cls-8" d="M63.85,712.26h3.07a0,0,0,0,1,0,0v9a1.38,1.38,0,0,1-1.38,1.38h-.32a1.38,1.38,0,0,1-1.38-1.38v-9A0,0,0,0,1,63.85,712.26Z" transform="translate(618.95 1178.56) rotate(135)"/><path class="cls-7" d="M102.15,867.58v5.79l-4.54.37a15.7,15.7,0,0,1-6.34-.78l-9.33-3.15s-10.85,10.9-15.59,15-3.73,6.8-3.73,6.8L68,908.78l4.33,5H65l-11-29c10.18-7.16,11-15.06,11.07-17L41.32,885.54l22.49-22.66s6-6.56,7.26-15,9.83-9.82,9.83-9.82-.71,7,.79,20.5S102.15,867.58,102.15,867.58Z"/><path class="cls-15" d="M81.94,869.81l-.13,0Z"/><path class="cls-7" d="M136.35,844.21a34.81,34.81,0,0,1-8.29,20.6A35.94,35.94,0,0,0,123,872.3c-7.49,14.73-9.17,31.23-9.52,36.14a4.85,4.85,0,0,0,.6,2.66l.87,1.56H109.6c.78-12.37,6.25-36.42,7.09-40a.36.36,0,0,0-.38-.43l-6,.49c-1.57-23.38,4.64-28.33,4.64-28.33.57,7.54,7,6.83,7,6.83s.58-1.71-1.79-8.11-1.79-17.38-1.79-17.38c10.65,2.7,15.48-5.15,15.48-5.15C134.64,823,137.28,831.58,136.35,844.21Z"/><path class="cls-15" d="M81.94,869.81l-.13,0Z"/><path class="cls-16" d="M133.8,820.56s-4.83,7.85-15.48,5.15c0,0-.58,11,1.79,17.38s1.79,8.11,1.79,8.11-6.4.71-7-6.83c0,0-6.21,5-4.64,28.33h0l-7.21.59-.93.07v-5.79s-19,4.55-20.46-9-.79-20.5-.79-20.5-8.55,1.42-9.83,9.82-7.26,15-7.26,15L41.32,885.54l-3.39,2.54a14.08,14.08,0,0,0-3.21,3.37l-10.86,16a1.76,1.76,0,0,0-.23,1.41l1.17,4.37H16.47v-1.22L33.86,882.4a9.32,9.32,0,0,1,3.34-3.29C56.52,867.83,54.54,845.79,54,842a1.26,1.26,0,0,1,.3-1c5.26-5.87,13.61-7.08,19-7.18a35.08,35.08,0,0,1,7.44.71,168.65,168.65,0,0,0,21.24,3c8.08.48,11.08-3.48,12.06-5.39a4.12,4.12,0,0,0,.45-1.68l.24-4.54a.58.58,0,0,0-.51-.61c-2.28-.27-11.09-1.35-12.56-2.12-1.89-1-1.39-2.18-1.39-2.18a3.87,3.87,0,0,1,3.89-3.74c3.07-.24,9-7,11.43-9.81a3.31,3.31,0,0,1,2.71-1.17l8.63.44a3,3,0,0,1,2.61,1.8l.83,1.89a27.23,27.23,0,0,1,1,2.78l1.74,5.64C133.4,819.4,133.59,820,133.8,820.56Z"/><ellipse class="cls-17" cx="104.98" cy="819.3" rx="4.4" ry="2.27"/><circle class="cls-17" cx="120.11" cy="812.15" r="1.79"/><path class="cls-16" d="M110.29,872.71l-1.18,19.47L107.67,909l1.93,3.72H103v-4.35s2.88-10.38,1.73-19.83a133.78,133.78,0,0,0-2.59-15.12Z"/><path class="cls-16" d="M104.51,800.83s10.41-1.06,12,6.34l-4.61,5A12.29,12.29,0,0,1,104.51,800.83Z"/><path class="cls-16" d="M139.9,797.14s-10.25,3.34-11.14,10.24l2.38,4.77S142.54,806.55,139.9,797.14Z"/><path class="cls-7" d="M113.85,806.47s-4.31-4.44-7.47-4.13c0,0,1.52,6,4.84,6.52Z"/><path class="cls-7" d="M131.11,806.47s3.18-6.27,6.18-6.39c0,0-1.13,6.32-4.4,7.37Z"/><path class="cls-2" d="M58.14,839.8c0,11.73-2.54,22.45-6.73,30.63,4.19,8.18,6.73,18.89,6.73,30.63,0,25.69-12.17,46.51-27.18,46.51S3.78,926.75,3.78,901.06c0-11.74,2.54-22.45,6.73-30.63-4.19-8.18-6.73-18.9-6.73-30.63a73,73,0,0,1,3.64-23.26,73,73,0,0,1-3.64-23.26C3.78,767.59,16,746.77,31,746.77s27.18,20.82,27.18,46.51a73,73,0,0,1-3.64,23.26A73,73,0,0,1,58.14,839.8Z"/><path class="cls-8" d="M30.78,795.7h.36a1.53,1.53,0,0,1,1.53,1.53V988.9a0,0,0,0,1,0,0H29.25a0,0,0,0,1,0,0V797.23A1.53,1.53,0,0,1,30.78,795.7Z"/><path class="cls-8" d="M35,800.27h.36a1.53,1.53,0,0,1,1.53,1.53v10a0,0,0,0,1,0,0H33.46a0,0,0,0,1,0,0v-10A1.53,1.53,0,0,1,35,800.27Z" transform="translate(580.26 211.22) rotate(45)"/><path class="cls-8" d="M34.37,839.45h.36A1.53,1.53,0,0,1,36.26,841v10a0,0,0,0,1,0,0H32.84a0,0,0,0,1,0,0V841a1.53,1.53,0,0,1,1.53-1.53Z" transform="translate(607.79 223.13) rotate(45)"/><path class="cls-8" d="M35.34,884.62h.36a1.53,1.53,0,0,1,1.53,1.53v10a0,0,0,0,1,0,0H33.81a0,0,0,0,1,0,0v-10A1.53,1.53,0,0,1,35.34,884.62Z" transform="translate(640.02 235.68) rotate(45)"/><path class="cls-8" d="M25.66,860.85h3.42a0,0,0,0,1,0,0v10a1.53,1.53,0,0,1-1.53,1.53h-.36a1.53,1.53,0,0,1-1.53-1.53v-10A0,0,0,0,1,25.66,860.85Z" transform="translate(659.53 1460.08) rotate(135)"/><path class="cls-8" d="M25,914.1h3.42a0,0,0,0,1,0,0v10a1.53,1.53,0,0,1-1.53,1.53h-.36A1.53,1.53,0,0,1,25,924.14v-10A0,0,0,0,1,25,914.1Z" transform="translate(695.98 1551.49) rotate(135)"/><path class="cls-8" d="M25.31,818h3.42a0,0,0,0,1,0,0v10a1.53,1.53,0,0,1-1.53,1.53h-.36a1.53,1.53,0,0,1-1.53-1.53V818A0,0,0,0,1,25.31,818Z" transform="translate(628.65 1387.25) rotate(135)"/><path class="cls-7" d="M335.58,1031.49H307a2.25,2.25,0,0,1-1.08-.27c-1.2-.66-4-2.51-3.88-5.62a1.6,1.6,0,0,0,1.59.84l2.41,0a4.24,4.24,0,0,0,2.14-.58c1.86-1.1,6.12-3.39,10-3.87a14.07,14.07,0,0,1,9.1,2.19s1.32.44-.11-1.87a9,9,0,0,1-1.07-4,12.28,12.28,0,0,1,.28-3.47,18.37,18.37,0,0,0,.64-4.15c-.18-.81-.36-1.47-.36-1.47s.77,1.25,1.17,1.25,4.87-.67,7.77.06c2.35.59,3.06,2.29,3.06,4.31v3.64h-4.7a.09.09,0,0,0-.08.14C334.59,1019.76,339.14,1027.08,335.58,1031.49Z"/><path class="cls-13" d="M343.71,1017.85a9,9,0,0,1-3.11-.54,16.84,16.84,0,0,0-2-1.07v2.26h5.72A.65.65,0,0,0,343.71,1017.85Z"/><path class="cls-13" d="M309.15,1031.49s-.1-3.31,4.76-4.67a21.34,21.34,0,0,1,7.71-.46,15.86,15.86,0,0,1,4.12,1,3.22,3.22,0,0,0,4-.77c1.45-1.9,1.34,1.27,1.23,2.73a3.07,3.07,0,0,1-.6,1.65,1,1,0,0,1-.72.49Z"/><circle class="cls-13" cx="334.92" cy="1015.29" r="1.36"/><circle class="cls-7" cx="334.92" cy="1015.29" r="0.5"/><path class="cls-7" d="M247.12,715.67h21.46a1.6,1.6,0,0,0,.81-.2c.91-.49,3-1.89,2.91-4.22a1.2,1.2,0,0,1-1.19.63H269.3a3,3,0,0,1-1.6-.43,22,22,0,0,0-7.5-2.9,10.48,10.48,0,0,0-6.83,1.64s-1,.33.08-1.4a6.73,6.73,0,0,0,.8-3,9.09,9.09,0,0,0-.21-2.6,14.26,14.26,0,0,1-.48-3.12c.14-.6.27-1.1.27-1.1s-.57.94-.88.94a20,20,0,0,0-5.83,0,3,3,0,0,0-2.3,3.24v2.73h3.53a.07.07,0,0,1,.06.11C247.86,706.87,244.45,712.36,247.12,715.67Z"/><path class="cls-13" d="M241,705.43a7,7,0,0,0,2.34-.4,14.13,14.13,0,0,1,1.46-.81v1.7h-4.29A.49.49,0,0,1,241,705.43Z"/><path class="cls-16" d="M267,715.67s.07-2.49-3.57-3.51a16.44,16.44,0,0,0-5.79-.34,11.78,11.78,0,0,0-3.09.78,2.44,2.44,0,0,1-3-.58c-1.08-1.43-1,1-.92,2.05a2.28,2.28,0,0,0,.45,1.23.78.78,0,0,0,.55.37Z"/><circle class="cls-16" cx="247.62" cy="703.51" r="1.02"/><circle class="cls-7" cx="247.62" cy="703.51" r="0.38"/><path class="cls-7" d="M1014.19,957.57V954.1s12,1,13.54,2.35S1014.19,957.57,1014.19,957.57Z"/><path class="cls-13" d="M1014.19,954.1a13.78,13.78,0,0,0-6.28-.84c-2.92.49-3.53,2.07-3.53,4.33v6.77s.68,2.71,4,1.47a.65.65,0,0,1,.87.61v5.83a.26.26,0,0,1-.4.22c-1.12-.73-4.28-2.59-6.45-1.8-2.69,1-4.64,1.47-8,11.1-2.36,6.65-3.32,9.05-3.69,9.91a.11.11,0,0,0,.18.13l3.15-2.58a.36.36,0,0,1,.57.23l.49,3.29a.07.07,0,0,0,.14,0l2.58-4.95a1.91,1.91,0,0,1,1.46-1c3-.37,12.21-2.5,14.8-14.6a11.94,11.94,0,0,1,.29-1.18c.63-2.22,2.66-11-5.34-9.38,0,0,.37-4.1,5.18-4.1Z"/><circle class="cls-7" cx="1011.81" cy="955.54" r="1.15"/><circle class="cls-13" cx="1011.81" cy="955.54" r="0.6"/><polygon class="cls-7" points="1005.51 984.75 1006.22 1003.16 1005.51 1003.16 1004.54 985.26 1005.51 984.75"/><polygon class="cls-7" points="1001.85 986.29 999.67 1003.16 998.55 1003.16 1001.09 986.49 1001.85 986.29"/><rect class="cls-7" x="-2.65" y="1000.19" width="1018.88" height="2.98" rx="1.33"/></svg>