<svg xmlns="http://www.w3.org/2000/svg" viewBox="0 0 1113.64 765.23"><defs><style>.cls-1{fill:#bacfe4;}.cls-2{fill:#85937c;}.cls-3{fill:#66785b;}.cls-4{fill:#b3bbad;}.cls-5{fill:#8c9a84;}.cls-6{fill:#405632;}.cls-7{fill:#d9ddd6;}</style></defs><title>kaartyangtze</title><g id="Laag_6" data-name="Laag 6"><g id="Laag_4" data-name="Laag 4"><rect class="cls-1" width="1113.64" height="765.23"/></g></g><g id="Laag_1" data-name="Laag 1"><path class="cls-2" d="M472.75,883.73a1.77,1.77,0,0,1-2.59-1.79c1-7.92-.64-17.65-.64-30.6,0-14.91-4.26-24.5-9.58-28.76s-10.66-34.09-11.72-46.87-1.07-8.52-5.33-11.72-8.52-18.11-11.72-18.11,0,14.92-9.58,17-16,6.39-18.11,12.78-10.66,2.13-13.85,1.07-8.52,3.19-11.72-3.2c-3-5.93,3.23-18.27,4.15-20a1.52,1.52,0,0,0,.16-.45c.47-2.31,3.94-20.34-.05-25.33-4.26-5.32-7.46-16-9.59-19.17s-2.13,5.32-7.45,2.13c-4.19-2.51,1.5-5.69,4.12-6.93a1.78,1.78,0,0,0,1-1.93c-2.83-16.43-19-11.44-19-13.51s-3.2-5.33-6.39-7.46C342,679,330.62,660,328.27,656.05a1.76,1.76,0,0,1-.15-1.5L371,532.29a1.75,1.75,0,0,1,.39-.64l52-54.26a1.78,1.78,0,0,1,2.25-.27l92.08,59.5a1.79,1.79,0,0,1,.79,1.19L543.36,680.6a1.75,1.75,0,0,1,0,.56L524.23,809.53a1.79,1.79,0,0,1-1.05,1.37l-30.49,13.37a1.8,1.8,0,0,0-1.06,1.56l-1.09,24.95a1.1,1.1,0,0,1,0,.18l-2.35,15.71a1.82,1.82,0,0,1-.11.4L484,877.35a1.82,1.82,0,0,1-.82.91Z"/><path class="cls-3" d="M602.8,808.69s.62-.94-3.64,1.19,0-4.26-13.85-2.13-9.58-1.07-18.11,0-8.52,4.26-14.91,9.59c-5,4.21-4.78,6.42-6.55,8.21a8.11,8.11,0,0,0-1.09,9.54c2.49,4.62-1,4.45,4.44,11,5.33,6.39,2.13,13.85,2.13,13.85s-3.19,0-6.39-5.33S531,839.71,522.46,845s-8.52-2.13-9.59-4.26,2.14-3.19,2.14-9.58S501.16,828,498,829.05s-4.26,6.4-3.2,17.05-5.32,20.24-7.45,28.76-7.46,16-8.52,23.44-1.07,9.59,1.06,13.85-3.19,13.84,5.33,7.45,6.39-3.19,8.52,6.39,0,4.27,4.26,8.53,5.33,17,5.33,17H477.72l-2.13-3.19c-2.13-3.2-1.07-3.2-3.2-6.4s-4.26-4.26-7.45-3.19-1.07,8.52-4.26,9.59c-2.64.87-1.65-7-1.22-9.72a5.11,5.11,0,0,0-.1-1.91c-2.77-10.92.25-13.94.25-13.94,6.84-7.69,5.45-17.43,4.63-21a4,4,0,0,1,.34-2.73c1.46-2.83,4.62-9.46,4.62-13.57,0-5.32,7.46-8.52,12.78-11.71s6.39-23.44,0-28.77-5.32-10.65-5.32-10.65c5.32-10.65-3.2-13.85-4.27-18.11s-22.34-19.15-14.93-25.55a25,25,0,0,0,7.66-13.62c1.89-8.45,1-3.5,5.14-5.57s2.13-5.33-2.13-5.33-3.19-2.13-4.26-7.45-1.06-7.46-4.26-10.66S449,737.44,446.83,734.25s0-5.33-2.13-8.53-5.33-4.26-5.33-7.45,7.46,5.32,7.46,0-1.07-5.33,2.13-10.66-3.2-3.19,2.13-11.71,8.52,0,12.78,0,4.26-3.2,9.59-3.2-3.2-7.46,3.2-6.39,5.85-.53,6.92-5.86,2.13,3.2,6.39,0,5.94-1.93,5.94-1.93l35.81,1.93,38.15,31.78,36.32,34.68,21,44.92-15.92,17.62Z"/><path class="cls-4" d="M650.29,802.42,646,803.49c-4.26,1.06-5.32,5.32-9.58,6.39s-4.27-8.52-8.53-4.26-1.06,1.06-6.39,4.26,1.07,7.46-4.26,9.59-5.33-5.33-9.59-5.33-7.45-2.13-4.26-6.39,5.33-2.13,7.46-9.59-3.2-5.32-2.13-10.65,4.26-6.39,0-8.52,1.06-1.07-7.46-7.46-6.39-8.52-6.39-18.11-2.13-12.78-7.46-17-6.39-7.46-10.65-11.72-8.52-4.26-13.85-1.07-8.52,12.79-18.11,6.39-8.52,0-21.3,7.46-9.59,1.07-8.52,0,4.26-10.65,2.13-14.91,1.06-3.2,3.19-8.52,2.13-7.46,0-11.72,1.07-7.46-7.46-5.33-10.65,1.07-8.52-7.46-2.13-9.58-6.39-9.58-1.06-4.26,2.13-7.46,5.33-2.13,6.39-8.52,11.72-7.46,11.72-7.46l2.9-6.22-6.44-34.11h42.07l51.17,57.42,1.7,40.94,25.59,39.22,23.31,33.55Z"/><path class="cls-4" d="M265.48,650.31a1.88,1.88,0,0,1-1.91.5c-2-.61-6.11-1.79-8.49-1.79-3.2,0-7.46,9.59-8.52-2.13s-7.46,0-9.59,2.13-6.39,2.13-13.85,5.33-4.26,8.52-4.26,12.78,1.06,5.33-4.26,12.79c-4.73,6.62-13.67,8.2-15.61,8.47a2.63,2.63,0,0,0-.77.23c-3.18,1.43-24.42,11.27-28.36,21.12-4.26,10.66-16,18.11-19.18,20.24s-21.3,16-24.5,17-2.13,6.39-2.13,9.59-1.06,8.52-7.46,7.45-13.84,2.13-16,2.13-1.06,9.59-11.71,10.66-8.53,7.45-10.66,10.65,0,16-1.06,21.3,5.32,14.92,4.26,24.51-5.33,19.17-9.59,24.5,0,20.24,1.07,28.76-4.26,6.39-8.52,5.33-6.4,7.45-8.53,10.65,2.13,10.65-7.45,12.78c-7.49,1.67-11.08,11.13-12.29,15.2A7.14,7.14,0,0,1,34,933.88C16.09,949.26,10,929.16,9,928.13s-6.39-10.66-7.46-12.79,1.07,0-1.06-10.65-16-38.35-18.11-41.55-9.59-5.32-12.78-25.56-18.11-45.81-18.11-45.81-16-34.09-16-40.48-1.07-19.17-3.2-26.63a44.65,44.65,0,0,1-2.13-14.92c0-4.26,2.13-4.26-2.13-10.65s0-13.85,1.07-19.17,1.06-9.59-1.07-13.85-4.26-7.46-4.26-11.72,1.06-13.85-6.39-18.11-6.39,16-6.39,21.31-10.66,9.58-16,11.71-18.11,0-18.11,0l1-384.85H56.23L283.29,459.87,269.56,646.13Z"/><path class="cls-3" d="M339.27,639.29a.71.71,0,0,0,0,.29l2.1,9.44c2.13,9.59-1.07,12.79-4.27,9.59-2.59-2.6-3.78-1-4.14-.27a.67.67,0,0,1-.62.39c-.66,0-2.08-.57-4.82-3.31-4.26-4.27-3.2-7.46-3.2-17s-6.39-7.46-10.65-7.46-5.33,0-6.39-4.26-4.26-7.45-6.39-5.32-1.07,2.13-4.27,6.39,2.13,4.26,2.13,6.39,0,2.13-3.19,9.59-6.39,4.26-12.78,2.13,1.06,6.39-6.4,4.26c-5.8-1.66-9.66-.09-11.09.69a.68.68,0,0,1-1-.46,10.06,10.06,0,0,1,.36-4.49c1.06-4.26,0-5.33,0-8.52s-2.13-6.4-3.2-10.66,2.13-4.26,1.07-7.45,0-2.13-3.2-2.13,0-5.33,0-6.4-7.46-3.19-3.2-6.39,2.13-6.39,1.07-10.65-8.52-3.2-10.65-5.33-2.13-7.45,2.13-7.45,3.19-3.2,3.19-6.39,8.53-1.07,10.66-4.27-20.24-10.65-14.92-14.91a19.06,19.06,0,0,0,6.31-10.23.66.66,0,0,1,.52-.51l15.31-3a.7.7,0,0,1,.32,0l51.45,15.24a.76.76,0,0,1,.23.13l29.57,24a.67.67,0,0,1,.24.66Z"/><path class="cls-3" d="M-31.68,295.1s-1.93-6.14-13.65-.81c-7.88,3.58-9.5.9-9.71-1.24a2.74,2.74,0,0,0-2.33-2.49c-8.91-1.16-13.06,7.18-19.92,10.12-7.45,3.2-10.65,8.52-19.17,8.52-7.46,0-4.31-22.05-3.41-27.53a1.1,1.1,0,0,0-1-1.27c-5-.39-4.1-3.16-4.1-3.16,2.13-9.58-5.33-10.65-9.59-10.65s-8.52,8.52-8.52,8.52V231.83l82.8,3.69L6.1,294.64l-33.67,3.7Z"/><path class="cls-2" d="M1040.18,282.57c5.21,2.09,26.74,20.48,5.73,20.28a1.86,1.86,0,0,0-1.87,1.54,9,9,0,0,0,2.54,8c4.26,4.26,5.32,13.85,4.26,17s-3.2,2.13-3.2,6.39,1.07,2.13-2.13,7.46-3.2,3.2-4.26,7.46,3.2,12.78,11.72,12.78,12.78-6.39,18.11-7.46,18.11-12.78,27.69-8.52,13.85-18.11,11.72-25.56,1.07-22.37-2.13-25.57-14.91-22.37-14.91-22.37a89.45,89.45,0,0,0-6.64-11.41L1053,266.7Z"/><path class="cls-3" d="M663.12,652.62s-7,8.65-14.42,12.92-5.33-1.07-9.59,3.19-2.13,6.39-6.39,11.72S621,685.78,618.87,691.1s-1.07,2.13-2.13,8.52-3.2,6.4-2.13,11.72,2.66,6.93,10.12,15.45,2.13,10.65,10.65,17,13.85,20.24,25.57,24.5,6.39,7.46,13.85,18.11,11.71,16,10.65,26.64,9.59,20.24,6.39,27.69-4.26,5.33-4.26,21.31-13.85,16-18.11,18.11S652.43,894,639.64,893c0,0-2.13-1.06-2.13,8.52s-5.33,6.4-9.59,9.59-5.32,6.39-16,7.46-10.65,21.3-14.91,6.39,3.2-14.91,2.13-20.24,1.07-6.39-4.26-8.52-6.39-1.07-6.39-3.2,11.35-2.12,10.88-9.26a1.13,1.13,0,0,1,1.23-1.18,23.4,23.4,0,0,0,9.19-1.28c6.4-2.13,5.33,5.33,10.66,3.2s3.19-3.2-3.2-10.65,5.33-10.66,9.59-8.53-2.13-6.39,3.19-6.39,9.59,0,12.79-3.19,6.39,1.06,8.52-3.2-2.13-4.26,0-11.72,6.39-6.39,2.13-14.91-8.52-8.52-5.33-16,1.07-11.72,4.27-14.91,1.06-6.4-3.2-11.72,0-5.33-1.07-8.52-3.19-4.26-7.45-7.46,0-3.2-4.26-3.2-4.27,2.13-4.27-4.26S624.73,746,621.53,746s-6.39-4.26-7.45-8.52-5.33-11.72-10.66-11.72,3.2-10.65-1.06-10.65-26.63-7.46-24.5-11.72S575.73,697,580,695.9c0,0,12.78,1.06,13.85-4.27s6.39-3.19,4.26-5.32-4.26-6.39-8.53-7.46,0-4.26,1.07-6.39S584.25,665,580,667.13s-4.26,8.53-8.53,6.4-4.26,0-8.52-3.2-7.45-5.33-7.45-12.78-1.07-7.46-3.2-7.46-5.33-4.26-8.52-8.52l-3.2-4.26-4.31-20.59,39.23-19.9,77.89,20.47Z"/><path class="cls-4" d="M247.44,539l-2.28.67-5.34-9.24,5.34-25.95,55.49-27.91,113.59-21.32,23.53,50.52s2.13,5.32,3.2,6.39-4.18.15-8.52,4.26a2.59,2.59,0,0,0-1.06,2.87,36.06,36.06,0,0,1,1.06,3.52c2.13,8.52-.54,4.79-8,3.73s-12.79,0-18.11,5.32-8.52,6.4-12.79,10.66,0,6.39-2.13,12.78,1.07,7.46-4.26,11.72-8.52,2.13-5.32,7.46-6.4,17-8.53,23.43-11.71-4.26-14.91,0,1.07,13.85-1.07,19.18-8.52,3.19-8.52,7.45,7.46,9.59,3.2,14.92-6.39,4.26-9.59,2.13-4.26-2.13-4.26-10.66-2.13-6.39-3.2-12.78-2.13-17-9.58-8.52,0,12.78-3.2,12.78-9.59-1.06-9.59-5.32-2.13-11.72-1.06-13.85,2.13-2.13,7.46-5.33,8.52-2.13,10.65-6.39,2.13-10.65,5.32-10.65-2.13-4.26-6.39-5.33-40.48,1.07-43.67-3.2-3.2-17-4.26-18.11,0-4.26-5.33,2.14-9.59-14.92-10.65-10.66-2.13,8.52-10.66-1.06"/><path class="cls-3" d="M261.39,528.41c-.08,8.29,4.34,6.63,8.6,7.7s9.59,4.26,13.85,5.32,7.46-5.32,11.72-6.39,5.44,5.65,13.85,4.26c7.8-1.28,2.13-1.06,9.59-1.06s7.45,4.26,9.58-4.27c1.39-5.54.52-8.38-.26-9.69a1.87,1.87,0,0,0-1.69-.89c-8.49.42-5.44-8.12-5.44-8.12l2.72-18.61H275.78l-11.11,18.81Z"/><path class="cls-3" d="M247.44,539s4.44,7.78-3,7.78H233.77c-5.32,0-9.58-6.39-12.78-4.26s-10.65,2.13-13.85-1.07-4.26,4.26-8.52,1.07-3.2-6.39-9.59-3.2-2.13-8.52-6.39-6.39-7.46,3.2-8.52-4.26-3.2-2.13-7.46-3.2-5.33-4.26-7.46-2.13-3.19-2.13-10.65,0-8.52-2.13-10.65-3.19-5.33-4.26-8.52-3.2-5.33-4.26-8.53-4.26-8.52,1.06-17-6.39-10.65-10.65-14.91-9.59-7.46-1.06-8.53-3.2-1.06-4.26,1.07-8.52,0-6.39,2.13-9.59,3.9-8.81,13.14-14.52l10.44-18.07,138.34,70.94-1.06,13.85c-.71,9.17,0,9.47,3,11.4"/><path class="cls-5" d="M-53.31,242.22s-6.93-.13-10.13,2-13.85-3.19-16-1.06-1.06,3.19-4.26,4.26-2.13-3.2-4.26-3.2-2.13,2.13-4.26,2.13-2.13-4.26-3.2-4.26-4.26,0-4.26-3.2-8.52,0-9.58,2.14-2.13,4.26-5.33,2.13-2.13-4.27-5.33-4.27h-3.19V146.48l196.77-3.39,19.94,42L33.4,249.52Z"/><path class="cls-6" d="M720.7,697.93a6,6,0,0,0-2.64-9.85c-2.13-.68-5.11-.86-9.18.36-10.65,3.19-12.78-1.07-16,2.13s-16,9.59-16,17,1.06,9.59,3.19,11.72,8.52,3.2,10.65,5.33,22.38-6.39,23.44-13.85,3.2-9.59,6.39-12.78Z"/><path class="cls-6" d="M943.24,574.46s-27.69,21.3-27.69,42.61,10.65,19.17,11.72,24.5,2.13,1.06,3.19-5.33,7.46-8.52,8.52-11.72,4.26-4.26,4.26-14.91,6.4-18.11,6.4-19.18,4.26-11.71,0-14.91S943.24,574.46,943.24,574.46Z"/><path class="cls-2" d="M1044.1,392a3.26,3.26,0,0,1,.53-5.34c2.63-1.41,7-3.18,10.47-1.79,5.32,2.13-2.13,4.26-4.26,5.32s-5.33,3.2-6.39,2.13Z"/><path class="cls-3" d="M1131.8,157.93a124.49,124.49,0,0,1,1.06,13.85c-6.39,3.2-9.58,8.52-14.91,13.85s-2.13,8.52-1.07,17.05-29.82,23.43-30.89,24.5-8.52,2.13-16,8.52-2.13,13.85,6.39,17c3.71,1.39,7.41,5.59,10.41,9.9a27.07,27.07,0,0,1-9.87,8.75c-6.4,3.19-6.4-2.14-14.92-1.07s-9.59,5.33-9.59,11.72-11.46.9-11.46.9l-.79-.37c-5.32-2.13-10.65-2.13-19.17-2.13s-5.33-13.85-2.13-14.91a4.66,4.66,0,0,0,3.19-4.26c0-8.53-1.06-7.46,3.2-12.79s0-6.39-4.26-9.59a28.73,28.73,0,0,0-16-5.32c-4.18,0-2.46.65-8.72.94l5.11-36.63,126.68-48.44Z"/><path class="cls-3" d="M81.44,173.91s-11.72-5.32-19.18-8.52,2.14-7.46-10.65-7.46S-7,152.61-11.24,155.8-16.57,163.26-23,159s-29.82-20.24-33-1.07-9.59,6.4-17,5.33-25.57-6.39-33,1.07-3.19,8.52-6.39,9.58-10.65,4.26-10.65,4.26L-123,0H947.51L901.69,156.2l-418.4,87.36Z"/><path class="cls-3" d="M919.06,765.23a126.12,126.12,0,0,0,2.74-21.47c.38-11.29.75-12.8,1.88-16.19s-.75-12,6.4-9.78a78.21,78.21,0,0,1,17.69,8.14c4.72,2.77,7.83-4.06,8.94-7.12a1.37,1.37,0,0,1,2.27-.5c1.06,1.11,1.91,3.62.45,9.26-2.52,9.74-2.57,12.91,3,18.79a3.48,3.48,0,0,1,.93,1.91c.43,3,1.39,11.49-.16,17Z"/></g><g id="Laag_2" data-name="Laag 2"><path class="cls-6" d="M1121,.1a2.61,2.61,0,0,1,.48,0c1.18.23,6.51,1.31,10.28,2.25,4.26,1.07-1.07,5.33,2.13,8.53s3.19,3.19,2.13,6.39-2.13,4.26,1.06,8.52,1.07,4.26,4.26,6.39,28.77,4.26,34.09-3.19,6.4-5.33,14.92-6.4,9.58-4.26,19.17-7.45,7.46,1.06,7.46,4.26a48.71,48.71,0,0,1-.8,7.09,2.54,2.54,0,0,0,.84,2.31c5.53,4.91-1.4,8.83-6.43,10.84-5.33,2.13-2.13,7.46-5.33,10.65s-1.06,7.46-3.19,11.72,0,5.33-3.2,11.72-2.13,9.58-9.59,13.85-2.13,11.71-8.52,13.84-20.24-13.84-22.37-8.52-9.59,10.66-14.91,10.66-2.14,4.26,1.06,13.84,2.13,2.13,2.13,9.59-1.06,3.2-1.06,12.78-2.13,3.2-1.07,10.66-9.59,7.45-12.78,7.45,1.06,13.85-6.39,2.13-9.59-2.13-8.53,5.33-7.45,3.2-11.71,3.2,1.06,6.39-6.4,9.58-14.91,0-18.11,3.2,2.13,6.39,3.2,10.65-19.17,5.33-23.44-3.19-9.58-1.07-11.71,0-2.13,3.19-3.44,9-12.54,10.12-21.07,14.38c-5.15,2.58-10.7,5.94-14.28,8.19a17.59,17.59,0,0,0-5.41,5.35,33.55,33.55,0,0,1-6.72,7.54,5.27,5.27,0,0,1-3.24,1.23c-1.47,0-3.27.06-5.5.06-14.91,0-27.7,8.53-32,13.85s-5.32,7.46-16,9.59,0-4.26,5.33-8.52,1.07-5.33-3.2-5.33-4.26-3.19-3.19-5.33,4.26-2.13,4.26-5.32,3.2-2.13,5.33-3.2,10.65-8.52,9.58-13.85-3.19-6.39-6.39-8.52-5.32,1.07-12.78-1.06-8.52,3.19-13.85,13.84-10.65,6.4-17,7.46-10.66,9.59-12.79,16-13.85,9.59-21.3,6.39-7.46,0-11.72,5.33,0,10.65,4.26,14.91,10.65,4.26,18.11,3.2,6.39,3.19,7.46,5.32-7.46,13.85,2.13,18.11,19.17-5.32,22.37-9.58,10.65-9.59,16-4.26,25.56,7.45,28.76,7.45,3.19,0,4.26,3.2-3.2,2.13-3.2,5.33,0,8.52-3.19,6.39-6.39-2.13-8.52,0-6.4,2.13-11.72,2.13-12.78,4.26-12.78,10.65-5.33,4.26-10.66,6.39-14.91,16-19.17,22.37,2.13,10.65,7.45,11.72,9.59,5.33,12.79,7.46,1.06,4.26,2.13,8.52,3.19,5.33,5.32,9.59,2.14,5.32,5.33,8.52,0,7.46,3.2,11.72,6.39,2.13,8.52,6.39,3.19,5.32,8.52,10.65,2.13,8.52-5.33,4.26-13.84-4.26-12.78-3.19,3.2,6.39,5.33,8.52,8.52,3.19,13.85,8.52-5.33,7.46-11.72,9.59-8.52,5.32-11.72,7.46-5.33,0-5.33,2.13,4.27,3.19,9.59,1.06,8.52,0,11.72,3.2,3.2,2.13,8.52,1.06,8.52,3.2,3.2,5.33-2.13,13.85-4.26,14.91a7.2,7.2,0,0,0-4.26,6.39c0,3.2,0,6.4-6.4,11.72S918.74,534,918.74,534,907,551,906,556.35s-4.26,16-8.52,18.11c-2.33,1.16-4.34,2.32-5.68,3.14a7.36,7.36,0,0,0-2.63,2.74c-2.92,5.31-5.92,8-9.8,8-4.26,0-5.33,0-6.39,5.33s-9.59,13.85-16,14.91-11.72,6.4-17.05,13.85-26.63,6.39-28.76,4.26-4.26,4.26-9.59,3.2-8.52,20.24-16,6.39-6.39-1.06-7.45,3.2-6.39,4.26-10.66,5.32-5.32,5.33-10.65,6.39-7.46,0-11.72,0-3.19,1.07-12.78,3.2-17,6.39-20.24,9.59-4.26,3.19,0,8.52,3.2,4.26,1.07,6.39-5.33,2.13-10.66,0-5.32-8.52-4.26-18.11-4.26-4.26-11.72-3.19-7.45-5.33-12.78-5.33-7.46,1.07-13.85,0-13.85,6.39-16-1.07-6.39-6.39-10.65-7.45-5.33-5.33,0-11.72,4.26-4.26-2.13-6.39-10.65-2.13-19.18-5.33-6.39-5.32-14.91,2.13-8.52,5.33-14.91,5.33-3.2,4.26-10.66,3.19-2.13-9.58-8.52-2.13-8.52,3.2-14.91-2.13-6.39,7.46-7.46,10.66-19.17-8.53-12.78,3.19a23.46,23.46,0,0,1,1.54,20.28,2.54,2.54,0,0,1-1.52,1.42c-4.58,1.57-6.63.24-9.61-5.72-3.19-6.39-2.13-7.46-7.46-2.13s-11.71-1.06-16-2.13,3.2-6.39-5.32-8.52-13.85-2.13-11.72-5.33,3.2-4.26,3.2-9.59,4.26-4.26,2.13-8.52-11.72,1.07-10.66-3.19-3.19-6.4-5.32-10.66,2.13-5.32,2.13-7.45-10.65-5.33-18.11,1.06-11.72,1.07-6.39-1.06-1.07-7.46-2.13-11.72,4.26-3.2,4.26-7.46,0-6.39,5.32-6.39,1.07-5.33,2.13-8.52,7.46,5.32,7.46,0,2.13-3.2,4.26-6.39-1.06-2.13,1.07-5.33,1.06-10.65,1.06-19.18-2.13-22.37-6.39-16c-3.41,5.11-4.09,2.72-4.23,1.56a10.46,10.46,0,0,0-.19-1.23c-4.29-18.47-11.61-19.51-15.82-19.51s-1.06,6.39-3.19,7.46,0-2.13-10.66-2.13-3.19,0-9.58-11.72-3.2-14.91-19.18-10.65-8.52-9.59-21.3-2.13-22.38,16-28.77,18.11-9.58,13.84-21.3,18.11-3.2-10.66-13.85-7.46-8.52,1.06-17.05,2.13-1.06-4.26-12.78-6.39-24.5,39.41-22.37,19.17S254,509.47,254,509.47s-22.37,12.79-28.76,4.26-10.65-4.26-13.85-1.06-4.26-4.26-6.39-5.33,0,3.2-2.13,6.39-4.26-8.52-7.46-8.52-9.58,0-11.71-2.13,3.19-7.45,1.06-6.39c-1.41.71-5.62.94-8.3,1a9.35,9.35,0,0,1-7.94-3.85c-4.4-6.21-2.45-16.47-8.26-13.15-7.46,4.26-8.52,2.13-12.78-1.06s-2.13-5.33-7.46-6.4-9.59-6.39-13.85-7.45-10.65-17.05-17-9.59-9.59,9.59-10.66,7.46-2.13-4.26-8.52-7.46-9.59-8.52-11.72-11.72-7.45,1.07-13.84-3.19-3.2-6.4-5.33-8.53-12.78,8.53-8.52,0-1.07-13.84-6.39-20.24,3.19-14.91,7.45-6.39,9.59,2.13,10.65,2.13,6.4-3.19,6.4-6.39-5.33-7.46-9.59-10.65-3.2-4.26-4.26-10.65,3.19-5.33,7.45-7.46,5.33-8.52,4.27-11.72S70.79,355,74,353.94s4.26-6.39,5.33-7.45,2.13-4.26,3.19-10.66-4.26-3.19-4.26-6.39-11.71-6.39-13.84-5.32-10.66,4.26-16,4.26S35.63,335.83,33.5,338,25,336.9,21.78,336.9,17.52,328.38,9,327.31c-7-.87-14-8.19-16.26-10.8a17,17,0,0,1-1.12-1.42c-.95-1.36-3.87-5-8.19-5.89-5.32-1.06-4.26-2.13-4.26-6.39s-2.13-1.06-12.78-2.13-5.33-7.46,3.2-5.33S-23,290-25.09,290l-.45,0A4.18,4.18,0,0,1-29,285.2l.22-1.56a7.51,7.51,0,0,0-1.1-4.9,13.72,13.72,0,0,1-1.56-5.44,16.75,16.75,0,0,1,0-2.24c.23-5.16-2.49-7.3-5.1-8.17a10.49,10.49,0,0,0-6.32,0c-9.41,2.75-11-2.17-11.1-5.07a3.3,3.3,0,0,1,1-2.61l.07-.06a2.7,2.7,0,0,0-.63-4.28,5.18,5.18,0,0,1-2.83-4.66,3.33,3.33,0,0,1,1.49-2.67c1.57-1.1,4.18-3.71,4.18-8.93,0-5.94,8.12-8.5,11.42-9.29a5.76,5.76,0,0,0,2.4-1.25,17.16,17.16,0,0,1,3.22-2.24c2.13-1.07,2.13-3.2,3.2-5.33.74-1.49,4.62-.89,6.88-.4a4.11,4.11,0,0,0,3-.47,16,16,0,0,1,3.17-1.5,2.42,2.42,0,0,1,3.11,2c1.22,9.48,4.3,5.51,8.33,2.48,4.26-3.19,12.78,4.27,12.78-4.26s6.39-10.65,10.65-11.71,21.31,1.06,22.37-2.14c.92-2.75,5.79-6.29,7.12-7.22a6.58,6.58,0,0,1,.67-.4L73.54,180a3.71,3.71,0,0,1,2.81-.23c2.29.74,6.69,1.34,5.09-5.85a30,30,0,0,1-.67-11.42,4.11,4.11,0,0,1,2.6-3.14c9-3.43,3.27-2.67,1.27-5.68-2.14-3.19,3.19-2.13,7.45-3.19s0-2.13-1.06-5.33a10.61,10.61,0,0,1-.38-4.62,5.46,5.46,0,0,0-.76-3.55c-2.81-4.56-9.53-16.73-5.25-22.72,4-5.59.79-5.79-1-5.54a14.87,14.87,0,0,1-3.59,0c-13-1.38,1.42-7.09,6.32-8.87a4.9,4.9,0,0,1,2.76-.18c7.36,1.65,17.15-2.59,21.28-4.64a3.67,3.67,0,0,1,3.41,0c3.78,2.13,10.28,2.13,10.28,2.13,8,.67,9.32-1.16,9.2-2.63a2.45,2.45,0,0,0-1.6-2c-10.57-4.14-6.53-8.17-6.53-8.17A147.22,147.22,0,0,0,136.83,57.8c5.33-16,7.46-12.78,12.79-9.59s18.11,2.13,22.37,2.13,5.32,5.33,7.45,5.33,4.27-5.33,11.72-6.39c6.51-.93,3.29-17.26,2.36-21.42a12.09,12.09,0,0,1-.3-2.55c-.14-12.26,10-12.34,18.18-14.38C217,9.53,218,5.41,218,2.72a2.5,2.5,0,0,1,2.5-2.45h15.93a2.57,2.57,0,0,1,2,1,9.29,9.29,0,0,0,3,2,5,5,0,0,1,2.81,4.29c.19,4.08,2.86,3.34,5.52,3.34,3.2,0,4.26,4.26,11.72,10.65a15.3,15.3,0,0,0,12.16,3.87,7.75,7.75,0,0,1,5.2,1.27c1.48,1,3.38,1.79,5,1.25,2.73-.91,9.32,7.48,11.21,10a2.56,2.56,0,0,1,.51,1.53h0A7,7,0,0,0,297,43.7l5,6.64s7.46,9.59,5.33,10.65c-1.41.71-1.89,4.66-2,7.27a6.31,6.31,0,0,0,.83,3.63,8.26,8.26,0,0,1,1.3,4.39,5.33,5.33,0,0,1-3,4.67c-5.3,2.69-4.82,6.76-3.53,9.65a9.62,9.62,0,0,0,4.56,4.71,72.76,72.76,0,0,0,31.67,7.23c12.08,0,18.47.76,21.66,1.37a10.23,10.23,0,0,1,4.44,2c4.15,3.28,15.21,11.93,18.65,13.64,3.12,1.56,9.66,3.12,12.95,3.85a2.5,2.5,0,0,1,2,2.45h0a3.51,3.51,0,0,0,3.08,3.46c2.25.3,2.25.9,2.25.9s10.65,34.09,22.37,30.89c10.55-2.88,26.29.29,29.31,1,.37.08.73.14,1.11.19,3.92.45,26.59,2.93,43.08,1,18.11-2.13,32,2.13,36.22,6.39a28.91,28.91,0,0,0,5.07,4.11,9.59,9.59,0,0,0,4,1.38c3.85.43,13.56,1.8,18.61,5.16,6.39,4.27,20.24,4.27,23.43,3.2s10.66,6.39,14.92,5.33,11.71-8.53,21.3-12.79,21.31-6.39,24.5-7.45,33,0,40.48,0,22.37-5.33,26.64-10.66c2.69-3.36,6.23-7.15,8.47-9.49a10.79,10.79,0,0,1,4.91-2.85A37.47,37.47,0,0,0,742.61,136a2.49,2.49,0,0,0,.67-1.33c.19-1.31-.2-3.95-4.57-7.59-6.39-5.33-6.39-10.65,0-21.3,5.24-8.74,21.23-1,26.81,2.07a12,12,0,0,0,4.87,1.44c5.58.42,17.55.29,21.59-7.78,5.32-10.65,9.58-9.58,9.58-9.58,14.26,4,25.57-3.27,30.44-7.24a8.89,8.89,0,0,0,3.07-4.83c1-4.44,4-13.23,11.23-12.43a48.89,48.89,0,0,0,8.73.41,2.34,2.34,0,0,0,2.12-2c1.23-8.26,4.3-1.6,8.33-1.6,4.26,0,2.13-2.13,9.59-4.26,5.94-1.7,14.58-.69,17.85-.21a23.52,23.52,0,0,1,2.36.49c21.2,5.64,17-8.85,12.81-12s-14.91-14.91-19.17-17-6.4-6.4-9.59-7.46c-2.52-.84-9-.36-11.65-.11a2.52,2.52,0,0,0-1.8,1c-7,9.54-11,6.54-11,6.54-11.72-6.4-16-3.2-23.44-1.07s-8.52,1.07-11.72-4.26c-2.36-3.94,1.11-6.72,3.07-7.89a2.49,2.49,0,0,0,1.19-2.14v-6c0-.85,4.38-6.74,6.17-9.12a2.52,2.52,0,0,1,2-1Z"/><path class="cls-1" d="M536.54,556.57a3.29,3.29,0,0,1-2-.61c-1.42-1-2-3.07-2-7.07,0-1.55-.32-3.57-1.88-4.34s-4.11-.22-6.21,1.36a32.41,32.41,0,0,0-3.54,3.2c-2.35,2.35-4.57,4.57-8.08,4.57a20,20,0,0,0-2.16.18c-2.28.28-5.12.62-7.1-1.31-1.72-1.67-2.33-4.57-1.91-9.13a70.08,70.08,0,0,1,2.5-13.27c.68-2.5,1.13-4.16.77-5.26s-.72-2.28-1.08-3.48c-.5-1.65-1-3.35-1.5-4.64a12.18,12.18,0,0,0-1.77,4.42c0,2.38,0,7.94-2.39,11.54a4.1,4.1,0,0,1-3.7,2.12c-2.66-.17-5.41-3.27-8.65-9.75a27.25,27.25,0,0,1-3.21-10.65,11.08,11.08,0,0,0-1.05-4.26l-.64-1.26a49.28,49.28,0,0,1-5.91-19.54c-.57-5.68-1.14-9.81-1.55-12.82a48.93,48.93,0,0,1-.59-5.45c0-8.64-.56-12.67-1-14.52a26.51,26.51,0,0,1-.63-3.91,15,15,0,0,0-2.39-7.38l-.47-.79c-2.45-4.07-4.07-6.75-3.25-9a3.64,3.64,0,0,1,2.46-2.17c.25-.09.49-.21.53-.8a4.86,4.86,0,0,0-1.81-3.71c-1.37-.69-2.16-2.61-3.57-6.22-1.27-3.26-3-7.72-4.95-8.7-1-.51-2.42-1.11-3.89-1.74-6.32-2.71-10.87-4.85-11.82-7.7-1.15-3.43-8.06-13.55-10.23-13.83-2.13,0-6-2.87-11.49-8.56a12.78,12.78,0,0,0-5-3.17c-3.27-1.13-6.75-2.78-8.2-5-2.33-3.49-14.46-14-16.79-14.2a8.46,8.46,0,0,1-4-1.41c-2.21-1.22-4-2.18-6.69,0a9.94,9.94,0,0,1-8,2.3,6.44,6.44,0,0,0-1-.05,1.14,1.14,0,0,0-.08.2c-1.63,4.9-4.74,7.49-9,7.49-.87,0-1.78-.05-2.7-.09-2.59-.12-5.26-.25-6.8.67a13.57,13.57,0,0,1-13,.46,4.44,4.44,0,0,0-4.47-.15,15,15,0,0,1-7.1,1.24,6.1,6.1,0,0,1-2.54-.83c-3.16-1.49-9.73-4.61-26.89-1.35a1.67,1.67,0,0,1-1.9-1,1.6,1.6,0,0,1,1.2-2.13c18.26-3.48,25.48-.06,29,1.58h0a5.19,5.19,0,0,0,2.32.5,9.92,9.92,0,0,0,4.51-.89,7.65,7.65,0,0,1,7.32.15,10.39,10.39,0,0,0,10-.35c2.37-1.41,5.52-1.26,8.58-1.11.87,0,1.73.08,2.55.08,1,0,4.17,0,5.94-5.3.88-2.66,3.11-2.45,4.43-2.32a6.79,6.79,0,0,0,5.67-1.62c4.4-3.52,7.91-1.58,10.24-.29a6.38,6.38,0,0,0,2.48,1c4.21,0,17.35,12.49,19.44,15.62.83,1.26,3.57,2.73,7.28,3.95a12.34,12.34,0,0,1,5.08,3.18c5.61,5.87,8.89,8.1,9.75,8.14,4.62,0,12.34,13.35,13.23,16,.57,1.71,6.73,4.35,10.05,5.77,1.52.66,2.95,1.27,4.06,1.82,3.05,1.53,4.88,6.24,6.5,10.4l0,.05a17.86,17.86,0,0,0,3.44,5.6,8.26,8.26,0,0,1,2.13,5.67,3.92,3.92,0,0,1-2.71,3.6,1.12,1.12,0,0,0-.48.25c-.32.71,1.6,3.88,3,6.2l.48.8a18,18,0,0,1,2.83,8.69,23.72,23.72,0,0,0,.55,3.46c.74,3,1.11,8.1,1.11,15.3,0,.88.24,2.62.57,5,.41,3,1,7.19,1.56,12.93a46,46,0,0,0,5.57,18.41c.23.44.45.86.66,1.28a14.24,14.24,0,0,1,1.37,5.35,24.13,24.13,0,0,0,2.89,9.56c3.74,7.48,5.65,8,6,8s.66-.43.84-.7c1.86-2.79,1.86-7.86,1.86-9.77s2.33-7.78,4.79-8.36a2.2,2.2,0,0,1,2.5,1.25A45.72,45.72,0,0,1,507,520.5c.35,1.16.7,2.33,1.05,3.38.67,2,.09,4.16-.72,7.11a67.53,67.53,0,0,0-2.4,12.72c-.39,4.26.31,5.91,1,6.55.89.86,2.64.65,4.49.43a21.9,21.9,0,0,1,2.54-.2c2.08,0,3.5-1.32,5.82-3.64a35.94,35.94,0,0,1,3.88-3.5c3.13-2.35,6.88-3,9.56-1.66,1.37.68,3.65,2.52,3.65,7.2,0,3.93.63,4.45.66,4.47a6.51,6.51,0,0,0,2.14-.52l.42-.14c.67-.22,1.71-1.8,2.47-3,1.41-2.14,2.88-4.36,5.15-4.59a4.41,4.41,0,0,1,3.6,1.53,2.5,2.5,0,0,0,3,.72,7.53,7.53,0,0,0,3.89-6,5.44,5.44,0,0,0-1.12-3.29,12.33,12.33,0,0,1-2.07-7.36c0-7.16,9.88-13.83,10.3-14.11a7.3,7.3,0,0,0,2.51-6.88,5.14,5.14,0,0,1,.51-4c1-1.44,2.7-1.75,4.07-2a4.9,4.9,0,0,0,2.25-.75c.57-.57.6-1.32.6-2.6,0-1.48,0-3.33,1.53-4.86s3.94-1.17,6.83-.87c2.66.29,6,.64,6.72-.85,1.87-3.74,8.28-3.86,13.32-3.3a2.73,2.73,0,0,0,2.15-.76,8.6,8.6,0,0,1,3.58-1.92,5.78,5.78,0,0,1,2.62,0c6.12,1.26,8.77-1.88,10-3.4.22-.25.39-.45.54-.6a28.52,28.52,0,0,1,3.33-2.33c2.9-1.91,10.6-7,11.2-8.76,1.46-4.39,5.77-3.29,9.57-2.33l.85.22c2.72.68,3.44-.1,5-1.8.3-.32.6-.65.93-1a16.66,16.66,0,0,1,2.66-2c2.07-1.34,4.21-2.74,5.51-6a9.74,9.74,0,0,1,4.39-4.83c2-1.26,3.5-2.25,4-6.5.88-7.08,8-7.08,14.92-7.08,0,0,.07,0,.11,0a45.37,45.37,0,0,0,9.64-.67c9.69-2.15,25.82.91,29.62,2.18,2.08.69,4.91,3.58,8.68,7.58a37.23,37.23,0,0,0,4.31,4.22c.67.34,3,.77,7.56.88a5.76,5.76,0,0,1,3.52,1.3c4.61,3.72,6.53,6.87,5.7,9.34-.27.83.53,1.78,1.39,2.31s2,.71,2.36.32a4.21,4.21,0,0,1,4.73-1,5.7,5.7,0,0,1,3.32,5.31c0,2.42.62,3.72.93,3.85,0,0,.76.19,2.74-1.78a80.76,80.76,0,0,1,7.29-6.57,15.14,15.14,0,0,1,2.8-1.73c5.51-2.66,8.34-4.92,8.69-6,0-.15.08-.26.1-.34h0c-1.2-.72-2.3-1.75-2.3-4.47,0-5.28,5.83-6.72,10.09-7.77l.71-.17c4.48-1.12,7.88,2.33,8.82,3.41.33.39.67.75,1,1.12,6.08,6.33,14.58,14,18.51,14.62,6,1,11.74-1.07,12.47-1.7a12,12,0,0,1,1.75-1.29c2-1.34,5.67-3.83,6.33-6.48.89-3.55,3.15-4.8,5.53-6.11a29.17,29.17,0,0,0,3.59-2.23c1.18-.89,2.29-1.62,3.27-2.27,2.6-1.72,4.48-3,5.85-5.69,2-4.07,6-6.86,11.69-8.3,1.84-.46,4.24-6.41,5.82-10.35,1.33-3.31,2.59-6.43,3.94-8.23,3-4,7.95-3.44,11.95-3,1.15.12,2.24.24,3.18.24,4.24,0,7.31,3.91,9,6l.55.69c1.3.34,6.46.06,9.59-.1,2.08-.11,4-.22,5.4-.22,4.74,0,10.46,4.23,10.7,4.26a1.33,1.33,0,0,1,1,1.94c-.53.7-1.55,1.2-2.1.19-.06-.12-5.93-3.19-9.56-3.19-1.28,0-3.2.1-5.23.21-8.24.43-10.8.4-11.88-.68a14.07,14.07,0,0,1-1-1.13c-1.31-1.68-3.76-4.79-6.44-4.79a34.58,34.58,0,0,1-3.52-.26c-3.53-.38-7.17-.77-9,1.75-1.1,1.46-2.34,4.53-3.53,7.5-2.37,5.87-4.6,11.41-8,12.26-4.77,1.2-8,3.43-9.61,6.63-1.75,3.5-4.15,5.09-6.94,6.92-1,.66-2,1.33-3.11,2.16a33.38,33.38,0,0,1-4,2.48c-2.21,1.21-3.42,1.88-4,4.09-1,3.84-5.15,6.66-7.65,8.35a15.32,15.32,0,0,0-1.29.91c-1.54,1.55-8.51,3.7-15.24,2.58-5.75-1-16.1-11.2-20.28-15.56-.39-.4-.77-.81-1.14-1.24-.63-.73-2.92-3.08-5.63-2.4l-.71.18c-4.49,1.1-7.66,2.08-7.66,4.66,0,1.28.26,1.44.74,1.72,1.1.66,2.12,1.67,1.31,4.11-.76,2.27-4.24,4.92-10.34,7.86a12,12,0,0,0-2.22,1.37,78.09,78.09,0,0,0-7,6.31c-.89.88-3.58,3.57-6.22,2.48s-2.9-4.71-2.9-6.81a2.51,2.51,0,0,0-1.35-2.36,1.05,1.05,0,0,0-1.25.3c-1.49,1.49-4,1.54-6.3.14s-3.46-3.88-2.74-6c.21-.63-.87-2.77-4.68-5.84a2.61,2.61,0,0,0-1.58-.6c-4.53-.11-7.53-.52-8.92-1.21-1.09-.55-2.61-2.13-5.21-4.89-2.34-2.49-5.88-6.25-7.36-6.74-3.35-1.12-17.82-3.86-26.88-2.29a58.52,58.52,0,0,1-9.88.95h-1.6c-7.8,0-11.27.4-11.75,4.28-.72,5.72-3.35,7.42-5.47,8.79a6.67,6.67,0,0,0-3.15,3.32c-1.68,4.19-4.6,6.09-6.73,7.48a14.66,14.66,0,0,0-2.15,1.58c-.3.3-.58.6-.84.89-1.68,1.81-3.58,3.87-8.13,2.73l-.86-.22c-4.41-1.12-5.32-1.08-5.76.24-.8,2.38-5,5.5-12.48,10.42-1.21.8-2.57,1.7-2.84,1.94-.08.08-.19.22-.34.39-1.41,1.67-5.16,6.11-13.14,4.46a2.61,2.61,0,0,0-1.18,0,5.38,5.38,0,0,0-2.24,1.2,5.89,5.89,0,0,1-4.63,1.56c-5.37-.6-9.34,0-10.11,1.55-1.73,3.47-6.27,3-9.92,2.6-1.4-.14-3.75-.39-4.24,0-.56.56-.59,1.31-.59,2.59,0,1.48,0,3.32-1.53,4.86a7,7,0,0,1-3.94,1.63c-.83.15-1.77.32-2,.66-.06.09-.25.47,0,1.59A10.5,10.5,0,0,1,566,519.27c-2.54,1.71-8.95,7-8.95,11.51a9.15,9.15,0,0,0,1.61,5.69,8.66,8.66,0,0,1,1.59,5,10.57,10.57,0,0,1-5.87,8.93A5.65,5.65,0,0,1,548,549a1.64,1.64,0,0,0-1-.61c-.76.08-2,1.94-2.81,3.17-1.23,1.88-2.4,3.65-4.12,4.22l-.41.14A10.1,10.1,0,0,1,536.54,556.57ZM467.78,426h0Z"/><circle class="cls-7" cx="943.63" cy="441.07" r="3.19"/><circle class="cls-7" cx="878.03" cy="414.21" r="2.44"/><circle class="cls-7" cx="712.91" cy="435.26" r="2.44"/><circle class="cls-7" cx="843.52" cy="214.11" r="3.19"/><circle class="cls-7" cx="790.38" cy="635.23" r="3.19"/><path class="cls-7" d="M714.16,612v11.29h-2.75v-4.71h-4.28v4.71H704.4V612h2.73v4.38h4.28V612Z"/><path class="cls-7" d="M722.58,614.86a4.11,4.11,0,0,1,1.64,1.59,5.2,5.2,0,0,1,0,4.85,4,4,0,0,1-1.64,1.59,5.4,5.4,0,0,1-4.75,0,4,4,0,0,1-1.66-1.59,5.28,5.28,0,0,1,0-4.85,4.1,4.1,0,0,1,1.66-1.59,5.4,5.4,0,0,1,4.75,0Zm-3.69,2.38a2.3,2.3,0,0,0-.54,1.64,2.27,2.27,0,0,0,.54,1.63,1.85,1.85,0,0,0,2.63,0,2.31,2.31,0,0,0,.52-1.63,2.34,2.34,0,0,0-.52-1.64,1.8,1.8,0,0,0-2.63,0Z"/><path class="cls-7" d="M734.33,615.35a4.11,4.11,0,0,1,.9,2.81v5.17H732.5v-4.85a2,2,0,0,0-.47-1.4,1.86,1.86,0,0,0-2.57,0,2.1,2.1,0,0,0-.49,1.5v4.72h-2.73v-8.91H729v1.63a3,3,0,0,1,1.14-1.26,3.35,3.35,0,0,1,1.78-.46A3.11,3.11,0,0,1,734.33,615.35Z"/><path class="cls-7" d="M742.17,614.78a2.74,2.74,0,0,1,1.09,1.26v-1.62H746v8.86a5.15,5.15,0,0,1-.48,2.25,3.75,3.75,0,0,1-1.47,1.59,4.75,4.75,0,0,1-2.45.59,5.08,5.08,0,0,1-3.22-1,3.91,3.91,0,0,1-1.44-2.58h2.69a1.34,1.34,0,0,0,.59.84,2,2,0,0,0,1.18.31,1.9,1.9,0,0,0,1.37-.49,2,2,0,0,0,.52-1.56v-1.56a2.84,2.84,0,0,1-1.09,1.26,3.19,3.19,0,0,1-1.75.46,3.62,3.62,0,0,1-2-.55,3.78,3.78,0,0,1-1.37-1.59,6.15,6.15,0,0,1,0-4.86,3.94,3.94,0,0,1,1.37-1.58,3.71,3.71,0,0,1,2-.55A3.2,3.2,0,0,1,742.17,614.78Zm-2.29,2.5a2.29,2.29,0,0,0-.53,1.6,2.26,2.26,0,0,0,.53,1.59,1.83,1.83,0,0,0,1.42.58,1.86,1.86,0,0,0,1.41-.59,2.56,2.56,0,0,0,0-3.17,2,2,0,0,0-2.83,0Z"/><path class="cls-7" d="M756.37,617.57l4.55,5.76h-3.31l-3.83-5.06v5.06h-2.73V612h2.73v5l3.86-5h3.28Z"/><path class="cls-7" d="M768.6,614.86a4.07,4.07,0,0,1,1.65,1.59,5.2,5.2,0,0,1,0,4.85,4,4,0,0,1-1.65,1.59,4.93,4.93,0,0,1-2.37.55,5.06,5.06,0,0,1-2.38-.55,4,4,0,0,1-1.65-1.59,5.2,5.2,0,0,1,0-4.85,4.07,4.07,0,0,1,1.65-1.59,5.18,5.18,0,0,1,2.38-.55A5.05,5.05,0,0,1,768.6,614.86Zm-3.69,2.38a2.34,2.34,0,0,0-.53,1.64,2.32,2.32,0,0,0,.53,1.63,1.77,1.77,0,0,0,1.32.55,1.73,1.73,0,0,0,1.31-.55,2.32,2.32,0,0,0,.53-1.63,2.34,2.34,0,0,0-.53-1.64,1.71,1.71,0,0,0-1.31-.57A1.75,1.75,0,0,0,764.91,617.24Z"/><path class="cls-7" d="M780.35,615.35a4.11,4.11,0,0,1,.9,2.81v5.17h-2.73v-4.85a2,2,0,0,0-.47-1.4,1.64,1.64,0,0,0-1.25-.5,1.7,1.7,0,0,0-1.32.53,2.15,2.15,0,0,0-.48,1.5v4.72h-2.73v-8.91H775v1.63a2.89,2.89,0,0,1,1.14-1.26,3.32,3.32,0,0,1,1.78-.46A3.08,3.08,0,0,1,780.35,615.35Z"/><path class="cls-7" d="M788.2,614.78a2.66,2.66,0,0,1,1.08,1.26v-1.62H792v8.86a5.15,5.15,0,0,1-.48,2.25,3.75,3.75,0,0,1-1.47,1.59,4.77,4.77,0,0,1-2.46.59,5,5,0,0,1-3.21-1,3.88,3.88,0,0,1-1.45-2.58h2.7a1.33,1.33,0,0,0,.58.84,2,2,0,0,0,1.19.31,1.92,1.92,0,0,0,1.37-.49,2.06,2.06,0,0,0,.51-1.56v-1.56A2.76,2.76,0,0,1,788.2,623a3.23,3.23,0,0,1-1.76.46,3.59,3.59,0,0,1-2-.55,3.64,3.64,0,0,1-1.37-1.59,6.15,6.15,0,0,1,0-4.86,3.79,3.79,0,0,1,1.37-1.58,3.67,3.67,0,0,1,2-.55A3.23,3.23,0,0,1,788.2,614.78Zm-2.29,2.5a2.25,2.25,0,0,0-.54,1.6,2.22,2.22,0,0,0,.54,1.59,2,2,0,0,0,2.82,0,2.56,2.56,0,0,0,0-3.17,1.83,1.83,0,0,0-1.41-.58A1.85,1.85,0,0,0,785.91,617.28Z"/><path class="cls-7" d="M788.35,192.6a3.22,3.22,0,0,1,.73,2.11,3.38,3.38,0,0,1-1.17,2.74,5.08,5.08,0,0,1-3.36,1h-6.37V184.76h6.21a5.08,5.08,0,0,1,3.24.91,3.11,3.11,0,0,1,1.14,2.59,3.18,3.18,0,0,1-.66,2.06,3,3,0,0,1-1.72,1.07A3.45,3.45,0,0,1,788.35,192.6Zm-6.86-2.25h2.17c1.15,0,1.72-.49,1.72-1.47s-.59-1.47-1.76-1.47h-2.13Zm4.2,3.89a1.44,1.44,0,0,0-.48-1.15,2.07,2.07,0,0,0-1.38-.42h-2.34v3.08h2.36C785.08,195.75,785.69,195.25,785.69,194.24Z"/><path class="cls-7" d="M801,193.64h-7.49a2.52,2.52,0,0,0,.62,1.75,2,2,0,0,0,1.43.53,2,2,0,0,0,1.22-.36,1.73,1.73,0,0,0,.64-.95h3.5a4.62,4.62,0,0,1-.92,2,5,5,0,0,1-1.82,1.41,5.68,5.68,0,0,1-2.46.52,5.88,5.88,0,0,1-2.82-.67A4.84,4.84,0,0,1,791,196a6.63,6.63,0,0,1,0-5.89,4.67,4.67,0,0,1,1.92-1.92,5.94,5.94,0,0,1,2.83-.67,5.82,5.82,0,0,1,2.82.66,4.62,4.62,0,0,1,1.89,1.85,5.45,5.45,0,0,1,.67,2.74A4.18,4.18,0,0,1,801,193.64Zm-3.82-3a2.11,2.11,0,0,0-1.46-.53,2.17,2.17,0,0,0-1.51.54,2.26,2.26,0,0,0-.68,1.59h4.22A2,2,0,0,0,797.16,190.65Z"/><path class="cls-7" d="M803,183.35a2.35,2.35,0,0,1,2.87,0,1.63,1.63,0,0,1,.54,1.25,1.6,1.6,0,0,1-.54,1.23,2.35,2.35,0,0,1-2.87,0,1.6,1.6,0,0,1-.54-1.23A1.63,1.63,0,0,1,803,183.35Zm3.08,4.29v10.8H802.8v-10.8Z"/><path class="cls-7" d="M806.63,200.75h.82a1,1,0,0,0,.75-.23,1,1,0,0,0,.23-.74V187.64h3.33v12.1q0,3.85-3.87,3.85h-1.26Zm2-14.92a1.61,1.61,0,0,1-.55-1.23,1.64,1.64,0,0,1,.55-1.25,2.33,2.33,0,0,1,2.86,0,1.63,1.63,0,0,1,.54,1.25,1.6,1.6,0,0,1-.54,1.23,2.33,2.33,0,0,1-2.86,0Z"/><path class="cls-7" d="M814.24,183.35a2,2,0,0,1,1.43-.49,2.06,2.06,0,0,1,1.44.49,1.63,1.63,0,0,1,.54,1.25,1.6,1.6,0,0,1-.54,1.23,2.06,2.06,0,0,1-1.44.49,2,2,0,0,1-1.43-.49,1.6,1.6,0,0,1-.54-1.23A1.63,1.63,0,0,1,814.24,183.35Zm3.08,4.29v10.8H814v-10.8Z"/><path class="cls-7" d="M829.41,188.76a5,5,0,0,1,1.09,3.41v6.27h-3.31v-5.88a2.39,2.39,0,0,0-.57-1.7,2,2,0,0,0-1.52-.61,2.11,2.11,0,0,0-1.6.64,2.6,2.6,0,0,0-.59,1.82v5.73H819.6v-10.8h3.31v2a3.6,3.6,0,0,1,1.39-1.53,4.09,4.09,0,0,1,2.16-.56A3.77,3.77,0,0,1,829.41,188.76Z"/><path class="cls-7" d="M838.92,188.07a3.36,3.36,0,0,1,1.32,1.52v-2h3.29v10.74a6.14,6.14,0,0,1-.58,2.72,4.47,4.47,0,0,1-1.78,1.93,5.72,5.72,0,0,1-3,.72,6.1,6.1,0,0,1-3.9-1.16,4.68,4.68,0,0,1-1.76-3.12h3.28a1.58,1.58,0,0,0,.7,1,2.52,2.52,0,0,0,1.44.37,2.34,2.34,0,0,0,1.66-.59,2.48,2.48,0,0,0,.63-1.89v-1.89a3.44,3.44,0,0,1-1.32,1.53,3.93,3.93,0,0,1-2.13.56,4.44,4.44,0,0,1-2.39-.67,4.57,4.57,0,0,1-1.66-1.93,7.41,7.41,0,0,1,0-5.89,4.6,4.6,0,0,1,1.66-1.92,4.44,4.44,0,0,1,2.39-.67A3.85,3.85,0,0,1,838.92,188.07Zm-2.78,3a3.26,3.26,0,0,0,0,3.88,2.45,2.45,0,0,0,3.43,0,3.1,3.1,0,0,0,0-3.85,2.46,2.46,0,0,0-3.43,0Z"/><circle class="cls-7" cx="780.52" cy="448.12" r="3.19"/><circle class="cls-7" cx="632.37" cy="467.65" r="3.19"/><path class="cls-7" d="M583,449.19a4.24,4.24,0,0,1,1.5,2.51h-2.37a2.22,2.22,0,0,0-.8-1,2.32,2.32,0,0,0-1.29-.36,2,2,0,0,0-1.59.72,2.9,2.9,0,0,0-.6,1.92,2.87,2.87,0,0,0,.6,1.92,2,2,0,0,0,1.59.72,2.32,2.32,0,0,0,1.29-.37,2.14,2.14,0,0,0,.8-1h2.37a4.24,4.24,0,0,1-1.5,2.51,4.47,4.47,0,0,1-2.92.94,4.65,4.65,0,0,1-2.38-.6,4,4,0,0,1-1.57-1.67,5.12,5.12,0,0,1-.56-2.45,5.17,5.17,0,0,1,.56-2.45,4.08,4.08,0,0,1,1.57-1.67,4.75,4.75,0,0,1,2.38-.59A4.52,4.52,0,0,1,583,449.19Z"/><path class="cls-7" d="M592.42,451.06a3.34,3.34,0,0,1,.74,2.31v4.24h-2.24v-4a1.66,1.66,0,0,0-.38-1.15,1.36,1.36,0,0,0-1-.41,1.39,1.39,0,0,0-1.08.43,1.74,1.74,0,0,0-.4,1.23v3.88h-2.24v-9.69H588v3.72a2.42,2.42,0,0,1,.94-1,2.76,2.76,0,0,1,1.46-.38A2.52,2.52,0,0,1,592.42,451.06Z"/><path class="cls-7" d="M600,450.66a3.38,3.38,0,0,1,1.35,1.3,4.31,4.31,0,0,1,0,4,3.38,3.38,0,0,1-1.35,1.3,4.12,4.12,0,0,1-2,.45,4.18,4.18,0,0,1-1.95-.45,3.34,3.34,0,0,1-1.36-1.3,4.31,4.31,0,0,1,0-4,3.34,3.34,0,0,1,1.36-1.3,4.18,4.18,0,0,1,1.95-.45A4.12,4.12,0,0,1,600,450.66Zm-3,1.95a1.91,1.91,0,0,0-.44,1.35,1.85,1.85,0,0,0,.44,1.33,1.5,1.5,0,0,0,2.16,0,1.9,1.9,0,0,0,.43-1.33,2,2,0,0,0-.43-1.35,1.5,1.5,0,0,0-2.16,0Z"/><path class="cls-7" d="M609.65,451.06a3.39,3.39,0,0,1,.74,2.31v4.24h-2.24v-4a1.62,1.62,0,0,0-.39-1.15,1.36,1.36,0,0,0-1-.41,1.4,1.4,0,0,0-1.08.43,1.78,1.78,0,0,0-.4,1.23v3.88H603V450.3h2.24v1.34a2.42,2.42,0,0,1,.94-1,2.76,2.76,0,0,1,1.46-.38A2.54,2.54,0,0,1,609.65,451.06Z"/><path class="cls-7" d="M616.08,450.59a2.31,2.31,0,0,1,.9,1V450.3h2.22v7.27a4.21,4.21,0,0,1-.39,1.84,3,3,0,0,1-1.21,1.3,3.79,3.79,0,0,1-2,.49,4.15,4.15,0,0,1-2.64-.78,3.18,3.18,0,0,1-1.19-2.12H614a1.11,1.11,0,0,0,.47.7,1.8,1.8,0,0,0,1,.25,1.6,1.6,0,0,0,1.12-.4,1.7,1.7,0,0,0,.43-1.28v-1.28a2.31,2.31,0,0,1-.9,1,2.66,2.66,0,0,1-1.44.38,2.94,2.94,0,0,1-1.61-.45,3.07,3.07,0,0,1-1.13-1.3,5.06,5.06,0,0,1,0-4,3,3,0,0,1,1.13-1.3,2.94,2.94,0,0,1,1.61-.45A2.66,2.66,0,0,1,616.08,450.59Zm-1.88,2.06a2.2,2.2,0,0,0,0,2.61,1.51,1.51,0,0,0,1.16.48,1.48,1.48,0,0,0,1.16-.49A1.82,1.82,0,0,0,617,454a1.85,1.85,0,0,0-.46-1.31,1.64,1.64,0,0,0-2.32,0Z"/><path class="cls-7" d="M625.86,451.36V450.3h2.22v10.79h-2.22v-4.66a2.42,2.42,0,0,1-2.18,1.26,3.12,3.12,0,0,1-1.67-.47,3.35,3.35,0,0,1-1.2-1.3,4.12,4.12,0,0,1-.44-1.92,4.24,4.24,0,0,1,.44-1.95,3.42,3.42,0,0,1,1.21-1.34,3,3,0,0,1,1.66-.47A2.4,2.4,0,0,1,625.86,451.36Zm-2.74,1.29a1.79,1.79,0,0,0-.47,1.35,1.7,1.7,0,0,0,.46,1.3,1.6,1.6,0,0,0,1.13.44,1.59,1.59,0,0,0,1.14-.47,1.74,1.74,0,0,0,.48-1.31,1.71,1.71,0,0,0-.48-1.31,1.58,1.58,0,0,0-1.14-.46A1.53,1.53,0,0,0,623.12,452.65Z"/><path class="cls-7" d="M629.78,447.4a1.41,1.41,0,0,1,1-.33,1.39,1.39,0,0,1,1,.33,1.07,1.07,0,0,1,.37.84,1.08,1.08,0,0,1-.37.84,1.39,1.39,0,0,1-1,.33,1.41,1.41,0,0,1-1-.33,1.1,1.1,0,0,1-.36-.84A1.09,1.09,0,0,1,629.78,447.4Zm2.09,2.9v7.31h-2.24V450.3Z"/><path class="cls-7" d="M640.05,451.06a3.39,3.39,0,0,1,.74,2.31v4.24h-2.24v-4a1.62,1.62,0,0,0-.39-1.15,1.36,1.36,0,0,0-1-.41,1.4,1.4,0,0,0-1.08.43,1.74,1.74,0,0,0-.4,1.23v3.88h-2.24V450.3h2.24v1.34a2.42,2.42,0,0,1,.94-1,2.76,2.76,0,0,1,1.46-.38A2.54,2.54,0,0,1,640.05,451.06Z"/><path class="cls-7" d="M646.48,450.59a2.29,2.29,0,0,1,.89,1V450.3h2.23v7.27a4.21,4.21,0,0,1-.39,1.84,3,3,0,0,1-1.21,1.3,3.79,3.79,0,0,1-2,.49,4.15,4.15,0,0,1-2.64-.78,3.18,3.18,0,0,1-1.19-2.12h2.21a1.12,1.12,0,0,0,.48.7,1.8,1.8,0,0,0,1,.25,1.61,1.61,0,0,0,1.12-.4,1.7,1.7,0,0,0,.42-1.28v-1.28a2.29,2.29,0,0,1-.89,1,2.66,2.66,0,0,1-1.44.38,3,3,0,0,1-1.62-.45,3.11,3.11,0,0,1-1.12-1.3,5.06,5.06,0,0,1,0-4,3.05,3.05,0,0,1,1.12-1.3,3,3,0,0,1,1.62-.45A2.66,2.66,0,0,1,646.48,450.59Zm-1.88,2.06a2.2,2.2,0,0,0,0,2.61,1.63,1.63,0,0,0,2.32,0,1.81,1.81,0,0,0,.45-1.29,1.84,1.84,0,0,0-.45-1.31,1.64,1.64,0,0,0-2.32,0Z"/><path class="cls-7" d="M832.94,406.1h-2.32l-3.88-5.88v5.88h-2.32v-9.59h2.32l3.88,5.95v-5.95h2.32Z"/><path class="cls-7" d="M838.91,398.83a2.42,2.42,0,0,1,.92,1.08v-1.37h2.31v7.56h-2.31v-1.37a2.42,2.42,0,0,1-.92,1.08,2.78,2.78,0,0,1-1.49.39,3.08,3.08,0,0,1-1.68-.47,3.24,3.24,0,0,1-1.17-1.35,5.29,5.29,0,0,1,0-4.13,3.27,3.27,0,0,1,1.17-1.34,3.08,3.08,0,0,1,1.68-.47A2.78,2.78,0,0,1,838.91,398.83ZM837,401a2.28,2.28,0,0,0,0,2.72,1.57,1.57,0,0,0,1.2.48,1.54,1.54,0,0,0,1.2-.5,2.16,2.16,0,0,0,0-2.69,1.7,1.7,0,0,0-2.4,0Z"/><path class="cls-7" d="M850.61,399.32a3.5,3.5,0,0,1,.76,2.39v4.39h-2.32V402a1.66,1.66,0,0,0-.4-1.19,1.39,1.39,0,0,0-1.06-.42,1.48,1.48,0,0,0-1.12.44,1.81,1.81,0,0,0-.41,1.28v4h-2.32v-7.56h2.32v1.38a2.45,2.45,0,0,1,1-1.07,2.77,2.77,0,0,1,1.51-.4A2.62,2.62,0,0,1,850.61,399.32Z"/><path class="cls-7" d="M851.67,407.72h.57a.72.72,0,0,0,.53-.16.69.69,0,0,0,.16-.52v-8.5h2.34V407a2.4,2.4,0,0,1-2.72,2.7h-.88Zm1.41-10.45a1.13,1.13,0,0,1-.38-.86,1.14,1.14,0,0,1,.38-.88,1.46,1.46,0,0,1,1-.35,1.43,1.43,0,0,1,1,.35,1.14,1.14,0,0,1,.38.88,1.13,1.13,0,0,1-.38.86,1.43,1.43,0,0,1-1,.34A1.45,1.45,0,0,1,853.08,397.27Z"/><path class="cls-7" d="M857,395.53a1.46,1.46,0,0,1,1-.35,1.43,1.43,0,0,1,1,.35,1.14,1.14,0,0,1,.38.88,1.13,1.13,0,0,1-.38.86,1.43,1.43,0,0,1-1,.34,1.45,1.45,0,0,1-1-.34,1.13,1.13,0,0,1-.38-.86A1.14,1.14,0,0,1,857,395.53Zm2.16,3v7.56h-2.32v-7.56Z"/><path class="cls-7" d="M867.63,399.32a3.5,3.5,0,0,1,.77,2.39v4.39h-2.32V402a1.71,1.71,0,0,0-.4-1.19,1.42,1.42,0,0,0-1.07-.42,1.48,1.48,0,0,0-1.12.44,1.86,1.86,0,0,0-.41,1.28v4h-2.32v-7.56h2.32v1.38a2.51,2.51,0,0,1,1-1.07,2.77,2.77,0,0,1,1.51-.4A2.62,2.62,0,0,1,867.63,399.32Z"/><path class="cls-7" d="M874.3,398.83a2.42,2.42,0,0,1,.92,1.08v-1.37h2.3v7.52a4.38,4.38,0,0,1-.4,1.91,3.18,3.18,0,0,1-1.25,1.35,4.07,4.07,0,0,1-2.09.5,4.27,4.27,0,0,1-2.73-.81,3.24,3.24,0,0,1-1.23-2.19h2.29a1.13,1.13,0,0,0,.5.72,1.78,1.78,0,0,0,1,.26,1.66,1.66,0,0,0,1.16-.41,1.77,1.77,0,0,0,.44-1.33v-1.33a2.42,2.42,0,0,1-.92,1.08,2.79,2.79,0,0,1-1.5.39,3.07,3.07,0,0,1-1.67-.47,3.24,3.24,0,0,1-1.17-1.35,5.29,5.29,0,0,1,0-4.13,3.27,3.27,0,0,1,1.17-1.34,3.07,3.07,0,0,1,1.67-.47A2.79,2.79,0,0,1,874.3,398.83ZM872.35,401a2.28,2.28,0,0,0,0,2.72,1.57,1.57,0,0,0,1.2.48,1.54,1.54,0,0,0,1.2-.5,2.16,2.16,0,0,0,0-2.69,1.7,1.7,0,0,0-2.4,0Z"/><path class="cls-7" d="M665.67,417.24,662.18,424v3.35h-2.44V424l-3.49-6.71H659l1.94,4.1,1.93-4.1Z"/><path class="cls-7" d="M666.78,416.21a1.5,1.5,0,0,1,1.05-.36,1.49,1.49,0,0,1,1,.36,1.18,1.18,0,0,1,.4.92,1.15,1.15,0,0,1-.4.9,1.49,1.49,0,0,1-1,.36,1.5,1.5,0,0,1-1.05-.36,1.15,1.15,0,0,1-.4-.9A1.18,1.18,0,0,1,666.78,416.21Zm2.26,3.15v7.94h-2.43v-7.94Z"/><path class="cls-7" d="M676.88,420.11a3.76,3.76,0,0,1,1.31,2.32h-2.58a1.33,1.33,0,0,0-.47-.8,1.41,1.41,0,0,0-.89-.28,1.31,1.31,0,0,0-1.06.51,2.28,2.28,0,0,0-.41,1.47,2.32,2.32,0,0,0,.41,1.47,1.3,1.3,0,0,0,1.06.5,1.36,1.36,0,0,0,.89-.28,1.33,1.33,0,0,0,.47-.8h2.58a3.75,3.75,0,0,1-1.31,2.33,4,4,0,0,1-2.58.85,4.28,4.28,0,0,1-2.07-.5,3.42,3.42,0,0,1-1.41-1.41,4.89,4.89,0,0,1,0-4.33,3.5,3.5,0,0,1,1.42-1.41,4.25,4.25,0,0,1,2.07-.49A3.91,3.91,0,0,1,676.88,420.11Z"/><path class="cls-7" d="M686.66,420.18a3.71,3.71,0,0,1,.8,2.51v4.61H685V423a1.74,1.74,0,0,0-.42-1.24,1.45,1.45,0,0,0-1.12-.45,1.53,1.53,0,0,0-1.17.47,1.9,1.9,0,0,0-.44,1.34v4.21h-2.43V416.77h2.43v4a2.63,2.63,0,0,1,1-1.12,3,3,0,0,1,1.59-.42A2.78,2.78,0,0,1,686.66,420.18Z"/><path class="cls-7" d="M693.65,419.67a2.46,2.46,0,0,1,1,1.13v-1.44H697v7.94h-2.42v-1.44a2.44,2.44,0,0,1-1,1.12,2.85,2.85,0,0,1-1.57.42,3.17,3.17,0,0,1-1.75-.5,3.28,3.28,0,0,1-1.23-1.41,5.55,5.55,0,0,1,0-4.33,3.4,3.4,0,0,1,1.23-1.41,3.16,3.16,0,0,1,1.75-.49A2.94,2.94,0,0,1,693.65,419.67Zm-2,2.24a2.34,2.34,0,0,0,0,2.84,1.79,1.79,0,0,0,2.51,0,2.29,2.29,0,0,0,0-2.83,1.65,1.65,0,0,0-1.25-.52A1.59,1.59,0,0,0,691.61,421.91Z"/><path class="cls-7" d="M705.92,420.18a3.71,3.71,0,0,1,.8,2.51v4.61h-2.43V423a1.74,1.74,0,0,0-.42-1.24,1.47,1.47,0,0,0-1.12-.45,1.53,1.53,0,0,0-1.17.47,1.9,1.9,0,0,0-.44,1.34v4.21h-2.43v-7.94h2.43v1.45a2.63,2.63,0,0,1,1-1.12,3,3,0,0,1,1.59-.42A2.78,2.78,0,0,1,705.92,420.18Z"/><path class="cls-7" d="M712.91,419.67a2.52,2.52,0,0,1,1,1.13v-1.44h2.42v7.89a4.62,4.62,0,0,1-.42,2,3.38,3.38,0,0,1-1.31,1.42,4.23,4.23,0,0,1-2.19.52,4.54,4.54,0,0,1-2.87-.84,3.47,3.47,0,0,1-1.29-2.3h2.41a1.15,1.15,0,0,0,.52.75,1.86,1.86,0,0,0,1.05.27,1.7,1.7,0,0,0,1.22-.43,1.82,1.82,0,0,0,.46-1.39v-1.39a2.5,2.5,0,0,1-1,1.12,2.85,2.85,0,0,1-1.57.42,3.23,3.23,0,0,1-1.76-.5,3.33,3.33,0,0,1-1.22-1.41,5.43,5.43,0,0,1,0-4.33,3.45,3.45,0,0,1,1.22-1.41,3.22,3.22,0,0,1,1.76-.49A2.94,2.94,0,0,1,712.91,419.67Zm-2,2.24a2.38,2.38,0,0,0,0,2.84,1.65,1.65,0,0,0,1.26.51,1.62,1.62,0,0,0,1.26-.52,2.29,2.29,0,0,0,0-2.83,1.66,1.66,0,0,0-1.26-.52A1.62,1.62,0,0,0,710.86,421.91Z"/></g><g id="Laag_5" data-name="Laag 5"><path class="cls-6" d="M116.52,500.43H113.8l-4.55-6.91v6.91h-2.72V489.18h2.72l4.55,7v-7h2.72Z"/><path class="cls-6" d="M126.75,496.48h-6.16a2.13,2.13,0,0,0,.51,1.44,1.81,1.81,0,0,0,2.18.14,1.41,1.41,0,0,0,.53-.78h2.88a3.7,3.7,0,0,1-.77,1.68,4.09,4.09,0,0,1-1.49,1.16,5.12,5.12,0,0,1-4.34-.13,3.88,3.88,0,0,1-1.58-1.58,5.49,5.49,0,0,1,0-4.85,3.91,3.91,0,0,1,1.58-1.57,5.23,5.23,0,0,1,4.65,0,3.78,3.78,0,0,1,1.55,1.52,4.47,4.47,0,0,1,.55,2.25A3.88,3.88,0,0,1,126.75,496.48ZM123.61,494a1.7,1.7,0,0,0-1.2-.44,1.79,1.79,0,0,0-1.24.44,1.88,1.88,0,0,0-.56,1.31h3.47A1.65,1.65,0,0,0,123.61,494Z"/><path class="cls-6" d="M135.75,492a3.83,3.83,0,0,1,1.37,1.57,6.13,6.13,0,0,1,0,4.85,3.74,3.74,0,0,1-1.37,1.58,3.56,3.56,0,0,1-2,.55,3.19,3.19,0,0,1-1.75-.46,2.72,2.72,0,0,1-1.06-1.26v5.84h-2.72V491.55H131v1.61A2.72,2.72,0,0,1,132,491.9a3.19,3.19,0,0,1,1.75-.46A3.56,3.56,0,0,1,135.75,492Zm-4.25,2.42A2.19,2.19,0,0,0,131,496a2.22,2.22,0,0,0,.55,1.58,2,2,0,0,0,2.82,0,2.65,2.65,0,0,0,0-3.18,2,2,0,0,0-2.82,0Z"/><path class="cls-6" d="M144.16,491.9a2.76,2.76,0,0,1,1.08,1.26v-1.61h2.7v8.88h-2.7v-1.61a2.76,2.76,0,0,1-1.08,1.26,3.19,3.19,0,0,1-1.75.46,3.59,3.59,0,0,1-2-.55,3.74,3.74,0,0,1-1.37-1.58,6.13,6.13,0,0,1,0-4.85,3.83,3.83,0,0,1,1.37-1.57,3.59,3.59,0,0,1,2-.55A3.19,3.19,0,0,1,144.16,491.9Zm-2.29,2.5a2.65,2.65,0,0,0,0,3.18,2,2,0,0,0,2.82,0,2.22,2.22,0,0,0,.55-1.58,2.19,2.19,0,0,0-.55-1.58,2,2,0,0,0-2.82,0Z"/><path class="cls-6" d="M152.54,488.66v11.77h-2.72V488.66Z"/><path class="cls-6" d="M276.58,526.3a2.45,2.45,0,0,1,.54,1.57,2.51,2.51,0,0,1-.88,2,3.77,3.77,0,0,1-2.5.74H269v-10.2h4.63a3.77,3.77,0,0,1,2.4.68,2.31,2.31,0,0,1,.86,1.93,2.43,2.43,0,0,1-.49,1.54,2.36,2.36,0,0,1-1.29.8A2.57,2.57,0,0,1,276.58,526.3Zm-5.12-1.67h1.62c.85,0,1.28-.37,1.28-1.1s-.44-1.09-1.31-1.09h-1.59Zm3.13,2.9a1.07,1.07,0,0,0-.36-.86,1.5,1.5,0,0,0-1-.31h-1.75v2.29h1.76C274.14,528.65,274.59,528.28,274.59,527.53Z"/><path class="cls-6" d="M285.72,523.44a3.74,3.74,0,0,1,.81,2.54v4.68h-2.46v-4.39a1.74,1.74,0,0,0-.43-1.26,1.48,1.48,0,0,0-1.13-.45,1.52,1.52,0,0,0-1.19.47,2,2,0,0,0-.44,1.36v4.27h-2.47V520h2.47v4.1a2.64,2.64,0,0,1,1-1.14,3,3,0,0,1,1.61-.42A2.8,2.8,0,0,1,285.72,523.44Z"/><path class="cls-6" d="M296.17,522.61v8h-2.48V529.2a2.65,2.65,0,0,1-1,1.12,3,3,0,0,1-1.6.42,2.82,2.82,0,0,1-2.2-.92,3.72,3.72,0,0,1-.81-2.54v-4.67h2.45V527a1.75,1.75,0,0,0,.43,1.27,1.46,1.46,0,0,0,1.14.46,1.49,1.49,0,0,0,1.18-.48,1.92,1.92,0,0,0,.44-1.35v-4.27Z"/><path class="cls-6" d="M302.43,528.54v2.12h-1.11a3.21,3.21,0,0,1-2.2-.7,3,3,0,0,1-.79-2.32v-2.95h-1.08v-2.08h1.08v-2h2.47v2h1.61v2.08H300.8v3a.93.93,0,0,0,.19.67,1,1,0,0,0,.66.19Z"/><path class="cls-6" d="M308.45,522.93a2.45,2.45,0,0,1,1,1.14v-1.46h2.45v8h-2.45V529.2a2.55,2.55,0,0,1-1,1.14,2.89,2.89,0,0,1-1.58.42,3.27,3.27,0,0,1-1.78-.5,3.32,3.32,0,0,1-1.24-1.44,5.47,5.47,0,0,1,0-4.39,3.41,3.41,0,0,1,1.24-1.43,3.26,3.26,0,0,1,1.78-.49A2.89,2.89,0,0,1,308.45,522.93Zm-2.06,2.26a2,2,0,0,0-.49,1.44,2,2,0,0,0,.49,1.44,1.63,1.63,0,0,0,1.27.52,1.65,1.65,0,0,0,1.28-.53,2.29,2.29,0,0,0,0-2.86,1.69,1.69,0,0,0-1.28-.53A1.63,1.63,0,0,0,306.39,525.19Z"/><path class="cls-6" d="M320.89,523.44a3.7,3.7,0,0,1,.82,2.54v4.68h-2.47v-4.39a1.78,1.78,0,0,0-.42-1.26,1.49,1.49,0,0,0-1.13-.45,1.55,1.55,0,0,0-1.2.47,2,2,0,0,0-.44,1.36v4.27h-2.46v-8h2.46v1.47a2.73,2.73,0,0,1,1-1.14,3,3,0,0,1,1.6-.42A2.79,2.79,0,0,1,320.89,523.44Z"/><path class="cls-6" d="M390.72,612v9.79h-2.39V615.7l-2.12,6.12h-2.06L382,615.69v6.13h-2.39V612h2.92l2.66,6.82,2.61-6.82Z"/><path class="cls-6" d="M394.16,614l1.87,4.77,1.74-4.77h2.63l-4.85,11.49h-2.62l1.83-4L391.5,614Z"/><path class="cls-6" d="M405.69,614.35a2.46,2.46,0,0,1,.94,1.1V614H409v7.78h-2.37v-1.41a2.4,2.4,0,0,1-.94,1.1,2.83,2.83,0,0,1-1.54.41,3.16,3.16,0,0,1-1.72-.48,3.35,3.35,0,0,1-1.2-1.39,4.83,4.83,0,0,1-.44-2.12,4.77,4.77,0,0,1,.44-2.12,3.41,3.41,0,0,1,1.2-1.39,3.16,3.16,0,0,1,1.72-.48A2.83,2.83,0,0,1,405.69,614.35Zm-2,2.19a2.29,2.29,0,0,0,0,2.78,1.58,1.58,0,0,0,1.23.51,1.62,1.62,0,0,0,1.23-.52,1.93,1.93,0,0,0,.48-1.38,2,2,0,0,0-.48-1.39,1.61,1.61,0,0,0-1.23-.51A1.58,1.58,0,0,0,403.69,616.54Z"/><path class="cls-6" d="M417.71,614.85a3.59,3.59,0,0,1,.79,2.45v4.52h-2.39v-4.24a1.7,1.7,0,0,0-.41-1.22,1.43,1.43,0,0,0-1.09-.44,1.5,1.5,0,0,0-1.15.46,1.85,1.85,0,0,0-.43,1.31v4.13h-2.38V614H413v1.42a2.65,2.65,0,0,1,1-1.1,2.91,2.91,0,0,1,1.55-.4A2.71,2.71,0,0,1,417.71,614.85Z"/><path class="cls-6" d="M432.41,614.84a3.47,3.47,0,0,1,.82,2.46v4.52h-2.37v-4.24a1.58,1.58,0,0,0-.4-1.15,1.43,1.43,0,0,0-1.08-.41,1.48,1.48,0,0,0-1.12.44,1.74,1.74,0,0,0-.41,1.23v4.13h-2.38v-4.24a1.62,1.62,0,0,0-.39-1.15A1.43,1.43,0,0,0,424,616a1.54,1.54,0,0,0-1.13.43,1.72,1.72,0,0,0-.41,1.24v4.13h-2.39V614h2.39v1.33a2.3,2.3,0,0,1,.94-1,2.83,2.83,0,0,1,1.48-.37,3,3,0,0,1,1.58.41,2.59,2.59,0,0,1,1,1.18,3.09,3.09,0,0,1,1.11-1.16,2.85,2.85,0,0,1,1.55-.43A2.93,2.93,0,0,1,432.41,614.84Z"/><path class="cls-6" d="M439.31,614.35a2.48,2.48,0,0,1,.95,1.1V614h2.37v7.78h-2.37v-1.41a2.42,2.42,0,0,1-.95,1.1,2.82,2.82,0,0,1-1.53.41,3.17,3.17,0,0,1-1.73-.48,3.42,3.42,0,0,1-1.2-1.39,4.83,4.83,0,0,1-.43-2.12,4.77,4.77,0,0,1,.43-2.12,3.49,3.49,0,0,1,1.2-1.39,3.17,3.17,0,0,1,1.73-.48A2.82,2.82,0,0,1,439.31,614.35Zm-2,2.19a2.29,2.29,0,0,0,0,2.78,1.58,1.58,0,0,0,1.23.51,1.64,1.64,0,0,0,1.24-.52,1.93,1.93,0,0,0,.48-1.38,2,2,0,0,0-.48-1.39,1.64,1.64,0,0,0-1.24-.51A1.58,1.58,0,0,0,437.31,616.54Z"/><path class="cls-6" d="M447.8,614.38a2.94,2.94,0,0,1,1.53-.42v2.55h-.68a2.36,2.36,0,0,0-1.47.4,1.63,1.63,0,0,0-.53,1.37v3.54h-2.38V614h2.38v1.47A3.36,3.36,0,0,1,447.8,614.38Z"/><path class="cls-6" d="M520.71,688.75h3.88V691H517.8V679h2.91Z"/><path class="cls-6" d="M531.41,681.86a2.89,2.89,0,0,1,1.15,1.34v-1.72h2.9V691h-2.9v-1.71a2.94,2.94,0,0,1-1.15,1.34,3.43,3.43,0,0,1-1.87.49,3.86,3.86,0,0,1-2.1-.58,4.09,4.09,0,0,1-1.47-1.7,6.57,6.57,0,0,1,0-5.17,4,4,0,0,1,1.47-1.69,3.87,3.87,0,0,1,2.1-.59A3.44,3.44,0,0,1,531.41,681.86ZM529,684.53a2.82,2.82,0,0,0,0,3.4,2.14,2.14,0,0,0,3,0,2.74,2.74,0,0,0,0-3.37,2.15,2.15,0,0,0-3,0Z"/><path class="cls-6" d="M544.43,682a4.38,4.38,0,0,1,1.75,1.69,5.54,5.54,0,0,1,0,5.17,4.4,4.4,0,0,1-1.75,1.7,5.81,5.81,0,0,1-5.06,0,4.3,4.3,0,0,1-1.76-1.7,5.54,5.54,0,0,1,0-5.17,4.28,4.28,0,0,1,1.76-1.69,5.72,5.72,0,0,1,5.06,0Zm-3.93,2.54a2.43,2.43,0,0,0-.57,1.74,2.39,2.39,0,0,0,.57,1.73,1.93,1.93,0,0,0,2.8,0,2.43,2.43,0,0,0,.56-1.73,2.47,2.47,0,0,0-.56-1.74,1.91,1.91,0,0,0-2.8,0Z"/><path class="cls-6" d="M554.66,682.27a4,4,0,0,1,1.36,2.38h-2.73a1.48,1.48,0,0,0-.53-.91,1.65,1.65,0,0,0-1-.33,1.16,1.16,0,0,0-.75.21.76.76,0,0,0-.25.6.72.72,0,0,0,.47.67,8.16,8.16,0,0,0,1.47.44,13.77,13.77,0,0,1,1.78.52,2.84,2.84,0,0,1,1.21.86,2.35,2.35,0,0,1,.51,1.59,2.49,2.49,0,0,1-.44,1.45,3,3,0,0,1-1.28,1,5.89,5.89,0,0,1-5-.5,3.58,3.58,0,0,1-1.41-2.43h2.81a1.26,1.26,0,0,0,.52.94,2,2,0,0,0,1.16.32,1.1,1.1,0,0,0,.75-.23.77.77,0,0,0,.25-.6.72.72,0,0,0-.46-.71,9.17,9.17,0,0,0-1.52-.45,12.17,12.17,0,0,1-1.74-.48,2.87,2.87,0,0,1-1.17-.82,2.3,2.3,0,0,1-.5-1.56,2.54,2.54,0,0,1,1-2.06,4.22,4.22,0,0,1,2.74-.8A4.3,4.3,0,0,1,554.66,682.27Z"/><path class="cls-6" d="M566.56,642.5l2.21,6.8,2.21-6.8h2.34l-3.15,9h-2.82l-3.13-9Z"/><path class="cls-6" d="M574.32,641.58a1.31,1.31,0,0,1,.94-.33,1.36,1.36,0,0,1,1,.33,1.1,1.1,0,0,1,0,1.63,1.36,1.36,0,0,1-1,.33,1.31,1.31,0,0,1-.94-.33,1.1,1.1,0,0,1,0-1.63Zm2,2.83v7.13h-2.19v-7.13Z"/><path class="cls-6" d="M584.57,648.37h-5a1.67,1.67,0,0,0,.41,1.16,1.34,1.34,0,0,0,1,.35,1.23,1.23,0,0,0,.8-.25,1.15,1.15,0,0,0,.42-.62h2.32a3.09,3.09,0,0,1-.62,1.35,3.29,3.29,0,0,1-1.2.93,3.7,3.7,0,0,1-1.62.34,3.87,3.87,0,0,1-1.86-.44,3.17,3.17,0,0,1-1.27-1.27,4,4,0,0,1-.46-1.95,4,4,0,0,1,.45-2,3.08,3.08,0,0,1,1.27-1.26,4.22,4.22,0,0,1,3.73,0,3.06,3.06,0,0,1,1.25,1.22,3.6,3.6,0,0,1,.44,1.81A3.19,3.19,0,0,1,584.57,648.37Zm-2.53-2a1.4,1.4,0,0,0-1-.35,1.44,1.44,0,0,0-1,.36,1.55,1.55,0,0,0-.45,1.05h2.79A1.33,1.33,0,0,0,582,646.39Z"/><path class="cls-6" d="M589.81,649.66v1.88h-1a2.83,2.83,0,0,1-2-.62,2.61,2.61,0,0,1-.7-2v-2.62h-1v-1.84h1v-1.75h2.18v1.75h1.44v1.84h-1.44v2.66a.76.76,0,0,0,.18.58.82.82,0,0,0,.58.17Z"/><path class="cls-6" d="M597.51,645.15a3.27,3.27,0,0,1,.72,2.25v4.14h-2.18v-3.89a1.6,1.6,0,0,0-.38-1.12,1.34,1.34,0,0,0-1-.4,1.37,1.37,0,0,0-1.06.42,1.74,1.74,0,0,0-.39,1.21v3.78H591v-7.13h2.18v1.3a2.36,2.36,0,0,1,.92-1,2.64,2.64,0,0,1,1.42-.37A2.45,2.45,0,0,1,597.51,645.15Z"/><path class="cls-6" d="M603.79,644.69a2.09,2.09,0,0,1,.87,1v-1.29h2.18v7.13h-2.18v-1.29a2.14,2.14,0,0,1-.87,1,2.54,2.54,0,0,1-1.4.37,2.91,2.91,0,0,1-1.58-.44,3,3,0,0,1-1.1-1.27,4.44,4.44,0,0,1-.4-1.95,4.38,4.38,0,0,1,.4-2,3,3,0,0,1,1.1-1.26,2.83,2.83,0,0,1,1.58-.44A2.54,2.54,0,0,1,603.79,644.69Zm-1.83,2a1.8,1.8,0,0,0-.43,1.28,1.77,1.77,0,0,0,.43,1.28,1.46,1.46,0,0,0,1.13.46,1.49,1.49,0,0,0,1.13-.47,2.05,2.05,0,0,0,0-2.54,1.61,1.61,0,0,0-2.26,0Z"/><path class="cls-6" d="M619.66,645.14a3.19,3.19,0,0,1,.75,2.26v4.14h-2.17v-3.89a1.42,1.42,0,0,0-.37-1,1.31,1.31,0,0,0-1-.38,1.39,1.39,0,0,0-1,.4,1.61,1.61,0,0,0-.37,1.14v3.78h-2.19v-3.89a1.45,1.45,0,0,0-.36-1,1.29,1.29,0,0,0-1-.38,1.36,1.36,0,0,0-1,.4,1.58,1.58,0,0,0-.38,1.14v3.78h-2.19v-7.13h2.19v1.21a2.25,2.25,0,0,1,.86-1,2.62,2.62,0,0,1,1.36-.34,2.77,2.77,0,0,1,1.45.38,2.31,2.31,0,0,1,.94,1.08,2.81,2.81,0,0,1,1-1.06,2.64,2.64,0,0,1,1.43-.4A2.71,2.71,0,0,1,619.66,645.14Z"/><path class="cls-6" d="M387.51,630.84a9.78,9.78,0,0,1,2.85-3.56h2.38v.24a10.85,10.85,0,0,0-3,3.7,10.58,10.58,0,0,0-1,4.57,10.31,10.31,0,0,0,3.94,8.28v.23h-2.38a9.74,9.74,0,0,1-2.85-3.55,11.91,11.91,0,0,1,0-9.91Z"/><path class="cls-6" d="M400.43,637.24a2.45,2.45,0,0,1,.54,1.57,2.53,2.53,0,0,1-.87,2.05,3.81,3.81,0,0,1-2.51.74h-4.75V631.39h4.63a3.83,3.83,0,0,1,2.42.68,2.35,2.35,0,0,1,.85,1.93,2.43,2.43,0,0,1-.49,1.54,2.25,2.25,0,0,1-1.29.8A2.6,2.6,0,0,1,400.43,637.24Zm-5.12-1.68h1.62c.85,0,1.28-.36,1.28-1.09s-.44-1.1-1.31-1.1h-1.59Zm3.13,2.91a1.06,1.06,0,0,0-.36-.86,1.5,1.5,0,0,0-1-.31h-1.75v2.29h1.76C398,639.59,398.44,639.22,398.44,638.47Z"/><path class="cls-6" d="M402.44,630.34a1.77,1.77,0,0,1,2.14,0,1.22,1.22,0,0,1,.4.94,1.17,1.17,0,0,1-.4.91,1.73,1.73,0,0,1-2.14,0,1.17,1.17,0,0,1-.4-.91A1.22,1.22,0,0,1,402.44,630.34Zm2.3,3.2v8.06h-2.47v-8.06Z"/><path class="cls-6" d="M410.1,633.89a3,3,0,0,1,1.58-.43v2.64H411a2.43,2.43,0,0,0-1.52.42,1.68,1.68,0,0,0-.54,1.41v3.67h-2.47v-8.06h2.47v1.52A3.5,3.5,0,0,1,410.1,633.89Z"/><path class="cls-6" d="M425.5,634.37a3.59,3.59,0,0,1,.85,2.55v4.68H423.9v-4.39a1.61,1.61,0,0,0-.42-1.19,1.44,1.44,0,0,0-1.11-.43,1.51,1.51,0,0,0-1.17.46,1.81,1.81,0,0,0-.42,1.28v4.27h-2.47v-4.39a1.65,1.65,0,0,0-.41-1.19,1.44,1.44,0,0,0-1.11-.43,1.55,1.55,0,0,0-1.17.45,1.78,1.78,0,0,0-.43,1.29v4.27h-2.47v-8.06h2.47v1.37a2.5,2.5,0,0,1,1-1.07,3.06,3.06,0,0,1,1.54-.38,3.12,3.12,0,0,1,1.63.42,2.71,2.71,0,0,1,1.07,1.22,3.23,3.23,0,0,1,1.15-1.2,3.09,3.09,0,0,1,1.61-.44A3,3,0,0,1,425.5,634.37Z"/><path class="cls-6" d="M432.64,633.86a2.55,2.55,0,0,1,1,1.14v-1.46h2.45v8.06h-2.45v-1.46a2.55,2.55,0,0,1-1,1.14,2.89,2.89,0,0,1-1.58.42,3.3,3.3,0,0,1-1.79-.5,3.45,3.45,0,0,1-1.24-1.44,5.58,5.58,0,0,1,0-4.39,3.49,3.49,0,0,1,1.24-1.43,3.3,3.3,0,0,1,1.79-.5A2.89,2.89,0,0,1,432.64,633.86Zm-2.07,2.27a2.4,2.4,0,0,0,0,2.88,1.82,1.82,0,0,0,2.56,0,2.31,2.31,0,0,0,0-2.87,1.84,1.84,0,0,0-2.56,0Z"/><path class="cls-6" d="M441.45,640.74a10,10,0,0,1-2.84,3.56H436.2v-.23a10.32,10.32,0,0,0,3.95-8.28,10.58,10.58,0,0,0-1-4.57,11,11,0,0,0-3-3.7v-.24h2.41a10.07,10.07,0,0,1,2.84,3.56,11.88,11.88,0,0,1,0,9.9Z"/><path class="cls-6" d="M261.58,583.48a2,2,0,0,1,.45,1.3,2.13,2.13,0,0,1-.73,1.7,3.15,3.15,0,0,1-2.07.61H255.3v-8.45h3.83a3.11,3.11,0,0,1,2,.56,1.92,1.92,0,0,1,.7,1.6,2,2,0,0,1-.4,1.27,1.92,1.92,0,0,1-1.07.67A2.06,2.06,0,0,1,261.58,583.48Zm-4.24-1.39h1.34c.71,0,1.06-.3,1.06-.91s-.36-.91-1.08-.91h-1.32Zm2.59,2.4a.91.91,0,0,0-.29-.71,1.29,1.29,0,0,0-.85-.26h-1.45v1.9h1.46C259.56,585.42,259.93,585.11,259.93,584.49Z"/><path class="cls-6" d="M267,580.68a2.05,2.05,0,0,1,.81.94v-1.2h2v6.67h-2v-1.21a2,2,0,0,1-.81.94,2.45,2.45,0,0,1-1.32.35,2.71,2.71,0,0,1-1.47-.41,2.8,2.8,0,0,1-1-1.19,4.17,4.17,0,0,1-.38-1.82,4.11,4.11,0,0,1,.38-1.82,2.71,2.71,0,0,1,1-1.18,2.63,2.63,0,0,1,1.47-.42A2.45,2.45,0,0,1,267,580.68Zm-1.72,1.88a1.69,1.69,0,0,0-.4,1.19,1.74,1.74,0,0,0,.4,1.2,1.41,1.41,0,0,0,1.06.43,1.38,1.38,0,0,0,1.06-.45,1.66,1.66,0,0,0,.41-1.18,1.69,1.69,0,0,0-.41-1.19,1.4,1.4,0,0,0-1.06-.43A1.37,1.37,0,0,0,265.23,582.56Z"/><path class="cls-6" d="M277.26,581.11a3.06,3.06,0,0,1,.67,2.1v3.88h-2v-3.64a1.49,1.49,0,0,0-.35-1,1.24,1.24,0,0,0-.94-.38,1.28,1.28,0,0,0-1,.39,1.63,1.63,0,0,0-.36,1.13v3.54H271.2v-6.67h2.05v1.22a2.17,2.17,0,0,1,.85-.95,2.51,2.51,0,0,1,1.33-.34A2.31,2.31,0,0,1,277.26,581.11Z"/><path class="cls-6" d="M283.13,580.68a2.05,2.05,0,0,1,.81.94v-1.2h2v6.63a3.83,3.83,0,0,1-.35,1.68,2.8,2.8,0,0,1-1.1,1.19,3.61,3.61,0,0,1-1.84.44,3.8,3.8,0,0,1-2.41-.71,2.92,2.92,0,0,1-1.08-1.93h2a1,1,0,0,0,.43.63,1.61,1.61,0,0,0,.89.23,1.39,1.39,0,0,0,1-.37,1.52,1.52,0,0,0,.39-1.16v-1.17a2,2,0,0,1-.81.94,2.42,2.42,0,0,1-1.31.35,2.74,2.74,0,0,1-1.48-.41,2.87,2.87,0,0,1-1-1.19,4.17,4.17,0,0,1-.37-1.82,4.11,4.11,0,0,1,.37-1.82,2.78,2.78,0,0,1,1-1.18,2.67,2.67,0,0,1,1.48-.42A2.42,2.42,0,0,1,283.13,580.68Zm-1.71,1.88a1.65,1.65,0,0,0-.4,1.19,1.69,1.69,0,0,0,.4,1.2,1.49,1.49,0,0,0,2.11,0,1.62,1.62,0,0,0,.41-1.18,1.64,1.64,0,0,0-.41-1.19,1.39,1.39,0,0,0-1.06-.43A1.34,1.34,0,0,0,281.42,582.56Z"/><path class="cls-6" d="M289.43,578.24v8.85h-2.05v-8.85Z"/><path class="cls-6" d="M294.69,580.68a2.18,2.18,0,0,1,.81.94v-1.2h2v6.67h-2v-1.21a2.12,2.12,0,0,1-.81.94,2.45,2.45,0,0,1-1.32.35,2.71,2.71,0,0,1-1.47-.41,2.8,2.8,0,0,1-1-1.19,4.17,4.17,0,0,1-.38-1.82,4.11,4.11,0,0,1,.38-1.82,2.71,2.71,0,0,1,1-1.18,2.63,2.63,0,0,1,1.47-.42A2.45,2.45,0,0,1,294.69,580.68ZM293,582.56a1.65,1.65,0,0,0-.4,1.19,1.69,1.69,0,0,0,.4,1.2,1.41,1.41,0,0,0,1.06.43,1.38,1.38,0,0,0,1.06-.45,1.66,1.66,0,0,0,.41-1.18,1.69,1.69,0,0,0-.41-1.19,1.4,1.4,0,0,0-1.06-.43A1.37,1.37,0,0,0,293,582.56Z"/><path class="cls-6" d="M302.79,580.68a2,2,0,0,1,.8.94v-3.38h2v8.85h-2v-1.21a2,2,0,0,1-.8.94,2.45,2.45,0,0,1-1.32.35,2.71,2.71,0,0,1-1.47-.41,2.8,2.8,0,0,1-1-1.19,4.17,4.17,0,0,1-.38-1.82,4.11,4.11,0,0,1,.38-1.82,2.71,2.71,0,0,1,1-1.18,2.63,2.63,0,0,1,1.47-.42A2.45,2.45,0,0,1,302.79,580.68Zm-1.72,1.88a1.69,1.69,0,0,0-.4,1.19,1.74,1.74,0,0,0,.4,1.2,1.41,1.41,0,0,0,1.06.43,1.38,1.38,0,0,0,1.06-.45,1.66,1.66,0,0,0,.41-1.18,1.69,1.69,0,0,0-.41-1.19,1.4,1.4,0,0,0-1.06-.43A1.37,1.37,0,0,0,301.07,582.56Z"/><path class="cls-6" d="M313.32,584.12h-4.63a1.58,1.58,0,0,0,.38,1.08,1.26,1.26,0,0,0,.89.33,1.16,1.16,0,0,0,.75-.23,1.08,1.08,0,0,0,.4-.58h2.16a2.89,2.89,0,0,1-.57,1.26,3.06,3.06,0,0,1-1.13.87,3.81,3.81,0,0,1-3.25-.09,2.9,2.9,0,0,1-1.19-1.19,3.68,3.68,0,0,1-.43-1.82,3.74,3.74,0,0,1,.42-1.82,2.82,2.82,0,0,1,1.19-1.18,3.56,3.56,0,0,1,1.74-.42,3.62,3.62,0,0,1,1.75.41,2.83,2.83,0,0,1,1.16,1.14,3.34,3.34,0,0,1,.42,1.69A2.8,2.8,0,0,1,313.32,584.12ZM311,582.28a1.32,1.32,0,0,0-.91-.33,1.36,1.36,0,0,0-.93.33,1.46,1.46,0,0,0-.42,1h2.61A1.2,1.2,0,0,0,311,582.28Z"/><path class="cls-6" d="M318.89,581a2.74,2.74,0,0,1,.95,1.67h-1.91a1.08,1.08,0,0,0-.38-.64,1.1,1.1,0,0,0-.73-.23.82.82,0,0,0-.53.15.52.52,0,0,0-.18.42.51.51,0,0,0,.33.47,6.18,6.18,0,0,0,1,.31,11.22,11.22,0,0,1,1.25.36,2.13,2.13,0,0,1,.85.61,1.64,1.64,0,0,1,.36,1.12,1.81,1.81,0,0,1-.31,1,2.13,2.13,0,0,1-.9.69,3.45,3.45,0,0,1-1.39.25,3.55,3.55,0,0,1-2.16-.6,2.54,2.54,0,0,1-1-1.71h2a.86.86,0,0,0,.37.66,1.36,1.36,0,0,0,.81.23.8.8,0,0,0,.53-.16.55.55,0,0,0,.18-.43.5.5,0,0,0-.33-.49,5.7,5.7,0,0,0-1.07-.32,8.18,8.18,0,0,1-1.22-.34,2,2,0,0,1-.82-.58,1.6,1.6,0,0,1-.35-1.09,1.79,1.79,0,0,1,.68-1.45,3.55,3.55,0,0,1,3.95.08Z"/><path class="cls-6" d="M327.13,581.11a3.06,3.06,0,0,1,.67,2.1v3.88h-2v-3.64a1.49,1.49,0,0,0-.35-1,1.24,1.24,0,0,0-.94-.38,1.28,1.28,0,0,0-1,.39,1.63,1.63,0,0,0-.36,1.13v3.54h-2.05v-8.85h2.05v3.4a2.17,2.17,0,0,1,.85-.95,2.51,2.51,0,0,1,1.33-.34A2.31,2.31,0,0,1,327.13,581.11Z"/><path class="cls-6" d="M183.14,556.17V568.8h-3.06V556.17Z"/><path class="cls-6" d="M194.3,559.87a4.59,4.59,0,0,1,1,3.14v5.79h-3.06v-5.43a2.18,2.18,0,0,0-.52-1.56,1.84,1.84,0,0,0-1.41-.57,1.91,1.91,0,0,0-1.47.59,2.38,2.38,0,0,0-.55,1.68v5.29h-3.05v-10h3.05v1.82a3.35,3.35,0,0,1,1.28-1.41,3.81,3.81,0,0,1,2-.52A3.43,3.43,0,0,1,194.3,559.87Z"/><path class="cls-6" d="M203.08,559.22a3,3,0,0,1,1.2,1.42v-5.06h3.05V568.8h-3.05V567a3,3,0,0,1-1.2,1.41,3.56,3.56,0,0,1-2,.52,4,4,0,0,1-2.21-.62,4.22,4.22,0,0,1-1.54-1.78,6.89,6.89,0,0,1,0-5.44,4.25,4.25,0,0,1,1.54-1.77,4,4,0,0,1,2.21-.61A3.64,3.64,0,0,1,203.08,559.22ZM200.52,562a3,3,0,0,0,0,3.57,2.23,2.23,0,0,0,3.16,0,2.85,2.85,0,0,0,0-3.55,2.26,2.26,0,0,0-3.16,0Z"/><path class="cls-6" d="M209.66,554.87a2.16,2.16,0,0,1,2.64,0,1.48,1.48,0,0,1,.5,1.15,1.45,1.45,0,0,1-.5,1.14,2.12,2.12,0,0,1-2.64,0,1.45,1.45,0,0,1-.5-1.14A1.48,1.48,0,0,1,209.66,554.87Zm2.84,4v10h-3.06v-10Z"/><path class="cls-6" d="M220.36,559.22a3.18,3.18,0,0,1,1.22,1.42v-1.81h3v10h-3V567a3.21,3.21,0,0,1-1.22,1.41,3.56,3.56,0,0,1-2,.52,4,4,0,0,1-2.21-.62,4.22,4.22,0,0,1-1.54-1.78,6.89,6.89,0,0,1,0-5.44,4.25,4.25,0,0,1,1.54-1.77,4,4,0,0,1,2.21-.61A3.64,3.64,0,0,1,220.36,559.22ZM217.8,562a3,3,0,0,0,0,3.57,2.23,2.23,0,0,0,3.16,0,2.85,2.85,0,0,0,0-3.55,2.26,2.26,0,0,0-3.16,0Z"/><path class="cls-6" d="M491,747.88v2h-2.9v8.61h-2.59v-8.61H482.6v-2Z"/><path class="cls-6" d="M499.66,751a3.88,3.88,0,0,1,.86,2.66v4.88h-2.58V754a1.82,1.82,0,0,0-.45-1.32,1.52,1.52,0,0,0-1.18-.48,1.6,1.6,0,0,0-1.24.5,2,2,0,0,0-.46,1.42v4.46H492V747.39h2.58v4.28a2.71,2.71,0,0,1,1.08-1.19,3.05,3.05,0,0,1,1.68-.44A2.9,2.9,0,0,1,499.66,751Z"/><path class="cls-6" d="M507.07,750.46a2.71,2.71,0,0,1,1,1.19v-1.52h2.56v8.41H508.1V757a2.77,2.77,0,0,1-1,1.19,3,3,0,0,1-1.66.43,3.37,3.37,0,0,1-3.15-2,5.7,5.7,0,0,1,0-4.58,3.52,3.52,0,0,1,1.29-1.5,3.47,3.47,0,0,1,1.86-.52A3,3,0,0,1,507.07,750.46Zm-2.16,2.37a2.48,2.48,0,0,0,0,3,1.9,1.9,0,0,0,2.67,0,2.11,2.11,0,0,0,.52-1.49,2.14,2.14,0,0,0-.52-1.5,1.8,1.8,0,0,0-1.34-.55A1.71,1.71,0,0,0,504.91,752.83Z"/><path class="cls-6" d="M512.62,746.79a1.61,1.61,0,0,1,1.11-.38,1.65,1.65,0,0,1,1.12.38,1.26,1.26,0,0,1,.42,1,1.24,1.24,0,0,1-.42,1,1.6,1.6,0,0,1-1.12.38,1.56,1.56,0,0,1-1.11-.38,1.22,1.22,0,0,1-.43-1A1.24,1.24,0,0,1,512.62,746.79Zm2.39,3.34v8.41h-2.57v-8.41Z"/><path class="cls-6" d="M519.37,747.39v11.15h-2.58V747.39Z"/><path class="cls-6" d="M526,750.46a2.63,2.63,0,0,1,1,1.19v-1.52h2.56v8.41H527V757a2.68,2.68,0,0,1-1,1.19,3.06,3.06,0,0,1-1.66.43,3.39,3.39,0,0,1-1.86-.52,3.49,3.49,0,0,1-1.3-1.5,5.81,5.81,0,0,1,0-4.58,3.61,3.61,0,0,1,1.3-1.5,3.47,3.47,0,0,1,1.86-.52A3.07,3.07,0,0,1,526,750.46Zm-2.17,2.37a2.52,2.52,0,0,0,0,3,1.76,1.76,0,0,0,1.34.54,1.7,1.7,0,0,0,1.33-.56,2.07,2.07,0,0,0,.52-1.49,2.09,2.09,0,0,0-.52-1.5,1.76,1.76,0,0,0-1.33-.55A1.74,1.74,0,0,0,523.83,752.83Z"/><path class="cls-6" d="M539,751a3.88,3.88,0,0,1,.86,2.66v4.88h-2.58V754a1.82,1.82,0,0,0-.45-1.32,1.52,1.52,0,0,0-1.18-.48,1.6,1.6,0,0,0-1.24.5,2,2,0,0,0-.46,1.42v4.46h-2.58v-8.41h2.58v1.54a2.71,2.71,0,0,1,1.08-1.19,3.05,3.05,0,0,1,1.68-.44A2.9,2.9,0,0,1,539,751Z"/><path class="cls-6" d="M546.4,750.46a2.55,2.55,0,0,1,1,1.19v-4.26H550v11.15h-2.58V757a2.6,2.6,0,0,1-1,1.19,3,3,0,0,1-1.66.43,3.37,3.37,0,0,1-3.15-2,5.7,5.7,0,0,1,0-4.58,3.52,3.52,0,0,1,1.29-1.5,3.47,3.47,0,0,1,1.86-.52A3,3,0,0,1,546.4,750.46Zm-2.16,2.37a2.48,2.48,0,0,0,0,3,1.9,1.9,0,0,0,2.67,0,2.11,2.11,0,0,0,.52-1.49,2.14,2.14,0,0,0-.52-1.5,1.8,1.8,0,0,0-1.34-.55A1.7,1.7,0,0,0,544.24,752.83Z"/><path class="cls-6" d="M1059.79,310.41H1064v1.85h-6.73v-1.74l4.12-5.9h-4.07v-1.83h6.65v1.74Z"/><path class="cls-6" d="M1072.81,304.78v7.48h-2.3v-1.35a2.35,2.35,0,0,1-1,1,2.77,2.77,0,0,1-1.48.39,2.57,2.57,0,0,1-2-.85,3.43,3.43,0,0,1-.76-2.36v-4.35h2.28v4.06a1.69,1.69,0,0,0,.39,1.19,1.58,1.58,0,0,0,2.17,0,1.78,1.78,0,0,0,.4-1.26v-4Z"/><path class="cls-6" d="M1074.56,301.82a1.58,1.58,0,0,1,2,0,1.15,1.15,0,0,1,0,1.71,1.61,1.61,0,0,1-2,0,1.15,1.15,0,0,1,0-1.71Zm2.13,3v7.48h-2.29v-7.48Z"/><path class="cls-6" d="M1082.59,305.08a2.2,2.2,0,0,1,.89,1.06v-3.8h2.29v9.92h-2.29v-1.35a2.2,2.2,0,0,1-.89,1.06,2.75,2.75,0,0,1-1.48.39,3,3,0,0,1-1.66-.47,3.14,3.14,0,0,1-1.15-1.33,5.16,5.16,0,0,1,0-4.08,3.2,3.2,0,0,1,1.15-1.33,3,3,0,0,1,1.66-.46A2.75,2.75,0,0,1,1082.59,305.08Zm-1.93,2.1a2.22,2.22,0,0,0,0,2.68,1.67,1.67,0,0,0,2.37,0,2.12,2.12,0,0,0,0-2.66,1.53,1.53,0,0,0-1.18-.49A1.56,1.56,0,0,0,1080.66,307.18Z"/><path class="cls-6" d="M1092.56,306.61v1.9h-5.91v-1.9Z"/><path class="cls-6" d="M1061.88,323.51l3.82,4.83h-2.78l-3.21-4.24v4.24h-2.29v-9.47h2.29V323l3.24-4.17h2.75Z"/><path class="cls-6" d="M1072.15,321.23a3.36,3.36,0,0,1,1.38,1.34,4.39,4.39,0,0,1,0,4.07,3.36,3.36,0,0,1-1.38,1.34,4.29,4.29,0,0,1-2,.46,4.36,4.36,0,0,1-2-.46,3.42,3.42,0,0,1-1.38-1.34,4.39,4.39,0,0,1,0-4.07,3.42,3.42,0,0,1,1.38-1.34,4.36,4.36,0,0,1,2-.46A4.29,4.29,0,0,1,1072.15,321.23Zm-3.09,2a1.94,1.94,0,0,0-.45,1.38,1.89,1.89,0,0,0,.45,1.36,1.43,1.43,0,0,0,1.1.47,1.42,1.42,0,0,0,1.1-.47,1.89,1.89,0,0,0,.44-1.36,1.94,1.94,0,0,0-.44-1.38,1.42,1.42,0,0,0-1.1-.47A1.43,1.43,0,0,0,1069.06,323.23Z"/><path class="cls-6" d="M1078.62,321.19a2.85,2.85,0,0,1,1.47-.4v2.45h-.65a2.28,2.28,0,0,0-1.42.39,1.56,1.56,0,0,0-.5,1.31v3.4h-2.29v-7.47h2.29v1.4A3.25,3.25,0,0,1,1078.62,321.19Z"/><path class="cls-6" d="M1088.09,325h-5.18a1.69,1.69,0,0,0,.43,1.21,1.35,1.35,0,0,0,1,.37,1.33,1.33,0,0,0,.84-.25,1.2,1.2,0,0,0,.44-.66H1088a3.22,3.22,0,0,1-.64,1.42,3.39,3.39,0,0,1-1.26,1,4,4,0,0,1-1.71.36,4.13,4.13,0,0,1-2-.46,3.36,3.36,0,0,1-1.33-1.34,4.14,4.14,0,0,1-.48-2,4.28,4.28,0,0,1,.47-2.05,3.36,3.36,0,0,1,1.34-1.33,4.13,4.13,0,0,1,2-.46,4,4,0,0,1,2,.46,3.23,3.23,0,0,1,1.31,1.28,3.78,3.78,0,0,1,.46,1.89A2.81,2.81,0,0,1,1088.09,325Zm-2.64-2.07a1.46,1.46,0,0,0-1-.37,1.5,1.5,0,0,0-1,.38,1.56,1.56,0,0,0-.47,1.1h2.92A1.38,1.38,0,0,0,1085.45,323Z"/><path class="cls-6" d="M1093.67,321.16a2.35,2.35,0,0,1,.91,1.06v-1.35h2.28v7.47h-2.28V327a2.35,2.35,0,0,1-.91,1.06,2.7,2.7,0,0,1-1.48.39,3.1,3.1,0,0,1-1.65-.46,3.16,3.16,0,0,1-1.15-1.34,5.05,5.05,0,0,1,0-4.08,3.19,3.19,0,0,1,1.15-1.33,3.1,3.1,0,0,1,1.65-.46A2.7,2.7,0,0,1,1093.67,321.16Zm-1.93,2.11a1.91,1.91,0,0,0-.44,1.34,2,2,0,0,0,.44,1.34,1.69,1.69,0,0,0,2.38,0,2.15,2.15,0,0,0,0-2.66,1.6,1.6,0,0,0-1.19-.49A1.53,1.53,0,0,0,1091.74,323.27Z"/><path class="cls-6" d="M1035.39,223.61h-2.19l-3.68-5.57v5.57h-2.19v-9.08h2.19l3.68,5.63v-5.63h2.19Z"/><path class="cls-6" d="M1042.17,216.8a3.25,3.25,0,0,1,1.32,1.28,4.2,4.2,0,0,1,0,3.9,3.25,3.25,0,0,1-1.32,1.28,4.37,4.37,0,0,1-3.82,0A3.22,3.22,0,0,1,1037,222a4.2,4.2,0,0,1,0-3.9,3.22,3.22,0,0,1,1.33-1.28,4.37,4.37,0,0,1,3.82,0Zm-3,1.91a1.86,1.86,0,0,0-.43,1.32,1.82,1.82,0,0,0,.43,1.31,1.41,1.41,0,0,0,1.06.45,1.38,1.38,0,0,0,1-.45,1.82,1.82,0,0,0,.43-1.31,1.86,1.86,0,0,0-.43-1.32,1.38,1.38,0,0,0-1-.45A1.41,1.41,0,0,0,1039.2,218.71Z"/><path class="cls-6" d="M1050.38,216.8a3.25,3.25,0,0,1,1.32,1.28,4.2,4.2,0,0,1,0,3.9,3.25,3.25,0,0,1-1.32,1.28,4,4,0,0,1-1.91.44,4.05,4.05,0,0,1-1.92-.44,3.34,3.34,0,0,1-1.33-1.28,4.2,4.2,0,0,1,0-3.9,3.34,3.34,0,0,1,1.33-1.28,4.05,4.05,0,0,1,1.92-.44A4,4,0,0,1,1050.38,216.8Zm-3,1.91A1.86,1.86,0,0,0,1047,220a1.82,1.82,0,0,0,.43,1.31,1.41,1.41,0,0,0,1.06.45,1.38,1.38,0,0,0,1-.45,1.86,1.86,0,0,0,.42-1.31,1.9,1.9,0,0,0-.42-1.32,1.38,1.38,0,0,0-1-.45A1.41,1.41,0,0,0,1047.41,218.71Z"/><path class="cls-6" d="M1056.58,216.75a2.76,2.76,0,0,1,1.41-.38v2.35h-.63a2.16,2.16,0,0,0-1.36.37,1.5,1.5,0,0,0-.48,1.26v3.26h-2.2v-7.16h2.2v1.34A3.19,3.19,0,0,1,1056.58,216.75Z"/><path class="cls-6" d="M1063.05,216.73a2.22,2.22,0,0,1,.86,1v-3.63h2.19v9.5h-2.19v-1.29a2.22,2.22,0,0,1-.86,1,2.61,2.61,0,0,1-1.42.37,2.83,2.83,0,0,1-1.58-.44,3,3,0,0,1-1.11-1.28,5,5,0,0,1,0-3.91,3.07,3.07,0,0,1,1.11-1.27,2.83,2.83,0,0,1,1.58-.44A2.61,2.61,0,0,1,1063.05,216.73Zm-1.85,2a2.12,2.12,0,0,0,0,2.56,1.61,1.61,0,0,0,2.28,0,2.07,2.07,0,0,0,0-2.55,1.52,1.52,0,0,0-1.14-.47A1.49,1.49,0,0,0,1061.2,218.75Z"/><path class="cls-6" d="M1072.6,218.19V220h-5.66v-1.83Z"/><path class="cls-6" d="M1031.6,234.39l3.66,4.64h-2.65l-3.09-4.08V239h-2.19V230h2.19v4l3.11-4h2.63Z"/><path class="cls-6" d="M1041.45,232.21a3.25,3.25,0,0,1,1.32,1.28,3.86,3.86,0,0,1,.48,1.95,3.81,3.81,0,0,1-.48,1.95,3.19,3.19,0,0,1-1.32,1.28,4.28,4.28,0,0,1-3.82,0,3.16,3.16,0,0,1-1.33-1.28,3.81,3.81,0,0,1-.48-1.95,3.86,3.86,0,0,1,.48-1.95,3.22,3.22,0,0,1,1.33-1.28,4.37,4.37,0,0,1,3.82,0Zm-3,1.92a2.21,2.21,0,0,0,0,2.62,1.47,1.47,0,0,0,2.12,0,2.25,2.25,0,0,0,0-2.62,1.45,1.45,0,0,0-2.12,0Z"/><path class="cls-6" d="M1047.65,232.17a2.7,2.7,0,0,1,1.41-.39v2.35h-.63a2.26,2.26,0,0,0-1.36.37,1.5,1.5,0,0,0-.48,1.26V239h-2.19v-7.17h2.19v1.35A3.1,3.1,0,0,1,1047.65,232.17Z"/><path class="cls-6" d="M1056.73,235.84h-5a1.61,1.61,0,0,0,.41,1.16,1.29,1.29,0,0,0,.95.36,1.35,1.35,0,0,0,.81-.25,1.14,1.14,0,0,0,.42-.63h2.32a3,3,0,0,1-.61,1.36,3.32,3.32,0,0,1-1.21.94,3.93,3.93,0,0,1-1.63.34,3.83,3.83,0,0,1-1.87-.45,3.16,3.16,0,0,1-1.28-1.28,3.91,3.91,0,0,1-.46-1.95,4,4,0,0,1,.46-2,3.13,3.13,0,0,1,1.28-1.27,3.91,3.91,0,0,1,1.87-.44,3.81,3.81,0,0,1,1.88.44,3.19,3.19,0,0,1,1.25,1.22,3.71,3.71,0,0,1,.44,1.82A3.19,3.19,0,0,1,1056.73,235.84Zm-2.54-2a1.37,1.37,0,0,0-1-.36,1.43,1.43,0,0,0-1,.36,1.47,1.47,0,0,0-.45,1.06h2.8A1.3,1.3,0,0,0,1054.19,233.86Z"/><path class="cls-6" d="M1062.07,232.14a2.28,2.28,0,0,1,.87,1v-1.3h2.19V239h-2.19v-1.3a2.25,2.25,0,0,1-.87,1,2.58,2.58,0,0,1-1.41.38,2.89,2.89,0,0,1-1.59-.45,3,3,0,0,1-1.1-1.28,4.38,4.38,0,0,1-.41-1.95,4.46,4.46,0,0,1,.41-2,3,3,0,0,1,1.1-1.27,3,3,0,0,1,1.59-.44A2.58,2.58,0,0,1,1062.07,232.14Zm-1.84,2a1.79,1.79,0,0,0-.43,1.28,1.81,1.81,0,0,0,.43,1.29,1.45,1.45,0,0,0,1.13.46,1.5,1.5,0,0,0,1.14-.48,1.8,1.8,0,0,0,.44-1.27,1.82,1.82,0,0,0-.44-1.28,1.51,1.51,0,0,0-1.14-.46A1.45,1.45,0,0,0,1060.23,234.16Z"/><path class="cls-6" d="M648,32.6V46.12h-3.29V37.67l-2.93,8.45H639l-3-8.47v8.47h-3.29V32.6h4L640.43,42,644,32.6Z"/><path class="cls-6" d="M658.2,35.91a4.85,4.85,0,0,1,2,1.91,6.32,6.32,0,0,1,0,5.86,4.85,4.85,0,0,1-2,1.91,6,6,0,0,1-2.86.67,6,6,0,0,1-2.87-.67,4.82,4.82,0,0,1-2-1.91,6.25,6.25,0,0,1,0-5.86,4.82,4.82,0,0,1,2-1.91,6,6,0,0,1,2.87-.67A6,6,0,0,1,658.2,35.91Zm-4.45,2.87a2.75,2.75,0,0,0-.64,2,2.71,2.71,0,0,0,.64,2,2.12,2.12,0,0,0,1.59.68,2.1,2.1,0,0,0,1.58-.68,2.75,2.75,0,0,0,.63-2,2.79,2.79,0,0,0-.63-2,2.07,2.07,0,0,0-1.58-.69A2.09,2.09,0,0,0,653.75,38.78Z"/><path class="cls-6" d="M672.37,36.49a5,5,0,0,1,1.09,3.39v6.24h-3.29V40.27a2.38,2.38,0,0,0-.57-1.69,2,2,0,0,0-1.51-.6,2.06,2.06,0,0,0-1.59.63,2.59,2.59,0,0,0-.59,1.81v5.7h-3.29V35.38h3.29v2a3.56,3.56,0,0,1,1.38-1.52,4.08,4.08,0,0,1,2.15-.56A3.7,3.7,0,0,1,672.37,36.49Z"/><path class="cls-6" d="M681.84,35.8a3.34,3.34,0,0,1,1.31,1.52V35.38h3.27V46.07a6.22,6.22,0,0,1-.57,2.7,4.51,4.51,0,0,1-1.78,1.92,5.71,5.71,0,0,1-3,.71,6.06,6.06,0,0,1-3.88-1.15,4.69,4.69,0,0,1-1.75-3.11h3.26a1.62,1.62,0,0,0,.7,1,2.5,2.5,0,0,0,1.44.37,2.29,2.29,0,0,0,1.64-.59,2.44,2.44,0,0,0,.63-1.87V44.18a3.34,3.34,0,0,1-1.31,1.52,3.92,3.92,0,0,1-2.12.56,4.32,4.32,0,0,1-2.38-.67,4.49,4.49,0,0,1-1.65-1.91,7.37,7.37,0,0,1,0-5.87,4.52,4.52,0,0,1,1.65-1.9,4.32,4.32,0,0,1,2.38-.67A3.92,3.92,0,0,1,681.84,35.8Zm-2.76,3a3.19,3.19,0,0,0,0,3.86,2.21,2.21,0,0,0,1.7.69,2.23,2.23,0,0,0,1.7-.71,3.07,3.07,0,0,0,0-3.83,2.26,2.26,0,0,0-1.7-.7A2.21,2.21,0,0,0,679.08,38.82Z"/><path class="cls-6" d="M696.58,35.91a4.85,4.85,0,0,1,2,1.91,6.25,6.25,0,0,1,0,5.86,4.85,4.85,0,0,1-2,1.91,6,6,0,0,1-2.86.67,6,6,0,0,1-2.87-.67,4.82,4.82,0,0,1-2-1.91,6.32,6.32,0,0,1,0-5.86,4.82,4.82,0,0,1,2-1.91,6,6,0,0,1,2.87-.67A6,6,0,0,1,696.58,35.91Zm-4.45,2.87a2.75,2.75,0,0,0-.64,2,2.71,2.71,0,0,0,.64,2,2.12,2.12,0,0,0,1.59.68,2.08,2.08,0,0,0,1.58-.68,2.75,2.75,0,0,0,.64-2,2.79,2.79,0,0,0-.64-2,2.05,2.05,0,0,0-1.58-.69A2.09,2.09,0,0,0,692.13,38.78Z"/><path class="cls-6" d="M704.29,31.87V46.12H701V31.87Z"/><path class="cls-6" d="M706.8,31.11a2,2,0,0,1,1.42-.49,2,2,0,0,1,1.43.49,1.68,1.68,0,0,1,0,2.47,2.08,2.08,0,0,1-1.43.49,2.06,2.06,0,0,1-1.42-.49,1.68,1.68,0,0,1,0-2.47Zm3.06,4.27V46.12h-3.29V35.38Z"/><path class="cls-6" d="M722.24,41.35h-7.45a2.49,2.49,0,0,0,.61,1.74,2,2,0,0,0,1.43.53,1.9,1.9,0,0,0,1.21-.37,1.72,1.72,0,0,0,.64-.94h3.48a4.54,4.54,0,0,1-.92,2,5,5,0,0,1-1.81,1.41,6.16,6.16,0,0,1-5.25-.16,4.75,4.75,0,0,1-1.91-1.91,5.88,5.88,0,0,1-.7-2.93,6,6,0,0,1,.69-2.94,4.66,4.66,0,0,1,1.91-1.9,5.75,5.75,0,0,1,2.81-.67,5.82,5.82,0,0,1,2.82.66,4.6,4.6,0,0,1,1.87,1.84,5.38,5.38,0,0,1,.67,2.72A5,5,0,0,1,722.24,41.35ZM714,31.78a1.4,1.4,0,0,1,2,0,1.39,1.39,0,0,1,.4,1,1.4,1.4,0,0,1-2.38,1,1.3,1.3,0,0,1-.4-1A1.35,1.35,0,0,1,714,31.78Zm4.41,6.59a2.11,2.11,0,0,0-1.46-.53,2.16,2.16,0,0,0-1.5.54,2.25,2.25,0,0,0-.67,1.58H719A2,2,0,0,0,718.44,38.37Zm-.5-6.59a1.29,1.29,0,0,1,1-.41,1.32,1.32,0,0,1,1,.41,1.39,1.39,0,0,1,.4,1,1.37,1.37,0,0,1-1.39,1.37,1.32,1.32,0,0,1-1-.4,1.3,1.3,0,0,1-.4-1A1.35,1.35,0,0,1,717.94,31.78Z"/><path class="cls-6" d="M26.42,30.37l5.79,7.33H28l-4.87-6.44V37.7H19.67V23.35h3.47v6.31l4.91-6.31h4.16Z"/><path class="cls-6" d="M40.2,26.82a3.6,3.6,0,0,1,1.38,1.61V26.38H45V37.7H41.58V35.65a3.58,3.58,0,0,1-1.38,1.6,4.12,4.12,0,0,1-2.23.59,4.65,4.65,0,0,1-2.51-.7,4.74,4.74,0,0,1-1.74-2A7,7,0,0,1,33.08,32a7,7,0,0,1,.64-3.1,4.77,4.77,0,0,1,1.74-2,4.65,4.65,0,0,1,2.51-.7A4.12,4.12,0,0,1,40.2,26.82ZM37.29,30a2.82,2.82,0,0,0-.68,2,2.81,2.81,0,0,0,.68,2,2.52,2.52,0,0,0,3.59,0,3.24,3.24,0,0,0,0-4,2.35,2.35,0,0,0-1.8-.74A2.32,2.32,0,0,0,37.29,30Z"/><path class="cls-6" d="M50.48,34.8h5.24v2.9h-9V35l4.87-5.7H46.77V26.38h8.74v2.73Z"/><path class="cls-6" d="M63.89,26.82a3.6,3.6,0,0,1,1.38,1.61V26.38h3.45V37.7H65.27V35.65a3.58,3.58,0,0,1-1.38,1.6,4.12,4.12,0,0,1-2.23.59,4.67,4.67,0,0,1-2.51-.7,4.88,4.88,0,0,1-1.74-2A7,7,0,0,1,56.77,32a7,7,0,0,1,.64-3.1,4.91,4.91,0,0,1,1.74-2,4.67,4.67,0,0,1,2.51-.7A4.12,4.12,0,0,1,63.89,26.82ZM61,30a2.86,2.86,0,0,0-.68,2,2.85,2.85,0,0,0,.68,2,2.52,2.52,0,0,0,3.59,0,3.24,3.24,0,0,0,0-4,2.34,2.34,0,0,0-1.8-.74A2.32,2.32,0,0,0,61,30Z"/><path class="cls-6" d="M79.9,27.44a5.41,5.41,0,0,1,1.86,3.32H78.09a1.94,1.94,0,0,0-.67-1.14,2,2,0,0,0-1.28-.4,1.85,1.85,0,0,0-1.5.72,3.26,3.26,0,0,0-.59,2.1,3.26,3.26,0,0,0,.59,2.1,1.85,1.85,0,0,0,1.5.72,2,2,0,0,0,1.28-.41,1.94,1.94,0,0,0,.67-1.14h3.67a5.38,5.38,0,0,1-1.86,3.32,5.62,5.62,0,0,1-3.68,1.21,6.18,6.18,0,0,1-3-.7,5,5,0,0,1-2-2,6.95,6.95,0,0,1,0-6.18,5,5,0,0,1,2-2,6.25,6.25,0,0,1,3-.7A5.68,5.68,0,0,1,79.9,27.44Z"/><path class="cls-6" d="M93.84,27.55A5.19,5.19,0,0,1,95,31.12V37.7H91.52V31.53a2.51,2.51,0,0,0-.6-1.78,2.1,2.1,0,0,0-1.59-.64,2.21,2.21,0,0,0-1.68.67A2.74,2.74,0,0,0,87,31.69v6H83.57v-15H87v5.77a3.7,3.7,0,0,1,1.45-1.61,4.25,4.25,0,0,1,2.26-.59A3.92,3.92,0,0,1,93.84,27.55Z"/><path class="cls-6" d="M104.84,27.31a4.68,4.68,0,0,1,1.61,2.84H103.2a1.77,1.77,0,0,0-.64-1.09,1.94,1.94,0,0,0-1.24-.39,1.38,1.38,0,0,0-.9.25.89.89,0,0,0-.3.72.84.84,0,0,0,.56.79,8.1,8.1,0,0,0,1.75.53,16.41,16.41,0,0,1,2.13.62,3.46,3.46,0,0,1,1.44,1,2.83,2.83,0,0,1,.61,1.91,2.88,2.88,0,0,1-.53,1.73,3.44,3.44,0,0,1-1.52,1.17,5.8,5.8,0,0,1-2.35.43,6,6,0,0,1-3.67-1,4.29,4.29,0,0,1-1.69-2.9h3.35a1.53,1.53,0,0,0,.62,1.12,2.31,2.31,0,0,0,1.39.38,1.3,1.3,0,0,0,.89-.27.93.93,0,0,0,.31-.72.87.87,0,0,0-.56-.84,10.17,10.17,0,0,0-1.82-.54A14,14,0,0,1,99,32.48a3.47,3.47,0,0,1-1.4-1A2.74,2.74,0,0,1,97,29.64a3,3,0,0,1,1.15-2.46,5,5,0,0,1,3.27-.95A5.19,5.19,0,0,1,104.84,27.31Z"/><path class="cls-6" d="M115,34.71v3h-1.56a4.49,4.49,0,0,1-3.1-1,4.18,4.18,0,0,1-1.1-3.25V29.3h-1.52V26.38h1.52V23.6h3.47v2.78h2.27V29.3h-2.27v4.22a1,1,0,0,0,1.19,1.19Z"/><path class="cls-6" d="M123.43,26.82a3.6,3.6,0,0,1,1.38,1.61V26.38h3.45V37.7h-3.45V35.65a3.58,3.58,0,0,1-1.38,1.6,4.12,4.12,0,0,1-2.23.59,4.65,4.65,0,0,1-2.51-.7,4.74,4.74,0,0,1-1.74-2,7,7,0,0,1-.64-3.08,7,7,0,0,1,.64-3.1,4.77,4.77,0,0,1,1.74-2,4.65,4.65,0,0,1,2.51-.7A4.12,4.12,0,0,1,123.43,26.82ZM120.52,30a2.82,2.82,0,0,0-.68,2,2.81,2.81,0,0,0,.68,2,2.52,2.52,0,0,0,3.59,0,3.24,3.24,0,0,0,0-4,2.35,2.35,0,0,0-1.8-.74A2.32,2.32,0,0,0,120.52,30Z"/><path class="cls-6" d="M140.92,27.55a5.19,5.19,0,0,1,1.15,3.57V37.7H138.6V31.53a2.51,2.51,0,0,0-.6-1.78,2.1,2.1,0,0,0-1.59-.64,2.18,2.18,0,0,0-1.67.67,2.7,2.7,0,0,0-.62,1.91v6h-3.47V26.38h3.47v2.07a3.76,3.76,0,0,1,1.45-1.61,4.25,4.25,0,0,1,2.26-.59A3.92,3.92,0,0,1,140.92,27.55Z"/><path class="cls-6" d="M7.09,174.83l4,5H8.18l-3.36-4.43v4.43H2.43V170H4.82v4.34L8.21,170h2.87Z"/><path class="cls-6" d="M12.25,169a1.46,1.46,0,0,1,1-.35,1.47,1.47,0,0,1,1,.35,1.17,1.17,0,0,1,.39.9,1.15,1.15,0,0,1-.39.89,1.48,1.48,0,0,1-1,.36,1.47,1.47,0,0,1-1-.36,1.15,1.15,0,0,1-.39-.89A1.17,1.17,0,0,1,12.25,169Zm2.22,3.1v7.8H12.08v-7.8Z"/><path class="cls-6" d="M19.67,172.41A3,3,0,0,1,21.2,172v2.55h-.69A2.36,2.36,0,0,0,19,175a1.63,1.63,0,0,0-.53,1.37v3.55H16.12v-7.8h2.39v1.47A3.42,3.42,0,0,1,19.67,172.41Z"/><path class="cls-6" d="M26.71,172.39a2.48,2.48,0,0,1,.95,1.1v-1.41H30v7.76a4.44,4.44,0,0,1-.42,2,3.22,3.22,0,0,1-1.29,1.4,4.2,4.2,0,0,1-2.15.51,4.38,4.38,0,0,1-2.82-.83,3.36,3.36,0,0,1-1.27-2.26h2.37a1.12,1.12,0,0,0,.51.74,1.8,1.8,0,0,0,1,.27,1.64,1.64,0,0,0,1.19-.43,1.76,1.76,0,0,0,.46-1.36v-1.37a2.42,2.42,0,0,1-.95,1.1,2.83,2.83,0,0,1-1.54.41,3.19,3.19,0,0,1-1.73-.48,3.28,3.28,0,0,1-1.2-1.39A4.91,4.91,0,0,1,21.8,176a4.85,4.85,0,0,1,.44-2.13,3.34,3.34,0,0,1,1.2-1.39,3.19,3.19,0,0,1,1.73-.48A2.83,2.83,0,0,1,26.71,172.39Zm-2,2.19a2.32,2.32,0,0,0,0,2.8,1.76,1.76,0,0,0,2.48,0,2.24,2.24,0,0,0,0-2.77,1.65,1.65,0,0,0-1.24-.51A1.63,1.63,0,0,0,24.7,174.58Z"/><path class="cls-6" d="M31.85,169a1.47,1.47,0,0,1,1-.35,1.45,1.45,0,0,1,1,.35,1.17,1.17,0,0,1,.39.9,1.15,1.15,0,0,1-.39.89,1.45,1.45,0,0,1-1,.36,1.48,1.48,0,0,1-1-.36,1.15,1.15,0,0,1-.39-.89A1.17,1.17,0,0,1,31.85,169Zm2.23,3.1v7.8H31.69v-7.8Z"/><path class="cls-6" d="M40.94,172.72a3.26,3.26,0,0,1,1.11,2H39.81a1.24,1.24,0,0,0-.44-.75,1.36,1.36,0,0,0-.86-.27,1,1,0,0,0-.62.17.63.63,0,0,0-.21.5.6.6,0,0,0,.39.55,6,6,0,0,0,1.21.36,11.8,11.8,0,0,1,1.47.43,2.43,2.43,0,0,1,1,.7,2,2,0,0,1,.42,1.32,2.06,2.06,0,0,1-.36,1.19,2.56,2.56,0,0,1-1,.81,4.24,4.24,0,0,1-1.63.29,4.17,4.17,0,0,1-2.53-.7,3,3,0,0,1-1.16-2h2.31a1,1,0,0,0,.43.77,1.55,1.55,0,0,0,.95.27.94.94,0,0,0,.62-.19.64.64,0,0,0,.21-.5.6.6,0,0,0-.39-.58,6.53,6.53,0,0,0-1.25-.37,9.57,9.57,0,0,1-1.42-.39,2.35,2.35,0,0,1-1-.68,1.89,1.89,0,0,1-.4-1.28,2.1,2.1,0,0,1,.79-1.7,3.5,3.5,0,0,1,2.25-.65A3.64,3.64,0,0,1,40.94,172.72Z"/><path class="cls-6" d="M47.91,177.83v2H46.83a3,3,0,0,1-2.13-.68,2.86,2.86,0,0,1-.77-2.24v-2.87h-1v-2h1v-1.92h2.4v1.92h1.56v2H46.33V177a.89.89,0,0,0,.18.64.88.88,0,0,0,.64.19Z"/><path class="cls-6" d="M53.75,172.39a2.42,2.42,0,0,1,1,1.1v-1.41h2.38v7.8H54.7v-1.41a2.37,2.37,0,0,1-1,1.1,2.83,2.83,0,0,1-1.54.41,3.14,3.14,0,0,1-1.72-.48,3.37,3.37,0,0,1-1.21-1.39,4.91,4.91,0,0,1-.44-2.13,4.85,4.85,0,0,1,.44-2.13,3.43,3.43,0,0,1,1.21-1.39,3.14,3.14,0,0,1,1.72-.48A2.83,2.83,0,0,1,53.75,172.39Zm-2,2.19a2.36,2.36,0,0,0,0,2.8,1.65,1.65,0,0,0,1.24.5,1.59,1.59,0,0,0,1.24-.52,2.24,2.24,0,0,0,0-2.77,1.62,1.62,0,0,0-1.24-.51A1.65,1.65,0,0,0,51.74,174.58Z"/><path class="cls-6" d="M65.81,172.89a3.58,3.58,0,0,1,.79,2.46v4.53H64.21v-4.25a1.73,1.73,0,0,0-.41-1.22,1.42,1.42,0,0,0-1.1-.44,1.46,1.46,0,0,0-1.15.46,1.83,1.83,0,0,0-.43,1.31v4.14H58.73v-7.8h2.39v1.43a2.56,2.56,0,0,1,1-1.11,2.92,2.92,0,0,1,1.56-.4A2.69,2.69,0,0,1,65.81,172.89Z"/><path class="cls-6" d="M969.77,726.24V728h-3.71v2h2.86v1.67h-2.86v3.65h-2.19v-9Z"/><path class="cls-6" d="M971,725.32a1.53,1.53,0,0,1,1.9,0,1,1,0,0,1,.35.82,1,1,0,0,1-.35.81,1.53,1.53,0,0,1-1.9,0,1.05,1.05,0,0,1-.35-.81A1.07,1.07,0,0,1,971,725.32Zm2,2.83v7.13h-2.19v-7.13Z"/><path class="cls-6" d="M976.77,725.82v9.46h-2.18v-9.46Z"/><path class="cls-6" d="M978.43,725.32a1.53,1.53,0,0,1,1.9,0,1.07,1.07,0,0,1,.35.82,1.05,1.05,0,0,1-.35.81,1.53,1.53,0,0,1-1.9,0,1,1,0,0,1-.36-.81A1,1,0,0,1,978.43,725.32Zm2,2.83v7.13h-2.19v-7.13Z"/><path class="cls-6" d="M988,728.5a3,3,0,0,1,1.1,1.27,4.93,4.93,0,0,1,0,3.89,3,3,0,0,1-1.1,1.27,2.91,2.91,0,0,1-1.58.44A2.54,2.54,0,0,1,985,735a2.12,2.12,0,0,1-.86-1v4.69H982V728.15h2.19v1.29a2.12,2.12,0,0,1,.86-1,2.54,2.54,0,0,1,1.4-.37A2.91,2.91,0,0,1,988,728.5Zm-3.41,1.94a1.76,1.76,0,0,0-.44,1.28,1.75,1.75,0,0,0,.44,1.26,1.61,1.61,0,0,0,2.26,0,2.11,2.11,0,0,0,0-2.55,1.62,1.62,0,0,0-2.26,0Z"/><path class="cls-6" d="M990.79,725.32a1.53,1.53,0,0,1,1.9,0,1.07,1.07,0,0,1,.35.82,1.05,1.05,0,0,1-.35.81,1.53,1.53,0,0,1-1.9,0,1.05,1.05,0,0,1-.35-.81A1.07,1.07,0,0,1,990.79,725.32Zm2,2.83v7.13h-2.19v-7.13Z"/><path class="cls-6" d="M993.17,736.8h.54a.76.76,0,0,0,.5-.14.7.7,0,0,0,.15-.5v-8h2.2v8a2.25,2.25,0,0,1-2.56,2.54h-.83ZM994.5,727a1,1,0,0,1-.36-.81,1,1,0,0,1,.36-.82,1.52,1.52,0,0,1,1.89,0,1,1,0,0,1,.36.82,1,1,0,0,1-.36.81,1.52,1.52,0,0,1-1.89,0Z"/><path class="cls-6" d="M1004.52,728.89a3.29,3.29,0,0,1,.72,2.25v4.14h-2.19v-3.89a1.51,1.51,0,0,0-.38-1.11,1.3,1.3,0,0,0-1-.41,1.34,1.34,0,0,0-1,.43,1.7,1.7,0,0,0-.39,1.2v3.78H998v-7.13h2.19v1.3a2.4,2.4,0,0,1,.91-1,2.67,2.67,0,0,1,1.43-.37A2.48,2.48,0,0,1,1004.52,728.89Z"/><path class="cls-6" d="M1013.39,732.11h-4.94a1.63,1.63,0,0,0,.41,1.16,1.32,1.32,0,0,0,.94.35,1.3,1.3,0,0,0,.81-.24,1.14,1.14,0,0,0,.42-.63h2.31a3.07,3.07,0,0,1-.61,1.35,3.35,3.35,0,0,1-1.2.93,3.76,3.76,0,0,1-1.62.34,3.94,3.94,0,0,1-1.87-.44,3.17,3.17,0,0,1-1.27-1.27,4,4,0,0,1-.46-1.94,3.91,3.91,0,0,1,.46-2,3,3,0,0,1,1.27-1.27,3.91,3.91,0,0,1,1.87-.44,3.87,3.87,0,0,1,1.86.43,3.12,3.12,0,0,1,1.25,1.22,3.7,3.7,0,0,1,.44,1.81A2.55,2.55,0,0,1,1013.39,732.11Zm-2.52-2a1.36,1.36,0,0,0-1-.36,1.41,1.41,0,0,0-1,.36,1.47,1.47,0,0,0-.45,1.05h2.79A1.29,1.29,0,0,0,1010.87,730.14Z"/><path class="cls-6" d="M1021.07,728.89a3.29,3.29,0,0,1,.72,2.25v4.14h-2.18v-3.89a1.56,1.56,0,0,0-.38-1.11,1.31,1.31,0,0,0-1-.41,1.34,1.34,0,0,0-1.06.43,1.7,1.7,0,0,0-.39,1.2v3.78h-2.18v-7.13h2.18v1.3a2.42,2.42,0,0,1,.92-1,2.64,2.64,0,0,1,1.42-.37A2.45,2.45,0,0,1,1021.07,728.89Z"/><path class="cls-6" d="M961.69,574.94v1.63h-2.3v6.85h-2.06v-6.85h-2.28v-1.63Z"/><path class="cls-6" d="M966.42,577a2.11,2.11,0,0,1,.82,1v-1.22h2v6.7h-2v-1.21a2.16,2.16,0,0,1-.82.95,2.45,2.45,0,0,1-1.32.34,2.68,2.68,0,0,1-1.48-.41,2.8,2.8,0,0,1-1-1.19,4.6,4.6,0,0,1,0-3.66,2.86,2.86,0,0,1,1-1.19,2.77,2.77,0,0,1,1.48-.41A2.45,2.45,0,0,1,966.42,577Zm-1.72,1.88a2,2,0,0,0,0,2.4,1.51,1.51,0,0,0,2.12,0,1.9,1.9,0,0,0,0-2.38,1.39,1.39,0,0,0-1.06-.44A1.37,1.37,0,0,0,964.7,578.87Z"/><path class="cls-6" d="M970.84,574.07a1.42,1.42,0,0,1,1.77,0,1,1,0,0,1,0,1.53,1.42,1.42,0,0,1-1.77,0,1,1,0,0,1,0-1.53Zm1.91,2.65v6.7h-2.06v-6.7Z"/><path class="cls-6" d="M984,576.72l-1.71,6.7H980l-1.22-4.49-1.22,4.49h-2.29l-1.72-6.7h2l.89,4.83,1.25-4.83h2.18l1.29,4.84.89-4.84Z"/><path class="cls-6" d="M988.56,577a2.11,2.11,0,0,1,.82,1v-1.22h2v6.7h-2v-1.21a2.16,2.16,0,0,1-.82.95,2.45,2.45,0,0,1-1.32.34,2.68,2.68,0,0,1-1.48-.41,2.8,2.8,0,0,1-1-1.19,4.6,4.6,0,0,1,0-3.66,2.86,2.86,0,0,1,1-1.19,2.77,2.77,0,0,1,1.48-.41A2.45,2.45,0,0,1,988.56,577Zm-1.72,1.88a2,2,0,0,0,0,2.4,1.51,1.51,0,0,0,2.12,0,1.9,1.9,0,0,0,0-2.38,1.39,1.39,0,0,0-1.06-.44A1.37,1.37,0,0,0,986.84,578.87Z"/><path class="cls-6" d="M998.91,577.42a3.09,3.09,0,0,1,.68,2.11v3.89h-2.05v-3.65a1.45,1.45,0,0,0-.36-1,1.23,1.23,0,0,0-.94-.38,1.32,1.32,0,0,0-1,.4,1.62,1.62,0,0,0-.37,1.13v3.55h-2v-6.7h2V578a2.26,2.26,0,0,1,.86-1,2.55,2.55,0,0,1,1.34-.35A2.32,2.32,0,0,1,998.91,577.42Z"/><path class="cls-3" d="M565,323.26a9.55,9.55,0,0,1,3.35,5.61h-5.3a4.9,4.9,0,0,0-1.8-2.25,5.08,5.08,0,0,0-2.88-.82,4.41,4.41,0,0,0-3.54,1.61,6.54,6.54,0,0,0-1.34,4.3,6.46,6.46,0,0,0,1.34,4.29,4.42,4.42,0,0,0,3.54,1.59,5,5,0,0,0,2.88-.82,4.87,4.87,0,0,0,1.8-2.22h5.3a9.58,9.58,0,0,1-3.35,5.6,10.06,10.06,0,0,1-6.54,2.09,10.27,10.27,0,0,1-5.29-1.33,9,9,0,0,1-3.53-3.73,12.68,12.68,0,0,1,0-10.94,9,9,0,0,1,3.53-3.73,10.36,10.36,0,0,1,5.29-1.33A10.11,10.11,0,0,1,565,323.26Z"/><path class="cls-3" d="M586,327.44a7.53,7.53,0,0,1,1.65,5.15v9.48h-5v-8.9a3.64,3.64,0,0,0-.86-2.56,3,3,0,0,0-2.3-.92,3.13,3.13,0,0,0-2.41,1,3.88,3.88,0,0,0-.9,2.75v8.66h-5V320.42h5v8.31a5.33,5.33,0,0,1,2.1-2.31,6.07,6.07,0,0,1,3.26-.85A5.64,5.64,0,0,1,586,327.44Z"/><path class="cls-3" d="M591.31,319.27a3.49,3.49,0,0,1,4.32,0,2.54,2.54,0,0,1,0,3.74,3.49,3.49,0,0,1-4.32,0,2.54,2.54,0,0,1,0-3.74Zm4.65,6.48v16.32h-5V325.75Z"/><path class="cls-3" d="M614.22,327.44a7.53,7.53,0,0,1,1.65,5.15v9.48h-5v-8.9a3.59,3.59,0,0,0-.86-2.56,3,3,0,0,0-2.3-.92,3.15,3.15,0,0,0-2.41,1,3.92,3.92,0,0,0-.89,2.75v8.66h-5V325.75h5v3a5.31,5.31,0,0,1,2.09-2.31,6.09,6.09,0,0,1,3.26-.85A5.64,5.64,0,0,1,614.22,327.44Z"/><path class="cls-3" d="M628.6,326.39a5.2,5.2,0,0,1,2,2.31v-2.95h5v16.32h-5v-3a5.09,5.09,0,0,1-2,2.31,5.88,5.88,0,0,1-3.22.85,6.63,6.63,0,0,1-3.61-1,6.94,6.94,0,0,1-2.52-2.91,11.22,11.22,0,0,1,0-8.9,7,7,0,0,1,2.52-2.9,6.63,6.63,0,0,1,3.61-1A5.88,5.88,0,0,1,628.6,326.39ZM624.4,331a4.86,4.86,0,0,0,0,5.85,3.68,3.68,0,0,0,5.18,0,4.67,4.67,0,0,0,0-5.8,3.69,3.69,0,0,0-5.18,0Z"/><path class="cls-7" d="M876.7,449.5a2.69,2.69,0,0,1-1.11,1,3.91,3.91,0,0,1-1.79.37,4.16,4.16,0,0,1-2.6-.77,2.78,2.78,0,0,1-1.11-2.15h2.41a1.29,1.29,0,0,0,.38.84,1.18,1.18,0,0,0,.83.3,1,1,0,0,0,.69-.24.81.81,0,0,0,.25-.63.85.85,0,0,0-.23-.6,1.85,1.85,0,0,0-.58-.39c-.23-.1-.55-.23-1-.37a11.2,11.2,0,0,1-1.46-.59,2.69,2.69,0,0,1-1-.85,2.43,2.43,0,0,1-.4-1.46,2.5,2.5,0,0,1,.42-1.45,2.77,2.77,0,0,1,1.18-.94,4.4,4.4,0,0,1,1.72-.32,3.91,3.91,0,0,1,2.49.74,2.87,2.87,0,0,1,1,2h-2.46a1.19,1.19,0,0,0-.34-.74,1.12,1.12,0,0,0-1.38-.06.88.88,0,0,0,0,1.19,1.73,1.73,0,0,0,.55.38l1,.37a9.76,9.76,0,0,1,1.48.6,2.79,2.79,0,0,1,1,.87,2.53,2.53,0,0,1,.41,1.49A2.64,2.64,0,0,1,876.7,449.5Z"/><path class="cls-7" d="M885.07,444.13a3.47,3.47,0,0,1,.74,2.34v4.3h-2.27v-4a1.64,1.64,0,0,0-.39-1.16,1.36,1.36,0,0,0-1-.42,1.42,1.42,0,0,0-1.09.44,1.78,1.78,0,0,0-.41,1.25v3.93h-2.27V441h2.27v3.77a2.36,2.36,0,0,1,.95-1.05,2.75,2.75,0,0,1,1.48-.39A2.61,2.61,0,0,1,885.07,444.13Z"/><path class="cls-7" d="M891.59,443.65a2.36,2.36,0,0,1,.9,1.05v-1.34h2.26v7.41h-2.26v-1.34a2.36,2.36,0,0,1-.9,1.05,2.76,2.76,0,0,1-1.46.38,3,3,0,0,1-1.64-.46,3.09,3.09,0,0,1-1.14-1.32,4.51,4.51,0,0,1-.42-2,4.57,4.57,0,0,1,.42-2,3.12,3.12,0,0,1,1.14-1.31,3,3,0,0,1,1.64-.46A2.76,2.76,0,0,1,891.59,443.65Zm-1.91,2.09a2.22,2.22,0,0,0,0,2.65,1.54,1.54,0,0,0,1.18.48,1.5,1.5,0,0,0,1.17-.49,1.84,1.84,0,0,0,.46-1.31,1.81,1.81,0,0,0-.46-1.32,1.5,1.5,0,0,0-1.17-.49A1.54,1.54,0,0,0,889.68,445.74Z"/><path class="cls-7" d="M903,444.13a3.43,3.43,0,0,1,.75,2.34v4.3h-2.27v-4a1.6,1.6,0,0,0-.4-1.16,1.34,1.34,0,0,0-1-.42,1.42,1.42,0,0,0-1.09.44,1.78,1.78,0,0,0-.41,1.25v3.93h-2.27v-7.41h2.27v1.36a2.42,2.42,0,0,1,.95-1.05,2.77,2.77,0,0,1,1.48-.39A2.6,2.6,0,0,1,903,444.13Z"/><path class="cls-7" d="M909.56,443.65a2.3,2.3,0,0,1,.9,1.05v-1.34h2.26v7.37a4.16,4.16,0,0,1-.4,1.86,3,3,0,0,1-1.22,1.33,4,4,0,0,1-2,.49,4.25,4.25,0,0,1-2.68-.79,3.2,3.2,0,0,1-1.2-2.15h2.24a1.12,1.12,0,0,0,.49.71,1.81,1.81,0,0,0,1,.25A1.6,1.6,0,0,0,910,452a1.69,1.69,0,0,0,.43-1.29v-1.3a2.3,2.3,0,0,1-.9,1.05,2.74,2.74,0,0,1-1.46.38,3,3,0,0,1-1.64-.46,3.09,3.09,0,0,1-1.14-1.32,4.51,4.51,0,0,1-.42-2,4.57,4.57,0,0,1,.42-2,3.12,3.12,0,0,1,1.14-1.31,3,3,0,0,1,1.64-.46A2.74,2.74,0,0,1,909.56,443.65Zm-1.91,2.09a2.22,2.22,0,0,0,0,2.65,1.54,1.54,0,0,0,1.18.48,1.5,1.5,0,0,0,1.17-.49,1.84,1.84,0,0,0,.46-1.31,1.81,1.81,0,0,0-.46-1.32,1.5,1.5,0,0,0-1.17-.49A1.54,1.54,0,0,0,907.65,445.74Z"/><path class="cls-7" d="M921,444.13a3.43,3.43,0,0,1,.75,2.34v4.3h-2.27v-4a1.64,1.64,0,0,0-.39-1.16,1.36,1.36,0,0,0-1.05-.42,1.42,1.42,0,0,0-1.09.44,1.78,1.78,0,0,0-.41,1.25v3.93h-2.27V441h2.27v3.77a2.42,2.42,0,0,1,1-1.05,2.77,2.77,0,0,1,1.48-.39A2.6,2.6,0,0,1,921,444.13Z"/><path class="cls-7" d="M927.53,443.65a2.3,2.3,0,0,1,.9,1.05v-1.34h2.26v7.41h-2.26v-1.34a2.3,2.3,0,0,1-.9,1.05,2.74,2.74,0,0,1-1.46.38,3,3,0,0,1-1.64-.46,3.09,3.09,0,0,1-1.14-1.32,4.51,4.51,0,0,1-.42-2,4.57,4.57,0,0,1,.42-2,3.12,3.12,0,0,1,1.14-1.31,3,3,0,0,1,1.64-.46A2.74,2.74,0,0,1,927.53,443.65Zm-1.9,2.09a2.18,2.18,0,0,0,0,2.65,1.5,1.5,0,0,0,1.17.48,1.54,1.54,0,0,0,1.18-.49,1.88,1.88,0,0,0,.45-1.31,1.85,1.85,0,0,0-.45-1.32,1.54,1.54,0,0,0-1.18-.49A1.5,1.5,0,0,0,925.63,445.74Z"/><path class="cls-7" d="M932.42,440.42a1.41,1.41,0,0,1,1-.34,1.44,1.44,0,0,1,1,.34,1.11,1.11,0,0,1,.37.86,1.07,1.07,0,0,1-.37.84,1.39,1.39,0,0,1-1,.34,1.36,1.36,0,0,1-1-.34,1.07,1.07,0,0,1-.38-.84A1.12,1.12,0,0,1,932.42,440.42Zm2.11,2.94v7.41h-2.27v-7.41Z"/><path class="cls-1" d="M800.85,478.29l-3.63,7v3.48h-2.54v-3.48l-3.63-7H794l2,4.26,2-4.26Z"/><path class="cls-1" d="M806.6,480.82a2.67,2.67,0,0,1,1,1.17V480.5h2.51v8.26h-2.51v-1.5a2.56,2.56,0,0,1-1,1.17,3,3,0,0,1-1.63.43,3.36,3.36,0,0,1-1.83-.51,3.46,3.46,0,0,1-1.27-1.47,5.64,5.64,0,0,1,0-4.51,3.46,3.46,0,0,1,1.27-1.47,3.36,3.36,0,0,1,1.83-.51A3,3,0,0,1,806.6,480.82Zm-2.13,2.33a2.48,2.48,0,0,0,0,3,1.72,1.72,0,0,0,1.31.53,1.69,1.69,0,0,0,1.31-.55,2.34,2.34,0,0,0,0-2.94,1.86,1.86,0,0,0-2.62,0Z"/><path class="cls-1" d="M819.37,481.35a3.83,3.83,0,0,1,.84,2.61v4.8h-2.53v-4.5a1.83,1.83,0,0,0-.44-1.3,1.52,1.52,0,0,0-1.16-.47,1.63,1.63,0,0,0-1.23.49,2,2,0,0,0-.45,1.4v4.38h-2.53V480.5h2.53V482a2.67,2.67,0,0,1,1.06-1.17,3.08,3.08,0,0,1,1.65-.43A2.86,2.86,0,0,1,819.37,481.35Z"/><path class="cls-1" d="M826.65,480.82a2.67,2.67,0,0,1,1,1.17V480.5h2.51v8.21a4.74,4.74,0,0,1-.44,2.09,3.5,3.5,0,0,1-1.36,1.47,4.42,4.42,0,0,1-2.28.55,4.75,4.75,0,0,1-3-.88,3.63,3.63,0,0,1-1.34-2.4h2.51a1.2,1.2,0,0,0,.54.79,1.91,1.91,0,0,0,1.1.28,1.81,1.81,0,0,0,1.27-.45,1.9,1.9,0,0,0,.48-1.45v-1.45a2.56,2.56,0,0,1-1,1.17,3,3,0,0,1-1.63.43,3.36,3.36,0,0,1-1.83-.51,3.46,3.46,0,0,1-1.27-1.47,5.64,5.64,0,0,1,0-4.51,3.46,3.46,0,0,1,1.27-1.47,3.36,3.36,0,0,1,1.83-.51A3,3,0,0,1,826.65,480.82Zm-2.13,2.33a2.48,2.48,0,0,0,0,3,1.75,1.75,0,0,0,1.32.53,1.7,1.7,0,0,0,1.31-.55,2.37,2.37,0,0,0,0-2.94,1.87,1.87,0,0,0-2.63,0Z"/><path class="cls-1" d="M836.6,486.58v2.18h-1.14a3.28,3.28,0,0,1-2.26-.72,3,3,0,0,1-.8-2.38v-3h-1.12V480.5h1.12v-2h2.53v2h1.66v2.13h-1.66v3.08a.91.91,0,0,0,.2.68.94.94,0,0,0,.67.19Z"/><path class="cls-1" d="M840.26,486.64h3.82v2.12h-6.59v-2L841,482.6h-3.49v-2.1h6.38v2Z"/><path class="cls-1" d="M853.05,485.09h-5.73a1.9,1.9,0,0,0,.48,1.34,1.7,1.7,0,0,0,2,.12,1.3,1.3,0,0,0,.48-.72H853a3.49,3.49,0,0,1-.72,1.56,3.73,3.73,0,0,1-1.39,1.08,4.76,4.76,0,0,1-4-.12,3.67,3.67,0,0,1-1.48-1.47,5.06,5.06,0,0,1,0-4.51,3.59,3.59,0,0,1,1.47-1.47,4.48,4.48,0,0,1,2.16-.51,4.53,4.53,0,0,1,2.16.5,3.54,3.54,0,0,1,1.45,1.42,4.24,4.24,0,0,1,.51,2.1A3.56,3.56,0,0,1,853.05,485.09Zm-2.92-2.29a1.61,1.61,0,0,0-1.12-.41,1.63,1.63,0,0,0-1.15.42,1.71,1.71,0,0,0-.52,1.21h3.23A1.53,1.53,0,0,0,850.13,482.8Z"/><path class="cls-1" d="M861.16,480.85a3.09,3.09,0,0,1,1.63-.44v2.71h-.73a2.47,2.47,0,0,0-1.56.43,1.72,1.72,0,0,0-.56,1.45v3.76h-2.53V480.5h2.53v1.55A3.68,3.68,0,0,1,861.16,480.85Z"/><path class="cls-1" d="M864,477.21a1.55,1.55,0,0,1,1.09-.37,1.58,1.58,0,0,1,1.1.37,1.23,1.23,0,0,1,.41,1,1.19,1.19,0,0,1-.41.94,1.58,1.58,0,0,1-1.1.38,1.55,1.55,0,0,1-1.09-.38,1.2,1.2,0,0,1-.42-.94A1.24,1.24,0,0,1,864,477.21Zm2.35,3.29v8.26h-2.53V480.5Z"/><path class="cls-1" d="M872,486.29l1.79-5.79h2.7l-2.93,8.26h-3.14l-2.94-8.26h2.7Z"/><path class="cls-1" d="M877.67,477.21a1.55,1.55,0,0,1,1.09-.37,1.58,1.58,0,0,1,1.1.37,1.23,1.23,0,0,1,.41,1,1.19,1.19,0,0,1-.41.94,1.58,1.58,0,0,1-1.1.38,1.55,1.55,0,0,1-1.09-.38,1.2,1.2,0,0,1-.42-.94A1.24,1.24,0,0,1,877.67,477.21ZM880,480.5v8.26h-2.53V480.5Z"/><path class="cls-1" d="M889.54,485.09h-5.73a1.9,1.9,0,0,0,.48,1.34,1.7,1.7,0,0,0,2,.12,1.38,1.38,0,0,0,.49-.72h2.68a3.49,3.49,0,0,1-.72,1.56,3.65,3.65,0,0,1-1.39,1.08,4.76,4.76,0,0,1-4-.12,3.67,3.67,0,0,1-1.48-1.47,5.06,5.06,0,0,1,0-4.51,3.59,3.59,0,0,1,1.47-1.47,4.48,4.48,0,0,1,2.16-.51,4.53,4.53,0,0,1,2.16.5,3.54,3.54,0,0,1,1.45,1.42,4.24,4.24,0,0,1,.51,2.1A3.56,3.56,0,0,1,889.54,485.09Zm-2.92-2.29a1.61,1.61,0,0,0-1.12-.41,1.63,1.63,0,0,0-1.15.42,1.71,1.71,0,0,0-.52,1.21h3.23A1.53,1.53,0,0,0,886.62,482.8Z"/><path class="cls-1" d="M894.69,480.85a3.08,3.08,0,0,1,1.62-.44v2.71h-.72a2.51,2.51,0,0,0-1.57.43,1.71,1.71,0,0,0-.55,1.45v3.76h-2.53V480.5h2.53v1.55A3.59,3.59,0,0,1,894.69,480.85Z"/><path class="cls-7" d="M751.27,431.67l-2.45,10.24h-3.07l-1.64-6.85-1.65,6.85h-3.07l-2.45-10.24h2.69l1.32,7.42,1.8-7.42h2.71l1.79,7.42,1.34-7.42Z"/><path class="cls-7" d="M760.61,433.83v8.08h-2.49v-1.46a2.69,2.69,0,0,1-1,1.13,3,3,0,0,1-1.6.42,2.81,2.81,0,0,1-2.21-.93,3.75,3.75,0,0,1-.82-2.55v-4.69h2.47v4.39a1.81,1.81,0,0,0,.42,1.28,1.69,1.69,0,0,0,2.34,0,2,2,0,0,0,.44-1.36v-4.29Z"/><path class="cls-7" d="M769.66,434.67a3.75,3.75,0,0,1,.82,2.55v4.69H768v-4.4a1.78,1.78,0,0,0-.43-1.27,1.48,1.48,0,0,0-1.14-.45,1.52,1.52,0,0,0-1.19.47,1.93,1.93,0,0,0-.44,1.37v4.28h-2.48V431.19h2.48v4.12a2.61,2.61,0,0,1,1-1.15,3.05,3.05,0,0,1,1.62-.42A2.8,2.8,0,0,1,769.66,434.67Z"/><path class="cls-7" d="M776.78,434.15a2.53,2.53,0,0,1,1,1.14v-1.46h2.47v8.08h-2.47v-1.46a2.53,2.53,0,0,1-1,1.14,3,3,0,0,1-1.6.42,3.24,3.24,0,0,1-1.79-.5,3.39,3.39,0,0,1-1.24-1.44,5.51,5.51,0,0,1,0-4.41,3.42,3.42,0,0,1,1.24-1.43,3.24,3.24,0,0,1,1.79-.5A3,3,0,0,1,776.78,434.15Zm-2.08,2.27a2.39,2.39,0,0,0,0,2.9,1.65,1.65,0,0,0,1.28.52,1.69,1.69,0,0,0,1.28-.53,2,2,0,0,0,.5-1.44,2,2,0,0,0-.5-1.44,1.82,1.82,0,0,0-2.56,0Z"/><path class="cls-7" d="M789.27,434.67a3.71,3.71,0,0,1,.82,2.55v4.69h-2.48v-4.4a1.82,1.82,0,0,0-.42-1.27,1.51,1.51,0,0,0-1.14-.45,1.56,1.56,0,0,0-1.2.47,2,2,0,0,0-.44,1.37v4.28h-2.48v-8.08h2.48v1.48a2.63,2.63,0,0,1,1-1.15,3,3,0,0,1,1.61-.42A2.78,2.78,0,0,1,789.27,434.67Z"/></g></svg>