<svg xmlns="http://www.w3.org/2000/svg" viewBox="0 0 1114 1120.06"><defs><style>.cls-1{fill:#bacfe4;}.cls-2{fill:#66785b;}.cls-3{fill:#8c9a84;}.cls-4{fill:#b3bbad;}.cls-5{fill:#405632;}.cls-6{fill:#d9ddd6;}</style></defs><title>kaartparana</title><g id="Laag_1" data-name="Laag 1"><rect class="cls-1" x="-0.04" width="1114.04" height="1120.06"/></g><g id="Laag_2" data-name="Laag 2"><path class="cls-2" d="M672.5,862.17s18.89-21.8,21.58-23.66,12.2-32.42,12.2-32.42l.65-5.57s5.12-7.24,6.7-10.22-3.63-1.95-3.63-1.95-3.63-1.85-1.4-5.2.75-3.16-.46-4.36-.75-3.81-.75-5.76,5.86-4.65,6.52-6.23.93-1.85.93-7.34,7.26-8.17,9.86-8.08,2.89-3.43,3.63-5.29,6.42-3.81,5.77-4-1.4-5.38-1.77-7.43,4.38.28,4.38.28-.84-3.9-.19-3.81,2.89-5.75,2.89-6.78.55-4.08.55-8.08,3.54-3.62,3.91-4.64-1.3-1.3-3.91-1.67-3.53-2.6-4-4.93a31.78,31.78,0,0,1-.56-6.22c0-1.77,2.33,1.3,2.42,3.25s4.1,3.62,7,4.09,2,1.3,1.77,3.81,2.61,3.34,3.82,4.64,2.32-1,2.32-4.27,2.8-1.77,5.31-1.86.74-1.86,3.72-4.37,3.91,4.09,3.91,4.09,0,10.23-2.28,6.52-3.8-3.68-3.61-3.11-.38,6.07,1.71,11.56-6.27,9.67-6.27,9.67-3.79,0-3.79,1.7v4.17c0,1.14,1,2.09,1.14,4.17s-2.47-.76-3.23-1.52-4.37.19-4.37.19l-.38,13.08s-2.09,3-4,5.31-5.5,1.13-5.5,1.13c.19,3.79-8.55,12.7-9.12,13.27s-3.22.57-3.22,1.33-2.66,2.46-5.51.94-5.32-.94-4.18,0,1.71,4.74,1.52,6.26S715.9,787,715.9,787l7.66-8.57s13.77-10.09,22.33-18.37,23.74-35.89,23.74-35.89,6.6-10.23,12.08-32.1,10.68-22,17.14-34.07,25-25.66,27.81-27.62.14-2.66-1.68-6.73,2.24-.84,3.79,1.12,5.34-15.7,5.34-17.52.84-9.4.84-10.38-3.37-4.77-3.37-6.31,2.1.7,2.1.7,2.53,3.65,3.09,3.65,1.55-1.26,2.25-5.05,2.81-4.48,3-8.69-1.68-2.52-4.35-2.52-3.09,9.53-3.09,9.53a61.5,61.5,0,0,1-3.66-7.43c-.84-2.53,4.5-5.19,3.52-5.19s-1.55-.84-2.11-3.36,1.4-1,3.51-1.41,1-1.54-.42-2.52-2.39,0-3.51-1.54,2.39-2.24.7-5.19-.84-4.63-.14-7.85-2-2.52-4.21-4.21,1.54-8.83,1.82-11.63-3.65-3.79-5.2-5.89-2.1-4.91,0-3.79,4.36,0,6.33-1.4.84-8.83.56-12.06-4.22-.56-7.59-.84,7.17-3.08,7.17-3.08,6-8.69,6.18-10.8-4.08-1.12-5.76-1.12-4.5-1.82-7.17-3,0-2,0-3.68,1.69,1.54,4.5,3.2,5.76-1.38,6.6-2.5-3.51-3.08-1.68-2.94,1-1.68,2.8-3.37,2,.14,1.83,2.53,1.26.84,3.61,0,.46,1.82,0,4.9,2.81.71,4.5-4.34,7.44-6.31,9.69-9.82-.14-1.12-1.83-2.66-3.51.84-4.07-1.4,4.07,1.4,6.88-4.21,31.61-21.87,33.29-23,.56-4.21,1.27-6,20.79-11.64,22.89-13,0,0-2.1-2-.15-2.24,2-3.65,5.62,4.4,5.62,4.4a12.18,12.18,0,0,0,3.74-4.63c1.35-3,6.29-2.54,10.33-3.88s9-.3,11.08-.6,3.89,2.39,5.54,2.54,3.44-2.09,2.24-5.08-.75-3.44,1.8-5.53,6-1.34,6-2.24,6.29-3.74,6.29-5.08,3.74-1.79,4.94-3.29,5.24,1.2,5.24,1.2,9.73-2.39,11.53-4.63-4.79-2.54-6.59-2.54-1.5-2.84-1.5-6.08,5.39-2.44,7.79-2.74a3.45,3.45,0,0,0,3.14-2.84c.15-.74,4.19.3,5.09.3s4.64,3.14,6,3.29,7.63-5.68,9.58-5.83,4.49,1.65,10.17,3-10.92,2.39-13.62,4.33,22.16-2.39,23.95-2.39,0-3.14,0-5.08,4-4.78,4.49-6.27,7.64-4.19,10.48-4-3.74,7-4,10,3.74,3,3.74,3L1088.6,382v-3a21.4,21.4,0,0,1,3.89-4c1.64-1-2-2.88-2-2.88v-6.52l11.1-12.39,12.45-4.24V0H225.52l43,695.13Z"/><path class="cls-3" d="M600.85,445.27c-1.35-4.8-16.2-9.81-16.2-9.81-12.83,12.83-26.1,9.44-28.47,9.29s-2.64-10.91-2.64-10.91l-4.13-4.72v-9.44l-1.77-3.83v-4.28l-5.46-9.43V389.9l-5.45-6.26v-6l-4.58-4.13s-10.91-.15-14.45-.3-9-8-11.06-8.11-5.45,7.23-7.08,8.7-1.77-2.8-4.27-.14-4.43,2.21-7.08,0-23.15,1.47-26.69-1.18-3.69-2.22-8.41-1.63-4.86,1.48-7.22,0,.73-7.66-.3-7.81,0-5.31-.14-7.08,3.53-2.51,1.17-4.13-1.47-5-1.62-9,1.77-2.81,3.6-5.31-2.12-1.62-4-2.66,2.36-2.8,3.55-4.27-.16-5.9,0-8.26-1.77-2.36-3.14-3.25-.4-1.62,0-3.83-2.88-1.62-1-2.95.89-7.08-2.51-3.69-3.68-10.32-3.68-10.32-4.43-1.91-4.87-5a16.45,16.45,0,0,0-2.47-6l1.8-12.7-4.89-6.35L351.89,233.9,228.33,288.53l16.44,117.19L353.48,506l89.62,127.8,149-46.13,12.73-56.54-12.23-17.34s-.69-9.85,2.31-14.46,2.4-12.8,2.4-12.8,2.74-18.91,2.75-21.73-.85-16-.85-16Z"/><path class="cls-4" d="M260.93,394.42l9.31-53.09a2.51,2.51,0,0,0,0-.82L267,320.74a2.48,2.48,0,0,1,.25-1.54l12-22.91a2.61,2.61,0,0,0,.24-.66l3.26-16.32a2.46,2.46,0,0,1,1.75-1.88L328.49,265l.21-.07,23.43-9a2.34,2.34,0,0,1,.86-.16l36.76-.48a2.55,2.55,0,0,1,1,.21l36.89,16.14a2.48,2.48,0,0,1,1.47,2l.85,8.78a2.46,2.46,0,0,0,4.07,1.62l5-4.4a2.47,2.47,0,0,0-.09-3.79l-7.62-6a2.46,2.46,0,0,1-.72-2.93,135.61,135.61,0,0,0,6.79-18.66c3-10.87,2.83-6.55,6.1-10.87,2.12-2.79.5-4.65-.91-5.61a2.47,2.47,0,0,1-1-2.63l6.52-26.48a2.4,2.4,0,0,1,1.41-1.67c4.16-1.73-1.35-3.79-2.73-3.79s-9.68-19.05-10-20.54a5.22,5.22,0,0,1,.16-2.09,2.47,2.47,0,0,0-1.18-2.76l-7.15-4a2.41,2.41,0,0,0-.33-.15l-6.43-2.43-.19-.08L410,159.63a2.47,2.47,0,0,1-1.32-1.59l-3.07-11.61a2.65,2.65,0,0,1-.07-.48l-.68-11.5a2.43,2.43,0,0,1,.5-1.63l3.05-4a2.5,2.5,0,0,0,.5-1.67l-.38-5.1a2.47,2.47,0,0,0-3.77-1.91h0a2.42,2.42,0,0,1-1.19.38l-67.55,3.28a2.46,2.46,0,0,1-2.55-2.08l-5-31.63a2.49,2.49,0,0,0-.79-1.44c-3-2.66-15.09-13.59-15.87-14.9-.51-.84,2.31-1.21,4.83-1.37a2.45,2.45,0,0,0,2.16-3.28,21.84,21.84,0,0,1-.59-12.46s2.68-9.83,0-13.7S313,32.64,313,30.85c0-1.27,1.51-4.5,2.38-6.26a2.46,2.46,0,0,0-.09-2.34L312,16.65a2.47,2.47,0,0,0-1.42-1.11l-10-3A24.72,24.72,0,0,1,293,8.72c-2.68-2-6-4.57-6.74-5.85-1.34-2.23-3,4.46-7.74,3.87s-4-1.19-7.44,1.49-4.76-.45-5.8-1.49-9.83,3.42-11.46,2.83-2.09-4.17-4-5.06A24,24,0,0,1,245,.68,2.46,2.46,0,0,0,243.25,0H0V449.34a2.47,2.47,0,0,0,2.46,2.47H255.35a2.47,2.47,0,0,0,2.46-2.33l3.08-54.77A2.89,2.89,0,0,1,260.93,394.42Z"/><path class="cls-2" d="M0,1104.86H4.57s4.43-2.34,3.68-6.45S5.46,1085,4.15,1084s.19-5.24,0-6.73.55,4.11,3.36,3.18a3.63,3.63,0,0,0,1.68-5.8c-1.5-1.49-2.24-2.24-1.12-3.36s.93-12-.19-18.87,0-8,2.17-11.77,1.38-4.3-2.54-11c0,0,.37-3.36,2.61-4.67s0-13.07,3.18-15.32,3.36-7.28,2-10.65.77-11,.77-11,0-6.35-1.51-9.16,1.31-5,.74-6.91-3.92-6.72-3.55-9,2.62-9,2.62-13.08,1.68-4.67,3-6.54,2.62-7.47.75-9.15-4.67-3.92-4.11-8.78-5.13-6.35-4.53-9.34,3.22-3,5.27-4.67-2.61-8.6-1.86-11,3-2.8.18-8.78l-.18-9.15s-6.36-3.74-6.54-8S4,855.52,3.21,854.77A54.93,54.93,0,0,1,0,850.1V288.46l15.13,9.7L6.81,314.44,14,317.58V327l-7.71,3.14,3.28,2.57s-1.28,3.71,1.29,4.57-1.43,2-1.29,4.57-.14,6,11.86,9.42a15.91,15.91,0,0,1-1.72,5.43c-1.42,2.57-2.28,8.85,1.72,8.85s5.14-.57,8,3.71,8.85,8.28,8.85,10.85-.57,9.71,1.43,12.56,6,6.28,6,10.57-2,4.62,5.44,9.54c0,0,2.69,4.93,3.13,7.47S58,428.61,58,428.61l2.39,17.16s8.5,3.29,16.12-.3,11.45-3.89,11.45-3.89l14.83,6.09,4.42,96.14L103.09,872l14.27,166.13-29.28,81.93L0,1119.73Z"/><path class="cls-3" d="M490.49,886.09l8.49,8,4.84,1,10,12.24,16.27-3.54,8.86-.81,11,8.7,18.21,2.58s-1.94,2.09,0,3.54,6.6,2.1,9.34,2.1,14.49-6.77,14.49-6.77,11.76-.64,14.34.48,3.38,3.07,8,1.94,7.09,3.06,7.09,3.06l26.21-15.79,12.29-12.83v-5.21L668,874.41l.16-8.37,3.55-3.87a22.91,22.91,0,0,1-5.16-2.9c-1.61-1.45-1.77-17.23-2.41-21.1s4.18-8.7,9.66-15.95,2.1-6,0-8.21-5-2.74-7.25-3.06-9.18-7.25-10.31-8.7-5.31-13.53-5.31-13.53-1.29,1.13-6.28-2.25-6.12-1.94-8.38-1.78-12.72-5.63-13.69-10.14-3.38-6-4.35-7.57-7.25-2.26-9.83-2.26-6.6-4-7.73-5.8-1.93,3.55-1.93,3.55-6.28-3.06-8.86-7.41-8.38-9.51-8.38-9.51-5.79-4.18-5.15-1.77a2.88,2.88,0,0,1-2.42,3.87c-1.28,0-3.22,2.9-3.22,4.2s-4,2.72-6.92,1.6-1.13-10.64-1.13-10.64l-11.28-11.27-14.82-8v-2.42a61.34,61.34,0,0,1-6.6-4.83c-3.22-2.74-3.06-1-9.18-1s-5.48,8.22-5.48,8.22H500.37v-4.25l-50.48,8.1,24.7,167.87Z"/><path class="cls-5" d="M594.65,513.68s-5.82-1.41-3.17,6.52,1.24,22.16,1.24,22.16-1.32,17.4-4.29,17.67-6.74,1.19-6.32,4.57-3.65,4.78-3.9,5.16-2.79,4.92-4,5.33-7.78,0-8.46,4.28-4.08,10.8-5.46,12.48-4.62,7.06-11.52,1.55-11.82,2.42-11.82,2.42-1.49,7.19-3.57,7.39-4.24-.57-6.92-3.16-10.1.64-10.1.64l-6.8-1.61-6.74,1.74s-6.42.62-21.49-2.9S456,596.41,456,596.41l-8.77,2.44s-6.44-.84,0-10.59l6.43-9.75s2.79-5.58,2.32-14.4,7-18.58,7-18.58a14.66,14.66,0,0,0,4.18-8.36c.93-5.57,7-18.11,10.68-17.64s-9-17-13.53-17.24-13.47-4.11-13.47-5-5.11-.45-6.44,1.37-4.75-6.85-5.9-6.85-4.79-.22-9.13,0-36.54-18-45.9-25.12-16.22-3.42-16.22-3.42S343,461.41,338,457.76s-5-3.89-10.28-10.28-29.46-17.36-29.46-17.36l-16.9-16s-3-6.4-3.42-8.91-16-9.59-16-9.59l-7.3-7.48-1.25-4.52-43.93,6-10.29,29.12v10.54l-7-9.79v-5.27l-6-6.52V404s-7.53-4-9.54-4.27l-10-1.25-27.86,4.27-7-5.78-6.27-1.5-3.52-3.77-4.52.5-1.5,13.31-15.57,7.78v8.28l-8.53,5.78v4.77s-4.27,4.51-4,8.53,7,6.38,7,6.38l-4.7,47.61-32.9,22.22V519l-4.06,2.57L52,527.3h-3.2v9l2.35,3.42,1.92-.43,6,8.76-5.55,3.63-1.07,14.74,13.46,28.85-5.34,6.83L62.06,613l15,14.74-1.28,5.13L70,635l-2.35,3.63s-6.2-1.5-7.91-.85-3.2,1.7-3,6.4a24.17,24.17,0,0,1-1.49,9s-2.14,0-2.14,4.7-.43,18.59-1.71,19.65-4.91.43-4.7,7.91-4.27,2.78-4.27,4.06-1.5,6.2-3.21,8.12-1.06,7.48-1.06,7.48,0,.85-.12,5.77,1.4,20.72,1.4,20.72-6.84,6.84-6.84,10,2.56,4.27,3,7,1.92,8.76,4.27,9.83.86,15.38,3.42,16.45,6.41-.64,3.64,8.12-9.19,2.14-8.55,5.13-1.92,16.24-1.28,21.15,2.2,7.7,3.4,7.92-2.41.77-2.63,1.87-1.75,3.51-3.73,3.73S32.58,828,32.58,828l1.31,14.81,9,12.84h6.36l2,2.63-.65,2.85s-4.17-1-3.51,1.1,4.93,8,4.93,8a9.51,9.51,0,0,1,3.51,7.24s3.18.66,3.62,3,1.32,8.23,2.75,10.2,6.58,4,6,8.12-1.76,9.65.66,11.41,2.85,4.39,4.38,3.4,4.94-8.78,8.12,2c0,0-1,6.26-.33,9.22s1.87,4.5,1.21,7.57.11,9.21,2.63,9.76.66,3.95,1.65,6.36,4.61,3,3.18,4.72-8.12.44-7.46,5.49-1.1,7.57-1.1,7.57a11.57,11.57,0,0,0-2,6.14c.11,3.18-2.52,4.17-1.54,5.81s3.07-.22,2.31,5.05-.33,9.43.76,11.3-5,2.08-5.26,5-.55,4.94,4,4.94-.66,2,1.75,4.72,2.64,7.35,2.64,7.35l4,5.7s-1.43,6.47,2.41,11-4,5.27-5.16,6.47a9.29,9.29,0,0,0-2.52,7.57c.55,3.4,1.86,4.06-.11,5s-5.49-.88-6.36,2.19-4.28,1.43-3.84,3.08S76,1065.05,74,1066s-3.29,2.09-2.85,4.39-.55,3.07,1,4.72,1.75,1.64,1.09,3.84,4,2.3,4.17,4.82-1.75,7.68.22,10.32,4.39,4.38,4.39,6.14-1.65,6.69-.22,9.21,6.25,10.58,6.25,10.58H391.94a14.7,14.7,0,0,0-3.61-9.23l1.8-2.36h5.29l5.09,4.36s5.83,2.87,17.47,1.43,43.48-10.16,43.48-10.16,72.4-22.56,86.23-43.11c0,0-2.37-9.83,1.45-15.47s12-17.46,15.28-26.38,5.64-12,5.64-12-2-24-5.09-24.92-3.82,1.63-6.73,1.63-16.74-8.55-18-14.91-2.18-8.92,1.09-13.65,4.73-7.46,4.18-10.19-7.27-11.28-8.36-11.28-17.29-11.09-20.2-11.09-25.47-6.92-26-10-1.46-2.73-.37-7.09-1.45-3.46-1.45-3.46-2.73-1.64,2.18-3.64,1.51-6.59,1.51-6.59l-3.17-8.06-5.09-8.67s-1-9.27.3-13,4.64-4.64,2.54-7.78-.89-6,1.8-6,11.06,1.49,6.13-11.66-5.24-9-4.94-15.25,2.39-6,1.2-9.42-3.29-2.69-3.29-4-.9-13.9-.9-13.9a9.38,9.38,0,0,0,5.09-7.48c.44-5.38-2.84-4.48-2.84-8.82s2.54-4.48,3-11.81-1-11.66,0-12.1,3.89-5.24-1.94-14.65c0,0-2.39-3.74,3-7.18s3.59-9.71,4.78-11.06,10.62-9.12,10.47-14.8,1.94-4.48,3.88-5.23,12-11.51,14.5-18.08,10-15.5,10-15.5-.85-3.67.85-4.23,3.33-3,3.6-6.77,8.79-8.25,8.79-10a5.4,5.4,0,0,1,3.38-5c2.57-1.22-.68-5.68,2.84-5.14s7.16-.27,3-3.11,6.63-7,6.63-7,5.81-4.6,5.81-7.44,10.42-5.68,11.64-7.57,4-7.71,6.22-10.55,11-5.55,13.52-5.95,9.2-6.76,9.2-7.17,2.84-3.52,6.89-2.7,2.57-5.55,4.74-5.68,5.14-2.17,5.41-4.2,3.65-5.41,3-7.43-3.24-4.2-3.24-6.5.27-17.71,1.21-18.66,2.84-1.89.54-5.14-6.49-8.52-6.76-11.63-3-11.36-3.38-11.63-1.89-2.57-3.38-2.7-4.06-.82-5.14-2-3-2.71-3.65-.81-.68,3.92-2.3,2.7-3.92-1.22-4.19.54-.68,3.79-1.62,3.65-2.71-2.43-4.47-2"/><path class="cls-1" d="M493.29,892.12a2.22,2.22,0,0,1-.57-.07h0a21.52,21.52,0,0,0-5-.61,22.52,22.52,0,0,1-13.68-4.77c-4.38-3.39-9.85-8.13-16.25-14.09-4.79-4.45-8.35-7.9-10.95-10.42-8.13-7.86-8.13-7.86-13.46-8.6-8.16-1.14-22.46-3.62-26.58-7.48A20.46,20.46,0,0,0,402,843a17.57,17.57,0,0,1-9.66-13.52l0-.27c-.15-1.24-.32-2.59-.5-4C390,811,389.36,804.69,390,802.66c.15-.5.6-2,6.88-12.83a22.7,22.7,0,0,1,5.39-6.32c5.78-4.7,9.81-8.73,10.78-10.78.69-1.43,1.87-3.5,3.24-5.9,2.5-4.37,7.14-12.5,7-14.86a22.24,22.24,0,0,0-.7-3.48,54.24,54.24,0,0,1-1.29-22.42,24.8,24.8,0,0,1,1.12-4.87c.77-2.26,2-7.32,1.54-15.76a56.11,56.11,0,0,1,3.77-23c.16-.39.3-.77.44-1.16,1-2.93,4.22-13.15,3.15-21.52l-.05-.41c-1.64-12.85-3.06-23.94,2.74-25,3.22-.57,3.22-.57,3.53-4.47a56.61,56.61,0,0,0-1.28-15.54c-1.06-4.25.86-9.9,4.76-14.06,4.22-4.5,15.68-7.37,26.09-6.51a109.32,109.32,0,0,1,19.46,3.08l1.7.4c7.35,1.72,14.83,2,17.39.63,3.2-1.69,6.14-.71,8.28,0a8.91,8.91,0,0,0,2.42.6,12.3,12.3,0,0,0,2.66-.58c2.48-.72,5.87-1.69,8.72.34.54.39,1.08.83,1.63,1.27.8.65,2.3,1.89,2.82,1.84A3.3,3.3,0,0,0,533,600a37.48,37.48,0,0,0,1.53-4,6.76,6.76,0,0,1,2.58-3.91c2.53-2.11,5.09-2.79,7.81-2.06.28.07.59.15.93.22,1.92.45,4.81,1.13,6.82,3.2a2.94,2.94,0,0,0,2.18,0c1.05-.31,3.62-1.49,4.84-5.66,2.31-7.87,4.5-12,11.35-15.42l.15-.08c4-2,4-2,4.76-3.17.34-.51.8-1.21,1.55-2.19.86-1.14,2-2.65,3.29-4.26,2.48-3.17,6.62-8.48,7.11-9.54.16-.33.32-.64.5-1,.71-1.32,1.52-2.82,1.71-8.41.2-6.09.4-21.33.46-25.86,0-.84,0-1.62-.08-2.39a57.12,57.12,0,0,1,.12-11.18,15,15,0,0,1,2.25-5.93,11.53,11.53,0,0,0,2-6.71c0-5.47,1.37-14.82,2.29-21,.26-1.81.49-3.35.63-4.42.16-1.28.26-4.17-.18-10.65a26.42,26.42,0,0,1,3.89-15.82l.1-.16c2.67-4.28,4.59-10.81,5.12-12.71.18-.66.37-1.26.58-1.85,2.12-5.91,5.21-13.38,7.9-15.42.68-.51,1.81-2.71,2.79-7.2a26.83,26.83,0,0,1,6.38-12.38,65,65,0,0,1,9.86-8.63c11.58-8.36,16.26-11.8,16.31-11.83s16.54-13,19.91-22.43c1.49-4.17,4.18-8.35,7-12.79,4.34-6.75,9.26-14.41,10.89-23.62,2.85-16.1,10.7-29.65,16.34-33,6.69-3.93,13.55-9.93,12.77-15-.24-1.59-.54-3.05-.84-4.47-1.08-5.2-2-9.68,1.25-14.82a85.75,85.75,0,0,0,4.14-8.06c2.84-6,5.53-11.6,8.48-13.71.68-.49,1.34-.93,2-1.33,3-2,3-2.12,2.46-3.18-2.06-3.94,1-5.63,2-6.18a5.05,5.05,0,0,0,.68-.42c.19-1.07,1.75-9.15,7.08-10.25,1.24-.25,2.11-.36,2.75-.44a5.61,5.61,0,0,0,2.56-.78,22,22,0,0,1,8.66-2.52,22.58,22.58,0,0,1,3.14.36c1.44.21,4.79.72,5.72.41.22-.18.57-.5.94-.84,3-2.73,6.11-5.36,9.2-5a4.56,4.56,0,0,1,3.31,2.1c.37.56.69,1.07,1,1.53s.44.7.64,1a14.18,14.18,0,0,0,1.14-1.13l1.16-1.28c4-4.41,6.86-7.27,9.64-7.12a3.6,3.6,0,0,1,2.27,1c.32-.32.69-.75.93-1,1.11-1.3,2.26-2.64,4-2.35a7.34,7.34,0,0,1,1.91.7c1.56.73,2.06.81,2.58.41.69-.53,2.52-2,13.66-1.81a23.25,23.25,0,0,1,4.82.59c2.87.64,3.71.42,3.72.42.94-.32,2.53-.46,6.43,1.26a24.53,24.53,0,0,1,3.8,2.1c3.39,2.28,7.94,4.28,9.59,2.41a50.13,50.13,0,0,0,6-9.34,17.3,17.3,0,0,1,7.21-7.31,10.4,10.4,0,0,1,2.63-1c.53-.11.85-.44,1.38-1a4.09,4.09,0,0,1,2.92-1.66,4.33,4.33,0,0,1,3,1.42,15.24,15.24,0,0,1,2.18,3.17c1.79,3.08,3.08,4.93,5.91,4.57a24.74,24.74,0,0,1,12.2,1.67c1.35.43,10.41,3.52,10.41,10.27a69.39,69.39,0,0,0,1.36,13.55,11.91,11.91,0,0,0,1.54,4.58,2.16,2.16,0,0,1-.2,3.07,2.25,2.25,0,0,1-3.13-.21c-.27-.31-1.69-2.09-2.53-6.64a73.8,73.8,0,0,1-1.43-14.35c0-3.19-5.49-5.53-7.41-6.1l-.31-.12a20.35,20.35,0,0,0-10-1.36c-5.91.73-8.52-3.76-10.25-6.73a16.66,16.66,0,0,0-1.23-2A6.51,6.51,0,0,1,865,177a6.11,6.11,0,0,0-1.49.59,13,13,0,0,0-5.37,5.48,56,56,0,0,1-6.65,10.2c-3,3.44-8.63,2.83-15.33-1.68a19.55,19.55,0,0,0-3.12-1.72,10.07,10.07,0,0,0-3.38-1.08c-.83.25-2.36.47-6-.34a19.43,19.43,0,0,0-3.92-.48c-7.36-.09-10.38.55-10.94.91-2.74,2.12-5.58.79-7.11.07l-.17-.08-.53.61c-1.16,1.35-2.57,3-4.58,2.93a3.31,3.31,0,0,1-2.45-1.24c-1.41.64-4.4,3.94-5.9,5.59l-1.18,1.3c-1.5,1.62-3,3.06-4.88,2.89s-2.77-1.67-3.85-3.4c-.27-.43-.57-.9-.91-1.42a.67.67,0,0,0-.15-.17c-.33-.14-1.54,0-5.73,3.85-.54.49-1,.88-1.31,1.15-1.76,1.36-4.84,1-9,.39a22.93,22.93,0,0,0-2.48-.31,17.78,17.78,0,0,0-6.6,2,9.77,9.77,0,0,1-4.07,1.26c-.63.08-1.34.17-2.42.39-1.57.32-3.18,3.8-3.63,6.72a4.86,4.86,0,0,1-2.88,3.48l-.29.16a1,1,0,0,0,.07.15c2.42,4.64-1.09,7-3.92,8.86-.57.38-1.19.79-1.83,1.25-2,1.45-4.82,7.32-7.06,12a86.18,86.18,0,0,1-4.41,8.52c-2.3,3.63-1.64,6.8-.65,11.58.31,1.47.62,3,.88,4.69,1.36,8.84-9.95,16.54-14.88,19.44-4.17,2.45-11.6,15-14.24,29.94-1.79,10.09-7,18.14-11.53,25.24-2.71,4.21-5.27,8.2-6.58,11.88-3.8,10.64-20.68,23.89-21.4,24.45-.09.07-4.79,3.53-16.39,11.9a60.29,60.29,0,0,0-9.19,8,22.4,22.4,0,0,0-5.33,10.34c-1.12,5.16-2.57,8.36-4.42,9.77-1.07.81-3.53,5.35-6.43,13.4-.18.51-.34,1-.48,1.54-.73,2.62-2.73,9.21-5.62,13.85l-.09.16A22.06,22.06,0,0,0,602,455.31a68.37,68.37,0,0,1,.15,11.51c-.14,1.09-.37,2.66-.64,4.5-.89,6.06-2.24,15.22-2.24,20.37a15.69,15.69,0,0,1-2.54,8.91,11,11,0,0,0-1.7,4.33,53.4,53.4,0,0,0-.09,10.24c.07.9.1,1.81.09,2.79-.06,4.54-.26,19.81-.46,25.94-.22,6.63-1.34,8.7-2.24,10.36-.13.24-.26.48-.38.73-.65,1.4-3.44,5-7.63,10.38-1.24,1.6-2.4,3.08-3.25,4.21-.66.87-1.07,1.48-1.4,2-1.4,2.13-1.78,2.32-6.43,4.66l-.15.08c-5.4,2.72-7,5.57-9.11,12.74-1.34,4.53-4.41,7.8-8.23,8.74a6.42,6.42,0,0,1-6.17-1.28c-1.1-1.14-3.08-1.6-4.66-2-.39-.09-.74-.17-1.06-.26-.92-.24-2.09-.29-3.87,1.19a2.68,2.68,0,0,0-1.21,1.88,40.25,40.25,0,0,1-1.69,4.46c-1,2.2-2.23,3.46-3.86,3.85-2.53.61-4.7-1.15-6.61-2.7-.47-.39-1-.77-1.41-1.11-1.12-.79-3.07-.24-4.95.31a14.62,14.62,0,0,1-3.88.75,11.91,11.91,0,0,1-3.81-.83c-2-.68-3.37-1.06-4.83-.29-5.79,3.06-19,.12-20.44-.23l-1.72-.4a104.47,104.47,0,0,0-18.81-3c-10.59-.87-20,2.49-22.53,5.14-2.83,3-4.39,7.23-3.7,10a60.64,60.64,0,0,1,1.4,17c-.53,6.57-2.45,7.6-7,8.42-1.6,1.9,0,14.18.72,20.11l.05.41c1.19,9.32-2.26,20.35-3.35,23.51-.16.47-.34.92-.52,1.38a52.48,52.48,0,0,0-3.46,21.14c.49,9.17-.89,14.84-1.76,17.4a20.72,20.72,0,0,0-.93,4,50.24,50.24,0,0,0,1.2,20.78,23.3,23.3,0,0,1,.82,4.32c.18,3.38-3,9.29-7.59,17.27-1.32,2.32-2.47,4.32-3.08,5.61-1.31,2.76-5.34,6.9-12,12.29a18.61,18.61,0,0,0-4.36,5.12c-5.73,9.88-6.4,11.64-6.47,11.89-.4,1.84,1.11,13.64,2,20.7.18,1.41.36,2.76.51,4l0,.25A13.19,13.19,0,0,0,404,839a24.11,24.11,0,0,1,5.85,3.86c2.26,2.12,11.75,4.6,24.18,6.33,6.75.93,7.62,1.77,15.91,9.79,2.73,2.65,6.14,5.94,10.89,10.37,6.3,5.87,11.67,10.52,15.95,13.83a18.12,18.12,0,0,0,11,3.85,7.69,7.69,0,0,1,5.05,1.77c1.17.32,1.89,1,1.58,2.19C494.12,892,494.25,892.12,493.29,892.12ZM767.53,197.41Zm62.09-8.61Z"/></g><g id="Laag_3" data-name="Laag 3"><circle class="cls-6" cx="485.37" cy="907.74" r="3.19"/><circle class="cls-6" cx="402.08" cy="852.23" r="3.19"/><circle class="cls-6" cx="384.5" cy="800.44" r="2.46"/><circle class="cls-6" cx="446.15" cy="615.49" r="2.46"/><path class="cls-6" d="M371.21,900.89a3,3,0,0,1,.65,1.89,3.07,3.07,0,0,1-1.05,2.48,4.6,4.6,0,0,1-3,.89h-5.73V893.83h5.59a4.58,4.58,0,0,1,2.91.82,2.8,2.8,0,0,1,1,2.34,2.89,2.89,0,0,1-.59,1.85,2.76,2.76,0,0,1-1.55,1A3.07,3.07,0,0,1,371.21,900.89Zm-6.18-2h2c1,0,1.55-.45,1.55-1.33s-.53-1.32-1.58-1.32H365Zm3.78,3.5a1.3,1.3,0,0,0-.43-1,1.85,1.85,0,0,0-1.24-.37H365v2.77h2.13C368.26,903.73,368.81,903.27,368.81,902.37Z"/><path class="cls-6" d="M383.09,896.43v9.72h-3v-1.76a3.28,3.28,0,0,1-1.25,1.36,3.66,3.66,0,0,1-1.92.5,3.38,3.38,0,0,1-2.66-1.11,4.53,4.53,0,0,1-1-3.07v-5.64h3v5.28a2.18,2.18,0,0,0,.51,1.54,2,2,0,0,0,2.82,0,2.39,2.39,0,0,0,.52-1.64v-5.15Z"/><path class="cls-6" d="M394.29,901.83h-6.74a2.25,2.25,0,0,0,.56,1.57,1.81,1.81,0,0,0,1.29.48,1.78,1.78,0,0,0,1.1-.33,1.51,1.51,0,0,0,.57-.85h3.15a4.1,4.1,0,0,1-.83,1.84,4.5,4.5,0,0,1-1.64,1.27,5.14,5.14,0,0,1-2.21.46,5.27,5.27,0,0,1-2.54-.6,4.33,4.33,0,0,1-1.73-1.74,5.32,5.32,0,0,1-.63-2.64,5.47,5.47,0,0,1,.62-2.66,4.18,4.18,0,0,1,1.74-1.72,5.27,5.27,0,0,1,2.54-.6,5.21,5.21,0,0,1,2.54.59,4.18,4.18,0,0,1,1.7,1.66,5,5,0,0,1,.6,2.47A4,4,0,0,1,394.29,901.83Zm-3.44-2.69a1.87,1.87,0,0,0-1.31-.48,2,2,0,0,0-1.36.48,2.09,2.09,0,0,0-.61,1.43h3.8A1.75,1.75,0,0,0,390.85,899.14Z"/><path class="cls-6" d="M404.75,897.44a4.43,4.43,0,0,1,1,3.06v5.65h-3v-5.3a2.09,2.09,0,0,0-.52-1.52,1.75,1.75,0,0,0-1.36-.55,1.86,1.86,0,0,0-1.44.57,2.36,2.36,0,0,0-.53,1.64v5.16h-3v-9.72h3v1.77a3.22,3.22,0,0,1,1.24-1.37,3.66,3.66,0,0,1,2-.51A3.33,3.33,0,0,1,404.75,897.44Z"/><path class="cls-6" d="M414.84,896.91a4.32,4.32,0,0,1,1.79,1.73,5.71,5.71,0,0,1,0,5.29,4.35,4.35,0,0,1-1.79,1.74,5.89,5.89,0,0,1-5.18,0,4.4,4.4,0,0,1-1.81-1.74,5.71,5.71,0,0,1,0-5.29,4.37,4.37,0,0,1,1.81-1.73,5.89,5.89,0,0,1,5.18,0Zm-4,2.59a2.55,2.55,0,0,0-.58,1.79,2.48,2.48,0,0,0,.58,1.77,1.9,1.9,0,0,0,1.44.61,1.87,1.87,0,0,0,1.43-.61,2.48,2.48,0,0,0,.57-1.77,2.55,2.55,0,0,0-.57-1.79,1.88,1.88,0,0,0-1.43-.62A1.91,1.91,0,0,0,410.81,899.5Z"/><path class="cls-6" d="M425.32,897.23a4,4,0,0,1,1.39,2.44h-2.79a1.53,1.53,0,0,0-.55-.94,1.69,1.69,0,0,0-1.07-.33,1.22,1.22,0,0,0-.77.21.78.78,0,0,0-.26.62.73.73,0,0,0,.48.68,7.63,7.63,0,0,0,1.51.45,16.58,16.58,0,0,1,1.83.53,3,3,0,0,1,1.23.89,2.4,2.4,0,0,1,.53,1.63,2.45,2.45,0,0,1-.46,1.48,2.92,2.92,0,0,1-1.3,1,5,5,0,0,1-2,.37,5.16,5.16,0,0,1-3.15-.87,3.62,3.62,0,0,1-1.45-2.49h2.87a1.33,1.33,0,0,0,.53,1,2,2,0,0,0,1.2.34,1.08,1.08,0,0,0,.76-.24.78.78,0,0,0,.27-.62.74.74,0,0,0-.48-.72,8.27,8.27,0,0,0-1.56-.46,12.76,12.76,0,0,1-1.78-.49,2.92,2.92,0,0,1-1.2-.84,2.35,2.35,0,0,1-.51-1.6,2.57,2.57,0,0,1,1-2.11,4.31,4.31,0,0,1,2.8-.81A4.42,4.42,0,0,1,425.32,897.23Z"/><path class="cls-6" d="M439.61,903.9H435l-.77,2.25H431.1l4.51-12.23H439l4.51,12.23h-3.17Zm-.76-2.27-1.54-4.52-1.55,4.52Z"/><path class="cls-6" d="M444.91,892.57a1.81,1.81,0,0,1,1.29-.45,1.84,1.84,0,0,1,1.29.45,1.54,1.54,0,0,1,0,2.23,1.89,1.89,0,0,1-1.29.44,1.85,1.85,0,0,1-1.29-.44,1.51,1.51,0,0,1,0-2.23Zm2.77,3.86v9.72h-3v-9.72Z"/><path class="cls-6" d="M454.15,896.85a3.64,3.64,0,0,1,1.91-.53v3.19h-.86a2.94,2.94,0,0,0-1.84.51,2,2,0,0,0-.65,1.7v4.43h-3v-9.72h3v1.83A4,4,0,0,1,454.15,896.85Z"/><path class="cls-6" d="M466.45,901.83h-6.74a2.25,2.25,0,0,0,.56,1.57,1.81,1.81,0,0,0,1.29.48,1.78,1.78,0,0,0,1.1-.33,1.51,1.51,0,0,0,.57-.85h3.16a4.23,4.23,0,0,1-.84,1.84,4.5,4.5,0,0,1-1.64,1.27,5.14,5.14,0,0,1-2.21.46,5.2,5.2,0,0,1-2.53-.6,4.29,4.29,0,0,1-1.74-1.74,5.31,5.31,0,0,1-.62-2.64,5.47,5.47,0,0,1,.61-2.66,4.24,4.24,0,0,1,1.74-1.72,5.27,5.27,0,0,1,2.54-.6,5.21,5.21,0,0,1,2.54.59,4.18,4.18,0,0,1,1.7,1.66,5,5,0,0,1,.6,2.47A4,4,0,0,1,466.45,901.83ZM463,899.14a1.87,1.87,0,0,0-1.31-.48,2,2,0,0,0-1.36.48,2.09,2.09,0,0,0-.61,1.43h3.8A1.75,1.75,0,0,0,463,899.14Z"/><path class="cls-6" d="M474.58,897.23a4,4,0,0,1,1.38,2.44h-2.78a1.58,1.58,0,0,0-.55-.94,1.71,1.71,0,0,0-1.07-.33,1.22,1.22,0,0,0-.77.21.78.78,0,0,0-.26.62.73.73,0,0,0,.48.68,7.63,7.63,0,0,0,1.51.45,15.71,15.71,0,0,1,1.82.53,3,3,0,0,1,1.24.89,2.4,2.4,0,0,1,.52,1.63,2.52,2.52,0,0,1-.45,1.48,3,3,0,0,1-1.31,1,5,5,0,0,1-2,.37,5.2,5.2,0,0,1-3.15-.87,3.65,3.65,0,0,1-1.44-2.49h2.87a1.29,1.29,0,0,0,.53,1,2,2,0,0,0,1.19.34,1.09,1.09,0,0,0,.77-.24.81.81,0,0,0,.26-.62.74.74,0,0,0-.48-.72,8.27,8.27,0,0,0-1.56-.46,12.57,12.57,0,0,1-1.77-.49,2.79,2.79,0,0,1-1.2-.84,2.35,2.35,0,0,1-.51-1.6,2.59,2.59,0,0,1,1-2.11,4.35,4.35,0,0,1,2.81-.81A4.43,4.43,0,0,1,474.58,897.23Z"/><path class="cls-2" d="M183.47,583.15h-5.39l-.9,2.63h-3.66l5.27-14.29h4l5.27,14.29h-3.7Zm-.89-2.65-1.79-5.29L179,580.5Z"/><path class="cls-2" d="M194.58,574.91a4.23,4.23,0,0,1,2.23-.61V578h-1a3.46,3.46,0,0,0-2.15.59,2.37,2.37,0,0,0-.76,2v5.17h-3.48V574.42h3.48v2.14A4.74,4.74,0,0,1,194.58,574.91Z"/><path class="cls-2" d="M204.83,574.87a3.58,3.58,0,0,1,1.38,1.6v-2.05h3.46v11.29a6.53,6.53,0,0,1-.61,2.87,4.72,4.72,0,0,1-1.87,2,6.06,6.06,0,0,1-3.14.75,6.43,6.43,0,0,1-4.1-1.21,4.93,4.93,0,0,1-1.84-3.29h3.44a1.71,1.71,0,0,0,.74,1.08,2.68,2.68,0,0,0,1.52.39,2.45,2.45,0,0,0,1.74-.62,2.62,2.62,0,0,0,.66-2v-2a3.6,3.6,0,0,1-1.38,1.61,4.16,4.16,0,0,1-2.24.59,4.68,4.68,0,0,1-2.52-.7,4.86,4.86,0,0,1-1.75-2,7.83,7.83,0,0,1,0-6.2,4.86,4.86,0,0,1,1.75-2,4.6,4.6,0,0,1,2.52-.71A4.07,4.07,0,0,1,204.83,574.87Zm-2.92,3.19a3.35,3.35,0,0,0,0,4.07,2.33,2.33,0,0,0,1.8.74,2.37,2.37,0,0,0,1.8-.76,3.26,3.26,0,0,0,0-4,2.39,2.39,0,0,0-1.8-.74A2.32,2.32,0,0,0,201.91,578.06Z"/><path class="cls-2" d="M222.76,580.73h-7.88a2.64,2.64,0,0,0,.65,1.84,2.14,2.14,0,0,0,1.51.56,2,2,0,0,0,1.28-.39,1.79,1.79,0,0,0,.67-1h3.69a4.82,4.82,0,0,1-1,2.14,5.23,5.23,0,0,1-1.91,1.49,6.1,6.1,0,0,1-2.59.54,6.19,6.19,0,0,1-3-.7,5,5,0,0,1-2-2,6.9,6.9,0,0,1,0-6.2,5,5,0,0,1,2-2,6.61,6.61,0,0,1,5.94,0,4.89,4.89,0,0,1,2,1.94,5.77,5.77,0,0,1,.7,2.88A4.63,4.63,0,0,1,222.76,580.73Zm-4-3.15a2.23,2.23,0,0,0-1.54-.56,2.3,2.3,0,0,0-1.59.57,2.42,2.42,0,0,0-.71,1.67h4.44A2.14,2.14,0,0,0,218.74,577.58Z"/><path class="cls-2" d="M235,575.6a5.2,5.2,0,0,1,1.15,3.58v6.6h-3.48v-6.19a2.49,2.49,0,0,0-.6-1.78,2.07,2.07,0,0,0-1.6-.64,2.19,2.19,0,0,0-1.68.67,2.71,2.71,0,0,0-.62,1.91v6h-3.48V574.42h3.48v2.07a3.7,3.7,0,0,1,1.46-1.6,4.2,4.2,0,0,1,2.27-.59A3.91,3.91,0,0,1,235,575.6Z"/><path class="cls-2" d="M244.87,582.78v3H243.3a4.52,4.52,0,0,1-3.11-1,4.19,4.19,0,0,1-1.11-3.27v-4.17h-1.52v-2.93h1.52v-2.79h3.49v2.79h2.27v2.93h-2.27v4.23a1.3,1.3,0,0,0,.27.94,1.34,1.34,0,0,0,.93.26Z"/><path class="cls-2" d="M247.06,569.91a2.45,2.45,0,0,1,3,0,1.68,1.68,0,0,1,.57,1.31,1.66,1.66,0,0,1-.57,1.29,2.45,2.45,0,0,1-3,0,1.66,1.66,0,0,1-.57-1.29A1.68,1.68,0,0,1,247.06,569.91Zm3.24,4.51v11.36h-3.48V574.42Z"/><path class="cls-2" d="M263,575.6a5.2,5.2,0,0,1,1.15,3.58v6.6h-3.48v-6.19a2.49,2.49,0,0,0-.6-1.78,2.07,2.07,0,0,0-1.6-.64,2.19,2.19,0,0,0-1.68.67,2.71,2.71,0,0,0-.62,1.91v6H252.7V574.42h3.48v2.07a3.7,3.7,0,0,1,1.46-1.6,4.2,4.2,0,0,1,2.27-.59A3.91,3.91,0,0,1,263,575.6Z"/><path class="cls-2" d="M266.71,569.91a2.44,2.44,0,0,1,3,0,1.68,1.68,0,0,1,.57,1.31,1.66,1.66,0,0,1-.57,1.29,2.44,2.44,0,0,1-3,0,1.66,1.66,0,0,1-.57-1.29A1.68,1.68,0,0,1,266.71,569.91Zm3.23,4.51v11.36h-3.48V574.42Z"/><path class="cls-2" d="M283,580.73h-7.88a2.64,2.64,0,0,0,.66,1.84,2.09,2.09,0,0,0,1.5.56,2,2,0,0,0,1.28-.39,1.8,1.8,0,0,0,.68-1H283a4.71,4.71,0,0,1-1,2.14,5.23,5.23,0,0,1-1.91,1.49,6.06,6.06,0,0,1-2.59.54,6.19,6.19,0,0,1-3-.7,5.06,5.06,0,0,1-2-2,6.25,6.25,0,0,1-.74-3.09,6.38,6.38,0,0,1,.73-3.11,5,5,0,0,1,2-2,6.15,6.15,0,0,1,3-.71,6.22,6.22,0,0,1,3,.7,4.93,4.93,0,0,1,2,1.94,5.77,5.77,0,0,1,.7,2.88A4.63,4.63,0,0,1,283,580.73Zm-8.68-10.12a1.46,1.46,0,0,1,2.51,1.06,1.39,1.39,0,0,1-.41,1,1.55,1.55,0,0,1-2.1,0,1.4,1.4,0,0,1-.42-1A1.45,1.45,0,0,1,274.35,570.61Zm4.66,7a2.21,2.21,0,0,0-1.54-.56,2.27,2.27,0,0,0-1.58.57,2.43,2.43,0,0,0-.72,1.67h4.44A2.07,2.07,0,0,0,279,577.58Zm-.53-7a1.4,1.4,0,0,1,1-.43,1.43,1.43,0,0,1,1.05.43,1.45,1.45,0,0,1,.42,1.06,1.4,1.4,0,0,1-.42,1,1.42,1.42,0,0,1-1.05.41,1.4,1.4,0,0,1-1.44-1.44A1.44,1.44,0,0,1,278.48,570.61Z"/><path class="cls-5" d="M32.61,474.66a7.61,7.61,0,0,1,2.69,4.5H31.05a3.84,3.84,0,0,0-1.44-1.8,4,4,0,0,0-2.32-.66A3.53,3.53,0,0,0,24.45,478a6,6,0,0,0,0,6.89,3.55,3.55,0,0,0,2.84,1.28,4,4,0,0,0,2.32-.66,3.84,3.84,0,0,0,1.44-1.78H35.3a7.61,7.61,0,0,1-2.69,4.49,8.05,8.05,0,0,1-5.24,1.68,8.28,8.28,0,0,1-4.25-1.06,7.25,7.25,0,0,1-2.83-3,10.14,10.14,0,0,1,0-8.78,7.22,7.22,0,0,1,2.83-3A8.28,8.28,0,0,1,27.37,473,8,8,0,0,1,32.61,474.66Z"/><path class="cls-5" d="M49.45,478a6.05,6.05,0,0,1,1.32,4.14v7.6h-4v-7.14a2.85,2.85,0,0,0-.7-2.05,2.4,2.4,0,0,0-1.84-.74,2.52,2.52,0,0,0-1.94.78,3.15,3.15,0,0,0-.71,2.2v6.95h-4V472.38h4v6.67a4.26,4.26,0,0,1,1.68-1.86,4.94,4.94,0,0,1,2.62-.68A4.55,4.55,0,0,1,49.45,478Z"/><path class="cls-5" d="M53.71,471.45a2.44,2.44,0,0,1,1.73-.6,2.49,2.49,0,0,1,1.74.6,2,2,0,0,1,.66,1.52,1.94,1.94,0,0,1-.66,1.49,2.49,2.49,0,0,1-1.74.6,2.44,2.44,0,0,1-1.73-.6,1.94,1.94,0,0,1-.66-1.49A2,2,0,0,1,53.71,471.45Zm3.73,5.2v13.1h-4v-13.1Z"/><path class="cls-5" d="M64.22,472.38v17.37h-4V472.38Z"/><path class="cls-5" d="M67.27,471.45a2.82,2.82,0,0,1,3.48,0,2,2,0,0,1,.66,1.52,1.94,1.94,0,0,1-.66,1.49,2.82,2.82,0,0,1-3.48,0,2,2,0,0,1-.65-1.49A2,2,0,0,1,67.27,471.45Zm3.74,5.2v13.1H67v-13.1Z"/><path class="cls-5" d="M98.28,289.51a3.86,3.86,0,0,1,.84,2.46,3.94,3.94,0,0,1-1.36,3.2,5.88,5.88,0,0,1-3.91,1.15H86.43V280.38h7.24a5.88,5.88,0,0,1,3.76,1.06,3.62,3.62,0,0,1,1.33,3,3.73,3.73,0,0,1-.76,2.4,3.52,3.52,0,0,1-2,1.25A4,4,0,0,1,98.28,289.51Zm-8-2.62h2.53q2,0,2-1.71c0-1.14-.69-1.71-2.06-1.71H90.28Zm4.9,4.54a1.7,1.7,0,0,0-.57-1.35,2.39,2.39,0,0,0-1.6-.48H90.28v3.59H93C94.46,293.19,95.18,292.6,95.18,291.43Z"/><path class="cls-5" d="M110.39,284.36a5.68,5.68,0,0,1,2.32,2.24,7.35,7.35,0,0,1,0,6.86,5.75,5.75,0,0,1-2.32,2.24,7.61,7.61,0,0,1-6.71,0,5.71,5.71,0,0,1-2.33-2.24,7.35,7.35,0,0,1,0-6.86,5.65,5.65,0,0,1,2.33-2.24,7.61,7.61,0,0,1,6.71,0Zm-5.21,3.36a3.88,3.88,0,0,0,0,4.61,2.57,2.57,0,0,0,3.71,0,4,4,0,0,0,0-4.61,2.55,2.55,0,0,0-3.71,0Z"/><path class="cls-5" d="M119.42,279.63v16.69h-3.85V279.63Z"/><path class="cls-5" d="M122.35,278.74a2.73,2.73,0,0,1,3.34,0,2,2,0,0,1,0,2.89,2.73,2.73,0,0,1-3.34,0,2,2,0,0,1,0-2.89Zm3.59,5v12.58h-3.86V283.74Z"/><path class="cls-5" d="M134.42,292.56l2.73-8.82h4.1l-4.46,12.58H132l-4.47-12.58h4.11Z"/><path class="cls-5" d="M143.13,278.74a2.72,2.72,0,0,1,3.33,0,2,2,0,0,1,0,2.89,2.72,2.72,0,0,1-3.33,0,2,2,0,0,1,0-2.89Zm3.58,5v12.58h-3.86V283.74Z"/><path class="cls-5" d="M156.63,284.23a3.92,3.92,0,0,1,1.54,1.78v-2.27H162v12.58h-3.83V294a3.89,3.89,0,0,1-1.54,1.79,4.58,4.58,0,0,1-2.48.65,5.09,5.09,0,0,1-2.78-.78,5.34,5.34,0,0,1-1.94-2.24,8.66,8.66,0,0,1,0-6.87,5.31,5.31,0,0,1,1.94-2.23,5.09,5.09,0,0,1,2.78-.78A4.58,4.58,0,0,1,156.63,284.23Zm-3.23,3.54a3.19,3.19,0,0,0-.76,2.26,3.14,3.14,0,0,0,.76,2.25,2.57,2.57,0,0,0,2,.82,2.6,2.6,0,0,0,2-.84,3.61,3.61,0,0,0,0-4.48,2.65,2.65,0,0,0-2-.82A2.59,2.59,0,0,0,153.4,287.77Z"/><path class="cls-5" d="M353.7,397.69v4.93h-3.39v-14h5.5a5.39,5.39,0,0,1,3.81,1.24,4.42,4.42,0,0,1,1.31,3.35,4.61,4.61,0,0,1-.59,2.33,4.09,4.09,0,0,1-1.73,1.61,6.16,6.16,0,0,1-2.8.58Zm3.77-4.52c0-1.23-.68-1.85-2-1.85H353.7V395h1.73Q357.47,395,357.47,393.17Z"/><path class="cls-5" d="M369,392a3.39,3.39,0,0,1,1.35,1.57v-2h3.37v11.08h-3.37v-2a3.39,3.39,0,0,1-1.35,1.57,4.06,4.06,0,0,1-2.19.58,4.46,4.46,0,0,1-2.45-.69,4.73,4.73,0,0,1-1.71-2,7.69,7.69,0,0,1,0-6.05,4.79,4.79,0,0,1,1.71-2,4.54,4.54,0,0,1,2.45-.68A4,4,0,0,1,369,392Zm-2.85,3.11a2.83,2.83,0,0,0-.67,2,2.79,2.79,0,0,0,.67,2,2.28,2.28,0,0,0,1.76.72,2.31,2.31,0,0,0,1.75-.73,3.17,3.17,0,0,0,0-3.95,2.51,2.51,0,0,0-3.51,0Z"/><path class="cls-5" d="M381.09,392a4.15,4.15,0,0,1,2.17-.6v3.63h-1a3.35,3.35,0,0,0-2.09.58,2.3,2.3,0,0,0-.75,1.95v5h-3.39V391.54h3.39v2.09A4.68,4.68,0,0,1,381.09,392Z"/><path class="cls-5" d="M391.09,392a3.51,3.51,0,0,1,1.35,1.57v-2h3.37v11.08h-3.37v-2a3.51,3.51,0,0,1-1.35,1.57,4.06,4.06,0,0,1-2.19.58,4.46,4.46,0,0,1-2.45-.69,4.73,4.73,0,0,1-1.71-2,7.69,7.69,0,0,1,0-6.05,4.79,4.79,0,0,1,1.71-2,4.54,4.54,0,0,1,2.45-.68A4,4,0,0,1,391.09,392Zm-2.85,3.11a2.79,2.79,0,0,0-.67,2,2.75,2.75,0,0,0,.67,2,2.27,2.27,0,0,0,1.75.72,2.33,2.33,0,0,0,1.76-.73,3.17,3.17,0,0,0,0-3.95,2.32,2.32,0,0,0-1.76-.72A2.3,2.3,0,0,0,388.24,395.09Z"/><path class="cls-5" d="M404.55,392a3.39,3.39,0,0,1,1.35,1.57v-2h3.37v11a6.48,6.48,0,0,1-.59,2.79,4.63,4.63,0,0,1-1.83,2,5.88,5.88,0,0,1-3.06.74,6.32,6.32,0,0,1-4-1.18,4.83,4.83,0,0,1-1.8-3.21h3.36a1.69,1.69,0,0,0,.73,1.05,2.53,2.53,0,0,0,1.47.38,2.35,2.35,0,0,0,1.7-.61,2.52,2.52,0,0,0,.65-1.93v-1.95a3.39,3.39,0,0,1-1.35,1.57,4.06,4.06,0,0,1-2.19.58,4.46,4.46,0,0,1-2.45-.69,4.73,4.73,0,0,1-1.71-2,7.69,7.69,0,0,1,0-6.05,4.79,4.79,0,0,1,1.71-2,4.54,4.54,0,0,1,2.45-.68A4,4,0,0,1,404.55,392Zm-2.85,3.11a2.79,2.79,0,0,0-.67,2,2.75,2.75,0,0,0,.67,2,2.28,2.28,0,0,0,1.76.72,2.31,2.31,0,0,0,1.75-.73,3.17,3.17,0,0,0,0-3.95,2.51,2.51,0,0,0-3.51,0Z"/><path class="cls-5" d="M422.63,391.54v11.08h-3.41v-2a3.66,3.66,0,0,1-1.42,1.55,4.07,4.07,0,0,1-2.19.58,3.81,3.81,0,0,1-3-1.27,5.09,5.09,0,0,1-1.12-3.5v-6.43h3.37v6a2.45,2.45,0,0,0,.59,1.75,2,2,0,0,0,1.57.63,2.07,2.07,0,0,0,1.63-.66,2.65,2.65,0,0,0,.6-1.86v-5.88Z"/><path class="cls-5" d="M431.37,392a3.39,3.39,0,0,1,1.35,1.57v-2h3.37v11.08h-3.37v-2a3.39,3.39,0,0,1-1.35,1.57,4.06,4.06,0,0,1-2.19.58,4.46,4.46,0,0,1-2.45-.69,4.64,4.64,0,0,1-1.7-2,7.58,7.58,0,0,1,0-6.05,4.7,4.7,0,0,1,1.7-2,4.54,4.54,0,0,1,2.45-.68A4,4,0,0,1,431.37,392Zm-2.85,3.11a2.83,2.83,0,0,0-.66,2,2.79,2.79,0,0,0,.66,2,2.28,2.28,0,0,0,1.76.72,2.31,2.31,0,0,0,1.75-.73,3.17,3.17,0,0,0,0-3.95,2.51,2.51,0,0,0-3.51,0Z"/><path class="cls-5" d="M441,391.54l2.66,6.79,2.48-6.79h3.75L443,407.9h-3.73l2.6-5.7-4.64-10.66Z"/><path class="cls-5" d="M787.75,355.41a4,4,0,0,1,.88,2.56,4.15,4.15,0,0,1-1.43,3.35,6.17,6.17,0,0,1-4.08,1.2h-7.75V345.87h7.56a6.13,6.13,0,0,1,3.93,1.11,3.8,3.8,0,0,1,1.39,3.16,3.88,3.88,0,0,1-.8,2.5,3.64,3.64,0,0,1-2.09,1.31A4.15,4.15,0,0,1,787.75,355.41Zm-8.35-2.73H782c1.39,0,2.09-.6,2.09-1.79s-.71-1.79-2.14-1.79H779.4Zm5.11,4.73a1.75,1.75,0,0,0-.59-1.4,2.47,2.47,0,0,0-1.67-.51H779.4v3.75h2.87C783.76,359.25,784.51,358.63,784.51,357.41Z"/><path class="cls-5" d="M796.71,350a5,5,0,0,1,2.58-.71v4.31h-1.15a4,4,0,0,0-2.49.68,2.78,2.78,0,0,0-.88,2.31v6h-4V349.38h4v2.47A5.68,5.68,0,0,1,796.71,350Z"/><path class="cls-5" d="M808.57,349.9a4.14,4.14,0,0,1,1.6,1.86v-2.38h4v13.14h-4v-2.38a4.14,4.14,0,0,1-1.6,1.86,4.83,4.83,0,0,1-2.59.68,5.33,5.33,0,0,1-2.91-.81,5.56,5.56,0,0,1-2-2.34,9.05,9.05,0,0,1,0-7.17,5.59,5.59,0,0,1,2-2.33,5.33,5.33,0,0,1,2.91-.81A4.74,4.74,0,0,1,808.57,349.9Zm-3.38,3.7a3.89,3.89,0,0,0,0,4.7,2.68,2.68,0,0,0,2.08.85,2.75,2.75,0,0,0,2.09-.87,3.77,3.77,0,0,0,0-4.67,2.74,2.74,0,0,0-2.09-.86A2.68,2.68,0,0,0,805.19,353.6Z"/><path class="cls-5" d="M820.5,359.15h6.07v3.37H816.1v-3.18l5.65-6.62h-5.56v-3.34h10.15v3.18Z"/><path class="cls-5" d="M828.76,344.17a2.84,2.84,0,0,1,3.49,0,2,2,0,0,1,.66,1.52,1.94,1.94,0,0,1-.66,1.49,2.84,2.84,0,0,1-3.49,0,1.94,1.94,0,0,1-.66-1.49A2,2,0,0,1,828.76,344.17Zm3.75,5.21v13.14h-4V349.38Z"/><path class="cls-5" d="M839.31,345.1v17.42h-4V345.1Z"/><path class="cls-5" d="M842.37,344.17a2.82,2.82,0,0,1,3.48,0,2,2,0,0,1,.66,1.52,1.94,1.94,0,0,1-.66,1.49,2.82,2.82,0,0,1-3.48,0,1.94,1.94,0,0,1-.66-1.49A2,2,0,0,1,842.37,344.17Zm3.74,5.21v13.14h-4V349.38Z"/><path class="cls-5" d="M861.25,356.68h-9.11a3,3,0,0,0,.75,2.13,2.45,2.45,0,0,0,1.74.65,2.4,2.4,0,0,0,1.49-.45,2.06,2.06,0,0,0,.77-1.15h4.26a5.56,5.56,0,0,1-1.13,2.48,6.09,6.09,0,0,1-2.21,1.72,6.93,6.93,0,0,1-3,.62,7,7,0,0,1-3.42-.81,5.82,5.82,0,0,1-2.35-2.34,8.11,8.11,0,0,1,0-7.17,5.77,5.77,0,0,1,2.34-2.33,7.75,7.75,0,0,1,6.88,0,5.58,5.58,0,0,1,2.29,2.25,6.68,6.68,0,0,1,.81,3.33A5.35,5.35,0,0,1,861.25,356.68Zm-10-11.7a1.74,1.74,0,0,1,2.42,0,1.69,1.69,0,0,1,.48,1.22,1.62,1.62,0,0,1-.48,1.19,1.7,1.7,0,0,1-2.91-1.19A1.7,1.7,0,0,1,851.21,345ZM856.6,353a2.56,2.56,0,0,0-1.78-.64,2.69,2.69,0,0,0-1.84.65,2.79,2.79,0,0,0-.82,1.94h5.13A2.41,2.41,0,0,0,856.6,353ZM856,345a1.57,1.57,0,0,1,1.18-.49,1.64,1.64,0,0,1,1.22.49,1.69,1.69,0,0,1,.48,1.22,1.62,1.62,0,0,1-.48,1.19,1.68,1.68,0,0,1-1.22.49,1.67,1.67,0,0,1-1.67-1.68A1.66,1.66,0,0,1,856,345Z"/><path class="cls-5" d="M535.38,817.67v8a3.14,3.14,0,0,0,.62,2.09,2.57,2.57,0,0,0,3.57,0,3.14,3.14,0,0,0,.62-2.09v-8h3.34v8a6.64,6.64,0,0,1-.76,3.29,5,5,0,0,1-2.08,2,6.47,6.47,0,0,1-3,.68,6.24,6.24,0,0,1-2.93-.67,4.73,4.73,0,0,1-2-2,6.94,6.94,0,0,1-.72-3.3v-8Z"/><path class="cls-5" d="M550.71,821.05a4.09,4.09,0,0,1,2.13-.59V824h-1a3.32,3.32,0,0,0-2.06.56,2.29,2.29,0,0,0-.74,1.92v5h-3.34v-10.9h3.34v2A4.8,4.8,0,0,1,550.71,821.05Z"/><path class="cls-5" d="M565.09,820.58v10.9h-3.36v-2a3.66,3.66,0,0,1-1.4,1.52,4,4,0,0,1-2.15.57,3.78,3.78,0,0,1-3-1.25,5,5,0,0,1-1.11-3.44v-6.33h3.32v5.92a2.46,2.46,0,0,0,.58,1.73,2,2,0,0,0,1.55.61,2.07,2.07,0,0,0,1.61-.64,2.66,2.66,0,0,0,.58-1.84v-5.78Z"/><path class="cls-5" d="M573.69,821a3.41,3.41,0,0,1,1.32,1.54v-2h3.33v10.84a6.3,6.3,0,0,1-.59,2.75,4.48,4.48,0,0,1-1.8,1.94,5.81,5.81,0,0,1-3,.72,6.19,6.19,0,0,1-3.93-1.16,4.7,4.7,0,0,1-1.77-3.16h3.3a1.68,1.68,0,0,0,.71,1,2.59,2.59,0,0,0,1.46.37,2.33,2.33,0,0,0,1.67-.6,2.5,2.5,0,0,0,.63-1.9v-1.91a3.41,3.41,0,0,1-1.32,1.54,3.94,3.94,0,0,1-2.15.57,4.44,4.44,0,0,1-2.42-.68,4.71,4.71,0,0,1-1.68-1.94,7.56,7.56,0,0,1,0-6,4.68,4.68,0,0,1,1.68-1.93,4.44,4.44,0,0,1,2.42-.68A3.94,3.94,0,0,1,573.69,821Zm-2.81,3.07a2.75,2.75,0,0,0-.65,1.95,2.78,2.78,0,0,0,.65,2,2.44,2.44,0,0,0,3.46,0,3.13,3.13,0,0,0,0-3.87,2.45,2.45,0,0,0-3.46,0Z"/><path class="cls-5" d="M591.48,820.58v10.9h-3.36v-2a3.66,3.66,0,0,1-1.4,1.52,4,4,0,0,1-2.15.57,3.78,3.78,0,0,1-3-1.25,5,5,0,0,1-1.11-3.44v-6.33h3.32v5.92a2.46,2.46,0,0,0,.58,1.73,2,2,0,0,0,1.55.61,2,2,0,0,0,1.6-.64,2.61,2.61,0,0,0,.59-1.84v-5.78Z"/><path class="cls-5" d="M600.07,821a3.38,3.38,0,0,1,1.33,1.54v-2h3.32v10.9H601.4v-2a3.38,3.38,0,0,1-1.33,1.54,3.88,3.88,0,0,1-2.14.57,4.44,4.44,0,0,1-2.42-.68,4.64,4.64,0,0,1-1.68-1.94,7.56,7.56,0,0,1,0-6,4.61,4.61,0,0,1,1.68-1.93,4.44,4.44,0,0,1,2.42-.68A3.88,3.88,0,0,1,600.07,821Zm-2.8,3.07a2.75,2.75,0,0,0-.65,1.95,2.78,2.78,0,0,0,.65,2,2.25,2.25,0,0,0,1.73.71,2.28,2.28,0,0,0,1.73-.73,3.13,3.13,0,0,0,0-3.87,2.45,2.45,0,0,0-3.46,0Z"/><path class="cls-5" d="M609.55,820.58l2.61,6.68,2.45-6.68h3.69l-6.8,16.1h-3.67l2.56-5.61-4.57-10.49Z"/><path class="cls-1" d="M302.11,708.25v3.83h-2.65V701.14h4.29a4.14,4.14,0,0,1,3,1,3.41,3.41,0,0,1,1,2.61,3.57,3.57,0,0,1-.46,1.82,3.1,3.1,0,0,1-1.35,1.25,4.84,4.84,0,0,1-2.18.46Zm2.94-3.53c0-1-.53-1.44-1.6-1.44h-1.34v2.85h1.34C304.52,706.13,305.05,705.66,305.05,704.72Z"/><path class="cls-1" d="M314,703.79a2.73,2.73,0,0,1,1.06,1.22v-1.56h2.63v8.63h-2.63v-1.56a2.68,2.68,0,0,1-1.06,1.22,3.1,3.1,0,0,1-1.7.45,3.46,3.46,0,0,1-1.91-.53,3.66,3.66,0,0,1-1.33-1.54,5.9,5.9,0,0,1,0-4.71,3.66,3.66,0,0,1,1.33-1.54,3.54,3.54,0,0,1,1.91-.53A3.1,3.1,0,0,1,314,703.79Zm-2.22,2.43a2.22,2.22,0,0,0-.52,1.55,2.19,2.19,0,0,0,.52,1.54,1.81,1.81,0,0,0,1.37.56,1.78,1.78,0,0,0,1.37-.57,2.45,2.45,0,0,0,0-3.07,1.78,1.78,0,0,0-1.37-.57A1.81,1.81,0,0,0,311.8,706.22Z"/><path class="cls-1" d="M323.46,703.82a3.23,3.23,0,0,1,1.69-.46v2.83h-.76a2.61,2.61,0,0,0-1.63.45,1.78,1.78,0,0,0-.58,1.51v3.93h-2.65v-8.63h2.65v1.62A3.82,3.82,0,0,1,323.46,703.82Z"/><path class="cls-1" d="M331.25,703.79A2.65,2.65,0,0,1,332.3,705v-1.56h2.64v8.63H332.3v-1.56a2.6,2.6,0,0,1-1.05,1.22,3.1,3.1,0,0,1-1.7.45,3.46,3.46,0,0,1-1.91-.53,3.59,3.59,0,0,1-1.33-1.54,5.9,5.9,0,0,1,0-4.71,3.59,3.59,0,0,1,1.33-1.54,3.54,3.54,0,0,1,1.91-.53A3.1,3.1,0,0,1,331.25,703.79ZM329,706.22a2.17,2.17,0,0,0-.52,1.55,2.14,2.14,0,0,0,.52,1.54,1.94,1.94,0,0,0,2.74,0,2.49,2.49,0,0,0,0-3.07,1.94,1.94,0,0,0-2.74,0Z"/><path class="cls-1" d="M344.6,704.35a4,4,0,0,1,.88,2.72v5h-2.65v-4.7a1.9,1.9,0,0,0-.46-1.36,1.59,1.59,0,0,0-1.21-.48,1.66,1.66,0,0,0-1.28.51,2.07,2.07,0,0,0-.47,1.45v4.58h-2.65v-8.63h2.65V705a2.81,2.81,0,0,1,1.11-1.23,3.22,3.22,0,0,1,1.72-.44A3,3,0,0,1,344.6,704.35Z"/><path class="cls-1" d="M352.21,703.79a2.77,2.77,0,0,1,1.05,1.22v-1.56h2.63v8.63h-2.63v-1.56a2.71,2.71,0,0,1-1.05,1.22,3.13,3.13,0,0,1-1.7.45,3.49,3.49,0,0,1-1.92-.53,3.73,3.73,0,0,1-1.33-1.54,6,6,0,0,1,0-4.71,3.73,3.73,0,0,1,1.33-1.54,3.57,3.57,0,0,1,1.92-.53A3.13,3.13,0,0,1,352.21,703.79ZM350,706.22a2.17,2.17,0,0,0-.52,1.55,2.14,2.14,0,0,0,.52,1.54,1.94,1.94,0,0,0,2.74,0,2.49,2.49,0,0,0,0-3.07,1.94,1.94,0,0,0-2.74,0Zm3.58-5-3.73,1.6V701l3.73-1.79Z"/><path class="cls-1" d="M366.43,712.08,364.07,708h-.61v4.13h-2.65V701.14h4.52a4.87,4.87,0,0,1,2.2.45,3.11,3.11,0,0,1,1.35,1.23,3.53,3.53,0,0,1,.45,1.79,3.19,3.19,0,0,1-.66,2,3.38,3.38,0,0,1-1.91,1.14l2.6,4.3Zm-3-5.94h1.64a1.64,1.64,0,0,0,1.16-.35,1.32,1.32,0,0,0,.37-1,1.38,1.38,0,0,0-.37-1,1.6,1.6,0,0,0-1.16-.37h-1.64Z"/><path class="cls-1" d="M370.84,700a1.85,1.85,0,0,1,2.3,0,1.32,1.32,0,0,1,.43,1,1.29,1.29,0,0,1-.43,1,1.85,1.85,0,0,1-2.3,0,1.29,1.29,0,0,1-.43-1A1.32,1.32,0,0,1,370.84,700Zm2.47,3.43v8.63h-2.65v-8.63Z"/><path class="cls-1" d="M379.13,709.5l1.87-6h2.82l-3.07,8.63h-3.28l-3.07-8.63h2.82Z"/><path class="cls-1" d="M385.1,700a1.84,1.84,0,0,1,2.29,0,1.29,1.29,0,0,1,.43,1,1.26,1.26,0,0,1-.43,1,1.84,1.84,0,0,1-2.29,0,1.26,1.26,0,0,1-.43-1A1.29,1.29,0,0,1,385.1,700Zm2.46,3.43v8.63h-2.65v-8.63Z"/><path class="cls-1" d="M397.51,708.25h-6a2,2,0,0,0,.5,1.4,1.78,1.78,0,0,0,2.12.13,1.36,1.36,0,0,0,.51-.76h2.8a3.62,3.62,0,0,1-.74,1.63,3.91,3.91,0,0,1-1.46,1.13,4.47,4.47,0,0,1-2,.41,4.56,4.56,0,0,1-2.25-.53,3.81,3.81,0,0,1-1.54-1.54,4.7,4.7,0,0,1-.56-2.35,4.76,4.76,0,0,1,.55-2.36,3.75,3.75,0,0,1,1.54-1.54,5.08,5.08,0,0,1,4.52,0,3.75,3.75,0,0,1,1.51,1.47,4.49,4.49,0,0,1,.53,2.19A3.17,3.17,0,0,1,397.51,708.25Zm-3.05-2.4a1.88,1.88,0,0,0-2.38,0,1.81,1.81,0,0,0-.54,1.27h3.37A1.62,1.62,0,0,0,394.46,705.85Z"/><path class="cls-1" d="M402.89,703.82a3.26,3.26,0,0,1,1.7-.46v2.83h-.76a2.59,2.59,0,0,0-1.63.45,1.78,1.78,0,0,0-.58,1.51v3.93H399v-8.63h2.65v1.62A3.79,3.79,0,0,1,402.89,703.82Z"/><path class="cls-6" d="M334.81,853.28l-2.65-4.64h-.68v4.64h-3V841h5.07a5.44,5.44,0,0,1,2.47.51,3.44,3.44,0,0,1,1.51,1.38,4,4,0,0,1,.5,2,3.61,3.61,0,0,1-.74,2.28,3.76,3.76,0,0,1-2.14,1.28l2.92,4.83Zm-3.33-6.67h1.84a1.84,1.84,0,0,0,1.3-.39,1.77,1.77,0,0,0,0-2.3,1.76,1.76,0,0,0-1.29-.42h-1.84Z"/><path class="cls-6" d="M346.66,844.07a4.36,4.36,0,0,1,1.79,1.72,5.69,5.69,0,0,1,0,5.28,4.38,4.38,0,0,1-1.79,1.73,5.4,5.4,0,0,1-2.58.6,5.45,5.45,0,0,1-2.58-.6,4.35,4.35,0,0,1-1.8-1.73,5.22,5.22,0,0,1-.65-2.64,5.27,5.27,0,0,1,.65-2.64,4.33,4.33,0,0,1,1.8-1.72,5.45,5.45,0,0,1,2.58-.6A5.4,5.4,0,0,1,346.66,844.07Zm-4,2.58a2.49,2.49,0,0,0-.58,1.78,2.44,2.44,0,0,0,.58,1.77,1.9,1.9,0,0,0,1.43.61,1.87,1.87,0,0,0,1.43-.61,2.48,2.48,0,0,0,.57-1.77,2.54,2.54,0,0,0-.57-1.78,1.87,1.87,0,0,0-1.43-.61A1.9,1.9,0,0,0,342.65,846.65Z"/><path class="cls-6" d="M357.11,844.39a3.93,3.93,0,0,1,1.38,2.43h-2.77a1.52,1.52,0,0,0-.55-.93,1.63,1.63,0,0,0-1.07-.34,1.13,1.13,0,0,0-.76.22.76.76,0,0,0-.26.61.72.72,0,0,0,.48.68,7.28,7.28,0,0,0,1.5.45,15.71,15.71,0,0,1,1.82.53,3,3,0,0,1,1.23.88,2.4,2.4,0,0,1,.52,1.63,2.52,2.52,0,0,1-.45,1.48,3,3,0,0,1-1.3,1,5,5,0,0,1-2,.37,5.2,5.2,0,0,1-3.15-.87,3.72,3.72,0,0,1-1.44-2.48h2.87a1.26,1.26,0,0,0,.53,1,2,2,0,0,0,1.19.33,1.13,1.13,0,0,0,.76-.23.81.81,0,0,0,.26-.62.75.75,0,0,0-.48-.72,8.93,8.93,0,0,0-1.55-.46,11.35,11.35,0,0,1-1.77-.49,2.92,2.92,0,0,1-1.2-.84,2.3,2.3,0,0,1-.5-1.59,2.61,2.61,0,0,1,1-2.11,5.21,5.21,0,0,1,5.73.12Z"/><path class="cls-6" d="M365.87,844a3,3,0,0,1,1.18,1.37v-1.75h3v9.69h-3v-1.76a2.92,2.92,0,0,1-1.18,1.37,3.47,3.47,0,0,1-1.91.51,3.92,3.92,0,0,1-2.14-.6,4.09,4.09,0,0,1-1.49-1.73,5.9,5.9,0,0,1-.55-2.64,5.84,5.84,0,0,1,.55-2.64,4.06,4.06,0,0,1,1.49-1.72,3.92,3.92,0,0,1,2.14-.6A3.47,3.47,0,0,1,365.87,844Zm-2.49,2.73a2.41,2.41,0,0,0-.58,1.73,2.46,2.46,0,0,0,.58,1.74,2.2,2.2,0,0,0,3.08,0,2.46,2.46,0,0,0,.59-1.72,2.43,2.43,0,0,0-.59-1.72,2.18,2.18,0,0,0-3.08,0Z"/><path class="cls-6" d="M376.46,844a3.6,3.6,0,0,1,1.9-.52v3.17h-.85a2.94,2.94,0,0,0-1.84.51,2,2,0,0,0-.65,1.7v4.41h-3v-9.69h3v1.82A4.1,4.1,0,0,1,376.46,844Z"/><path class="cls-6" d="M379.81,839.74a1.89,1.89,0,0,1,1.29-.44,1.84,1.84,0,0,1,1.28.44,1.44,1.44,0,0,1,.49,1.12,1.4,1.4,0,0,1-.49,1.1,1.8,1.8,0,0,1-1.28.45,1.84,1.84,0,0,1-1.29-.45,1.43,1.43,0,0,1-.48-1.1A1.47,1.47,0,0,1,379.81,839.74Zm2.76,3.85v9.69h-3v-9.69Z"/><path class="cls-6" d="M391.73,844.07a4.36,4.36,0,0,1,1.79,1.72,5.69,5.69,0,0,1,0,5.28,4.38,4.38,0,0,1-1.79,1.73,5.85,5.85,0,0,1-5.16,0,4.35,4.35,0,0,1-1.8-1.73,5.22,5.22,0,0,1-.65-2.64,5.27,5.27,0,0,1,.65-2.64,4.33,4.33,0,0,1,1.8-1.72,5.85,5.85,0,0,1,5.16,0Zm-4,2.58a2.49,2.49,0,0,0-.58,1.78,2.44,2.44,0,0,0,.58,1.77,1.9,1.9,0,0,0,1.43.61,1.87,1.87,0,0,0,1.43-.61,2.48,2.48,0,0,0,.57-1.77,2.54,2.54,0,0,0-.57-1.78,1.87,1.87,0,0,0-1.43-.61A1.9,1.9,0,0,0,387.72,846.65Z"/><path class="cls-6" d="M330.46,792.91A3,3,0,0,1,329.2,794a4.48,4.48,0,0,1-2,.42,4.75,4.75,0,0,1-2.94-.87,3.16,3.16,0,0,1-1.27-2.43h2.74a1.41,1.41,0,0,0,.43.94,1.33,1.33,0,0,0,.94.35,1.09,1.09,0,0,0,.78-.27,1,1,0,0,0,.29-.72.93.93,0,0,0-.27-.68,1.91,1.91,0,0,0-.65-.44q-.39-.18-1.08-.42a12.94,12.94,0,0,1-1.65-.67,3,3,0,0,1-1.1-1,2.81,2.81,0,0,1-.46-1.66,2.74,2.74,0,0,1,.49-1.64,3.07,3.07,0,0,1,1.33-1.06,4.73,4.73,0,0,1,1.94-.37,4.35,4.35,0,0,1,2.82.84,3.21,3.21,0,0,1,1.18,2.32h-2.78a1.49,1.49,0,0,0-.38-.84,1.17,1.17,0,0,0-.84-.3,1.09,1.09,0,0,0-.73.24.88.88,0,0,0-.27.7.91.91,0,0,0,.24.64,1.9,1.9,0,0,0,.63.43q.38.17,1.08.42a11.31,11.31,0,0,1,1.67.69,3.13,3.13,0,0,1,1.11,1,2.82,2.82,0,0,1,.47,1.69A2.86,2.86,0,0,1,330.46,792.91Z"/><path class="cls-6" d="M337.16,786.3a2.63,2.63,0,0,1,1,1.19V786h2.56v8.39h-2.56v-1.52a2.63,2.63,0,0,1-1,1.19,3,3,0,0,1-1.65.43,3.34,3.34,0,0,1-1.86-.52,3.52,3.52,0,0,1-1.3-1.49,5.81,5.81,0,0,1,0-4.58,3.58,3.58,0,0,1,1.3-1.49,3.42,3.42,0,0,1,1.86-.52A3,3,0,0,1,337.16,786.3ZM335,788.66a2.14,2.14,0,0,0-.5,1.5,2.17,2.17,0,0,0,.5,1.51,1.88,1.88,0,0,0,2.66,0,2.08,2.08,0,0,0,.52-1.49,2,2,0,0,0-.52-1.49,1.9,1.9,0,0,0-2.66,0Z"/><path class="cls-6" d="M350.13,786.84a3.89,3.89,0,0,1,.85,2.65v4.87h-2.57v-4.57a1.85,1.85,0,0,0-.45-1.32,1.55,1.55,0,0,0-1.18-.47,1.61,1.61,0,0,0-1.24.49,2.05,2.05,0,0,0-.46,1.42v4.45h-2.57V786h2.57v1.53a2.76,2.76,0,0,1,1.08-1.19,3.16,3.16,0,0,1,1.68-.43A2.91,2.91,0,0,1,350.13,786.84Z"/><path class="cls-6" d="M357.43,792.15v2.21h-1.16a3.35,3.35,0,0,1-2.29-.73,3.08,3.08,0,0,1-.82-2.41v-3.09H352V786h1.13v-2.06h2.57V786h1.68v2.16h-1.68v3.13a1,1,0,0,0,.2.69,1,1,0,0,0,.69.2Z"/><path class="cls-6" d="M363.71,786.3a2.59,2.59,0,0,1,1,1.19V786h2.55v8.39h-2.55v-1.52a2.59,2.59,0,0,1-1,1.19,3,3,0,0,1-1.65.43,3.39,3.39,0,0,1-1.86-.52,3.57,3.57,0,0,1-1.29-1.49,5.81,5.81,0,0,1,0-4.58,3.63,3.63,0,0,1,1.29-1.49,3.47,3.47,0,0,1,1.86-.52A3,3,0,0,1,363.71,786.3Zm-2.15,2.36a2.1,2.1,0,0,0-.51,1.5,2.12,2.12,0,0,0,.51,1.51,1.73,1.73,0,0,0,1.33.54,1.75,1.75,0,0,0,1.33-.56,2.13,2.13,0,0,0,.52-1.49,2.09,2.09,0,0,0-.52-1.49,1.9,1.9,0,0,0-2.66,0Z"/><path class="cls-6" d="M379,783.73v2h-4.36v2.33H378v2h-3.37v4.3h-2.58V783.73Z"/><path class="cls-6" d="M388.22,790.63h-5.81a2,2,0,0,0,.48,1.36,1.73,1.73,0,0,0,2.06.13,1.33,1.33,0,0,0,.49-.74h2.72a3.6,3.6,0,0,1-.72,1.59,3.83,3.83,0,0,1-1.41,1.09,4.41,4.41,0,0,1-1.91.4,4.49,4.49,0,0,1-2.19-.52,3.69,3.69,0,0,1-1.49-1.49,4.57,4.57,0,0,1-.55-2.29,4.64,4.64,0,0,1,.54-2.29,3.63,3.63,0,0,1,1.49-1.49,4.67,4.67,0,0,1,2.2-.52,4.61,4.61,0,0,1,2.2.51,3.55,3.55,0,0,1,1.46,1.44,4.25,4.25,0,0,1,.52,2.13A3.57,3.57,0,0,1,388.22,790.63Zm-3-2.32a1.64,1.64,0,0,0-1.14-.42,1.68,1.68,0,0,0-1.17.42,1.77,1.77,0,0,0-.53,1.24h3.28A1.54,1.54,0,0,0,385.26,788.31Z"/><path class="cls-6" d="M459.84,609.63a4.46,4.46,0,0,1,1.56,2.63h-2.47a2.33,2.33,0,0,0-.85-1,2.29,2.29,0,0,0-1.34-.38,2.06,2.06,0,0,0-1.66.75,3,3,0,0,0-.63,2,3,3,0,0,0,.63,2,2.06,2.06,0,0,0,1.66.75,2.28,2.28,0,0,0,2.19-1.42h2.47a4.47,4.47,0,0,1-1.56,2.62,4.74,4.74,0,0,1-3.06,1,4.88,4.88,0,0,1-2.48-.62,4.29,4.29,0,0,1-1.65-1.75,5.94,5.94,0,0,1,0-5.12,4.29,4.29,0,0,1,1.65-1.75,4.88,4.88,0,0,1,2.48-.62A4.79,4.79,0,0,1,459.84,609.63Z"/><path class="cls-6" d="M468.32,611.17a3.44,3.44,0,0,1,1.41,1.37,4.08,4.08,0,0,1,.51,2.08,4.14,4.14,0,0,1-.51,2.08,3.48,3.48,0,0,1-1.41,1.36,4.64,4.64,0,0,1-4.07,0,3.57,3.57,0,0,1-1.42-1.36,4.14,4.14,0,0,1-.51-2.08,4.08,4.08,0,0,1,.51-2.08,3.53,3.53,0,0,1,1.42-1.37,4.64,4.64,0,0,1,4.07,0Zm-3.16,2a2,2,0,0,0-.46,1.41,1.91,1.91,0,0,0,.46,1.39,1.5,1.5,0,0,0,1.13.48,1.47,1.47,0,0,0,1.12-.48,2,2,0,0,0,.45-1.39,2,2,0,0,0-.45-1.41,1.47,1.47,0,0,0-1.12-.48A1.5,1.5,0,0,0,465.16,613.21Z"/><path class="cls-6" d="M474.93,611.13a2.82,2.82,0,0,1,1.5-.41v2.5h-.67a2.26,2.26,0,0,0-1.44.4,1.57,1.57,0,0,0-.52,1.34v3.48h-2.34V610.8h2.34v1.44A3.33,3.33,0,0,1,474.93,611.13Z"/><path class="cls-6" d="M480.89,611.13a2.82,2.82,0,0,1,1.5-.41v2.5h-.67a2.28,2.28,0,0,0-1.45.4,1.59,1.59,0,0,0-.51,1.34v3.48h-2.34V610.8h2.34v1.44A3.24,3.24,0,0,1,480.89,611.13Z"/><path class="cls-6" d="M483.54,607.77a1.63,1.63,0,0,1,2,0,1.2,1.2,0,0,1,0,1.75,1.63,1.63,0,0,1-2,0,1.18,1.18,0,0,1,0-1.75Zm2.17,3v7.64h-2.34V610.8Z"/><path class="cls-6" d="M494.51,615h-5.3a1.8,1.8,0,0,0,.44,1.24,1.45,1.45,0,0,0,1,.38,1.42,1.42,0,0,0,.86-.26,1.22,1.22,0,0,0,.45-.67h2.48a3.27,3.27,0,0,1-.66,1.44,3.56,3.56,0,0,1-1.29,1,4.09,4.09,0,0,1-1.73.36,4.19,4.19,0,0,1-2-.47,3.42,3.42,0,0,1-1.36-1.36,4.68,4.68,0,0,1,0-4.17,3.3,3.3,0,0,1,1.36-1.36,4.19,4.19,0,0,1,2-.47,4.12,4.12,0,0,1,2,.47,3.25,3.25,0,0,1,1.34,1.31,3.91,3.91,0,0,1,.47,1.93A3,3,0,0,1,494.51,615Zm-2.7-2.11a1.49,1.49,0,0,0-1-.38,1.56,1.56,0,0,0-1.07.38,1.6,1.6,0,0,0-.48,1.13h3A1.39,1.39,0,0,0,491.81,612.93Z"/><path class="cls-6" d="M502.73,611.59a3.51,3.51,0,0,1,.77,2.41v4.44h-2.34v-4.17a1.65,1.65,0,0,0-.4-1.19,1.39,1.39,0,0,0-1.07-.43,1.45,1.45,0,0,0-1.13.45,1.81,1.81,0,0,0-.42,1.28v4.06H495.8V610.8h2.34v1.39a2.55,2.55,0,0,1,1-1.08,2.89,2.89,0,0,1,1.52-.39A2.64,2.64,0,0,1,502.73,611.59Z"/><path class="cls-6" d="M509.38,616.42v2h-1.06a3.07,3.07,0,0,1-2.09-.67,2.83,2.83,0,0,1-.74-2.2v-2.8h-1v-2h1v-1.88h2.34v1.88h1.53v2h-1.53v2.85a.88.88,0,0,0,.18.63,1,1,0,0,0,.63.17Z"/><path class="cls-6" d="M517.88,615h-5.3a1.75,1.75,0,0,0,.44,1.24,1.54,1.54,0,0,0,1.87.12,1.22,1.22,0,0,0,.45-.67h2.48a3.27,3.27,0,0,1-.66,1.44,3.45,3.45,0,0,1-1.28,1,4.1,4.1,0,0,1-1.74.36,4.15,4.15,0,0,1-2-.47,3.36,3.36,0,0,1-1.36-1.36,4.24,4.24,0,0,1-.5-2.08,4.19,4.19,0,0,1,.49-2.09,3.36,3.36,0,0,1,1.36-1.36,4.49,4.49,0,0,1,4,0,3.23,3.23,0,0,1,1.33,1.31,3.81,3.81,0,0,1,.47,1.93A3.7,3.7,0,0,1,517.88,615Zm-2.71-2.11a1.49,1.49,0,0,0-1-.38,1.56,1.56,0,0,0-1.07.38,1.65,1.65,0,0,0-.48,1.13h3A1.39,1.39,0,0,0,515.17,612.93Z"/><path class="cls-6" d="M524.26,611.43a3.16,3.16,0,0,1,1.09,1.91h-2.19a1.26,1.26,0,0,0-.43-.73,1.32,1.32,0,0,0-.84-.27.91.91,0,0,0-.61.18.6.6,0,0,0-.2.48.57.57,0,0,0,.37.54,7.2,7.2,0,0,0,1.19.35,13.28,13.28,0,0,1,1.44.42,2.41,2.41,0,0,1,1,.69,1.94,1.94,0,0,1,.41,1.29,2,2,0,0,1-.36,1.16,2.29,2.29,0,0,1-1,.79,3.89,3.89,0,0,1-1.59.29,4.14,4.14,0,0,1-2.48-.68,2.92,2.92,0,0,1-1.14-2h2.26a1,1,0,0,0,.42.75,1.52,1.52,0,0,0,.94.26.9.9,0,0,0,.6-.18.64.64,0,0,0,.21-.49.6.6,0,0,0-.38-.57,7.5,7.5,0,0,0-1.23-.36,11,11,0,0,1-1.39-.38,2.33,2.33,0,0,1-.95-.67A1.85,1.85,0,0,1,519,613a2,2,0,0,1,.78-1.66,3.35,3.35,0,0,1,2.2-.64A3.47,3.47,0,0,1,524.26,611.43Z"/></g></svg>