<svg xmlns="http://www.w3.org/2000/svg" viewBox="0 0 1113.64 765.23"><defs><style>.cls-1{fill:#bacfe4;}.cls-2{fill:#85937c;}.cls-3{fill:#66785b;}.cls-4{fill:#b3bbad;}.cls-5{fill:#8c9a84;}.cls-6{fill:#405632;}.cls-7{fill:#d9ddd6;}</style></defs><title>kaart yangtze</title><g id="Laag_6" data-name="Laag 6"><g id="Laag_4" data-name="Laag 4"><rect class="cls-1" width="1113.64" height="765.23"/></g></g><g id="Laag_1" data-name="Laag 1"><path class="cls-2" d="M543.37,681.16l-.06.37-.39,2.64-.65,4.35-.09.64-.29,1.93-5.49,36.83-3.31,22.21-1.26,8.41-1,6.69H445a9.31,9.31,0,0,1-2.15-1.24c-4.26-3.19-8.52-18.11-11.72-18.11s0,14.92-9.58,17a41.6,41.6,0,0,0-7.31,2.3H377.64a53.46,53.46,0,0,1,4.42-11.68,1.52,1.52,0,0,0,.16-.45c.47-2.31,3.94-20.34-.05-25.33-4.26-5.32-7.46-16-9.59-19.17s-2.13,5.32-7.45,2.13c-4.19-2.51,1.5-5.69,4.12-6.93a1.78,1.78,0,0,0,1-1.93c-2.83-16.43-19-11.44-19-13.51s-3.2-5.33-6.39-7.46C342.07,679,331,660.64,328.4,656.27v0l-.12-.2a1.76,1.76,0,0,1-.15-1.5l9.78-27.88h0l10.35-29.48v0L371,532.29a1.75,1.75,0,0,1,.39-.64L415,486.14l8.38-8.75a1.75,1.75,0,0,1,.92-.5,1.7,1.7,0,0,1,1.33.23l57,36.8h0l3.5,2.26,11.26,7.27h0l3.06,2,4.27,2.76,2.83,1.83,10.2,6.59a1.79,1.79,0,0,1,.79,1.19l1.37,7.85.66,3.84,11.59,66.65,3.64,20.93,7.57,43.52A1.75,1.75,0,0,1,543.37,681.16Z"/><path class="cls-3" d="M614.77,765.23H465.18c-.81-1.1-.65-3.17-1.31-6.48-1.06-5.33-1.06-7.46-4.26-10.66S449,737.44,446.83,734.25s0-5.33-2.13-8.53-5.33-4.26-5.33-7.45,7.46,5.32,7.46,0-1.07-5.33,2.13-10.66-3.2-3.19,2.13-11.71,8.52,0,12.78,0,4.26-3.2,9.59-3.2-3.2-7.46,3.2-6.39,5.85-.53,6.92-5.86,2.13,3.2,6.39,0,5.94-1.93,5.94-1.93h0l21.88,1.18,2.91.16,11,.59,1.24,1,2.5,2.09,1.65,1.37,3.09,2.57h0l1.16,1,.82.68,1.83,1.53h0l25.85,21.54,36.32,34.68Z"/><path class="cls-4" d="M635.19,753.73l8,11.5h-47.8c-1.26-2.94-.48-6-.48-11.81,0-9.59-2.13-12.78-7.46-17s-6.39-7.46-10.65-11.72-8.52-4.26-13.85-1.07-8.52,12.79-18.11,6.39c-4.14-2.76-6.29-3.14-8.43-2.06-2.82,1.39-5.61,5.28-12.87,9.52-12.79,7.46-9.59,1.07-8.52,0s4.26-10.65,2.13-14.91,1.06-3.2,3.19-8.52,2.13-7.46,0-11.72,1.07-7.46-7.46-5.33-10.65,1.07-8.52-7.46-2.13-9.58-6.39-9.58c-1.53,0-2.1-.55-2-1.4.08-1.52,2.13-4,4.17-6.06,3.2-3.2,5.33-2.13,6.39-8.52s11.72-7.46,11.72-7.46l2.9-6.22-6.44-34.11h42.07l8.82,9.89,1.67,1.88s0,0,0,0l2,2.29h0L581.9,644.4h0l2.7,3h0l1.58,1.77,2,2.29h0l19.66,22.07,1.7,40.94Z"/><path class="cls-4" d="M283.29,459.87l-2,26.39-.76,10.4-.61,8.22L278.86,520l-.45,6.09-1,12.94-.35,4.67-.85,11.57-1.86,25.29h0l-.11,1.52-4.72,64.07-4.08,4.18a1.66,1.66,0,0,1-.8.48,1.75,1.75,0,0,1-1.11,0c-2-.61-6.11-1.79-8.49-1.79-3.2,0-7.46,9.59-8.52-2.13s-7.46,0-9.59,2.13-6.39,2.13-13.85,5.33-4.26,8.52-4.26,12.78,1.06,5.33-4.26,12.79c-4.73,6.62-13.67,8.2-15.61,8.47a2.63,2.63,0,0,0-.77.23c-3.18,1.43-24.42,11.27-28.36,21.12-4.26,10.66-16,18.11-19.18,20.24s-21.3,16-24.5,17-2.13,6.39-2.13,9.59-1.06,8.52-7.46,7.45c-4-.66-8.36.33-11.63,1.16H0V286.87l-1.93-2.46H56.23Z"/><path class="cls-3" d="M339.27,639.29a.71.71,0,0,0,0,.29l2.1,9.44c2.13,9.59-1.07,12.79-4.27,9.59-2.59-2.6-3.78-1-4.14-.27a.67.67,0,0,1-.62.39c-.66,0-2.08-.57-4.82-3.31-4.26-4.27-3.2-7.46-3.2-17s-6.39-7.46-10.65-7.46-5.33,0-6.39-4.26-4.26-7.45-6.39-5.32-1.07,2.13-4.27,6.39,2.13,4.26,2.13,6.39,0,2.13-3.19,9.59-6.39,4.26-12.78,2.13,1.06,6.39-6.4,4.26c-5.8-1.66-9.66-.09-11.09.69a.68.68,0,0,1-1-.46,10.06,10.06,0,0,1,.36-4.49c1.06-4.26,0-5.33,0-8.52s-2.13-6.4-3.2-10.66,2.13-4.26,1.07-7.45,0-2.13-3.2-2.13,0-5.33,0-6.4-7.46-3.19-3.2-6.39,2.13-6.39,1.07-10.65-8.52-3.2-10.65-5.33-2.13-7.45,2.13-7.45,3.19-3.2,3.19-6.39,8.53-1.07,10.66-4.27-20.24-10.65-14.92-14.91a19.06,19.06,0,0,0,6.31-10.23.66.66,0,0,1,.52-.51l15.31-3a.7.7,0,0,1,.32,0l51.45,15.24a.76.76,0,0,1,.23.13l29.57,24a.67.67,0,0,1,.24.66Z"/><polygon class="cls-3" points="6.1 294.64 0 295.31 0 286.87 6.1 294.64"/><path class="cls-2" d="M1040.18,282.57c5.21,2.09,26.74,20.48,5.73,20.28a1.86,1.86,0,0,0-1.87,1.54,9,9,0,0,0,2.54,8c4.26,4.26,5.32,13.85,4.26,17s-3.2,2.13-3.2,6.39,1.07,2.13-2.13,7.46-3.2,3.2-4.26,7.46,3.2,12.78,11.72,12.78,12.78-6.39,18.11-7.46,18.11-12.78,27.69-8.52,13.85-18.11,11.72-25.56,1.07-22.37-2.13-25.57-14.91-22.37-14.91-22.37a89.45,89.45,0,0,0-6.64-11.41L1053,266.7Z"/><path class="cls-3" d="M616.74,699.62c-1.07,6.4-3.2,6.4-2.13,11.72s2.66,6.93,10.12,15.45,2.13,10.65,10.65,17c7,5.25,11.85,15.54,19.86,21.4H638.75c-.55-1.16.74-1.16-2.3-1.16-4.27,0-4.27,2.13-4.27-4.26S624.73,746,621.53,746s-6.39-4.26-7.45-8.52-5.33-11.72-10.66-11.72,3.2-10.65-1.06-10.65-26.63-7.46-24.5-11.72S575.73,697,580,695.9c0,0,12.78,1.06,13.85-4.27s6.39-3.19,4.26-5.32-4.26-6.39-8.53-7.46,0-4.26,1.07-6.39S584.25,665,580,667.13s-4.26,8.53-8.53,6.4-4.26,0-8.52-3.2-7.45-5.33-7.45-12.78-1.07-7.46-3.2-7.46-5.33-4.26-8.52-8.52l-3.2-4.26-4.31-20.59,1.12-.57,38.11-19.33,77.89,20.47,9.74,35.33s-7,8.65-14.42,12.92-5.33-1.07-9.59,3.19-2.13,6.39-6.39,11.72S621,685.78,618.87,691.1,617.8,693.23,616.74,699.62Z"/><path class="cls-4" d="M247.44,539l-2.28.67-5.34-9.24,5.34-25.95,55.49-27.91,113.59-21.32,23.53,50.52s2.13,5.32,3.2,6.39-4.18.15-8.52,4.26a2.59,2.59,0,0,0-1.06,2.87,36.06,36.06,0,0,1,1.06,3.52c2.13,8.52-.54,4.79-8,3.73s-12.79,0-18.11,5.32-8.52,6.4-12.79,10.66,0,6.39-2.13,12.78,1.07,7.46-4.26,11.72-8.52,2.13-5.32,7.46-6.4,17-8.53,23.43-11.71-4.26-14.91,0,1.07,13.85-1.07,19.18-8.52,3.19-8.52,7.45,7.46,9.59,3.2,14.92-6.39,4.26-9.59,2.13-4.26-2.13-4.26-10.66-2.13-6.39-3.2-12.78-2.13-17-9.58-8.52,0,12.78-3.2,12.78-9.59-1.06-9.59-5.32-2.13-11.72-1.06-13.85,2.13-2.13,7.46-5.33,8.52-2.13,10.65-6.39,2.13-10.65,5.32-10.65-2.13-4.26-6.39-5.33-40.48,1.07-43.67-3.2-3.2-17-4.26-18.11,0-4.26-5.33,2.14-9.59-14.92-10.65-10.66-2.13,8.52-10.66-1.06Z"/><path class="cls-3" d="M261.39,528.41c-.08,8.29,4.34,6.63,8.6,7.7s9.59,4.26,13.85,5.32,7.46-5.32,11.72-6.39,5.44,5.65,13.85,4.26c7.8-1.28,2.13-1.06,9.59-1.06s7.45,4.26,9.58-4.27c1.39-5.54.52-8.38-.26-9.69a1.87,1.87,0,0,0-1.69-.89c-8.49.42-5.44-8.12-5.44-8.12l2.72-18.61H275.78l-11.11,18.81Z"/><path class="cls-3" d="M247.44,539s4.44,7.78-3,7.78H233.77c-5.32,0-9.58-6.39-12.78-4.26s-10.65,2.13-13.85-1.07-4.26,4.26-8.52,1.07-3.2-6.39-9.59-3.2-2.13-8.52-6.39-6.39-7.46,3.2-8.52-4.26-3.2-2.13-7.46-3.2-5.33-4.26-7.46-2.13-3.19-2.13-10.65,0-8.52-2.13-10.65-3.19-5.33-4.26-8.52-3.2-5.33-4.26-8.53-4.26-8.52,1.06-17-6.39-10.65-10.65-14.91-9.59-7.46-1.06-8.53-3.2-1.06-4.26,1.07-8.52,0-6.39,2.13-9.59,3.9-8.81,13.14-14.52l10.44-18.07,138.34,70.94-1.06,13.85c-.71,9.17,0,9.47,3,11.4Z"/><polygon class="cls-5" points="93.62 185.07 33.4 249.52 0 246.71 0 144.36 73.68 143.09 81.87 160.34 88.94 175.21 93.62 185.07"/><path class="cls-6" d="M720.7,697.93a6,6,0,0,0-2.64-9.85c-2.13-.68-5.11-.86-9.18.36-10.65,3.19-12.78-1.07-16,2.13s-16,9.59-16,17,1.06,9.59,3.19,11.72,8.52,3.2,10.65,5.33,22.38-6.39,23.44-13.85,3.2-9.59,6.39-12.78Z"/><path class="cls-6" d="M943.24,574.46s-27.69,21.3-27.69,42.61,10.65,19.17,11.72,24.5,2.13,1.06,3.19-5.33,7.46-8.52,8.52-11.72,4.26-4.26,4.26-14.91,6.4-18.11,6.4-19.18,4.26-11.71,0-14.91S943.24,574.46,943.24,574.46Z"/><path class="cls-2" d="M1044.1,392a3.26,3.26,0,0,1,.53-5.34c2.63-1.41,7-3.18,10.47-1.79,5.32,2.13-2.13,4.26-4.26,5.32s-5.33,3.2-6.39,2.13Z"/><path class="cls-3" d="M1001.42,197.88,1113.64,155v54c-7.77,8.09-26.82,17.38-27.65,18.21-1.06,1.06-8.52,2.13-16,8.52s-2.13,13.85,6.39,17c3.71,1.39,7.41,5.59,10.41,9.9a27.07,27.07,0,0,1-9.87,8.75c-6.4,3.19-6.4-2.14-14.92-1.07s-9.59,5.33-9.59,11.72c0,6.11-10.48,1.35-11.4.93l0,0h0l0,0-.75-.35c-5.32-2.13-10.65-2.13-19.17-2.13s-5.33-13.85-2.13-14.91a4.66,4.66,0,0,0,3.19-4.26c0-8.53-1.06-7.46,3.2-12.79s0-6.39-4.26-9.59a28.73,28.73,0,0,0-16-5.32c-4.18,0-2.46.65-8.72.94l0-.31Z"/><path class="cls-3" d="M947.51,0,901.69,156.2l-418.4,87.36L88.94,175.21l-7.5-1.3s-11.72-5.32-19.18-8.52,2.14-7.46-10.65-7.46c-9.29,0-36.06-2.82-51.61-3.12V0Z"/><path class="cls-3" d="M919.06,765.23a126.12,126.12,0,0,0,2.74-21.47c.38-11.29.75-12.8,1.88-16.19s-.75-12,6.4-9.78a78.21,78.21,0,0,1,17.69,8.14c4.72,2.77,7.83-4.06,8.94-7.12a1.37,1.37,0,0,1,2.27-.5c1.06,1.11,1.91,3.62.45,9.26-2.52,9.74-2.57,12.91,3,18.79a3.48,3.48,0,0,1,.93,1.91c.43,3,1.39,11.49-.16,17Z"/></g><g id="Laag_2" data-name="Laag 2"><path class="cls-6" d="M1113.64.09V169.8c-2.61,0-6.16-1.21-8.47-1.21-4.27,0,1.06,6.39-6.4,9.58s-14.91,0-18.11,3.2,2.13,6.39,3.2,10.65-19.17,5.33-23.44-3.19-9.58-1.07-11.71,0-2.13,3.19-3.44,9-12.54,10.12-21.07,14.38c-5.15,2.58-10.7,5.94-14.28,8.19a17.59,17.59,0,0,0-5.41,5.35,33.55,33.55,0,0,1-6.72,7.54,5.55,5.55,0,0,1-1.44.86,5.26,5.26,0,0,1-1.8.37c-1.47,0-3.27.06-5.5.06-14.91,0-27.7,8.53-32,13.85s-5.32,7.46-16,9.59,0-4.26,5.33-8.52,1.07-5.33-3.2-5.33-4.26-3.19-3.19-5.33,4.26-2.13,4.26-5.32,3.2-2.13,5.33-3.2,10.65-8.52,9.58-13.85-3.19-6.39-6.39-8.52-5.32,1.07-12.78-1.06-8.52,3.19-13.85,13.84-10.65,6.4-17,7.46-10.66,9.59-12.79,16-13.85,9.59-21.3,6.39-7.46,0-11.72,5.33,0,10.65,4.26,14.91,10.65,4.26,18.11,3.2,6.39,3.19,7.46,5.32-7.46,13.85,2.13,18.11,19.17-5.32,22.37-9.58,10.65-9.59,16-4.26,25.56,7.45,28.76,7.45,3.19,0,4.26,3.2-3.2,2.13-3.2,5.33,0,8.52-3.19,6.39-6.39-2.13-8.52,0-6.4,2.13-11.72,2.13-12.78,4.26-12.78,10.65-5.33,4.26-10.66,6.39-14.91,16-19.17,22.37,2.13,10.65,7.45,11.72,9.59,5.33,12.79,7.46,1.06,4.26,2.13,8.52,3.19,5.33,5.32,9.59,2.14,5.32,5.33,8.52,0,7.46,3.2,11.72,6.39,2.13,8.52,6.39,3.19,5.32,8.52,10.65,2.13,8.52-5.33,4.26a28.17,28.17,0,0,0-10.6-3.73h0c-1.71-.16-2.59.1-2.14.55a8.17,8.17,0,0,1,1,1.59,1,1,0,0,0,.09.15c1.14,2.07,2.67,5.25,4.2,6.78,2.13,2.13,8.52,3.19,13.85,8.52s-5.33,7.46-11.72,9.59-8.52,5.32-11.72,7.46-5.33,0-5.33,2.13,4.27,3.19,9.59,1.06,8.52,0,11.72,3.2,3.2,2.13,8.52,1.06,8.52,3.2,3.2,5.33-2.13,13.85-4.26,14.91a7.2,7.2,0,0,0-4.26,6.39c0,3.2,0,6.4-6.4,11.72S918.74,534,918.74,534,907,551,906,556.35s-4.26,16-8.52,18.11c-2.33,1.16-4.34,2.32-5.68,3.14a7.36,7.36,0,0,0-2.63,2.74c-2.92,5.31-5.92,8-9.8,8-4.26,0-5.33,0-6.39,5.33s-9.59,13.85-16,14.91-11.72,6.4-17.05,13.85-26.63,6.39-28.76,4.26-4.26,4.26-9.59,3.2-8.52,20.24-16,6.39-6.39-1.06-7.45,3.2-6.39,4.26-10.66,5.32-5.32,5.33-10.65,6.39-7.46,0-11.72,0-3.19,1.07-12.78,3.2-17,6.39-20.24,9.59-4.26,3.19,0,8.52,3.2,4.26,1.07,6.39-5.33,2.13-10.66,0-5.32-8.52-4.26-18.11-4.26-4.26-11.72-3.19-7.45-5.33-12.78-5.33c-4.31,0-6.53.7-10.61.4-1-.07-2-.19-3.24-.4-6.39-1.07-13.85,6.39-16-1.07s-6.39-6.39-10.65-7.45-5.33-5.33,0-11.72,4.26-4.26-2.13-6.39-10.65-2.13-19.18-5.33-6.39-5.32-14.91,2.13-8.52,5.33-14.91,5.33-3.2,4.26-10.66,3.19a6.46,6.46,0,0,1-2.17-.67h0a4.36,4.36,0,0,1-2-2.29s0,0,0,0c-.61-1.48-.49-2.77-1.67-1.88a21.37,21.37,0,0,0-2.61,2.74c-6.39,7.46-8.52,3.2-14.91-2.13s-6.39,7.46-7.46,10.66c-.33,1-2.36.53-4.78-.23-5.26-1.64-12.38-4.61-8,3.42a23.46,23.46,0,0,1,1.54,20.28,2.54,2.54,0,0,1-1.52,1.42c-4.58,1.57-6.63.24-9.61-5.72-3.19-6.39-2.13-7.46-7.46-2.13s-11.71-1.06-16-2.13,3.2-6.39-5.32-8.52-13.85-2.13-11.72-5.33,3.2-4.26,3.2-9.59,4.26-4.26,2.13-8.52-11.72,1.07-10.66-3.19-3.19-6.4-5.32-10.66,2.13-5.32,2.13-7.45-10.65-5.33-18.11,1.06-11.72,1.07-6.39-1.06-1.07-7.46-2.13-11.72,4.26-3.2,4.26-7.46,0-6.39,5.32-6.39,1.07-5.33,2.13-8.52,7.46,5.32,7.46,0,2.13-3.2,4.26-6.39-1.06-2.13,1.07-5.33,1.06-10.65,1.06-19.18-2.13-22.37-6.39-16c-3.41,5.11-4.09,2.72-4.23,1.56a10.46,10.46,0,0,0-.19-1.23c-4.29-18.47-11.61-19.51-15.82-19.51s-1.06,6.39-3.19,7.46l-.27.12h0c-1.69.63-.24-2.26-10.39-2.26-10.65,0-3.19,0-9.58-11.72-1.35-2.47-2.28-4.57-3-6.29-2.86-6.44-3.53-7.72-16.14-4.36-16,4.26-8.52-9.59-21.3-2.13s-22.38,16-28.77,18.11-9.58,13.84-21.3,18.11c-3.76,1.37-5.43.76-6.33-.59h0c-1.89-2.86-.29-9-7.52-6.86-10.65,3.19-8.52,1.06-17.05,2.13s-1.06-4.26-12.78-6.39a6,6,0,0,0-3.87.73c-8.87,4.65-17.36,27.62-18.58,23.53a16.57,16.57,0,0,1,.08-5.09c2.13-20.24-7.46-13.85-7.46-13.85a77.22,77.22,0,0,1-8.75,4.14c-.7.28-1.42.55-2.15.82-6.65,2.36-14.48,3.81-17.86-.7-6.39-8.52-10.65-4.26-13.85-1.06s-4.26-4.26-6.39-5.33,0,3.2-2.13,6.39-4.26-8.52-7.46-8.52-9.58,0-11.71-2.13,3.19-7.45,1.06-6.39c-1.41.71-5.62.94-8.3,1a9.35,9.35,0,0,1-7.94-3.85c-4.4-6.21-2.45-16.47-8.26-13.15-7.46,4.26-8.52,2.13-12.78-1.06s-2.13-5.33-7.46-6.4-9.59-6.39-13.85-7.45-10.65-17.05-17-9.59-9.59,9.59-10.66,7.46a11.76,11.76,0,0,0-1.77-2.81c-1.17-1.33-3.08-2.81-6.75-4.65-6.39-3.2-9.59-8.52-11.72-11.72s-7.45,1.07-13.84-3.19-3.2-6.4-5.33-8.53-12.78,8.53-8.52,0-1.07-13.84-6.39-20.24,3.19-14.91,7.45-6.39,9.59,2.13,10.65,2.13,6.4-3.19,6.4-6.39-5.33-7.46-9.59-10.65-3.2-4.26-4.26-10.65,3.19-5.33,7.45-7.46,5.33-8.52,4.27-11.72S70.79,355,74,353.94s4.26-6.39,5.33-7.45,2.13-4.26,3.19-10.66-4.26-3.19-4.26-6.39-11.71-6.39-13.84-5.32-10.66,4.26-16,4.26S35.63,335.83,33.5,338,25,336.9,21.78,336.9,17.52,328.38,9,327.31a20.14,20.14,0,0,1-9-4.07V286.87l-1.93-2.46H0V218.15c3.54.66,6.87,1.57,6.87-3.76,0-8.52,6.39-10.65,10.65-11.71s21.31,1.06,22.37-2.14c.92-2.75,5.79-6.29,7.12-7.22a6.58,6.58,0,0,1,.67-.4L73.54,180a3.71,3.71,0,0,1,2.81-.23c2.29.74,6.69,1.34,5.09-5.85a30,30,0,0,1-.67-11.42,4,4,0,0,1,1.1-2.15,4.05,4.05,0,0,1,1.5-1c9-3.43,3.27-2.67,1.27-5.68-2.14-3.19,3.19-2.13,7.45-3.19s0-2.13-1.06-5.33a10.61,10.61,0,0,1-.38-4.62,5.46,5.46,0,0,0-.76-3.55c-2.81-4.56-9.53-16.73-5.25-22.72,4-5.59.79-5.79-1-5.54a14.87,14.87,0,0,1-3.59,0c-13-1.38,1.42-7.09,6.32-8.87a4.9,4.9,0,0,1,2.76-.18c7.36,1.65,17.15-2.59,21.28-4.64a3.67,3.67,0,0,1,3.41,0c3.78,2.13,10.28,2.13,10.28,2.13,8,.67,9.32-1.16,9.2-2.63a2.45,2.45,0,0,0-1.6-2c-10.57-4.14-6.53-8.17-6.53-8.17A147.22,147.22,0,0,0,136.83,57.8c5.33-16,7.46-12.78,12.79-9.59s18.11,2.13,22.37,2.13,5.32,5.33,7.45,5.33,4.27-5.33,11.72-6.39c6.51-.93,3.29-17.26,2.36-21.42a12.09,12.09,0,0,1-.3-2.55c-.14-12.26,10-12.34,18.18-14.38C217,9.53,218,5.41,218,2.72a2.5,2.5,0,0,1,2.5-2.45h15.93a2.57,2.57,0,0,1,2,1,9.29,9.29,0,0,0,3,2,5,5,0,0,1,2.81,4.29c.19,4.08,2.86,3.34,5.52,3.34,3.2,0,4.26,4.26,11.72,10.65a15.3,15.3,0,0,0,12.16,3.87,7.75,7.75,0,0,1,5.2,1.27c1.48,1,3.38,1.79,5,1.25,2.73-.91,9.32,7.48,11.21,10a2.56,2.56,0,0,1,.51,1.53A7,7,0,0,0,297,43.7l5,6.64s7.46,9.59,5.33,10.65c-1.41.71-1.89,4.66-2,7.27a6.31,6.31,0,0,0,.83,3.63,8.26,8.26,0,0,1,1.3,4.39,5.33,5.33,0,0,1-3,4.67c-5.3,2.69-4.82,6.76-3.53,9.65a9.62,9.62,0,0,0,4.56,4.71,72.76,72.76,0,0,0,31.67,7.23c12.08,0,18.47.76,21.66,1.37a10.23,10.23,0,0,1,4.44,2c4.15,3.28,15.21,11.93,18.65,13.64,3.12,1.56,9.66,3.12,12.95,3.85a2.5,2.5,0,0,1,2,2.45,3.43,3.43,0,0,0,.88,2.3,3.6,3.6,0,0,0,2.2,1.16c2.25.3,2.25.9,2.25.9s10.65,34.09,22.37,30.89c10.55-2.88,26.29.29,29.31,1,.37.08.73.14,1.11.19,3.92.45,26.59,2.93,43.08,1,18.11-2.13,32,2.13,36.22,6.39a28.91,28.91,0,0,0,5.07,4.11,9.59,9.59,0,0,0,4,1.38c3.85.43,13.56,1.8,18.61,5.16,6.39,4.27,20.24,4.27,23.43,3.2s10.66,6.39,14.92,5.33,11.71-8.53,21.3-12.79,21.31-6.39,24.5-7.45,33,0,40.48,0,22.37-5.33,26.64-10.66c2.69-3.36,6.23-7.15,8.47-9.49a10.79,10.79,0,0,1,4.91-2.85A37.47,37.47,0,0,0,742.61,136a2.49,2.49,0,0,0,.67-1.33c.19-1.31-.2-3.95-4.57-7.59-6.39-5.33-6.39-10.65,0-21.3,5.24-8.74,21.23-1,26.81,2.07a12,12,0,0,0,4.87,1.44c5.58.42,17.55.29,21.59-7.78,5.32-10.65,9.58-9.58,9.58-9.58,14.26,4,25.57-3.27,30.44-7.24a8.89,8.89,0,0,0,3.07-4.83c1-4.44,4-13.23,11.23-12.43a48.89,48.89,0,0,0,8.73.41,2.34,2.34,0,0,0,2.12-2c1.23-8.26,4.3-1.6,8.33-1.6,4.26,0,2.13-2.13,9.59-4.26,5.94-1.7,14.58-.69,17.85-.21a23.52,23.52,0,0,1,2.36.49c21.2,5.64,17-8.85,12.81-12s-14.91-14.91-19.17-17-6.4-6.4-9.59-7.46c-2.52-.84-9-.36-11.65-.11a2.52,2.52,0,0,0-1.8,1c-7,9.54-11,6.54-11,6.54-11.72-6.4-16-3.2-23.44-1.07s-8.52,1.07-11.72-4.26c-2.36-3.94,1.11-6.72,3.07-7.89a2.49,2.49,0,0,0,1.19-2.14v-6c0-.85,4.38-6.74,6.17-9.12a2.5,2.5,0,0,1,2-1L1040.78,0Z"/><path class="cls-1" d="M934.77,422.65h0c-.56-.28-6.07-4.25-10.66-4.25-1.36,0-3.32.11-5.4.22-3.13.16-8.29.44-9.59.1l-.55-.69c-1.65-2.11-4.72-6-9-6-.94,0-2-.12-3.18-.24-4-.43-9-1-11.95,3-1.35,1.8-2.61,4.92-3.94,8.23-1.58,3.94-4,9.89-5.82,10.35-5.72,1.44-9.66,4.23-11.69,8.3-1.37,2.73-3.25,4-5.85,5.69-1,.65-2.09,1.38-3.27,2.27a29.17,29.17,0,0,1-3.59,2.23c-2.38,1.31-4.64,2.56-5.53,6.11-.66,2.65-4.35,5.14-6.33,6.48a12,12,0,0,0-1.75,1.29c-.73.63-6.49,2.7-12.47,1.7-3.93-.66-12.43-8.29-18.51-14.62-.35-.37-.69-.73-1-1.12-.94-1.08-4.34-4.53-8.82-3.41l-.71.17c-4.26,1.05-10.09,2.49-10.09,7.77,0,2.72,1.1,3.75,2.3,4.47h0c0,.08-.05.19-.1.34-.35,1.07-3.18,3.33-8.69,6a15.14,15.14,0,0,0-2.8,1.73,80.76,80.76,0,0,0-7.29,6.57c-2,2-2.73,1.79-2.74,1.78-.31-.13-.93-1.43-.93-3.85a5.7,5.7,0,0,0-3.32-5.31,4.21,4.21,0,0,0-4.73,1c-.4.39-1.43.25-2.36-.32s-1.66-1.48-1.39-2.31c.83-2.47-1.09-5.62-5.7-9.34a5.76,5.76,0,0,0-3.52-1.3c-4.51-.11-6.89-.54-7.56-.88a37.23,37.23,0,0,1-4.31-4.22c-3.77-4-6.6-6.89-8.68-7.58-3.8-1.27-19.93-4.33-29.62-2.18a45.37,45.37,0,0,1-9.64.67s-.1,0-.11,0c-6.9,0-14,0-14.92,7.08-.53,4.25-2.07,5.24-4,6.5a9.74,9.74,0,0,0-4.39,4.83c-1.3,3.24-3.44,4.64-5.51,6a16.66,16.66,0,0,0-2.66,2c-.33.33-.63.66-.93,1-1.57,1.7-2.29,2.48-5,1.8l-.85-.22c-3.8-1-8.11-2.06-9.57,2.33-.6,1.79-8.3,6.85-11.2,8.76a28.52,28.52,0,0,0-3.33,2.33c-.15.15-.32.35-.54.6-1.28,1.52-3.93,4.66-10,3.4a5.78,5.78,0,0,0-2.62,0,8.6,8.6,0,0,0-3.58,1.92,2.73,2.73,0,0,1-2.15.76c-5-.56-11.45-.44-13.32,3.3-.74,1.49-4.06,1.14-6.72.85-2.89-.3-5.39-.56-6.83.87s-1.53,3.38-1.53,4.86c0,1.28,0,2-.6,2.6a4.9,4.9,0,0,1-2.25.75c-1.37.25-3.09.56-4.07,2a5.14,5.14,0,0,0-.51,4,7.3,7.3,0,0,1-2.51,6.88c-.42.28-10.3,7-10.3,14.11a12.33,12.33,0,0,0,2.07,7.36,5.44,5.44,0,0,1,1.12,3.29,7.53,7.53,0,0,1-3.89,6,2.5,2.5,0,0,1-3-.72,4.41,4.41,0,0,0-3.6-1.53c-2.27.23-3.74,2.45-5.15,4.59-.76,1.15-1.8,2.73-2.47,3l-.42.14a6.51,6.51,0,0,1-2.14.52s-.66-.54-.66-4.47c0-4.68-2.28-6.52-3.65-7.2-2.68-1.34-6.43-.69-9.56,1.66a28.27,28.27,0,0,0-2.67,2.31c-.43.41-.83.81-1.21,1.19-2.32,2.32-3.74,3.64-5.82,3.64a21.9,21.9,0,0,0-2.54.2c-1.85.22-3.6.43-4.49-.43-.65-.64-1.35-2.29-1-6.55a67.53,67.53,0,0,1,2.4-12.72c.09-.33.18-.65.26-1,.66-2.47,1-4.36.46-6.15-.35-1-.7-2.22-1.05-3.38a45.72,45.72,0,0,0-2.23-6.42,2.2,2.2,0,0,0-2.5-1.25c-2.46.58-4.79,6.39-4.79,8.36,0,.54,0,1.34-.05,2.27h0c-.1,2.34-.48,5.5-1.81,7.49-.18.27-.52.69-.84.7s-2.25-.51-6-8a25.59,25.59,0,0,1-2.62-7.48c-.13-.75-.2-1.43-.27-2.08a14.24,14.24,0,0,0-1.37-5.35c-.21-.42-.43-.84-.66-1.28a46,46,0,0,1-5.57-18.41c-.58-5.74-1.15-9.9-1.56-12.93-.33-2.4-.57-4.14-.57-5,0-7.2-.37-12.34-1.11-15.3a23.72,23.72,0,0,1-.55-3.46,18,18,0,0,0-2.83-8.69l-.48-.8c-1.39-2.32-3.31-5.49-3-6.2a1.12,1.12,0,0,1,.48-.25,3.92,3.92,0,0,0,2.71-3.6,8.26,8.26,0,0,0-2.13-5.67,17.86,17.86,0,0,1-3.44-5.6s0,0,0-.05c-1.62-4.16-3.45-8.87-6.5-10.4-1.11-.55-2.54-1.16-4.06-1.82-3.32-1.42-9.48-4.06-10.05-5.77-.89-2.66-8.61-16-13.23-16-.86,0-4.14-2.27-9.75-8.14a12.34,12.34,0,0,0-5.08-3.18c-3.71-1.22-6.45-2.69-7.28-3.95-2.09-3.13-15.23-15.62-19.44-15.62a6.38,6.38,0,0,1-2.48-1c-2.33-1.29-5.84-3.23-10.24.29a6.79,6.79,0,0,1-5.67,1.62c-1.32-.13-3.55-.34-4.43,2.32-1.77,5.3-4.91,5.3-5.94,5.3-.82,0-1.68,0-2.55-.08-3.06-.15-6.21-.3-8.58,1.11a10.39,10.39,0,0,1-10,.35,7.65,7.65,0,0,0-7.32-.15,9.92,9.92,0,0,1-4.51.89,5.19,5.19,0,0,1-2.32-.5h0c-3.48-1.64-10.7-5.06-29-1.58a1.6,1.6,0,0,0-1.2,2.13,1.67,1.67,0,0,0,1.9,1c17.16-3.26,23.73-.14,26.89,1.35a6.1,6.1,0,0,0,2.54.83,15,15,0,0,0,7.1-1.24,4.44,4.44,0,0,1,4.47.15,13.57,13.57,0,0,0,13-.46c1.54-.92,4.21-.79,6.8-.67.92,0,1.83.09,2.7.09,4.23,0,7.34-2.59,9-7.49a1.14,1.14,0,0,1,.08-.2,6.44,6.44,0,0,1,1,.05,9.94,9.94,0,0,0,8-2.3c2.73-2.18,4.48-1.22,6.69,0a8.46,8.46,0,0,0,4,1.41c2.33.17,14.46,10.71,16.79,14.2,1.45,2.18,4.93,3.83,8.2,5a12.78,12.78,0,0,1,5,3.17c5.49,5.69,9.36,8.57,11.49,8.56,2.17.28,9.08,10.4,10.23,13.83.95,2.85,5.5,5,11.82,7.7,1.47.63,2.87,1.23,3.89,1.74,1.95,1,3.68,5.44,4.95,8.7,1.41,3.61,2.2,5.53,3.57,6.22a4.86,4.86,0,0,1,1.81,3.71c0,.59-.28.71-.53.8a3.64,3.64,0,0,0-2.46,2.17c-.82,2.21.8,4.89,3.25,9l.47.79a15,15,0,0,1,2.39,7.38,26.51,26.51,0,0,0,.63,3.91c.46,1.85,1,5.88,1,14.52a48.93,48.93,0,0,0,.59,5.45c.41,3,1,7.14,1.55,12.82A49.28,49.28,0,0,0,481,508.93l.64,1.26a10.38,10.38,0,0,1,1,3.73h0c0,.17,0,.34.05.52a27.25,27.25,0,0,0,3.21,10.65c3.24,6.48,6,9.58,8.65,9.75a4.1,4.1,0,0,0,3.7-2.12,16.18,16.18,0,0,0,2.21-7.29,39.84,39.84,0,0,0,.18-4.25,12.18,12.18,0,0,1,1.77-4.42c.49,1.29,1,3,1.5,4.64.36,1.2.72,2.4,1.08,3.48a6.44,6.44,0,0,1-.26,3.31c-.14.58-.32,1.23-.51,1.95a70.08,70.08,0,0,0-2.5,13.27c-.42,4.56.19,7.46,1.91,9.13,2,1.93,4.82,1.59,7.1,1.31a20,20,0,0,1,2.16-.18c3.32,0,5.48-2,7.69-4.18l.39-.39a32.41,32.41,0,0,1,3.54-3.2c2.1-1.58,4.66-2.14,6.21-1.36s1.88,2.79,1.88,4.34c0,4,.58,6.05,2,7.07a3.29,3.29,0,0,0,2,.61,10.1,10.1,0,0,0,3.06-.7l.41-.14c1.72-.57,2.89-2.34,4.12-4.22.82-1.23,2-3.09,2.81-3.17a1.64,1.64,0,0,1,1,.61,5.65,5.65,0,0,0,6.45,1.41,10.57,10.57,0,0,0,5.87-8.93,8.66,8.66,0,0,0-1.59-5,9.15,9.15,0,0,1-1.61-5.69c0-4.53,6.41-9.8,8.95-11.51a10.5,10.5,0,0,0,3.81-10.11c-.23-1.12,0-1.5,0-1.59.22-.34,1.16-.51,2-.66a7,7,0,0,0,3.94-1.63c1.53-1.54,1.53-3.38,1.53-4.86,0-1.28,0-2,.59-2.59.49-.35,2.84-.1,4.24,0,3.65.39,8.19.87,9.92-2.6.77-1.54,4.74-2.15,10.11-1.55a5.89,5.89,0,0,0,4.63-1.56,5.38,5.38,0,0,1,2.24-1.2,2.61,2.61,0,0,1,1.18,0c8,1.65,11.73-2.79,13.14-4.46.15-.17.26-.31.34-.39.27-.24,1.63-1.14,2.84-1.94,7.48-4.92,11.68-8,12.48-10.42.44-1.32,1.35-1.36,5.76-.24l.86.22c4.55,1.14,6.45-.92,8.13-2.73.26-.29.54-.59.84-.89a14.66,14.66,0,0,1,2.15-1.58c2.13-1.39,5.05-3.29,6.73-7.48a6.67,6.67,0,0,1,3.15-3.32c2.12-1.37,4.75-3.07,5.47-8.79.48-3.88,4-4.28,11.75-4.28h1.6a58.52,58.52,0,0,0,9.88-.95c9.06-1.57,23.53,1.17,26.88,2.29,1.48.49,5,4.25,7.36,6.74,2.6,2.76,4.12,4.34,5.21,4.89,1.39.69,4.39,1.1,8.92,1.21a2.61,2.61,0,0,1,1.58.6c3.81,3.07,4.89,5.21,4.68,5.84-.72,2.16.38,4.58,2.74,6s4.81,1.35,6.3-.14a1.05,1.05,0,0,1,1.25-.3,2.51,2.51,0,0,1,1.35,2.36c0,2.1.37,5.76,2.9,6.81s5.33-1.6,6.22-2.48a78.09,78.09,0,0,1,7-6.31A12,12,0,0,1,780,469.9c6.1-2.94,9.58-5.59,10.34-7.86.81-2.44-.21-3.45-1.31-4.11-.48-.28-.74-.44-.74-1.72,0-2.58,3.17-3.56,7.66-4.66l.71-.18c2.71-.68,5,1.67,5.63,2.4.37.43.75.84,1.14,1.24,4.18,4.36,14.53,14.6,20.28,15.56,6.73,1.12,13.7-1,15.24-2.58a15.32,15.32,0,0,1,1.29-.91c2.5-1.69,6.69-4.51,7.65-8.35.56-2.21,1.77-2.88,4-4.09a33.38,33.38,0,0,0,4-2.48c1.1-.83,2.12-1.5,3.11-2.16,2.79-1.83,5.19-3.42,6.94-6.92,1.6-3.2,4.84-5.43,9.61-6.63,3.42-.85,5.65-6.39,8-12.26,1.19-3,2.43-6,3.53-7.5,1.88-2.52,5.52-2.13,9-1.75a34.58,34.58,0,0,0,3.52.26c2.68,0,5.13,3.11,6.44,4.79a14.07,14.07,0,0,0,1,1.13c1.08,1.08,3.64,1.11,11.88.68,2-.11,3.95-.21,5.23-.21,3.63,0,9.5,3.07,9.56,3.19a1,1,0,0,0,.09.15c.57.8,1.51.32,2-.34A1.33,1.33,0,0,0,934.77,422.65Z"/><circle class="cls-7" cx="943.63" cy="441.07" r="3.19"/><circle class="cls-7" cx="878.03" cy="414.21" r="2.44"/><circle class="cls-7" cx="712.91" cy="435.26" r="2.44"/><circle class="cls-7" cx="843.52" cy="214.11" r="3.19"/><circle class="cls-7" cx="790.38" cy="635.23" r="3.19"/><path class="cls-7" d="M711.41,612v4.38h-4.28V612H704.4v11.29h2.73v-4.71h4.28v4.71h2.75V612Z"/><path class="cls-7" d="M724.22,616.45a4.11,4.11,0,0,0-1.64-1.59,5.4,5.4,0,0,0-4.75,0,4.1,4.1,0,0,0-1.66,1.59,5.28,5.28,0,0,0,0,4.85,4,4,0,0,0,1.66,1.59,5.4,5.4,0,0,0,4.75,0,4,4,0,0,0,1.64-1.59,5.2,5.2,0,0,0,0-4.85Zm-2.7,4.06a1.85,1.85,0,0,1-2.63,0,2.27,2.27,0,0,1-.54-1.63,2.3,2.3,0,0,1,.54-1.64,1.8,1.8,0,0,1,2.63,0,2.34,2.34,0,0,1,.52,1.64A2.31,2.31,0,0,1,721.52,620.51Z"/><path class="cls-7" d="M734.33,615.35a3.11,3.11,0,0,0-2.44-1,3.35,3.35,0,0,0-1.78.46,3,3,0,0,0-1.14,1.26v-1.63h-2.73v8.91H729v-4.72a2.1,2.1,0,0,1,.49-1.5,1.86,1.86,0,0,1,2.57,0,2,2,0,0,1,.47,1.4v4.85h2.73v-5.17A4.11,4.11,0,0,0,734.33,615.35Z"/><path class="cls-7" d="M743.26,614.42V616a2.74,2.74,0,0,0-1.09-1.26,3.2,3.2,0,0,0-1.75-.47,3.71,3.71,0,0,0-2,.55,3.94,3.94,0,0,0-1.37,1.58,6.15,6.15,0,0,0,0,4.86,3.78,3.78,0,0,0,1.37,1.59,3.62,3.62,0,0,0,2,.55,3.19,3.19,0,0,0,1.75-.46,2.84,2.84,0,0,0,1.09-1.26v1.56a2,2,0,0,1-.52,1.56,1.9,1.9,0,0,1-1.37.49,2,2,0,0,1-1.18-.31,1.34,1.34,0,0,1-.59-.84h-2.69a3.91,3.91,0,0,0,1.44,2.58,5.08,5.08,0,0,0,3.22,1,4.75,4.75,0,0,0,2.45-.59,3.75,3.75,0,0,0,1.47-1.59,5.15,5.15,0,0,0,.48-2.25v-8.86Zm-.55,6a1.86,1.86,0,0,1-1.41.59,1.83,1.83,0,0,1-1.42-.58,2.26,2.26,0,0,1-.53-1.59,2.29,2.29,0,0,1,.53-1.6,2,2,0,0,1,2.83,0,2.56,2.56,0,0,1,0,3.17Z"/><path class="cls-7" d="M760.92,612h-3.28l-3.86,5v-5h-2.73v11.29h2.73v-5.06l3.83,5.06h3.31l-4.55-5.76Z"/><path class="cls-7" d="M770.25,616.45a4.07,4.07,0,0,0-1.65-1.59,5.05,5.05,0,0,0-2.37-.55,5.18,5.18,0,0,0-2.38.55,4.07,4.07,0,0,0-1.65,1.59,5.2,5.2,0,0,0,0,4.85,4,4,0,0,0,1.65,1.59,5.06,5.06,0,0,0,2.38.55,4.93,4.93,0,0,0,2.37-.55,4,4,0,0,0,1.65-1.59,5.2,5.2,0,0,0,0-4.85Zm-2.71,4.06a1.73,1.73,0,0,1-1.31.55,1.77,1.77,0,0,1-1.32-.55,2.32,2.32,0,0,1-.53-1.63,2.34,2.34,0,0,1,.53-1.64,1.75,1.75,0,0,1,1.32-.57,1.71,1.71,0,0,1,1.31.57,2.34,2.34,0,0,1,.53,1.64A2.32,2.32,0,0,1,767.54,620.51Z"/><path class="cls-7" d="M780.35,615.35a3.08,3.08,0,0,0-2.43-1,3.32,3.32,0,0,0-1.78.46,2.89,2.89,0,0,0-1.14,1.26v-1.63h-2.73v8.91H775v-4.72a2.15,2.15,0,0,1,.48-1.5,1.7,1.7,0,0,1,1.32-.53,1.64,1.64,0,0,1,1.25.5,2,2,0,0,1,.47,1.4v4.85h2.73v-5.17A4.11,4.11,0,0,0,780.35,615.35Z"/><path class="cls-7" d="M789.28,614.42V616a2.66,2.66,0,0,0-1.08-1.26,3.23,3.23,0,0,0-1.76-.47,3.67,3.67,0,0,0-2,.55,3.79,3.79,0,0,0-1.37,1.58,6.15,6.15,0,0,0,0,4.86,3.64,3.64,0,0,0,1.37,1.59,3.59,3.59,0,0,0,2,.55,3.23,3.23,0,0,0,1.76-.46,2.76,2.76,0,0,0,1.08-1.26v1.56a2.06,2.06,0,0,1-.51,1.56,1.92,1.92,0,0,1-1.37.49,2,2,0,0,1-1.19-.31,1.33,1.33,0,0,1-.58-.84h-2.7a3.88,3.88,0,0,0,1.45,2.58,5,5,0,0,0,3.21,1,4.77,4.77,0,0,0,2.46-.59,3.75,3.75,0,0,0,1.47-1.59,5.15,5.15,0,0,0,.48-2.25v-8.86Zm-.55,6a2,2,0,0,1-2.82,0,2.22,2.22,0,0,1-.54-1.59,2.25,2.25,0,0,1,.54-1.6,1.85,1.85,0,0,1,1.41-.57,1.83,1.83,0,0,1,1.41.58,2.56,2.56,0,0,1,0,3.17Z"/><path class="cls-7" d="M788.35,192.6a3.45,3.45,0,0,0-2-1.21,3,3,0,0,0,1.72-1.07,3.18,3.18,0,0,0,.66-2.06,3.11,3.11,0,0,0-1.14-2.59,5.08,5.08,0,0,0-3.24-.91h-6.21v13.68h6.37a5.08,5.08,0,0,0,3.36-1,3.38,3.38,0,0,0,1.17-2.74A3.22,3.22,0,0,0,788.35,192.6Zm-6.86-5.19h2.13c1.17,0,1.76.49,1.76,1.47s-.57,1.47-1.72,1.47h-2.17Zm2.36,8.34h-2.36v-3.08h2.34a2.07,2.07,0,0,1,1.38.42,1.44,1.44,0,0,1,.48,1.15C785.69,195.25,785.08,195.75,783.85,195.75Z"/><path class="cls-7" d="M801.08,192.75a5.45,5.45,0,0,0-.67-2.74,4.62,4.62,0,0,0-1.89-1.85,5.82,5.82,0,0,0-2.82-.66,5.94,5.94,0,0,0-2.83.67,4.67,4.67,0,0,0-1.92,1.92,6.63,6.63,0,0,0,0,5.89,4.84,4.84,0,0,0,1.93,1.93,5.88,5.88,0,0,0,2.82.67,5.68,5.68,0,0,0,2.46-.52,5,5,0,0,0,1.82-1.41,4.62,4.62,0,0,0,.92-2h-3.5a1.73,1.73,0,0,1-.64.95,2,2,0,0,1-1.22.36,2,2,0,0,1-1.43-.53,2.52,2.52,0,0,1-.62-1.75H801A4.18,4.18,0,0,0,801.08,192.75Zm-7.57-.5a2.26,2.26,0,0,1,.68-1.59,2.17,2.17,0,0,1,1.51-.54,2.11,2.11,0,0,1,1.46.53,2,2,0,0,1,.57,1.6Z"/><path class="cls-7" d="M802.8,187.64v10.8h3.31v-10.8Zm3.1-4.29a2.35,2.35,0,0,0-2.87,0,1.63,1.63,0,0,0-.54,1.25,1.6,1.6,0,0,0,.54,1.23,2.35,2.35,0,0,0,2.87,0,1.6,1.6,0,0,0,.54-1.23A1.63,1.63,0,0,0,805.9,183.35Z"/><path class="cls-7" d="M811.51,183.35a2.33,2.33,0,0,0-2.86,0,1.64,1.64,0,0,0-.55,1.25,1.61,1.61,0,0,0,.55,1.23,2.33,2.33,0,0,0,2.86,0,1.6,1.6,0,0,0,.54-1.23A1.63,1.63,0,0,0,811.51,183.35Zm-3.08,4.29v12.14a1,1,0,0,1-.23.74,1,1,0,0,1-.75.23h-.82v2.84h1.26q3.87,0,3.87-3.85v-12.1Z"/><path class="cls-7" d="M814,187.64v10.8h3.31v-10.8Zm3.1-4.29a2.06,2.06,0,0,0-1.44-.49,2,2,0,0,0-1.43.49,1.63,1.63,0,0,0-.54,1.25,1.6,1.6,0,0,0,.54,1.23,2,2,0,0,0,1.43.49,2.06,2.06,0,0,0,1.44-.49,1.6,1.6,0,0,0,.54-1.23A1.63,1.63,0,0,0,817.11,183.35Z"/><path class="cls-7" d="M829.41,188.76a3.77,3.77,0,0,0-2.95-1.24,4.09,4.09,0,0,0-2.16.56,3.6,3.6,0,0,0-1.39,1.53v-2H819.6v10.8h3.31v-5.73a2.6,2.6,0,0,1,.59-1.82,2.11,2.11,0,0,1,1.6-.64,2,2,0,0,1,1.52.61,2.39,2.39,0,0,1,.57,1.7v5.88h3.31v-6.27A5,5,0,0,0,829.41,188.76Z"/><path class="cls-7" d="M840.24,187.64v2a3.36,3.36,0,0,0-1.32-1.52,3.85,3.85,0,0,0-2.13-.57,4.44,4.44,0,0,0-2.39.67,4.6,4.6,0,0,0-1.66,1.92,7.41,7.41,0,0,0,0,5.89,4.57,4.57,0,0,0,1.66,1.93,4.44,4.44,0,0,0,2.39.67,3.93,3.93,0,0,0,2.13-.56,3.44,3.44,0,0,0,1.32-1.53v1.89a2.48,2.48,0,0,1-.63,1.89,2.34,2.34,0,0,1-1.66.59,2.52,2.52,0,0,1-1.44-.37,1.58,1.58,0,0,1-.7-1h-3.28a4.68,4.68,0,0,0,1.76,3.12,6.1,6.1,0,0,0,3.9,1.16,5.72,5.72,0,0,0,3-.72A4.47,4.47,0,0,0,843,201.1a6.14,6.14,0,0,0,.58-2.72V187.64Zm-.67,7.32a2.45,2.45,0,0,1-3.43,0,3.26,3.26,0,0,1,0-3.88,2.46,2.46,0,0,1,3.43,0,3.1,3.1,0,0,1,0,3.85Z"/><circle class="cls-7" cx="780.52" cy="448.12" r="3.19"/><circle class="cls-7" cx="632.37" cy="467.65" r="3.19"/><path class="cls-7" d="M581.36,455.24a2.32,2.32,0,0,1-1.29.37,2,2,0,0,1-1.59-.72,2.87,2.87,0,0,1-.6-1.92,2.9,2.9,0,0,1,.6-1.92,2,2,0,0,1,1.59-.72,2.32,2.32,0,0,1,1.29.36,2.22,2.22,0,0,1,.8,1h2.37a4.24,4.24,0,0,0-1.5-2.51,4.52,4.52,0,0,0-2.92-.93,4.75,4.75,0,0,0-2.38.59,4.08,4.08,0,0,0-1.57,1.67,5.17,5.17,0,0,0-.56,2.45,5.12,5.12,0,0,0,.56,2.45,4,4,0,0,0,1.57,1.67,4.65,4.65,0,0,0,2.38.6,4.47,4.47,0,0,0,2.92-.94,4.24,4.24,0,0,0,1.5-2.51h-2.37A2.14,2.14,0,0,1,581.36,455.24Z"/><path class="cls-7" d="M592.42,451.06a2.52,2.52,0,0,0-2-.84,2.76,2.76,0,0,0-1.46.38,2.42,2.42,0,0,0-.94,1v-3.72h-2.24v9.69H588v-3.88a1.74,1.74,0,0,1,.4-1.23,1.39,1.39,0,0,1,1.08-.43,1.36,1.36,0,0,1,1,.41,1.66,1.66,0,0,1,.38,1.15v4h2.24v-4.24A3.34,3.34,0,0,0,592.42,451.06Z"/><path class="cls-7" d="M601.36,452a3.38,3.38,0,0,0-1.35-1.3,4.12,4.12,0,0,0-2-.45,4.18,4.18,0,0,0-1.95.45,3.34,3.34,0,0,0-1.36,1.3,4.31,4.31,0,0,0,0,4,3.34,3.34,0,0,0,1.36,1.3,4.18,4.18,0,0,0,1.95.45,4.12,4.12,0,0,0,2-.45,3.38,3.38,0,0,0,1.35-1.3,4.31,4.31,0,0,0,0-4Zm-2.22,3.33a1.5,1.5,0,0,1-2.16,0,1.85,1.85,0,0,1-.44-1.33,1.91,1.91,0,0,1,.44-1.35,1.5,1.5,0,0,1,2.16,0,2,2,0,0,1,.43,1.35A1.9,1.9,0,0,1,599.14,455.29Z"/><path class="cls-7" d="M609.65,451.06a2.54,2.54,0,0,0-2-.84,2.76,2.76,0,0,0-1.46.38,2.42,2.42,0,0,0-.94,1V450.3H603v7.31h2.24v-3.88a1.78,1.78,0,0,1,.4-1.23,1.4,1.4,0,0,1,1.08-.43,1.36,1.36,0,0,1,1,.41,1.62,1.62,0,0,1,.39,1.15v4h2.24v-4.24A3.39,3.39,0,0,0,609.65,451.06Z"/><path class="cls-7" d="M617,450.3v1.32a2.31,2.31,0,0,0-.9-1,2.66,2.66,0,0,0-1.44-.38,2.94,2.94,0,0,0-1.61.45,3,3,0,0,0-1.13,1.3,5.06,5.06,0,0,0,0,4,3.07,3.07,0,0,0,1.13,1.3,2.94,2.94,0,0,0,1.61.45,2.66,2.66,0,0,0,1.44-.38,2.31,2.31,0,0,0,.9-1v1.28a1.7,1.7,0,0,1-.43,1.28,1.6,1.6,0,0,1-1.12.4,1.8,1.8,0,0,1-1-.25,1.11,1.11,0,0,1-.47-.7h-2.22a3.18,3.18,0,0,0,1.19,2.12,4.15,4.15,0,0,0,2.64.78,3.79,3.79,0,0,0,2-.49,3,3,0,0,0,1.21-1.3,4.21,4.21,0,0,0,.39-1.84V450.3Zm-.46,4.95a1.48,1.48,0,0,1-1.16.49,1.51,1.51,0,0,1-1.16-.48,2.2,2.2,0,0,1,0-2.61,1.64,1.64,0,0,1,2.32,0A1.85,1.85,0,0,1,617,454,1.82,1.82,0,0,1,616.52,455.25Z"/><path class="cls-7" d="M625.86,450.3v1.06a2.4,2.4,0,0,0-2.18-1.12,3,3,0,0,0-1.66.47,3.42,3.42,0,0,0-1.21,1.34,4.24,4.24,0,0,0-.44,1.95,4.12,4.12,0,0,0,.44,1.92,3.35,3.35,0,0,0,1.2,1.3,3.12,3.12,0,0,0,1.67.47,2.42,2.42,0,0,0,2.18-1.26v4.66h2.22V450.3Zm-.48,5a1.59,1.59,0,0,1-1.14.47,1.6,1.6,0,0,1-1.13-.44,1.7,1.7,0,0,1-.46-1.3,1.79,1.79,0,0,1,.47-1.35,1.53,1.53,0,0,1,1.12-.46,1.58,1.58,0,0,1,1.14.46,1.71,1.71,0,0,1,.48,1.31A1.74,1.74,0,0,1,625.38,455.27Z"/><path class="cls-7" d="M629.63,450.3v7.31h2.24V450.3Zm2.09-2.9a1.39,1.39,0,0,0-1-.33,1.41,1.41,0,0,0-1,.33,1.09,1.09,0,0,0-.36.84,1.1,1.1,0,0,0,.36.84,1.41,1.41,0,0,0,1,.33,1.39,1.39,0,0,0,1-.33,1.08,1.08,0,0,0,.37-.84A1.07,1.07,0,0,0,631.72,447.4Z"/><path class="cls-7" d="M640.05,451.06a2.54,2.54,0,0,0-2-.84,2.76,2.76,0,0,0-1.46.38,2.42,2.42,0,0,0-.94,1V450.3h-2.24v7.31h2.24v-3.88a1.74,1.74,0,0,1,.4-1.23,1.4,1.4,0,0,1,1.08-.43,1.36,1.36,0,0,1,1,.41,1.62,1.62,0,0,1,.39,1.15v4h2.24v-4.24A3.39,3.39,0,0,0,640.05,451.06Z"/><path class="cls-7" d="M647.37,450.3v1.32a2.29,2.29,0,0,0-.89-1,2.66,2.66,0,0,0-1.44-.38,3,3,0,0,0-1.62.45,3.05,3.05,0,0,0-1.12,1.3,5.06,5.06,0,0,0,0,4,3.11,3.11,0,0,0,1.12,1.3,3,3,0,0,0,1.62.45,2.66,2.66,0,0,0,1.44-.38,2.29,2.29,0,0,0,.89-1v1.28a1.7,1.7,0,0,1-.42,1.28,1.61,1.61,0,0,1-1.12.4,1.8,1.8,0,0,1-1-.25,1.12,1.12,0,0,1-.48-.7h-2.21a3.18,3.18,0,0,0,1.19,2.12,4.15,4.15,0,0,0,2.64.78,3.79,3.79,0,0,0,2-.49,3,3,0,0,0,1.21-1.3,4.21,4.21,0,0,0,.39-1.84V450.3Zm-.45,4.95a1.63,1.63,0,0,1-2.32,0,2.2,2.2,0,0,1,0-2.61,1.64,1.64,0,0,1,2.32,0,1.84,1.84,0,0,1,.45,1.31A1.81,1.81,0,0,1,646.92,455.25Z"/><path class="cls-7" d="M830.62,396.51v5.95l-3.88-5.95h-2.32v9.59h2.32v-5.88l3.88,5.88h2.32v-9.59Z"/><path class="cls-7" d="M839.83,398.54v1.37a2.42,2.42,0,0,0-.92-1.08,2.78,2.78,0,0,0-1.49-.39,3.08,3.08,0,0,0-1.68.47,3.27,3.27,0,0,0-1.17,1.34,5.29,5.29,0,0,0,0,4.13,3.24,3.24,0,0,0,1.17,1.35,3.08,3.08,0,0,0,1.68.47,2.78,2.78,0,0,0,1.49-.39,2.42,2.42,0,0,0,.92-1.08v1.37h2.31v-7.56Zm-.47,5.12a1.54,1.54,0,0,1-1.2.5,1.57,1.57,0,0,1-1.2-.48,2.28,2.28,0,0,1,0-2.72,1.7,1.7,0,0,1,2.4,0,2.16,2.16,0,0,1,0,2.69Z"/><path class="cls-7" d="M850.61,399.32a2.62,2.62,0,0,0-2.07-.87,2.77,2.77,0,0,0-1.51.4,2.45,2.45,0,0,0-1,1.07v-1.38h-2.32v7.56h2.32v-4a1.81,1.81,0,0,1,.41-1.28,1.48,1.48,0,0,1,1.12-.44,1.39,1.39,0,0,1,1.06.42,1.66,1.66,0,0,1,.4,1.19v4.12h2.32v-4.39A3.5,3.5,0,0,0,850.61,399.32Z"/><path class="cls-7" d="M855.09,395.53a1.43,1.43,0,0,0-1-.35,1.46,1.46,0,0,0-1,.35,1.14,1.14,0,0,0-.38.88,1.13,1.13,0,0,0,.38.86,1.45,1.45,0,0,0,1,.34,1.43,1.43,0,0,0,1-.34,1.13,1.13,0,0,0,.38-.86A1.14,1.14,0,0,0,855.09,395.53Zm-2.16,3V407a.69.69,0,0,1-.16.52.72.72,0,0,1-.53.16h-.57v2h.88a2.4,2.4,0,0,0,2.72-2.7v-8.47Z"/><path class="cls-7" d="M856.84,398.54v7.56h2.32v-7.56Zm2.17-3a1.43,1.43,0,0,0-1-.35,1.46,1.46,0,0,0-1,.35,1.14,1.14,0,0,0-.38.88,1.13,1.13,0,0,0,.38.86,1.45,1.45,0,0,0,1,.34,1.43,1.43,0,0,0,1-.34,1.13,1.13,0,0,0,.38-.86A1.14,1.14,0,0,0,859,395.53Z"/><path class="cls-7" d="M867.63,399.32a2.62,2.62,0,0,0-2.07-.87,2.77,2.77,0,0,0-1.51.4,2.51,2.51,0,0,0-1,1.07v-1.38h-2.32v7.56h2.32v-4a1.86,1.86,0,0,1,.41-1.28,1.48,1.48,0,0,1,1.12-.44,1.42,1.42,0,0,1,1.07.42,1.71,1.71,0,0,1,.4,1.19v4.12h2.32v-4.39A3.5,3.5,0,0,0,867.63,399.32Z"/><path class="cls-7" d="M875.22,398.54v1.37a2.42,2.42,0,0,0-.92-1.08,2.79,2.79,0,0,0-1.5-.39,3.07,3.07,0,0,0-1.67.47,3.27,3.27,0,0,0-1.17,1.34,5.29,5.29,0,0,0,0,4.13,3.24,3.24,0,0,0,1.17,1.35,3.07,3.07,0,0,0,1.67.47,2.79,2.79,0,0,0,1.5-.39,2.42,2.42,0,0,0,.92-1.08v1.33a1.77,1.77,0,0,1-.44,1.33,1.66,1.66,0,0,1-1.16.41,1.78,1.78,0,0,1-1-.26,1.13,1.13,0,0,1-.5-.72h-2.29a3.24,3.24,0,0,0,1.23,2.19,4.27,4.27,0,0,0,2.73.81,4.07,4.07,0,0,0,2.09-.5,3.18,3.18,0,0,0,1.25-1.35,4.38,4.38,0,0,0,.4-1.91v-7.52Zm-.47,5.12a1.54,1.54,0,0,1-1.2.5,1.57,1.57,0,0,1-1.2-.48,2.28,2.28,0,0,1,0-2.72,1.7,1.7,0,0,1,2.4,0,2.16,2.16,0,0,1,0,2.69Z"/><path class="cls-7" d="M662.91,417.24l-1.93,4.1-1.94-4.1h-2.79l3.49,6.71v3.35h2.44V424l3.49-6.71Z"/><path class="cls-7" d="M666.61,419.36v7.94H669v-7.94Zm2.27-3.15a1.49,1.49,0,0,0-1-.36,1.5,1.5,0,0,0-1.05.36,1.18,1.18,0,0,0-.4.92,1.15,1.15,0,0,0,.4.9,1.5,1.5,0,0,0,1.05.36,1.49,1.49,0,0,0,1-.36,1.15,1.15,0,0,0,.4-.9A1.18,1.18,0,0,0,668.88,416.21Z"/><path class="cls-7" d="M675.14,425a1.36,1.36,0,0,1-.89.28,1.3,1.3,0,0,1-1.06-.5,2.32,2.32,0,0,1-.41-1.47,2.28,2.28,0,0,1,.41-1.47,1.31,1.31,0,0,1,1.06-.51,1.41,1.41,0,0,1,.89.28,1.33,1.33,0,0,1,.47.8h2.58a3.76,3.76,0,0,0-1.31-2.32,3.91,3.91,0,0,0-2.58-.85,4.25,4.25,0,0,0-2.07.49,3.5,3.5,0,0,0-1.42,1.41,4.89,4.89,0,0,0,0,4.33,3.42,3.42,0,0,0,1.41,1.41,4.28,4.28,0,0,0,2.07.5,4,4,0,0,0,2.58-.85,3.75,3.75,0,0,0,1.31-2.33h-2.58A1.33,1.33,0,0,1,675.14,425Z"/><path class="cls-7" d="M686.66,420.18a2.78,2.78,0,0,0-2.17-.91,3,3,0,0,0-1.59.42,2.63,2.63,0,0,0-1,1.12v-4h-2.43V427.3h2.43v-4.21a1.9,1.9,0,0,1,.44-1.34,1.53,1.53,0,0,1,1.17-.47,1.45,1.45,0,0,1,1.12.45A1.74,1.74,0,0,1,685,423v4.33h2.43v-4.61A3.71,3.71,0,0,0,686.66,420.18Z"/><path class="cls-7" d="M694.61,419.36v1.44a2.46,2.46,0,0,0-1-1.13,2.94,2.94,0,0,0-1.57-.41,3.16,3.16,0,0,0-1.75.49,3.4,3.4,0,0,0-1.23,1.41,5.55,5.55,0,0,0,0,4.33,3.28,3.28,0,0,0,1.23,1.41,3.17,3.17,0,0,0,1.75.5,2.85,2.85,0,0,0,1.57-.42,2.44,2.44,0,0,0,1-1.12v1.44H697v-7.94Zm-.49,5.38a1.79,1.79,0,0,1-2.51,0,2.34,2.34,0,0,1,0-2.84,1.59,1.59,0,0,1,1.26-.52,1.65,1.65,0,0,1,1.25.52,2.29,2.29,0,0,1,0,2.83Z"/><path class="cls-7" d="M705.92,420.18a2.78,2.78,0,0,0-2.17-.91,3,3,0,0,0-1.59.42,2.63,2.63,0,0,0-1,1.12v-1.45h-2.43v7.94h2.43v-4.21a1.9,1.9,0,0,1,.44-1.34,1.53,1.53,0,0,1,1.17-.47,1.47,1.47,0,0,1,1.12.45,1.74,1.74,0,0,1,.42,1.24v4.33h2.43v-4.61A3.71,3.71,0,0,0,705.92,420.18Z"/><path class="cls-7" d="M713.87,419.36v1.44a2.52,2.52,0,0,0-1-1.13,2.94,2.94,0,0,0-1.57-.41,3.22,3.22,0,0,0-1.76.49,3.45,3.45,0,0,0-1.22,1.41,5.43,5.43,0,0,0,0,4.33,3.33,3.33,0,0,0,1.22,1.41,3.23,3.23,0,0,0,1.76.5,2.85,2.85,0,0,0,1.57-.42,2.5,2.5,0,0,0,1-1.12v1.39a1.82,1.82,0,0,1-.46,1.39,1.7,1.7,0,0,1-1.22.43,1.86,1.86,0,0,1-1.05-.27,1.15,1.15,0,0,1-.52-.75h-2.41a3.47,3.47,0,0,0,1.29,2.3,4.54,4.54,0,0,0,2.87.84,4.23,4.23,0,0,0,2.19-.52,3.38,3.38,0,0,0,1.31-1.42,4.62,4.62,0,0,0,.42-2v-7.89Zm-.49,5.38a1.62,1.62,0,0,1-1.26.52,1.65,1.65,0,0,1-1.26-.51,2.38,2.38,0,0,1,0-2.84,1.62,1.62,0,0,1,1.26-.52,1.66,1.66,0,0,1,1.26.52,2.29,2.29,0,0,1,0,2.83Z"/></g><g id="Laag_5" data-name="Laag 5"><path class="cls-6" d="M113.8,489.18v7l-4.55-7h-2.72v11.25h2.72v-6.91l4.55,6.91h2.72V489.18Z"/><path class="cls-6" d="M126.83,495.75a4.47,4.47,0,0,0-.55-2.25,3.78,3.78,0,0,0-1.55-1.52,5.23,5.23,0,0,0-4.65,0,3.91,3.91,0,0,0-1.58,1.57,5.49,5.49,0,0,0,0,4.85,3.88,3.88,0,0,0,1.58,1.58,5.12,5.12,0,0,0,4.34.13,4.09,4.09,0,0,0,1.49-1.16,3.7,3.7,0,0,0,.77-1.68h-2.88a1.41,1.41,0,0,1-.53.78,1.81,1.81,0,0,1-2.18-.14,2.13,2.13,0,0,1-.51-1.44h6.16A3.88,3.88,0,0,0,126.83,495.75Zm-6.22-.41a1.88,1.88,0,0,1,.56-1.31,1.79,1.79,0,0,1,1.24-.44,1.7,1.7,0,0,1,1.2.44,1.65,1.65,0,0,1,.47,1.31Z"/><path class="cls-6" d="M137.12,493.56a3.83,3.83,0,0,0-1.37-1.57,3.56,3.56,0,0,0-2-.55,3.19,3.19,0,0,0-1.75.46,2.72,2.72,0,0,0-1.06,1.26v-1.61h-2.72v13.11H131v-5.84a2.72,2.72,0,0,0,1.06,1.26,3.19,3.19,0,0,0,1.75.46,3.56,3.56,0,0,0,2-.55,3.74,3.74,0,0,0,1.37-1.58,6.13,6.13,0,0,0,0-4.85Zm-2.8,4a2,2,0,0,1-2.82,0A2.22,2.22,0,0,1,131,496a2.19,2.19,0,0,1,.55-1.58,2,2,0,0,1,2.82,0,2.65,2.65,0,0,1,0,3.18Z"/><path class="cls-6" d="M145.24,491.55v1.61a2.76,2.76,0,0,0-1.08-1.26,3.19,3.19,0,0,0-1.75-.46,3.59,3.59,0,0,0-2,.55,3.83,3.83,0,0,0-1.37,1.57,6.13,6.13,0,0,0,0,4.85,3.74,3.74,0,0,0,1.37,1.58,3.59,3.59,0,0,0,2,.55,3.19,3.19,0,0,0,1.75-.46,2.76,2.76,0,0,0,1.08-1.26v1.61h2.7v-8.88Zm-.55,6a2,2,0,0,1-2.82,0,2.65,2.65,0,0,1,0-3.18,2,2,0,0,1,2.82,0,2.19,2.19,0,0,1,.55,1.58A2.22,2.22,0,0,1,144.69,497.57Z"/><path class="cls-6" d="M149.82,488.66v11.77h2.72V488.66Z"/><path class="cls-6" d="M276.58,526.3a2.57,2.57,0,0,0-1.47-.89,2.36,2.36,0,0,0,1.29-.8,2.43,2.43,0,0,0,.49-1.54,2.31,2.31,0,0,0-.86-1.93,3.77,3.77,0,0,0-2.4-.68H269v10.2h4.74a3.77,3.77,0,0,0,2.5-.74,2.51,2.51,0,0,0,.88-2A2.45,2.45,0,0,0,276.58,526.3Zm-5.12-3.86h1.59c.87,0,1.31.36,1.31,1.09s-.43,1.1-1.28,1.1h-1.62Zm1.76,6.21h-1.76v-2.29h1.75a1.5,1.5,0,0,1,1,.31,1.07,1.07,0,0,1,.36.86C274.59,528.28,274.14,528.65,273.22,528.65Z"/><path class="cls-6" d="M285.72,523.44a2.8,2.8,0,0,0-2.2-.92,3,3,0,0,0-1.61.42,2.64,2.64,0,0,0-1,1.14V520h-2.47v10.68h2.47v-4.27a2,2,0,0,1,.44-1.36,1.52,1.52,0,0,1,1.19-.47,1.48,1.48,0,0,1,1.13.45,1.74,1.74,0,0,1,.43,1.26v4.39h2.46V526A3.74,3.74,0,0,0,285.72,523.44Z"/><path class="cls-6" d="M293.69,522.61v4.27a1.92,1.92,0,0,1-.44,1.35,1.49,1.49,0,0,1-1.18.48,1.46,1.46,0,0,1-1.14-.46,1.75,1.75,0,0,1-.43-1.27v-4.37h-2.45v4.67a3.72,3.72,0,0,0,.81,2.54,2.82,2.82,0,0,0,2.2.92,3,3,0,0,0,1.6-.42,2.65,2.65,0,0,0,1-1.12v1.46h2.48v-8Z"/><path class="cls-6" d="M301.65,528.54a1,1,0,0,1-.66-.19.93.93,0,0,1-.19-.67v-3h1.61v-2.08H300.8v-2h-2.47v2h-1.08v2.08h1.08v2.95a3,3,0,0,0,.79,2.32,3.21,3.21,0,0,0,2.2.7h1.11v-2.12Z"/><path class="cls-6" d="M309.44,522.61v1.46a2.45,2.45,0,0,0-1-1.14,2.89,2.89,0,0,0-1.58-.42,3.26,3.26,0,0,0-1.78.49,3.41,3.41,0,0,0-1.24,1.43,5.47,5.47,0,0,0,0,4.39,3.32,3.32,0,0,0,1.24,1.44,3.27,3.27,0,0,0,1.78.5,2.89,2.89,0,0,0,1.58-.42,2.55,2.55,0,0,0,1-1.14v1.46h2.45v-8Zm-.5,5.45a1.65,1.65,0,0,1-1.28.53,1.63,1.63,0,0,1-1.27-.52,2,2,0,0,1-.49-1.44,2,2,0,0,1,.49-1.44,1.63,1.63,0,0,1,1.27-.52,1.69,1.69,0,0,1,1.28.53,2.29,2.29,0,0,1,0,2.86Z"/><path class="cls-6" d="M320.89,523.44a2.79,2.79,0,0,0-2.2-.92,3,3,0,0,0-1.6.42,2.73,2.73,0,0,0-1,1.14v-1.47h-2.46v8h2.46v-4.27a2,2,0,0,1,.44-1.36,1.55,1.55,0,0,1,1.2-.47,1.49,1.49,0,0,1,1.13.45,1.78,1.78,0,0,1,.42,1.26v4.39h2.47V526A3.7,3.7,0,0,0,320.89,523.44Z"/><path class="cls-6" d="M387.82,612l-2.61,6.82L382.55,612h-2.92v9.79H382v-6.13l2.13,6.13h2.06l2.12-6.12v6.12h2.39V612Z"/><path class="cls-6" d="M397.77,614,396,618.81,394.16,614H391.5l3.26,7.49-1.83,4h2.62L400.4,614Z"/><path class="cls-6" d="M406.63,614v1.41a2.46,2.46,0,0,0-.94-1.1,2.83,2.83,0,0,0-1.54-.41,3.16,3.16,0,0,0-1.72.48,3.41,3.41,0,0,0-1.2,1.39,4.77,4.77,0,0,0-.44,2.12,4.83,4.83,0,0,0,.44,2.12,3.35,3.35,0,0,0,1.2,1.39,3.16,3.16,0,0,0,1.72.48,2.83,2.83,0,0,0,1.54-.41,2.4,2.4,0,0,0,.94-1.1v1.41H409V614Zm-.48,5.27a1.62,1.62,0,0,1-1.23.52,1.58,1.58,0,0,1-1.23-.51,2.29,2.29,0,0,1,0-2.78,1.58,1.58,0,0,1,1.23-.51,1.61,1.61,0,0,1,1.23.51,2,2,0,0,1,.48,1.39A1.93,1.93,0,0,1,406.15,619.31Z"/><path class="cls-6" d="M417.71,614.85a2.71,2.71,0,0,0-2.13-.89,2.91,2.91,0,0,0-1.55.4,2.65,2.65,0,0,0-1,1.1V614h-2.38v7.78H413v-4.13a1.85,1.85,0,0,1,.43-1.31,1.5,1.5,0,0,1,1.15-.46,1.43,1.43,0,0,1,1.09.44,1.7,1.7,0,0,1,.41,1.22v4.24h2.39V617.3A3.59,3.59,0,0,0,417.71,614.85Z"/><path class="cls-6" d="M432.41,614.84a2.93,2.93,0,0,0-2.26-.88,2.85,2.85,0,0,0-1.55.43,3.09,3.09,0,0,0-1.11,1.16,2.59,2.59,0,0,0-1-1.18,3,3,0,0,0-1.58-.41,2.83,2.83,0,0,0-1.48.37,2.3,2.3,0,0,0-.94,1V614h-2.39v7.78h2.39v-4.13a1.72,1.72,0,0,1,.41-1.24A1.54,1.54,0,0,1,424,616a1.43,1.43,0,0,1,1.08.41,1.62,1.62,0,0,1,.39,1.15v4.24h2.38v-4.13a1.74,1.74,0,0,1,.41-1.23,1.48,1.48,0,0,1,1.12-.44,1.43,1.43,0,0,1,1.08.41,1.58,1.58,0,0,1,.4,1.15v4.24h2.37V617.3A3.47,3.47,0,0,0,432.41,614.84Z"/><path class="cls-6" d="M440.26,614v1.41a2.48,2.48,0,0,0-.95-1.1,2.82,2.82,0,0,0-1.53-.41,3.17,3.17,0,0,0-1.73.48,3.49,3.49,0,0,0-1.2,1.39,4.77,4.77,0,0,0-.43,2.12,4.83,4.83,0,0,0,.43,2.12,3.42,3.42,0,0,0,1.2,1.39,3.17,3.17,0,0,0,1.73.48,2.82,2.82,0,0,0,1.53-.41,2.42,2.42,0,0,0,.95-1.1v1.41h2.37V614Zm-.48,5.27a1.64,1.64,0,0,1-1.24.52,1.58,1.58,0,0,1-1.23-.51,2.29,2.29,0,0,1,0-2.78,1.58,1.58,0,0,1,1.23-.51,1.64,1.64,0,0,1,1.24.51,2,2,0,0,1,.48,1.39A1.93,1.93,0,0,1,439.78,619.31Z"/><path class="cls-6" d="M447.8,614.38a3.36,3.36,0,0,0-1.15,1.13V614h-2.38v7.78h2.38v-3.54a1.63,1.63,0,0,1,.53-1.37,2.36,2.36,0,0,1,1.47-.4h.68V614A2.94,2.94,0,0,0,447.8,614.38Z"/><path class="cls-6" d="M520.71,688.75V679H517.8v12h6.79v-2.22Z"/><path class="cls-6" d="M532.56,681.48v1.72a2.89,2.89,0,0,0-1.15-1.34,3.44,3.44,0,0,0-1.87-.5,3.87,3.87,0,0,0-2.1.59,4,4,0,0,0-1.47,1.69,6.57,6.57,0,0,0,0,5.17,4.09,4.09,0,0,0,1.47,1.7,3.86,3.86,0,0,0,2.1.58,3.43,3.43,0,0,0,1.87-.49,2.94,2.94,0,0,0,1.15-1.34V691h2.9v-9.49Zm-.58,6.43a2.14,2.14,0,0,1-3,0,2.82,2.82,0,0,1,0-3.4,2.15,2.15,0,0,1,3,0,2.74,2.74,0,0,1,0,3.37Z"/><path class="cls-6" d="M546.18,683.64a4.38,4.38,0,0,0-1.75-1.69,4.87,4.87,0,0,0-1.12-.42,5.79,5.79,0,0,0-1.41-.17,5.39,5.39,0,0,0-2.53.59,4.28,4.28,0,0,0-1.76,1.69,4.44,4.44,0,0,0-.5,1.3,5.32,5.32,0,0,0-.14,1.29,5,5,0,0,0,.64,2.58,4.3,4.3,0,0,0,1.76,1.7,5.35,5.35,0,0,0,2.52.58h0a5.36,5.36,0,0,0,2.11-.4h0a3,3,0,0,0,.41-.18,4.4,4.4,0,0,0,1.75-1.7,5.54,5.54,0,0,0,0-5.17ZM540.5,688a1.32,1.32,0,0,1-.3-.44h0a2.61,2.61,0,0,1-.27-1.28,2.43,2.43,0,0,1,.57-1.74,1.82,1.82,0,0,1,1.4-.61,1.85,1.85,0,0,1,1,.29,1.9,1.9,0,0,1,.38.32,2.47,2.47,0,0,1,.56,1.74,2.43,2.43,0,0,1-.56,1.73,1.73,1.73,0,0,1-1,.56,1.5,1.5,0,0,1-.37,0,1.61,1.61,0,0,1-.54-.08A1.76,1.76,0,0,1,540.5,688Z"/><path class="cls-6" d="M555.64,686.71a2.84,2.84,0,0,0-1.21-.86,13.77,13.77,0,0,0-1.78-.52,8.16,8.16,0,0,1-1.47-.44.72.72,0,0,1-.47-.67.76.76,0,0,1,.25-.6,1.16,1.16,0,0,1,.75-.21,1.65,1.65,0,0,1,1,.33,1.48,1.48,0,0,1,.53.91H556a4,4,0,0,0-1.36-2.38,4.3,4.3,0,0,0-2.88-.91,4.22,4.22,0,0,0-2.74.8,2.54,2.54,0,0,0-1,2.06,2.3,2.3,0,0,0,.5,1.56,2.87,2.87,0,0,0,1.17.82,12.17,12.17,0,0,0,1.74.48,9.17,9.17,0,0,1,1.52.45.72.72,0,0,1,.46.71.77.77,0,0,1-.25.6,1.1,1.1,0,0,1-.75.23,2,2,0,0,1-1.16-.32,1.26,1.26,0,0,1-.52-.94H548a3.58,3.58,0,0,0,1.41,2.43,5.89,5.89,0,0,0,5,.5,3,3,0,0,0,1.28-1,2.49,2.49,0,0,0,.44-1.45A2.35,2.35,0,0,0,555.64,686.71Z"/><path class="cls-6" d="M571,642.5l-2.21,6.8-2.21-6.8h-2.34l3.13,9h2.82l3.15-9Z"/><path class="cls-6" d="M574.16,644.41v7.13h2.19v-7.13Zm2.05-2.83a1.36,1.36,0,0,0-1-.33,1.31,1.31,0,0,0-.94.33,1.1,1.1,0,0,0,0,1.63,1.31,1.31,0,0,0,.94.33,1.36,1.36,0,0,0,1-.33,1.1,1.1,0,0,0,0-1.63Z"/><path class="cls-6" d="M584.63,647.78a1.88,1.88,0,0,0,0-.34h0a3.26,3.26,0,0,0-.42-1.46,3.06,3.06,0,0,0-1.25-1.22,3.22,3.22,0,0,0-1-.35h0a3.62,3.62,0,0,0-.82-.08,3.83,3.83,0,0,0-1.87.44,3.08,3.08,0,0,0-1.27,1.26,4,4,0,0,0-.45,2,4,4,0,0,0,.46,1.95,3.17,3.17,0,0,0,1.27,1.27,3.87,3.87,0,0,0,1.86.44,3.7,3.7,0,0,0,1.62-.34,3.29,3.29,0,0,0,1.2-.93,3.09,3.09,0,0,0,.62-1.35H582.2a1.15,1.15,0,0,1-.42.62,1.23,1.23,0,0,1-.8.25,1.34,1.34,0,0,1-1-.35,1.67,1.67,0,0,1-.41-1.16h5A3.19,3.19,0,0,0,584.63,647.78Zm-5-.33a1.55,1.55,0,0,1,.45-1.05,1.44,1.44,0,0,1,1-.36,1.4,1.4,0,0,1,1,.35,1.33,1.33,0,0,1,.38,1.06Z"/><path class="cls-6" d="M589.12,649.66a.82.82,0,0,1-.58-.17.76.76,0,0,1-.18-.58v-2.66h1.44v-1.84h-1.44v-1.75h-2.18v1.75h-1v1.84h1v2.62c0,.12,0,.23,0,.34a2.38,2.38,0,0,0,.69,1.71,2.46,2.46,0,0,0,1.35.58h0a3.65,3.65,0,0,0,.59,0h1v-1.88Z"/><path class="cls-6" d="M597.51,645.15a2.45,2.45,0,0,0-2-.82,2.64,2.64,0,0,0-1.42.37,2.36,2.36,0,0,0-.92,1v-1.3H591v7.13h2.18v-3.78a1.74,1.74,0,0,1,.39-1.21,1.37,1.37,0,0,1,1.06-.42,1.34,1.34,0,0,1,1,.4,1.6,1.6,0,0,1,.38,1.12v3.89h2.18V647.4A3.27,3.27,0,0,0,597.51,645.15Z"/><path class="cls-6" d="M604.66,644.41v1.29a2.09,2.09,0,0,0-.87-1,2.54,2.54,0,0,0-1.4-.37,2.83,2.83,0,0,0-1.58.44,3,3,0,0,0-1.1,1.26,4.38,4.38,0,0,0-.4,2,4.44,4.44,0,0,0,.4,1.95,3,3,0,0,0,1.1,1.27,2.91,2.91,0,0,0,1.58.44,2.54,2.54,0,0,0,1.4-.37,2.14,2.14,0,0,0,.87-1v1.29h2.18v-7.13Zm-.44,4.83a1.49,1.49,0,0,1-1.13.47,1.46,1.46,0,0,1-1.13-.46,1.77,1.77,0,0,1-.43-1.28,1.8,1.8,0,0,1,.43-1.28,1.61,1.61,0,0,1,2.26,0,2.05,2.05,0,0,1,0,2.54Z"/><path class="cls-6" d="M619.66,645.14a2.71,2.71,0,0,0-2.07-.81,2.64,2.64,0,0,0-1.43.4,2.81,2.81,0,0,0-1,1.06,2.31,2.31,0,0,0-.94-1.08,2.77,2.77,0,0,0-1.45-.38,2.62,2.62,0,0,0-1.36.34,2.25,2.25,0,0,0-.86,1v-1.21h-2.19v7.13h2.19v-3.78a1.58,1.58,0,0,1,.38-1.14,1.36,1.36,0,0,1,1-.4,1.29,1.29,0,0,1,1,.38,1.45,1.45,0,0,1,.36,1v3.89h2.19v-3.78a1.61,1.61,0,0,1,.37-1.14,1.39,1.39,0,0,1,1-.4,1.31,1.31,0,0,1,1,.38,1.42,1.42,0,0,1,.37,1v3.89h2.17V647.4A3.19,3.19,0,0,0,619.66,645.14Z"/><path class="cls-6" d="M392.74,627.52v-.24h-2.38a9.78,9.78,0,0,0-2.85,3.56,11.91,11.91,0,0,0,0,9.91,9.74,9.74,0,0,0,2.85,3.55h2.38v-.23a10.31,10.31,0,0,1-3.94-8.28,10.58,10.58,0,0,1,1-4.57A10.85,10.85,0,0,1,392.74,627.52Z"/><path class="cls-6" d="M400.43,637.24a2.6,2.6,0,0,0-1.47-.9,2.25,2.25,0,0,0,1.29-.8,2.43,2.43,0,0,0,.49-1.54,2.35,2.35,0,0,0-.85-1.93,3.83,3.83,0,0,0-2.42-.68h-4.63V641.6h4.75a3.81,3.81,0,0,0,2.51-.74,2.53,2.53,0,0,0,.87-2.05A2.45,2.45,0,0,0,400.43,637.24Zm-5.12-3.87h1.59c.87,0,1.31.36,1.31,1.1s-.43,1.09-1.28,1.09h-1.62Zm1.76,6.22h-1.76V637.3h1.75a1.5,1.5,0,0,1,1,.31,1.06,1.06,0,0,1,.36.86C398.44,639.22,398,639.59,397.07,639.59Z"/><path class="cls-6" d="M402.27,633.54v8.06h2.47v-8.06Zm2.31-3.2a1.77,1.77,0,0,0-2.14,0,1.22,1.22,0,0,0-.4.94,1.17,1.17,0,0,0,.4.91,1.73,1.73,0,0,0,2.14,0,1.17,1.17,0,0,0,.4-.91A1.22,1.22,0,0,0,404.58,630.34Z"/><path class="cls-6" d="M410.1,633.89a3.5,3.5,0,0,0-1.19,1.17v-1.52h-2.47v8.06h2.47v-3.67a1.68,1.68,0,0,1,.54-1.41,2.43,2.43,0,0,1,1.52-.42h.71v-2.64A3,3,0,0,0,410.1,633.89Z"/><path class="cls-6" d="M425.5,634.37a3,3,0,0,0-2.34-.91,3.09,3.09,0,0,0-1.61.44,3.23,3.23,0,0,0-1.15,1.2,2.71,2.71,0,0,0-1.07-1.22,3.12,3.12,0,0,0-1.63-.42,3.06,3.06,0,0,0-1.54.38,2.5,2.5,0,0,0-1,1.07v-1.37h-2.47v8.06h2.47v-4.27a1.78,1.78,0,0,1,.43-1.29,1.55,1.55,0,0,1,1.17-.45,1.44,1.44,0,0,1,1.11.43,1.65,1.65,0,0,1,.41,1.19v4.39h2.47v-4.27a1.81,1.81,0,0,1,.42-1.28,1.51,1.51,0,0,1,1.17-.46,1.44,1.44,0,0,1,1.11.43,1.61,1.61,0,0,1,.42,1.19v4.39h2.45v-4.68A3.59,3.59,0,0,0,425.5,634.37Z"/><path class="cls-6" d="M433.63,633.54V635a2.55,2.55,0,0,0-1-1.14,2.89,2.89,0,0,0-1.58-.42,3.3,3.3,0,0,0-1.79.5,3.49,3.49,0,0,0-1.24,1.43,5.58,5.58,0,0,0,0,4.39,3.45,3.45,0,0,0,1.24,1.44,3.3,3.3,0,0,0,1.79.5,2.89,2.89,0,0,0,1.58-.42,2.55,2.55,0,0,0,1-1.14v1.46h2.45v-8.06Zm-.5,5.46a1.82,1.82,0,0,1-2.56,0,2.4,2.4,0,0,1,0-2.88,1.84,1.84,0,0,1,2.56,0,2.31,2.31,0,0,1,0,2.87Z"/><path class="cls-6" d="M441.45,630.84a10.07,10.07,0,0,0-2.84-3.56H436.2v.24a11,11,0,0,1,3,3.7,10.58,10.58,0,0,1,1,4.57,10.32,10.32,0,0,1-3.95,8.28v.23h2.41a10,10,0,0,0,2.84-3.56,11.88,11.88,0,0,0,0-9.9Z"/><path class="cls-6" d="M261.58,583.48a2.06,2.06,0,0,0-1.22-.74,1.92,1.92,0,0,0,1.07-.67,2,2,0,0,0,.4-1.27,1.92,1.92,0,0,0-.7-1.6,3.11,3.11,0,0,0-2-.56H255.3v8.45h3.93a3.15,3.15,0,0,0,2.07-.61,2.13,2.13,0,0,0,.73-1.7A2,2,0,0,0,261.58,583.48Zm-4.24-3.21h1.32c.72,0,1.08.31,1.08.91s-.35.91-1.06.91h-1.34Zm1.46,5.15h-1.46v-1.9h1.45a1.29,1.29,0,0,1,.85.26.91.91,0,0,1,.29.71C259.93,585.11,259.56,585.42,258.8,585.42Z"/><path class="cls-6" d="M267.76,580.42v1.2a2.05,2.05,0,0,0-.81-.94,2.45,2.45,0,0,0-1.32-.35,2.63,2.63,0,0,0-1.47.42,2.71,2.71,0,0,0-1,1.18,4.11,4.11,0,0,0-.38,1.82,4.17,4.17,0,0,0,.38,1.82,2.8,2.8,0,0,0,1,1.19,2.71,2.71,0,0,0,1.47.41,2.45,2.45,0,0,0,1.32-.35,2,2,0,0,0,.81-.94v1.21h2v-6.67Zm-.41,4.51a1.38,1.38,0,0,1-1.06.45,1.41,1.41,0,0,1-1.06-.43,1.74,1.74,0,0,1-.4-1.2,1.69,1.69,0,0,1,.4-1.19,1.37,1.37,0,0,1,1.06-.43,1.4,1.4,0,0,1,1.06.43,1.69,1.69,0,0,1,.41,1.19A1.66,1.66,0,0,1,267.35,584.93Z"/><path class="cls-6" d="M277.26,581.11a2.31,2.31,0,0,0-1.83-.76,2.59,2.59,0,0,0-1,.19h0a2.64,2.64,0,0,0-.29.15,2.17,2.17,0,0,0-.85.95v-1.22H271.2v6.67h2.05v-3.54a1.63,1.63,0,0,1,.36-1.13,1.19,1.19,0,0,1,.67-.36,1.66,1.66,0,0,1,.32,0,1.24,1.24,0,0,1,.94.38,1.49,1.49,0,0,1,.35,1v3.64h2v-3.88A3.06,3.06,0,0,0,277.26,581.11Z"/><path class="cls-6" d="M283.94,580.42v1.2a2.05,2.05,0,0,0-.81-.94,2.42,2.42,0,0,0-1.31-.35,2.67,2.67,0,0,0-1.48.42,2.78,2.78,0,0,0-1,1.18,4.11,4.11,0,0,0-.37,1.82,4.17,4.17,0,0,0,.37,1.82,2.87,2.87,0,0,0,1,1.19,2.74,2.74,0,0,0,1.48.41,2.42,2.42,0,0,0,1.31-.35,2,2,0,0,0,.81-.94v1.17a1.52,1.52,0,0,1-.39,1.16,1.39,1.39,0,0,1-1,.37,1.61,1.61,0,0,1-.89-.23,1,1,0,0,1-.43-.63h-2a2.92,2.92,0,0,0,1.08,1.93,3.8,3.8,0,0,0,2.41.71,3.61,3.61,0,0,0,1.84-.44,2.8,2.8,0,0,0,1.1-1.19,3.83,3.83,0,0,0,.35-1.68v-6.63Zm-.41,4.51a1.49,1.49,0,0,1-2.11,0,1.69,1.69,0,0,1-.4-1.2,1.65,1.65,0,0,1,.4-1.19,1.34,1.34,0,0,1,1.05-.43,1.39,1.39,0,0,1,1.06.43,1.64,1.64,0,0,1,.41,1.19A1.62,1.62,0,0,1,283.53,584.93Z"/><path class="cls-6" d="M287.38,578.24v8.85h2.05v-8.85Z"/><path class="cls-6" d="M295.5,580.42v1.2a2.18,2.18,0,0,0-.81-.94,2.45,2.45,0,0,0-1.32-.35,2.63,2.63,0,0,0-1.47.42,2.71,2.71,0,0,0-1,1.18,4.11,4.11,0,0,0-.38,1.82,4.17,4.17,0,0,0,.38,1.82,2.8,2.8,0,0,0,1,1.19,2.71,2.71,0,0,0,1.47.41,2.45,2.45,0,0,0,1.32-.35,2.12,2.12,0,0,0,.81-.94v1.21h2v-6.67Zm-.41,4.51a1.38,1.38,0,0,1-1.06.45A1.41,1.41,0,0,1,293,585a1.69,1.69,0,0,1-.4-1.2,1.65,1.65,0,0,1,.4-1.19,1.37,1.37,0,0,1,1.06-.43,1.4,1.4,0,0,1,1.06.43,1.69,1.69,0,0,1,.41,1.19A1.66,1.66,0,0,1,295.09,584.93Z"/><path class="cls-6" d="M303.59,578.24v3.38a2,2,0,0,0-.8-.94,2.45,2.45,0,0,0-1.32-.35,2.63,2.63,0,0,0-1.47.42,2.71,2.71,0,0,0-1,1.18,4.11,4.11,0,0,0-.38,1.82,4.17,4.17,0,0,0,.38,1.82,2.8,2.8,0,0,0,1,1.19,2.71,2.71,0,0,0,1.47.41,2.45,2.45,0,0,0,1.32-.35,2,2,0,0,0,.8-.94v1.21h2v-8.85Zm-.4,6.69a1.38,1.38,0,0,1-1.06.45,1.41,1.41,0,0,1-1.06-.43,1.74,1.74,0,0,1-.4-1.2,1.69,1.69,0,0,1,.4-1.19,1.37,1.37,0,0,1,1.06-.43,1.4,1.4,0,0,1,1.06.43,1.69,1.69,0,0,1,.41,1.19A1.66,1.66,0,0,1,303.19,584.93Z"/><path class="cls-6" d="M313.38,583.57a3.34,3.34,0,0,0-.42-1.69,2.83,2.83,0,0,0-1.16-1.14,3.62,3.62,0,0,0-1.75-.41,3.56,3.56,0,0,0-1.74.42,2.82,2.82,0,0,0-1.19,1.18,3.74,3.74,0,0,0-.42,1.82,3.68,3.68,0,0,0,.43,1.82,2.9,2.9,0,0,0,1.19,1.19,3.81,3.81,0,0,0,3.25.09,3.06,3.06,0,0,0,1.13-.87,2.89,2.89,0,0,0,.57-1.26h-2.16a1.08,1.08,0,0,1-.4.58,1.16,1.16,0,0,1-.75.23,1.26,1.26,0,0,1-.89-.33,1.58,1.58,0,0,1-.38-1.08h4.63A2.8,2.8,0,0,0,313.38,583.57Zm-4.68-.31a1.46,1.46,0,0,1,.42-1,1.36,1.36,0,0,1,.93-.33,1.32,1.32,0,0,1,.91.33,1.2,1.2,0,0,1,.35,1Z"/><path class="cls-6" d="M319.58,584.09a2.13,2.13,0,0,0-.85-.61,11.22,11.22,0,0,0-1.25-.36,6.18,6.18,0,0,1-1-.31.51.51,0,0,1-.33-.47.52.52,0,0,1,.18-.42.82.82,0,0,1,.53-.15,1.1,1.1,0,0,1,.73.23,1.08,1.08,0,0,1,.38.64h1.91a2.74,2.74,0,0,0-.95-1.67,3.55,3.55,0,0,0-3.95-.08,1.79,1.79,0,0,0-.68,1.45,1.6,1.6,0,0,0,.35,1.09,2,2,0,0,0,.82.58,8.18,8.18,0,0,0,1.22.34,5.7,5.7,0,0,1,1.07.32.5.5,0,0,1,.33.49.55.55,0,0,1-.18.43.8.8,0,0,1-.53.16,1.36,1.36,0,0,1-.81-.23.86.86,0,0,1-.37-.66h-2a2.54,2.54,0,0,0,1,1.71,3.55,3.55,0,0,0,2.16.6,3.45,3.45,0,0,0,1.39-.25,2.13,2.13,0,0,0,.9-.69,1.81,1.81,0,0,0,.31-1A1.64,1.64,0,0,0,319.58,584.09Z"/><path class="cls-6" d="M327.13,581.11a2.31,2.31,0,0,0-1.83-.76,2.51,2.51,0,0,0-1.33.34,2.17,2.17,0,0,0-.85.95v-3.4h-2.05v8.85h2.05v-3.54a1.63,1.63,0,0,1,.36-1.13,1.28,1.28,0,0,1,1-.39,1.24,1.24,0,0,1,.94.38,1.49,1.49,0,0,1,.35,1v3.64h2v-3.88A3.06,3.06,0,0,0,327.13,581.11Z"/><path class="cls-6" d="M180.08,556.17V568.8h3.06V556.17Z"/><path class="cls-6" d="M194.3,559.87a3.43,3.43,0,0,0-2.73-1.15,3.81,3.81,0,0,0-2,.52,3.35,3.35,0,0,0-1.28,1.41v-1.82h-3.05v10h3.05v-5.29a2.38,2.38,0,0,1,.55-1.68,1.91,1.91,0,0,1,1.47-.59,1.84,1.84,0,0,1,1.41.57,2.18,2.18,0,0,1,.52,1.56v5.43h3.06V563A4.59,4.59,0,0,0,194.3,559.87Z"/><path class="cls-6" d="M204.28,555.58v5.06a3,3,0,0,0-1.2-1.42,3.64,3.64,0,0,0-2-.51,4,4,0,0,0-2.21.61,4.25,4.25,0,0,0-1.54,1.77,6.89,6.89,0,0,0,0,5.44,4.22,4.22,0,0,0,1.54,1.78,4,4,0,0,0,2.21.62,3.56,3.56,0,0,0,2-.52,3,3,0,0,0,1.2-1.41v1.8h3.05V555.58Zm-.6,10a2.23,2.23,0,0,1-3.16,0,3,3,0,0,1,0-3.57,2.26,2.26,0,0,1,3.16,0,2.85,2.85,0,0,1,0,3.55Z"/><path class="cls-6" d="M209.44,558.83v10h3.06v-10Zm2.86-4a2.16,2.16,0,0,0-2.64,0,1.48,1.48,0,0,0-.5,1.15,1.45,1.45,0,0,0,.5,1.14,2.12,2.12,0,0,0,2.64,0,1.45,1.45,0,0,0,.5-1.14A1.48,1.48,0,0,0,212.3,554.87Z"/><path class="cls-6" d="M221.58,558.83v1.81a3.18,3.18,0,0,0-1.22-1.42,3.64,3.64,0,0,0-2-.51,4,4,0,0,0-2.21.61,4.25,4.25,0,0,0-1.54,1.77,6.89,6.89,0,0,0,0,5.44,4.22,4.22,0,0,0,1.54,1.78,4,4,0,0,0,2.21.62,3.56,3.56,0,0,0,2-.52,3.21,3.21,0,0,0,1.22-1.41v1.8h3v-10Zm-.62,6.76a2.23,2.23,0,0,1-3.16,0,3,3,0,0,1,0-3.57,2.26,2.26,0,0,1,3.16,0,2.85,2.85,0,0,1,0,3.55Z"/><path class="cls-6" d="M482.6,747.88v2h2.86v8.61h2.59v-8.61H491v-2Z"/><path class="cls-6" d="M499.66,751a2.9,2.9,0,0,0-2.29-1,3.05,3.05,0,0,0-1.68.44,2.71,2.71,0,0,0-1.08,1.19v-4.28H492v11.15h2.58v-4.46a2,2,0,0,1,.46-1.42,1.6,1.6,0,0,1,1.24-.5,1.52,1.52,0,0,1,1.18.48,1.82,1.82,0,0,1,.45,1.32v4.58h2.58v-4.88A3.88,3.88,0,0,0,499.66,751Z"/><path class="cls-6" d="M508.1,750.13v1.52a2.71,2.71,0,0,0-1-1.19,3,3,0,0,0-1.66-.44,3.47,3.47,0,0,0-1.86.52,3.52,3.52,0,0,0-1.29,1.5,5.7,5.7,0,0,0,0,4.58,3.37,3.37,0,0,0,3.15,2,3,3,0,0,0,1.66-.43,2.77,2.77,0,0,0,1-1.19v1.52h2.56v-8.41Zm-.52,5.69a1.9,1.9,0,0,1-2.67,0,2.48,2.48,0,0,1,0-3,1.71,1.71,0,0,1,1.33-.55,1.8,1.8,0,0,1,1.34.55,2.14,2.14,0,0,1,.52,1.5A2.11,2.11,0,0,1,507.58,755.82Z"/><path class="cls-6" d="M512.44,750.13v8.41H515v-8.41Zm2.41-3.34a1.65,1.65,0,0,0-1.12-.38,1.61,1.61,0,0,0-1.11.38,1.24,1.24,0,0,0-.43,1,1.22,1.22,0,0,0,.43,1,1.56,1.56,0,0,0,1.11.38,1.6,1.6,0,0,0,1.12-.38,1.24,1.24,0,0,0,.42-1A1.26,1.26,0,0,0,514.85,746.79Z"/><path class="cls-6" d="M516.79,747.39v11.15h2.58V747.39Z"/><path class="cls-6" d="M527,750.13v1.52a2.63,2.63,0,0,0-1-1.19,3.07,3.07,0,0,0-1.66-.44,3.47,3.47,0,0,0-1.86.52,3.61,3.61,0,0,0-1.3,1.5,5.81,5.81,0,0,0,0,4.58,3.49,3.49,0,0,0,1.3,1.5,3.39,3.39,0,0,0,1.86.52,3.06,3.06,0,0,0,1.66-.43,2.68,2.68,0,0,0,1-1.19v1.52h2.56v-8.41Zm-.52,5.69a1.7,1.7,0,0,1-1.33.56,1.76,1.76,0,0,1-1.34-.54,2.52,2.52,0,0,1,0-3,1.74,1.74,0,0,1,1.34-.55,1.76,1.76,0,0,1,1.33.55,2.09,2.09,0,0,1,.52,1.5A2.07,2.07,0,0,1,526.5,755.82Z"/><path class="cls-6" d="M539,751a2.9,2.9,0,0,0-2.29-1,3.05,3.05,0,0,0-1.68.44,2.71,2.71,0,0,0-1.08,1.19v-1.54h-2.58v8.41h2.58v-4.46a2,2,0,0,1,.46-1.42,1.6,1.6,0,0,1,1.24-.5,1.52,1.52,0,0,1,1.18.48,1.82,1.82,0,0,1,.45,1.32v4.58h2.58v-4.88A3.88,3.88,0,0,0,539,751Z"/><path class="cls-6" d="M547.41,747.39v4.26a2.55,2.55,0,0,0-1-1.19,3,3,0,0,0-1.66-.44,3.47,3.47,0,0,0-1.86.52,3.52,3.52,0,0,0-1.29,1.5,5.7,5.7,0,0,0,0,4.58,3.37,3.37,0,0,0,3.15,2,3,3,0,0,0,1.66-.43,2.6,2.6,0,0,0,1-1.19v1.52H550V747.39Zm-.5,8.43a1.9,1.9,0,0,1-2.67,0,2.48,2.48,0,0,1,0-3,1.7,1.7,0,0,1,1.33-.55,1.8,1.8,0,0,1,1.34.55,2.14,2.14,0,0,1,.52,1.5A2.11,2.11,0,0,1,546.91,755.82Z"/><path class="cls-6" d="M1059.79,310.41l4.15-5.88v-1.74h-6.65v1.83h4.07l-4.12,5.9v1.74H1064v-1.85Z"/><path class="cls-6" d="M1070.51,304.78v4a1.78,1.78,0,0,1-.4,1.26,1.58,1.58,0,0,1-2.17,0,1.69,1.69,0,0,1-.39-1.19v-4.06h-2.28v4.35a3.43,3.43,0,0,0,.76,2.36,2.57,2.57,0,0,0,2,.85,2.77,2.77,0,0,0,1.48-.39,2.35,2.35,0,0,0,1-1v1.35h2.3v-7.48Z"/><path class="cls-6" d="M1074.4,304.78v7.48h2.29v-7.48Zm2.14-3a1.58,1.58,0,0,0-2,0,1.15,1.15,0,0,0,0,1.71,1.61,1.61,0,0,0,2,0,1.15,1.15,0,0,0,0-1.71Z"/><path class="cls-6" d="M1083.48,302.34v3.8a2.2,2.2,0,0,0-.89-1.06,2.75,2.75,0,0,0-1.48-.39,3,3,0,0,0-1.66.46,3.2,3.2,0,0,0-1.15,1.33,5.16,5.16,0,0,0,0,4.08,3.14,3.14,0,0,0,1.15,1.33,3,3,0,0,0,1.66.47,2.75,2.75,0,0,0,1.48-.39,2.2,2.2,0,0,0,.89-1.06v1.35h2.29v-9.92Zm-.45,7.51a1.67,1.67,0,0,1-2.37,0,2.22,2.22,0,0,1,0-2.68,1.56,1.56,0,0,1,1.19-.48,1.53,1.53,0,0,1,1.18.49,2.12,2.12,0,0,1,0,2.66Z"/><path class="cls-6" d="M1086.65,306.61v1.9h5.91v-1.9Z"/><path class="cls-6" d="M1065.7,318.87H1063l-3.24,4.17v-4.17h-2.29v9.47h2.29V324.1l3.21,4.24h2.78l-3.82-4.83Z"/><path class="cls-6" d="M1073.53,322.57a3.36,3.36,0,0,0-1.38-1.34,4.29,4.29,0,0,0-2-.46,4.36,4.36,0,0,0-2,.46,3.42,3.42,0,0,0-1.38,1.34,4.39,4.39,0,0,0,0,4.07,3.42,3.42,0,0,0,1.38,1.34,4.36,4.36,0,0,0,2,.46,4.29,4.29,0,0,0,2-.46,3.36,3.36,0,0,0,1.38-1.34,4.39,4.39,0,0,0,0-4.07Zm-2.27,3.4a1.42,1.42,0,0,1-1.1.47,1.43,1.43,0,0,1-1.1-.47,1.89,1.89,0,0,1-.45-1.36,1.94,1.94,0,0,1,.45-1.38,1.43,1.43,0,0,1,1.1-.47,1.42,1.42,0,0,1,1.1.47,1.94,1.94,0,0,1,.44,1.38A1.89,1.89,0,0,1,1071.26,326Z"/><path class="cls-6" d="M1078.62,321.19a3.25,3.25,0,0,0-1.1,1.08v-1.4h-2.29v7.47h2.29v-3.4a1.56,1.56,0,0,1,.5-1.31,2.28,2.28,0,0,1,1.42-.39h.65v-2.45A2.85,2.85,0,0,0,1078.62,321.19Z"/><path class="cls-6" d="M1088.16,324.4a3.78,3.78,0,0,0-.46-1.89,3.23,3.23,0,0,0-1.31-1.28,4,4,0,0,0-2-.46,4.13,4.13,0,0,0-2,.46,3.36,3.36,0,0,0-1.34,1.33,4.28,4.28,0,0,0-.47,2.05,4.14,4.14,0,0,0,.48,2,3.36,3.36,0,0,0,1.33,1.34,4.13,4.13,0,0,0,2,.46,4,4,0,0,0,1.71-.36,3.39,3.39,0,0,0,1.26-1,3.22,3.22,0,0,0,.64-1.42h-2.43a1.2,1.2,0,0,1-.44.66,1.33,1.33,0,0,1-.84.25,1.35,1.35,0,0,1-1-.37,1.69,1.69,0,0,1-.43-1.21h5.18A2.81,2.81,0,0,0,1088.16,324.4Zm-5.24-.34a1.56,1.56,0,0,1,.47-1.1,1.5,1.5,0,0,1,1-.38,1.46,1.46,0,0,1,1,.37,1.38,1.38,0,0,1,.39,1.11Z"/><path class="cls-6" d="M1094.58,320.87v1.35a2.35,2.35,0,0,0-.91-1.06,2.7,2.7,0,0,0-1.48-.39,3.1,3.1,0,0,0-1.65.46,3.19,3.19,0,0,0-1.15,1.33,5.05,5.05,0,0,0,0,4.08,3.16,3.16,0,0,0,1.15,1.34,3.1,3.1,0,0,0,1.65.46,2.7,2.7,0,0,0,1.48-.39,2.35,2.35,0,0,0,.91-1.06v1.35h2.28v-7.47Zm-.46,5.06a1.69,1.69,0,0,1-2.38,0,2,2,0,0,1-.44-1.34,1.91,1.91,0,0,1,.44-1.34,1.53,1.53,0,0,1,1.19-.49,1.6,1.6,0,0,1,1.19.49,2.15,2.15,0,0,1,0,2.66Z"/><path class="cls-6" d="M1033.2,214.53v5.63l-3.68-5.63h-2.19v9.08h2.19V218l3.68,5.57h2.19v-9.08Z"/><path class="cls-6" d="M1043.49,218.08a3.25,3.25,0,0,0-1.32-1.28,4.37,4.37,0,0,0-3.82,0,3.22,3.22,0,0,0-1.33,1.28,4.2,4.2,0,0,0,0,3.9,3.22,3.22,0,0,0,1.33,1.28,4.37,4.37,0,0,0,3.82,0,3.25,3.25,0,0,0,1.32-1.28,4.2,4.2,0,0,0,0-3.9Zm-2.18,3.26a1.38,1.38,0,0,1-1,.45,1.41,1.41,0,0,1-1.06-.45,1.82,1.82,0,0,1-.43-1.31,1.86,1.86,0,0,1,.43-1.32,1.41,1.41,0,0,1,1.06-.45,1.38,1.38,0,0,1,1,.45,1.86,1.86,0,0,1,.43,1.32A1.82,1.82,0,0,1,1041.31,221.34Z"/><path class="cls-6" d="M1051.7,218.08a3.25,3.25,0,0,0-1.32-1.28,4,4,0,0,0-1.91-.44,4.05,4.05,0,0,0-1.92.44,3.34,3.34,0,0,0-1.33,1.28,4.2,4.2,0,0,0,0,3.9,3.34,3.34,0,0,0,1.33,1.28,4.05,4.05,0,0,0,1.92.44,4,4,0,0,0,1.91-.44,3.25,3.25,0,0,0,1.32-1.28,4.2,4.2,0,0,0,0-3.9Zm-2.18,3.26a1.38,1.38,0,0,1-1,.45,1.41,1.41,0,0,1-1.06-.45A1.82,1.82,0,0,1,1047,220a1.86,1.86,0,0,1,.43-1.32,1.41,1.41,0,0,1,1.06-.45,1.38,1.38,0,0,1,1,.45,1.9,1.9,0,0,1,.42,1.32A1.86,1.86,0,0,1,1049.52,221.34Z"/><path class="cls-6" d="M1056.58,216.75a3.19,3.19,0,0,0-1.06,1v-1.34h-2.2v7.16h2.2v-3.26a1.5,1.5,0,0,1,.48-1.26,2.16,2.16,0,0,1,1.36-.37h.63v-2.35A2.76,2.76,0,0,0,1056.58,216.75Z"/><path class="cls-6" d="M1063.91,214.11v3.63a2.22,2.22,0,0,0-.86-1,2.61,2.61,0,0,0-1.42-.37,2.83,2.83,0,0,0-1.58.44,3.07,3.07,0,0,0-1.11,1.27,5,5,0,0,0,0,3.91,3,3,0,0,0,1.11,1.28,2.83,2.83,0,0,0,1.58.44,2.61,2.61,0,0,0,1.42-.37,2.22,2.22,0,0,0,.86-1v1.29h2.19v-9.5Zm-.43,7.19a1.61,1.61,0,0,1-2.28,0,2.12,2.12,0,0,1,0-2.56,1.49,1.49,0,0,1,1.14-.47,1.52,1.52,0,0,1,1.14.47,2.07,2.07,0,0,1,0,2.55Z"/><path class="cls-6" d="M1066.94,218.19V220h5.66v-1.83Z"/><path class="cls-6" d="M1035.26,230h-2.63l-3.11,4v-4h-2.19V239h2.19V235l3.09,4.08h2.65l-3.66-4.64Z"/><path class="cls-6" d="M1042.77,233.49a3.25,3.25,0,0,0-1.32-1.28,4.37,4.37,0,0,0-3.82,0,3.22,3.22,0,0,0-1.33,1.28,3.86,3.86,0,0,0-.48,1.95,3.81,3.81,0,0,0,.48,1.95,3.16,3.16,0,0,0,1.33,1.28,4.28,4.28,0,0,0,3.82,0,3.19,3.19,0,0,0,1.32-1.28,3.81,3.81,0,0,0,.48-1.95A3.86,3.86,0,0,0,1042.77,233.49Zm-2.17,3.26a1.47,1.47,0,0,1-2.12,0,2.21,2.21,0,0,1,0-2.62,1.45,1.45,0,0,1,2.12,0,2.25,2.25,0,0,1,0,2.62Z"/><path class="cls-6" d="M1047.65,232.17a3.1,3.1,0,0,0-1.06,1v-1.35h-2.19V239h2.19v-3.27a1.5,1.5,0,0,1,.48-1.26,2.26,2.26,0,0,1,1.36-.37h.63v-2.35A2.7,2.7,0,0,0,1047.65,232.17Z"/><path class="cls-6" d="M1056.79,235.25a3.71,3.71,0,0,0-.44-1.82,3.19,3.19,0,0,0-1.25-1.22,3.81,3.81,0,0,0-1.88-.44,3.91,3.91,0,0,0-1.87.44,3.13,3.13,0,0,0-1.28,1.27,4,4,0,0,0-.46,2,3.91,3.91,0,0,0,.46,1.95,3.16,3.16,0,0,0,1.28,1.28,3.83,3.83,0,0,0,1.87.45,3.93,3.93,0,0,0,1.63-.34,3.32,3.32,0,0,0,1.21-.94,3,3,0,0,0,.61-1.36h-2.32a1.14,1.14,0,0,1-.42.63,1.35,1.35,0,0,1-.81.25,1.29,1.29,0,0,1-.95-.36,1.61,1.61,0,0,1-.41-1.16h5A3.19,3.19,0,0,0,1056.79,235.25Zm-5-.33a1.47,1.47,0,0,1,.45-1.06,1.43,1.43,0,0,1,1-.36,1.37,1.37,0,0,1,1,.36,1.3,1.3,0,0,1,.38,1.06Z"/><path class="cls-6" d="M1062.94,231.86v1.3a2.28,2.28,0,0,0-.87-1,2.58,2.58,0,0,0-1.41-.37,3,3,0,0,0-1.59.44,3,3,0,0,0-1.1,1.27,4.46,4.46,0,0,0-.41,2,4.38,4.38,0,0,0,.41,1.95,3,3,0,0,0,1.1,1.28,2.89,2.89,0,0,0,1.59.45,2.58,2.58,0,0,0,1.41-.38,2.25,2.25,0,0,0,.87-1V239h2.19v-7.17Zm-.44,4.85a1.5,1.5,0,0,1-1.14.48,1.45,1.45,0,0,1-1.13-.46,1.81,1.81,0,0,1-.43-1.29,1.79,1.79,0,0,1,.43-1.28,1.45,1.45,0,0,1,1.13-.46,1.51,1.51,0,0,1,1.14.46,1.82,1.82,0,0,1,.44,1.28A1.8,1.8,0,0,1,1062.5,236.71Z"/><path class="cls-6" d="M644,32.6,640.43,42l-3.67-9.42h-4V46.12H636V37.65l3,8.47h2.85l2.93-8.45v8.45H648V32.6Z"/><path class="cls-6" d="M660.18,37.82a4.85,4.85,0,0,0-2-1.91,6,6,0,0,0-2.86-.67,6,6,0,0,0-2.87.67,4.82,4.82,0,0,0-2,1.91,6.25,6.25,0,0,0,0,5.86,4.82,4.82,0,0,0,2,1.91,6,6,0,0,0,2.87.67,6,6,0,0,0,2.86-.67,4.85,4.85,0,0,0,2-1.91,6.32,6.32,0,0,0,0-5.86Zm-3.26,4.89a2.1,2.1,0,0,1-1.58.68,2.12,2.12,0,0,1-1.59-.68,2.71,2.71,0,0,1-.64-2,2.75,2.75,0,0,1,.64-2,2.09,2.09,0,0,1,1.59-.69,2.07,2.07,0,0,1,1.58.69,2.79,2.79,0,0,1,.63,2A2.75,2.75,0,0,1,656.92,42.71Z"/><path class="cls-6" d="M672.37,36.49a3.7,3.7,0,0,0-2.93-1.23,4.08,4.08,0,0,0-2.15.56,3.56,3.56,0,0,0-1.38,1.52v-2h-3.29V46.12h3.29v-5.7a2.59,2.59,0,0,1,.59-1.81,2.06,2.06,0,0,1,1.59-.63,2,2,0,0,1,1.51.6,2.38,2.38,0,0,1,.57,1.69v5.85h3.29V39.88A5,5,0,0,0,672.37,36.49Z"/><path class="cls-6" d="M683.15,35.38v1.94a3.34,3.34,0,0,0-1.31-1.52,3.92,3.92,0,0,0-2.12-.56,4.32,4.32,0,0,0-2.38.67,4.52,4.52,0,0,0-1.65,1.9,7.37,7.37,0,0,0,0,5.87,4.49,4.49,0,0,0,1.65,1.91,4.32,4.32,0,0,0,2.38.67,3.92,3.92,0,0,0,2.12-.56,3.34,3.34,0,0,0,1.31-1.52v1.89a2.44,2.44,0,0,1-.63,1.87,2.29,2.29,0,0,1-1.64.59,2.5,2.5,0,0,1-1.44-.37,1.62,1.62,0,0,1-.7-1h-3.26a4.69,4.69,0,0,0,1.75,3.11,6.06,6.06,0,0,0,3.88,1.15,5.71,5.71,0,0,0,3-.71,4.51,4.51,0,0,0,1.78-1.92,6.22,6.22,0,0,0,.57-2.7V35.38Zm-.67,7.28a2.23,2.23,0,0,1-1.7.71,2.21,2.21,0,0,1-1.7-.69,3.19,3.19,0,0,1,0-3.86,2.21,2.21,0,0,1,1.7-.69,2.26,2.26,0,0,1,1.7.7,3.07,3.07,0,0,1,0,3.83Z"/><path class="cls-6" d="M698.56,37.82a4.85,4.85,0,0,0-2-1.91,6,6,0,0,0-2.86-.67,6,6,0,0,0-2.87.67,4.82,4.82,0,0,0-2,1.91,6.32,6.32,0,0,0,0,5.86,4.82,4.82,0,0,0,2,1.91,6,6,0,0,0,2.87.67,6,6,0,0,0,2.86-.67,4.85,4.85,0,0,0,2-1.91,6.25,6.25,0,0,0,0-5.86Zm-3.26,4.89a2.08,2.08,0,0,1-1.58.68,2.12,2.12,0,0,1-1.59-.68,2.71,2.71,0,0,1-.64-2,2.75,2.75,0,0,1,.64-2,2.09,2.09,0,0,1,1.59-.69,2.05,2.05,0,0,1,1.58.69,2.79,2.79,0,0,1,.64,2A2.75,2.75,0,0,1,695.3,42.71Z"/><path class="cls-6" d="M701,31.87V46.12h3.29V31.87Z"/><path class="cls-6" d="M706.57,35.38V46.12h3.29V35.38Zm3.08-4.27a2,2,0,0,0-1.43-.49,2,2,0,0,0-1.42.49,1.68,1.68,0,0,0,0,2.47,2.06,2.06,0,0,0,1.42.49,2.08,2.08,0,0,0,1.43-.49,1.68,1.68,0,0,0,0-2.47Z"/><path class="cls-6" d="M719.9,31.78a1.32,1.32,0,0,0-1-.41,1.29,1.29,0,0,0-1,.41,1.35,1.35,0,0,0-.4,1,1.3,1.3,0,0,0,.4,1,1.32,1.32,0,0,0,1,.4,1.37,1.37,0,0,0,1.39-1.37A1.39,1.39,0,0,0,719.9,31.78Zm-3.89,0a1.4,1.4,0,0,0-2,0,1.35,1.35,0,0,0-.4,1,1.3,1.3,0,0,0,.4,1,1.39,1.39,0,0,0,2.38-1A1.39,1.39,0,0,0,716,31.78Zm6.33,8.68a5.38,5.38,0,0,0-.67-2.72,4.6,4.6,0,0,0-1.87-1.84,5.82,5.82,0,0,0-2.82-.66,5.75,5.75,0,0,0-2.81.67,4.66,4.66,0,0,0-1.91,1.9,6,6,0,0,0-.69,2.94,5.88,5.88,0,0,0,.7,2.93,4.75,4.75,0,0,0,1.91,1.91,6.16,6.16,0,0,0,5.25.16,5,5,0,0,0,1.81-1.41,4.54,4.54,0,0,0,.92-2h-3.48a1.72,1.72,0,0,1-.64.94,1.9,1.9,0,0,1-1.21.37,2,2,0,0,1-1.43-.53,2.49,2.49,0,0,1-.61-1.74h7.45A5,5,0,0,0,722.34,40.46Zm-7.53-.5a2.25,2.25,0,0,1,.67-1.58,2.16,2.16,0,0,1,1.5-.54,2.11,2.11,0,0,1,1.46.53A2,2,0,0,1,719,40Z"/><path class="cls-6" d="M32.21,23.35H28.05l-4.91,6.31V23.35H19.67V37.7h3.47V31.26L28,37.7h4.2l-5.79-7.33Z"/><path class="cls-6" d="M41.58,26.38v2.05a3.6,3.6,0,0,0-1.38-1.61A4.12,4.12,0,0,0,38,26.23a4.65,4.65,0,0,0-2.51.7,4.77,4.77,0,0,0-1.74,2,7,7,0,0,0-.64,3.1,7,7,0,0,0,.64,3.08,4.74,4.74,0,0,0,1.74,2,4.65,4.65,0,0,0,2.51.7,4.12,4.12,0,0,0,2.23-.59,3.58,3.58,0,0,0,1.38-1.6V37.7H45V26.38ZM40.88,34a2.52,2.52,0,0,1-3.59,0,2.81,2.81,0,0,1-.68-2,2.82,2.82,0,0,1,.68-2,2.32,2.32,0,0,1,1.79-.73,2.35,2.35,0,0,1,1.8.74,3.24,3.24,0,0,1,0,4Z"/><path class="cls-6" d="M50.48,34.8l5-5.69V26.38H46.77v2.88h4.79L46.69,35V37.7h9V34.8Z"/><path class="cls-6" d="M65.27,26.38v2.05a3.6,3.6,0,0,0-1.38-1.61,4.12,4.12,0,0,0-2.23-.59,4.67,4.67,0,0,0-2.51.7,4.91,4.91,0,0,0-1.74,2,7,7,0,0,0-.64,3.1,7,7,0,0,0,.64,3.08,4.88,4.88,0,0,0,1.74,2,4.67,4.67,0,0,0,2.51.7,4.12,4.12,0,0,0,2.23-.59,3.58,3.58,0,0,0,1.38-1.6V37.7h3.45V26.38ZM64.57,34a2.52,2.52,0,0,1-3.59,0,2.85,2.85,0,0,1-.68-2A2.86,2.86,0,0,1,61,30a2.32,2.32,0,0,1,1.79-.73,2.34,2.34,0,0,1,1.8.74,3.24,3.24,0,0,1,0,4Z"/><path class="cls-6" d="M77.42,34.45a2,2,0,0,1-1.28.41,1.85,1.85,0,0,1-1.5-.72,3.26,3.26,0,0,1-.59-2.1,3.26,3.26,0,0,1,.59-2.1,1.85,1.85,0,0,1,1.5-.72,2,2,0,0,1,1.28.4,1.94,1.94,0,0,1,.67,1.14h3.67a5.41,5.41,0,0,0-1.86-3.32,5.68,5.68,0,0,0-3.68-1.21,6.25,6.25,0,0,0-3,.7,5,5,0,0,0-2,2,6.95,6.95,0,0,0,0,6.18,5,5,0,0,0,2,2,6.18,6.18,0,0,0,3,.7,5.62,5.62,0,0,0,3.68-1.21,5.38,5.38,0,0,0,1.86-3.32H78.09A1.94,1.94,0,0,1,77.42,34.45Z"/><path class="cls-6" d="M93.84,27.55a3.92,3.92,0,0,0-3.09-1.3,4.25,4.25,0,0,0-2.26.59A3.7,3.7,0,0,0,87,28.45V22.68H83.57v15H87v-6a2.74,2.74,0,0,1,.61-1.91,2.21,2.21,0,0,1,1.68-.67,2.1,2.1,0,0,1,1.59.64,2.51,2.51,0,0,1,.6,1.78V37.7H95V31.12A5.19,5.19,0,0,0,93.84,27.55Z"/><path class="cls-6" d="M106,32.6a3.46,3.46,0,0,0-1.44-1,16.41,16.41,0,0,0-2.13-.62,8.1,8.1,0,0,1-1.75-.53.84.84,0,0,1-.56-.79.89.89,0,0,1,.3-.72,1.38,1.38,0,0,1,.9-.25,1.94,1.94,0,0,1,1.24.39,1.77,1.77,0,0,1,.64,1.09h3.25a4.68,4.68,0,0,0-1.61-2.84,5.19,5.19,0,0,0-3.44-1.08,5,5,0,0,0-3.27.95A3,3,0,0,0,97,29.64a2.74,2.74,0,0,0,.58,1.86,3.47,3.47,0,0,0,1.4,1,14,14,0,0,0,2.07.57,10.17,10.17,0,0,1,1.82.54.87.87,0,0,1,.56.84.93.93,0,0,1-.31.72,1.3,1.3,0,0,1-.89.27,2.31,2.31,0,0,1-1.39-.38,1.53,1.53,0,0,1-.62-1.12H96.85a4.29,4.29,0,0,0,1.69,2.9,6,6,0,0,0,3.67,1,5.8,5.8,0,0,0,2.35-.43,3.44,3.44,0,0,0,1.52-1.17,2.88,2.88,0,0,0,.53-1.73A2.83,2.83,0,0,0,106,32.6Z"/><path class="cls-6" d="M113.85,34.71a1,1,0,0,1-1.19-1.19V29.3h2.27V26.38h-2.27V23.6h-3.47v2.78h-1.52V29.3h1.52v4.16a4.18,4.18,0,0,0,1.1,3.25,4.49,4.49,0,0,0,3.1,1H115v-3Z"/><path class="cls-6" d="M124.81,26.38v2.05a3.6,3.6,0,0,0-1.38-1.61,4.12,4.12,0,0,0-2.23-.59,4.65,4.65,0,0,0-2.51.7,4.77,4.77,0,0,0-1.74,2,7,7,0,0,0-.64,3.1,7,7,0,0,0,.64,3.08,4.74,4.74,0,0,0,1.74,2,4.65,4.65,0,0,0,2.51.7,4.12,4.12,0,0,0,2.23-.59,3.58,3.58,0,0,0,1.38-1.6V37.7h3.45V26.38Zm-.7,7.66a2.52,2.52,0,0,1-3.59,0,2.81,2.81,0,0,1-.68-2,2.82,2.82,0,0,1,.68-2,2.32,2.32,0,0,1,1.79-.73,2.35,2.35,0,0,1,1.8.74,3.24,3.24,0,0,1,0,4Z"/><path class="cls-6" d="M140.92,27.55a3.92,3.92,0,0,0-3.09-1.3,4.25,4.25,0,0,0-2.26.59,3.76,3.76,0,0,0-1.45,1.61V26.38h-3.47V37.7h3.47v-6a2.7,2.7,0,0,1,.62-1.91,2.18,2.18,0,0,1,1.67-.67,2.1,2.1,0,0,1,1.59.64,2.51,2.51,0,0,1,.6,1.78V37.7h3.47V31.12A5.19,5.19,0,0,0,140.92,27.55Z"/><path class="cls-6" d="M11.08,170H8.21l-3.39,4.34V170H2.43v9.88H4.82v-4.43l3.36,4.43h2.9l-4-5Z"/><path class="cls-6" d="M12.08,172.08v7.8h2.39v-7.8Zm2.24-3.1a1.47,1.47,0,0,0-1-.35,1.46,1.46,0,0,0-1,.35,1.17,1.17,0,0,0-.39.9,1.15,1.15,0,0,0,.39.89,1.47,1.47,0,0,0,1,.36,1.48,1.48,0,0,0,1-.36,1.15,1.15,0,0,0,.39-.89A1.17,1.17,0,0,0,14.32,169Z"/><path class="cls-6" d="M19.67,172.41a3.42,3.42,0,0,0-1.16,1.14v-1.47H16.12v7.8h2.39v-3.55A1.63,1.63,0,0,1,19,175a2.36,2.36,0,0,1,1.47-.41h.69V172A3,3,0,0,0,19.67,172.41Z"/><path class="cls-6" d="M27.66,172.08v1.41a2.48,2.48,0,0,0-.95-1.1,2.83,2.83,0,0,0-1.54-.41,3.19,3.19,0,0,0-1.73.48,3.34,3.34,0,0,0-1.2,1.39A4.85,4.85,0,0,0,21.8,176a4.91,4.91,0,0,0,.44,2.13,3.28,3.28,0,0,0,1.2,1.39,3.19,3.19,0,0,0,1.73.48,2.83,2.83,0,0,0,1.54-.41,2.42,2.42,0,0,0,.95-1.1v1.37a1.76,1.76,0,0,1-.46,1.36,1.64,1.64,0,0,1-1.19.43,1.8,1.8,0,0,1-1-.27,1.12,1.12,0,0,1-.51-.74H22.09a3.36,3.36,0,0,0,1.27,2.26,4.38,4.38,0,0,0,2.82.83,4.2,4.2,0,0,0,2.15-.51,3.22,3.22,0,0,0,1.29-1.4,4.44,4.44,0,0,0,.42-2v-7.76Zm-.48,5.28a1.76,1.76,0,0,1-2.48,0,2.32,2.32,0,0,1,0-2.8,1.63,1.63,0,0,1,1.24-.5,1.65,1.65,0,0,1,1.24.51,2.24,2.24,0,0,1,0,2.77Z"/><path class="cls-6" d="M31.69,172.08v7.8h2.39v-7.8Zm2.23-3.1a1.45,1.45,0,0,0-1-.35,1.47,1.47,0,0,0-1,.35,1.17,1.17,0,0,0-.39.9,1.15,1.15,0,0,0,.39.89,1.48,1.48,0,0,0,1,.36,1.45,1.45,0,0,0,1-.36,1.15,1.15,0,0,0,.39-.89A1.17,1.17,0,0,0,33.92,169Z"/><path class="cls-6" d="M41.74,176.37a2.43,2.43,0,0,0-1-.7,11.8,11.8,0,0,0-1.47-.43,6,6,0,0,1-1.21-.36.6.6,0,0,1-.39-.55.63.63,0,0,1,.21-.5,1,1,0,0,1,.62-.17,1.36,1.36,0,0,1,.86.27,1.24,1.24,0,0,1,.44.75h2.24a3.26,3.26,0,0,0-1.11-2,3.64,3.64,0,0,0-2.38-.74,3.5,3.5,0,0,0-2.25.65,2.1,2.1,0,0,0-.79,1.7,1.89,1.89,0,0,0,.4,1.28,2.35,2.35,0,0,0,1,.68,9.57,9.57,0,0,0,1.42.39,6.53,6.53,0,0,1,1.25.37.6.6,0,0,1,.39.58.64.64,0,0,1-.21.5.94.94,0,0,1-.62.19,1.55,1.55,0,0,1-.95-.27,1,1,0,0,1-.43-.77H35.43a3,3,0,0,0,1.16,2,4.17,4.17,0,0,0,2.53.7,4.24,4.24,0,0,0,1.63-.29,2.56,2.56,0,0,0,1-.81,2.06,2.06,0,0,0,.36-1.19A2,2,0,0,0,41.74,176.37Z"/><path class="cls-6" d="M47.15,177.83a.88.88,0,0,1-.64-.19.89.89,0,0,1-.18-.64v-2.91h1.56v-2H46.33v-1.92h-2.4v1.92h-1v2h1V177a2.86,2.86,0,0,0,.77,2.24,3,3,0,0,0,2.13.68h1.08v-2Z"/><path class="cls-6" d="M54.7,172.08v1.41a2.42,2.42,0,0,0-1-1.1,2.83,2.83,0,0,0-1.54-.41,3.14,3.14,0,0,0-1.72.48,3.43,3.43,0,0,0-1.21,1.39,4.85,4.85,0,0,0-.44,2.13,4.91,4.91,0,0,0,.44,2.13,3.37,3.37,0,0,0,1.21,1.39,3.14,3.14,0,0,0,1.72.48,2.83,2.83,0,0,0,1.54-.41,2.37,2.37,0,0,0,1-1.1v1.41h2.38v-7.8Zm-.48,5.28a1.59,1.59,0,0,1-1.24.52,1.65,1.65,0,0,1-1.24-.5,2.36,2.36,0,0,1,0-2.8,1.65,1.65,0,0,1,1.24-.5,1.62,1.62,0,0,1,1.24.51,2.24,2.24,0,0,1,0,2.77Z"/><path class="cls-6" d="M65.81,172.89a2.69,2.69,0,0,0-2.13-.89,2.92,2.92,0,0,0-1.56.4,2.56,2.56,0,0,0-1,1.11v-1.43H58.73v7.8h2.39v-4.14a1.83,1.83,0,0,1,.43-1.31A1.46,1.46,0,0,1,62.7,174a1.42,1.42,0,0,1,1.1.44,1.73,1.73,0,0,1,.41,1.22v4.25H66.6v-4.53A3.58,3.58,0,0,0,65.81,172.89Z"/><path class="cls-6" d="M969.77,728v-1.74h-5.9v9h2.19v-3.65h2.86V730h-2.86v-2Z"/><path class="cls-6" d="M970.89,728.15v7.13h2.19v-7.13Zm2.05-2.83a1.53,1.53,0,0,0-1.9,0,1.07,1.07,0,0,0-.35.82,1.05,1.05,0,0,0,.35.81,1.53,1.53,0,0,0,1.9,0,1,1,0,0,0,.35-.81A1,1,0,0,0,972.94,725.32Z"/><path class="cls-6" d="M974.59,725.82v9.46h2.18v-9.46Z"/><path class="cls-6" d="M978.28,728.15v7.13h2.19v-7.13Zm2.05-2.83a1.53,1.53,0,0,0-1.9,0,1,1,0,0,0-.36.82,1,1,0,0,0,.36.81,1.53,1.53,0,0,0,1.9,0,1.05,1.05,0,0,0,.35-.81A1.07,1.07,0,0,0,980.33,725.32Z"/><path class="cls-6" d="M989.1,729.77a3,3,0,0,0-1.1-1.27,2.91,2.91,0,0,0-1.58-.44,2.54,2.54,0,0,0-1.4.37,2.12,2.12,0,0,0-.86,1v-1.29H982v10.53h2.19V734a2.12,2.12,0,0,0,.86,1,2.54,2.54,0,0,0,1.4.37,2.91,2.91,0,0,0,1.58-.44,3,3,0,0,0,1.1-1.27,4.93,4.93,0,0,0,0-3.89ZM986.85,733a1.61,1.61,0,0,1-2.26,0,1.75,1.75,0,0,1-.44-1.26,1.76,1.76,0,0,1,.44-1.28,1.62,1.62,0,0,1,2.26,0,2.11,2.11,0,0,1,0,2.55Z"/><path class="cls-6" d="M990.64,728.15v7.13h2.19v-7.13Zm2.05-2.83a1.53,1.53,0,0,0-1.9,0,1.07,1.07,0,0,0-.35.82,1.05,1.05,0,0,0,.35.81,1.53,1.53,0,0,0,1.9,0,1.05,1.05,0,0,0,.35-.81A1.07,1.07,0,0,0,992.69,725.32Z"/><path class="cls-6" d="M996.39,725.32a1.52,1.52,0,0,0-1.89,0,1,1,0,0,0-.36.82,1,1,0,0,0,.36.81,1.52,1.52,0,0,0,1.89,0,1,1,0,0,0,.36-.81A1,1,0,0,0,996.39,725.32Zm-2,2.83v8a.7.7,0,0,1-.15.5.76.76,0,0,1-.5.14h-.54v1.88H994a2.25,2.25,0,0,0,2.56-2.54v-8Z"/><path class="cls-6" d="M1004.52,728.89a2.48,2.48,0,0,0-1.95-.82,2.67,2.67,0,0,0-1.43.37,2.4,2.4,0,0,0-.91,1v-1.3H998v7.13h2.19V731.5a1.7,1.7,0,0,1,.39-1.2,1.34,1.34,0,0,1,1-.43,1.3,1.3,0,0,1,1,.41,1.51,1.51,0,0,1,.38,1.11v3.89h2.19v-4.14A3.29,3.29,0,0,0,1004.52,728.89Z"/><path class="cls-6" d="M1013.46,731.52a3.7,3.7,0,0,0-.44-1.81,3.12,3.12,0,0,0-1.25-1.22,3.87,3.87,0,0,0-1.86-.43,3.91,3.91,0,0,0-1.87.44,3,3,0,0,0-1.27,1.27,3.91,3.91,0,0,0-.46,2,4,4,0,0,0,.46,1.94,3.17,3.17,0,0,0,1.27,1.27,3.94,3.94,0,0,0,1.87.44,3.76,3.76,0,0,0,1.62-.34,3.35,3.35,0,0,0,1.2-.93,3.07,3.07,0,0,0,.61-1.35H1011a1.14,1.14,0,0,1-.42.63,1.3,1.3,0,0,1-.81.24,1.32,1.32,0,0,1-.94-.35,1.63,1.63,0,0,1-.41-1.16h4.94A2.55,2.55,0,0,0,1013.46,731.52Zm-5-.33a1.47,1.47,0,0,1,.45-1.05,1.41,1.41,0,0,1,1-.36,1.36,1.36,0,0,1,1,.36,1.29,1.29,0,0,1,.38,1.05Z"/><path class="cls-6" d="M1021.07,728.89a2.45,2.45,0,0,0-2-.82,2.64,2.64,0,0,0-1.42.37,2.42,2.42,0,0,0-.92,1v-1.3h-2.18v7.13h2.18V731.5a1.7,1.7,0,0,1,.39-1.2,1.34,1.34,0,0,1,1.06-.43,1.31,1.31,0,0,1,1,.41,1.56,1.56,0,0,1,.38,1.11v3.89h2.18v-4.14A3.29,3.29,0,0,0,1021.07,728.89Z"/><path class="cls-6" d="M955.05,574.94v1.63h2.28v6.85h2.06v-6.85h2.3v-1.63Z"/><path class="cls-6" d="M967.24,576.72v1.22a2.11,2.11,0,0,0-.82-1,2.45,2.45,0,0,0-1.32-.35,2.77,2.77,0,0,0-1.48.41,2.86,2.86,0,0,0-1,1.19,4.6,4.6,0,0,0,0,3.66,2.8,2.8,0,0,0,1,1.19,2.68,2.68,0,0,0,1.48.41,2.45,2.45,0,0,0,1.32-.34,2.16,2.16,0,0,0,.82-.95v1.21h2v-6.7Zm-.42,4.54a1.51,1.51,0,0,1-2.12,0,2,2,0,0,1,0-2.4,1.37,1.37,0,0,1,1.06-.43,1.39,1.39,0,0,1,1.06.44,1.9,1.9,0,0,1,0,2.38Z"/><path class="cls-6" d="M970.69,576.72v6.7h2.06v-6.7Zm1.92-2.65a1.42,1.42,0,0,0-1.77,0,1,1,0,0,0,0,1.53,1.42,1.42,0,0,0,1.77,0,1,1,0,0,0,0-1.53Z"/><path class="cls-6" d="M982.05,576.72l-.89,4.84-1.29-4.84h-2.18l-1.25,4.83-.89-4.83h-2l1.72,6.7h2.29l1.22-4.49,1.22,4.49h2.29l1.71-6.7Z"/><path class="cls-6" d="M989.38,576.72v1.22a2.11,2.11,0,0,0-.82-1,2.45,2.45,0,0,0-1.32-.35,2.77,2.77,0,0,0-1.48.41,2.86,2.86,0,0,0-1,1.19,4.6,4.6,0,0,0,0,3.66,2.8,2.8,0,0,0,1,1.19,2.68,2.68,0,0,0,1.48.41,2.45,2.45,0,0,0,1.32-.34,2.16,2.16,0,0,0,.82-.95v1.21h2v-6.7Zm-.42,4.54a1.51,1.51,0,0,1-2.12,0,2,2,0,0,1,0-2.4,1.37,1.37,0,0,1,1.06-.43,1.39,1.39,0,0,1,1.06.44,1.9,1.9,0,0,1,0,2.38Z"/><path class="cls-6" d="M998.91,577.42a2.32,2.32,0,0,0-1.83-.77,2.55,2.55,0,0,0-1.34.35,2.26,2.26,0,0,0-.86,1v-1.23h-2v6.7h2v-3.55a1.62,1.62,0,0,1,.37-1.13,1.32,1.32,0,0,1,1-.4,1.23,1.23,0,0,1,.94.38,1.45,1.45,0,0,1,.36,1v3.65h2.05v-3.89A3.09,3.09,0,0,0,998.91,577.42Z"/><path class="cls-3" d="M561.28,336.77a5,5,0,0,1-2.88.82,4.42,4.42,0,0,1-3.54-1.59,6.46,6.46,0,0,1-1.34-4.29,6.54,6.54,0,0,1,1.34-4.3,4.41,4.41,0,0,1,3.54-1.61,5.08,5.08,0,0,1,2.88.82,4.9,4.9,0,0,1,1.8,2.25h5.3a9.55,9.55,0,0,0-3.35-5.61,10.11,10.11,0,0,0-6.54-2.08,10.36,10.36,0,0,0-5.29,1.33,9,9,0,0,0-3.53,3.73,12.68,12.68,0,0,0,0,10.94,9,9,0,0,0,3.53,3.73,10.27,10.27,0,0,0,5.29,1.33,10.06,10.06,0,0,0,6.54-2.09,9.58,9.58,0,0,0,3.35-5.6h-5.3A4.87,4.87,0,0,1,561.28,336.77Z"/><path class="cls-3" d="M586,327.44a5.64,5.64,0,0,0-4.46-1.87,6.07,6.07,0,0,0-3.26.85,5.33,5.33,0,0,0-2.1,2.31v-8.31h-5v21.65h5v-8.66a3.88,3.88,0,0,1,.9-2.75,3.13,3.13,0,0,1,2.41-1,3,3,0,0,1,2.3.92,3.64,3.64,0,0,1,.86,2.56v8.9h5v-9.48A7.53,7.53,0,0,0,586,327.44Z"/><path class="cls-3" d="M591,325.75v16.32h5V325.75Zm4.67-6.48a3.49,3.49,0,0,0-4.32,0,2.54,2.54,0,0,0,0,3.74,3.49,3.49,0,0,0,4.32,0,2.54,2.54,0,0,0,0-3.74Z"/><path class="cls-3" d="M614.22,327.44a5.64,5.64,0,0,0-4.46-1.87,6.09,6.09,0,0,0-3.26.85,5.31,5.31,0,0,0-2.09,2.31v-3h-5v16.32h5v-8.66a3.92,3.92,0,0,1,.89-2.75,3.15,3.15,0,0,1,2.41-1,3,3,0,0,1,2.3.92,3.59,3.59,0,0,1,.86,2.56v8.9h5v-9.48A7.53,7.53,0,0,0,614.22,327.44Z"/><path class="cls-3" d="M630.59,325.75v2.95a5.2,5.2,0,0,0-2-2.31,5.88,5.88,0,0,0-3.22-.85,6.63,6.63,0,0,0-3.61,1,7,7,0,0,0-2.52,2.9,11.22,11.22,0,0,0,0,8.9,6.94,6.94,0,0,0,2.52,2.91,6.63,6.63,0,0,0,3.61,1,5.88,5.88,0,0,0,3.22-.85,5.09,5.09,0,0,0,2-2.31v3h5V325.75Zm-1,11.05a3.68,3.68,0,0,1-5.18,0,4.86,4.86,0,0,1,0-5.85,3.69,3.69,0,0,1,5.18,0,4.67,4.67,0,0,1,0,5.8Z"/><path class="cls-7" d="M876.67,446.64a2.79,2.79,0,0,0-1-.87,9.76,9.76,0,0,0-1.48-.6l-1-.37a1.73,1.73,0,0,1-.55-.38.88.88,0,0,1,0-1.19,1.12,1.12,0,0,1,1.38.06,1.19,1.19,0,0,1,.34.74h2.46a2.87,2.87,0,0,0-1-2,3.91,3.91,0,0,0-2.49-.74,4.4,4.4,0,0,0-1.72.32,2.77,2.77,0,0,0-1.18.94,2.5,2.5,0,0,0-.42,1.45,2.43,2.43,0,0,0,.4,1.46,2.69,2.69,0,0,0,1,.85,11.2,11.2,0,0,0,1.46.59c.4.14.72.27,1,.37a1.85,1.85,0,0,1,.58.39.85.85,0,0,1,.23.6.81.81,0,0,1-.25.63,1,1,0,0,1-.69.24,1.18,1.18,0,0,1-.83-.3,1.29,1.29,0,0,1-.38-.84h-2.41a2.78,2.78,0,0,0,1.11,2.15,4.16,4.16,0,0,0,2.6.77,3.91,3.91,0,0,0,1.79-.37,2.69,2.69,0,0,0,1.11-1,2.64,2.64,0,0,0,.38-1.37A2.53,2.53,0,0,0,876.67,446.64Z"/><path class="cls-7" d="M885.07,444.13a2.61,2.61,0,0,0-2-.85,2.75,2.75,0,0,0-1.48.39,2.36,2.36,0,0,0-.95,1.05V441h-2.27v9.82h2.27v-3.93a1.78,1.78,0,0,1,.41-1.25,1.42,1.42,0,0,1,1.09-.44,1.36,1.36,0,0,1,1,.42,1.64,1.64,0,0,1,.39,1.16v4h2.27v-4.3A3.47,3.47,0,0,0,885.07,444.13Z"/><path class="cls-7" d="M892.49,443.36v1.34a2.36,2.36,0,0,0-.9-1.05,2.76,2.76,0,0,0-1.46-.38,3,3,0,0,0-1.64.46,3.12,3.12,0,0,0-1.14,1.31,4.57,4.57,0,0,0-.42,2,4.51,4.51,0,0,0,.42,2,3.09,3.09,0,0,0,1.14,1.32,3,3,0,0,0,1.64.46,2.76,2.76,0,0,0,1.46-.38,2.36,2.36,0,0,0,.9-1.05v1.34h2.26v-7.41Zm-.46,5a1.5,1.5,0,0,1-1.17.49,1.54,1.54,0,0,1-1.18-.48,2.22,2.22,0,0,1,0-2.65,1.54,1.54,0,0,1,1.18-.48,1.5,1.5,0,0,1,1.17.49,1.81,1.81,0,0,1,.46,1.32A1.84,1.84,0,0,1,892,448.38Z"/><path class="cls-7" d="M903,444.13a2.6,2.6,0,0,0-2-.85,2.77,2.77,0,0,0-1.48.39,2.42,2.42,0,0,0-.95,1.05v-1.36h-2.27v7.41h2.27v-3.93a1.78,1.78,0,0,1,.41-1.25,1.42,1.42,0,0,1,1.09-.44,1.34,1.34,0,0,1,1,.42,1.6,1.6,0,0,1,.4,1.16v4h2.27v-4.3A3.43,3.43,0,0,0,903,444.13Z"/><path class="cls-7" d="M910.46,443.36v1.34a2.3,2.3,0,0,0-.9-1.05,2.74,2.74,0,0,0-1.46-.38,3,3,0,0,0-1.64.46,3.12,3.12,0,0,0-1.14,1.31,4.57,4.57,0,0,0-.42,2,4.51,4.51,0,0,0,.42,2,3.09,3.09,0,0,0,1.14,1.32,3,3,0,0,0,1.64.46,2.74,2.74,0,0,0,1.46-.38,2.3,2.3,0,0,0,.9-1.05v1.3A1.69,1.69,0,0,1,910,452a1.6,1.6,0,0,1-1.13.41,1.81,1.81,0,0,1-1-.25,1.12,1.12,0,0,1-.49-.71h-2.24a3.2,3.2,0,0,0,1.2,2.15,4.25,4.25,0,0,0,2.68.79,4,4,0,0,0,2-.49,3,3,0,0,0,1.22-1.33,4.16,4.16,0,0,0,.4-1.86v-7.37Zm-.46,5a1.5,1.5,0,0,1-1.17.49,1.54,1.54,0,0,1-1.18-.48,2.22,2.22,0,0,1,0-2.65,1.54,1.54,0,0,1,1.18-.48,1.5,1.5,0,0,1,1.17.49,1.81,1.81,0,0,1,.46,1.32A1.84,1.84,0,0,1,910,448.38Z"/><path class="cls-7" d="M921,444.13a2.6,2.6,0,0,0-2-.85,2.77,2.77,0,0,0-1.48.39,2.42,2.42,0,0,0-1,1.05V441h-2.27v9.82h2.27v-3.93a1.78,1.78,0,0,1,.41-1.25,1.42,1.42,0,0,1,1.09-.44,1.36,1.36,0,0,1,1.05.42,1.64,1.64,0,0,1,.39,1.16v4h2.27v-4.3A3.43,3.43,0,0,0,921,444.13Z"/><path class="cls-7" d="M928.43,443.36v1.34a2.3,2.3,0,0,0-.9-1.05,2.74,2.74,0,0,0-1.46-.38,3,3,0,0,0-1.64.46,3.12,3.12,0,0,0-1.14,1.31,4.57,4.57,0,0,0-.42,2,4.51,4.51,0,0,0,.42,2,3.09,3.09,0,0,0,1.14,1.32,3,3,0,0,0,1.64.46,2.74,2.74,0,0,0,1.46-.38,2.3,2.3,0,0,0,.9-1.05v1.34h2.26v-7.41Zm-.45,5a1.54,1.54,0,0,1-1.18.49,1.5,1.5,0,0,1-1.17-.48,2.18,2.18,0,0,1,0-2.65,1.5,1.5,0,0,1,1.17-.48,1.54,1.54,0,0,1,1.18.49,1.85,1.85,0,0,1,.45,1.32A1.88,1.88,0,0,1,928,448.38Z"/><path class="cls-7" d="M932.26,443.36v7.41h2.27v-7.41Zm2.12-2.94a1.44,1.44,0,0,0-1-.34,1.41,1.41,0,0,0-1,.34,1.12,1.12,0,0,0-.38.86,1.07,1.07,0,0,0,.38.84,1.36,1.36,0,0,0,1,.34,1.39,1.39,0,0,0,1-.34,1.07,1.07,0,0,0,.37-.84A1.11,1.11,0,0,0,934.38,440.42Z"/><path class="cls-1" d="M798,478.29l-2,4.26-2-4.26h-2.9l3.63,7v3.48h2.54v-3.48l3.63-7Z"/><path class="cls-1" d="M807.61,480.5V482a2.67,2.67,0,0,0-1-1.17,3,3,0,0,0-1.63-.43,3.36,3.36,0,0,0-1.83.51,3.46,3.46,0,0,0-1.27,1.47,5.64,5.64,0,0,0,0,4.51,3.46,3.46,0,0,0,1.27,1.47,3.36,3.36,0,0,0,1.83.51,3,3,0,0,0,1.63-.43,2.56,2.56,0,0,0,1-1.17v1.5h2.51V480.5Zm-.52,5.59a1.69,1.69,0,0,1-1.31.55,1.72,1.72,0,0,1-1.31-.53,2.48,2.48,0,0,1,0-3,1.86,1.86,0,0,1,2.62,0,2.34,2.34,0,0,1,0,2.94Z"/><path class="cls-1" d="M819.37,481.35a2.86,2.86,0,0,0-2.26-.94,3.08,3.08,0,0,0-1.65.43A2.67,2.67,0,0,0,814.4,482V480.5h-2.53v8.26h2.53v-4.38a2,2,0,0,1,.45-1.4,1.63,1.63,0,0,1,1.23-.49,1.52,1.52,0,0,1,1.16.47,1.83,1.83,0,0,1,.44,1.3v4.5h2.53V484A3.83,3.83,0,0,0,819.37,481.35Z"/><path class="cls-1" d="M827.66,480.5V482a2.67,2.67,0,0,0-1-1.17,3,3,0,0,0-1.63-.43,3.36,3.36,0,0,0-1.83.51,3.46,3.46,0,0,0-1.27,1.47,5.64,5.64,0,0,0,0,4.51,3.46,3.46,0,0,0,1.27,1.47,3.36,3.36,0,0,0,1.83.51,3,3,0,0,0,1.63-.43,2.56,2.56,0,0,0,1-1.17v1.45a1.9,1.9,0,0,1-.48,1.45,1.81,1.81,0,0,1-1.27.45,1.91,1.91,0,0,1-1.1-.28,1.2,1.2,0,0,1-.54-.79h-2.51a3.63,3.63,0,0,0,1.34,2.4,4.75,4.75,0,0,0,3,.88,4.42,4.42,0,0,0,2.28-.55,3.5,3.5,0,0,0,1.36-1.47,4.74,4.74,0,0,0,.44-2.09V480.5Zm-.51,5.59a1.7,1.7,0,0,1-1.31.55,1.75,1.75,0,0,1-1.32-.53,2.48,2.48,0,0,1,0-3,1.87,1.87,0,0,1,2.63,0,2.37,2.37,0,0,1,0,2.94Z"/><path class="cls-1" d="M835.8,486.58a.94.94,0,0,1-.67-.19.91.91,0,0,1-.2-.68v-3.08h1.66V480.5h-1.66v-2H832.4v2h-1.12v2.13h1.12v3a3,3,0,0,0,.8,2.38,3.28,3.28,0,0,0,2.26.72h1.14v-2.18Z"/><path class="cls-1" d="M840.26,486.64l3.67-4.15v-2h-6.38v2.1H841l-3.55,4.16v2h6.59v-2.12Z"/><path class="cls-1" d="M853.13,484.41a4.24,4.24,0,0,0-.51-2.1,3.54,3.54,0,0,0-1.45-1.42,4.53,4.53,0,0,0-2.16-.5,4.48,4.48,0,0,0-2.16.51,3.59,3.59,0,0,0-1.47,1.47,5.06,5.06,0,0,0,0,4.51,3.67,3.67,0,0,0,1.48,1.47,4.76,4.76,0,0,0,4,.12,3.73,3.73,0,0,0,1.39-1.08,3.49,3.49,0,0,0,.72-1.56h-2.69a1.3,1.3,0,0,1-.48.72,1.7,1.7,0,0,1-2-.12,1.9,1.9,0,0,1-.48-1.34h5.73A3.56,3.56,0,0,0,853.13,484.41Zm-5.79-.39a1.71,1.71,0,0,1,.52-1.21,1.63,1.63,0,0,1,1.15-.42,1.61,1.61,0,0,1,1.12.41,1.53,1.53,0,0,1,.44,1.22Z"/><path class="cls-1" d="M861.16,480.85a3.68,3.68,0,0,0-1.22,1.2V480.5h-2.53v8.26h2.53V485a1.72,1.72,0,0,1,.56-1.45,2.47,2.47,0,0,1,1.56-.43h.73v-2.71A3.09,3.09,0,0,0,861.16,480.85Z"/><path class="cls-1" d="M863.85,480.5v8.26h2.53V480.5Zm2.37-3.29a1.58,1.58,0,0,0-1.1-.37,1.55,1.55,0,0,0-1.09.37,1.24,1.24,0,0,0-.42,1,1.2,1.2,0,0,0,.42.94,1.55,1.55,0,0,0,1.09.38,1.58,1.58,0,0,0,1.1-.38,1.19,1.19,0,0,0,.41-.94A1.23,1.23,0,0,0,866.22,477.21Z"/><path class="cls-1" d="M873.74,480.5,872,486.29l-1.82-5.79h-2.7l2.94,8.26h3.14l2.93-8.26Z"/><path class="cls-1" d="M877.49,480.5v8.26H880V480.5Zm2.37-3.29a1.58,1.58,0,0,0-1.1-.37,1.55,1.55,0,0,0-1.09.37,1.24,1.24,0,0,0-.42,1,1.2,1.2,0,0,0,.42.94,1.55,1.55,0,0,0,1.09.38,1.58,1.58,0,0,0,1.1-.38,1.19,1.19,0,0,0,.41-.94A1.23,1.23,0,0,0,879.86,477.21Z"/><path class="cls-1" d="M889.62,484.41a4.24,4.24,0,0,0-.51-2.1,3.54,3.54,0,0,0-1.45-1.42,4.53,4.53,0,0,0-2.16-.5,4.48,4.48,0,0,0-2.16.51,3.59,3.59,0,0,0-1.47,1.47,5.06,5.06,0,0,0,0,4.51,3.67,3.67,0,0,0,1.48,1.47,4.76,4.76,0,0,0,4,.12,3.65,3.65,0,0,0,1.39-1.08,3.49,3.49,0,0,0,.72-1.56h-2.68a1.38,1.38,0,0,1-.49.72,1.7,1.7,0,0,1-2-.12,1.9,1.9,0,0,1-.48-1.34h5.73A3.56,3.56,0,0,0,889.62,484.41Zm-5.79-.39a1.71,1.71,0,0,1,.52-1.21,1.63,1.63,0,0,1,1.15-.42,1.61,1.61,0,0,1,1.12.41,1.53,1.53,0,0,1,.44,1.22Z"/><path class="cls-1" d="M894.69,480.85a3.59,3.59,0,0,0-1.22,1.2V480.5h-2.53v8.26h2.53V485a1.71,1.71,0,0,1,.55-1.45,2.51,2.51,0,0,1,1.57-.43h.72v-2.71A3.08,3.08,0,0,0,894.69,480.85Z"/><path class="cls-7" d="M748.59,431.67l-1.34,7.42-1.79-7.42h-2.71l-1.8,7.42-1.32-7.42h-2.69l2.45,10.24h3.07l1.65-6.85,1.64,6.85h3.07l2.45-10.24Z"/><path class="cls-7" d="M758.12,433.83v4.29a2,2,0,0,1-.44,1.36,1.69,1.69,0,0,1-2.34,0,1.81,1.81,0,0,1-.42-1.28v-4.39h-2.47v4.69a3.75,3.75,0,0,0,.82,2.55,2.81,2.81,0,0,0,2.21.93,3,3,0,0,0,1.6-.42,2.69,2.69,0,0,0,1-1.13v1.46h2.49v-8.08Z"/><path class="cls-7" d="M769.66,434.67a2.8,2.8,0,0,0-2.21-.93,3.05,3.05,0,0,0-1.62.42,2.61,2.61,0,0,0-1,1.15v-4.12h-2.48v10.72h2.48v-4.28a1.93,1.93,0,0,1,.44-1.37,1.52,1.52,0,0,1,1.19-.47,1.48,1.48,0,0,1,1.14.45,1.78,1.78,0,0,1,.43,1.27v4.4h2.48v-4.69A3.75,3.75,0,0,0,769.66,434.67Z"/><path class="cls-7" d="M777.76,433.83v1.46a2.53,2.53,0,0,0-1-1.14,3,3,0,0,0-1.6-.42,3.24,3.24,0,0,0-1.79.5,3.42,3.42,0,0,0-1.24,1.43,5.51,5.51,0,0,0,0,4.41,3.39,3.39,0,0,0,1.24,1.44,3.24,3.24,0,0,0,1.79.5,3,3,0,0,0,1.6-.42,2.53,2.53,0,0,0,1-1.14v1.46h2.47v-8.08Zm-.5,5.48a1.69,1.69,0,0,1-1.28.53,1.65,1.65,0,0,1-1.28-.52,2.39,2.39,0,0,1,0-2.9,1.82,1.82,0,0,1,2.56,0,2,2,0,0,1,.5,1.44A2,2,0,0,1,777.26,439.31Z"/><path class="cls-7" d="M789.27,434.67a2.78,2.78,0,0,0-2.21-.93,3,3,0,0,0-1.61.42,2.63,2.63,0,0,0-1,1.15v-1.48h-2.48v8.08h2.48v-4.28a2,2,0,0,1,.44-1.37,1.56,1.56,0,0,1,1.2-.47,1.51,1.51,0,0,1,1.14.45,1.82,1.82,0,0,1,.42,1.27v4.4h2.48v-4.69A3.71,3.71,0,0,0,789.27,434.67Z"/></g></svg>