<svg xmlns="http://www.w3.org/2000/svg" viewBox="0 0 159.58 159.58"><defs><style>.cls-1{fill:#e8eff7;}.cls-2,.cls-3,.cls-4{fill:none;stroke:#08539d;stroke-linecap:round;stroke-miterlimit:10;}.cls-2{stroke-width:2.17px;}.cls-3{stroke-width:1.79px;}.cls-4{stroke-width:1.79px;}.cls-5{fill:#4a6eb0;}.cls-6{fill:#08539d;}</style></defs><title>lengte-icon</title><g id="Laag_2" data-name="Laag 2"><g id="Laag_2-2" data-name="Laag 2"><path class="cls-1" d="M159.58,79.79q0,3.46-.3,6.84a2.45,2.45,0,0,1,0,.27A79.79,79.79,0,0,1,.43,88.14,82.18,82.18,0,0,1,0,79.79c0-.31,0-.63,0-.94A79.19,79.19,0,0,1,6.86,47.39l.76-1.66a79.44,79.44,0,0,1,5.74-10.14c.59-.9,1.21-1.78,1.84-2.65A79.81,79.81,0,0,1,154.67,52.18c.33.88.64,1.77.92,2.66h0a79.24,79.24,0,0,1,3.05,12.75c0,.28.09.56.13.84A80.27,80.27,0,0,1,159.58,79.79Z"/><line class="cls-2" x1="45.26" y1="122.18" x2="114.95" y2="122.18"/><path class="cls-3" d="M47.85,130.33l-10.44-7.52a.81.81,0,0,1,0-1.26L47.85,114"/><path class="cls-4" d="M111.66,130.33l10.53-7.55a.79.79,0,0,0,0-1.2L111.66,114"/><path class="cls-5" d="M159.58,79.79q0,3.46-.3,6.84c-2.47-.73-5.66-1.59-9.2-2.33l-.18,0c-7.71-1.61-17-2.66-24.16-.71a38.75,38.75,0,0,1-31.45-5.23.72.72,0,0,1-.15-.11A36.18,36.18,0,0,1,81.68,63.05c-8.82-19.54-13.8-18.59-13.8-18.59-5.93.87-7.56,6.69-7.71,12.31a34.52,34.52,0,0,0,3.11,14.82c4.46,10.06,2.91,17.21,0,22l0,0a21.1,21.1,0,0,1-8,7.57C28,118.88,6.64,97.38.43,88.14A82.18,82.18,0,0,1,0,79.79c0-.31,0-.63,0-.94A79.19,79.19,0,0,1,6.86,47.39l.76-1.66a79.44,79.44,0,0,1,5.74-10.14c1.07,7.86.12,19.11-1.8,24.73a22.27,22.27,0,0,0-.93,3.83A26.23,26.23,0,0,0,21.11,88.88c11.63,8.79,21.15,3.7,25.57.78l.11-.07c1-.66,1.73-1.21,2.15-1.43,3-1.58,1.63-12.19-2.43-19.1-2-3.38-2-8.89-1.57-13.64a32.29,32.29,0,0,1,8.5-19.17c17-17.69,38.07,2.48,40.19,12.09,2.19,9.83,10.91,17.37,22.93,16.49a28.13,28.13,0,0,0,4.31-.65c.72-.16,1.47-.3,2.26-.41,10.5-1.44,26.84,1.8,35.52,3.82,0,.28.09.56.13.84A80.27,80.27,0,0,1,159.58,79.79Z"/><path class="cls-6" d="M159.58,79.79q0,3.46-.3,6.84a2.45,2.45,0,0,1,0,.27c-1.93-.64-5.22-1.65-9.18-2.6l-.18,0c-7.84-1.86-18.25-3.43-26-1.31a37.26,37.26,0,0,1-29.61-4.63.72.72,0,0,1-.15-.11A34.64,34.64,0,0,1,81.6,63.27C73.14,44.51,68.36,45.43,68.36,45.43c-5.7.83-7.26,6.42-7.4,11.81a33,33,0,0,0,3,14.23c4.6,10.39,2.54,17.55-.61,22.08l0,0a20.21,20.21,0,0,1-7.07,6.27c-27.77,18-49.1-6.26-53.52-14a28.28,28.28,0,0,1-2.69-7A79.19,79.19,0,0,1,6.86,47.39l.76-1.66a79.44,79.44,0,0,1,5.74-10.14c.59-.9,1.21-1.78,1.84-2.65,2.17,7.11,1.29,21.27-.91,27.71a21.45,21.45,0,0,0-.89,3.68A25.19,25.19,0,0,0,23.46,88.07C33.57,95.7,42,92.42,46.68,89.66l.11-.07c1.66-1,2.82-1.91,3.39-2.21C53,85.86,51.74,75.67,47.84,69c-1.91-3.24-2-8.53-1.5-13.09a30.91,30.91,0,0,1,8.16-18.4c16.27-17,36.54,2.38,38.58,11.6,2.19,9.83,11.18,17.29,23.48,15.68a26.09,26.09,0,0,0,2.66-.47,31,31,0,0,1,3.91-.59c11.72-1,29.35,3.07,35.65,4.66A80.27,80.27,0,0,1,159.58,79.79Z"/></g></g></svg>