<svg xmlns="http://www.w3.org/2000/svg" viewBox="0 0 159.57 159.57"><defs><style>.cls-1{fill:#e8eff7;}.cls-2{fill:#4a6eb0;}.cls-3{fill:#08539d;}.cls-4{fill:#e05c9d;}.cls-5{fill:#d91e84;}</style></defs><title>locatie-icon_1</title><g id="Laag_2" data-name="Laag 2"><g id="locatie"><circle class="cls-1" cx="79.79" cy="79.79" r="79.79"/><ellipse class="cls-2" cx="79.79" cy="117.07" rx="58.01" ry="21.85"/><ellipse class="cls-3" cx="79.79" cy="116.99" rx="54.85" ry="20.57"/><path class="cls-4" d="M79.79,19.24a39.59,39.59,0,0,0-39.6,39.6c0,21.88,39.6,63.46,39.6,63.46s39.6-41.58,39.6-63.46A39.6,39.6,0,0,0,79.79,19.24Zm0,57.13A17.71,17.71,0,1,1,97.5,58.66,17.71,17.71,0,0,1,79.79,76.37Z"/><path class="cls-5" d="M79.79,22A37.46,37.46,0,0,0,42.32,59.49c0,20.69,37.47,60,37.47,60s37.46-39.34,37.46-60A37.46,37.46,0,0,0,79.79,22Zm0,54.05A16.76,16.76,0,1,1,96.54,59.31,16.76,16.76,0,0,1,79.79,76.07Z"/></g></g></svg>