<svg xmlns="http://www.w3.org/2000/svg" viewBox="0 0 454.97 564.17"><defs><style>.cls-1{fill:#0b539d;}.cls-2{fill:#da1b83;}</style></defs><title>logo2</title><g id="Laag_2" data-name="Laag 2"><g id="Laag_1-2" data-name="Laag 1"><path class="cls-1" d="M431.65,491c-17.37-7.23-31-18.18-37.49-31.31a53.53,53.53,0,0,1-4.83-13.45c-4.1-20.57-25.61-39.27-25.61-39.27s-32.35-25.82-46.53-34.3A87.3,87.3,0,0,1,304,362.55a153.05,153.05,0,0,1-28-32.94A140.77,140.77,0,0,0,264.58,314a49.34,49.34,0,0,1-11.78-28.6V285s.63-9.73-5.91-53.09S287,182,287,182s48.13-9.8,84.37,38c35.14,46.43,72.28,32.42,74.44,31.55-2,.35-29.57,4.83-51.88-22.34C370.74,201,353.82,188,353.82,188c66.44,5.52,75-12.89,75.4-13.9-5.73,4.41-47,5.49-60.53,3.51-10.63-1.53-60.6-12.16-60.6-12.16,72.76-33,59.69-71,59.69-71s-2.22,9.52-12.37,23.56c-6,8.27-15.84,14.56-19.42,16.82-17.44,11.19-60.57,24.08-60.57,24.08s14.25-12.19,15.43-55.25,29.4-55.25,29.4-55.25c-7.4-.9-18.11,7.12-18.11,7.12-5.56,3.27-22.44,26.14-24,37.43-1.5,10.53-16.46,66.41-26.58,74.44-9.51,7.55-25.72,26.54-27.67,27.13s-6-6.53-6-6.53c-11.3-19.29,0-22.28,19-45.42a53.45,53.45,0,0,0,10.39-48.44s-3,18-7.89,29.26A55.65,55.65,0,0,1,227.49,141c-9.84,9.91-28.06,23.54-28.06,23.54-5.88-6.22-5.32-18.1-5.32-18.1,3.65-37.7,30.51-46.7,51.77-75.09s-.69-46.12-.69-46.12c9.21,15.61,2.12,35.48-16.33,48.27s-43.26,33.74-43.26,33.74C193.38,36.67,149.39,33,149.39,33c11.67,9.66,17.54,19.15,20.46,26.2A34,34,0,0,1,172,76.6c-3.23,26.44,2.54,45.48,3,60.46.69,20.68-3,32.18-3,32.18S85.52,166.42,116.76,121c30.37-44.23,5.63-64.84,4.31-65.85.9,2,13,28.88-5,46C97.65,118.61,99.1,137.3,99.1,137.3c-45.1-34.05-63.9-6.08-64.63-5C35.72,131.4,62,112.53,84.82,143c23.42,31.21,33.36,31.94,33.36,31.94l-17.89,5.94A125.19,125.19,0,0,0,77.73,191c-38.43,22-58.2,1-58.2,1,18.94,29.4,61.3,7.86,68,4.24-2.4,1.57-9.94,7.61-22.55,27.7C49.83,248,6.05,260.7,3.34,261.46c31.62-3.19,55.21-17.37,67.93-27a63.41,63.41,0,0,0,15-16.36c11.12-17.27,42.81-57.38,80.86-26.14,47.54,39,17.43,97.07,17.17,105.29-.05,1.59-.38,3.79-.56,5.63-.55,5.29-.1,10.71-3,15.19a17.48,17.48,0,0,1-5.25,5.32c-6.91,4.44-17.37,9.93-32.59,15.46a175.77,175.77,0,0,0-24.15,10.67,82,82,0,0,0-33.5,34.85,72.13,72.13,0,0,0-7.51,25,95.94,95.94,0,0,0-.48,11.78c0,5-5.11,9.28-12.34,10.11-1.77.24-3.89.42-6.32.59-18.28,1.18-24.74,25.23-24.74,25.23s-2.54,12.58-12.27,20.71c-6.39,5.35-11.75,12.93-14.73,17.51C5,498.17,3,501,.8,503.7l-.8.9c4.2,2.47,8.48,4.83,12.86,7.16,1-1.08,2-2.15,3.09-3.23,2.68-2.71,7.23-7.4,12.2-12.79a93.21,93.21,0,0,0,3.72,10.32c2.91,6.88,3,12.2,2.11,16.09q6.68,3.08,13.56,5.91c3.37-6.67,5.07-15.36-1.84-23.28a29.75,29.75,0,0,1-7.51-20.54C43.85,477.5,48.54,471,49.8,466.73a44.52,44.52,0,0,1,6-12.27c3.79-5.42,11.47-9,20.37-9.45a2,2,0,0,0,.45,0A25.89,25.89,0,0,0,85,443.13c8.44-3.27,13.79-9.28,14.76-16a177.64,177.64,0,0,0,1.95-19.39l0-.38c.59-12.75,7.19-24.88,19-34.33,9.18-7.4,21.9-15.15,36.25-16.68,0,0-6.29,11.43,11.46,24,15.29,10.88-11.5,33.15-19.14,39-2.12,1.63-4.1,3.3-6.08,5-6.61,5.83-18.8,17.41-20.44,24.53-1.53,6.74-10,11.5-15.18,13.86A93.79,93.79,0,0,0,92,471.66c-7.82,5.66-17.27,14.25-20,24.15C68.91,507.59,66.34,515.3,65,519.2c-.59,1.53-1.28,3.16-2,4.65a76.93,76.93,0,0,0-3.55,8.93c4,1.57,8.06,3,12.13,4.45a77.11,77.11,0,0,1,5-13.55c-.14,3.89-.56,9.42.62,15.5,3.23,1.07,6.43,2.12,9.66,3.09C85.07,539,84.93,536.09,85,532c.21-6.92,2.92-11,.24-19.32-1.07-3.3-1.35-4.59-1.28-5.39a20.18,20.18,0,0,1,2.5-8.06,104.27,104.27,0,0,1,7.12-11.43s5.81-9.14,28.78-18.91c0,0-3.1,23.74,3.3,32.29s9.41,13,9.69,18.45-4.24,19.81-4.24,19.81a77.86,77.86,0,0,0-2.74,13.62q8.23,1.77,16.71,3.26c.21-.62.42-1.28.7-1.91a46.11,46.11,0,0,0,3.12-13.55c7.48.56,8,8.13,11.72,13a8.57,8.57,0,0,1,1.63,5.18l7.85,1a12.34,12.34,0,0,1,0-1.49c.8-23.08-21.3-34.3-21.3-34.3l-.07,0c-4.17-10.84-9.59-20-9.45-35.27.1-6.84-5.28-16.33-1.22-28.77,8-25,26.79-32.94,26.79-32.94s26.59-20.33,22.14-35.24c0,0,5.63.42,16.85,13.76,0,0,6.81,6.68,13.42,10.15,0,0-34.3,33.26-37.32,46.15s-12.48,27.35,1.21,45.28c0,0,2.43,3.16,13.94,13.06,3.23,2.82,5.1,6.12,5.42,9.59.31,3,1,6.4,3,8.34,1.07,1.08,2.88,3,4.9,5.18,4.72,5.14,7.88,13.87,7.29,20.15q7.35.32,14.7.35c1.77-3.3,3-6.57,2.71-9-.55-4.8-8.2-12.62-13.45-17.45-2.5-2.29-3.64-5.07-3.16-7.85.35-2.19-.1-5.21-3.37-9a151.34,151.34,0,0,0-11.36-11.43c-6.88-6.33-10.57-14-10.29-21.69.18-6.46,2.47-14.35,9.56-22.62a65.47,65.47,0,0,0,4.27-5.49c2.61-3.79,9.28-12.09,25-25.33,0,0,2.16,6.08.07,15.5A54.18,54.18,0,0,0,229.24,465a167.1,167.1,0,0,1,.56,16.89,24.47,24.47,0,0,1-2.92,9.42c-3.37,6-4.94,12.44-3.89,18.94.79,5.1,2.5,10.42,6.08,13.44,4.27,3.72,6.77,8.76,8.3,12.83a19.38,19.38,0,0,1,.38,12l-3.12,11a8.46,8.46,0,0,0-.25,4.69c6.43,0,12.83-.1,19.18-.38a7.15,7.15,0,0,1,2.89-4.59c5.63-4.69,10.11-23.28.38-31.55s-17.65-22.55-8.27-28.15,13.07-24.88,7.3-40.65S259,438.3,259,438.3a89,89,0,0,1,39.26,17.93s6.53,16.3,18.28,22.24,16,13.1,16,13.1,5.32,10-8.58,18.73a32.8,32.8,0,0,0-10.16,10.36,23.61,23.61,0,0,0-1,23.87l.1.17a24.59,24.59,0,0,1,3.41,9.84c.1.93.17,1.87.24,2.85,4.66-.8,9.24-1.64,13.8-2.58-.35-3.57-2.05-8.37-3.72-12.33-4.28-10.5,1.11-21.58,14.07-27.31.42-.21.9-.39,1.39-.63,0,0,7.54,16.37,32.73,28.88,7.2-2.23,14.32-4.69,21.24-7.3-4.49-6.5-13.8-20.33-21.24-33.46-11.25-19.92-4.37-30.34-4.37-30.34s2.71-7.71,2.25-13.13c0,0,.94,2.18,2.65,5.55,8.82,17,27.38,31.14,51.15,39.1l.38.1c6.81,2.3,12.16,7,15.77,10.95,4.17-2.26,8.27-4.62,12.34-7.06A59.24,59.24,0,0,0,431.65,491ZM243.17,380.17c-4,5.1-9.86,13.44-10.35,18.41,0,.45-.73.73-1.29.45-4.27-2.08-17.48-9.1-21.82-18.24-2.71-5.8-10.56-10.25-17.23-13.1-10.81-4.66-15.82-13.83-11-21.58a18.69,18.69,0,0,1,6.11-6c13.17-8.47,26.65-9.79,26.45-36,0-.9,0-1.84-.07-2.82,0-1.18-.14-2.46-.21-3.75a30.11,30.11,0,0,0,1.49,3.79c.38.83.8,1.81,1.36,2.85,3.51,6.74,10.6,17.72,24,28.67,10.29,8.37,12.17,18.45,11.4,26.72A39.71,39.71,0,0,1,243.17,380.17Zm136,150.49s-12.75-3.19-23.8-21.23a49.25,49.25,0,0,1-6.26-16.61c-.83-4.55-4.3-12.3-17.23-21.06-.59-.38-1.22-.79-1.84-1.21-2-1.29-3.83-8.45-15-19.6-15.39-15.39-54.59-25.89-59.7-27a.91.91,0,0,1-.55-.38v0c-8.59-12.41-3.69-14.63,0-21.41a55.71,55.71,0,0,1,18.9-20.22,23.08,23.08,0,0,0,6.88-6.57c1.15-1.81,1.91-3.89,1.28-5.59,0,0,18.39,13.31,35.9,25.15a115.23,115.23,0,0,1,30.48,29.75,41.46,41.46,0,0,0,4.62,6c2.95,3.12,5.28,6.56,6.15,10.18,1.32,5.56,2.71,14.28,1.32,22.79-2.16,14-7.65,15.95-3,27.07C362.61,503.25,379.18,530.66,379.18,530.66Z"/><path class="cls-2" d="M98.49,101.26a41.93,41.93,0,0,1-4.85,19.59C70.43,115.2,53.42,96.7,53.42,74.77a42.31,42.31,0,0,1,4.83-19.62C81.46,60.83,98.49,79.33,98.49,101.26Z"/><path class="cls-2" d="M220.39,60.67A42,42,0,0,1,205.5,74.3c-16.2-17.55-20.13-42.37-8-60.64A42.25,42.25,0,0,1,212.39,0C228.58,17.57,232.52,42.41,220.39,60.67Z"/><path class="cls-2" d="M325.15,127.07a41.84,41.84,0,0,1-19.55,5c-6-23.12,2.24-46.86,21.56-57.24a42.16,42.16,0,0,1,19.56-5C352.71,92.93,344.47,116.69,325.15,127.07Z"/><path class="cls-2" d="M373.12,168.05a41.92,41.92,0,0,1-18.5-8.05c9.44-21.94,30.52-35.62,52.14-32a42.17,42.17,0,0,1,18.54,8C415.83,158,394.74,171.71,373.12,168.05Z"/><path class="cls-2" d="M29.77,179.79a41.88,41.88,0,0,1-13.45-15c17.74-16,42.61-19.61,60.73-7.26a42.45,42.45,0,0,1,13.48,15C72.76,188.5,47.88,192.15,29.77,179.79Z"/></g></g></svg>