<?xml version="1.0" encoding="utf-8"?>
<!-- Generator: Adobe Illustrator 24.0.1, SVG Export Plug-In . SVG Version: 6.00 Build 0)  -->
<svg version="1.1" id="Laag_1" xmlns="http://www.w3.org/2000/svg" xmlns:xlink="http://www.w3.org/1999/xlink" x="0px" y="0px"
	 viewBox="0 0 1125 2436" style="enable-background:new 0 0 1125 2436;" xml:space="preserve">
<style type="text/css">
	.st0{fill:#05529D;}
	.st1{fill:#BACFE4;}
	.st2{fill:#E8EFF6;}
	.st3{fill:#D2DFED;}
	.st4{fill:#C3D1DD;}
	.st5{fill:#BAC7D1;}
	.st6{fill:#A3C1DB;}
	.st7{fill:#8DAFD2;}
	.st8{fill:#66785B;}
	.st9{fill:#405632;}
	.st10{fill:#8DB573;}
	.st11{fill:#71A350;}
	.st12{fill:#CDDCEB;}
	.st13{fill:#6090C0;}
	.st14{fill:#7F3D03;}
	.st15{fill:#D4E5F6;}
	.st16{fill:#1A1A1A;}
</style>
<title>mobiel</title>
<rect x="-2.3" y="2101.1" class="st0" width="1128.4" height="339.3"/>
<polygon class="st1" points="1126,2145.7 -2.5,2145.7 -2,1635.1 1126,1635.1 "/>
<path class="st2" d="M825.8,2068.6h87.8c-1-12-11.5-20.9-23.6-19.9c-1.3,0.1-2.5,0.3-3.8,0.7c-6-10.5-19.3-14.1-29.8-8.2
	c-1,0.6-2,1.3-3,2c-11.5-3.6-23.8,2.8-27.4,14.4c-0.7,2.1-1,4.3-1,6.5C825.2,2065.6,825.4,2067.1,825.8,2068.6z"/>
<path class="st3" d="M825.8,2068.6h86.4c-0.9-10.3-10.1-18.4-21.4-18.4c-1.9,0-3.7,0.2-5.5,0.7c-4-6.4-11.1-10.3-18.7-10.2
	c-4.9,0-9.6,1.6-13.5,4.5c-2.1-0.6-4.3-0.9-6.4-0.9c-11.9,0-21.5,9-21.5,20.1C825.2,2065.8,825.4,2067.2,825.8,2068.6z"/>
<polygon class="st4" points="306.4,2139.8 305.3,2139.8 305.7,2139.4 "/>
<polygon class="st4" points="306.4,2139.8 305.3,2139.8 305.7,2139.4 "/>
<polygon class="st4" points="306.4,2139.8 305.3,2139.8 305.7,2139.4 "/>
<polygon class="st4" points="306.4,2139.8 305.3,2139.8 305.7,2139.4 "/>
<polygon class="st5" points="306.4,2141.5 305.3,2141.5 305.7,2141.2 "/>
<polygon class="st5" points="306.4,2141.5 305.3,2141.5 305.7,2141.2 "/>
<polygon class="st5" points="306.4,2141.5 305.3,2141.5 305.7,2141.2 "/>
<polygon class="st5" points="306.4,2141.5 305.3,2141.5 305.7,2141.2 "/>
<path class="st6" d="M1265.4,2189.4l-134.7-94.7l-22.2,16.3l-61.4-43.2l-24,17.5l-5.4,3.9l-35.7-25.2l-21,15.4l-15.6-11l-14.2,10.4
	l-38.5-27l-24,17.5l-45.5,33l-49.2-34.6l-23.9,17.5l-20.1,14.6l-91-81l-51.6,37.5l-34.2-24.1l-24,17.5l-42.7,30.9l-50.8-35.7
	l-24,17.5l-11.7,8.5l-19.6-13.8l-22.3,16.3l-51.4-45.8l-51.6,37.5l-34.2-24.1l-24,17.5l-36.4,26.4L92,2024.1l-177.5,129.1h219.9
	l-5.1,3.7h420.8l-19.4-9h132.8l-20,14.5h172.4l-1,0.7h221.6l-36.2,26.2H1265.4z M305.7,2139.4l0.7,0.3h-1.1L305.7,2139.4z"/>
<path class="st7" d="M1265.4,2189.4l-134.7-91.4l-22.2,15.7l-61.4-41.7l-24,16.9l-5.4,3.8l-35.7-24.3l-21,14.9l-15.6-10.6l-14.2,10
	l-38.5-26.1l-24,16.9l-45.5,31.8L774,2072l-23.9,16.9L730,2103l-91-78.2l-51.7,36.2l-34.2-23.2l-24,16.9l-42.7,29.8l-50.8-34.4
	l-23.9,16.9l-11.7,8.2l-19.6-13.3l-22.3,15.8l-51.4-44.2l-51.6,36.2l-34.2-23.2l-24,16.9l-36.4,25.4l-68.7-59l-177.5,124.6h219.9
	l-5.1,3.6h420.8l-19.4-8.7h132.8l-20,14h172.4l-1,0.7h221.6l-36.2,25.3L1265.4,2189.4z M305.7,2141.2l0.7,0.3h-1.1L305.7,2141.2z"/>
<polygon class="st2" points="945.4,2068.5 939.7,2072.6 943.5,2073.6 945.6,2076.2 947.6,2073.2 953.1,2074 "/>
<polygon class="st3" points="945.5,2069.1 940.7,2072.6 944,2073.4 945.7,2075.7 947.5,2073 952.2,2073.8 "/>
<polygon class="st2" points="639,2018.2 622.3,2031 634.3,2036.2 639,2033.3 643.7,2037.4 653.6,2032 "/>
<polygon class="st3" points="638.9,2018.9 623.5,2030.8 634.5,2035.6 638.9,2032.9 643.3,2036.7 652.4,2031.7 "/>
<polygon class="st2" points="306.8,2027.8 285.9,2043.2 298.2,2044.7 303.6,2049.8 311,2051.9 317.3,2051.9 319.4,2049.1 
	328.8,2047.5 "/>
<polygon class="st3" points="306.8,2028.5 287.2,2043 298.8,2044.4 303.8,2049.2 310.8,2051.2 316.7,2051.2 318.7,2048.6 
	327.5,2047.1 "/>
<path class="st8" d="M-2.3,2106.2c0,0,9.8,2.8,21.5,7c7.7,2.8,18.7,1.9,25.5,1c3.8-0.5,7.3-1.9,10.4-4.2c2.9-2.1,6.9-5.1,11-8.5
	c8-6.6,22.9-3.3,36-2.8s25.7-14.5,34.2-12.2s8.4,8.9,18.7,9.8s8.5-9.5,15-10.3s18.2-6.5,48.7,1.8c1.8,0.5,3.6,1,5.4,1.6
	c4.6,1.5,17.7,5.5,28.7,5.5c13.6,0,25.3,4.7,29.5,7.5s13.1,6.6,21.1,6.6s28.5,0.5,36,6.1c6,4.5,26.4,3.9,34.5,3.5
	c1.8-0.1,3.7-0.2,5.5-0.2c4.7,0,17-0.6,35.3-5.7c17.1-4.7,47.8-5.5,63.9-5.6c6.1,0,12.2,0.5,18.2,1.6c15.6,2.8,51.7,7.7,77.5-1.6
	c11.8-4.3,24.2-6.8,36.7-7.4c10.5-0.5,21.1,0.7,31.2,3.7c7.9,2.3,21.6,4.5,33.7-2.4c15.2-8.6,55,4.6,68,9.2
	c3.4,1.2,6.9,2.3,10.5,3.2c14.4,3.8,49.8,12.4,68.5,10.9c23.9-1.9,36.5,5.1,50.5,7.5s80-2.3,98.8-11.7s33.7-15,59.9,0.5
	c20.3,12,47.8,5.1,59,1.4c2.3-0.8,4.6-1.7,6.8-2.6c2.7-1.2,8.4-3.4,13.8-3.4c7.5,0,14.5-8,14.5-8v92.7H-2.3V2106.2z"/>
<path class="st9" d="M-2.3,2110.4c0,0,9.8,2.7,21.5,6.7c7.7,2.6,18.7,1.8,25.5,0.9c3.7-0.5,7.3-1.9,10.4-4c2.9-2,6.9-4.9,11-8.1
	c8-6.3,22.9-3.1,36-2.7s25.7-13.9,34.2-11.6s8.4,8.5,18.7,9.4s8.5-9.1,15-9.8s18.2-6.2,48.7,1.7c1.8,0.5,3.6,1,5.4,1.6
	c4.6,1.4,17.7,5.2,28.7,5.2c13.6,0,25.3,4.5,29.5,7.2s13.1,6.3,21.1,6.3s28.5,0.4,36,5.8c6,4.3,26.4,3.7,34.5,3.3
	c1.8-0.1,3.7-0.1,5.5-0.1c4.7,0,17-0.6,35.3-5.4c17.1-4.5,47.8-5.3,63.9-5.4c6.1,0,12.2,0.5,18.2,1.5c15.6,2.7,51.7,7.4,77.5-1.5
	c11.8-4.1,24.2-6.5,36.7-7.1c10.5-0.5,21.1,0.7,31.2,3.5c7.9,2.2,21.6,4.2,33.7-2.2c15.2-8.2,55,4.4,68,8.8
	c3.4,1.2,6.9,2.2,10.5,3.1c14.4,3.6,49.8,11.8,68.5,10.4c23.9-1.8,36.5,4.9,50.5,7.1s80-2.2,98.8-11.2s33.7-14.3,59.9,0.4
	c20.3,11.5,47.8,4.9,59,1.3c2.3-0.7,4.6-1.6,6.8-2.5c2.7-1.2,8.4-3.3,13.8-3.3c7.5,0,14.5-7.6,14.5-7.6v88.5H-2.3V2110.4z"/>
<path class="st3" d="M797.4,2205.4c0-0.1-0.1-0.1-0.1-0.2c-0.9-1.6-2.4-2.7-4.3-2.9c-8.6-1.2-48.4-2.4-66.6-2.9l-197.6-170.7
	l4.9-4.8c3.6-8.6-6.1-5.9-6.1-5.9l-168.2,148.6c-26.9,22.3-60.8,31.4-95,32.2l-29.9,0.7c-4,0.1-7.2,3.4-7.1,7.4
	c0,0.6,0.1,1.1,0.2,1.7c0.2,0.8,0.5,1.7,0.9,2.4c0.7,1.5,2.2,2.4,3.9,2.4l115.2-3.9l0.2,23.8h30.6l-0.6-25l94.6-2.1v27.1h22V2205
	h0.4c70.3-2.8,186.7,3.2,252,6.3l0.4,21.9h26.7l-0.8-20.6c8.9,0.5,15.5,0.9,19.1,1.1c3.2,0.2,6-2.3,6.1-5.5
	C798.1,2207.3,797.9,2206.3,797.4,2205.4z M378.4,2175.5l4.5-4.4l29.3,24.3C361.8,2197.3,378.4,2175.5,378.4,2175.5L378.4,2175.5z
	 M417.9,2195.2l-32.3-26.7l9.2-9l40,35C429.3,2194.7,423.6,2194.9,417.9,2195.2L417.9,2195.2z M440.5,2194.3l-42.9-37.5l8.5-8.3
	l54.1,45.2C453.9,2193.9,447.3,2194.1,440.5,2194.3L440.5,2194.3z M465.5,2193.6l-56.9-47.5l8.6-8.4l63.5,55.7
	C476,2193.4,470.9,2193.5,465.5,2193.6L465.5,2193.6z M485.8,2193.3l-66.1-58l9-8.8l73.1,66.6C497.4,2193.2,492,2193.2,485.8,2193.3
	L485.8,2193.3z M514.6,2193.2c0,0-2.8,0-7.9,0l-75.7-69l9-8.8l87.8,77.8C519.5,2193.1,514.6,2193.2,514.6,2193.2L514.6,2193.2z
	 M532.9,2193.2l-90.5-80.2l8.6-8.4l98,88.5L532.9,2193.2z M554.1,2193.2l-100.6-90.9l7.7-7.6l110.8,98.6
	C565.5,2193.3,559.6,2193.2,554.1,2193.2L554.1,2193.2z M576.9,2193.4l-113.5-101l9.6-9.3l123.8,110.5L576.9,2193.4z M601.9,2193.8
	l-126.5-113l7.6-7.5l136.7,120.7C613.7,2194,607.7,2193.9,601.9,2193.8L601.9,2193.8z M624.9,2194.3l-139.5-123.2l9.4-9.1
	l148.9,132.9C637.3,2194.6,631,2194.4,624.9,2194.3L624.9,2194.3z M648.8,2195.1L497,2059.7l9-8.8l161.8,144.9
	C661.6,2195.5,655.2,2195.3,648.8,2195.1L648.8,2195.1z M673.1,2196.2l-164.7-147.5l8.7-8.5l177.6,157.3
	C687.9,2197,680.6,2196.5,673.1,2196.2L673.1,2196.2z M718.7,2199.2c-4.3-0.1-8.6-0.4-13-0.8c-1.8-0.2-3.7-0.3-5.6-0.5l-180.6-160
	l7.1-6.8l194.8,168.3L718.7,2199.2z"/>
<path class="st10" d="M-2.3,2278.3h425.5c0,0-25.8-49.1-99.7-58s-111.1-23.5-132.7-31.2s-52-22.3-70.6-21.9s-61.7,11.4-79,10.1
	s-43.5,0-43.5,0L-2.3,2278.3z"/>
<path class="st11" d="M-2.3,2278.3h417.7c0,0-25.3-46.4-97.9-54.8s-109.1-22.2-130.2-29.5s-51-21.1-69.3-20.7s-60.5,10.7-77.6,9.6
	s-42.7,0-42.7,0L-2.3,2278.3z"/>
<path class="st10" d="M522.1,2422.1l-11.4-0.3l-98.7-2.5l-416.5,2.7v-163.4c0,0,63.1-4.3,100.5,12.5s59.8,46.6,80.1,58
	s45.7,21.2,59.1,21.2h87.1c18.7,0,43,1.2,61.1,3.9s36.8,21.9,52.2,24.7S522.1,2391.6,522.1,2422.1z"/>
<path class="st11" d="M510.7,2421.9l-116,0.3H-4.5v-153.5c0,0,61.7-4.1,98.3,11.8s58.5,43.8,78.4,54.5s44.7,19.9,57.9,19.9h85.2
	c18.3,0,42.1,1.1,59.8,3.7s36,20.6,51.1,23.2S510.2,2393.4,510.7,2421.9z"/>
<polygon class="st7" points="1126.2,2157.3 1126.2,2166.7 905.3,2172.4 905.3,2176.9 876.4,2176.9 876.4,2181.8 880.1,2181.8 
	880.1,2185.9 901.8,2185.9 901.8,2197.9 882,2198.4 877.5,2198.5 861.2,2198.9 858.1,2199 840.5,2199.4 836.4,2199.5 825,2199.8 
	820.9,2199.9 808.1,2200.3 805.2,2200.3 793.4,2200.6 790.2,2200.7 777.8,2201 774,2201.1 774,2186.1 793.4,2186 805.2,2186 
	808.1,2185.9 820.9,2185.9 823.2,2185.9 823.2,2175.2 832.2,2175.2 832.2,2185 838.1,2185 838.1,2170.7 846.6,2170.7 846.6,2181.9 
	855.6,2181.9 855.6,2150.7 876.4,2150.7 876.4,2158.9 880.2,2158.9 880.2,2147.2 895.7,2147.2 895.7,2165.4 905.3,2165.4 
	905.3,2157.3 954.5,2157.2 954.5,2146.5 963.5,2146.5 963.5,2156.2 969.3,2156.2 969.3,2142 977.9,2142 977.9,2153.1 986.9,2153.1 
	986.9,2122 1007.7,2122 1007.7,2153.1 1011.3,2153.1 1011.3,2157.2 1034.1,2157.2 1034.1,2134 1048.3,2134 1048.3,2154.1 
	1052,2154.1 1052,2142.3 1057.6,2142.3 1057.6,2153.1 1060.4,2153.1 1060.4,2143.5 1070.5,2143.5 1070.5,2160.2 1085.9,2160.2 
	1085.9,2146.4 1107.2,2146.4 1107.2,2157.3 "/>
<rect x="909" y="2160.7" class="st3" width="12.5" height="19.4"/>
<rect x="924.6" y="2145.8" class="st3" width="11.8" height="34.3"/>
<rect x="956.2" y="2148.2" class="st3" width="11.4" height="29.1"/>
<rect x="971.7" y="2124.6" class="st3" width="17.7" height="52.6"/>
<rect x="992.5" y="2142" class="st3" width="16.3" height="33.9"/>
<rect x="1013.3" y="2114.2" class="st3" width="19.7" height="56.1"/>
<polygon class="st3" points="1049,2141.5 1049,2170.4 1036.2,2170.4 1036.2,2141.5 1037.7,2141.5 1037.7,2135.9 1047.1,2135.9 
	1047.1,2141.5 "/>
<polygon class="st3" points="1066,2150.1 1066,2169.9 1053.2,2169.9 1053.2,2150.1 1054.2,2150.1 1054.2,2148.4 1055.4,2148.4 
	1055.4,2146.7 1056.6,2146.7 1056.6,2144.7 1062.4,2144.7 1062.4,2146.7 1063.7,2146.7 1063.7,2148.4 1064.9,2148.4 1064.9,2150.1 
	"/>
<polygon class="st3" points="952.2,2148.5 952.2,2172.4 939.3,2172.4 939.3,2148.5 940.4,2148.5 940.4,2146.4 941.6,2146.4 
	941.6,2144.4 942.8,2144.4 942.8,2142 948.6,2142 948.6,2144.4 949.9,2144.4 949.9,2146.4 951.1,2146.4 951.1,2148.5 "/>
<rect x="1071.8" y="2158.9" class="st3" width="12.4" height="9.8"/>
<polygon class="st3" points="1087.2,2147.2 1087.2,2169 1105.4,2169 1105.4,2143.5 1093.1,2143.5 1093.1,2147.1 "/>
<rect x="1109.6" y="2150.9" class="st3" width="13.7" height="17.8"/>
<rect x="777.8" y="2189.4" class="st3" width="12.5" height="19.4"/>
<rect x="793.4" y="2174.5" class="st3" width="11.8" height="34.3"/>
<rect x="825" y="2176.9" class="st3" width="11.4" height="29.1"/>
<rect x="840.5" y="2153.4" class="st3" width="17.7" height="52.6"/>
<rect x="861.2" y="2170.7" class="st3" width="16.3" height="33.9"/>
<rect x="882" y="2143" class="st3" width="19.7" height="56.1"/>
<polygon class="st3" points="820.9,2177.2 820.9,2201.1 808.1,2201.1 808.1,2177.2 809.1,2177.2 809.1,2175.2 810.3,2175.2 
	810.3,2173.1 811.5,2173.1 811.5,2170.7 817.3,2170.7 817.3,2173.1 818.6,2173.1 818.6,2175.2 819.9,2175.2 819.9,2177.2 "/>
<path class="st10" d="M895.2,2172c79-6.6,231-7.9,231-7.9v104.1H605.2c0,0-5.1-22.6,36.4-27.2s64-8.3,74.5-14.3s38.7-25.8,51.5-26.7
	s44.2-1.4,52.9-3.2S851.4,2175.6,895.2,2172z"/>
<path class="st11" d="M899,2176.1c77.7-6.4,227.2-7.5,227.2-7.5v99.5H613.9c0,0-5-21.6,35.8-26s62.9-7.9,73.3-13.6
	s38-24.6,50.7-25.5s43.5-1.3,52-3.1S856,2179.7,899,2176.1z"/>
<path class="st10" d="M1126.2,2237.9l-0.4,131.3v8.2H487.5c-0.4-2.7-0.5-5.5-0.2-8.2c1.1-10.2,7.5-26.9,36.6-33.3
	c43.1-9.4,60.7-5.1,81.1-15.3s69.3-35.3,91.3-35.6c27-0.4,94,4.7,126.2,1.2s85.4-31.3,103-31.3s74.5-8.2,98-12.1
	C1047.1,2238.7,1126.2,2237.9,1126.2,2237.9z"/>
<path class="st11" d="M1125.8,2377.4H494.5c0,0-6.6-30.6,36-39.6s60.1-4.9,80.2-14.6s68.6-33.6,90.3-34c26.7-0.4,93,4.5,124.8,1.1
	s84.5-29.9,101.9-29.9s73.6-7.8,96.9-11.6s101.5-4.5,101.5-4.5L1125.8,2377.4z"/>
<path class="st6" d="M484,2376.6h644.5c0.4,0,0.8,0.3,0.8,0.8v0c0,0.4-0.3,0.8-0.8,0.8H484c-0.4,0-0.8-0.3-0.8-0.8v0
	C483.2,2376.9,483.5,2376.6,484,2376.6z"/>
<path class="st6" d="M471.8,2233.1h22.4c0.3,0,0.6,0.3,0.6,0.6l0,0c0,0.3-0.3,0.6-0.6,0.6h-22.4c-0.3,0-0.6-0.3-0.6-0.6l0,0
	C471.2,2233.3,471.5,2233.1,471.8,2233.1z"/>
<path class="st6" d="M837.5,2383h81c0.3,0,0.5,0.2,0.5,0.5v0c0,0.3-0.2,0.5-0.5,0.5h-81c-0.3,0-0.5-0.2-0.5-0.5v0
	C837,2383.3,837.2,2383,837.5,2383z"/>
<path class="st6" d="M901.9,2393.1h52.6c0.3,0,0.5,0.2,0.5,0.5v0c0,0.3-0.2,0.5-0.5,0.5h-52.6c-0.3,0-0.5-0.2-0.5-0.5v0
	C901.4,2393.3,901.6,2393.1,901.9,2393.1z"/>
<path class="st6" d="M939.3,2387.5h53.3c0.3,0,0.5,0.2,0.5,0.5v0c0,0.3-0.2,0.5-0.5,0.5h-53.3c-0.3,0-0.5-0.2-0.5-0.5v0
	C938.8,2387.7,939,2387.5,939.3,2387.5z"/>
<path class="st6" d="M966.5,2381.9h40c0.3,0,0.5,0.2,0.5,0.5v0c0,0.3-0.2,0.5-0.5,0.5h-40c-0.3,0-0.5-0.2-0.5-0.5v0
	C965.9,2382.1,966.2,2381.9,966.5,2381.9z"/>
<path class="st6" d="M926.5,2379.8h21.8c0.3,0,0.5,0.2,0.5,0.5v0c0,0.3-0.2,0.5-0.5,0.5h-21.8c-0.3,0-0.5-0.2-0.5-0.5v0
	C926,2380,926.2,2379.8,926.5,2379.8z"/>
<path class="st6" d="M2.3,2428.9h69.9c0.3,0,0.5,0.2,0.5,0.5v0c0,0.3-0.2,0.5-0.5,0.5H2.3c-0.3,0-0.5-0.2-0.5-0.5v0
	C1.8,2429.1,2,2428.9,2.3,2428.9z"/>
<path class="st6" d="M46.4,2435.6h45.3c0.3,0,0.5,0.2,0.5,0.5v0c0,0.3-0.2,0.5-0.5,0.5H46.4c-0.3,0-0.5-0.2-0.5-0.5v0
	C45.9,2435.8,46.1,2435.6,46.4,2435.6z"/>
<path class="st6" d="M84.6,2432h46c0.3,0,0.5,0.2,0.5,0.5v0c0,0.3-0.2,0.5-0.5,0.5h-46c-0.3,0-0.5-0.2-0.5-0.5v0
	C84,2432.2,84.3,2432,84.6,2432z"/>
<path class="st6" d="M113.8,2426.3h34.4c0.3,0,0.5,0.2,0.5,0.5v0c0,0.3-0.2,0.5-0.5,0.5h-34.4c-0.3,0-0.5-0.2-0.5-0.5v0
	C113.3,2426.5,113.5,2426.3,113.8,2426.3z"/>
<path class="st6" d="M79.3,2428.3h29.4c0.3,0,0.5,0.2,0.5,0.5v0c0,0.3-0.2,0.5-0.5,0.5H79.3c-0.3,0-0.5-0.2-0.5-0.5v0
	C78.8,2428.6,79,2428.3,79.3,2428.3z"/>
<path class="st6" d="M-2.4,2432.6H27c0.3,0,0.5,0.2,0.5,0.5v0c0,0.3-0.2,0.5-0.5,0.5H-2.4c-0.3,0-0.5-0.2-0.5-0.5v0
	C-2.9,2432.8-2.7,2432.6-2.4,2432.6z"/>
<path class="st6" d="M388.2,2284.2h22.6c0.3,0,0.5,0.2,0.5,0.5v0c0,0.3-0.2,0.5-0.5,0.5h-22.6c-0.3,0-0.5-0.2-0.5-0.5v0
	C387.7,2284.5,387.9,2284.2,388.2,2284.2z"/>
<path class="st6" d="M407.7,2287.4h14.4c0.3,0,0.5,0.2,0.5,0.5v0c0,0.3-0.2,0.5-0.5,0.5h-14.4c-0.3,0-0.5-0.2-0.5-0.5v0
	C407.2,2287.6,407.4,2287.4,407.7,2287.4z"/>
<path class="st6" d="M417.4,2285.6H432c0.3,0,0.5,0.2,0.5,0.5v0c0,0.3-0.2,0.5-0.5,0.5h-14.6c-0.3,0-0.5-0.2-0.5-0.5v0
	C416.9,2285.8,417.1,2285.6,417.4,2285.6z"/>
<path class="st6" d="M425.4,2283.1h10.8c0.3,0,0.5,0.2,0.5,0.5v0c0,0.3-0.2,0.5-0.5,0.5h-10.8c-0.3,0-0.5-0.2-0.5-0.5v0
	C424.9,2283.3,425.1,2283.1,425.4,2283.1z"/>
<path class="st6" d="M704.3,2273.4h14.4c0.3,0,0.5,0.2,0.5,0.5v0c0,0.3-0.2,0.5-0.5,0.5h-14.4c-0.3,0-0.5-0.2-0.5-0.5v0
	C703.8,2273.7,704,2273.4,704.3,2273.4z"/>
<path class="st6" d="M723.2,2272.4h16.1c0.3,0,0.5,0.2,0.5,0.5v0c0,0.3-0.2,0.5-0.5,0.5h-16.1c-0.3,0-0.5-0.2-0.5-0.5v0
	C722.7,2272.6,722.9,2272.4,723.2,2272.4z"/>
<path class="st6" d="M715.9,2270.3h10.8c0.3,0,0.5,0.2,0.5,0.5v0c0,0.3-0.2,0.5-0.5,0.5h-10.8c-0.3,0-0.5-0.2-0.5-0.5v0
	C715.4,2270.5,715.6,2270.3,715.9,2270.3z"/>
<path class="st6" d="M413.9,2283.7h5.6c0.3,0,0.5,0.2,0.5,0.5v0c0,0.3-0.2,0.5-0.5,0.5h-5.6c-0.3,0-0.5-0.2-0.5-0.5v0
	C413.3,2283.9,413.6,2283.7,413.9,2283.7z"/>
<path class="st6" d="M467,2234.9h5.6c0.3,0,0.5,0.2,0.5,0.5v0c0,0.3-0.2,0.5-0.5,0.5H467c-0.3,0-0.5-0.2-0.5-0.5v0
	C466.5,2235.1,466.7,2234.9,467,2234.9z"/>
<path class="st6" d="M494.2,2230.7h4c0.3,0,0.5,0.2,0.5,0.5l0,0l0,0c0,0.3-0.2,0.5-0.5,0.5c0,0,0,0,0,0h-4l0,0V2230.7L494.2,2230.7z
	"/>
<path class="st2" d="M143.2,2056.9H29.5c1.3-15.6,14.9-27.1,30.5-25.9c1.7,0.1,3.3,0.4,4.9,0.9c7.7-13.6,24.9-18.3,38.5-10.6
	c1.4,0.8,2.7,1.7,3.9,2.6c14.9-4.7,30.8,3.6,35.4,18.6c0.9,2.7,1.3,5.6,1.3,8.4C144,2053,143.8,2055,143.2,2056.9z"/>
<path class="st3" d="M143.2,2056.9h-112c1.2-13.4,13.2-23.9,27.8-23.9c2.4,0,4.8,0.3,7.2,0.9c5.2-8.3,14.4-13.3,24.2-13.2
	c6.3,0,12.5,2,17.5,5.8c2.7-0.8,5.5-1.2,8.3-1.2c15.4,0,27.8,11.7,27.8,26C144.1,2053.2,143.8,2055.1,143.2,2056.9z"/>
<path class="st2" d="M186.7,1964.9h113.7c-1.3-15.6-15-27.1-30.6-25.8c-1.6,0.1-3.3,0.4-4.9,0.8c-7.7-13.6-25-18.3-38.6-10.6
	c-1.3,0.8-2.6,1.6-3.8,2.6c-14.9-4.7-30.8,3.6-35.4,18.6c-0.9,2.7-1.3,5.6-1.3,8.4C185.8,1961,186.1,1963,186.7,1964.9z"/>
<path class="st3" d="M186.7,1964.9h112c-1.2-13.4-13.1-23.9-27.7-23.9c-2.4,0-4.8,0.3-7.1,0.9c-5.2-8.3-14.4-13.3-24.2-13.2
	c-6.3,0-12.5,2-17.5,5.8c-2.7-0.8-5.5-1.2-8.4-1.2c-15.4,0-27.8,11.7-27.8,26.1C185.9,1961.3,186.1,1963.1,186.7,1964.9z"/>
<path class="st2" d="M210.5,2003.4h-70.3c0-9.3,7.6-16.9,16.9-16.9c3,0,5.9,0.8,8.4,2.3c5.9-3.4,13.2-2.9,18.6,1.1
	c7.7-5.3,18.2-3.4,23.5,4.3C209.4,1997,210.4,2000.1,210.5,2003.4L210.5,2003.4z"/>
<path class="st3" d="M210.5,2003.4h-69.1c0-8.6,7.4-15.6,16.6-15.6c2.9,0,5.7,0.7,8.3,2.1c5.8-3.1,12.9-2.7,18.3,1.1
	c2.8-1.8,6.1-2.8,9.4-2.8C202.9,1988.2,210.3,1995,210.5,2003.4z"/>
<path class="st2" d="M1144.3,2053.4h-113.7c1.2-14.7,13.5-25.9,28.2-25.9c2.5,0,4.9,0.3,7.3,0.9c7.7-13.6,25-18.3,38.6-10.6
	c1.3,0.8,2.6,1.6,3.8,2.6c14.9-4.7,30.8,3.6,35.4,18.6c0.9,2.7,1.3,5.6,1.3,8.4C1145.2,2049.5,1144.9,2051.5,1144.3,2053.4z"/>
<path class="st3" d="M1144.3,2053.4h-112c1.2-13.4,13.1-23.9,27.7-23.9c2.4,0,4.8,0.3,7.2,0.9c5.2-8.3,14.4-13.3,24.2-13.2
	c6.3,0,12.5,2,17.6,5.8c2.7-0.8,5.5-1.2,8.3-1.2c15.4,0,27.8,11.7,27.8,26C1145.2,2049.7,1144.9,2051.6,1144.3,2053.4z"/>
<path class="st2" d="M1130.7,2102.4h-70.3c0-9.3,7.6-16.9,16.9-16.9c2.9,0,5.8,0.8,8.4,2.2c5.9-3.4,13.2-2.9,18.6,1.1
	c7.7-5.3,18.2-3.4,23.5,4.3C1129.5,2095.9,1130.6,2099.1,1130.7,2102.4L1130.7,2102.4z"/>
<path class="st3" d="M1130.7,2102.4h-69.1c0-8.6,7.4-15.6,16.6-15.6c2.9,0,5.7,0.7,8.3,2.1c2.5-1.4,5.4-2.1,8.3-2.1
	c3.6,0,7.1,1.1,10,3.1c2.8-1.8,6.1-2.8,9.4-2.8C1123.1,2087.1,1130.4,2093.9,1130.7,2102.4z"/>
<path class="st12" d="M210.5,2003.4L210.5,2003.4z"/>
<rect x="1052.4" y="2191.2" class="st3" width="18.4" height="10.2"/>
<path class="st3" d="M1076.9,2234.3v-3.2h-1.5V2221h1.5v-4.1H1046v4.1h1.9v10.1h-1.9v3.2h-2.8v4.8h36.6v-4.8L1076.9,2234.3z
	 M1053.3,2221h17.1v10.1h-17.1L1053.3,2221z"/>
<path class="st3" d="M1087.1,2293.8v-6.3h-2.7v-15.9h2.7v-6.1h-51v6.1h2.8v15.9h-2.8v6.3h-4.8v9.1h21.4v-9.1h4.7v9.1h34v-9.1H1087.1
	z M1046.7,2287.5v-15.9h29.6v15.9H1046.7z"/>
<polygon class="st3" points="1027.6,2293.8 1027.6,2302.8 1016.2,2302.8 1016.2,2293.8 1019.2,2293.8 1019.2,2265.5 1024.3,2265.5 
	1024.3,2293.8 "/>
<polygon class="st3" points="1107.3,2293.8 1107.3,2302.8 1095.4,2302.8 1095.4,2293.8 1099.3,2293.8 1099.3,2265.5 1103.9,2265.5 
	1103.9,2293.8 "/>
<path class="st7" d="M1055,2182.3h12.8c0,0,5.1,5.4,15.9,3.7c0,0-0.9,3.7-5.9,5.2H1046c-2.6-1.2-4.7-3-6.3-5.4
	C1039.7,2185.8,1049.5,2187.4,1055,2182.3z"/>
<path class="st7" d="M1050.6,2201.4h22.3c0,0,4.3,8.1,25.1,7.5c0,0-3.3,7.5-10.9,7.9h-52.2c0,0-8.1-2.5-10.7-8.5
	C1024.2,2208.4,1043.1,2210.2,1050.6,2201.4z"/>
<path class="st7" d="M1001,2251.2c0,0,32.1,0.8,42.2-12.1h36.6c0,0,5.7,11.3,42.2,12.1c0,0-3.4,10-18.2,14.2H1018
	C1018,2265.5,1003.8,2260.3,1001,2251.2z"/>
<rect x="437" y="2286.5" class="st7" width="1.8" height="0.5"/>
<rect x="441.6" y="2286.5" class="st7" width="1.8" height="0.5"/>
<rect x="447.1" y="2286.5" class="st7" width="1.8" height="0.5"/>
<polygon class="st7" points="591.8,2275.7 590.3,2276.9 589.6,2276 590,2275.7 "/>
<rect x="608.3" y="2275.7" class="st7" width="0.9" height="0.8"/>
<rect x="613.2" y="2275.7" class="st7" width="0.9" height="0.2"/>
<rect x="618" y="2275.7" class="st7" width="1.8" height="0.2"/>
<rect x="447.1" y="2286.5" class="st7" width="1.8" height="0.5"/>
<rect x="441.6" y="2286.5" class="st7" width="1.8" height="0.5"/>
<rect x="437" y="2286.5" class="st7" width="1.8" height="0.5"/>
<path class="st7" d="M619.8,2275.7v0.2H618v-0.2h-3.9v0.2h-0.9v-0.2h-4v0.8h-0.9v-0.8H604v-5h4.3v5h0.9v-5h4v5h0.9v-5h3.9v5H619.8
	l0-6.2h-22l-7.8,6.2h1.8l6-4.7v4.7h-6l-1.5,1.2l-0.7-0.9l0.4-0.3h-5.2v-42h-1.8v42h-9.3l-16.4,8.5v-14.6h-11.9v-11h1.8v-2.8h-11
	v-11.9h0.9c0-1-0.8-1.8-1.8-1.8c-1,0-1.8,0.8-1.8,1.8c0,0,0,0,0,0h0.9v11.9h-11v2.8h1.8v11h-12v16.9h-4.6v-5.9h-7.4v5.9h-2.8v-5
	h-7.4v5h-2.8v-5.9h-7.4v5.9h-1.8V2276h-18.4v-17.4h-2.8v17.4h-8.3v1.8h1.8v3.7H437v5h1.8v-3.2h2.8v3.2h1.8v-3.2h3.7v3.2h1.9v-3.2
	h2.8v3.2H449v0.5h-1.8v-0.5h-3.7v0.5h-1.8v-0.5h-2.8v0.5h-1.8v24.1h159.5l8.5-10.4l20.1-25L619.8,2275.7z M598.7,2275.7v-5h4.3v5
	H598.7z"/>
<rect x="618" y="2275.7" class="st7" width="1.8" height="0.2"/>
<rect x="613.2" y="2275.7" class="st7" width="0.9" height="0.2"/>
<rect x="608.3" y="2275.7" class="st7" width="0.9" height="0.8"/>
<polygon class="st7" points="591.8,2275.7 590.3,2276.9 589.6,2276 590,2275.7 "/>
<path class="st13" d="M19.5,2269.4c0.1,6.9-1.4,13.8-4.4,20c3,6.2,4.5,13.1,4.4,20c0,16.7-7.9,30.3-17.7,30.3s-17.7-13.6-17.7-30.3
	c-0.1-6.9,1.4-13.8,4.4-20c-3-6.2-4.5-13.1-4.4-20c0-5.1,0.8-10.3,2.4-15.2c-1.6-4.9-2.4-10-2.4-15.2c0-16.7,7.9-30.3,17.7-30.3
	s17.7,13.6,17.7,30.3c0,5.1-0.8,10.3-2.4,15.2C18.8,2259.2,19.6,2264.3,19.5,2269.4z"/>
<path class="st7" d="M1.8,2240.7L1.8,2240.7c0.6,0,1.1,0.5,1.1,1.1l0,0v124.8l0,0H0.7l0,0v-124.8C0.7,2241.2,1.2,2240.7,1.8,2240.7
	C1.8,2240.7,1.8,2240.7,1.8,2240.7z"/>
<path class="st7" d="M7.2,2244.8L7.2,2244.8c0.4,0.4,0.4,1.1,0,1.6l0,0l-4.5,4.5l0,0l-1.6-1.6l0,0l4.5-4.5
	C6.1,2244.4,6.8,2244.4,7.2,2244.8C7.2,2244.8,7.2,2244.8,7.2,2244.8z"/>
<path class="st7" d="M6.8,2270.3L6.8,2270.3c0.4,0.4,0.4,1.1,0,1.6l0,0l-4.5,4.5l0,0l-1.6-1.6l0,0l4.5-4.5
	C5.6,2269.9,6.4,2269.9,6.8,2270.3C6.8,2270.3,6.8,2270.3,6.8,2270.3z"/>
<path class="st7" d="M7.5,2299.8L7.5,2299.8c0.4,0.4,0.4,1.1,0,1.6l0,0l-4.5,4.5l0,0l-1.6-1.6l0,0l4.5-4.5
	C6.3,2299.3,7,2299.3,7.5,2299.8C7.5,2299.8,7.5,2299.8,7.5,2299.8z"/>
<path class="st7" d="M2.9,2288.8l-1.6,1.6l0,0l-4.5-4.5c-0.4-0.4-0.4-1.1,0-1.6c0,0,0,0,0,0l0,0c0.4-0.4,1.1-0.4,1.6,0l0,0
	L2.9,2288.8L2.9,2288.8z"/>
<path class="st7" d="M2.5,2323.5l-1.6,1.6l0,0l-4.5-4.5c-0.4-0.4-0.4-1.1,0-1.6c0,0,0,0,0,0l0,0c0.4-0.4,1.1-0.4,1.6,0l0,0
	L2.5,2323.5L2.5,2323.5z"/>
<path class="st7" d="M2.7,2260.9l-1.6,1.6l0,0l-4.5-4.5c-0.4-0.4-0.4-1.1,0-1.6c0,0,0,0,0,0l0,0c0.4-0.4,1.1-0.4,1.6,0l0,0
	L2.7,2260.9L2.7,2260.9z"/>
<path class="st1" d="M128.9,2179.1c0,7.1-6.3,12.8-14.1,12.8s-14.1-5.7-14.1-12.8s14.1-44.7,14.1-44.7S128.9,2172,128.9,2179.1z"/>
<path class="st7" d="M114.8,2166.2L114.8,2166.2c0.6,0,1,0.4,1,1v41.5l0,0h-2.1l0,0v-41.5C113.7,2166.6,114.2,2166.2,114.8,2166.2
	C114.7,2166.2,114.8,2166.2,114.8,2166.2z"/>
<path class="st7" d="M115.3,2170.4l-0.9,1.4l-4.3-2.2c-0.4-0.2-0.5-0.6-0.4-1c0,0,0-0.1,0-0.1l0,0c0.3-0.4,0.8-0.5,1.2-0.3
	L115.3,2170.4z"/>
<path class="st7" d="M115.1,2183l-0.9,1.4l-4.3-2.2c-0.4-0.2-0.5-0.6-0.4-1c0,0,0-0.1,0-0.1l0,0c0.3-0.4,0.8-0.5,1.2-0.3L115.1,2183
	z"/>
<path class="st7" d="M114.5,2176.7l0.9,1.4l4.3-2.2c0.4-0.2,0.5-0.6,0.4-1c0,0,0-0.1,0-0.1l0,0c-0.3-0.4-0.8-0.5-1.2-0.3
	L114.5,2176.7z"/>
<path class="st7" d="M114.7,2189.8l0.9,1.4l4.3-2.2c0.4-0.2,0.5-0.6,0.4-1c0,0,0-0.1,0-0.1l0,0c-0.3-0.4-0.8-0.5-1.2-0.3
	L114.7,2189.8z"/>
<path class="st13" d="M119,2171.9c0,9.8-9,17.7-20.1,17.7s-20.1-7.9-20.1-17.7s20.1-61.9,20.1-61.9S119,2162.1,119,2171.9z"/>
<path class="st7" d="M98.9,2154L98.9,2154c0.8,0,1.5,0.7,1.5,1.5v57.4l0,0h-3l0,0v-57.4C97.4,2154.7,98.1,2154,98.9,2154
	C98.9,2154,98.9,2154,98.9,2154z"/>
<path class="st7" d="M99.6,2159.9l-1.2,1.9l-6.1-3.1c-0.5-0.2-0.8-0.8-0.6-1.3c0-0.1,0.1-0.1,0.1-0.2l0,0c0.4-0.5,1.1-0.7,1.7-0.4
	L99.6,2159.9z"/>
<path class="st7" d="M99.4,2177.3l-1.2,1.9l-6.1-3.1c-0.5-0.2-0.8-0.8-0.6-1.3c0-0.1,0.1-0.1,0.1-0.2l0,0c0.4-0.5,1.1-0.7,1.7-0.4
	L99.4,2177.3z"/>
<path class="st7" d="M98.5,2168.6l1.2,1.9l6.1-3.1c0.5-0.2,0.8-0.8,0.6-1.3c0-0.1-0.1-0.1-0.1-0.2l0,0c-0.4-0.5-1.1-0.7-1.7-0.4
	L98.5,2168.6z"/>
<path class="st7" d="M98.8,2186.7l1.2,1.9l6.1-3.1c0.5-0.2,0.8-0.8,0.6-1.3c0-0.1-0.1-0.1-0.1-0.2l0,0c-0.4-0.5-1.1-0.7-1.7-0.4
	L98.8,2186.7z"/>
<path class="st13" d="M80.6,2288.6c0,9.8-9,17.7-20.1,17.7s-20.1-7.9-20.1-17.7s20.1-61.9,20.1-61.9S80.6,2278.9,80.6,2288.6z"/>
<path class="st7" d="M60.5,2270.8L60.5,2270.8c0.8,0,1.5,0.7,1.5,1.5v57.4l0,0h-3l0,0v-57.4C59,2271.5,59.7,2270.8,60.5,2270.8
	C60.5,2270.8,60.5,2270.8,60.5,2270.8z"/>
<path class="st7" d="M61.2,2276.6l-1.2,1.9l-6.1-3.1c-0.5-0.2-0.8-0.8-0.6-1.3c0-0.1,0.1-0.1,0.1-0.2l0,0c0.4-0.5,1.1-0.7,1.7-0.4
	L61.2,2276.6z"/>
<path class="st7" d="M61,2294.1l-1.2,1.9l-6.1-3.1c-0.5-0.2-0.8-0.8-0.6-1.3c0-0.1,0.1-0.1,0.1-0.2l0,0c0.4-0.5,1.1-0.7,1.7-0.4
	L61,2294.1z"/>
<path class="st7" d="M60.1,2285.3l1.2,1.9l6.1-3.1c0.5-0.2,0.8-0.8,0.6-1.3c0-0.1-0.1-0.1-0.1-0.2l0,0c-0.4-0.5-1.1-0.7-1.7-0.4
	L60.1,2285.3z"/>
<path class="st7" d="M60.3,2303.5l1.2,1.9l6.1-3.1c0.5-0.2,0.8-0.8,0.6-1.3c0-0.1-0.1-0.1-0.1-0.2l0,0c-0.4-0.5-1.1-0.7-1.7-0.4
	L60.3,2303.5z"/>
<path class="st1" d="M93,2183.9c0,7.1-6.3,12.8-14.1,12.8s-14.1-5.7-14.1-12.8s14.1-44.7,14.1-44.7S93,2176.8,93,2183.9z"/>
<path class="st7" d="M78.8,2171L78.8,2171c0.6,0,1,0.4,1,1v41.5l0,0h-2l0,0V2172C77.8,2171.4,78.2,2171,78.8,2171L78.8,2171z"/>
<path class="st7" d="M79.3,2175.2l-0.9,1.4l-4.3-2.2c-0.4-0.2-0.5-0.6-0.4-1c0,0,0-0.1,0-0.1l0,0c0.3-0.4,0.8-0.5,1.2-0.3
	L79.3,2175.2z"/>
<path class="st7" d="M79.2,2187.8l-0.9,1.4l-4.3-2.2c-0.4-0.2-0.5-0.6-0.4-1c0,0,0-0.1,0-0.1l0,0c0.3-0.4,0.8-0.5,1.2-0.3
	L79.2,2187.8z"/>
<path class="st7" d="M78.5,2181.5l0.9,1.4l4.3-2.2c0.4-0.2,0.5-0.6,0.4-1c0,0,0-0.1,0-0.1l0,0c-0.3-0.4-0.8-0.5-1.2-0.3L78.5,2181.5
	z"/>
<path class="st7" d="M78.7,2194.6l0.9,1.4l4.3-2.2c0.4-0.2,0.5-0.6,0.4-1c0,0,0-0.1,0-0.1l0,0c-0.3-0.4-0.8-0.5-1.2-0.3L78.7,2194.6
	z"/>
<path class="st1" d="M92.1,2298.4c0,7.1-6.3,12.8-14.1,12.8s-14.1-5.7-14.1-12.8s14.1-44.7,14.1-44.7S92.1,2291.3,92.1,2298.4z"/>
<path class="st7" d="M78,2285.5L78,2285.5c0.6,0,1,0.4,1,1v41.5l0,0h-2l0,0v-41.5C77,2285.9,77.4,2285.5,78,2285.5L78,2285.5z"/>
<path class="st7" d="M78.5,2289.7l-0.9,1.4l-4.3-2.2c-0.4-0.2-0.5-0.6-0.4-1c0,0,0-0.1,0.1-0.1l0,0c0.3-0.4,0.8-0.5,1.2-0.3
	L78.5,2289.7z"/>
<path class="st7" d="M78.3,2302.3l-0.9,1.4l-4.3-2.2c-0.4-0.2-0.5-0.6-0.4-1c0,0,0-0.1,0.1-0.1l0,0c0.3-0.4,0.8-0.5,1.2-0.3
	L78.3,2302.3z"/>
<path class="st7" d="M77.7,2296l0.9,1.4l4.3-2.2c0.4-0.2,0.5-0.6,0.4-1c0,0,0,0,0-0.1l0,0c-0.3-0.4-0.8-0.5-1.2-0.3L77.7,2296z"/>
<path class="st7" d="M77.9,2309.1l0.9,1.4l4.3-2.2c0.4-0.2,0.5-0.6,0.4-1c0,0,0,0,0-0.1l0,0c-0.3-0.4-0.8-0.5-1.2-0.3L77.9,2309.1z"
	/>
<path class="st1" d="M58.3,2297.6c-4.4,6.9-4.4,15.7,0,22.5c0,9.4-6,17.1-13.4,17.1s-13.4-7.6-13.4-17.1c4.4-6.9,4.4-15.7,0-22.5
	c2.4-5.4,2.4-11.6,0-17.1c0-9.4,6-17.1,13.4-17.1s13.4,7.6,13.4,17.1C55.9,2286,55.9,2292.2,58.3,2297.6z"/>
<path class="st7" d="M44.9,2281.4L44.9,2281.4c0.5,0,0.8,0.4,0.8,0.8l0,0v70.1l0,0h-1.7l0,0v-70.1
	C44.1,2281.8,44.5,2281.4,44.9,2281.4C44.9,2281.4,44.9,2281.4,44.9,2281.4z"/>
<path class="st7" d="M45.6,2287.2l-1.2-0.9l3.4-2.6c0.4-0.3,0.8-0.3,1.2,0l0,0c0.2,0.1,0.3,0.5,0.2,0.7c0,0.1-0.1,0.1-0.2,0.2
	L45.6,2287.2z"/>
<path class="st7" d="M45.3,2301.6l-1.2-0.9l3.4-2.6c0.4-0.2,0.8-0.2,1.2,0l0,0c0.2,0.1,0.3,0.5,0.2,0.7c0,0.1-0.1,0.1-0.2,0.2
	L45.3,2301.6z"/>
<path class="st7" d="M45.8,2318.2l-1.2-0.9l3.4-2.6c0.4-0.2,0.8-0.2,1.2,0l0,0c0.2,0.1,0.3,0.5,0.2,0.7c0,0.1-0.1,0.1-0.2,0.2
	L45.8,2318.2z"/>
<path class="st7" d="M44.6,2309.5l1.2-0.9l-3.4-2.6c-0.4-0.3-0.8-0.3-1.2,0l0,0c-0.2,0.1-0.3,0.5-0.2,0.7c0,0.1,0.1,0.1,0.2,0.2
	L44.6,2309.5z"/>
<path class="st7" d="M44.2,2329l1.2-0.9l-3.4-2.5c-0.4-0.2-0.8-0.2-1.2,0l0,0c-0.2,0.1-0.3,0.5-0.2,0.7c0,0.1,0.1,0.1,0.2,0.2
	L44.2,2329z"/>
<path class="st7" d="M44.4,2293.7l1.2-0.9l-3.4-2.6c-0.4-0.3-0.8-0.3-1.2,0l0,0c-0.2,0.1-0.3,0.5-0.2,0.7c0,0.1,0.1,0.1,0.2,0.2
	L44.4,2293.7z"/>
<path class="st13" d="M45.2,2280.1c0.1,5-1,10-3.2,14.5c2.2,4.5,3.3,9.5,3.2,14.5c0,12.2-5.8,22-12.9,22s-12.9-9.9-12.9-22
	c-0.1-5,1-10,3.2-14.5c-2.2-4.5-3.3-9.5-3.2-14.5c2.3-7.2,2.3-14.8,0-22c0-12.2,5.8-22,12.9-22s12.9,9.9,12.9,22
	C42.9,2265.2,42.9,2272.9,45.2,2280.1L45.2,2280.1z"/>
<path class="st7" d="M32.3,2259.2L32.3,2259.2c0.4,0,0.8,0.4,0.8,0.8l0,0v90.7l0,0h-1.6l0,0V2260
	C31.5,2259.6,31.8,2259.2,32.3,2259.2C32.3,2259.2,32.3,2259.2,32.3,2259.2L32.3,2259.2z"/>
<path class="st7" d="M36.2,2262.1L36.2,2262.1c0.3,0.3,0.3,0.8,0,1.1l0,0l-3.3,3.3l0,0l-1.1-1.1l0,0l3.3-3.3
	C35.4,2261.8,35.9,2261.8,36.2,2262.1C36.2,2262.1,36.2,2262.1,36.2,2262.1z"/>
<path class="st7" d="M35.9,2280.7L35.9,2280.7c0.3,0.3,0.3,0.8,0,1.1l0,0l-3.3,3.3l0,0l-1.2-1.2l0,0l3.3-3.3
	C35.1,2280.4,35.6,2280.4,35.9,2280.7C35.9,2280.7,35.9,2280.7,35.9,2280.7z"/>
<path class="st7" d="M36.4,2302.1L36.4,2302.1c0.3,0.3,0.3,0.8,0,1.1l0,0l-3.3,3.3l0,0l-1.1-1.1l0,0l3.3-3.3
	C35.6,2301.8,36.1,2301.8,36.4,2302.1C36.4,2302.1,36.4,2302.1,36.4,2302.1z"/>
<path class="st7" d="M33.1,2294.1l-1.1,1.1l0,0l-3.3-3.3c-0.3-0.3-0.3-0.8,0-1.1c0,0,0,0,0,0l0,0c0.3-0.3,0.8-0.3,1.1,0l0,0
	L33.1,2294.1L33.1,2294.1z"/>
<path class="st7" d="M32.8,2319.4l-1.1,1.1l0,0l-3.3-3.3c-0.3-0.3-0.3-0.8,0-1.1c0,0,0,0,0,0l0,0c0.3-0.3,0.8-0.3,1.1,0l0,0
	C29.5,2316.1,32.8,2319.4,32.8,2319.4z"/>
<path class="st7" d="M32.9,2273.8l-1.1,1.1l0,0l-3.3-3.3c-0.3-0.3-0.3-0.8,0-1.1c0,0,0,0,0,0l0,0c0.3-0.3,0.8-0.3,1.1,0l0,0
	L32.9,2273.8C32.9,2273.8,32.9,2273.8,32.9,2273.8z"/>
<path class="st6" d="M49.8,2351.5v3.1l-2.4,0.2c-1.1,0.1-2.3-0.1-3.3-0.4l-4.9-1.7c0,0-5.7,5.7-8.2,7.9s-2,3.6-2,3.6l2.8,9l2.3,2.6
	h-3.8l-5.8-15.3c5.4-3.8,5.8-7.9,5.8-9l-12.5,9.5l11.8-11.9c1.9-2.2,3.3-5,3.8-7.9c0.7-4.4,5.2-5.2,5.2-5.2
	c-0.2,3.6-0.1,7.2,0.4,10.8C39.8,2353.9,49.8,2351.5,49.8,2351.5z"/>
<path class="st14" d="M39.1,2352.7L39.1,2352.7L39.1,2352.7z"/>
<path class="st6" d="M67.8,2339.2c-0.2,4-1.8,7.8-4.4,10.9c-1.1,1.2-2,2.5-2.7,3.9c-2.8,6-4.5,12.4-5,19c0,0.5,0.1,1,0.3,1.4
	l0.5,0.8h-2.8c0.4-6.5,3.3-19.2,3.7-21.1c0-0.1-0.1-0.2-0.2-0.2c0,0,0,0,0,0l-3.2,0.3c-0.8-12.3,2.4-14.9,2.4-14.9
	c0.3,4,3.7,3.6,3.7,3.6s0.3-0.9-0.9-4.3s-1-9.1-1-9.1c5.6,1.4,8.2-2.7,8.2-2.7C67.7,2330.8,68.2,2335,67.8,2339.2z"/>
<path class="st14" d="M39.1,2352.7L39.1,2352.7L39.1,2352.7z"/>
<path class="st15" d="M66.4,2326.8c0,0-2.5,4.1-8.2,2.7c0,0-0.3,5.8,1,9.1s0.9,4.3,0.9,4.3s-3.4,0.4-3.7-3.6c0,0-3.3,2.6-2.4,14.9
	l0,0l-3.8,0.3h-0.5v-3.1c0,0-10,2.4-10.8-4.7c-0.5-3.6-0.6-7.2-0.4-10.8c0,0-4.5,0.8-5.2,5.2c-0.6,2.9-1.9,5.6-3.8,7.9l-11.9,12
	l-1.8,1.3c-0.7,0.5-1.2,1.1-1.7,1.8l-5.7,8.4c-0.1,0.2-0.2,0.5-0.1,0.7l0.6,2.3H4.7v-0.6l9.1-15.6c0.4-0.7,1-1.3,1.8-1.7
	c10.2-5.9,9.1-17.6,8.9-19.5c0-0.2,0-0.4,0.2-0.5c2.8-3.1,7.2-3.7,10-3.8c1.3,0,2.6,0.1,3.9,0.4c3.7,0.8,7.4,1.3,11.2,1.6
	c4.3,0.2,5.8-1.8,6.3-2.8c0.1-0.3,0.2-0.6,0.2-0.9l0.1-2.4c0-0.2-0.1-0.3-0.3-0.3c-1.2-0.1-5.8-0.7-6.6-1.1c-1-0.5-0.7-1.1-0.7-1.1
	c0-1.1,0.9-2,2-2c0,0,0,0,0.1,0c1.6-0.1,4.8-3.7,6-5.2c0.4-0.4,0.9-0.6,1.4-0.6l4.5,0.2c0.6,0,1.2,0.4,1.4,1l0.4,1
	c0.2,0.5,0.4,1,0.6,1.5l0.9,3C66.2,2326.2,66.3,2326.5,66.4,2326.8z"/>
<ellipse class="st16" cx="51.3" cy="2326.1" rx="2.3" ry="1.2"/>
<circle class="st16" cx="59.2" cy="2322.3" r="0.9"/>
<path class="st15" d="M54.1,2354.2l-0.6,10.2l-0.8,8.8l1,2h-3.5v-2.3c0.9-3.4,1.2-6.9,0.9-10.4c-0.3-2.7-0.8-5.4-1.4-8L54.1,2354.2z
	"/>
<path class="st15" d="M51,2316.4c0,0,5.5-0.6,6.3,3.3l-2.4,2.6C52.5,2321.3,51,2319,51,2316.4z"/>
<path class="st15" d="M69.7,2314.4c0,0-5.4,1.8-5.9,5.4l1.3,2.5C65.1,2322.3,71.1,2319.4,69.7,2314.4z"/>
<path class="st6" d="M55.9,2319.4c0,0-2.3-2.3-3.9-2.2c0,0,0.8,3.2,2.5,3.4L55.9,2319.4z"/>
<path class="st6" d="M65,2319.4c0,0,1.7-3.3,3.2-3.4c0,0-0.6,3.3-2.3,3.9L65,2319.4z"/>
<path class="st1" d="M26.6,2336.9c0.1,5.6-1.1,11.1-3.5,16.1c2.4,5,3.6,10.5,3.5,16.1c0,13.5-6.4,24.5-14.3,24.5S-2,2382.7-2,2369.1
	c-0.1-5.6,1.1-11.1,3.5-16.1c-2.4-5-3.6-10.5-3.5-16.1c0-4.2,0.6-8.3,1.9-12.2c-1.3-4-1.9-8.1-1.9-12.2c0-13.5,6.4-24.5,14.3-24.5
	s14.3,11,14.3,24.5c0,4.2-0.6,8.3-1.9,12.2C26,2328.6,26.6,2332.7,26.6,2336.9z"/>
<path class="st7" d="M12.3,2313.7L12.3,2313.7c0.5,0,0.9,0.4,0.9,0.9v100.8l0,0h-1.8l0,0v-100.8
	C11.4,2314.1,11.8,2313.7,12.3,2313.7C12.3,2313.7,12.3,2313.7,12.3,2313.7z"/>
<path class="st7" d="M16.7,2317L16.7,2317c0.4,0.4,0.4,0.9,0,1.3l-3.7,3.7l0,0l-1.3-1.3l0,0l3.7-3.7
	C15.7,2316.6,16.3,2316.6,16.7,2317L16.7,2317z"/>
<path class="st7" d="M16.3,2337.6L16.3,2337.6c0.4,0.4,0.4,0.9,0,1.3l-3.7,3.7l0,0l-1.3-1.3l0,0l3.7-3.7
	C15.4,2337.3,16,2337.3,16.3,2337.6z"/>
<path class="st7" d="M16.8,2361.4L16.8,2361.4c0.4,0.4,0.4,0.9,0,1.3l-3.7,3.7l0,0l-1.3-1.3l0,0l3.7-3.7
	C15.9,2361,16.5,2361,16.8,2361.4z"/>
<path class="st7" d="M13.2,2352.5l-1.3,1.3l0,0l-3.7-3.7c-0.4-0.4-0.4-0.9,0-1.3l0,0c0.4-0.4,0.9-0.4,1.3,0
	C9.5,2348.9,13.2,2352.5,13.2,2352.5z"/>
<path class="st7" d="M12.8,2380.6l-1.3,1.3l0,0l-3.7-3.7c-0.4-0.4-0.4-0.9,0-1.3l0,0c0.4-0.4,0.9-0.4,1.3,0L12.8,2380.6
	C12.8,2380.6,12.8,2380.6,12.8,2380.6z"/>
<path class="st7" d="M13,2330l-1.3,1.3l0,0l-3.7-3.7c-0.4-0.4-0.4-0.9,0-1.3l0,0c0.4-0.4,0.9-0.4,1.3,0C9.3,2326.3,13,2330,13,2330z
	"/>
<path class="st6" d="M172.7,2437.8h-15.1c-0.2,0-0.4,0-0.6-0.1c-1.2-0.6-1.9-1.7-2-3c0.2,0.3,0.5,0.5,0.8,0.4h1.3
	c0.4,0,0.8-0.1,1.1-0.3c1.6-1,3.4-1.7,5.3-2c1.7-0.2,3.4,0.2,4.8,1.1c0,0,0.7,0.2-0.1-1c-0.4-0.6-0.5-1.4-0.6-2.1
	c0-0.6,0-1.2,0.1-1.8c0.2-0.7,0.3-1.4,0.3-2.2c-0.1-0.4-0.2-0.8-0.2-0.8s0.4,0.7,0.6,0.7c1.4-0.2,2.7-0.2,4.1,0
	c1,0.2,1.7,1.2,1.6,2.3v2h-2.5 M171.9,2431.1c0.3,0.6,2.7,4.4,0.8,6.8L171.9,2431.1z"/>
<path class="st12" d="M177,2430.6c-0.6,0-1.1-0.1-1.6-0.3c-0.3-0.2-0.7-0.4-1-0.6v1.2h3C177.4,2430.8,177.2,2430.7,177,2430.6
	C177,2430.6,177,2430.6,177,2430.6z"/>
<path class="st12" d="M158.8,2437.8c0,0-0.1-1.8,2.5-2.5c1.3-0.3,2.7-0.4,4.1-0.2c0.7,0.1,1.5,0.3,2.2,0.5c0.7,0.4,1.6,0.2,2.1-0.4
	c0.8-1,0.7,0.7,0.6,1.4c0,0.3-0.1,0.6-0.3,0.9c-0.1,0.1-0.2,0.2-0.4,0.3L158.8,2437.8z"/>
<circle class="st12" cx="172.3" cy="2429.3" r="0.7"/>
<circle class="st6" cx="172.3" cy="2429.3" r="0.3"/>
<path class="st6" d="M128,2284.8h11.3c0.1,0,0.3,0,0.4-0.1c0.9-0.4,1.5-1.3,1.5-2.2c-0.1,0.2-0.4,0.4-0.6,0.3h-0.9
	c-0.3,0-0.6-0.1-0.9-0.2c-1.2-0.8-2.6-1.3-4-1.5c-1.3-0.1-2.5,0.2-3.6,0.9c0,0-0.5,0.2,0-0.7c0.3-0.5,0.4-1,0.4-1.6
	c0-0.5,0-0.9-0.1-1.4c-0.1-0.5-0.2-1.1-0.2-1.6c0.1-0.3,0.1-0.6,0.1-0.6s-0.3,0.5-0.5,0.5c-1-0.1-2.1-0.1-3.1,0
	c-0.8,0.2-1.3,0.9-1.2,1.7v1.4h1.9 M128.6,2279.7c-0.2,0.5-2,3.4-0.6,5.1L128.6,2279.7z"/>
<path class="st12" d="M124.8,2279.4c0.4,0,0.8-0.1,1.2-0.2c0.2-0.2,0.5-0.3,0.8-0.4v0.9h-2.3
	C124.5,2279.5,124.6,2279.4,124.8,2279.4C124.8,2279.4,124.8,2279.4,124.8,2279.4z"/>
<path class="st15" d="M138.4,2284.8c0,0,0-1.3-1.9-1.8c-1-0.2-2-0.3-3-0.2c-0.6,0.1-1.1,0.2-1.6,0.4c-0.5,0.3-1.2,0.2-1.6-0.3
	c-0.6-0.8-0.5,0.5-0.5,1.1c0,0.2,0.1,0.5,0.2,0.6c0.1,0.1,0.2,0.2,0.3,0.2L138.4,2284.8z"/>
<path class="st15" d="M128.3,2277.9c0.3,0,0.5,0.2,0.5,0.5s-0.2,0.5-0.5,0.5s-0.5-0.2-0.5-0.5S128,2277.9,128.3,2277.9z"/>
<circle class="st6" cx="128.3" cy="2278.4" r="0.2"/>
<path class="st6" d="M530,2398.9v-1.8c0,0,6.3,0.5,7.1,1.2S530,2398.9,530,2398.9z"/>
<path class="st12" d="M530,2397.1c-1.1-0.4-2.2-0.6-3.3-0.4c-1.1,0.1-1.9,1-1.9,2.1c0,0.1,0,0.1,0,0.2v3.6c0,0,0.4,1.4,2.1,0.8
	c0.2-0.1,0.4,0,0.4,0.2c0,0,0,0.1,0,0.1v3.1c0,0.1-0.1,0.1-0.1,0.1c0,0-0.1,0-0.1,0c-0.6-0.4-2.2-1.4-3.4-0.9
	c-1.4,0.5-2.4,0.8-4.2,5.8c-1.2,3.5-1.7,4.8-1.9,5.2c0,0,0,0.1,0,0.1c0,0,0.1,0,0.1,0l0,0l1.7-1.4c0.1-0.1,0.2-0.1,0.3,0
	c0,0,0,0.1,0,0.1l0.2,1.7 M520,2417.4l1.3-2.6c0.2-0.3,0.4-0.5,0.8-0.5c1.6-0.2,6.4-1.3,7.8-7.7c0-0.2,0.1-0.4,0.2-0.6
	c0.3-1.2,1.4-5.8-2.8-4.9c0.2-1.3,1.4-2.3,2.7-2.2L520,2417.4z"/>
<circle class="st6" cx="528.7" cy="2397.8" r="0.6"/>
<circle class="st12" cx="528.7" cy="2397.8" r="0.3"/>
<polygon class="st6" points="525.4,2413.2 525.8,2422.9 525.4,2422.9 524.9,2413.5 "/>
<polygon class="st6" points="523.5,2414 522.3,2422.9 521.8,2422.9 523.1,2414.1 "/>
<path class="st6" d="M-4.6,2421.4h534.9c0.4,0,0.8,0.3,0.8,0.8v0c0,0.4-0.3,0.8-0.8,0.8H-4.6c-0.4,0-0.8-0.3-0.8-0.8v0
	C-5.4,2421.7-5.1,2421.4-4.6,2421.4z"/>
</svg>
