<svg id="Laag_1" data-name="Laag 1" xmlns="http://www.w3.org/2000/svg" viewBox="0 0 1125 2436"><defs><style>.cls-1{fill:#05529d;}.cls-2{fill:#bacfe4;}.cls-3{fill:#e8eff6;}.cls-4{fill:#d2dfed;}.cls-5{fill:#c3d1dd;}.cls-6{fill:#bac7d1;}.cls-7{fill:#a3c1db;}.cls-8{fill:#8dafd2;}.cls-9{fill:#66785b;}.cls-10{fill:#405632;}.cls-11{fill:#8db573;}.cls-12{fill:#71a350;}.cls-13{fill:#6090c0;}.cls-14{fill:#d4e5f6;}.cls-15{fill:#1a1a1a;}.cls-16{fill:#cddceb;}</style></defs><title>mobiel</title><rect class="cls-1" x="-2.26" y="2101.06" width="1128.42" height="339.31"/><polygon class="cls-2" points="1125.96 2145.68 -2.46 2145.68 -2 1084.59 1126 1084.59 1125.96 2145.68"/><path class="cls-3" d="M825.83,2068.59h87.75A21.82,21.82,0,0,0,890,2048.66a21.2,21.2,0,0,0-3.78.65,21.82,21.82,0,0,0-29.75-8.19,22.08,22.08,0,0,0-3,2A21.84,21.84,0,0,0,825.19,2064,17,17,0,0,0,825.83,2068.59Z"/><path class="cls-4" d="M825.82,2068.59h86.41c-.9-10.33-10.14-18.45-21.4-18.45a22.86,22.86,0,0,0-5.52.68,21.77,21.77,0,0,0-18.68-10.18,22.25,22.25,0,0,0-13.53,4.49,23.36,23.36,0,0,0-6.44-.91c-11.86,0-21.47,9-21.47,20.1A14.67,14.67,0,0,0,825.82,2068.59Z"/><polygon class="cls-5" points="306.4 2139.76 305.29 2139.76 305.72 2139.45 306.4 2139.76"/><polygon class="cls-5" points="306.4 2139.76 305.29 2139.76 305.72 2139.45 306.4 2139.76"/><polygon class="cls-5" points="306.4 2139.76 305.29 2139.76 305.72 2139.45 306.4 2139.76"/><polygon class="cls-5" points="306.4 2139.76 305.29 2139.76 305.72 2139.45 306.4 2139.76"/><polygon class="cls-6" points="306.4 2141.48 305.29 2141.48 305.72 2141.18 306.4 2141.48"/><polygon class="cls-6" points="306.4 2141.48 305.29 2141.48 305.72 2141.18 306.4 2141.48"/><polygon class="cls-6" points="306.4 2141.48 305.29 2141.48 305.72 2141.18 306.4 2141.48"/><polygon class="cls-6" points="306.4 2141.48 305.29 2141.48 305.72 2141.18 306.4 2141.48"/><path class="cls-7" d="M1265.43,2189.42l-134.67-94.69L1108.57,2111l-61.43-43.19-24,17.53-5.41,3.92L982,2064.07l-21,15.4-15.59-11-14.21,10.4-38.48-27-24,17.53-45.52,33L774,2067.78l-23.94,17.53L730,2099.87l-91-81-51.59,37.52-34.23-24.07-24,17.53-42.66,30.9-50.76-35.69-24,17.54-11.71,8.49-19.59-13.78-22.3,16.33-51.43-45.76-51.59,37.52L221,2041.33l-24,17.54-36.38,26.35L92,2024.14-85.49,2153.21H134.45l-5.14,3.73H550.16l-19.39-9H663.6l-20.05,14.53H815.91l-1,.73H1036.5l-36.19,26.22Zm-959.71-50,.68.31h-1.11Z"/><path class="cls-8" d="M1265.43,2189.42,1130.76,2098l-22.19,15.67L1047.14,2072l-24,16.93-5.41,3.78L982,2068.42l-21,14.87-15.59-10.58-14.21,10-38.48-26.12-24,16.93-45.52,31.82L774,2072l-23.94,16.93L730,2103l-91-78.18L587.35,2061l-34.23-23.24-24,16.93-42.66,29.82-50.76-34.45L411.8,2067l-11.71,8.19-19.59-13.3-22.3,15.76-51.43-44.17-51.59,36.21L221,2046.47l-24,16.93-36.38,25.44-68.65-59L-85.49,2154.46H134.45l-5.14,3.61H550.16l-19.39-8.69H663.6l-20.05,14H815.91l-1,.71H1036.5l-36.19,25.31Zm-959.71-48.24.68.3h-1.11Z"/><polygon class="cls-3" points="945.36 2068.51 939.73 2072.64 943.54 2073.56 945.58 2076.22 947.63 2073.16 953.11 2073.99 945.36 2068.51"/><polygon class="cls-4" points="945.51 2069.06 940.69 2072.6 943.96 2073.38 945.7 2075.66 947.46 2073.04 952.15 2073.76 945.51 2069.06"/><polygon class="cls-3" points="638.96 2018.2 622.28 2030.99 634.26 2036.21 638.96 2033.32 643.73 2037.44 653.58 2031.96 638.96 2018.2"/><polygon class="cls-4" points="638.88 2018.91 623.45 2030.76 634.53 2035.58 638.88 2032.91 643.3 2036.72 652.41 2031.65 638.88 2018.91"/><polygon class="cls-3" points="306.77 2027.82 285.9 2043.2 298.22 2044.71 303.58 2049.81 310.96 2051.91 317.26 2051.91 319.43 2049.09 328.77 2047.5 306.77 2027.82"/><polygon class="cls-4" points="306.8 2028.52 287.16 2043.01 298.75 2044.43 303.8 2049.23 310.75 2051.21 316.68 2051.21 318.72 2048.55 327.52 2047.06 306.8 2028.52"/><path class="cls-9" d="M-2.26,2106.19s9.83,2.81,21.53,7c7.66,2.76,18.72,1.91,25.45,1A22.77,22.77,0,0,0,55.11,2110c2.89-2.12,6.86-5.12,11-8.5,8-6.55,22.94-3.28,36-2.81s25.74-14.51,34.17-12.17,8.42,8.9,18.72,9.83,8.47-9.5,15-10.29,18.25-6.5,48.74,1.76c1.81.49,3.6,1,5.38,1.62,4.61,1.52,17.74,5.51,28.73,5.51,13.57,0,25.27,4.68,29.48,7.49s13.11,6.55,21.06,6.55,28.55.47,36,6.08c6,4.47,26.39,3.91,34.53,3.49,1.84-.1,3.69-.16,5.53-.16,4.71,0,17-.63,35.29-5.67,17.07-4.68,47.76-5.54,63.88-5.65a98.82,98.82,0,0,1,18.25,1.59c15.62,2.84,51.73,7.74,77.47-1.55a128.26,128.26,0,0,1,36.7-7.43,95.14,95.14,0,0,1,31.21,3.69c7.9,2.27,21.59,4.46,33.65-2.35,15.2-8.57,55,4.59,68,9.24q5.16,1.86,10.49,3.25c14.43,3.79,49.8,12.38,68.51,10.91,23.87-1.87,36.5,5.15,50.54,7.49s80-2.34,98.76-11.7,33.7-15,59.91.47c20.35,12,47.75,5.08,59,1.39a71.75,71.75,0,0,0,6.79-2.65c2.72-1.22,8.37-3.42,13.78-3.42,7.49,0,14.51-8,14.51-8v92.67H-2.26Z"/><path class="cls-10" d="M-2.26,2110.43s9.83,2.69,21.53,6.71c7.66,2.63,18.72,1.82,25.45.94a23.44,23.44,0,0,0,10.39-4c2.89-2,6.86-4.89,11-8.12,8-6.26,22.94-3.13,36-2.68s25.74-13.86,34.17-11.62,8.42,8.49,18.72,9.39,8.47-9.08,15-9.84,18.25-6.21,48.74,1.69c1.81.46,3.6,1,5.38,1.55,4.61,1.45,17.74,5.25,28.73,5.25,13.57,0,25.27,4.47,29.48,7.16s13.11,6.26,21.06,6.26,28.55.44,36,5.81c6,4.26,26.39,3.72,34.53,3.32,1.84-.09,3.69-.14,5.53-.15,4.71,0,17-.6,35.29-5.41,17.07-4.47,47.76-5.29,63.88-5.39a103.35,103.35,0,0,1,18.25,1.51c15.62,2.71,51.73,7.39,77.47-1.48a133.19,133.19,0,0,1,36.7-7.1,99.07,99.07,0,0,1,31.21,3.53c7.9,2.17,21.59,4.25,33.65-2.24,15.2-8.19,55,4.38,68,8.82q5.16,1.77,10.49,3.11c14.43,3.61,49.8,11.82,68.51,10.42,23.87-1.79,36.5,4.91,50.54,7.15s80-2.24,98.76-11.18,33.7-14.3,59.91.45c20.35,11.46,47.75,4.85,59,1.33,2.31-.73,4.57-1.58,6.79-2.53,2.72-1.17,8.37-3.27,13.78-3.27,7.49,0,14.51-7.6,14.51-7.6v88.51H-2.26Z"/><path class="cls-4" d="M797.42,2205.38c0-.07-.07-.13-.1-.19a5.57,5.57,0,0,0-4.26-2.93c-8.64-1.16-48.44-2.37-66.63-2.87L528.8,2028.7l4.88-4.75c3.56-8.63-6.13-5.91-6.13-5.91L359.32,2166.59c-26.89,22.27-60.81,31.41-95.05,32.19l-29.95.68a7.27,7.27,0,0,0-6.92,9.05,14,14,0,0,0,.91,2.44,4.09,4.09,0,0,0,3.9,2.37l115.17-3.91.25,23.84h30.56l-.61-25,94.64-2.15v27.12h21.95V2205h.39c70.31-2.76,186.68,3.16,252,6.28l.37,21.93h26.65l-.8-20.59c8.9.49,15.51.87,19.08,1.11a5.82,5.82,0,0,0,5.56-8.38Zm-419-29.86,4.48-4.36,29.32,24.29c-50.44,1.84-33.84-19.93-33.84-19.93Zm39.47,19.7-32.28-26.74,9.23-9,40,35c-5.55.2-11.22.46-17,.74Zm22.6-.92-42.87-37.51,8.49-8.27,54.15,45.21c-6.32.14-12.94.32-19.81.57Zm25.06-.69-56.94-47.54,8.64-8.43,63.47,55.68c-4.72.08-9.82.16-15.21.29Zm20.25-.34-66.12-58,9-8.75,73.15,66.63c-4.47,0-9.83,0-16.07.12Zm28.8-.11h-7.89l-75.71-69,9-8.79,87.82,77.76c-8.37,0-13.26,0-13.26,0Zm18.29,0L442.42,2113l8.58-8.37,98,88.5Zm21.17.09-100.64-90.87,7.71-7.56,110.76,98.56q-9.52-.14-17.89-.17Zm22.85.2-113.47-101,9.6-9.34,123.83,110.53Zm25,.38-126.53-113,7.65-7.46,136.69,120.74q-9-.21-17.9-.35Zm23,.49L485.35,2071.11l9.35-9.11,148.85,132.86c-6.22-.23-12.5-.41-18.78-.58Zm23.9.75L497.05,2059.7l9-8.78L667.8,2195.83c-6.22-.3-12.63-.57-19.13-.83Zm24.31,1.09-164.7-147.5,8.74-8.53,177.6,157.32c-6.82-.45-14.12-1-21.71-1.33Zm45.59,3c-4.32-.15-8.62-.4-13-.81-1.8-.18-3.67-.32-5.56-.47l-180.64-160,7.07-6.85,194.83,168.26Z"/><path class="cls-11" d="M-2.26,2278.27H423.25s-25.78-49.05-99.72-58-111.14-23.52-132.69-31.22-52-22.3-70.56-21.89-61.69,11.35-79,10.13-43.52,0-43.52,0Z"/><path class="cls-12" d="M-2.26,2278.27H415.41s-25.3-46.36-97.88-54.79S208.44,2201.25,187.29,2194s-51-21.08-69.27-20.69-60.55,10.73-77.56,9.58-42.72,0-42.72,0Z"/><path class="cls-11" d="M522.06,2422.13l-11.37-.28L412,2419.39l-416.55,2.74V2258.74s63.08-4.31,100.53,12.54,59.78,46.63,80.15,58,45.66,21.16,59.13,21.16h87.06c18.72,0,43,1.17,61.1,3.92s36.79,21.94,52.23,24.68S522.06,2391.57,522.06,2422.13Z"/><path class="cls-12" d="M510.69,2421.85l-116,.28H-4.54V2268.61s61.71-4.05,98.35,11.78,58.5,43.81,78.43,54.49,44.68,19.88,57.86,19.88h85.17c18.32,0,42.11,1.1,59.79,3.68s36,20.62,51.1,23.19S510.24,2393.35,510.69,2421.85Z"/><polygon class="cls-8" points="1126.16 2157.3 1126.16 2166.74 905.29 2172.39 905.29 2176.93 876.42 2176.93 876.42 2181.79 880.07 2181.79 880.07 2185.91 901.77 2185.91 901.77 2197.87 882.03 2198.37 877.53 2198.49 861.25 2198.9 858.13 2198.98 840.47 2199.43 836.41 2199.54 824.98 2199.83 820.92 2199.93 808.07 2200.26 805.15 2200.33 793.37 2200.64 790.25 2200.71 777.79 2201.03 774.02 2201.13 774.02 2186.05 793.37 2186 805.15 2185.96 808.07 2185.95 820.92 2185.92 823.23 2185.91 823.23 2175.22 832.22 2175.22 832.22 2184.99 838.06 2184.99 838.06 2170.7 846.64 2170.7 846.64 2181.88 855.59 2181.88 855.59 2150.74 876.42 2150.74 876.42 2158.93 880.15 2158.93 880.15 2147.19 895.69 2147.19 895.69 2165.4 905.29 2165.4 905.29 2157.3 954.5 2157.17 954.5 2146.47 963.48 2146.47 963.48 2156.24 969.33 2156.24 969.33 2141.96 977.91 2141.96 977.91 2153.14 986.86 2153.14 986.86 2122 1007.68 2122 1007.68 2153.05 1011.33 2153.05 1011.33 2157.17 1034.07 2157.17 1034.07 2133.96 1048.32 2133.96 1048.32 2154.14 1051.97 2154.14 1051.97 2142.31 1057.63 2142.31 1057.63 2153.15 1060.37 2153.15 1060.37 2143.53 1070.51 2143.53 1070.51 2160.17 1085.94 2160.17 1085.94 2146.38 1107.22 2146.38 1107.22 2157.3 1126.16 2157.3"/><rect class="cls-4" x="909.05" y="2160.66" width="12.47" height="19.39"/><rect class="cls-4" x="924.64" y="2145.77" width="11.77" height="34.28"/><rect class="cls-4" x="956.24" y="2148.19" width="11.43" height="29.09"/><rect class="cls-4" x="971.73" y="2124.64" width="17.66" height="52.64"/><rect class="cls-4" x="992.51" y="2141.96" width="16.28" height="33.94"/><rect class="cls-4" x="1013.29" y="2114.25" width="19.74" height="56.1"/><polygon class="cls-4" points="1048.96 2141.54 1048.96 2170.36 1036.15 2170.36 1036.15 2141.54 1037.69 2141.54 1037.69 2135.95 1047.07 2135.95 1047.07 2141.54 1048.96 2141.54"/><polygon class="cls-4" points="1066.01 2150.1 1066.01 2169.9 1053.16 2169.9 1053.16 2150.1 1054.22 2150.1 1054.22 2148.41 1055.43 2148.41 1055.43 2146.74 1056.58 2146.74 1056.58 2144.7 1062.4 2144.7 1062.4 2146.74 1063.7 2146.74 1063.7 2148.41 1064.95 2148.41 1064.95 2150.1 1066.01 2150.1"/><polygon class="cls-4" points="952.18 2148.47 952.18 2172.38 939.34 2172.38 939.34 2148.47 940.4 2148.47 940.4 2146.43 941.6 2146.43 941.6 2144.41 942.76 2144.41 942.76 2141.96 948.58 2141.96 948.58 2144.41 949.87 2144.41 949.87 2146.43 951.12 2146.43 951.12 2148.47 952.18 2148.47"/><rect class="cls-4" x="1071.78" y="2158.93" width="12.42" height="9.83"/><polygon class="cls-4" points="1087.18 2147.2 1087.18 2168.96 1105.41 2168.96 1105.41 2143.53 1093.12 2143.53 1093.12 2147.1 1087.18 2147.2"/><rect class="cls-4" x="1109.64" y="2150.92" width="13.65" height="17.84"/><rect class="cls-4" x="777.79" y="2189.4" width="12.47" height="19.39"/><rect class="cls-4" x="793.37" y="2174.51" width="11.77" height="34.28"/><rect class="cls-4" x="824.98" y="2176.94" width="11.43" height="29.09"/><rect class="cls-4" x="840.47" y="2153.39" width="17.66" height="52.64"/><rect class="cls-4" x="861.25" y="2170.7" width="16.28" height="33.94"/><rect class="cls-4" x="882.03" y="2143" width="19.74" height="56.1"/><polygon class="cls-4" points="820.92 2177.21 820.92 2201.13 808.07 2201.13 808.07 2177.21 809.13 2177.21 809.13 2175.18 810.34 2175.18 810.34 2173.15 811.49 2173.15 811.49 2170.7 817.31 2170.7 817.31 2173.15 818.61 2173.15 818.61 2175.18 819.86 2175.18 819.86 2177.21 820.92 2177.21"/><path class="cls-11" d="M895.15,2172c79-6.65,231-7.88,231-7.88v104.06H605.24s-5.06-22.55,36.36-27.16,64-8.28,74.55-14.26,38.65-25.77,51.53-26.69,44.18-1.38,52.92-3.22S851.44,2175.63,895.15,2172Z"/><path class="cls-12" d="M899,2176.14c77.7-6.36,227.19-7.54,227.19-7.54v99.53H613.86s-5-21.57,35.75-26,62.91-7.92,73.32-13.65,38-24.64,50.68-25.52,43.45-1.32,52-3.08S856,2179.66,899,2176.14Z"/><path class="cls-11" d="M1126.16,2237.88l-.37,131.26v8.23H487.5a29.85,29.85,0,0,1-.18-8.23c1.08-10.18,7.46-26.94,36.62-33.31,43.1-9.4,60.73-5.09,81.11-15.28s69.35-35.33,91.29-35.65c27-.39,94,4.7,126.16,1.17s85.42-31.34,103-31.34,74.45-8.23,98-12.15S1126.16,2237.88,1126.16,2237.88Z"/><path class="cls-12" d="M1125.77,2377.37H494.53s-6.58-30.6,36-39.55,60.06-4.85,80.21-14.55,68.59-33.65,90.29-34c26.74-.37,93,4.48,124.78,1.12s84.47-29.85,101.91-29.85,73.62-7.83,96.87-11.56,101.53-4.48,101.53-4.48Z"/><rect class="cls-7" x="483.19" y="2376.58" width="646.1" height="1.57" rx="0.78"/><path class="cls-7" d="M471.83,2233.06h22.4a.62.62,0,0,1,.62.62h0a.62.62,0,0,1-.62.61h-22.4a.62.62,0,0,1-.62-.61h0A.62.62,0,0,1,471.83,2233.06Z"/><rect class="cls-7" x="836.98" y="2383.03" width="82.01" height="1.03" rx="0.51"/><rect class="cls-7" x="901.36" y="2393.06" width="53.65" height="1.03" rx="0.51"/><rect class="cls-7" x="938.77" y="2387.49" width="54.34" height="1.03" rx="0.51"/><rect class="cls-7" x="965.94" y="2381.92" width="41.01" height="1.03" rx="0.51"/><rect class="cls-7" x="926" y="2379.82" width="22.86" height="1.03" rx="0.51"/><rect class="cls-7" x="1.82" y="2428.85" width="70.89" height="1.03" rx="0.51"/><rect class="cls-7" x="45.89" y="2435.6" width="46.37" height="1.03" rx="0.51"/><rect class="cls-7" x="84.04" y="2431.97" width="46.97" height="1.03" rx="0.51"/><rect class="cls-7" x="113.29" y="2426.29" width="35.44" height="1.03" rx="0.51"/><rect class="cls-7" x="78.77" y="2428.34" width="30.43" height="1.03" rx="0.51"/><rect class="cls-7" x="-2.91" y="2432.62" width="30.43" height="1.03" rx="0.51"/><rect class="cls-7" x="387.69" y="2284.24" width="23.64" height="1.03" rx="0.51"/><rect class="cls-7" x="407.19" y="2287.41" width="15.46" height="1.03" rx="0.51"/><rect class="cls-7" x="416.9" y="2285.57" width="15.66" height="1.03" rx="0.51"/><rect class="cls-7" x="424.85" y="2283.12" width="11.82" height="1.03" rx="0.51"/><rect class="cls-7" x="703.75" y="2273.44" width="15.46" height="1.03" rx="0.51"/><rect class="cls-7" x="722.71" y="2272.41" width="17.1" height="1.03" rx="0.51"/><rect class="cls-7" x="715.41" y="2270.27" width="11.82" height="1.03" rx="0.51"/><rect class="cls-7" x="413.34" y="2283.72" width="6.59" height="1.03" rx="0.51"/><rect class="cls-7" x="466.52" y="2234.88" width="6.59" height="1.03" rx="0.51"/><path class="cls-7" d="M494.17,2230.72h4a.51.51,0,0,1,.51.51h0a.51.51,0,0,1-.51.51h-4v-1Z"/><path class="cls-3" d="M143.22,2056.94H29.49A28.26,28.26,0,0,1,60,2031.09a27.6,27.6,0,0,1,4.94.85,28.25,28.25,0,0,1,38.52-10.64,27.52,27.52,0,0,1,3.87,2.64,28.29,28.29,0,0,1,36.73,27A22.11,22.11,0,0,1,143.22,2056.94Z"/><path class="cls-4" d="M143.23,2056.94h-112C32.41,2043.54,44.38,2033,59,2033a29.79,29.79,0,0,1,7.16.87,28.18,28.18,0,0,1,24.2-13.19,28.89,28.89,0,0,1,17.54,5.83,29.09,29.09,0,0,1,8.34-1.19c15.37,0,27.83,11.66,27.83,26A19.13,19.13,0,0,1,143.23,2056.94Z"/><path class="cls-3" d="M186.67,1964.93H300.39a28.3,28.3,0,0,0-35.43-25,28.28,28.28,0,0,0-38.56-10.61,27.8,27.8,0,0,0-3.83,2.61,28.29,28.29,0,0,0-36.73,27A22.11,22.11,0,0,0,186.67,1964.93Z"/><path class="cls-4" d="M186.66,1964.93h112c-1.16-13.39-13.14-23.91-27.74-23.91a29.71,29.71,0,0,0-7.15.87,28.18,28.18,0,0,0-24.2-13.19,28.88,28.88,0,0,0-17.54,5.82,29.83,29.83,0,0,0-8.35-1.19c-15.37,0-27.82,11.67-27.82,26.06A18.9,18.9,0,0,0,186.66,1964.93Z"/><path class="cls-3" d="M210.49,2003.42h-70.3a16.87,16.87,0,0,1,25.3-14.6,16.82,16.82,0,0,1,18.57,1.14,16.86,16.86,0,0,1,26.43,13.46Z"/><path class="cls-4" d="M210.49,2003.42H141.37c0-8.62,7.42-15.62,16.58-15.62a17.27,17.27,0,0,1,8.29,2.09A17.39,17.39,0,0,1,184.5,1991a17.24,17.24,0,0,1,9.41-2.76C202.93,1988.19,210.27,1995,210.49,2003.42Z"/><path class="cls-3" d="M1144.33,2053.42H1030.61a28.26,28.26,0,0,1,28.17-25.93,28.77,28.77,0,0,1,7.27.94,28.28,28.28,0,0,1,38.56-10.61,27.8,27.8,0,0,1,3.83,2.61,28.29,28.29,0,0,1,36.73,27A21.66,21.66,0,0,1,1144.33,2053.42Z"/><path class="cls-4" d="M1144.35,2053.42h-112c1.17-13.39,13.14-23.92,27.74-23.92a29.8,29.8,0,0,1,7.16.88,28.18,28.18,0,0,1,24.2-13.19A28.92,28.92,0,0,1,1109,2023a29.81,29.81,0,0,1,8.34-1.19c15.37,0,27.83,11.67,27.83,26A19,19,0,0,1,1144.35,2053.42Z"/><path class="cls-3" d="M1130.66,2102.39h-70.3a16.88,16.88,0,0,1,25.3-14.61,16.9,16.9,0,0,1,18.57,1.14,16.86,16.86,0,0,1,26.43,13.47Z"/><path class="cls-4" d="M1130.66,2102.39h-69.12c0-8.63,7.42-15.63,16.58-15.63a17.41,17.41,0,0,1,8.29,2.09,17.41,17.41,0,0,1,8.29-2.09,17.13,17.13,0,0,1,10,3.15,17.23,17.23,0,0,1,9.4-2.76C1123.11,2087.15,1130.44,2093.94,1130.66,2102.39Z"/><rect class="cls-4" x="1052.41" y="2191.23" width="18.37" height="10.2"/><path class="cls-4" d="M1076.9,2234.31v-3.19h-1.52V2221h1.52v-4.08H1046V2221h1.92v10.15H1046v3.19h-2.81v4.83h36.63v-4.83ZM1053.27,2221h17.07v10.15h-17.12Z"/><path class="cls-4" d="M1087.11,2293.77v-6.28h-2.67v-15.94h2.67v-6.07h-51v6.07h2.77v15.94h-2.77v6.28h-4.84v9.05h21.4v-9.05h4.73v9.05h34v-9.05Zm-40.43-6.28v-15.94h29.63v15.94Z"/><polygon class="cls-4" points="1027.55 2293.77 1027.55 2302.82 1016.23 2302.82 1016.23 2293.77 1019.21 2293.77 1019.21 2265.48 1024.26 2265.48 1024.26 2293.77 1027.55 2293.77"/><polygon class="cls-4" points="1107.27 2293.77 1107.27 2302.82 1095.44 2302.82 1095.44 2293.77 1099.35 2293.77 1099.35 2265.48 1103.88 2265.48 1103.88 2293.77 1107.27 2293.77"/><path class="cls-8" d="M1055,2182.29h12.77s5.09,5.4,15.88,3.7c0,0-.92,3.69-5.86,5.24H1046a15,15,0,0,1-6.27-5.39S1049.49,2187.38,1055,2182.29Z"/><path class="cls-8" d="M1050.59,2201.43h22.27s4.33,8.15,25.14,7.54c0,0-3.28,7.51-10.89,7.92h-52.17s-8.11-2.53-10.69-8.54C1024.25,2208.35,1043.11,2210.24,1050.59,2201.43Z"/><path class="cls-8" d="M1001,2251.22s32.08.83,42.16-12.08h36.63s5.7,11.33,42.25,12.09c0,0-3.36,10-18.18,14.25H1018S1003.79,2260.31,1001,2251.22Z"/><rect class="cls-8" x="437.05" y="2286.49" width="1.84" height="0.49"/><rect class="cls-8" x="441.64" y="2286.49" width="1.84" height="0.49"/><rect class="cls-8" x="447.15" y="2286.49" width="1.84" height="0.49"/><polygon class="cls-8" points="591.79 2275.72 590.29 2276.91 589.59 2276.02 589.97 2275.72 591.79 2275.72"/><rect class="cls-8" x="608.28" y="2275.72" width="0.92" height="0.8"/><rect class="cls-8" x="613.17" y="2275.72" width="0.92" height="0.25"/><rect class="cls-8" x="617.96" y="2275.72" width="1.84" height="0.24"/><rect class="cls-8" x="447.15" y="2286.49" width="1.84" height="0.49"/><rect class="cls-8" x="441.64" y="2286.49" width="1.84" height="0.49"/><rect class="cls-8" x="437.05" y="2286.49" width="1.84" height="0.49"/><path class="cls-8" d="M619.8,2275.72v.25H618v-.25h-3.87v.25h-.92v-.25h-4v.8h-.91v-.8H604v-5h4.34v5h.91v-5h4v5h.92v-5H618v5h1.84v-6.18h-22l-7.79,6.18h1.82l6-4.74v4.74h-6l-1.5,1.19-.7-.89.38-.3H584.9v-42h-1.84v42h-9.32l-16.39,8.46v-14.64H545.41v-11h1.84v-2.76h-11v-11.94h.92a1.84,1.84,0,0,0-3.68,0h.92v11.94h-11v2.76h1.84v11h-12v16.95h-4.59v-5.94h-7.35v5.94h-2.75v-5h-7.35v5h-2.75v-5.94h-7.35v5.94h-1.84V2276H460.93v-17.45h-2.76V2276h-8.26v1.83h1.83v3.68H437.05v5h1.84v-3.18h2.75v3.18h1.84v-3.18h3.67v3.18H449v-3.18h2.75v3.18H449v.49h-1.84v-.49h-3.67v.49h-1.84v-.49H438.9v.49h-1.84v24.12H596.52l8.49-10.39,20.08-25Zm-21.12,0v-5H603v5Z"/><rect class="cls-8" x="617.96" y="2275.72" width="1.84" height="0.24"/><rect class="cls-8" x="613.17" y="2275.72" width="0.92" height="0.25"/><rect class="cls-8" x="608.28" y="2275.72" width="0.92" height="0.8"/><polygon class="cls-8" points="591.79 2275.72 590.29 2276.91 589.59 2276.02 589.97 2275.72 591.79 2275.72"/><path class="cls-13" d="M19.54,2269.45a44.47,44.47,0,0,1-4.39,20,44.47,44.47,0,0,1,4.39,20c0,16.74-7.93,30.32-17.72,30.32s-17.71-13.58-17.71-30.32a44.33,44.33,0,0,1,4.38-20,44.33,44.33,0,0,1-4.38-20,47.86,47.86,0,0,1,2.37-15.16,47.86,47.86,0,0,1-2.37-15.16c0-16.74,7.93-30.31,17.71-30.31s17.72,13.57,17.72,30.31a47.86,47.86,0,0,1-2.37,15.16A47.86,47.86,0,0,1,19.54,2269.45Z"/><path class="cls-8" d="M1.82,2240.7h0a1.11,1.11,0,0,1,1.11,1.11h0v124.8H.71v-124.8a1.11,1.11,0,0,1,1.11-1.11Z"/><path class="cls-8" d="M7.23,2244.79h0a1.1,1.1,0,0,1,0,1.57h0l-4.54,4.54h0l-1.57-1.57h0l4.54-4.54a1.1,1.1,0,0,1,1.57,0Z"/><path class="cls-8" d="M6.82,2270.32h0a1.12,1.12,0,0,1,0,1.57h0l-4.54,4.54h0l-1.6-1.6h0l4.54-4.54a1.1,1.1,0,0,1,1.57,0Z"/><path class="cls-8" d="M7.46,2299.77h0a1.1,1.1,0,0,1,0,1.56h0l-4.54,4.54h0l-1.57-1.57h0l4.54-4.53a1.11,1.11,0,0,1,1.57,0Z"/><path class="cls-8" d="M2.94,2288.81l-1.58,1.58h0l-4.54-4.54a1.12,1.12,0,0,1,0-1.57h0a1.12,1.12,0,0,1,1.57,0h0l4.54,4.54Z"/><path class="cls-8" d="M2.48,2323.52.9,2325.1h0l-4.54-4.54a1.11,1.11,0,0,1,0-1.57l0,0h0a1.12,1.12,0,0,1,1.57,0h0l4.54,4.54Z"/><path class="cls-8" d="M2.71,2260.91l-1.58,1.57h0L-3.41,2258a1.12,1.12,0,0,1,0-1.57h0a1.1,1.1,0,0,1,1.57,0h0l4.54,4.54Z"/><path class="cls-2" d="M128.91,2179.06c0,7.05-6.32,12.77-14.12,12.77s-14.12-5.72-14.12-12.77,14.12-44.74,14.12-44.74S128.91,2172,128.91,2179.06Z"/><path class="cls-8" d="M114.79,2166.17h0a1,1,0,0,1,1,1v41.5h-2.08v-41.5a1,1,0,0,1,1-1Z"/><path class="cls-8" d="M115.28,2170.39l-.87,1.37-4.28-2.23a.75.75,0,0,1-.37-1,.56.56,0,0,0,0-.08h0a.93.93,0,0,1,1.2-.29Z"/><path class="cls-8" d="M115.12,2183l-.87,1.37-4.28-2.23a.75.75,0,0,1-.37-1,.56.56,0,0,0,.05-.08h0a.93.93,0,0,1,1.2-.29Z"/><path class="cls-8" d="M114.49,2176.68l.88,1.37,4.27-2.23a.75.75,0,0,0,.37-1,.56.56,0,0,1-.05-.08h0a.92.92,0,0,0-1.19-.29Z"/><path class="cls-8" d="M114.65,2189.78l.88,1.37,4.27-2.23a.75.75,0,0,0,.37-1,.56.56,0,0,1,0-.08h0a.93.93,0,0,0-1.19-.29Z"/><path class="cls-13" d="M119,2171.86c0,9.77-9,17.68-20.1,17.68s-20.1-7.91-20.1-17.68,20.1-61.93,20.1-61.93S119,2162.1,119,2171.86Z"/><path class="cls-8" d="M98.94,2154h0a1.48,1.48,0,0,1,1.48,1.48v57.41h-3V2155.5a1.48,1.48,0,0,1,1.46-1.5Z"/><path class="cls-8" d="M99.64,2159.86l-1.25,1.9-6.08-3.09a1,1,0,0,1-.57-1.29,1,1,0,0,1,.11-.21h0a1.37,1.37,0,0,1,1.71-.4Z"/><path class="cls-8" d="M99.41,2177.28l-1.24,1.9-6.09-3.09a1,1,0,0,1-.56-1.3,1.28,1.28,0,0,1,.11-.2h0a1.33,1.33,0,0,1,1.7-.4Z"/><path class="cls-8" d="M98.52,2168.57l1.25,1.9,6.08-3.09a1,1,0,0,0,.56-1.3,1.28,1.28,0,0,0-.11-.2h0a1.35,1.35,0,0,0-1.7-.4Z"/><path class="cls-8" d="M98.75,2186.71l1.24,1.9,6.09-3.09a1,1,0,0,0,.56-1.3,1.28,1.28,0,0,0-.11-.2h0a1.33,1.33,0,0,0-1.7-.4Z"/><path class="cls-13" d="M80.62,2288.63c0,9.77-9,17.68-20.1,17.68s-20.1-7.91-20.1-17.68,20.1-61.94,20.1-61.94S80.62,2278.87,80.62,2288.63Z"/><path class="cls-8" d="M60.52,2270.79h0a1.48,1.48,0,0,1,1.48,1.48v57.41H59v-57.41a1.48,1.48,0,0,1,1.48-1.48Z"/><path class="cls-8" d="M61.22,2276.63l-1.24,1.9-6.09-3.09a1,1,0,0,1-.56-1.3,1.28,1.28,0,0,1,.11-.2h0a1.35,1.35,0,0,1,1.7-.4Z"/><path class="cls-8" d="M61,2294.05l-1.25,1.9-6.09-3.09a1,1,0,0,1-.56-1.3,1.28,1.28,0,0,1,.11-.2h0a1.33,1.33,0,0,1,1.7-.4Z"/><path class="cls-8" d="M60.1,2285.34l1.25,1.9,6.08-3.09a1,1,0,0,0,.57-1.29,1,1,0,0,0-.11-.21h0a1.37,1.37,0,0,0-1.71-.4Z"/><path class="cls-8" d="M60.33,2303.47l1.24,1.91,6.09-3.09a1,1,0,0,0,.56-1.3,1.28,1.28,0,0,0-.11-.2h0a1.33,1.33,0,0,0-1.7-.4Z"/><path class="cls-2" d="M93,2183.87c0,7.06-6.32,12.77-14.12,12.77s-14.12-5.71-14.12-12.77,14.12-44.73,14.12-44.73S93,2176.82,93,2183.87Z"/><path class="cls-8" d="M78.84,2171h0a1,1,0,0,1,1,1v41.5h-2V2172a1,1,0,0,1,1-1Z"/><path class="cls-8" d="M79.33,2175.2l-.87,1.38-4.28-2.24a.75.75,0,0,1-.37-1,.56.56,0,0,0,0-.08h0a.93.93,0,0,1,1.2-.29Z"/><path class="cls-8" d="M79.17,2187.78l-.87,1.38-4.3-2.24a.75.75,0,0,1-.37-1,.56.56,0,0,0,.05-.08h0a.93.93,0,0,1,1.2-.29Z"/><path class="cls-8" d="M78.54,2181.49l.88,1.38,4.27-2.24a.75.75,0,0,0,.37-1,.56.56,0,0,1,0-.08h0a.92.92,0,0,0-1.19-.29Z"/><path class="cls-8" d="M78.7,2194.59l.88,1.38,4.27-2.24a.75.75,0,0,0,.37-1,.56.56,0,0,1,0-.08h0a.92.92,0,0,0-1.19-.29Z"/><path class="cls-2" d="M92.11,2298.35c0,7.05-6.32,12.77-14.12,12.77s-14.12-5.72-14.12-12.77S78,2253.62,78,2253.62,92.11,2291.3,92.11,2298.35Z"/><path class="cls-8" d="M78,2285.47h0a1,1,0,0,1,1,1V2328H77v-41.5a1,1,0,0,1,1-1Z"/><path class="cls-8" d="M78.49,2289.68l-.88,1.38-4.27-2.24a.75.75,0,0,1-.38-1l.06-.1h0a.92.92,0,0,1,1.19-.29Z"/><path class="cls-8" d="M78.33,2302.26l-.88,1.38-4.27-2.24a.75.75,0,0,1-.38-1l.06-.1h0a.92.92,0,0,1,1.19-.29Z"/><path class="cls-8" d="M77.7,2296l.87,1.38,4.28-2.24a.76.76,0,0,0,.36-1l0-.07h0a.93.93,0,0,0-1.2-.29Z"/><path class="cls-8" d="M77.86,2309.07l.87,1.38,4.28-2.24a.76.76,0,0,0,.36-1l0-.07h0a.93.93,0,0,0-1.2-.29Z"/><path class="cls-2" d="M58.33,2297.65a20.8,20.8,0,0,0,0,22.51c0,9.44-6,17.09-13.39,17.09s-13.39-7.65-13.39-17.09a20.8,20.8,0,0,0,0-22.51,21.26,21.26,0,0,0,0-17.09c0-9.44,6-17.09,13.39-17.09s13.39,7.65,13.39,17.09A21.26,21.26,0,0,0,58.33,2297.65Z"/><path class="cls-8" d="M44.94,2281.45h0a.85.85,0,0,1,.84.84h0v70.15H44.1v-70.15a.85.85,0,0,1,.84-.84Z"/><path class="cls-8" d="M45.59,2287.2l-1.19-.89,3.44-2.56a1,1,0,0,1,1.19,0h0a.52.52,0,0,1,.18.71.52.52,0,0,1-.18.18Z"/><path class="cls-8" d="M45.29,2301.59l-1.19-.89,3.43-2.56a1.07,1.07,0,0,1,1.19,0h0a.52.52,0,0,1,.18.71.52.52,0,0,1-.18.18Z"/><path class="cls-8" d="M45.77,2318.19l-1.19-.89,3.43-2.56a1.07,1.07,0,0,1,1.19,0h0a.52.52,0,0,1,.18.71.52.52,0,0,1-.18.18Z"/><path class="cls-8" d="M44.59,2309.46l1.19-.89L42.35,2306a1,1,0,0,0-1.19,0h0a.52.52,0,0,0-.18.71.52.52,0,0,0,.18.18Z"/><path class="cls-8" d="M44.24,2329l1.19-.89L42,2325.57a1.07,1.07,0,0,0-1.19,0h0a.52.52,0,0,0-.18.71.52.52,0,0,0,.18.18Z"/><path class="cls-8" d="M44.42,2293.73l1.19-.89-3.44-2.56a1,1,0,0,0-1.19,0h0a.52.52,0,0,0-.18.71.52.52,0,0,0,.18.18Z"/><path class="cls-13" d="M45.17,2280.05A32.2,32.2,0,0,1,42,2294.56a32.22,32.22,0,0,1,3.19,14.51c0,12.17-5.77,22-12.88,22s-12.87-9.87-12.87-22a32.34,32.34,0,0,1,3.18-14.51,32.34,32.34,0,0,1-3.18-14.51,36.08,36.08,0,0,0,0-22c0-12.17,5.76-22,12.87-22s12.88,9.86,12.88,22a35.93,35.93,0,0,0,0,22Z"/><path class="cls-8" d="M32.29,2259.16h0a.81.81,0,0,1,.81.81h0v90.71H31.48V2260a.81.81,0,0,1,.81-.81h0Z"/><path class="cls-8" d="M36.22,2262.13h0a.83.83,0,0,1,0,1.15h0l-3.3,3.3h0l-1.15-1.15h0l3.3-3.3a.83.83,0,0,1,1.15,0Z"/><path class="cls-8" d="M35.94,2280.7h0a.81.81,0,0,1,0,1.14h0l-3.31,3.3h0L31.48,2284h0l3.3-3.3a.81.81,0,0,1,1.15,0Z"/><path class="cls-8" d="M36.38,2302.09h0a.8.8,0,0,1,0,1.14h0l-3.3,3.31h0l-1.15-1.15h0l3.31-3.3a.8.8,0,0,1,1.14,0Z"/><path class="cls-8" d="M33.12,2294.14,32,2295.29h0l-3.3-3.3a.81.81,0,0,1,0-1.15h0a.81.81,0,0,1,1.15,0h0l3.3,3.3Z"/><path class="cls-8" d="M32.77,2319.36l-1.15,1.14h0l-3.3-3.3a.81.81,0,0,1,0-1.15h0a.81.81,0,0,1,1.14,0h0Z"/><path class="cls-8" d="M32.93,2273.85,31.78,2275h0l-3.3-3.3a.81.81,0,0,1,0-1.14h0a.81.81,0,0,1,1.15,0h0l3.3,3.3Z"/><path class="cls-7" d="M49.78,2351.52v3.06l-2.39.19a8.4,8.4,0,0,1-3.34-.41l-4.91-1.66s-5.71,5.74-8.21,7.9-2,3.58-2,3.58l2.84,9,2.28,2.62H30.22l-5.81-15.27c5.36-3.77,5.8-7.93,5.83-9L17.75,2361l11.84-11.93a17,17,0,0,0,3.83-7.87c.67-4.43,5.17-5.18,5.17-5.18a57.34,57.34,0,0,0,.42,10.8C39.8,2353.92,49.78,2351.52,49.78,2351.52Z"/><path class="cls-7" d="M67.79,2339.22a18.4,18.4,0,0,1-4.37,10.85,19.11,19.11,0,0,0-2.67,3.94,53.19,53.19,0,0,0-5,19,2.45,2.45,0,0,0,.31,1.4l.46.82H53.7c.41-6.51,3.3-19.17,3.74-21.07a.2.2,0,0,0-.17-.23h0l-3.17.26c-.83-12.31,2.44-14.92,2.44-14.92.3,4,3.67,3.6,3.67,3.6s.31-.9-.94-4.27-1-9.15-1-9.15c5.61,1.42,8.16-2.71,8.16-2.71A31.79,31.79,0,0,1,67.79,2339.22Z"/><path class="cls-14" d="M66.45,2326.77s-2.55,4.13-8.16,2.71c0,0-.3,5.77,1,9.15s.94,4.27.94,4.27-3.37.38-3.67-3.6c0,0-3.27,2.61-2.44,14.92h0l-3.8.31h-.49v-3.06s-10,2.4-10.77-4.72a57.37,57.37,0,0,1-.42-10.8s-4.5.75-5.17,5.18a17,17,0,0,1-3.83,7.87l-11.89,12L16,2362.32a7.16,7.16,0,0,0-1.69,1.78l-5.72,8.44a.92.92,0,0,0-.12.74l.61,2.3H4.67v-.64l9.15-15.61a4.89,4.89,0,0,1,1.77-1.73c10.16-5.94,9.12-17.55,8.86-19.54a.71.71,0,0,1,.16-.54c2.77-3.08,7.17-3.72,10-3.77a17.78,17.78,0,0,1,3.92.37,89.5,89.5,0,0,0,11.18,1.57c4.26.25,5.84-1.83,6.35-2.84a2.31,2.31,0,0,0,.24-.89l.13-2.38a.32.32,0,0,0-.27-.33c-1.2-.14-5.84-.71-6.61-1.11-1-.53-.74-1.15-.74-1.15a2,2,0,0,1,2-2h0c1.62-.13,4.76-3.67,6-5.17a1.77,1.77,0,0,1,1.43-.61l4.54.23a1.61,1.61,0,0,1,1.38,1l.43,1a15.26,15.26,0,0,1,.55,1.47l.91,3A5.7,5.7,0,0,1,66.45,2326.77Z"/><ellipse class="cls-15" cx="51.27" cy="2326.1" rx="2.32" ry="1.2"/><circle class="cls-15" cx="59.24" cy="2322.34" r="0.94"/><path class="cls-14" d="M54.07,2354.23l-.62,10.25-.76,8.83,1,2H50.23V2373a31.34,31.34,0,0,0,.92-10.43,70,70,0,0,0-1.37-8Z"/><path class="cls-14" d="M51,2316.38s5.49-.56,6.35,3.34l-2.43,2.62A6.49,6.49,0,0,1,51,2316.38Z"/><path class="cls-14" d="M69.66,2314.44s-5.4,1.75-5.87,5.39l1.26,2.51S71.05,2319.39,69.66,2314.44Z"/><path class="cls-7" d="M55.94,2319.35s-2.27-2.34-3.93-2.17c0,0,.8,3.18,2.55,3.43Z"/><path class="cls-7" d="M65,2319.35s1.67-3.3,3.25-3.37c0,0-.59,3.33-2.31,3.89Z"/><path class="cls-2" d="M26.61,2336.9a36,36,0,0,1-3.54,16.1,35.82,35.82,0,0,1,3.54,16.12c0,13.53-6.41,24.49-14.31,24.49S-2,2382.68-2,2369.15A35.77,35.77,0,0,1,1.53,2353,35.86,35.86,0,0,1-2,2336.9a38.58,38.58,0,0,1,1.9-12.25A38.51,38.51,0,0,1-2,2312.41c0-13.53,6.4-24.49,14.31-24.49s14.31,11,14.31,24.49a38.25,38.25,0,0,1-1.92,12.24A38.58,38.58,0,0,1,26.61,2336.9Z"/><path class="cls-8" d="M12.3,2313.68h0a.9.9,0,0,1,.9.9V2415.4H11.4V2314.58a.9.9,0,0,1,.9-.9Z"/><path class="cls-8" d="M16.66,2317h0a.88.88,0,0,1,0,1.27L13,2321.92h0l-1.27-1.27h0l3.66-3.66a.9.9,0,0,1,1.27,0Z"/><path class="cls-8" d="M16.34,2337.61h0a.9.9,0,0,1,0,1.27l-3.67,3.67h0l-1.27-1.27h0l3.67-3.67A.9.9,0,0,1,16.34,2337.61Z"/><path class="cls-8" d="M16.85,2361.39h0a.9.9,0,0,1,0,1.27l-3.67,3.67h0l-1.27-1.27h0l3.67-3.67A.9.9,0,0,1,16.85,2361.39Z"/><path class="cls-8" d="M13.19,2352.53l-1.27,1.27h0l-3.67-3.67a.88.88,0,0,1,0-1.27h0a.9.9,0,0,1,1.27,0Z"/><path class="cls-8" d="M12.84,2380.6l-1.27,1.27h0L7.9,2378.2a.9.9,0,0,1,0-1.27h0a.9.9,0,0,1,1.27,0l3.67,3.67Z"/><path class="cls-8" d="M13,2330l-1.28,1.27h0l-3.67-3.67a.9.9,0,0,1,0-1.27h0a.89.89,0,0,1,1.28,0Z"/><path class="cls-7" d="M172.69,2437.83H157.63a1.19,1.19,0,0,1-.56-.14,3.55,3.55,0,0,1-2-3,.86.86,0,0,0,.84.44h1.27a2.22,2.22,0,0,0,1.13-.3,15.29,15.29,0,0,1,5.26-2,7.43,7.43,0,0,1,4.79,1.15s.69.23-.06-1a4.71,4.71,0,0,1-.56-2.11,6.27,6.27,0,0,1,.15-1.83,10,10,0,0,0,.33-2.18c-.09-.43-.19-.78-.19-.78s.41.66.62.66a14,14,0,0,1,4.09,0,2.07,2.07,0,0,1,1.61,2.27v2h-2.48m0,.07c.3.58,2.69,4.44.82,6.76Z"/><path class="cls-16" d="M177,2430.65a4.84,4.84,0,0,1-1.64-.29,7.52,7.52,0,0,0-1-.56v1.2h3a.34.34,0,0,0-.33-.35Z"/><path class="cls-16" d="M158.77,2437.83s-.05-1.75,2.51-2.46a11.1,11.1,0,0,1,4.06-.24,8.12,8.12,0,0,1,2.17.54,1.71,1.71,0,0,0,2.11-.4c.76-1,.7.67.64,1.43a1.59,1.59,0,0,1-.32.87.52.52,0,0,1-.38.26Z"/><circle class="cls-16" cx="172.34" cy="2429.3" r="0.71"/><circle class="cls-7" cx="172.34" cy="2429.3" r="0.26"/><path class="cls-7" d="M128,2284.8h11.3a.91.91,0,0,0,.43-.1,2.66,2.66,0,0,0,1.53-2.23.63.63,0,0,1-.63.34h-.95a1.59,1.59,0,0,1-.85-.22,11.26,11.26,0,0,0-4-1.53,5.54,5.54,0,0,0-3.59.86s-.52.18,0-.74a3.51,3.51,0,0,0,.42-1.58,4.85,4.85,0,0,0-.11-1.37,7.66,7.66,0,0,1-.25-1.64c.07-.32.14-.58.14-.58s-.3.49-.46.49a10.53,10.53,0,0,0-3.07,0,1.54,1.54,0,0,0-1.21,1.7v1.44h1.86m0,.06c-.17.47-2,3.36-.56,5.1Z"/><path class="cls-16" d="M124.79,2279.41a3.65,3.65,0,0,0,1.23-.21,5.75,5.75,0,0,1,.77-.42v.89h-2.26a.26.26,0,0,1,.26-.26Z"/><path class="cls-14" d="M138.44,2284.8s0-1.31-1.88-1.84a8.42,8.42,0,0,0-3-.19,6.5,6.5,0,0,0-1.63.41,1.26,1.26,0,0,1-1.58-.3c-.58-.75-.53.5-.49,1.08a1.29,1.29,0,0,0,.24.65.4.4,0,0,0,.28.19Z"/><path class="cls-14" d="M128.26,2277.86a.54.54,0,1,1-.54.54A.54.54,0,0,1,128.26,2277.86Z"/><circle class="cls-7" cx="128.26" cy="2278.4" r="0.2"/><path class="cls-7" d="M530,2398.91v-1.83s6.33.52,7.13,1.24S530,2398.91,530,2398.91Z"/><path class="cls-16" d="M530,2397.08a7.32,7.32,0,0,0-3.31-.44,2,2,0,0,0-1.88,2.12s0,.11,0,.16v3.56s.36,1.43,2.12.78a.34.34,0,0,1,.44.2.5.5,0,0,1,0,.12v3.07a.14.14,0,0,1-.12.14.16.16,0,0,1-.09,0c-.59-.38-2.25-1.36-3.4-.94-1.41.51-2.44.77-4.24,5.84-1.24,3.5-1.74,4.77-1.94,5.22a.07.07,0,0,0,0,.09.07.07,0,0,0,.09,0h0l1.65-1.36a.19.19,0,0,1,.27,0,.21.21,0,0,1,0,.1l.25,1.73m.08,0,1.35-2.61a1,1,0,0,1,.77-.53c1.6-.19,6.43-1.31,7.8-7.69a2.43,2.43,0,0,1,.15-.62c.33-1.16,1.4-5.77-2.81-4.93a2.5,2.5,0,0,1,2.73-2.16Z"/><circle class="cls-7" cx="528.74" cy="2397.84" r="0.61"/><circle class="cls-16" cx="528.74" cy="2397.84" r="0.32"/><polygon class="cls-7" points="525.42 2413.22 525.8 2422.91 525.42 2422.91 524.91 2413.49 525.42 2413.22"/><polygon class="cls-7" points="523.5 2414.03 522.35 2422.91 521.76 2422.91 523.1 2414.14 523.5 2414.03"/><rect class="cls-7" x="-5.4" y="2421.35" width="536.47" height="1.57" rx="0.78"/></svg>