<svg xmlns="http://www.w3.org/2000/svg" viewBox="0 0 50.55 31.8"><defs><style>.cls-1{fill:#4a6eb0;}.cls-2{fill:#08539d;}</style></defs><title>parana-viz</title><g id="Laag_2" data-name="Laag 2"><g id="lengte"><path class="cls-1" d="M50.55,15.53v7.64c-.67-.21-1.47-.44-2.35-.66l-.08,0c-3.14-.77-7.31-1.43-10.41-.54a14.33,14.33,0,0,1-11.87-2l-.06,0a14.36,14.36,0,0,1-5-6.29,37.6,37.6,0,0,0-2.13-4.28,3.29,3.29,0,0,0-6.14,1.69v.06a14.35,14.35,0,0,0,1.19,6c1.84,4.37,1,7.38-.24,9.28,0,0,0,0,0,0a8.28,8.28,0,0,1-2.83,2.65C6.68,31.71,3.09,32.19,0,31.54v-6a7.32,7.32,0,0,0,6.77-.82l0,0c.66-.42,1.13-.81,1.36-.93,1.14-.64.62-4.93-.94-7.72-.77-1.35-.78-3.58-.6-5.5A13.26,13.26,0,0,1,9.9,2.84c6.52-7.15,14.64,1,15.46,4.87a8.19,8.19,0,0,0,9.4,6.61c.35-.06.71-.12,1.07-.2a11.68,11.68,0,0,1,1.57-.26C41.51,13.51,47.45,14.77,50.55,15.53Z"/><path class="cls-2" d="M50.55,15.38v7.27c-.67-.2-1.47-.42-2.35-.63l-.08,0c-3.14-.74-7.31-1.37-10.41-.52a14.93,14.93,0,0,1-11.87-1.86l-.06,0a13.9,13.9,0,0,1-5-6,34.64,34.64,0,0,0-2.13-4.08,3.32,3.32,0,0,0-6.14,1.61v.06a13.09,13.09,0,0,0,1.19,5.7c1.84,4.16,1,7-.24,8.84,0,0,0,0,0,0a8.16,8.16,0,0,1-2.83,2.52A14,14,0,0,1,0,30.62V25a7.67,7.67,0,0,0,6.77-.78l0,0c.66-.4,1.13-.77,1.36-.89,1.14-.61.62-4.69-.94-7.35-.77-1.29-.78-3.41-.6-5.24A12.33,12.33,0,0,1,9.9,3.29c6.52-6.81,14.64,1,15.46,4.64a8.16,8.16,0,0,0,9.4,6.29c.35-.05.71-.11,1.07-.19a11.78,11.78,0,0,1,1.57-.24C41.51,13.45,47.45,14.65,50.55,15.38Z"/></g></g></svg>