<svg xmlns="http://www.w3.org/2000/svg" viewBox="0 0 504.5 437.68"><defs><style>.cls-1{fill:#415733;}.cls-2{fill:#a2c1db;}.cls-3{fill:#d91e84;}.cls-4{fill:#fff;}</style></defs><title>parana-delta_1</title><g id="Laag_2" data-name="Laag 2"><g id="Laag_1-2" data-name="Laag 1"><rect class="cls-1" x="0.22" y="0.19" width="504.28" height="437.49"/><path class="cls-2" d="M298,185.37s.39,1.65,0,2-1.45,1.05-1.45,2.1v3.62a11.64,11.64,0,0,0,.09,1.45c.24,1.83,1,6.31,2.76,8.26,2.09,2.3,3.93,6.44,7.94,8.19a9.66,9.66,0,0,1,1.66.93,21.93,21.93,0,0,0,5.57,3,2.27,2.27,0,0,1,1.19,3.42.43.43,0,0,0,0,.07c-1.5,2.09.66,5.23.66,5.23s2.11,5.25,11.32,6.52l.44,1.12s-5.31-1-6.74-1.87-4.56-2.55-5.61-5-2-4.74-.76-6.43c1-1.36-.26-2-.78-2.25l-.55-.25c-1.35-.69-6.51-3.33-7.62-4.11a66.77,66.77,0,0,1-6.37-6.56c-1-1.16-4-5.85-3.92-10.55s-.53-5.27,0-6.11,1.87-.85,1.29-2.74l-.08-.29a7.81,7.81,0,0,1-1.8-1.07,12.52,12.52,0,0,1-2.7-3.25,33.37,33.37,0,0,1-3.75-2.95c-.58-.73-2.45-3.15-2.45-3.15s-5.16-4.52-9.1-5a16.73,16.73,0,0,1-7.32-3.31l-.39-.3c-1.08-.79-5.57-4.17-6.66-6.08-1-1.74-6.1-3.21-8-3.7a12.58,12.58,0,0,0-1.25-.26c-1.63-.26-6.74-1.24-8.09-3.41a6.43,6.43,0,0,0-2.08-2.26,9.25,9.25,0,0,1-2.56-2.09,6.15,6.15,0,0,1-.92-1.36c-.54-1.23-5.11,1.18-5.11,1.18s-.51,2.86,0,3.83c.24.46.67,1.23,1.05,1.9a3,3,0,0,1,.17,2.62c-.38.94-.69,2.14,0,2.6a4.88,4.88,0,0,0,2.26.77,1.85,1.85,0,0,1,1.14.58c1.82,2,8,9.28,9.16,19.26a9.66,9.66,0,0,1-.18,3.43,16.41,16.41,0,0,1-2.74,5.64c-3.18,4.37-.81,6.75-.81,6.75s.17,1.19,4,1a5.6,5.6,0,0,1,3.49,1c2,1.39,5.45,3.56,6.91,3.61a30.33,30.33,0,0,0,7.86-1,3.53,3.53,0,0,1,2.61.3,1.87,1.87,0,0,1,1,2,6.25,6.25,0,0,1-.84,2.42c-.89,1.26,2.52,6.38,2.52,6.38s5.68,7,10.6,9.06a6.12,6.12,0,0,1,1.55.94,26.15,26.15,0,0,1,5.06,5.57c1.13,2,4.16,4,6.09,5.13a12.87,12.87,0,0,0,3.26,1.39c4,1.1,14.29,3.87,16,3.57,2.16-.37,3-2.59,8.39-1.26L320,240.75s-2.44-2.66-7.64-2.66c-4.27,0-12.66-3.37-15.5-4.56a8,8,0,0,1-1.8-1c-2.24-1.69-8.44-6.48-11.13-9.7a10.49,10.49,0,0,0-1.78-1.68,16.43,16.43,0,0,0-3.91-2.27c-2.16-.71-9.05-9.62-9.35-11.84a17.38,17.38,0,0,1,.51-5.21,1,1,0,0,0-1-1.26,9.74,9.74,0,0,0-3.89,1.23c-4.82,2.35-11.5-2.92-11.5-2.92s-5.12-3.63-7.19-1.34a8.77,8.77,0,0,0-.74.92,18.45,18.45,0,0,1-5.19,5c-1.51,1-2.88,2-3.13,2.62-.59,1.55-3.63,6.08-4.67,11.94s-12.71,35.72-12.71,35.72c1.75.46,3.69.91,5.71,1.26a86.87,86.87,0,0,1,14.7,4.18s12.07,4.52,15.24,7.62,8.09,2.16,8.09,2.16a20.22,20.22,0,0,1,7.21.54c3.11,1,5.94-3.84,5.94-3.84s2.7-3.92,4.32-3.92c1.4,0,1.37-.46,1.34-.58l3.7,1.27s-9.33,2.33-9.33,4.69S275,269.6,275,269.6s-2,1-1.49,2.19,3.36,3,4.14,4.13a10.74,10.74,0,0,0,1.52,1.5,15.41,15.41,0,0,0,6.16,3.23l.5.13a2.68,2.68,0,0,0,2.92-1.12l1.75,3.88c-2.58-1.08-8.09.5-8.09.5s9.41,20.17,13.15,24L294,311.22l-8.46-16.28s-5.89-10.57-6.41-12.7S269,272.62,269,272.62s-5.42-.19-7.29,1a14.24,14.24,0,0,0,1.29,3.72,54.16,54.16,0,0,1,2.4,7l1.38,6.07s6.77,3.79,7.08,6.29-.21,3.83,1.18,5.8c1.06,1.51,2.68,3.89,3.38,4.93a9.48,9.48,0,0,0,.79,1,32.12,32.12,0,0,0,3.71,3.67,9.32,9.32,0,0,1,2.5,5.15l-.42,1.5s-1.17-2.88-1.44-3.36.32-1.39-.58-2.13a52.33,52.33,0,0,1-5.12-5.28c-.43-.74-3.94-5.64-4-6.12a16.92,16.92,0,0,1-.47-3.63c0-2-3.09-4.74-4.58-5.48,0,0-1.49-1.28-1.44-.64a11.66,11.66,0,0,0,.85,2.34,11.32,11.32,0,0,1-1.12,3.3,4.76,4.76,0,0,0,.22,2.46,7.48,7.48,0,0,1,.32,2.82l.37,2.08a12.72,12.72,0,0,1-.59,2.82,10.58,10.58,0,0,0-.21,4.68c.14.42.45,1.17.75,1.89a8.62,8.62,0,0,1,.69,3.32,7.17,7.17,0,0,0,1.12,3.9c1.14,1.67,3.14,4.46,4.2,5.92a15,15,0,0,1,1.24,2l2.34,4.31-1.5,1.5a14.13,14.13,0,0,1-.85-3.31c-.14-1.33-1.55-3.33-2-3.95-.12-.16-.23-.33-.34-.5l-1.06-1.64a12.85,12.85,0,0,0-.76-1.06,16,16,0,0,1-2.11-3.07c0-.48-1.22-.7-2,.53s-5.38,5.7-5.54,7a11.66,11.66,0,0,0,0,4.1c.32.75,1,2.45,1.76,2.88s3.3,2.34,3.94,2.34.27.9,3.14,0a21.62,21.62,0,0,1,5.91-1.23c.53.11-1,4.05-1,4.05s-7.44-.32-8.83-1.28-5-3.09-5.59-5.22-.85-4.9-.43-6.12,7.67-8.84,7.67-8.84a11.85,11.85,0,0,0-1.1-6.25,7.05,7.05,0,0,1-.82-3.34,8.58,8.58,0,0,1,.37-2.54,9.83,9.83,0,0,0,.57-2.51c.12-1.66.15-4.12-.58-5.23-1.17-1.76.93-5,.93-5s.47-1.64-1.28-4.33c-1.12-1.71-2.23-6.27-2.9-9.39a25.7,25.7,0,0,0-2.11-6.09c-.44-.89-.82-1.67-.86-1.83-3.48-.9-10.61-5.62-10.61-5.62s-9.1-5.81-13.1-7-7.49-2.9-9.68-2.9-9.81-2.46-9.81-2.46l-12.26-4.32-8.3-3.15a23.28,23.28,0,0,0-2.94-.92c-2.73-.69-8.26-2-10.13-2.06-1.61,0-5.82-1.25-8.64-2.11a25.22,25.22,0,0,0-3.82-.9,24,24,0,0,1-6.58-2.41c-4.85-2.4-10.9-7.63-12.85-9.37-.46-.4-.92-.79-1.4-1.17-1.94-1.54-7-5.6-8.34-7a77.07,77.07,0,0,1-4.94-6.52c-.18-.25-.23-.6-.46-.81-.39-.33-1.56-1.28-8.47-.32a11.23,11.23,0,0,0-4.15,1.48l-.07,0a4.67,4.67,0,0,1-6.71-2.56,22.69,22.69,0,0,0-1.46-3.57c-.8-1.29-2.16-8.73-8.24-9.82a5.86,5.86,0,0,0-2,0,23.53,23.53,0,0,0-5.61,1.51c-2,.87-5.57-.36-7.65-1.24a15.55,15.55,0,0,1-3.42-2c-1.41-1.1-3.13-2.76-2.94-4.27l.06-.42a4,4,0,0,1,3.7-3.32h0c.68,0,.9-.89,1-1.74a7.34,7.34,0,0,0-.48-3.14,7.94,7.94,0,0,0-6.41-5.45,32.1,32.1,0,0,1-3.94-.73,6.8,6.8,0,0,1-5.06-6.16c0-.44,0-.92,0-1.43,0-3-3.06-5.84-5.19-7.44A10.57,10.57,0,0,1,65,155.26l0-.16A5.43,5.43,0,0,0,63,150.29a7.27,7.27,0,0,0-6.28-1.44c-2.64.59-7.17,1.41-10.32.89l-.15,0a11.8,11.8,0,0,1-7.68-4.91c-1.36-2-3.51-4.62-5.28-4.94-2.84-.51-10.73-7.29-10.73-7.29s-3.27-2.07-1-4.2c.62-.59,1.08-1,1.42-1.39a1.58,1.58,0,0,0,0-2.22,6.44,6.44,0,0,0-1.44-1.09,10.75,10.75,0,0,1-3.11-2.54c-.78-.95-1.75-1.92-2.49-2-1.48-.13-5.81-.71-6.33-2.52s1.17-4.71-1.48-5.87-6.71,1-6.71,1-.59,0-1.2.07v-1.64a20.37,20.37,0,0,1,5.46-1.65,4.18,4.18,0,0,1,2.37.16,6.44,6.44,0,0,1,3.56,4.6l.48,2.32s.22.68,2.43,1.07a6.28,6.28,0,0,1,4,2.41q.25.33.51.72a7.05,7.05,0,0,0,2.91,2.47,11.18,11.18,0,0,1,3.54,2.3,2.61,2.61,0,0,1,.57,1.25,2.75,2.75,0,0,1-1.39,2.75c-1,.58-2.28,1.83.95,3.68a58.93,58.93,0,0,1,5.66,3.62,10.91,10.91,0,0,0,1.45.94,35.22,35.22,0,0,1,6.51,4.34,13.47,13.47,0,0,1,2.25,3.16,7.62,7.62,0,0,0,6.33,4,12.36,12.36,0,0,0,5-.57c3-1.35,9.44-2,11.6,1.48a10.86,10.86,0,0,1,1.76,4.46,11.52,11.52,0,0,0,.75,3.22,20.48,20.48,0,0,0,4.78,7.15,17.3,17.3,0,0,1,4.59,7,6.75,6.75,0,0,1,.32,1.89c0,1.5.68,5.52,6,5.58a9.8,9.8,0,0,1,7.06,3.09,8.82,8.82,0,0,1,2.64,6.57,4.27,4.27,0,0,1-3.87,4.43,1.42,1.42,0,0,0-1.26,1.36,1.09,1.09,0,0,0,.28.74c.74.81,3.73,2.7,4.86,3.77s5.73,3.11,11,.81a8.18,8.18,0,0,1,7.51.42,7.78,7.78,0,0,1,2.4,2.13,24.34,24.34,0,0,1,4.18,8.51c1.22,5.19,2.9,5.94,5.53,3.91s14-4.38,16.72,2.36c2,4.9,7.56,8.85,10.43,10.63a23.88,23.88,0,0,1,3.42,2.57c3.31,3,11,9.35,17.49,10.47a21.35,21.35,0,0,1,3,.77,106.28,106.28,0,0,0,17.37,4.16,22.75,22.75,0,0,1,4.14.94c4.09,1.33,12.6,4.08,15.87,5,0,0,2.8,1.13,6.83,2.26,0,0,5.33-11.81,8-20s5-15.29,5.64-18,2.6-8.9,4.53-10.31c.94-.69,2.73-1.93,4.31-3a12,12,0,0,0,4.11-4.81.73.73,0,0,1,.11-.19c.13-.19-1.19-1.24-1.92-2.79a3.9,3.9,0,0,1,.42-4,32.31,32.31,0,0,0,3.72-6,14.33,14.33,0,0,0,.53-5.18,16.14,16.14,0,0,0-1.09-5.26c-1.19-3-3.36-8.15-5.1-10a7.59,7.59,0,0,1-.9-1.15c-.53-.82-1.54-2.07-2.79-2a2.58,2.58,0,0,1-1.23-.23,2.85,2.85,0,0,1-1.52-3.09,5.36,5.36,0,0,1,.53-1.73c.35-.64-.13-1.32-.65-1.81a3.71,3.71,0,0,1-1.14-2.45A14.42,14.42,0,0,1,234,148l-5.42,0c-.34,0-2.76,1.38-4.43,1.18s-5.56.1-9.88-2.36-11.47-7.53-13.34-10.67a16.27,16.27,0,0,0-4-4.68s-4.92-6.1-6.59-8.9c-.78-1.3-1.85-3.12-2.78-4.7a21.42,21.42,0,0,0-5.15-5.91,43,43,0,0,0-5-3.56,15.43,15.43,0,0,1-3.39-2.05,9.83,9.83,0,0,0-6.2-2.4,20.78,20.78,0,0,0-9.89,1.94c-5.85,3.1-7.28,2.71-7.28,2.71s-11.86-.2-16.88-5.8S127,94.63,124.3,88.38a119,119,0,0,0-6-11.81,13.26,13.26,0,0,0-10.44,5.31,28.85,28.85,0,0,1-3.92,4.34c-3.32,2.93-8.69,7.7-10.49,9.34a24.56,24.56,0,0,1-5.22,3.51q-.54.27-1,.57c-1.59.94-6.63,3.63-10.88,2.57,0,0-2.81-.58-5.18-4.29-2-3.18-17-6.64-21.27-7.56a15.42,15.42,0,0,1-2.13-.65,23.42,23.42,0,0,0-5.44-1.57c-1.38,0-9.08-5.67-11.68-7.61a19.06,19.06,0,0,0-1.85-1.22c-2.87-1.64-11.1-6.35-12-6.72C15.67,72.14,6.27,69,6.27,69s-3.71-1.28-4.48-1.4c-.55-.1-1.23-1.25-1.57-1.89C.08,65.47,0,65.3,0,65.3V61l.22.21c1.07,1.06,5.83,5.69,7.13,5.8a48.74,48.74,0,0,1,6.19,1.75,17.8,17.8,0,0,1,2.44,1l6.34,3.15c.51.25,1,.54,1.5.84l7.93,5c.28.19.56.37.84.57a42.65,42.65,0,0,0,10.86,5.59,26.71,26.71,0,0,1,3.14,1.26c2.09,1,6.82,2.9,16.28,5.24,0,0,8,1.79,9.79,5.56a.75.75,0,0,0,.06.13,5.69,5.69,0,0,0,6.51,3,25.45,25.45,0,0,0,5.14-1.77c2.36-1.28,11.51-7.8,14.06-10.36s6.43-6.18,7.17-7c1-1.14,7.23-5.94,7.23-5.94l-5-3a11.54,11.54,0,0,0-6.19-1.64,17.83,17.83,0,0,0-3.68.44,12.82,12.82,0,0,1-5.13-.2,11.15,11.15,0,0,1-8-6.45,16.44,16.44,0,0,1-1.3-6.27c-.09-5.67-4.7-3.34-7.22-1.64a7.64,7.64,0,0,1-10.12-1.29c-.1-.13-.21-.26-.31-.4A6.78,6.78,0,0,0,58.05,52a20.76,20.76,0,0,1-3.81.77L52.38,53a19.67,19.67,0,0,0-5.45,1.38A135.1,135.1,0,0,1,34.15,59l-.15,0a12.51,12.51,0,0,1-11-2.54c-1.8-1.49-3.71-3.27-4-4.34-.65-2.11-4.85-6.29-5.18-9.28a7.41,7.41,0,0,0-3-5.11C8.23,38.89,1.5,40.07.22,40.29l-.22,0V38.68l.22-.19c3.91-3.31,9.93-2.78,9.93-2.78l-.82-2.06a36.82,36.82,0,0,1-2.39-10A103.61,103.61,0,0,0,5,11.12C4,6.68,2,5,.22,4.42V.19H3.3A7.27,7.27,0,0,1,6.51,2.85,9.68,9.68,0,0,1,8.12,9.47c-.3,2.76-.55,7.69,1.15,9.78,1.91,2.35,2.31,6.44,2.39,8,0,.3,0,.6,0,.9-.06.84.2,4,5,12.81,5.89,10.74,13.13,14.8,13.13,14.8s1.07,2.57,19.84-6.49A14.92,14.92,0,0,1,68.32,54l.27.39a1.43,1.43,0,0,0,.42.39c.88.5,3.89,1.66,9.06-2a4.93,4.93,0,0,1,5.74,0,7.4,7.4,0,0,1,2.64,5,8.54,8.54,0,0,1,.09,1.6c-.07,1.88.27,7.5,6.67,7.5,5.61,0,11.66.56,14.53.86a12.12,12.12,0,0,1,3.69,1c3.82,1.77,12,6.52,15.06,15.92,2.29,7.14,6.86,9.9,10.32,11a23.46,23.46,0,0,1,8.22,4.51,10.8,10.8,0,0,0,4.93,2.58,19.58,19.58,0,0,1,4.15,1,8.57,8.57,0,0,1,.93.42.93.93,0,0,0,1.05-.13,21.32,21.32,0,0,1,5.07-2.86,67.77,67.77,0,0,1,9.44-3c4.36-.84,15.5-10.89,17.57-12.79a7.51,7.51,0,0,1,.76-.61c2.17-1.52,12.18-8.4,18.68-9.43,0,0,2.26-.16,2-7a7.38,7.38,0,0,1,.75-3.61.59.59,0,0,0,0-.08,3.15,3.15,0,0,1,4.61-1.07c1.19.86,3.05,2,4.54,1.68a8.59,8.59,0,0,0,2.72-1.19,31.79,31.79,0,0,1,8.83-3.83L232,60a14.86,14.86,0,0,0,4.19-1.81l.29-.18a17.56,17.56,0,0,1,6.88-2.53h.1a6.91,6.91,0,0,0,2.87-1c.26-.16.54-.35.83-.55a11.12,11.12,0,0,1,5.71-2c.25,0,.49,0,.71,0,1.78.06,10.18-7.6,11.05-8s4.41-3.59,9.24-3.7a5.17,5.17,0,0,1,2.8.73,8.57,8.57,0,0,0,3.47,1.42c1.37-.06,8.69,2.3,8.69,2.3s1.7,0,3.49-2.54l.93.41-2.86,2.87a.28.28,0,0,0-.07.3c.3.74,1.74,3.59,6,3.43l1.12,2.17a14.22,14.22,0,0,0-4.69-2.29A10.19,10.19,0,0,1,288.14,46a6.45,6.45,0,0,1-.56-.72c-.88-1.4-8.89-2.55-8.89-2.55a10.13,10.13,0,0,0-5.37-1.56,9.93,9.93,0,0,0-2.69.38,8.58,8.58,0,0,0-3.15,1.58l-5,4.27c-.41.35-.8.71-1.18,1.09a17.78,17.78,0,0,1-7.2,4.16,26.57,26.57,0,0,0-4.88,1.89,26.64,26.64,0,0,1-3.44,1.56l-8.65,3.16a70,70,0,0,1-9.32,3,14.82,14.82,0,0,0-4,1.6,18.4,18.4,0,0,0-3.1,2.15c-1.09,1-3.49-.3-4.78-1.16a10.34,10.34,0,0,1-1.1-.88c-.48-.42-1.58-1-2.8,1.48s-1.37,6.39-1.35,8a1,1,0,0,0,.63.93,10.74,10.74,0,0,1,4.24,3,5.69,5.69,0,0,0,4.13,2.17c.72,0,1.52.07,2.37.06a17.78,17.78,0,0,1,6.24,1.6,17.08,17.08,0,0,0,2.22.76,13.49,13.49,0,0,1,2.71,1c1.65.85,1.56-.1,3.54,1.32,1.4,1,3.94.86,5.3.7a12.72,12.72,0,0,1,2.31,0A90.75,90.75,0,0,1,255,85.93c1.83.49,3.6-2.06,4.39-3.39A7.18,7.18,0,0,1,261,80.63c1.76-1.42,5.18-3.45,8.91-1.58,0,0,5.52,1.88,7.59,3.3a24.09,24.09,0,0,1,4,4,2.71,2.71,0,0,0,2.54.92c1.55-.29,4-1.41,6.68-5.07.36-.49.69-1,1-1.52L293.7,77l4.39,1s-7.83,5.74-7.83,6.61S286.69,89,286.69,89s-3,1.83-6.26-1.42a29.5,29.5,0,0,0-6-4.76,23.23,23.23,0,0,0-5.62-2.18,7.39,7.39,0,0,0-7.48,2.79c-1.16,1.53-2.81,3.52-3.86,3.91,0,0,2,3.17,2.06,5.87s7.85,4.43,7.85,4.43a17.4,17.4,0,0,0,8-2.53c3.57-2.38,9.12,2.69,9.12,2.69a12.63,12.63,0,0,0,4.06,1.52l10.05,1.89s6.18,1.27,9.2-.16l2.45,3.22c-.18-.06-4.56-1.42-6.42,0s-9.35-1.4-9.35-1.4-5.23-2.14-7.37-2S280,97.7,280,97.7s-3.41-2.14-8.32,1-9.51-1-9.51-1-4.24-2.76-4.36-6.28c-.09-2.87-5.06-3.55-6.88-3.69-.55-.05-1.1-.12-1.65-.2L245,86.77a13.27,13.27,0,0,0-2.74-.15c-1.77.08-5,0-6.61-1.18a5.81,5.81,0,0,0-2.19-1.1,8,8,0,0,0-1.71-.2,35.76,35.76,0,0,1-4.94-.57l-4.92-.95c-.91-.18-1.83-.3-2.76-.39a4.54,4.54,0,0,1-3.43-1.86c-1.33-2.1-3.64-4.13-9.94-1.47a67.28,67.28,0,0,0-10.51,5.61,7.39,7.39,0,0,1-.66.42l-1.52.93A15.78,15.78,0,0,0,188,90.7a5.6,5.6,0,0,0-.61,1.08c-.26.71-2.57,1.7-3.85,2.2a27.26,27.26,0,0,0-3.33,1.56c-1.53.86-3.21,2-3.25,3-.06,1.5,6.08,1.91,8.43,9.48a22.1,22.1,0,0,0,6,9.78,13.94,13.94,0,0,0,3.07,2.37c2,.79,6.61,8.18,6.61,8.18s1.89,3.07,2.75,5c.09.19.19.4.31.61a17.65,17.65,0,0,0,10.14,8.51,16.37,16.37,0,0,0,3.54.75,6.21,6.21,0,0,1,2.71.92,6.48,6.48,0,0,0,3.29.93c1.74,0,6.82-.49,10.75-1a24.19,24.19,0,0,0,9.31-3.1l.05,0c1.63-.94,8.7.35,13.27-1.72s13.7-4.82,19-7.67,11.9-5,13.32-4.65c1.06.25,5,.46,6.94.55a11.8,11.8,0,0,1,2.44.37,24.21,24.21,0,0,1,4.36,1.58c2.85,1.37,9.66-1.13,9.66-1.13l4.31-.77,2.92,7.15s-9.91-2.67-13.79-2.76a56,56,0,0,1-9.74-1.55s-10.34-.77-13.35,1.81c-2.45,2.09-7.48,3.68-9.32,4.21-.43.12-.85.26-1.27.41a37.63,37.63,0,0,1-8.37,2.11c-4.57.51-11.29,2.92-13.45,2.75s-7.84,2.07-8.1,4.05a3.5,3.5,0,0,0,.46,1.94,7.5,7.5,0,0,0,4.28,3.65,25.46,25.46,0,0,1,5.43,2.43,28.18,28.18,0,0,0,6.71,2.69,10.29,10.29,0,0,1,2.73,1.21,8.36,8.36,0,0,1,2.37,2.22,11.3,11.3,0,0,0,.84,1.08,17,17,0,0,0,6.32,4.58,33.29,33.29,0,0,1,4.56,2.27,24.18,24.18,0,0,0,5.53,2.2,9.82,9.82,0,0,1,3,1.45l0,0h0a27,27,0,0,0,3.75,1,6.09,6.09,0,0,0,2.31-.53,12.29,12.29,0,0,1,2.52-.65,14.79,14.79,0,0,0,5.4-1.73c2.52-1.62,2.88.82,2.88.82-.24,3.31.79,3.11.79,3.11a8.76,8.76,0,0,1,1.1-.17,8.19,8.19,0,0,1,3.72.65,4.35,4.35,0,0,0,2.35.27,7.6,7.6,0,0,1,3.56.76,6.51,6.51,0,0,1,1.73,1.26c5.41,5.26,15.35,4.69,15.35,4.69l.29,1a44.72,44.72,0,0,1-10.6-1.57,13.59,13.59,0,0,1-4.74-2.75,5.23,5.23,0,0,1-.9-1,3.21,3.21,0,0,0-1-.89,5.87,5.87,0,0,0-3-.85h-.91a7.74,7.74,0,0,1-3.11-.65h0a3,3,0,0,0-1.74-.21c-3.63.67-3.2-1.41-3.2-1.41a8.75,8.75,0,0,0-.5-2.29.61.61,0,0,0-1-.18,5.52,5.52,0,0,1-1.57,1,17.2,17.2,0,0,1-4.72.83,6.38,6.38,0,0,0-2.26.61,10.74,10.74,0,0,1-4,1.05,4.55,4.55,0,0,1,.32.49,13.78,13.78,0,0,0,2.5,3.13l.46.4c.74.56,3.3,2.59,3.5,3.23a7.81,7.81,0,0,0,1.62,1.94,5.58,5.58,0,0,0,3,1.52,33.86,33.86,0,0,0,3.76.38c1.95,0,4.9,3,6,4.2a7.69,7.69,0,0,1,.68.83,14.13,14.13,0,0,0,4.84,4.13,16.67,16.67,0,0,1,5.34,5.12,7.52,7.52,0,0,0,1.71,1.76c.77.57,1.87,1.36,3.09,2.14a9.82,9.82,0,0,1,3.38,4.06l.87,2.93s-3.73-5.35-6.47-6.84a9.53,9.53,0,0,1-2.53-1.94c-1-1.15-2.41-2.68-3.21-3.69a11.21,11.21,0,0,0-3.42-2.6,6.73,6.73,0,0,1-1.72-1.27l-7.11-7.18A11.64,11.64,0,0,0,298,185.37Z"/><path class="cls-2" d="M266,1.6c3.36,6.71,16.65,32.5,25.13,38.7a1.24,1.24,0,0,1,.37.48c.32.8,1.59,3,5.51,1.89A1.11,1.11,0,0,1,298.41,44a5.76,5.76,0,0,1-1.5,2.31c-2.16,2.32-.14,4.51,1,5.44A1.1,1.1,0,0,1,298.2,53c-.59,1.57-2,5.13-2.89,6.88C294.17,62,296.38,67,291.2,71.75a2,2,0,0,0-.44,2.43c.77,1.58,2.6,3.86,6.83,4.7A17.28,17.28,0,0,1,303,80.66,2.79,2.79,0,0,1,304.3,83c.06,2.65.47,10.5,3.26,14.43a3.32,3.32,0,0,1,.25,3.54l0,.06c-1,1.67,2.53,3.58,3.24,3.94a1.15,1.15,0,0,1,.26.19,9,9,0,0,1,2.19,5.35,18.64,18.64,0,0,0,.6,2.86,29.57,29.57,0,0,0,1.77,4.94c.75,1.41-1.2.45-2.44-.25a1.24,1.24,0,0,0-1.7.48c-.76,1.39-1.47,4.21,1.19,8.63,4,6.61,7.1,7.51,10.19,8.31,2.52.66,8.79,8.56,11,11.44a6.42,6.42,0,0,1,1.38,3.72A3.53,3.53,0,0,1,333.8,154a5.92,5.92,0,0,0-2.06,2.16,9.18,9.18,0,0,0-1.06,6.21,27.93,27.93,0,0,1,.43,6.27,31,31,0,0,0-.12,3.2,25.87,25.87,0,0,1-.94,6.79,6.51,6.51,0,0,0,.69,4.94,18.27,18.27,0,0,0,3.45,4.35,2.65,2.65,0,0,1,.78,2.73c-.62,2.08-1.75,5.28-2.92,5.73-.54.21-1-.32-1.38-1.15a1,1,0,0,0-1.86.3c-.49,4.11-1.26,9.13-2.08,9.73-1.12.8,3,6.43,4.89,8.82a12.17,12.17,0,0,1,1.64,2.89c1.23,3.07,3,9-1.47,10.12s-4.53,3.78-4.24,5a1.12,1.12,0,0,1-.38,1.14,15.77,15.77,0,0,1-3.89,2.19c-2.54,1-3.17,4.68-3.26,5.27,0,0,0,.09,0,.14,0,.45,0,2.82.51,3.43S316,254.4,297,256.42a6.93,6.93,0,0,0-3,1c-1.69,1.07-5.7,2.47-13.08-.67a1.08,1.08,0,0,0-.73-.05c-1.09.3-3.77,1.43,1.39,4.35a26,26,0,0,0,5.47,2.37,1.11,1.11,0,0,1-.2,2.16l-.17,0a1.11,1.11,0,0,0-.43,2.07,10.36,10.36,0,0,0,3.27,1.12c3.21.53.82,1.34.15,1.54a1.11,1.11,0,0,0-.34.18c-.49.37-1.53,1.43,1.11,2.19s-1.11,1-2.75,1.12a1.1,1.1,0,0,0-1,.84,3.84,3.84,0,0,0,1.37,4,1.09,1.09,0,0,1,.27,1.33l-.24.49a1.1,1.1,0,0,0,.26,1.33l2.34,2a1.23,1.23,0,0,0,.48.25,3.27,3.27,0,0,1,2.22,1.78,1.1,1.1,0,0,0,1.86.25,4.57,4.57,0,0,1,2.28-1.73c.55-.11,1.1-.18,1.6-.23a1.1,1.1,0,0,1,1.06,1.65c-1.31,2.27-3.32,6-3,7.05.47,1.5-1.16,2.66.93,6.15s-.11,7.19-.11,7.19a3.8,3.8,0,0,1-3.7,1.56c-1.36-.13-1.2,1.27-.72,2.67a1.11,1.11,0,0,1-1.24,1.45c-1.8-.33-4.43.27-7.22,4.53,0,0-1.62,2.13-1.65,6.39a1.11,1.11,0,0,1-1.64,1c-1.43-.79-3.27-1-3.66,2.69a1.13,1.13,0,0,0,0,.32c.13.68.61,3.54-.42,5.36a19.78,19.78,0,0,0-2.13,5l-1.23,4.88a1.2,1.2,0,0,0,.06.7c.6,1.41,3.14,6.91,9.18,14.94a1.1,1.1,0,0,1,.21.57c.19,2.59,1.73,20.37,8.29,19.93a1.07,1.07,0,0,1,.75.25c3,2.56,24.27,20.54,33.92,24.77a1.09,1.09,0,0,1,.63.8c.59,3.29,4,19.9,15.95,33.28a1.09,1.09,0,0,0,.83.37h68.42a1.1,1.1,0,0,0,1.1-1.22L390.6,205.67a1.09,1.09,0,0,0-.3-.64c-.95-1-4.17-5.21-1.75-14.89,2.69-10.75-12.56-35.58-14-37.85a.89.89,0,0,0-.26-.29L359.8,140.77a1.08,1.08,0,0,1-.36-.49c-1-2.76-9.08-24.09-15.67-26.46a74.34,74.34,0,0,1-13-6.81,25.22,25.22,0,0,1-5.51-4.74c-3.39-3.9-9.72-10.93-11.35-10.93-2.25,0-6.48-8.26-6.2-13s-1.12-8.71,1.69-13.21,4.23-1.41,2-7.33-9.58-8.44-5.64-20.84c3.44-10.8,4.1-30.84,4.21-35.8A1.11,1.11,0,0,0,308.85,0H267A1.1,1.1,0,0,0,266,1.6Z"/><rect class="cls-3" x="9.91" y="340.1" width="252.3" height="21.77"/><path class="cls-4" d="M30.7,337.68V352H16.56V306.93H36.3q8.28,0,12.71,4.2t4.42,11.27a15.47,15.47,0,0,1-2,7.74,14,14,0,0,1-5.83,5.5,19.72,19.72,0,0,1-9.33,2Zm8.41-15.28q0-4.14-4.4-4.14h-4v8.28h4Q39.11,326.54,39.11,322.4Z"/><path class="cls-4" d="M76.87,317.08A9.76,9.76,0,0,1,80.75,321v-4.91H94.82V352H80.75v-4.9A9.73,9.73,0,0,1,76.87,351a12.12,12.12,0,0,1-6.05,1.44,13.62,13.62,0,0,1-7.58-2.2,14.91,14.91,0,0,1-5.32-6.37,25.93,25.93,0,0,1,0-19.68,14.82,14.82,0,0,1,5.32-6.36,13.54,13.54,0,0,1,7.58-2.2A12.22,12.22,0,0,1,76.87,317.08Zm-5.1,12.51a7.54,7.54,0,0,0,0,8.92,5.24,5.24,0,0,0,7.52,0,7.54,7.54,0,0,0,0-8.92,5.24,5.24,0,0,0-7.52,0Z"/><path class="cls-4" d="M120.61,317.72a12.46,12.46,0,0,1,6.5-1.88v15.09h-4q-4,0-5.89,1.4c-1.26.94-1.88,2.59-1.88,5V352H101.19V316.09h14.14v6.63A17.1,17.1,0,0,1,120.61,317.72Z"/><path class="cls-4" d="M149.91,317.08a9.76,9.76,0,0,1,3.88,3.92v-4.91h14.07V352H153.79v-4.9a9.73,9.73,0,0,1-3.88,3.91,12.12,12.12,0,0,1-6,1.44,13.62,13.62,0,0,1-7.58-2.2,14.84,14.84,0,0,1-5.32-6.37,25.93,25.93,0,0,1,0-19.68,14.75,14.75,0,0,1,5.32-6.36,13.54,13.54,0,0,1,7.58-2.2A12.22,12.22,0,0,1,149.91,317.08Zm-5.1,12.51a7.54,7.54,0,0,0,0,8.92,5.23,5.23,0,0,0,7.51,0,7.5,7.5,0,0,0,0-8.92,5.23,5.23,0,0,0-7.51,0Z"/><path class="cls-4" d="M209,320q3.47,4.14,3.47,11.21V352H198.43V333a5.75,5.75,0,0,0-1.37-4,5.26,5.26,0,0,0-7.36,0,5.82,5.82,0,0,0-1.33,4v19H174.23V316.09h14.14v5.48a12.75,12.75,0,0,1,4.42-4.14,13,13,0,0,1,6.59-1.59Q205.56,315.84,209,320Z"/><path class="cls-4" d="M237.59,317.08a9.69,9.69,0,0,1,3.88,3.92v-4.91h14.08V352H241.47v-4.9a9.67,9.67,0,0,1-3.88,3.91,12.12,12.12,0,0,1-6.05,1.44,13.64,13.64,0,0,1-7.58-2.2,14.82,14.82,0,0,1-5.31-6.37,25.8,25.8,0,0,1,0-19.68,14.73,14.73,0,0,1,5.31-6.36,13.56,13.56,0,0,1,7.58-2.2A12.22,12.22,0,0,1,237.59,317.08Zm6.81-9.39-16.49,6v-9.43l16.49-7Zm-11.9,21.9a7.5,7.5,0,0,0,0,8.92,5.23,5.23,0,0,0,7.51,0,7.54,7.54,0,0,0,0-8.92,5.23,5.23,0,0,0-7.51,0Z"/><rect class="cls-3" x="9.91" y="406.93" width="185.31" height="21.77"/><path class="cls-4" d="M56,410.64a20.62,20.62,0,0,1-8.18,8.12,25.06,25.06,0,0,1-12.38,3H16.69V376.63H35.48a25.69,25.69,0,0,1,12.38,2.87,20,20,0,0,1,8.18,8,23.22,23.22,0,0,1,2.87,11.59A23.46,23.46,0,0,1,56,410.64ZM41.78,406.5c1.87-1.74,2.8-4.23,2.8-7.45s-.93-5.71-2.8-7.45A10.67,10.67,0,0,0,34.2,389H30.83v20.12H34.2A10.67,10.67,0,0,0,41.78,406.5Z"/><path class="cls-4" d="M98.45,406.24H75.85c.13,1.79.53,3,1.21,3.66a3.67,3.67,0,0,0,2.67,1,3.43,3.43,0,0,0,3.31-2.1H98a15.53,15.53,0,0,1-3.22,6.85,17.33,17.33,0,0,1-6.17,4.77,19,19,0,0,1-8.19,1.75,19.85,19.85,0,0,1-9.52-2.23,15.81,15.81,0,0,1-6.49-6.4,21.67,21.67,0,0,1,0-19.55,15.87,15.87,0,0,1,6.49-6.4,21.65,21.65,0,0,1,19,0,15.86,15.86,0,0,1,6.5,6.28,19,19,0,0,1,2.32,9.61A12.67,12.67,0,0,1,98.45,406.24Zm-14-5.79a3.8,3.8,0,0,0-1.14-3,4.29,4.29,0,0,0-2.87-1c-2.59,0-4.07,1.33-4.45,4Z"/><path class="cls-4" d="M117.37,374.59v47.13H103.23V374.59Z"/><path class="cls-4" d="M146.09,409.68v12h-5.35Q126,421.72,126,407v-9.43h-4.45V385.8H126v-8.66H140.1v8.66H146v11.78H140.1v9.68a2.46,2.46,0,0,0,.6,1.85,2.91,2.91,0,0,0,2,.57Z"/><path class="cls-4" d="M170.47,386.79a9.69,9.69,0,0,1,3.89,3.91v-4.9h14.07v35.92H174.36v-4.91a9.72,9.72,0,0,1-3.89,3.92,12.17,12.17,0,0,1-6.05,1.43,13.53,13.53,0,0,1-7.57-2.2,14.75,14.75,0,0,1-5.32-6.36,25.93,25.93,0,0,1,0-19.68,14.84,14.84,0,0,1,5.32-6.37,13.6,13.6,0,0,1,7.57-2.19A12.06,12.06,0,0,1,170.47,386.79Zm-5.09,12.51a7.5,7.5,0,0,0,0,8.92,5.23,5.23,0,0,0,7.51,0,7.5,7.5,0,0,0,0-8.92,5.23,5.23,0,0,0-7.51,0Z"/></g></g></svg>