<svg xmlns="http://www.w3.org/2000/svg" viewBox="0 0 159.58 159.58"><defs><style>.cls-1{fill:#e8eff7;}.cls-2{fill:#e05c9d;}.cls-3{fill:#4a6eb0;}.cls-4{fill:#08539d;}</style></defs><title>steden-icon</title><g id="Laag_2" data-name="Laag 2"><g id="Laag_4" data-name="Laag 4"><path class="cls-1" d="M159.58,79.79q0,3.46-.3,6.84a2.45,2.45,0,0,1,0,.27,78.7,78.7,0,0,1-4.21,19.42A79.79,79.79,0,0,1,.43,88.14,82.18,82.18,0,0,1,0,79.79c0-.31,0-.63,0-.94A79.19,79.19,0,0,1,6.86,47.39l.76-1.66a79.44,79.44,0,0,1,5.74-10.14c.59-.9,1.21-1.78,1.84-2.65A79.81,79.81,0,0,1,154.67,52.18c.33.88.64,1.77.92,2.66h0a79.24,79.24,0,0,1,3.05,12.75c0,.28.09.56.13.84A80.27,80.27,0,0,1,159.58,79.79Z"/><path class="cls-2" d="M155.05,106.32a79.81,79.81,0,0,1-150.53,0Z"/><path class="cls-3" d="M62,34.25v76.06H96.81V34.25Zm22.54,8.31H92v5.5H84.51Zm-8.77,0h7.52v5.5H75.74Zm-9,0h7.51v5.5H66.77Zm7.51,50.62H66.77v-5.5h7.51Zm0-7.51H66.77V80.16h7.51Zm0-7.52H66.77V72.64h7.51Zm0-7.53H66.77v-5.5h7.51Zm0-7.51H66.77v-5.5h7.51Zm.11-7.52H66.88V50.08h7.51Zm8.87,37.59H75.74v-5.5h7.52Zm0-7.51H75.74V80.16h7.52Zm0-7.52H75.74V72.64h7.52Zm0-7.53H75.74v-5.5h7.52Zm0-7.51H75.74v-5.5h7.52Zm.11-7.52H75.86V50.08h7.51ZM92,93.18H84.51v-5.5H92Zm0-7.51H84.51V80.16H92Zm0-7.52H84.51V72.64H92Zm0-7.53H84.51v-5.5H92Zm0-7.51H84.51v-5.5H92Zm.11-7.52H84.61V50.08h7.52Z"/><path class="cls-3" d="M127.78,56.1V42.67H105.25V56.1h-3.71v69.24h30.79V56.1Zm-14.14-8.62h6.59v6.59h-6.59Zm-8.39,14.11h6.59v6.59h-6.59Zm.11,8.79H112V77h-6.59Zm0,8.81H112v6.59H105.4Zm0,8.79H112v6.59h-6.59Zm6.64,15.4h-6.6V96.77h6.6Zm1.56-41.79h6.59v6.59h-6.59Zm.11,8.79h6.59V77h-6.59Zm0,8.81h6.59v6.59h-6.59Zm0,8.79h6.59v6.59h-6.59Zm6.64,15.4h-6.61V96.77h6.61ZM122,61.59h6.59v6.59H122Zm.1,8.79h6.59V77h-6.59Zm0,8.81h6.6v6.59h-6.6Zm0,8.79h6.59v6.59h-6.59Zm6.63,15.4h-6.59V96.77h6.59Z"/><path class="cls-3" d="M55.56,71.67v-4h-3v-4h-3.1V58.72h-14V63.6H32.69v4H29.81v4H27.25v47.59H58.11V71.67ZM40.22,109.86H32v-5h8.24Zm0-7H32v-5h8.24Zm0-7H32V91h8.24Zm0-7H32V84h8.24Zm0-7H32V77h8.24Zm13.17,27.83H45.14v-5h8.25Zm0-7H45.14v-5h8.25Zm0-7H45.14V91h8.25Zm0-7H45.14V84h8.25Zm0-7H45.14V77h8.25Z"/><path class="cls-4" d="M62.65,36v73.17H96.17V36Zm21.68,8h7.22v5.29H84.33ZM75.9,44h7.23v5.29H75.9Zm-8.63,0h7.22v5.29H67.27Zm7.22,48.69H67.27V87.38h7.22Zm0-7.23H67.27V80.15h7.22Zm0-7.23H67.27v-5.3h7.22Zm0-7.24H67.27V65.68h7.22Zm0-7.23H67.27V58.45h7.22Zm.11-7.23H67.37v-5.3H74.6Zm8.53,36.16H75.9V87.38h7.23Zm0-7.23H75.9V80.15h7.23Zm0-7.23H75.9v-5.3h7.23Zm0-7.24H75.9V65.68h7.23Zm0-7.23H75.9V58.45h7.23Zm.1-7.23H76v-5.3h7.22Zm8.32,36.16H84.33V87.38h7.22Zm0-7.23H84.33V80.15h7.22Zm0-7.23H84.33v-5.3h7.22Zm0-7.24H84.33V65.68h7.22Zm0-7.23H84.33V58.45h7.22Zm.11-7.23H84.43v-5.3h7.23Z"/><path class="cls-4" d="M126,57V44.08H104.28V57h-3.56v66.6h29.61V57Zm-13.6-8.29h6.34v6.34h-6.34Zm-8.07,13.58h6.34v6.34h-6.34Zm.11,8.45h6.34v6.34h-6.34Zm0,8.47h6.34v6.34h-6.34Zm0,8.46h6.34V94h-6.34Zm6.39,14.81H104.5V96.13h6.35Zm1.5-40.19h6.34v6.34h-6.34Zm.11,8.45h6.34v6.34h-6.34Zm0,8.47h6.34v6.34h-6.34Zm0,8.46h6.34V94h-6.34Zm6.39,14.81h-6.35V96.13h6.35Zm1.42-40.19h6.34v6.34h-6.34Zm.1,8.45h6.34v6.34h-6.34Zm0,8.47h6.35v6.34h-6.35Zm0,8.46h6.33V94h-6.33Zm6.37,14.81h-6.34V96.13h6.34Z"/><path class="cls-4" d="M56.49,72v-3.9h-2.9V64.21h-3V59.52H37.16v4.69H34.49v3.87H31.71V72H29.25v45.77H58.93V72ZM41.73,108.71H33.8v-4.79h7.93Zm0-6.69H33.8V97.23h7.93Zm0-6.69H33.8v-4.8h7.93Zm0-6.69H33.8v-4.8h7.93Zm0-6.7H33.8V77.15h7.93Zm12.66,26.77H46.46v-4.79h7.93Zm0-6.69H46.46V97.23h7.93Zm0-6.69H46.46v-4.8h7.93Zm0-6.69H46.46v-4.8h7.93Zm0-6.7H46.46V77.15h7.93Z"/></g></g></svg>