<svg id="Laag_2" data-name="Laag 2" xmlns="http://www.w3.org/2000/svg" viewBox="0 0 2136 1250">
  <defs>
    <style>
      .cls-1 {
        fill: #05529d;
      }

      .cls-2 {
        fill: #bacfe4;
      }

      .cls-3 {
        fill: #e8eff6;
      }

      .cls-4 {
        fill: #d2dfed;
      }

      .cls-5 {
        fill: #c3d1dd;
      }

      .cls-6 {
        fill: #bac7d1;
      }

      .cls-7 {
        fill: #a3c1db;
      }

      .cls-8 {
        fill: #8dafd2;
      }

      .cls-9 {
        fill: #66785b;
      }

      .cls-10 {
        fill: #405632;
      }

      .cls-11 {
        fill: #8db573;
      }

      .cls-12 {
        fill: #71a350;
      }

      .cls-13 {
        fill: #cddceb;
      }

      .cls-14 {
        fill: #6090c0;
      }

      .cls-15 {
        fill: #7f3d03;
      }

      .cls-16 {
        fill: #d4e5f6;
      }

      .cls-17 {
        fill: #1a1a1a;
      }
    </style>
  </defs>
  <title>website illustratie</title>
  <g>
    <rect class="cls-1" x="-0.27" y="605.98" width="2143.14" height="644.43"/>
    <rect class="cls-2" x="-0.64" y="-44.75" width="2143.14" height="547.67"/>
    <g>
      <path class="cls-3" d="M1572.47,356.5v0h166.66a41.47,41.47,0,0,0-51.93-36.63,41.42,41.42,0,0,0-62.12-11.7,41.46,41.46,0,0,0-53.83,39.52A32.19,32.19,0,0,0,1572.47,356.5Z"/>
      <path class="cls-4" d="M1572.45,356.5v0h164.12c-1.71-19.62-19.26-35-40.65-35a43.55,43.55,0,0,0-10.49,1.28c-7-11.54-20.27-19.33-35.47-19.33a42.32,42.32,0,0,0-25.7,8.54,43.14,43.14,0,0,0-12.23-1.75c-22.52,0-40.78,17.1-40.78,38.18A28.17,28.17,0,0,0,1572.45,356.5Z"/>
    </g>
    <polygon class="cls-5" points="585.95 491.66 583.84 491.66 584.66 491.07 585.95 491.66"/>
    <polygon class="cls-5" points="585.95 491.66 583.84 491.66 584.66 491.07 585.95 491.66"/>
    <polygon class="cls-5" points="585.95 491.66 583.84 491.66 584.66 491.07 585.95 491.66"/>
    <polygon class="cls-5" points="585.95 491.66 583.84 491.66 584.66 491.07 585.95 491.66"/>
    <polygon class="cls-6" points="585.95 494.94 583.84 494.94 584.66 494.37 585.95 494.94"/>
    <polygon class="cls-6" points="585.95 494.94 583.84 494.94 584.66 494.37 585.95 494.94"/>
    <polygon class="cls-6" points="585.95 494.94 583.84 494.94 584.66 494.37 585.95 494.94"/>
    <polygon class="cls-6" points="585.95 494.94 583.84 494.94 584.66 494.37 585.95 494.94"/>
    <path class="cls-7" d="M2407.38,586,2151.6,406.14,2109.47,437l-116.68-82-45.49,33.3L1937,395.7l-68-47.8-40,29.26-29.61-20.82-27,19.76-73.08-51.38L1653.92,358l-86.44,62.62L1474.06,355l-45.48,33.3L1390.4,415.9,1217.51,262.09l-98,71.25-65-45.71L1009,320.93l-81,58.68-96.42-67.79-45.48,33.31-22.24,16.11-37.21-26.16-42.35,31-97.68-86.91-98,71.25-65-45.71L378.18,338l-69.11,50.06-130.38-116-337,245.12H259.37l-9.76,7.1H1048.9l-36.82-17.1h252.28l-38.08,27.59h327.34l-1.92,1.39h420.87L1903.82,586ZM584.66,491.07l1.29.59h-2.11Z"/>
    <path class="cls-8" d="M2407.38,586,2151.6,412.39l-42.13,29.77L1992.79,363l-45.49,32.15L1937,402.31l-68-46.14-40,28.24-29.61-20.09-27,19.07-73.08-49.6-45.49,32.14-86.44,60.45L1474.06,363l-45.48,32.15-38.18,26.69L1217.51,273.34l-98,68.77-65-44.12L1009,330.13l-81,56.65-96.42-65.44-45.48,32.15L763.89,369l-37.21-25.25-42.35,29.94-97.68-83.89-98,68.77-65-44.12-45.48,32.15L309.07,395,178.69,283l-337,236.61H259.37l-9.76,6.85H1048.9l-36.82-16.5h252.28l-38.08,26.63h327.34l-1.92,1.34h420.87L1903.82,586ZM584.66,494.37l1.29.57h-2.11Z"/>
    <g>
      <polygon class="cls-3" points="1799.48 356.33 1788.79 364.19 1796.04 365.93 1799.91 370.98 1803.8 365.17 1814.21 366.76 1799.48 356.33"/>
      <polygon class="cls-4" points="1799.77 357.39 1790.62 364.12 1796.82 365.6 1800.14 369.93 1803.47 364.96 1812.38 366.31 1799.77 357.39"/>
    </g>
    <g>
      <polygon class="cls-3" points="1217.56 260.79 1185.88 285.09 1208.62 295 1217.56 289.5 1226.62 297.34 1245.32 286.94 1217.56 260.79"/>
      <polygon class="cls-4" points="1217.41 262.15 1188.11 284.64 1209.14 293.81 1217.41 288.73 1225.8 295.97 1243.1 286.35 1217.41 262.15"/>
    </g>
    <g>
      <polygon class="cls-3" points="586.64 279.06 547.02 308.28 570.41 311.15 580.6 320.83 594.61 324.82 606.57 324.82 610.69 319.46 628.44 316.45 586.64 279.06"/>
      <polygon class="cls-4" points="586.71 280.4 549.4 307.91 571.42 310.61 581.01 319.73 594.21 323.48 605.47 323.48 609.35 318.44 626.06 315.6 586.71 280.4"/>
    </g>
    <path class="cls-9" d="M-.27,427.91s18.66,5.33,40.89,13.33c14.54,5.24,35.55,3.62,48.34,1.88a43.23,43.23,0,0,0,19.73-8c5.49-4,13-9.73,20.82-16.14,15.11-12.44,43.55-6.22,68.44-5.33s48.89-27.56,64.89-23.11,16,16.89,35.56,18.66,16.09-18,28.44-19.55,34.65-12.35,92.57,3.35c3.43.93,6.83,2,10.21,3.08,8.75,2.89,33.69,10.46,54.56,10.46,25.78,0,48,8.89,56,14.22s24.89,12.44,40,12.44,54.22.89,68.44,11.56c11.31,8.48,50.13,7.41,65.58,6.61,3.51-.18,7-.29,10.52-.3,8.93,0,32.21-1.2,67-10.76,32.4-8.89,90.7-10.52,121.31-10.72a187.33,187.33,0,0,1,34.66,3c29.68,5.39,98.26,14.7,147.14-2.95a243.35,243.35,0,0,1,69.7-14.11,180.56,180.56,0,0,1,59.27,7c15,4.31,41,8.46,63.92-4.46,28.86-16.28,104.53,8.71,129.08,17.55q9.83,3.52,19.92,6.17c27.42,7.2,94.6,23.51,130.12,20.73,45.33-3.56,69.33,9.78,96,14.22s152-4.44,187.56-22.22,64-28.45,113.78.89c38.65,22.77,90.7,9.64,112,2.63a132,132,0,0,0,12.9-5c5.17-2.32,15.91-6.49,26.18-6.49,14.22,0,27.55-15.11,27.55-15.11v176H-.27Z"/>
    <path class="cls-10" d="M-.27,436s18.66,5.09,40.89,12.73c14.54,5,35.55,3.46,48.34,1.79a44.41,44.41,0,0,0,19.73-7.6c5.49-3.84,13-9.29,20.82-15.41,15.11-11.89,43.55-6,68.44-5.1s48.89-26.32,64.89-22.07,16,16.13,35.56,17.83,16.09-17.24,28.44-18.68,34.65-11.79,92.57,3.2c3.43.89,6.83,1.88,10.21,2.94,8.75,2.76,33.69,10,54.56,10,25.78,0,48,8.49,56,13.58s24.89,11.89,40,11.89,54.22.85,68.44,11c11.31,8.1,50.13,7.08,65.58,6.32,3.51-.18,7-.29,10.52-.3,8.93,0,32.21-1.14,67-10.27,32.4-8.49,90.7-10.05,121.31-10.25a196.25,196.25,0,0,1,34.66,2.89c29.68,5.14,98.26,14,147.14-2.83a253.5,253.5,0,0,1,69.7-13.47,188.15,188.15,0,0,1,59.27,6.7c15,4.11,41,8.08,63.92-4.26,28.86-15.55,104.53,8.32,129.08,16.75q9.83,3.38,19.92,5.91c27.42,6.87,94.6,22.45,130.12,19.79,45.33-3.4,69.33,9.34,96,13.58s152-4.24,187.56-21.22,64-27.17,113.78.85c38.65,21.75,90.7,9.21,112,2.52,4.39-1.38,8.69-3,12.9-4.81,5.17-2.22,15.91-6.2,26.18-6.2,14.22,0,27.55-14.44,27.55-14.44V607.47H-.27Z"/>
    <path class="cls-4" d="M1518.51,616.29l-.18-.36a10.65,10.65,0,0,0-8.1-5.57c-16.41-2.2-92-4.5-126.54-5.45L1008.34,280.74l9.27-9c6.75-16.4-11.64-11.24-11.64-11.24L686.45,542.62C635.39,584.91,571,602.27,505.94,603.75L449.05,605a13.82,13.82,0,0,0-13.15,17.2,27.77,27.77,0,0,0,1.73,4.64,7.8,7.8,0,0,0,7.41,4.5L663.79,624l.46,45.28h58l-1.15-47.42,179.75-4.09v51.51h41.67V615.69l.74,0c133.55-5.24,354.55,6,478.53,11.93l.7,41.65h50.6l-1.51-39.12c16.91.93,29.45,1.67,36.23,2.12C1516.37,632.75,1522.4,623.86,1518.51,616.29Zm-795.85-56.7,8.5-8.28,55.69,46.12C691.13,600.93,722.66,559.59,722.66,559.59Zm75,37.42-61.31-50.79,17.53-17.06,76,66.45C819.34,596,808.58,596.46,797.62,597Zm42.92-1.75L759.12,524l16.12-15.71,102.84,85.86C866.17,594.43,853.59,594.78,840.54,595.26Zm47.6-1.33L780,503.64l16.4-16L917,593.4C908,593.54,898.38,593.7,888.14,593.93Zm38.45-.63L801,483.1l17.07-16.63L957,593C948.63,593.1,938.39,593.15,926.59,593.3Zm54.69-.22s-5.33-.06-15-.09L822.6,462.05l17-16.68,166.79,147.68C990.57,593.05,981.28,593.08,981.28,593.08ZM1016,593,844.28,440.89,860.58,425l186.13,168.09C1035.26,593.05,1024.9,593.05,1016,593Zm40.19.16L865.09,420.59l14.66-14.35,210.34,187.18C1078.11,593.34,1066.79,593.23,1056.23,593.17Zm43.4.4L884.2,401.88l18.23-17.73,235.19,209.93C1124.55,593.89,1111.85,593.71,1099.63,593.57Zm47.4.71L906.88,379.8l14.54-14.17L1181,595C1169.57,594.73,1158.24,594.45,1147,594.28Zm43.58.93L925.82,361.28,943.57,344l282.71,252.35C1214.47,595.87,1202.54,595.54,1190.61,595.21Zm45.39,1.43-288-257,17.05-16.68,307.25,275.21C1260.52,597.58,1248.35,597.07,1236,596.64Zm46.17,2.06L969.54,318.64l16.59-16.19,337.32,298.79C1310.49,600.28,1296.63,599.39,1282.17,598.7Zm86.59,5.77c-8.21-.3-16.37-.77-24.6-1.54-3.42-.34-7-.62-10.57-.9L990.52,298.1l13.42-13,370,319.56C1371.82,604.57,1370,604.5,1368.76,604.47Z"/>
    <path class="cls-11" d="M-.27,746.62H807.87s-49-93.17-189.4-110.11-211.06-44.66-252-59.29-98.71-42.35-134-41.58S115.29,557.2,82.39,554.89s-82.66,0-82.66,0Z"/>
    <path class="cls-12" d="M-.27,746.62H793s-48.06-88.06-185.91-104.07-207.18-42.21-247.35-56-96.9-40-131.56-39.3-115,20.38-147.3,18.19-81.14,0-81.14,0Z"/>
    <path class="cls-11" d="M999.11,1045l-21.58-.54-187.42-4.67L-1,1045V734.72s119.8-8.19,190.92,23.81,113.55,88.55,152.24,110.13,86.72,40.19,112.3,40.19H619.78c35.56,0,81.73,2.23,116,7.44S805.7,958,835,963.17,999.11,987,999.11,1045Z"/>
    <path class="cls-12" d="M977.53,1044.49l-220.26.54H-1V753.45s117.21-7.68,186.8,22.38,111.1,83.2,149,103.48,84.85,37.76,109.88,37.76H606.38c34.79,0,80,2.1,113.55,7S788.3,963.22,817,968.11,976.67,990.38,977.53,1044.49Z"/>
    <path class="cls-11" d="M338.26,1182.69h1453.8A270.21,270.21,0,0,1,1971,1250.41H278.8l-.09-7.52A59.55,59.55,0,0,1,338.26,1182.69Z"/>
    <path class="cls-12" d="M278.79,1250.41a59.55,59.55,0,0,1,59.54-60.28H1784.07c65.56,0,128.85,21.44,178,60.28H278.79Z"/>
    <polygon class="cls-8" points="2142.86 524.99 2142.86 542.91 1723.38 553.63 1723.38 562.27 1668.55 562.27 1668.55 571.5 1675.48 571.5 1675.48 579.32 1716.69 579.32 1716.69 602.03 1679.2 602.98 1670.65 603.2 1639.74 603.99 1633.82 604.14 1600.27 605 1592.56 605.2 1570.86 605.75 1563.14 605.94 1538.75 606.57 1533.19 606.71 1510.83 607.28 1504.9 607.43 1481.22 608.03 1474.07 608.22 1474.07 579.58 1510.83 579.48 1533.19 579.41 1538.75 579.4 1563.14 579.34 1567.54 579.32 1567.54 559 1584.6 559 1584.6 577.56 1595.69 577.56 1595.69 550.44 1612 550.44 1612 571.67 1629 571.67 1629 512.52 1668.55 512.52 1668.55 528.07 1675.64 528.07 1675.64 505.78 1705.14 505.78 1705.14 540.36 1723.38 540.36 1723.38 524.99 1816.84 524.73 1816.84 504.41 1833.9 504.41 1833.9 522.97 1845 522.97 1845 495.84 1861.3 495.84 1861.3 517.08 1878.3 517.08 1878.3 457.93 1917.84 457.93 1917.84 516.9 1924.78 516.9 1924.78 524.73 1967.97 524.73 1967.97 480.65 1995.03 480.65 1995.03 518.98 2001.96 518.98 2001.96 496.5 2012.71 496.5 2012.71 517.09 2017.92 517.09 2017.92 498.81 2037.17 498.81 2037.17 530.43 2066.49 530.43 2066.49 504.24 2106.89 504.24 2106.89 524.99 2142.86 524.99"/>
    <g>
      <g>
        <rect class="cls-4" x="1730.53" y="531.36" width="23.68" height="36.83"/>
        <rect class="cls-4" x="1760.12" y="503.08" width="22.36" height="65.11"/>
        <rect class="cls-4" x="1820.16" y="507.68" width="21.7" height="55.25"/>
        <rect class="cls-4" x="1849.57" y="462.95" width="33.54" height="99.97"/>
        <rect class="cls-4" x="1889.04" y="495.84" width="30.91" height="64.46"/>
        <rect class="cls-4" x="1928.5" y="443.22" width="37.49" height="106.55"/>
        <polygon class="cls-4" points="1996.24 495.04 1996.24 549.77 1971.91 549.77 1971.91 495.04 1974.84 495.04 1974.84 484.42 1992.65 484.42 1992.65 495.04 1996.24 495.04"/>
        <polygon class="cls-4" points="2028.62 511.3 2028.62 548.92 2004.23 548.92 2004.23 511.3 2006.24 511.3 2006.24 508.09 2008.53 508.09 2008.53 504.91 2010.72 504.91 2010.72 501.06 2021.78 501.06 2021.78 504.91 2024.23 504.91 2024.23 508.09 2026.61 508.09 2026.61 511.3 2028.62 511.3"/>
        <polygon class="cls-4" points="1812.44 508.2 1812.44 553.63 1788.05 553.63 1788.05 508.2 1790.07 508.2 1790.07 504.34 1792.35 504.34 1792.35 500.5 1794.55 500.5 1794.55 495.84 1805.6 495.84 1805.6 500.5 1808.05 500.5 1808.05 504.34 1810.42 504.34 1810.42 508.2 1812.44 508.2"/>
        <rect class="cls-4" x="2039.59" y="528.07" width="23.6" height="18.68"/>
        <polygon class="cls-4" points="2068.83 505.8 2068.83 547.13 2103.45 547.13 2103.45 498.82 2080.11 498.82 2080.11 505.61 2068.83 505.8"/>
        <rect class="cls-4" x="2111.49" y="512.86" width="25.93" height="33.88"/>
      </g>
      <g>
        <rect class="cls-4" x="1481.22" y="585.95" width="23.68" height="36.83"/>
        <rect class="cls-4" x="1510.82" y="557.67" width="22.36" height="65.11"/>
        <rect class="cls-4" x="1570.85" y="562.27" width="21.7" height="55.25"/>
        <rect class="cls-4" x="1600.27" y="517.54" width="33.54" height="99.97"/>
        <rect class="cls-4" x="1639.73" y="550.43" width="30.91" height="64.46"/>
        <rect class="cls-4" x="1679.2" y="497.81" width="37.49" height="106.55"/>
        <polygon class="cls-4" points="1563.14 562.79 1563.14 608.22 1538.74 608.22 1538.74 562.79 1540.76 562.79 1540.76 558.93 1543.05 558.93 1543.05 555.09 1545.24 555.09 1545.24 550.43 1556.29 550.43 1556.29 555.09 1558.75 555.09 1558.75 558.93 1561.12 558.93 1561.12 562.79 1563.14 562.79"/>
      </g>
    </g>
    <path class="cls-11" d="M1704.13,552.8c150-12.64,438.73-15,438.73-15V735.46H1153.52s-9.61-42.82,69-51.56,121.48-15.74,141.58-27.1,73.42-48.94,97.89-50.69,83.9-2.62,100.5-6.12S1621.1,559.79,1704.13,552.8Z"/>
    <path class="cls-12" d="M1711.39,560.76c147.56-12.08,431.47-14.31,431.47-14.31v189h-973s-9.46-41,67.9-49.32,119.47-15,139.24-25.91,72.2-46.81,96.27-48.48,82.51-2.51,98.84-5.85S1629.73,567.45,1711.39,560.76Z"/>
    <path class="cls-11" d="M2142.86,669.23l-.69,249.29-.05,15.63H929.91a55.38,55.38,0,0,1-.34-15.63c2-19.33,14.17-51.17,69.54-63.25,81.86-17.86,115.35-9.68,154-29s131.72-67.12,173.39-67.72c51.34-.74,178.59,8.93,239.61,2.23s162.23-59.53,195.71-59.53,141.39-15.63,186-23.07S2142.86,669.23,2142.86,669.23Z"/>
    <path class="cls-12" d="M2142.13,934.15H943.26S930.75,876,1011.7,859s114.07-9.21,152.34-27.63,130.27-63.91,171.48-64.48c50.78-.71,176.63,8.5,237,2.12s160.44-56.69,193.56-56.69,139.83-14.88,184-22,192.82-8.51,192.82-8.51Z"/>
    <rect class="cls-7" x="921.72" y="932.66" width="1227.09" height="2.98" rx="1.33"/>
    <rect class="cls-7" x="898.96" y="668.86" width="44.89" height="2.34" rx="1.05"/>
    <rect class="cls-7" x="1593.65" y="944.91" width="155.76" height="1.95" rx="0.87"/>
    <rect class="cls-7" x="1715.91" y="963.95" width="101.88" height="1.95" rx="0.87"/>
    <rect class="cls-7" x="1786.96" y="953.37" width="103.21" height="1.95" rx="0.87"/>
    <rect class="cls-7" x="1838.57" y="942.79" width="77.88" height="1.95" rx="0.87"/>
    <rect class="cls-7" x="1762.72" y="938.81" width="43.42" height="1.95" rx="0.87"/>
    <rect class="cls-7" x="11.07" y="1057.8" width="134.63" height="1.95" rx="0.87"/>
    <rect class="cls-7" x="94.77" y="1070.62" width="88.06" height="1.95" rx="0.87"/>
    <rect class="cls-7" x="167.21" y="1063.72" width="89.21" height="1.95" rx="0.87"/>
    <rect class="cls-7" x="222.76" y="1052.93" width="67.32" height="1.95" rx="0.87"/>
    <rect class="cls-7" x="157.21" y="1056.82" width="57.79" height="1.95" rx="0.87"/>
    <rect class="cls-7" x="2.07" y="1064.96" width="57.79" height="1.95" rx="0.87"/>
    <rect class="cls-7" x="740.33" y="757.95" width="44.89" height="1.95" rx="0.87"/>
    <rect class="cls-7" x="777.38" y="763.97" width="29.37" height="1.95" rx="0.87"/>
    <rect class="cls-7" x="795.82" y="760.47" width="29.75" height="1.95" rx="0.87"/>
    <rect class="cls-7" x="810.92" y="755.83" width="22.45" height="1.95" rx="0.87"/>
    <rect class="cls-7" x="1340.61" y="745.55" width="29.37" height="1.95" rx="0.87"/>
    <rect class="cls-7" x="1376.62" y="743.6" width="32.47" height="1.95" rx="0.87"/>
    <rect class="cls-7" x="1362.75" y="739.53" width="22.45" height="1.95" rx="0.87"/>
    <rect class="cls-7" x="789.06" y="756.97" width="12.52" height="1.95" rx="0.87"/>
    <rect class="cls-7" x="890.05" y="672.32" width="12.52" height="1.95" rx="0.87"/>
    <path class="cls-7" d="M942.56,664.42h7.69a.87.87,0,0,1,.87.87v.2a.87.87,0,0,1-.87.87h-7.69a0,0,0,0,1,0,0v-2A0,0,0,0,1,942.56,664.42Z"/>
    <path class="cls-3" d="M276,334.37v0H60a53.73,53.73,0,0,1,67.3-47.47,53.69,53.69,0,0,1,80.51-15.17,53.73,53.73,0,0,1,69.77,51.23A41.52,41.52,0,0,1,276,334.37Z"/>
    <path class="cls-4" d="M276.05,334.37v0H63.36c2.21-25.43,25-45.41,52.68-45.41a56.7,56.7,0,0,1,13.59,1.65c9.09-14.95,26.27-25,46-25a54.88,54.88,0,0,1,33.31,11.06,56.1,56.1,0,0,1,15.84-2.26c29.2,0,52.86,22.15,52.86,49.48A36.47,36.47,0,0,1,276.05,334.37Z"/>
    <g>
      <path class="cls-3" d="M358.55,159.61v0h216a53.7,53.7,0,0,0-67.3-47.46A53.7,53.7,0,0,0,426.73,97,53.72,53.72,0,0,0,357,148.18,41.9,41.9,0,0,0,358.55,159.61Z"/>
      <path class="cls-4" d="M358.53,159.61H571.21c-2.21-25.43-25-45.42-52.68-45.42a56.26,56.26,0,0,0-13.59,1.66c-9.09-15-26.27-25-46-25a54.9,54.9,0,0,0-33.31,11.06,56.1,56.1,0,0,0-15.84-2.26c-29.19,0-52.85,22.15-52.85,49.48A36.13,36.13,0,0,0,358.53,159.61Z"/>
    </g>
    <g>
      <path class="cls-3" d="M403.79,232.73H270.28a32,32,0,0,1,48-27.74,32,32,0,0,1,35.28,2.17,32,32,0,0,1,50.19,25.57Z"/>
      <path class="cls-4" d="M403.79,232.73H272.51c0-16.38,14.1-29.67,31.49-29.67a33,33,0,0,1,15.75,4,33,33,0,0,1,15.74-4,32.62,32.62,0,0,1,18.95,6,32.72,32.72,0,0,1,17.87-5.24C389.44,203.79,403.37,216.68,403.79,232.73Z"/>
    </g>
    <g>
      <path class="cls-3" d="M2177.38,327.69h-216a53.7,53.7,0,0,1,67.3-47.47A53.7,53.7,0,0,1,2109.2,265,53.73,53.73,0,0,1,2179,316.26,41.52,41.52,0,0,1,2177.38,327.69Z"/>
      <path class="cls-4" d="M2177.41,327.69H1964.72c2.21-25.43,25-45.42,52.68-45.42a56.2,56.2,0,0,1,13.59,1.66c9.09-15,26.27-25.05,46-25.05a54.94,54.94,0,0,1,33.31,11.06,56.1,56.1,0,0,1,15.84-2.26c29.2,0,52.86,22.15,52.86,49.48A36.47,36.47,0,0,1,2177.41,327.69Z"/>
    </g>
    <g>
      <path class="cls-3" d="M2151.42,420.69H2017.9a32,32,0,0,1,48-27.74,32.07,32.07,0,0,1,35.28,2.16,32,32,0,0,1,50.2,25.58Z"/>
      <path class="cls-4" d="M2151.42,420.69H2020.13c0-16.39,14.1-29.68,31.5-29.68a32.88,32.88,0,0,1,15.74,4,33.09,33.09,0,0,1,34.69,2,32.64,32.64,0,0,1,17.87-5.24C2137.07,391.75,2151,404.64,2151.42,420.69Z"/>
    </g>
    <path class="cls-13" d="M403.8,232.73v.79c0-.26,0-.53,0-.79Z"/>
    <g>
      <rect class="cls-4" x="1638.02" y="897.8" width="55.51" height="30.84"/>
      <path class="cls-4" d="M1712,1028v-9.65h-4.58V987.68H1712V975.34h-93.4v12.34h5.8l-.15,30.67h-5.65V1028h-8.49v14.61h110.68V1028Zm-71.43-40.32h51.62v30.67h-51.77Z"/>
      <path class="cls-4" d="M1742.9,1207.72v-19h-8.08v-48.2h8.08V1122.2H1588.69v18.34h8.4v48.2h-8.39v19h-14.63v27.33h64.68v-27.33h14.3v27.33H1756v-27.33Zm-122.19-19v-48.2h89.55v48.2Z"/>
      <polygon class="cls-4" points="1562.89 1207.7 1562.89 1235.07 1528.68 1235.07 1528.68 1207.7 1537.7 1207.7 1537.7 1122.2 1552.94 1122.2 1552.94 1207.7 1562.89 1207.7"/>
      <polygon class="cls-4" points="1803.84 1207.7 1803.84 1235.07 1768.08 1235.07 1768.08 1207.7 1779.9 1207.7 1779.9 1122.2 1793.59 1122.2 1793.59 1207.7 1803.84 1207.7"/>
    </g>
    <g>
      <path class="cls-8" d="M1645.9,870.79h38.59s15.37,16.31,48,11.19c0,0-2.79,11.14-17.7,15.82h-96.14a45.13,45.13,0,0,1-19-16.29S1629.21,886.17,1645.9,870.79Z"/>
      <path class="cls-8" d="M1632.53,928.64h67.31s13.07,24.63,76,22.77c0,0-9.92,22.7-32.92,23.93H1585.23s-24.51-7.62-32.3-25.79C1552.93,949.55,1609.93,955.27,1632.53,928.64Z"/>
      <path class="cls-8" d="M1482.71,1079.1s97,2.51,127.43-36.49h110.69s17.25,34.22,127.69,36.52c0,0-10.15,30.26-54.94,43.07H1534S1491.09,1106.59,1482.71,1079.1Z"/>
    </g>
    <g>
      <rect class="cls-8" x="865.38" y="753.22" width="3.49" height="0.94"/>
      <rect class="cls-8" x="874.11" y="753.22" width="3.49" height="0.94"/>
      <rect class="cls-8" x="884.57" y="753.22" width="3.49" height="0.94"/>
      <polygon class="cls-8" points="1159.27 732.77 1156.43 735.02 1155.1 733.34 1155.82 732.77 1159.27 732.77"/>
      <rect class="cls-8" x="1190.59" y="732.77" width="1.74" height="1.52"/>
      <rect class="cls-8" x="1199.88" y="732.77" width="1.75" height="0.48"/>
      <rect class="cls-8" x="1208.99" y="732.77" width="3.49" height="0.46"/>
      <rect class="cls-8" x="884.57" y="753.22" width="3.49" height="0.94"/>
      <rect class="cls-8" x="874.11" y="753.22" width="3.49" height="0.94"/>
      <rect class="cls-8" x="865.38" y="753.22" width="3.49" height="0.94"/>
      <path class="cls-8" d="M1212.48,732.77v.47H1209v-.47h-7.36v.48h-1.75v-.48h-7.55v1.52h-1.74v-1.52h-8.24v-9.49h8.24v9.49h1.74v-9.49h7.55v9.49h1.75v-9.49H1209v9.49h3.49V721h-41.87l-14.79,11.75h3.45l11.34-9v9h-11.34l-2.84,2.25-1.33-1.68.72-.57h-9.63V653h-3.49v79.77H1125l-31.12,16.07V721h-22.68V700.09h3.49v-5.23h-20.92V672.19h1.74a3.49,3.49,0,0,0-7,0h1.75v22.67h-20.94v5.23h3.49V721h-22.67v32.2h-8.72V742H987.48v11.27h-5.24V743.7h-14v9.52h-5.23V742H949.11v11.27h-3.49v-20H910.73V700.09H905.5v33.15H889.81v3.48h3.48v7H865.38v9.52h3.49v-6h5.24v6h3.49v-6h7v6h3.49v-6h5.23v6h-5.23v.94h-3.49v-.94h-7v.94h-3.49v-.94h-5.24v.94h-3.49V800h302.87l16.13-19.72,38.14-47.47Zm-40.12,0v-9.49h8.24v9.49Z"/>
      <rect class="cls-8" x="1208.99" y="732.77" width="3.49" height="0.46"/>
      <rect class="cls-8" x="1199.88" y="732.77" width="1.75" height="0.48"/>
      <rect class="cls-8" x="1190.59" y="732.77" width="1.74" height="1.52"/>
      <polygon class="cls-8" points="1159.27 732.77 1156.43 735.02 1155.1 733.34 1155.82 732.77 1159.27 732.77"/>
    </g>
    <g>
      <path class="cls-14" d="M44.71,755c0,14.53-3.14,27.79-8.33,37.92,5.19,10.13,8.33,23.39,8.33,37.91,0,31.8-15.06,57.58-33.64,57.58s-33.65-25.78-33.65-57.58c0-14.52,3.14-27.78,8.33-37.91-5.19-10.13-8.33-23.39-8.33-37.92a90.3,90.3,0,0,1,4.51-28.78,90.37,90.37,0,0,1-4.51-28.79c0-31.8,15.07-57.57,33.65-57.57s33.64,25.77,33.64,57.57a90.65,90.65,0,0,1-4.5,28.79A90.59,90.59,0,0,1,44.71,755Z"/>
      <path class="cls-8" d="M10.85,700.46h.44a1.89,1.89,0,0,1,1.89,1.89V939.6a0,0,0,0,1,0,0H9a0,0,0,0,1,0,0V702.35A1.89,1.89,0,0,1,10.85,700.46Z"/>
      <path class="cls-8" d="M16.05,706.12h.44A1.89,1.89,0,0,1,18.39,708v12.42a0,0,0,0,1,0,0H14.16a0,0,0,0,1,0,0V708A1.89,1.89,0,0,1,16.05,706.12Z" transform="translate(509.13 197.41) rotate(45)"/>
      <path class="cls-8" d="M15.29,754.61h.44a1.89,1.89,0,0,1,1.89,1.89v12.42a0,0,0,0,1,0,0H13.39a0,0,0,0,1,0,0V756.5A1.89,1.89,0,0,1,15.29,754.61Z" transform="translate(543.19 212.15) rotate(45)"/>
      <path class="cls-8" d="M16.49,810.53h.44a1.89,1.89,0,0,1,1.89,1.89v12.42a0,0,0,0,1,0,0H14.59a0,0,0,0,1,0,0V812.42A1.89,1.89,0,0,1,16.49,810.53Z" transform="translate(583.09 227.68) rotate(45)"/>
      <path class="cls-8" d="M4.51,781.1H8.74a0,0,0,0,1,0,0v12.42a1.89,1.89,0,0,1-1.89,1.89H6.4a1.89,1.89,0,0,1-1.89-1.89V781.1A0,0,0,0,1,4.51,781.1Z" transform="translate(568.69 1340.96) rotate(135)"/>
      <path class="cls-8" d="M3.63,847H7.86a0,0,0,0,1,0,0v12.42A1.89,1.89,0,0,1,6,861.33H5.53a1.89,1.89,0,0,1-1.89-1.89V847A0,0,0,0,1,3.63,847Z" transform="translate(613.81 1454.1) rotate(135)"/>
      <path class="cls-8" d="M4.07,728.11H8.3a0,0,0,0,1,0,0v12.42a1.89,1.89,0,0,1-1.89,1.89H6a1.89,1.89,0,0,1-1.89-1.89V728.11A0,0,0,0,1,4.07,728.11Z" transform="translate(530.48 1250.81) rotate(135)"/>
    </g>
    <g>
      <path class="cls-2" d="M248.85,558.19c0,13.39-12,24.25-26.82,24.25s-26.81-10.86-26.81-24.25,26.81-85,26.81-85S248.85,544.79,248.85,558.19Z"/>
      <path class="cls-8" d="M221.83,533.72h.41a1.77,1.77,0,0,1,1.77,1.77v79a0,0,0,0,1,0,0h-3.95a0,0,0,0,1,0,0v-79a1.77,1.77,0,0,1,1.77-1.77Z"/>
      <path class="cls-8" d="M223,541.72l-1.66,2.61-8.12-4.24a1.44,1.44,0,0,1-.61-2.06h0a1.78,1.78,0,0,1,2.28-.55Z"/>
      <path class="cls-8" d="M222.67,565.61,221,568.22,212.89,564a1.42,1.42,0,0,1-.61-2.05h0a1.76,1.76,0,0,1,2.27-.55Z"/>
      <path class="cls-8" d="M221.47,553.67l1.66,2.6,8.12-4.23a1.43,1.43,0,0,0,.61-2.06h0a1.76,1.76,0,0,0-2.27-.55Z"/>
      <path class="cls-8" d="M221.78,578.55l1.66,2.6,8.11-4.23a1.43,1.43,0,0,0,.61-2.06h0a1.75,1.75,0,0,0-2.27-.55Z"/>
    </g>
    <g>
      <path class="cls-14" d="M230.1,544.52c0,18.55-17.09,33.58-38.17,33.58s-38.18-15-38.18-33.58,38.18-117.63,38.18-117.63S230.1,526,230.1,544.52Z"/>
      <path class="cls-8" d="M191.64,510.64h.59a2.52,2.52,0,0,1,2.52,2.52V622.49a0,0,0,0,1,0,0h-5.62a0,0,0,0,1,0,0V513.16A2.52,2.52,0,0,1,191.64,510.64Z"/>
      <path class="cls-8" d="M193.27,521.73l-2.37,3.61-11.56-5.87a2,2,0,0,1-.86-2.85h0a2.54,2.54,0,0,1,3.23-.76Z"/>
      <path class="cls-8" d="M192.83,554.81l-2.37,3.61-11.55-5.87a2,2,0,0,1-.87-2.85h0a2.56,2.56,0,0,1,3.24-.76Z"/>
      <path class="cls-8" d="M191.13,538.27l2.37,3.61L205.05,536a2,2,0,0,0,.87-2.85h0a2.56,2.56,0,0,0-3.24-.76Z"/>
      <path class="cls-8" d="M191.56,572.71l2.37,3.61,11.56-5.86a2,2,0,0,0,.86-2.85h0a2.54,2.54,0,0,0-3.23-.76Z"/>
    </g>
    <g>
      <path class="cls-14" d="M160.72,791.48c0,18.55-17.09,33.58-38.18,33.58s-38.17-15-38.17-33.58,38.17-117.63,38.17-117.63S160.72,772.94,160.72,791.48Z"/>
      <path class="cls-8" d="M122.25,757.6h.59a2.52,2.52,0,0,1,2.52,2.52V869.45a0,0,0,0,1,0,0h-5.62a0,0,0,0,1,0,0V760.12A2.52,2.52,0,0,1,122.25,757.6Z"/>
      <path class="cls-8" d="M123.88,768.68l-2.37,3.61L110,766.43a2,2,0,0,1-.87-2.85h0a2.55,2.55,0,0,1,3.24-.76Z"/>
      <path class="cls-8" d="M123.45,801.76l-2.37,3.61-11.56-5.86a2,2,0,0,1-.86-2.85h0a2.54,2.54,0,0,1,3.23-.76Z"/>
      <path class="cls-8" d="M121.75,785.22l2.36,3.61L135.67,783a2,2,0,0,0,.86-2.85h0a2.54,2.54,0,0,0-3.23-.76Z"/>
      <path class="cls-8" d="M122.18,819.67l2.37,3.61,11.55-5.87a2,2,0,0,0,.87-2.84h0a2.56,2.56,0,0,0-3.24-.77Z"/>
    </g>
    <g>
      <path class="cls-2" d="M180.57,567.33c0,13.4-12,24.26-26.82,24.26s-26.81-10.86-26.81-24.26,26.81-85,26.81-85S180.57,553.94,180.57,567.33Z"/>
      <path class="cls-8" d="M153.55,542.86H154a1.77,1.77,0,0,1,1.77,1.77v79a0,0,0,0,1,0,0h-3.95a0,0,0,0,1,0,0v-79a1.77,1.77,0,0,1,1.77-1.77Z"/>
      <path class="cls-8" d="M154.69,550.87l-1.66,2.6-8.12-4.23a1.45,1.45,0,0,1-.61-2.06h0a1.77,1.77,0,0,1,2.28-.55Z"/>
      <path class="cls-8" d="M154.39,574.76l-1.67,2.61-8.11-4.24a1.43,1.43,0,0,1-.61-2.06h0a1.77,1.77,0,0,1,2.27-.55Z"/>
      <path class="cls-8" d="M153.19,562.81l1.67,2.61,8.11-4.24a1.42,1.42,0,0,0,.61-2h0a1.76,1.76,0,0,0-2.27-.55Z"/>
      <path class="cls-8" d="M153.5,587.69l1.66,2.61,8.12-4.24a1.42,1.42,0,0,0,.6-2h0a1.75,1.75,0,0,0-2.27-.55Z"/>
    </g>
    <g>
      <path class="cls-2" d="M182.54,809.94c0,13.4-12,24.26-26.81,24.26s-26.81-10.86-26.81-24.26,26.81-85,26.81-85S182.54,796.55,182.54,809.94Z"/>
      <path class="cls-8" d="M155.52,785.47h.41a1.77,1.77,0,0,1,1.77,1.77v79a0,0,0,0,1,0,0h-3.95a0,0,0,0,1,0,0v-79A1.77,1.77,0,0,1,155.52,785.47Z"/>
      <path class="cls-8" d="M156.67,793.48l-1.67,2.6-8.11-4.23a1.43,1.43,0,0,1-.61-2.06h0a1.76,1.76,0,0,1,2.27-.55Z"/>
      <path class="cls-8" d="M156.36,817.37,154.7,820l-8.12-4.24a1.45,1.45,0,0,1-.61-2.06h0a1.78,1.78,0,0,1,2.28-.55Z"/>
      <path class="cls-8" d="M155.17,805.42l1.66,2.61,8.12-4.24a1.42,1.42,0,0,0,.6-2h0a1.75,1.75,0,0,0-2.27-.55Z"/>
      <path class="cls-8" d="M155.47,830.3l1.67,2.61,8.11-4.24a1.42,1.42,0,0,0,.61-2h0a1.76,1.76,0,0,0-2.27-.55Z"/>
    </g>
    <g>
      <path class="cls-2" d="M118.39,808.61A37.85,37.85,0,0,1,112.1,830a37.89,37.89,0,0,1,6.29,21.38c0,17.92-11.38,32.46-25.43,32.46s-25.44-14.54-25.44-32.46A37.89,37.89,0,0,1,73.81,830a37.85,37.85,0,0,1-6.29-21.37,39.44,39.44,0,0,1,3.4-16.23,39.44,39.44,0,0,1-3.4-16.23c0-17.93,11.39-32.46,25.44-32.46s25.43,14.53,25.43,32.46a39.28,39.28,0,0,1-3.4,16.23A39.28,39.28,0,0,1,118.39,808.61Z"/>
      <path class="cls-8" d="M92.79,777.83h.33a1.43,1.43,0,0,1,1.43,1.43V912.66a0,0,0,0,1,0,0h-3.2a0,0,0,0,1,0,0V779.27A1.43,1.43,0,0,1,92.79,777.83Z"/>
      <path class="cls-8" d="M94.19,788.76l-2.26-1.69,6.53-4.86a2,2,0,0,1,2.26,0h0a1,1,0,0,1,0,1.68Z"/>
      <path class="cls-8" d="M93.62,816.1l-2.26-1.69,6.52-4.87a2,2,0,0,1,2.26,0h0a1,1,0,0,1,0,1.69Z"/>
      <path class="cls-8" d="M94.53,847.62l-2.27-1.69,6.53-4.86a2,2,0,0,1,2.26,0h0a1,1,0,0,1,0,1.69Z"/>
      <path class="cls-8" d="M92.29,831l2.27-1.68L88,824.48a2,2,0,0,0-2.26,0h0a1,1,0,0,0,0,1.69Z"/>
      <path class="cls-8" d="M91.63,868.19l2.26-1.68-6.52-4.87a2,2,0,0,0-2.26,0h0a1,1,0,0,0,0,1.69Z"/>
      <path class="cls-8" d="M92,801.16l2.26-1.69-6.52-4.86a2,2,0,0,0-2.26,0h0a1,1,0,0,0,0,1.68Z"/>
    </g>
    <g>
      <path class="cls-14" d="M93.39,775.19c0,10.56-2.29,20.19-6.06,27.56,3.77,7.36,6.06,17,6.06,27.55,0,23.11-11,41.85-24.46,41.85S44.48,853.41,44.48,830.3c0-10.56,2.28-20.19,6.05-27.55-3.77-7.37-6.05-17-6.05-27.56a65.81,65.81,0,0,1,3.27-20.92,65.92,65.92,0,0,1-3.27-20.93c0-23.11,11-41.84,24.45-41.84s24.46,18.73,24.46,41.84a65.64,65.64,0,0,1-3.28,20.93A65.53,65.53,0,0,1,93.39,775.19Z"/>
      <path class="cls-8" d="M68.77,735.51h.32a1.38,1.38,0,0,1,1.38,1.38V909.33a0,0,0,0,1,0,0H67.4a0,0,0,0,1,0,0V736.89A1.38,1.38,0,0,1,68.77,735.51Z"/>
      <path class="cls-8" d="M72.56,739.63h.32A1.38,1.38,0,0,1,74.25,741v9a0,0,0,0,1,0,0H71.18a0,0,0,0,1,0,0v-9A1.38,1.38,0,0,1,72.56,739.63Z" transform="translate(547.97 166.74) rotate(45)"/>
      <path class="cls-8" d="M72,774.87h.32a1.38,1.38,0,0,1,1.38,1.38v9a0,0,0,0,1,0,0H70.62a0,0,0,0,1,0,0v-9A1.38,1.38,0,0,1,72,774.87Z" transform="translate(572.73 177.45) rotate(45)"/>
      <path class="cls-8" d="M72.87,815.51h.32a1.38,1.38,0,0,1,1.38,1.38v9a0,0,0,0,1,0,0H71.5a0,0,0,0,1,0,0v-9A1.38,1.38,0,0,1,72.87,815.51Z" transform="translate(601.73 188.74) rotate(45)"/>
      <path class="cls-8" d="M64.17,794.13h3.07a0,0,0,0,1,0,0v9a1.38,1.38,0,0,1-1.38,1.38h-.32a1.38,1.38,0,0,1-1.38-1.38v-9A0,0,0,0,1,64.17,794.13Z" transform="translate(677.38 1318.08) rotate(135)"/>
      <path class="cls-8" d="M63.53,842h3.07a0,0,0,0,1,0,0v9a1.38,1.38,0,0,1-1.38,1.38h-.32a1.38,1.38,0,0,1-1.38-1.38v-9A0,0,0,0,1,63.53,842Z" transform="translate(710.17 1400.32) rotate(135)"/>
      <path class="cls-8" d="M63.85,755.61h3.07a0,0,0,0,1,0,0v9A1.38,1.38,0,0,1,65.55,766h-.32a1.38,1.38,0,0,1-1.38-1.38v-9A0,0,0,0,1,63.85,755.61Z" transform="translate(649.6 1252.56) rotate(135)"/>
    </g>
    <g>
      <path class="cls-7" d="M102.15,910.93v5.79l-4.54.38a15.7,15.7,0,0,1-6.34-.79l-9.33-3.15s-10.85,10.9-15.59,15-3.73,6.8-3.73,6.8L68,952.13l4.33,5H65l-11-29c10.18-7.16,11-15.06,11.07-17L41.32,928.89l22.49-22.66s6-6.56,7.26-15,9.83-9.82,9.83-9.82-.71,7,.79,20.5S102.15,910.93,102.15,910.93Z"/>
      <path class="cls-15" d="M81.94,913.16l-.13,0Z"/>
      <path class="cls-7" d="M136.35,887.56a34.81,34.81,0,0,1-8.29,20.6,35.94,35.94,0,0,0-5.08,7.49c-7.49,14.74-9.17,31.23-9.52,36.14a4.85,4.85,0,0,0,.6,2.66l.87,1.56H109.6c.78-12.37,6.25-36.41,7.09-40a.36.36,0,0,0-.38-.43l-6,.49c-1.57-23.38,4.64-28.33,4.64-28.33.57,7.54,7,6.83,7,6.83s.58-1.71-1.79-8.11-1.79-17.38-1.79-17.38c10.65,2.7,15.48-5.15,15.48-5.15C134.64,866.3,137.28,874.93,136.35,887.56Z"/>
      <path class="cls-15" d="M81.94,913.16l-.13,0Z"/>
      <path class="cls-16" d="M133.8,863.91s-4.83,7.85-15.48,5.15c0,0-.58,11,1.79,17.38s1.79,8.11,1.79,8.11-6.4.71-7-6.83c0,0-6.21,4.95-4.64,28.33h0l-7.21.59-.93.07v-5.79s-19,4.55-20.46-9-.79-20.5-.79-20.5-8.55,1.42-9.83,9.82-7.26,15-7.26,15L41.32,928.89l-3.39,2.54a13.94,13.94,0,0,0-3.21,3.38l-10.86,16a1.76,1.76,0,0,0-.23,1.41l1.17,4.37H16.47V955.4l17.39-29.65a9.32,9.32,0,0,1,3.34-3.29C56.52,911.18,54.54,889.14,54,885.35a1.28,1.28,0,0,1,.3-1c5.26-5.87,13.61-7.08,19-7.18a35.08,35.08,0,0,1,7.44.71,170.22,170.22,0,0,0,21.24,3c8.08.47,11.08-3.49,12.06-5.4a4.12,4.12,0,0,0,.45-1.68l.24-4.54a.58.58,0,0,0-.51-.61c-2.28-.27-11.09-1.34-12.56-2.11-1.89-1-1.39-2.19-1.39-2.19a3.87,3.87,0,0,1,3.89-3.74c3.07-.24,9-7,11.43-9.81a3.31,3.31,0,0,1,2.71-1.17l8.63.44a3,3,0,0,1,2.61,1.81l.83,1.88a28.14,28.14,0,0,1,1,2.78l1.74,5.64C133.4,862.75,133.59,863.33,133.8,863.91Z"/>
      <ellipse class="cls-17" cx="104.98" cy="862.65" rx="4.4" ry="2.27"/>
      <circle class="cls-17" cx="120.11" cy="855.5" r="1.79"/>
      <path class="cls-16" d="M110.29,916.06l-1.18,19.47-1.44,16.77L109.6,956H103v-4.35s2.88-10.38,1.73-19.82a133.74,133.74,0,0,0-2.59-15.13Z"/>
      <path class="cls-16" d="M104.51,844.18s10.41-1.06,12,6.34l-4.61,5A12.29,12.29,0,0,1,104.51,844.18Z"/>
      <path class="cls-16" d="M139.9,840.49s-10.25,3.34-11.14,10.24l2.38,4.77S142.54,849.9,139.9,840.49Z"/>
      <path class="cls-7" d="M113.85,849.82s-4.31-4.44-7.47-4.13c0,0,1.52,6,4.84,6.53Z"/>
      <path class="cls-7" d="M131.11,849.82s3.18-6.27,6.18-6.39c0,0-1.13,6.32-4.4,7.37Z"/>
    </g>
    <g>
      <path class="cls-2" d="M58.14,883.15c0,11.73-2.54,22.45-6.73,30.63,4.19,8.18,6.73,18.9,6.73,30.63C58.14,970.1,46,990.92,31,990.92S3.78,970.1,3.78,944.41c0-11.73,2.54-22.45,6.73-30.63-4.19-8.18-6.73-18.9-6.73-30.63a73,73,0,0,1,3.64-23.26,72.94,72.94,0,0,1-3.64-23.26C3.78,811,16,790.12,31,790.12S58.14,811,58.14,836.63a72.94,72.94,0,0,1-3.64,23.26A73,73,0,0,1,58.14,883.15Z"/>
      <path class="cls-8" d="M30.78,839h.36a1.53,1.53,0,0,1,1.53,1.53v191.68a0,0,0,0,1,0,0H29.25a0,0,0,0,1,0,0V840.58A1.53,1.53,0,0,1,30.78,839Z"/>
      <path class="cls-8" d="M35,843.62h.36a1.53,1.53,0,0,1,1.53,1.53v10a0,0,0,0,1,0,0H33.46a0,0,0,0,1,0,0v-10A1.53,1.53,0,0,1,35,843.62Z" transform="translate(610.92 223.92) rotate(45)"/>
      <path class="cls-8" d="M34.37,882.8h.36a1.53,1.53,0,0,1,1.53,1.53v10a0,0,0,0,1,0,0H32.84a0,0,0,0,1,0,0v-10a1.53,1.53,0,0,1,1.53-1.53Z" transform="translate(638.44 235.83) rotate(45)"/>
      <path class="cls-8" d="M35.34,928h.36a1.53,1.53,0,0,1,1.53,1.53v10a0,0,0,0,1,0,0H33.81a0,0,0,0,1,0,0v-10A1.53,1.53,0,0,1,35.34,928Z" transform="translate(670.67 248.37) rotate(45)"/>
      <path class="cls-8" d="M25.66,904.2h3.42a0,0,0,0,1,0,0v10a1.53,1.53,0,0,1-1.53,1.53h-.36a1.53,1.53,0,0,1-1.53-1.53v-10A0,0,0,0,1,25.66,904.2Z" transform="translate(690.18 1534.09) rotate(135)"/>
      <path class="cls-8" d="M25,957.45h3.42a0,0,0,0,1,0,0v10A1.53,1.53,0,0,1,26.84,969h-.36A1.53,1.53,0,0,1,25,967.49v-10A0,0,0,0,1,25,957.45Z" transform="translate(726.63 1625.49) rotate(135)"/>
      <path class="cls-8" d="M25.31,861.39h3.42a0,0,0,0,1,0,0v10A1.53,1.53,0,0,1,27.2,873h-.36a1.53,1.53,0,0,1-1.53-1.53v-10A0,0,0,0,1,25.31,861.39Z" transform="translate(659.31 1461.25) rotate(135)"/>
    </g>
    <g>
      <path class="cls-7" d="M335.58,1074.84H307a2.25,2.25,0,0,1-1.08-.27c-1.2-.66-4-2.51-3.88-5.62a1.6,1.6,0,0,0,1.59.84l2.41,0a4.05,4.05,0,0,0,2.14-.58c1.86-1.1,6.12-3.39,10-3.87a14.07,14.07,0,0,1,9.1,2.19s1.32.44-.11-1.87a9,9,0,0,1-1.07-4,12.28,12.28,0,0,1,.28-3.47,18.37,18.37,0,0,0,.64-4.15c-.18-.81-.36-1.47-.36-1.47s.77,1.25,1.17,1.25,4.87-.67,7.77.06c2.35.59,3.06,2.29,3.06,4.31v3.64h-4.7a.09.09,0,0,0-.08.14C334.59,1063.11,339.14,1070.43,335.58,1074.84Z"/>
      <path class="cls-13" d="M343.71,1061.2a9,9,0,0,1-3.11-.54,18.49,18.49,0,0,0-2-1.07v2.26h5.72A.65.65,0,0,0,343.71,1061.2Z"/>
      <path class="cls-13" d="M309.15,1074.84s-.1-3.31,4.76-4.67a21.34,21.34,0,0,1,7.71-.46,15.49,15.49,0,0,1,4.12,1,3.23,3.23,0,0,0,4-.78c1.45-1.9,1.34,1.28,1.23,2.73a3.07,3.07,0,0,1-.6,1.65,1,1,0,0,1-.72.49Z"/>
      <circle class="cls-13" cx="334.92" cy="1058.64" r="1.36"/>
      <circle class="cls-7" cx="334.92" cy="1058.64" r="0.5"/>
    </g>
    <g>
      <path class="cls-7" d="M247.12,759h21.46a1.6,1.6,0,0,0,.81-.2c.91-.49,3-1.89,2.91-4.22a1.2,1.2,0,0,1-1.19.63H269.3a3,3,0,0,1-1.6-.43,22,22,0,0,0-7.5-2.9,10.48,10.48,0,0,0-6.83,1.64s-1,.33.08-1.4a6.73,6.73,0,0,0,.8-3,9.09,9.09,0,0,0-.21-2.6,14.26,14.26,0,0,1-.48-3.12c.14-.6.27-1.1.27-1.1s-.57.94-.88.94a20.09,20.09,0,0,0-5.83,0,2.93,2.93,0,0,0-2.3,3.23v2.73h3.53a.07.07,0,0,1,.06.11C247.86,750.22,244.45,755.71,247.12,759Z"/>
      <path class="cls-13" d="M241,748.78a7,7,0,0,0,2.34-.4,12.62,12.62,0,0,1,1.46-.8v1.69h-4.29A.49.49,0,0,1,241,748.78Z"/>
      <path class="cls-16" d="M267,759s.07-2.48-3.57-3.51a16.44,16.44,0,0,0-5.79-.34,11.78,11.78,0,0,0-3.09.78,2.44,2.44,0,0,1-3-.58c-1.08-1.43-1,1-.92,2a2.28,2.28,0,0,0,.45,1.23.78.78,0,0,0,.55.37Z"/>
      <circle class="cls-16" cx="247.62" cy="746.86" r="1.02"/>
      <circle class="cls-7" cx="247.62" cy="746.86" r="0.38"/>
    </g>
    <g>
      <path class="cls-7" d="M1014.19,1000.92v-3.47s12,1,13.54,2.35S1014.19,1000.92,1014.19,1000.92Z"/>
      <path class="cls-13" d="M1014.19,997.45a13.78,13.78,0,0,0-6.28-.84c-2.92.49-3.53,2.07-3.53,4.33v6.77s.68,2.71,4,1.47a.65.65,0,0,1,.87.61v5.83a.26.26,0,0,1-.4.22c-1.12-.73-4.28-2.59-6.45-1.79-2.69,1-4.64,1.46-8,11.09-2.36,6.65-3.32,9.06-3.69,9.91a.11.11,0,0,0,.18.13l3.15-2.57a.35.35,0,0,1,.57.22l.49,3.29a.07.07,0,0,0,.14,0l2.58-5a1.91,1.91,0,0,1,1.46-1c3-.37,12.21-2.5,14.8-14.6a11.94,11.94,0,0,1,.29-1.18c.63-2.22,2.66-11-5.34-9.38,0,0,.37-4.1,5.18-4.1Z"/>
      <circle class="cls-7" cx="1011.81" cy="998.89" r="1.15"/>
      <circle class="cls-13" cx="1011.81" cy="998.89" r="0.6"/>
      <polygon class="cls-7" points="1005.51 1028.1 1006.22 1046.51 1005.51 1046.51 1004.54 1028.61 1005.51 1028.1"/>
      <polygon class="cls-7" points="1001.85 1029.64 999.67 1046.51 998.55 1046.51 1001.09 1029.84 1001.85 1029.64"/>
    </g>
    <rect class="cls-7" x="-2.65" y="1043.54" width="1018.88" height="2.98" rx="1.33"/>
  </g>
</svg>
