<svg xmlns="http://www.w3.org/2000/svg" viewBox="0 0 159.58 159.58"><defs><style>.cls-1{fill:#e8eff7;}.cls-2{fill:#e05c9d;}.cls-3{fill:#d91e84;}.cls-4{fill:#4a6eb0;}.cls-5{fill:#08539d;}</style></defs><title>weer-icoon</title><g id="Laag_2" data-name="Laag 2"><g id="Laag_5" data-name="Laag 5"><path class="cls-1" d="M159.58,79.79q0,3.46-.3,6.84a2.45,2.45,0,0,1,0,.27A79.79,79.79,0,0,1,.43,88.14,82.18,82.18,0,0,1,0,79.79c0-.31,0-.63,0-.94A79.19,79.19,0,0,1,6.86,47.39l.76-1.66a79.44,79.44,0,0,1,5.74-10.14c.59-.9,1.21-1.78,1.84-2.65A79.81,79.81,0,0,1,154.67,52.18c.33.88.64,1.77.92,2.66h0a79.24,79.24,0,0,1,3.05,12.75c0,.28.09.56.13.84A80.27,80.27,0,0,1,159.58,79.79Z"/><circle class="cls-2" cx="91.03" cy="58.46" r="17.61"/><circle class="cls-3" cx="91.03" cy="58.46" r="16.32"/><rect class="cls-3" x="57.17" y="57.37" width="12.54" height="2.19" rx="1.1"/><rect class="cls-3" x="65.25" y="76.88" width="12.54" height="2.19" rx="1.1" transform="translate(-34.19 73.41) rotate(-45)"/><rect class="cls-3" x="84.77" y="84.96" width="12.54" height="2.19" rx="1.1" transform="translate(4.97 177.09) rotate(-90)"/><rect class="cls-3" x="104.28" y="76.88" width="12.54" height="2.19" rx="1.1" transform="translate(133.58 211.28) rotate(-135)"/><rect class="cls-3" x="112.36" y="57.37" width="12.54" height="2.19" rx="1.1" transform="translate(237.26 116.92) rotate(180)"/><rect class="cls-3" x="104.28" y="37.85" width="12.54" height="2.19" rx="1.1" transform="translate(216.26 -11.68) rotate(135)"/><rect class="cls-3" x="84.77" y="29.77" width="12.54" height="2.19" rx="1.1" transform="translate(121.9 -60.17) rotate(90)"/><rect class="cls-3" x="65.25" y="37.85" width="12.54" height="2.19" rx="1.1" transform="translate(48.49 -39.16) rotate(45)"/><path class="cls-4" d="M106.77,92.13H27.12A19.82,19.82,0,0,1,51.94,74.61,19.79,19.79,0,0,1,81.63,69a19.82,19.82,0,0,1,25.73,18.89A15.53,15.53,0,0,1,106.77,92.13Z"/><path class="cls-5" d="M106.78,92.13H28.34c.82-9.38,9.21-16.75,19.43-16.75a21.23,21.23,0,0,1,5,.61,19.74,19.74,0,0,1,16.95-9.23A20.24,20.24,0,0,1,82,70.82,20.83,20.83,0,0,1,87.87,70c10.76,0,19.49,8.17,19.49,18.25A13.27,13.27,0,0,1,106.78,92.13Z"/><rect class="cls-5" x="49.35" y="98.83" width="2.78" height="15.73" rx="1.08"/><rect class="cls-5" x="57.23" y="106.69" width="2.78" height="15.73" rx="1.08"/><rect class="cls-5" x="65.96" y="98.83" width="2.78" height="15.73" rx="1.08"/><rect class="cls-5" x="75.26" y="103.51" width="2.78" height="15.73" rx="1.08"/><rect class="cls-5" x="82.34" y="111.37" width="2.78" height="15.73" rx="1.08"/><rect class="cls-5" x="82.34" y="94.68" width="2.78" height="10.88" rx="1.08"/><rect class="cls-5" x="57.23" y="94.68" width="2.78" height="10.88" rx="1.08"/></g></g></svg>