<svg xmlns="http://www.w3.org/2000/svg" viewBox="0 0 504.28 437.49"><defs><style>.cls-1{fill:#415733;}.cls-2{fill:#a2c1db;}.cls-3{fill:#d91e84;}.cls-4{fill:#fff;}.cls-5{fill:none;stroke:#1d1d1b;stroke-miterlimit:10;stroke-width:0.25px;}.cls-6{fill:#4a633b;}</style></defs><title>yangtze-delta_1</title><g id="Laag_2" data-name="Laag 2"><g id="Laag_1-2" data-name="Laag 1"><rect class="cls-1" width="504.28" height="437.49"/><path class="cls-2" d="M473,255.47c2.38,1.42,10.25,3.53,12.71,4a6,6,0,0,1,1.25.37l2.74.21a3.53,3.53,0,0,0,2.27,0c2.42-.76,6.88-.51,10.73,0l1.54.22h.08V244a44.46,44.46,0,0,1-7.9-.21,12.69,12.69,0,0,1-4.89-1.63,32.12,32.12,0,0,0-11.23-3.93A128.79,128.79,0,0,1,462.87,234a10.86,10.86,0,0,1-1.63-.65c-4.6-2.22-28.15-13.75-32-17.42-4.22-4.07-10.41-4.52-10.41-4.52s-8.89-1.06-11.76-5.58-11.16-6.49-15.54-3.62c-3.39,2.22-11.41,6.62-14.84,8.48a7,7,0,0,0-2.4,2.27c-2.71,4-8.3,7.35-11.62,9.08a10.35,10.35,0,0,1-5.41,1.14c-3.71-.23-9.91-.77-10.22-1.82a10.53,10.53,0,0,1,0-3.92c-.72-1.91-5.68-.23-7.72.55a1.12,1.12,0,0,0-.69,1.09c0,.4-.19.85-.94,1.08s-2.86-.91-4.62-2a8.09,8.09,0,0,1-3.55-5.11c-1.15-5.35-3.53-15.81-4.72-16.52-1.39-.84-10.4-12.51-12.66-15.45-.3-.4-.59-.8-.86-1.22-1.31-2.06-6.13-9.1-10.71-9.48a20.84,20.84,0,0,1-7.74-2.36,7,7,0,0,0-3.44-.78c-3.13.12-7.31-2.15-9.21-3.31a5.19,5.19,0,0,0-2.2-.71c-.43,0-.83-.09-1.21-.15a7.93,7.93,0,0,1-4.48-2.56c-1.87-2-6.44-2.88-7.08-1.64-.77,1.47-5.63,2.43-6,2.62s-.64,3.39-1.86,2.62c-.91-.58-7-3.62-10-5.09a5.1,5.1,0,0,0-3.56-.38c-3.94,1-13.39,4.33-23.87,14.42-13.81,13.3-16.24,12.66-22.77,15.09-5.12,1.91-26.64-3.28-35.65-5.6a16.89,16.89,0,0,1-7.51-4.15c-2.88-2.73-6.56-6.79-7.09-10.07-.72-4.4-6.36-14-8.57-17.72a14.54,14.54,0,0,1-1.63-3.83,72.86,72.86,0,0,1-2.08-13.23c-.63-8.56-7-18.35-9.23-21.49a10.36,10.36,0,0,0-1.69-1.87,43.42,43.42,0,0,0-11.84-7.59c-5.5-2.12-11.6,2.49-14.86,5,0,0-4.48-8.4-9.51-10.07a34.51,34.51,0,0,0-8.21-1.73,2.61,2.61,0,0,1-1-.24c-2.08-1-10-5.13-9.79-11.55.23-5.88-6.24-15.78-8.88-19.56a4.86,4.86,0,0,1-.86-3.22c.18-1.89.21-5-1.1-7.14-2-3.36-5.66-10.84-5.37-13.91S50,23.38,48.93,22.23s-3.16,2.11-3.54,3.55-7.58.19-7.49-1.54.35-5.66.84-6.51-.84-.42-.84-.42-.35,2.32-1.12,2.6-1.89-1.65-2.19-2.14a.1.1,0,0,1,0-.14c.24-.09.8-.46.52-1.79-.35-1.69-.49-2.67.49-2.82s2.42,1.88,2.7,2.26c0,0,0,0,0,0,.06-.59.42-4.42-.43-5.2,0,0,1.2-.28,1.55,0s2.32,9.28,2.32,10.33.91-.21.56-1.61a25.87,25.87,0,0,1-.63-4.71c0-1,.91-1.69.91-2S39.87,9.65,40.5,7.54c.42-1.38,2.55-2.22,4-2.63A2,2,0,0,0,45.9,3.17c.07-.88.14-2,.16-3.17H0V12.53c.54.2,1.12.39,1.74.59a.9.9,0,0,1,.63,1,2.24,2.24,0,0,0,1.76,2.72l.16-1.24a2.11,2.11,0,0,1,.34-.87l6.24-8.85s1.71-1.94,2.85,1.25.68,8,4.57,10.51l.1-.63a.86.86,0,0,1,.88-.72l2.34.08A.34.34,0,0,0,22,16c.26-1.75,1.64-10.16,4.3-9.85s6.15.14,7.26,8.12A10.3,10.3,0,0,1,33.66,16a5,5,0,0,0,2,3.94c2.41,2,.49,5.33.49,5.33S32,26.65,32.36,29.88a2.1,2.1,0,0,1-.79,1.8,7.23,7.23,0,0,1-1.7,1.22c-.6.16-.16,2.69,1.16,2s4.21-1.1,3.79-4.89c-.27-2.48,1.39-2.66,2.57-2.48A2,2,0,0,1,39,28.86a7.12,7.12,0,0,1,.28,3.32,3.37,3.37,0,0,0,.62,2.39,50.1,50.1,0,0,1,3.68,5.75,6.79,6.79,0,0,1,.5,2.08,5.59,5.59,0,0,0,.48,1.93L47.61,51a5.42,5.42,0,0,0,.89,1.36,39.29,39.29,0,0,1,5.93,8.4,5.4,5.4,0,0,1,.47,2.8,16,16,0,0,1-.67,3.28c-.65,2.06.25,7.48.77,10.21a3.71,3.71,0,0,0,1.41,2.23c1.16.92,3,3.13,4.34,8.36a4.3,4.3,0,0,1,.14,1.07L61,95.3s-.11,8.28,5.23,6.72A48.38,48.38,0,0,0,76.29,97.5a2.85,2.85,0,0,1,.93-.36c1.51-.3,5.89-.72,11.37,2.77,6.82,4.35,7.4,8.51,7.4,8.51l-.57.41c-2.3,1.53-4.73,14.57-5.63,16.36-.72,1.45-5.42,4.3-7.23,5.35a1,1,0,0,1-1.46-.79,9.38,9.38,0,0,1,.51-2.64c.74-2.35-.31-4.79-1.33-6.44a5.46,5.46,0,0,0-3.57-2.49c-5.21-1.07-6.41.11-6.53,1.22a1.42,1.42,0,0,0,1.32,1.53c6.87.65,6.4,1.58,6.4,1.58s-1.92-.13-7.16.13c-3.47.17-7.15-2.79-9.26-4.82a11.9,11.9,0,0,0-6.9-3.29,21.68,21.68,0,0,0-9.14,1.1,15.47,15.47,0,0,0-7.09,5c-2.49,3.06-4.26,3.1-5.08,2.86-.65-.19-1.3-.41-2-.54-13-2.49-22.17-.46-24.88-.22-1.81.17-3.31-.36-6.42-1.29v2.43c6.13,1.88,6.55,4.42,14,8.09,8.91,4.39,17.93,1.27,22.32-4.51s4.62-5.2,10.52-7.75,15.61,2.66,17.11,3.24c1.14.44,1.55,4.16,1.68,6a2.38,2.38,0,0,0,.81,1.63c10.5,9,20.5,1.42,23-.71a9.49,9.49,0,0,0,1-1.07,15.51,15.51,0,0,0,2.89-5.13,7.78,7.78,0,0,1,1.22-2.4c3.12-.79,7.12,3.37,8.49,4.93a6.31,6.31,0,0,0,1.3,1.12c1.76,1.15,5.92,3.62,8.24,3.12,3-.65,3.46.33,4.63,1.56s-.85,1.63-3.13,2.09a1.89,1.89,0,0,0-1.63,2.48s1.5,3,.91,4.11-1.24,2.93-1.82,7.1c-.3,2.14.47,3.23,1.3,3.79a2.89,2.89,0,0,0,2.2.42,8.92,8.92,0,0,1,4.73.83l.21.1c.8.45,6.41,3.62,9.49,7.12a19.81,19.81,0,0,0,7.56,5.25h0c1.64,4.87,3.43,9.1,5.14,10.91,4.49,4.77,11.39,8,13.27,8.8l1.08.51c3.39,1.68,20.6,9.81,34.12,8.05,12.48-1.63,25.07-7.3,29-9.2a5,5,0,0,1,2.57-.48,44.44,44.44,0,0,0,10.72-.91,5.86,5.86,0,0,0,2.51-1.1,5.45,5.45,0,0,0,2-6,8,8,0,0,1-.34-3.61,1.39,1.39,0,0,1,1.94-.95c3.89,1.71,21.61,9,36.39,7,7.86-1.08,13.15,0,16.54,1.48a9.92,9.92,0,0,1,5.8,7.53c.74,4.43,2.16,11.34,4,12.44,2.78,1.64,3.77,5.24,3.77,5.24,2,7.11,10.27,16.41,13.21,19.55a.7.7,0,0,1-.54,1.17c-4.19-.28-10.58-3.83-12.83-5.16a1.52,1.52,0,0,0-1.64.07l-.11.08a1,1,0,0,0,0,1.65l5.83,3.93c5.59,3.77,15.64,2.48,19.53,1.79a8.52,8.52,0,0,1,3.41.09c4.48,1,16,3.9,21.11,7.29,6.39,4.26,10,5.4,10,5.4,1.3.15,19.11,14.9,23.34,18.42a1.06,1.06,0,0,1,.38.82,1.05,1.05,0,0,1-.31.75,1.11,1.11,0,0,0,0,1.59c2.54,2.42,10.1,10,10.64,14.45.52,4.26,7.35,9.75,10.22,11.88a2.26,2.26,0,0,0,2.54.1l.07,0a1.8,1.8,0,0,1,1.67-.12c6,2.6,15.22,11.29,21,17.13a31.47,31.47,0,0,0,11.74,7.53A82,82,0,0,1,486,345.19a36.13,36.13,0,0,0,3.91,5.06c3.78,4,9.08,11.74,14.35,20.09V300.15h-.19c-.22,0-.44,0-.65,0l-.75-.06c-.27,0-.54-.06-.81-.1a16.21,16.21,0,0,1-1.63-.32q-.47-.11-.9-.24l-.37-.11a22.19,22.19,0,0,1-3.92-1.68l-.52-.29c-.34-.19-.65-.38-.93-.56l-.4-.26c-.24-.15-.45-.3-.65-.44a15.3,15.3,0,0,0-2.61-1.49,76.72,76.72,0,0,1-10.11-5.3,48.9,48.9,0,0,0-4.29-2.46l-.49-.24-.21-.1c-1.67-.81-3.3-1.55-4.76-2.17l0,0c-.8-.33-1.55-.63-2.23-.89a17.74,17.74,0,0,0-6-.65c-6.64.31-18.13-7.15-21-8.69a12.35,12.35,0,0,1-3.54-3,.18.18,0,0,0-.07-.05l-16.36-8.15-.68-.31c-1.47-.62-7.49-4-11.68-6.6l-.2-.12-.58-.36c-.74-.44-1.39-.85-1.93-1.22l-.39-.25a2.2,2.2,0,0,0-.28-.18l-.15-.11c-2.68-1.92-8.28-8.08-11.85-12.14l-.46-.52-1.73-2-.21-.25-.16-.16a2.59,2.59,0,0,0-1.41-.51,28.06,28.06,0,0,1-6.32-1.4,6.69,6.69,0,0,1-3.54-3.59c-1.54-3.49-5.88-7.75-7.26-9.29-.45-.5.16-1.38.42-2,2.59-6.34,13-14.67,19.68-16.78,3.16-1,5.31-.93,7.54,0l.74.4c6.9,1.62,15.38,8.36,18.18,10a4.75,4.75,0,0,0,1.67.62c4.41.75,4.95,1.71,11.35,5.43,5.27,3.06,9.92,6.32,11.56,8a7.47,7.47,0,0,0,2,1.32l5.58,4a7.83,7.83,0,0,1,1.21.74c2.59,1.89,13.9,7.6,15.09,9.47a9.74,9.74,0,0,0,2.08,2.21l.05,0c.58.4,1.11.78,1.58,1.12a.18.18,0,0,0,.07.05,9.29,9.29,0,0,0,2.35,1.12c1.07.26-.46,4.12-1.31,5.21C471.58,255.16,472.64,255.28,473,255.47ZM132.57,161.08c-3.62-2.7-6.87-5.69-7.52-6.29l-.25-.22c-.92-.73-6.09-4.77-7.1-4.12a7.5,7.5,0,0,1-.77.44,3.25,3.25,0,0,1-1.7.36c-4.26-.31-1.53-7.4-1.53-7.4s1.38-3.62.49-6l0-.07a2,2,0,0,1,2-2.7,10.3,10.3,0,0,0,3.87-.6,1.5,1.5,0,0,0,1-1.68c-.33-1.93-1.64-5.62-6.77-4.79-6.89,1.11-8.73-2.09-8.73-2.09a54.05,54.05,0,0,0-8-7.68s-1.31-2,8.35-8.68c7-4.86,10-3,11.19-1.64a1.08,1.08,0,0,1,.26.71,1.16,1.16,0,0,1-.43.9,1.1,1.1,0,0,0-.13,1.62,15.79,15.79,0,0,0,6,3.65c4.58,1.72,7.41,21.5,8.05,26.41.11.83.25,1.65.43,2.46.73,3.24,2.72,11.76,5.13,19.39C135.35,163,132.57,161.08,132.57,161.08Z"/><path class="cls-1" d="M450.4,290.55s.51,5.6,9.33,7.3c0,0,1.53-3.57-3.9-5.44Z"/><path class="cls-1" d="M438.48,288a17.3,17.3,0,0,1,4,.15,6.17,6.17,0,0,1,4.73,3.94c.6,1.65,2.29,4.21,6.95,5.73,6.51,2.12,14.94,4.37,16.68,4.83l.71.22c2.44.87,15.59,5.79,17.74,12.26a24.24,24.24,0,0,1,1.57,8.41,3.15,3.15,0,0,1-1.82,2.81c-1.24.54-3.14.31-5.39-3.34a19,19,0,0,0-3.63-4.36,45.69,45.69,0,0,0-9.73-6.58c-7.81-3.9-8.32-5.26-9.17-6.28s-3.88-3.22-5.93-3.39-7.79-4.75-9.35-6.79-7.29-4.92-7.8-5.09l-.17-.08A1.33,1.33,0,0,1,438.48,288Z"/><path class="cls-1" d="M504.28,315.13v16.51a1.44,1.44,0,0,1-1.43-.47c-2.81-2.81-6-3.4-8.2-6.8a11.58,11.58,0,0,1-1.46-6.72,5.53,5.53,0,0,0-.78-3,8.49,8.49,0,0,1-.63-1.43.5.5,0,0,1,.43-.67,7.38,7.38,0,0,1,2,.09,16.16,16.16,0,0,0,4.8.82,7,7,0,0,1,3.44.9,9.84,9.84,0,0,0,1.46.62Z"/><path class="cls-1" d="M389.67,239.13s-5.59-1.34-1.64,2.46,6,1.72,6,1.72S390.81,239.32,389.67,239.13Z"/><path class="cls-1" d="M234.47,172.23a.75.75,0,0,0-1.16-.33L222.61,180s-1,1.75,2.86,1.57a26.25,26.25,0,0,1,4.79,0l.35-.6,1.81-.08A2,2,0,0,0,234,180c.79-1.19,2.07-3.31,1.82-4.13S234.89,173.34,234.47,172.23Z"/><path class="cls-1" d="M252,164.47s-4.91-.3-1.35,3.56c2.48,2.67,6.08,2.84,8,2.69a1.1,1.1,0,0,0,.93-1.57C258.82,167.6,256.85,165.2,252,164.47Z"/><path class="cls-1" d="M265,159.82l-4.74,3.34a2.39,2.39,0,0,0-1,1.94,4.79,4.79,0,0,0,2.69,4.15c3.79,2.28,8.11,4.73,8.57,5.43.35.52,5.62-.66,8.24-1.28a1.26,1.26,0,0,0,.91-1.62c-.33-1-.46-2.13.89-1.89,0,0,1.34.34,1.69.87s0-1.16,0-1.16-.52-3.56-2.57-3.68a8.46,8.46,0,0,1-4.78-1.46c-1.67-1-6-3.94-8.19-4.83A1.78,1.78,0,0,0,265,159.82Z"/><path class="cls-1" d="M143.82,175.13V176a1,1,0,0,0,.27.69,18.89,18.89,0,0,0,4,3.45.18.18,0,0,0,.27-.09,2.47,2.47,0,0,0-.65-2.62.9.9,0,0,0-.71-.29l-.86,0Z"/><path class="cls-1" d="M108.49,104.77l-2.78,3.44a2,2,0,0,1-.76.58l-4.38,1.88s-1.15.43.47-1.61a1.78,1.78,0,0,1,.66-.52,45.59,45.59,0,0,1,4.31-1.83c1.19-.34.8-1.94.8-1.94S107.35,104.09,108.49,104.77Z"/><path class="cls-1" d="M65,101.43s-2.49,1.36-3.06-8.16.34-11.57-2-14.06-4.46-6.35-3.34-13.56a.77.77,0,0,1,1.11-.55,7.43,7.43,0,0,1,3.59,3.79,57.56,57.56,0,0,0,3.51,6.85,10.9,10.9,0,0,1,1,2.12l1,3a3.28,3.28,0,0,1,.14.82c.09,2.08.79,11.62,6.46,12.64C82.75,96,65,101.43,65,101.43Z"/><path class="cls-1" d="M36.58,10.48l-1.36,1.13a.19.19,0,0,0,0,.31L37,13V11.73S36.59,11.73,36.58,10.48Z"/><path class="cls-1" d="M25,.14h1.53a.87.87,0,0,1,.88.7,1.59,1.59,0,0,1-.07.72,2,2,0,0,0,.32,1.71,8.89,8.89,0,0,0,1.92,2A1.33,1.33,0,0,0,31,5.35c.32-.18.78,0,1.24,1.73a15.06,15.06,0,0,1-3.63-1.61C26.38,4.28,25.26,5,25.26,5l.21-1.62s1.2-.68,0-1.41L25.31.77Z"/><path class="cls-1" d="M504.28,260.29v39.86h-.19c-.22,0-.44,0-.65,0l-.75-.06c-.27,0-.54-.06-.81-.1a16.21,16.21,0,0,1-1.63-.32q-.47-.11-.9-.24l-.37-.11a22.19,22.19,0,0,1-3.92-1.68l-.52-.29c-.34-.19-.65-.38-.93-.56l-.4-.26c-.24-.15-.45-.3-.65-.44a15.3,15.3,0,0,0-2.61-1.49,76.72,76.72,0,0,1-10.11-5.3,48.9,48.9,0,0,0-4.29-2.46l-.49-.24-.21-.1c-1.67-.81-3.3-1.55-4.76-2.17l0,0a12.81,12.81,0,0,0-2.23-.89,17.74,17.74,0,0,0-6-.65c-6.64.31-18.13-7.15-21-8.69a12.35,12.35,0,0,1-3.54-3v0l-.06,0-16.36-8.15-.68-.31c-1.47-.62-7.49-4-11.68-6.6l-.2-.12-.58-.36-.55-.35-1.38-.87-.39-.25a2.2,2.2,0,0,0-.28-.18l-.15-.11c-2.68-1.92-8.28-8.08-11.85-12.14l-.46-.52-1.73-2-.21-.25-.16-.16a2.59,2.59,0,0,0-1.41-.51,28.06,28.06,0,0,1-6.32-1.4,6.69,6.69,0,0,1-3.54-3.59c-1.54-3.49-5.88-7.75-7.26-9.29-.45-.5.16-1.38.42-2,2.59-6.34,13-14.67,19.68-16.78,3.16-1,5.31-.93,7.54,0l.74.4c6.9,1.62,15.38,8.36,18.18,10a4.75,4.75,0,0,0,1.67.62c4.41.75,4.95,1.71,11.35,5.43,5.27,3.06,9.92,6.32,11.56,8a7.47,7.47,0,0,0,2,1.32l5.58,4a7.83,7.83,0,0,1,1.21.74c2.59,1.89,13.9,7.6,15.09,9.47a9.74,9.74,0,0,0,2.08,2.21l.05,0a15.33,15.33,0,0,0,1.58,1.12.18.18,0,0,0,.07.05,9.29,9.29,0,0,0,2.35,1.12c1.07.26-.46,4.12-1.31,5.21-.23.3.83.42,1.15.61,2.38,1.42,10.25,3.53,12.71,4a6,6,0,0,1,1.25.37l2.74.21a3.53,3.53,0,0,0,2.27,0c2.42-.76,6.88-.51,10.73,0l1.54.22Z"/><rect class="cls-3" x="9.8" y="406.74" width="185.31" height="21.77"/><path class="cls-4" d="M55.93,410.44a20.55,20.55,0,0,1-8.18,8.12,25,25,0,0,1-12.38,3H16.58V376.44H35.37a25.58,25.58,0,0,1,12.38,2.87,20,20,0,0,1,8.18,8,24.82,24.82,0,0,1,0,23.17Zm-14.26-4.13c1.87-1.74,2.8-4.23,2.8-7.45s-.93-5.71-2.8-7.46a10.67,10.67,0,0,0-7.58-2.61H30.72v20.13h3.37A10.67,10.67,0,0,0,41.67,406.31Z"/><path class="cls-4" d="M98.34,406.05H75.74A5.67,5.67,0,0,0,77,409.71a3.67,3.67,0,0,0,2.67,1,3.43,3.43,0,0,0,3.31-2.1h15a15.5,15.5,0,0,1-3.22,6.84,17.25,17.25,0,0,1-6.17,4.78A19,19,0,0,1,80.32,422a19.85,19.85,0,0,1-9.52-2.23,15.81,15.81,0,0,1-6.49-6.4,21.67,21.67,0,0,1,0-19.55,15.87,15.87,0,0,1,6.49-6.4,21.57,21.57,0,0,1,19,0,15.9,15.9,0,0,1,6.5,6.27,19.11,19.11,0,0,1,2.32,9.62A12.73,12.73,0,0,1,98.34,406.05Zm-14-5.79a3.8,3.8,0,0,0-1.14-3,4.24,4.24,0,0,0-2.87-1q-3.88,0-4.45,4Z"/><path class="cls-4" d="M117.26,374.4v47.12H103.12V374.4Z"/><path class="cls-4" d="M146,409.49v12h-5.35q-14.77,0-14.78-14.7v-9.43H121.4V385.61h4.45V377H140v8.66h5.86v11.78H140v9.68a2.48,2.48,0,0,0,.6,1.85,2.91,2.91,0,0,0,2,.57Z"/><path class="cls-4" d="M170.36,386.6a9.69,9.69,0,0,1,3.89,3.91v-4.9h14.07v35.91H174.25v-4.9a9.72,9.72,0,0,1-3.89,3.92,12.17,12.17,0,0,1-6.05,1.43,13.53,13.53,0,0,1-7.57-2.2,14.75,14.75,0,0,1-5.32-6.36,25.93,25.93,0,0,1,0-19.68,14.84,14.84,0,0,1,5.32-6.37,13.61,13.61,0,0,1,7.57-2.2A12.06,12.06,0,0,1,170.36,386.6Zm-5.09,12.51a7.5,7.5,0,0,0,0,8.92,5.23,5.23,0,0,0,7.51,0,7.5,7.5,0,0,0,0-8.92,5.23,5.23,0,0,0-7.51,0Z"/><rect class="cls-3" x="9.8" y="339.91" width="285.39" height="21.77"/><path class="cls-4" d="M62.51,310.68,46.63,341.51V355H32.74V341.51L16.85,310.68H32.74l7.07,15.69,7.07-15.69Z"/><path class="cls-4" d="M84.28,320.65a9.56,9.56,0,0,1,3.82,3.85v-4.82h13.82V355H88.1v-4.82A9.56,9.56,0,0,1,84.28,354a11.92,11.92,0,0,1-5.94,1.41,13.37,13.37,0,0,1-7.45-2.16A14.55,14.55,0,0,1,65.67,347a25.41,25.41,0,0,1,0-19.33,14.58,14.58,0,0,1,5.22-6.26,13.37,13.37,0,0,1,7.45-2.16A11.92,11.92,0,0,1,84.28,320.65Zm-5,12.29a7.38,7.38,0,0,0,0,8.76,5.14,5.14,0,0,0,7.38,0,7.38,7.38,0,0,0,0-8.76,5.14,5.14,0,0,0-7.38,0Z"/><path class="cls-4" d="M142.36,323.5q3.4,4.06,3.41,11V355H131.94v-18.7a5.68,5.68,0,0,0-1.34-4,5.18,5.18,0,0,0-7.23,0,5.76,5.76,0,0,0-1.31,4V355H108.17V319.68h13.89v5.38a12.4,12.4,0,0,1,4.35-4.06,12.68,12.68,0,0,1,6.47-1.57A11.72,11.72,0,0,1,142.36,323.5Z"/><path class="cls-4" d="M170.41,320.65a9.56,9.56,0,0,1,3.82,3.85v-4.82h13.82v34.65a21.85,21.85,0,0,1-1.82,9,14.32,14.32,0,0,1-5.84,6.51A19.83,19.83,0,0,1,170,372.29q-8.5,0-13.48-4a15.14,15.14,0,0,1-5.66-10.79h13.64c.37,1.84,1.88,2.76,4.5,2.76a5.49,5.49,0,0,0,3.82-1.25c.92-.84,1.38-2.4,1.38-4.7v-4.19a9.56,9.56,0,0,1-3.82,3.85,11.92,11.92,0,0,1-5.94,1.41,13.34,13.34,0,0,1-7.45-2.16A14.55,14.55,0,0,1,151.8,347a25.41,25.41,0,0,1,0-19.33A14.58,14.58,0,0,1,157,321.4a13.34,13.34,0,0,1,7.45-2.16A11.92,11.92,0,0,1,170.41,320.65Zm-5,12.29a7.38,7.38,0,0,0,0,8.76,5.14,5.14,0,0,0,7.38,0,7.38,7.38,0,0,0,0-8.76,5.14,5.14,0,0,0-7.38,0Z"/><path class="cls-4" d="M216.26,343.14V355H211q-14.5,0-14.51-14.45v-9.26h-4.38V319.68h4.38v-8.5h13.89v8.5h5.75v11.57h-5.75v9.51a2.44,2.44,0,0,0,.59,1.82,2.86,2.86,0,0,0,2,.56Z"/><path class="cls-4" d="M234.9,343.45h14.7V355H219.7V344.08l13.45-12.89H219.89V319.68H249v10.89Z"/><path class="cls-4" d="M287.81,339.76h-22.2a5.53,5.53,0,0,0,1.19,3.6,3.62,3.62,0,0,0,2.62,1,3.39,3.39,0,0,0,3.26-2.07h14.69a15.36,15.36,0,0,1-3.15,6.73,17.06,17.06,0,0,1-6.07,4.69,18.62,18.62,0,0,1-8,1.72,19.53,19.53,0,0,1-9.35-2.19,15.58,15.58,0,0,1-6.38-6.29,21.35,21.35,0,0,1,0-19.2,15.58,15.58,0,0,1,6.38-6.29,19.53,19.53,0,0,1,9.35-2.19,19.75,19.75,0,0,1,9.35,2.16,15.58,15.58,0,0,1,6.38,6.16,18.79,18.79,0,0,1,2.29,9.45A12.92,12.92,0,0,1,287.81,339.76Zm-13.76-5.69a3.69,3.69,0,0,0-1.12-3,4.15,4.15,0,0,0-2.82-1q-3.81,0-4.38,3.94Z"/><path class="cls-5" d="M199.4,165.29h0c-.07-.2-.13-.41-.2-.61Z"/><path class="cls-6" d="M475.3,117.62l-2-1.3a21.85,21.85,0,0,1-3.21-3.17l-6.75-7.78c3.57,4.06,9.17,10.22,11.85,12.14Z"/></g></g></svg>