<svg xmlns="http://www.w3.org/2000/svg" viewBox="0 0 126.38 56.65"><defs><style>.cls-1{fill:#4a6eb0;}.cls-2{fill:#08539d;}</style></defs><title>yangtze-viz</title><g id="Laag_2" data-name="Laag 2"><g id="lengte"><path class="cls-1" d="M126.38,7.36V19.41a14.3,14.3,0,0,1-4.52-5.87,36.77,36.77,0,0,0-2.13-4.25A3.3,3.3,0,0,0,113.59,11V11A14.09,14.09,0,0,0,114.78,17c1.84,4.33,1,7.32-.24,9.21,0,0,0,0,0,0a8.24,8.24,0,0,1-2.83,2.62c-3.91,2.64-7.5,3.11-10.59,2.46h0a7.41,7.41,0,0,0-6.77.82l0,0c-.66.41-1.13.8-1.36.92-1.14.64-.62,4.89.94,7.66.77,1.34.78,3.55.6,5.46a13.08,13.08,0,0,1-3.27,7.67c-6.52,7.1-14.64-1-15.46-4.83a8.18,8.18,0,0,0-9.4-6.55,10.54,10.54,0,0,0-1.07.2,13.59,13.59,0,0,1-1.57.25c-3.66.31-8.76-.65-12-1.4-.55-.13-1.1-.27-1.65-.43s-1.16-.32-1.82-.49l-.08,0C45,39.79,40.81,39.14,37.71,40a14.39,14.39,0,0,1-11.87-1.94l-.06,0a14.32,14.32,0,0,1-5-6.24,36.77,36.77,0,0,0-2.13-4.25,3.3,3.3,0,0,0-6.14,1.68v.06a14.09,14.09,0,0,0,1.19,5.94c1.84,4.33,1,7.32-.24,9.21l0,0a8.24,8.24,0,0,1-2.83,2.62C6.68,49.72,3.09,50.19,0,49.54v-5.9a7.41,7.41,0,0,0,6.77-.82l0,0c.66-.41,1.13-.8,1.36-.92,1.14-.64.62-4.89-.94-7.66-.77-1.34-.78-3.55-.6-5.46A13.08,13.08,0,0,1,9.9,21.08c6.52-7.1,14.64,1,15.46,4.83a8.18,8.18,0,0,0,9.4,6.55,10.54,10.54,0,0,0,1.07-.2A11.73,11.73,0,0,1,37.4,32c3.38-.29,8,.51,11.26,1.22,1,.22,2,.48,3,.76.39.11.81.23,1.25.33l.08,0c3.14.77,7.31,1.42,10.41.54a14.43,14.43,0,0,1,11.87,1.93l.06,0a14.26,14.26,0,0,1,5,6.24,36.77,36.77,0,0,0,2.13,4.25,3.3,3.3,0,0,0,6.14-1.68v-.06a14.09,14.09,0,0,0-1.19-5.94c-1.84-4.33-1-7.32.24-9.21,0,0,0,0,0,0a8.33,8.33,0,0,1,2.83-2.63c3.91-2.63,7.5-3.1,10.59-2.45h0a7.41,7.41,0,0,0,6.77-.82l0,0c.66-.41,1.13-.8,1.36-.92,1.14-.64.62-4.89-.94-7.66-.77-1.34-.78-3.55-.6-5.46A13.08,13.08,0,0,1,111,2.82C117.36-4.1,125.24,3.41,126.38,7.36Z"/><path class="cls-2" d="M126.38,8.4V20a13.82,13.82,0,0,1-4.52-5.63,35.74,35.74,0,0,0-2.13-4.09,3.32,3.32,0,0,0-6.14,1.61v.07a13.09,13.09,0,0,0,1.19,5.7c1.84,4.16,1,7-.24,8.84,0,0,0,0,0,0A8.16,8.16,0,0,1,111.69,29a14,14,0,0,1-10.59,2.36h0a7.67,7.67,0,0,0-6.77.78l0,0c-.66.4-1.13.77-1.36.89-1.14.61-.62,4.69.94,7.35.77,1.29.78,3.41.6,5.24A12.33,12.33,0,0,1,91.2,53c-6.52,6.81-14.64-1-15.46-4.64a8.16,8.16,0,0,0-9.4-6.29c-.35,0-.71.11-1.07.19a11.78,11.78,0,0,1-1.57.24c-3.66.3-8.76-.62-12-1.35-.55-.12-1.1-.25-1.65-.4s-1.16-.31-1.82-.47l-.08,0c-3.14-.74-7.31-1.37-10.41-.52A14.93,14.93,0,0,1,25.84,37.9l-.06,0a13.9,13.9,0,0,1-5-6,35.74,35.74,0,0,0-2.13-4.09,3.32,3.32,0,0,0-6.14,1.61v.07a13.09,13.09,0,0,0,1.19,5.7c1.84,4.16,1,7-.24,8.84l0,0a8.16,8.16,0,0,1-2.83,2.52A14,14,0,0,1,0,48.9V43.23a7.67,7.67,0,0,0,6.77-.78l0,0c.66-.4,1.13-.77,1.36-.89,1.14-.61.62-4.69-.94-7.35-.77-1.29-.78-3.41-.6-5.24A12.33,12.33,0,0,1,9.9,21.57c6.52-6.81,14.64.95,15.46,4.64a8.16,8.16,0,0,0,9.4,6.29c.35,0,.71-.11,1.07-.19a11.78,11.78,0,0,1,1.57-.24,43.9,43.9,0,0,1,11.26,1.17c1,.21,2,.46,3,.73.39.11.81.21,1.25.32l.08,0c3.14.74,7.31,1.37,10.41.52a14.93,14.93,0,0,1,11.87,1.86l.06,0a13.9,13.9,0,0,1,5,6,34.64,34.64,0,0,0,2.13,4.08,3.32,3.32,0,0,0,6.14-1.61v-.06a13.09,13.09,0,0,0-1.19-5.7c-1.84-4.16-1-7,.24-8.84l0,0a8.16,8.16,0,0,1,2.83-2.52,14,14,0,0,1,10.59-2.36h0a7.67,7.67,0,0,0,6.77-.78l0,0c.66-.4,1.13-.77,1.36-.89,1.14-.61.62-4.69-.94-7.35-.77-1.29-.78-3.41-.6-5.24A12.33,12.33,0,0,1,111,4C117.36-2.6,125.24,4.61,126.38,8.4Z"/></g></g></svg>